<?xml version="1.0" encoding="utf-8"?>
<!-- Generator: Adobe Illustrator 21.1.0, SVG Export Plug-In . SVG Version: 6.00 Build 0)  -->
<svg version="1.1" id="Layer_1" xmlns="http://www.w3.org/2000/svg" xmlns:xlink="http://www.w3.org/1999/xlink" x="0px" y="0px"
	 viewBox="0 0 300 159.4" style="enable-background:new 0 0 300 159.4;" xml:space="preserve">
<style type="text/css">
	.st0{fill:#E82527;}
</style>
<g>
	<path class="st0" d="M210.6,97.4L183.1,0h-61.8v26.1c-8.1-15.6-27.5-25-54.7-25C34.7,1.1,6.3,16,4.8,51.2h40.8
		c1.3-10.8,9.1-16.3,19.7-16.3c8.9,0,17.8,3.7,17.8,13.7c0,14.3-15,15.6-26.9,15.6v26.7c10.8,0,28.2,1.5,28.2,16.9
		c0,8.9-6.9,17.8-20.2,17.8c-14.1,0-21.7-8.5-21.7-22.6H0c0,37.5,26.2,56.4,61.8,56.4c27.7,0,48.6-8.4,59.4-24.7v21.5h46v-52.9
		c0-12.6-1.7-33.6-3.3-47.3h0.4l28.4,100.2h35.6L256.8,56h0.4c-1.9,18-3.3,34.9-3.3,52.5v47.7h46V0h-61.8L210.6,97.4L210.6,97.4z
		 M121.3,83.3c-3.5-4-8.1-7.1-13.7-9.3c6.3-3.1,10.8-7.3,13.7-12.5V83.3L121.3,83.3z"/>
</g>
</svg>
