<?xml version="1.0" encoding="utf-8"?>
<!-- Generator: Adobe Illustrator 20.0.0, SVG Export Plug-In . SVG Version: 6.00 Build 0)  -->
<svg version="1.1" id="Layer_1" xmlns="http://www.w3.org/2000/svg" xmlns:xlink="http://www.w3.org/1999/xlink" x="0px" y="0px"
	 viewBox="0 0 300 95.9" style="enable-background:new 0 0 300 95.9;" xml:space="preserve">
<style type="text/css">
	.st0{fill:#EC1C24;}
</style>
<g>
	<path class="st0" d="M250.7,95.8V49.9h-32.9v45.9H250.7L250.7,95.8L250.7,95.8L250.7,95.8z M250.7,46h-32.9V0h32.9V46L250.7,46
		L250.7,46L250.7,46z M293,49.9c4.3,5.1,7,11.1,7,17.2c0,15.8-15.9,28.8-35.4,28.8l0,0h-9.5V50L293,49.9L293,49.9L293,49.9L293,49.9
		z M255.4,46l33.4,0.1l0,0c-3.1-2.3-7.1-4.4-11.1-5.7c8.1-3.8,13.5-11.1,13.5-18.8c0-11.8-11.9-21.5-26.4-21.5l0,0h-9.5V46L255.4,46
		L255.4,46L255.4,46z M158.9,95.8H126V49.9h32.9V95.8L158.9,95.8L158.9,95.8L158.9,95.8z M158.9,46H126V0h32.9V46L158.9,46L158.9,46
		L158.9,46z M163.6,95.8V49.9h37.6l0,0c4.3,5.1,7,11.1,7,17.2c0,15.8-15.9,28.8-35.4,28.8l0,0h-9.2V95.8L163.6,95.8L163.6,95.8z
		 M163.6,46V0h9.5l0,0c14.5,0,26.5,9.7,26.5,21.5c0,7.8-5.3,15-13.5,18.8c3.9,1.1,8,3.4,11.1,5.7l0,0H163.6L163.6,46L163.6,46
		L163.6,46z M56.5,46h-35L41.2,0h15.4V46L56.5,46L56.5,46L56.5,46z M96.4,46L76.6,0H61.3v45.9L96.4,46L96.4,46L96.4,46L96.4,46z
		 M117.7,95.8H88.4l-8.2-19.1H61.3V49.9h36.7L117.7,95.8L117.7,95.8L117.7,95.8L117.7,95.8z M0,95.8h29.4l8.2-19.1h18.8V49.9H19.8
		L0,95.8L0,95.8L0,95.8z"/>
</g>
</svg>
