<?xml version="1.0" encoding="utf-8"?>
<!-- Generator: Adobe Illustrator 20.0.0, SVG Export Plug-In . SVG Version: 6.00 Build 0)  -->
<svg version="1.1" id="Layer_1" xmlns="http://www.w3.org/2000/svg" xmlns:xlink="http://www.w3.org/1999/xlink" x="0px" y="0px"
	 viewBox="0 0 300 86" style="enable-background:new 0 0 300 86;" xml:space="preserve">
<style type="text/css">
	.st0{fill:#76787B;}
</style>
<g>
	<g>
		<path class="st0" d="M21.8,67.6c0,5-2.1,11.7-8.1,11.7c-3.1,0-4.9-1.5-4.9-4.6C8.8,68.8,17.4,67.6,21.8,67.6 M30.5,85V57.2
			c0-9-6-12.1-14.2-12.1c-8.1,0-14.8,3.5-14.8,12.3h8.8c0-3.9,2.1-6,6-6c4.5,0,5.5,3.2,5.5,7.1v3.9C13,62.7,0,63.8,0,75.6
			C0,82.4,5.2,86,11.5,86c4.2,0,8.2-1.4,10.2-5.4h0.1v4.5h8.6"/>
		<path class="st0" d="M57.6,59.2c0-4-1.1-7.8-6-7.8c-5.9,0-7.5,6.1-7.5,10.7c0,9.8,5.7,17.4,16.1,17.4c2.2,0,4.4-0.2,6.6-1v5.7
			C63,85.3,59.2,86,55.3,86c-14,0-20.9-8.5-20.9-22.2c0-11.3,6.2-18.7,17.9-18.7c9.6,0,14.8,4.6,14.8,14.3h-9.7"/>
		<path class="st0" d="M92.3,59.2c0-4-1.1-7.8-6-7.8c-5.9,0-7.5,6.1-7.5,10.7c0,9.8,5.9,17.4,16.1,17.4c2.2,0,4.4-0.2,6.6-1v5.7
			c-3.7,1.1-7.6,1.7-11.3,1.7c-14,0-20.9-8.5-20.9-22.2c0-11.3,6.2-18.7,17.9-18.7c9.6,0,14.8,4.6,14.8,14.3h-9.8"/>
		<path class="st0" d="M128.1,57.4H114c0.4-4,3.5-6.7,7.4-6.7C125.3,50.7,128.1,53.2,128.1,57.4 M136.8,63v-2.2
			c0-9.6-4.9-15.8-14.8-15.8c-11.6,0-16.7,7.4-16.7,18.4c0,12.8,5.9,22.4,19.7,22.4c3.7,0,7.4-0.4,11-1.5V78c-2.4,0.7-5,1.4-7.5,1.4
			c-8.8,0-14.7-8.1-14.7-16.3H136.8"/>
		<path class="st0" d="M163.7,85V62.7c0-2,0.1-7-1.4-8.3c-0.6-0.6-1.6-0.7-2.6-0.7c-6.6,0-9.1,9.2-9.1,14.6V85h-9.1V46h9.1v7.4h0.1
			c2.1-5,6-8.2,11.6-8.2c7.5,0,10.6,6.2,10.6,12.8v27H163.7"/>
		<path class="st0" d="M191.7,52.1v18.4c0,4.6,0.5,8.7,6.2,8.7c1.4,0,2.9-0.2,4.1-0.6v6.5c-2.5,0.4-5,0.6-7.5,0.6
			c-8,0-12-2.6-12-10.7V52.1H175v-6.4h7.6v-9.2l9.1-3.7v13h11.6v6.4L191.7,52.1"/>
		<path class="st0" d="M229.6,85v-7.4h-0.1c-2.1,4.9-6.1,8.2-11.6,8.2c-7.5,0-10.6-6.2-10.6-12.8V46h9.1v22.3c0,2-0.1,6.9,1.4,8.3
			c0.6,0.6,1.6,0.7,2.6,0.7c6.6,0,9.1-9.2,9.1-14.6V46h9.1v39L229.6,85"/>
		<path class="st0" d="M253.8,67.8V85h-9.2V46h9.1v7.2h0.1c3.1-5.4,6.1-8.1,12.6-8.1v9.6C257.1,54.3,253.8,58.6,253.8,67.8"/>
		<path class="st0" d="M291.3,57.4H277c0.4-4,3.5-6.7,7.4-6.7C288.7,50.7,291.3,53.2,291.3,57.4 M300,63v-2.2
			c0-9.6-4.9-15.8-14.8-15.8c-11.6,0-16.7,7.4-16.7,18.4c0,12.8,5.9,22.4,19.7,22.4c3.7,0,7.4-0.4,11-1.5V78c-2.4,0.7-5,1.4-7.5,1.4
			c-8.8,0-14.7-8.1-14.7-16.3H300"/>
		<path class="st0" d="M175.2,0v6.5c0,0,18.2,7.1,20.9,8c-2.6,1-20.9,8-20.9,8v6.5l28.4-11.5v-6L175.2,0"/>
	</g>
</g>
</svg>
