<?xml version="1.0" encoding="utf-8"?>
<!-- Generator: Adobe Illustrator 20.0.0, SVG Export Plug-In . SVG Version: 6.00 Build 0)  -->
<svg version="1.1" id="Layer_1" xmlns="http://www.w3.org/2000/svg" xmlns:xlink="http://www.w3.org/1999/xlink" x="0px" y="0px"
	 viewBox="0 0 300 127.1" style="enable-background:new 0 0 300 127.1;" xml:space="preserve">
<style type="text/css">
	.st0{fill:#E2001A;}
</style>
<g>
	<path d="M98.9,85.6c-0.5-1.6-0.6-4.4-0.6-9.6V61.6c0-9.5-5.5-13.2-14.5-13.2c-4.9,0-9.4,0.7-14.2,4l3,5.7c2.4-1.4,5.4-2.7,9.4-2.7
		c3.9,0,7,1.7,7,6.1v0.9l-6.4,0.2c-9.4,0.2-15.3,4.4-15.3,12c0,7.2,5.2,11.7,12,11.7c4.9,0,8.2-1.7,10.5-4l1.5,3.2H98.9z M88.8,76.7
		c-1.2,1-3.4,2.4-6.6,2.4c-3.9,0-5.9-2-5.9-5.1c0-3.1,2.2-4.7,7.2-4.9l5.2-0.1C88.8,69,88.8,76.7,88.8,76.7z"/>
	<path d="M121.6,86.3c-11.9,0-18-8.6-18-18.7c0-11.1,8-19.2,18.8-19.2c4.9,0,8.4,1.2,10.4,2.6l-0.1,7.6c-2.6-1.9-5.4-3-9.1-3
		c-6.2,0-10.6,4.9-10.6,11.7c0,6.2,3.4,11.9,10.6,11.9c3.5,0,6-1,8.6-2.6l2.4,6C131.6,84.3,126.6,86.3,121.6,86.3"/>
	<path d="M154.6,86.3c-11.9,0-18-8.6-18-18.7c0-11.1,8-19.2,18.8-19.2c4.9,0,8.4,1.2,10.4,2.6l-0.1,7.6c-2.6-1.9-5.4-3-9.1-3
		c-6.2,0-10.6,4.9-10.6,11.7c0,6.2,3.4,11.9,10.6,11.9c3.5,0,6-1,8.6-2.6l2.4,6C164.4,84.3,159.5,86.3,154.6,86.3"/>
	<path d="M173,49h9.2v36.4H173V49z M177.6,43.4c-3.2,0-5.6-2.5-5.6-5.6c0-3,2.6-5.5,5.6-5.5c3.2,0,5.7,2.5,5.7,5.5
		C183.4,40.8,180.9,43.4,177.6,43.4"/>
	<path d="M224.4,67.1c0-5.5-1.6-10.2-4.9-13.7c-3.2-3.4-7.9-5.2-13.3-5.2c-5.2,0-9.7,1.9-13,5.1c-3.4,3.5-5.2,8.4-5.2,14.1
		c0,5.9,2,11,5.6,14.2c3.2,3,7.5,4.5,12.6,4.5c5.5,0,9.9-1.9,13.2-5.2C222.5,77.7,224.4,72.7,224.4,67.1 M214.8,67.2
		c0,6.9-3,11.9-8.7,11.9c-5.6,0-9-4.7-9-11.9c0-6.9,2.9-11.7,8.7-11.7C211.7,55.5,214.8,60.2,214.8,67.2"/>
	<path d="M253.7,85.6V64.1c0-3.7-0.6-8-5.4-8c-3.2,0-6.4,1.6-9.2,3.9v25.6h-9.2V49h7.9l1,4c4-3,7.9-4.7,12.8-4.7
		c5.5,0,11.5,3.4,11.5,13.1v24.2C263.1,85.6,253.7,85.6,253.7,85.6z"/>
	<path d="M300,85.6c-0.5-1.6-0.6-4.4-0.6-9.6V61.6c0-9.5-5.5-13.2-14.5-13.2c-4.9,0-9.4,0.7-14.2,4l3,5.7c2.4-1.4,5.4-2.7,9.4-2.7
		c3.9,0,7,1.7,7,6.1v0.9l-6.4,0.2c-9.4,0.2-15.3,4.4-15.3,12c0,7.2,5.2,11.7,12,11.7c4.9,0,8.2-1.7,10.5-4l1.5,3.2H300z M289.9,76.7
		c-1.2,1-3.4,2.4-6.6,2.4c-3.9,0-5.9-2-5.9-5.1c0-3.1,2.2-4.7,7.2-4.9l5.2-0.1V76.7z"/>
	<path class="st0" d="M51.4,68.6c-0.6-2.7-1.2-5.4-1.9-8.1c-1-4.9-1.9-9.7-2.4-14.6c-0.1-1.4-0.1-2.7-0.2-4c-0.1-2-0.1-4-0.1-5.9
		c0.1-3.4,0.2-6.4,0.6-9.2c0.5-3.6,1.2-6.9,1.7-9.4c-0.6,0.5-1.1,0.9-1.7,1.2c-0.6,1.9-1.4,4.7-2.2,8.1c-0.5,2.4-1,5-1.4,7.9
		c-2.7-1.1-5.4-2.6-7.9-4.2l0.1,3.9c2.4,1.9,4.7,3.6,7.4,5.1c-0.4,4.4-0.5,9.1-0.1,14.3c0.1,1.6,0.2,3.4,0.4,4.9
		c-5.2-1.4-10.7-3.7-15.6-6.9l0.1,3.9c5,4.1,10.7,7.6,16.3,9.9c0.7,5.5,1.7,11,2.7,16.5c-7.2-0.9-16.8-3.6-24.4-8.7l0.1,3.9
		c8,6.7,17.8,11.2,25.6,12.7c1.5,11.5,2.2,23.5-0.5,37.3l9-5.2C60.2,102.4,55.4,85.2,51.4,68.6"/>
	<path class="st0" d="M41.5,105.8C29.9,105.5,8.1,94.2,0.7,78.5c0,0-0.6-1.2-0.7-1.7c0.4-0.5,1.1-1.5,1.1-1.5
		c2.6-3.7,5.7-9.9,5.7-18.5c0-2.6-0.5-5.7-1.4-9.5c0,0-0.4-1.5-0.5-2.4c0.5-0.4,1.9-1.2,1.9-1.2c4.9-3.2,13.3-11.1,14.5-26.9
		c0,0,0.1-1.9,0.2-2.6c0.7-0.1,2.6-0.4,2.6-0.4c5-0.7,14.6-3.2,23.1-11.5c0,0,1.5-1.5,2.4-2.2C50.3,0.6,52,2.2,52,2.2
		c8.4,8.1,18.1,10.6,23.1,11.5c0,0,1.7,0.2,2.6,0.4c0,0.7,0,2.6,0,2.6c0.1,12,5.4,16.8,7.5,18.2c-0.6,0.6-1.4,1.2-1.7,1.5
		c-5.1-2-11.2-6.6-12-16.8c-5.4-1.1-13.5-4-21.2-10.2l-0.4-0.5l-0.4,0.5c-7.6,6.2-15.7,9-21.1,10.1l-0.5,0.1l-0.4,0.5
		c-2.2,14.7-9.4,23.1-15.1,27.6l-0.4,0.2l0.1,0.4c0.7,3.5,1,6.1,1,8.4c0,7.2-1.9,14-5.6,20.1l-0.2,0.4l0.2,0.4
		C7.1,88.8,32.3,103.5,41,103.9L41.5,105.8z"/>
</g>
</svg>
