<?xml version="1.0" encoding="utf-8"?>
<!-- Generator: Adobe Illustrator 20.0.0, SVG Export Plug-In . SVG Version: 6.00 Build 0)  -->
<svg version="1.1" id="Layer_1" xmlns="http://www.w3.org/2000/svg" xmlns:xlink="http://www.w3.org/1999/xlink" x="0px" y="0px"
	 viewBox="0 0 300 72" style="enable-background:new 0 0 300 72;" xml:space="preserve">
<style type="text/css">
	.st0{fill:#77BC1F;}
</style>
<g>
	<path class="st0" d="M225.9,71.7c-1.1,0-1.9-0.2-2.4-0.7c-0.4-0.5-0.5-1.1-0.2-1.9L235.7,26c4.9-17.1,19.5-25.9,43.1-25.9
		c7.5,0,11.9,0.1,13.2,0.2c5.1,0.4,6.4,1.4,7.4,2.9c0.6,0.9,0.7,2,0.3,3.2l-2.2,6.2c-0.7,2-2.2,2.2-3,2.2c-0.1,0-0.2,0-0.4,0
		c-4.2-0.1-10.7-0.2-19.5-0.2c-9.6,0-15.1,2.9-16.9,8.9l-13.1,45.6c-0.4,1.1-1.2,2.5-3.9,2.5H225.9z"/>
	<path class="st0" d="M20.7,14.9c-1.5,0-2-0.6-1.6-1.7l2-6.2c1-3.2,3.7-5.1,8.4-5.7C35.5,0.4,45.3,0,59.1,0
		c26.2,0,36.6,8.5,31.4,25.6l-12,38.2c-1.1,3.4-3.7,4.7-9.1,5.6c-9.2,1.5-20.6,2.4-34.2,2.4C7.8,71.9-3.5,64.6,1,50.1
		C4.2,39.6,16.6,33,37.8,30.2c7.5-0.9,17.7-2.5,30.6-4.6c1.6-0.4,2.6-1.2,3.1-2.7c2.1-6.7-3.6-10.2-17.2-10.2
		c-4.6,0-11.6,0.4-21.1,1.1C26.1,14.2,21.8,14.7,20.7,14.9L20.7,14.9z M60.5,58.1L67,37.6l-34.2,4.6c-6.5,0.9-10.5,3.5-11.9,7.9
		c-1.9,6.1,4.6,9.1,19.7,9.1C49.2,59.2,55.8,58.9,60.5,58.1"/>
	<path class="st0" d="M158.8,12.4l-0.1-1.4l-0.6-4.9c-0.4-3.2-2.7-5.1-7.1-5.6c-4-0.2-6.9-0.5-11.2-0.5c-0.1,0-0.1,0-0.2,0
		C110.8,0.1,93,11.6,85.8,34.7C78.2,59.5,88.7,72,117.5,72c10,0,19.6-0.4,24.1-1.1c4.7-0.9,7-1.9,8.1-5.5l1.2-6.4
		c0.2-1.5,0-2.2-0.7-2.2l-8,0.5c-5.4,0.4-12.5,0.7-16.9,0.7c-10.7,0-17.4-1.7-19.9-5.4c-2.2-3.2-2.1-9.2,0.6-17.9
		c4.5-14.5,15.5-21,33.2-21c9.1,0,18.1,1,18.1,1l0,0C158.4,14.7,158.9,13.5,158.8,12.4"/>
	<path class="st0" d="M238.4,20.5c-3.5,11.5-15.2,18.5-35.2,21l-35.9,4.6c-0.2,5.1,1.9,8.6,6.4,10.2c3,1.1,8.5,1.6,16.5,1.6
		c4.2,0,10.1-0.2,17.7-0.6l11.2-0.5c1.5,0,2,0.5,1.6,1.7l-2.1,6.9c0,0.4-0.1,0.7-0.2,1c-0.5,1.7-2.1,3-4.5,3.9
		c-3,1-13.2,1.5-30.9,1.5c-29.7,0-40.9-12.1-33.4-36.5C156.9,11.9,175.2,0,204.4,0C231.3,0,242.7,6.9,238.4,20.5 M218.8,21.1
		c1.7-5.7-3.7-8.6-16.6-8.6c-9.7,0-16.9,1.4-21.2,4.1c-4.4,2.7-7.7,8-10.1,15.7l-0.7,2.4l28.5-4C210.7,29,217.4,25.9,218.8,21.1"/>
</g>
</svg>
