<?xml version="1.0" encoding="utf-8"?>
<!-- Generator: Adobe Illustrator 20.0.0, SVG Export Plug-In . SVG Version: 6.00 Build 0)  -->
<svg version="1.1" id="Layer_1" xmlns="http://www.w3.org/2000/svg" xmlns:xlink="http://www.w3.org/1999/xlink" x="0px" y="0px"
	 viewBox="0 0 300 76.4" style="enable-background:new 0 0 300 76.4;" xml:space="preserve">
<style type="text/css">
	.st0{fill:#002369;}
	.st1{fill:#00854F;}
</style>
<g>
	<path class="st0" d="M63.1,75.4L47.9,28.3H29.5L0,75.4h25.7c-6-14.3,2.3-24.8,8.6-29.4l8.2,29.4H63.1L63.1,75.4z"/>
	<path class="st0" d="M65.7,75.4l6.1-47.1h21.8c17.7,0,25.1,6.8,25.1,16.3s-8.9,20.9-30,17.2c6.8-1.6,12-7.2,12-14.8
		s-5.7-12.7-11-12.7l-5.2,41.2H65.7V75.4z"/>
	<path class="st0" d="M162.1,56.4c5.8-1.5,11.4-6.2,11.4-13.2c0-8.7-6.7-15-23.3-15h-24l-6.1,47.1H139l5.2-41.2
		c5.8,0,11,4.3,11,10.6c0,6.6-4.7,11.2-11.5,12.5c6,16.3,18.5,21.3,32.7,18L162.1,56.4L162.1,56.4z"/>
	<polygon class="st0" points="184.9,28.3 179.2,75.4 198.2,75.4 203.9,28.3 	"/>
	<path class="st0" d="M227.8,65.5l4.6-37.3h-18.4l-5.8,47.1h38l3-13.3C242.6,66.5,236,67.8,227.8,65.5L227.8,65.5z"/>
	<path class="st0" d="M284.7,3.5c-2.7,0.5-6.5,1.9-8.5,3.4c1.9,1.1,3.5,2.4,4.8,3.5c3-1.4,6.1-2.4,9-3
		C288.5,6.1,286.6,4.8,284.7,3.5L284.7,3.5z"/>
	<path class="st0" d="M273.3,18.5c2.4,1.9,4.2,3.5,5.2,4.7c6.1-3.8,13.3-6.8,18.3-7.7c-1.3-2.3-2.9-4.3-4.8-6.2
		C285.9,10.4,277.2,14.6,273.3,18.5L273.3,18.5z"/>
	<path class="st0" d="M299.9,26c-0.3-3-1-5.8-2.3-8.6c-9,2.3-21.4,9.4-26.2,16.2c2,2.2,3.8,4.3,5.2,6.2
		C283.1,32.8,291.6,28,299.9,26L299.9,26z"/>
	<path class="st0" d="M274.7,49.4c0.5,0,1,0.1,1.6,0.1c12.7,0,23.1-9.4,23.7-21C292.3,30.7,279.6,38.5,274.7,49.4L274.7,49.4z"/>
	<path class="st1" d="M257.8,12.4c-2,2.7-3.5,5.7-4.4,8.9c6.2,2.4,11.3,6.1,15.5,9.8c1.6-2.2,4.1-4.3,6.8-6.2
		C272.4,20.9,266,15.5,257.8,12.4L257.8,12.4z"/>
	<path class="st1" d="M273.9,43.1c-3.8-7.1-12-15.3-20.9-19.1c-0.1,1.1-0.3,2.4-0.3,3.5c0,10.1,7.5,18.8,17.5,21.3
		C271.1,46.8,272.4,44.9,273.9,43.1L273.9,43.1z"/>
	<path class="st1" d="M270.8,16.7c2.2-1.8,4.8-3.5,7.6-4.9c-2.8-2.9-7.6-6-12.4-7.2c-2.5,1.8-4.9,3.8-6.8,6.1
		C263.8,12.3,267.6,14.6,270.8,16.7L270.8,16.7z"/>
	<path class="st1" d="M268.2,3.3c2.5-1.5,5.2-2.7,8-3.3c2.4,0.6,4.4,1.4,6.5,2.4c-2.4,0.5-6.2,1.8-8.7,3.3
		C272.4,4.8,270.2,4.1,268.2,3.3L268.2,3.3z"/>
</g>
</svg>
