<?xml version="1.0" encoding="utf-8"?>
<!-- Generator: Adobe Illustrator 20.0.0, SVG Export Plug-In . SVG Version: 6.00 Build 0)  -->
<svg version="1.1" id="Layer_1" xmlns="http://www.w3.org/2000/svg" xmlns:xlink="http://www.w3.org/1999/xlink" x="0px" y="0px"
	 viewBox="0 0 300 120.8" style="enable-background:new 0 0 300 120.8;" xml:space="preserve">
<style type="text/css">
	.st0{fill:#FF4C00;}
	.st1{fill:#3E3935;}
</style>
<path class="st0" d="M294.2,51.1c-1.6,0-3.5-0.6-4.5-1.1c-20.2-10.5-43.2-16.8-65.5-16.8c-2.8,0-4.9,0.1-7.4,0.4
	c4.3,6.7,11.4,16.4,16.4,22.4c1.3,1.5,1.6,2.4,1.6,4c0,2.5-2.6,5.1-5.7,5.1c-1.9,0-3.1-0.8-4.9-2.8c-6-7-15.2-19.6-19.3-26.7
	c-21.2,3.8-44.7,16.3-58.8,27.4c-1.5,1.3-2.6,1.8-4.4,1.8c-2.9,0-5.5-2.5-5.5-5.5c0-1.6,0.6-2.9,2.8-4.8
	c21.3-17.7,54.4-31.6,82.4-31.6c11.2,0,21.8,1.5,32.1,4.1c6.3,1.5,15.7,4.6,23.6,8.2c-20.8-12.6-47.1-24.1-63.7-24.1
	c-4.3,0-6.8,1.4-6.8,4.3c0,1.6,0.9,3.9,2.3,6.2c-3.4,0.4-7.7,1-11,1.9c-1.6-3.3-2.9-6.5-2.9-10.2C195,5,200.3,0,211,0
	c24,0,64.3,22.4,84.4,38.7c2.3,1.9,4.6,4.3,4.6,6.9C300.2,48,298,51.1,294.2,51.1z"/>
<g>
	<path class="st1" d="M33.7,98.6c0-1.4,0.9-2.3,2.1-2.3s2.1,0.9,2.1,2.3v2.4c1.1-2.4,3.8-4.8,6-4.8c1.5,0,2.1,0.9,2.1,2
		s-0.6,2-2.5,2.5c-4,1.1-5.8,3.4-5.8,7.7v12.4c0,1.4-0.9,2.3-2.1,2.3s-2.1-0.9-2.1-2.3V98.3h0.1V98.6z"/>
	<path class="st1" d="M132,98.6c0-1.4,0.9-2.3,2.1-2.3s2.1,0.9,2.1,2.3v2.4c1.1-2.4,3.8-4.8,6-4.8c1.5,0,2.1,0.9,2.1,2
		s-0.6,2-2.5,2.5c-4,1.1-5.8,3.4-5.8,7.7v12.4c0,1.4-0.9,2.3-2.1,2.3s-2.1-0.9-2.1-2.3V98.3h0.1V98.6z"/>
	<path class="st1" d="M58.9,96.3c4.3,0,7,1.6,7,3.3c0,0.9-0.6,1.8-1.6,1.8c-1.5,0-2.3-1.3-5.3-1.3c-5,0-7.5,4.5-7.5,9.7
		c0,5.7,2.8,9.7,7.5,9.7c3.3,0,4-1.3,5.5-1.3c1,0,1.5,0.6,1.5,1.6c0,1-0.8,1.8-2.3,2.4c-1.3,0.6-2.9,1-4.8,1
		c-7.4,0-11.9-5.7-11.9-13.4C47,102.1,51.5,96.3,58.9,96.3z"/>
	<path class="st1" d="M72.3,111.5c0.1,4.4,2.8,7.9,7.8,7.9c5.1,0,6.4-2.9,8.2-2.9c1,0,1.8,0.8,1.8,1.8c0,2.1-4.8,4.9-10,4.9
		c-4,0-6.5-1.3-8.5-3.3c-2.5-2.5-3.8-6.3-3.8-10.3c0-7.2,4.5-13.4,11.8-13.4c6.9,0,11.3,6,11.3,12.8c0,1.5-0.6,2.3-2.4,2.3H72.3
		V111.5z M86.6,108.2c0-3.8-2.1-8-6.9-8c-4.8,0-7.3,3.8-7.4,8H86.6z"/>
	<path class="st1" d="M100.1,120.9c0,1.4-0.9,2.3-2.1,2.3s-2.1-0.9-2.1-2.3V89.8c0-1.4,0.9-2.3,2.1-2.3s2.1,0.9,2.1,2.3V120.9z"/>
	<path class="st1" d="M116,123.3c-6.9,0-11.7-5.5-11.7-13.4S109,96.4,116,96.4c6.9,0,11.7,5.5,11.7,13.4
		C127.6,117.8,123.1,123.3,116,123.3z M116,119.4c4.3,0,7.2-3.8,7.2-9.7c0-5.9-2.9-9.7-7.2-9.7s-7.2,3.8-7.2,9.7
		C108.7,115.6,111.8,119.4,116,119.4z"/>
	<path class="st1" d="M175.2,98.1c-2.4,8.4-6.4,22.2-6.8,23.4c-0.4,1.3-1.1,1.8-2.3,1.8c-1.1,0-1.9-0.4-2.3-1.8
		c-0.4-1.1-4.5-15.7-6.9-24c-0.4-1.4-0.8-2.9-1-4.4c-0.1,1.3-0.4,2.9-0.6,4.4c-1.3,7.8-3.3,20.1-3.8,23.6c-0.3,1.5-1,2.1-2.3,2.1
		c-1.1,0-1.9-0.8-1.9-2c0-0.5,0.1-1.1,0.3-1.9c0,0,4.4-26.4,4.8-28.5c0.4-2.1,1.5-3.4,3.4-3.4c1.6,0,2.9,0.9,3.5,2.6
		c0.3,1.1,3.9,13.6,6.2,21.5c0.4,1.4,0.8,3.3,1.1,4.8c0.3-1.5,0.6-3.3,1.1-4.6c2.3-7.8,5.9-20.3,6.2-21.6c0.5-1.8,1.6-2.6,3.4-2.6
		c1.8,0,2.9,1.1,3.4,3.4c0.4,2,4.8,28.5,4.8,28.5c0.1,0.9,0.3,1.5,0.3,1.9c0,1.3-0.8,2-1.9,2c-1.3,0-2-0.6-2.3-2.1
		c-0.5-3.4-2.4-15.1-3.6-22.9c-0.3-1.6-0.5-3.5-0.6-5.1C176,94.6,175.7,96.3,175.2,98.1z"/>
	<path class="st1" d="M192.6,88.7c1.5,0,2.6,1.1,2.6,2.6c0,1.5-1.1,2.6-2.6,2.6c-1.5,0-2.6-1.1-2.6-2.6
		C190,89.8,191.2,88.7,192.6,88.7z M195,98.6c0-1.4-0.9-2.3-2.1-2.3s-2.1,0.9-2.1,2.3v22.4c0,1.4,0.9,2.3,2.1,2.3s2.1-0.9,2.1-2.3
		V98.6z"/>
	<path class="st1" d="M202.5,90.9c0-1.4,0.9-2.3,2.1-2.3s2.1,0.9,2.1,2.3v5.7h1.8c1.4,0,2.1,0.6,2.1,1.9c0,1.1-0.8,1.9-2.1,1.9h-1.8
		v20.5c0,1.4-0.9,2.3-2.1,2.3s-2.1-0.9-2.1-2.3v-20.5H201c-1.4,0-2.1-0.8-2.1-1.9c0-1.1,0.8-1.9,2.1-1.9h1.5V90.9z"/>
	<path class="st1" d="M216.4,90.9c0-1.4,0.9-2.3,2.1-2.3s2.1,0.9,2.1,2.3v5.7h1.8c1.4,0,2.1,0.6,2.1,1.9c0,1.1-0.8,1.9-2.1,1.9h-1.8
		v20.5c0,1.4-0.9,2.3-2.1,2.3s-2.1-0.9-2.1-2.3v-20.5h-1.5c-1.4,0-2.1-0.8-2.1-1.9c0-1.1,0.8-1.9,2.1-1.9h1.5V90.9z"/>
	<path class="st1" d="M29,119.3c-0.9-2.4-9.5-25.5-10.8-29c-0.6-1.8-1.6-2.8-3.4-2.8s-2.6,1-3.4,2.8c-0.6,1.5-9.9,26.5-10.9,29
		c-0.4,1-0.5,1.6-0.5,2c0,1.1,0.9,1.9,2,1.9s1.8-0.6,2.1-1.6c0.3-0.6,1.4-4,2.9-8.3h15.1c1.4,4.1,2.6,7.4,2.9,8.3
		c0.4,0.9,0.9,1.6,2.1,1.6c1.1,0,2.1-0.6,2.1-1.8C29.5,120.9,29.4,120.5,29,119.3z M8.5,109.4c1.8-5.1,3.9-10.7,5.1-14.3
		c0.4-1,0.6-2,0.9-2.8c0.3,0.9,0.6,1.9,0.9,2.8c1.3,3.8,3.4,9.4,5.1,14.3H8.5z"/>
	<path class="st1" d="M260.4,120.9c0,1.4-0.9,2.3-2.1,2.3s-2.1-0.9-2.1-2.3V89.8c0-1.4,0.9-2.3,2.1-2.3s2.1,0.9,2.1,2.3V120.9z"/>
	<path class="st1" d="M247.7,96.3c-1.3,0-2.1,0.9-2.1,2.3v1.9c-1.6-2.6-4.3-4.4-7.5-4.4c-6.7,0-11.3,5.5-11.3,13.4
		s4.6,13.4,11.3,13.4c3.3,0,5.9-1.6,7.5-4.4v1.9c0,1.4,0.9,2.3,2.1,2.3s2.1-0.9,2.1-2.3V98.1C250,97.2,249.1,96.3,247.7,96.3z
		 M238.5,119.4c-4.3,0-7.2-3.8-7.2-9.7c0-5.9,2.9-9.7,7.2-9.7c4.3,0,7.2,3.8,7.2,9.7C245.6,115.6,242.6,119.4,238.5,119.4z"/>
</g>
</svg>
