<?xml version="1.0" encoding="utf-8"?>
<!-- Generator: Adobe Illustrator 22.1.0, SVG Export Plug-In . SVG Version: 6.00 Build 0)  -->
<svg version="1.1" id="Layer_1" xmlns="http://www.w3.org/2000/svg" xmlns:xlink="http://www.w3.org/1999/xlink" x="0px" y="0px"
	 viewBox="0 0 300 300" style="enable-background:new 0 0 300 300;" xml:space="preserve">
<style type="text/css">
	.st0{fill:#002C4A;}
	.st1{fill:#A6CE39;}
	.st2{fill:#00BFF3;}
</style>
<g>
	<g>
		<g>
			<path class="st0" d="M52.7,116.2h5.5c0.6,0,1.1-0.5,1.1-1.1c0-0.6-0.5-1.1-1.1-1.1h-5.5V116.2z M52.7,121.6h5.7
				c0.7,0,1.3-0.6,1.3-1.3c0-0.7-0.6-1.3-1.3-1.3h-5.7V121.6z M61.6,117.5c0.7,0.7,1.2,1.8,1.2,2.9c0,2.2-1.8,4-4,4h-9.2v-13.2
				l9.1,0c2.1,0,3.9,1.7,3.9,3.9C62.5,116,62.1,116.9,61.6,117.5z"/>
			<path class="st0" d="M63.7,140.2h-3.4l-1.1-2.2h-7.4l-1.1,2.2h-3.4L54,127h3.1L63.7,140.2z M55.5,130.3l-2.3,4.8h4.7L55.5,130.3z
				"/>
			<polygon class="st0" points="60,143 63.8,143 57.1,151.7 57.1,156.3 54,156.3 54,151.7 47.2,143 51,143 55.5,149.1 			"/>
			<polygon class="st0" points="77.6,143 77.6,145.9 68.8,145.9 68.8,148.1 77.3,148.1 77.3,150.9 68.8,150.9 68.8,153.4 
				77.6,153.4 77.6,156.3 65.6,156.3 65.6,143 			"/>
			<path class="st0" d="M87.3,151.2H85v5h-3.2V143h8.1c2.3,0,4.1,1.8,4.1,4.1c0,1.9-1.2,3.4-2.9,3.9l3.9,5.2h-3.8L87.3,151.2z
				 M89.6,145.9H85v2.5h4.6c0.7,0,1.3-0.6,1.3-1.3C90.8,146.4,90.2,145.9,89.6,145.9z"/>
			<path class="st0" d="M48.7,156.3h-3.4l-1.1-2.2h-7.4l-1.1,2.2h-3.4L39,143h3.1L48.7,156.3z M40.6,146.4l-2.3,4.8h4.7L40.6,146.4z
				"/>
			<path class="st0" d="M20.6,148.1h5.5c0.6,0,1.1-0.5,1.1-1.1c0-0.6-0.5-1.1-1.1-1.1h-5.5V148.1z M20.6,153.5h5.7
				c0.7,0,1.3-0.6,1.3-1.3c0-0.7-0.6-1.3-1.3-1.3h-5.7V153.5z M29.4,149.4c0.8,0.7,1.2,1.8,1.2,2.9c0,2.2-1.8,4-4,4h-9.2V143h9.1
				c2.1,0,3.9,1.7,3.9,3.9C30.3,147.9,30,148.7,29.4,149.4z"/>
			<polygon class="st0" points="61.5,159.1 61.5,162 52.7,162 52.7,164.2 61.2,164.2 61.2,167 52.7,167 52.7,169.5 61.5,169.5 
				61.5,172.4 49.5,172.4 49.5,159.1 			"/>
			<path class="st0" d="M59.3,179.6c0-0.7-0.6-1.3-1.3-1.3h-5.4v2.5h5.4C58.8,180.9,59.3,180.3,59.3,179.6z M49.5,188.8v-13.2h8.8
				c2.3,0,4.1,1.8,4.1,4.1c0,1.7-1.1,3.2-2.6,3.8l4,5.3h-3.8l-3.8-5h-3.6v5H49.5z"/>
		</g>
		<g>
			<path class="st1" d="M103.3,146.9C101.8,121.9,81,102,55.5,102c-25.4,0-46.3,19.9-47.8,44.9c0.1,1,0.2,2,0.3,3
				c1,8.3,4.2,16,9,22.4c8.7,11.8,22.7,19.5,38.5,19.5c-22.1,0-40.3-17.2-41.8-39c-0.1-1-0.1-2-0.1-3c0-1,0-2,0.1-3
				c1.5-21.8,19.7-39,41.8-39c15.8,0,29.8,7.7,38.5,19.5c4.8,6.4,7.9,14.1,9,22.5c0.1,1,0.2,2,0.3,2.9c0.1-1,0.1-2,0.1-3
				C103.4,148.9,103.4,147.9,103.3,146.9"/>
			<path class="st2" d="M7.8,152.8c1.5,25.1,22.3,44.9,47.8,44.9c25.4,0,46.3-19.9,47.8-44.9c-0.1-1-0.2-2-0.3-3
				c-1-8.3-4.2-16-9-22.4c-8.7-11.8-22.7-19.5-38.5-19.5c22.1,0,40.3,17.2,41.8,39c0.1,1,0.1,2,0.1,3c0,1,0,2-0.1,3
				c-1.5,21.7-19.7,39-41.8,39c-15.8,0-29.8-7.7-38.5-19.5c-4.8-6.4-7.9-14.1-9-22.5c-0.1-1-0.2-2-0.3-2.9c-0.1,1-0.1,2-0.1,3
				C7.7,150.9,7.7,151.9,7.8,152.8"/>
		</g>
	</g>
	<g>
		<path class="st0" d="M151,174.7c-2.3,0.6-5.4,0.8-8.1,0.8h-15.6v-51.1h10.8c8.6,0,10.9,0.2,14.1,1.9c4.5,2.4,6.9,6,6.9,10.7
			c0,5.3-3,9.4-9.3,11.3c7.7,1.7,11.4,6.5,11.4,13.2C161.3,168.6,157,173.1,151,174.7z M146.5,131c-1.2-0.4-2.6-0.5-5.2-0.5h-7V146
			h8.1c4.5,0,6.1-0.8,7.6-2.8c1-1.3,1.5-3.3,1.5-5C151.5,134.7,149.5,131.8,146.5,131z M148,152.4c-1.3-0.3-2.8-0.4-5.3-0.4h-8.2
			v17.8h10.1c4.2,0,9-2.5,9-9C153.5,156.5,151.2,153.1,148,152.4z"/>
		<path class="st0" d="M190.7,171.7c-1,1.2-4.3,4.9-11.1,4.9c-7.8,0-12.6-3.8-12.6-10.9c0-8.6,7.2-13.2,19.9-13.2
			c0.9,0,1.7,0,2.7,0.1v-2.4c0-4.4-0.6-7.3-6.1-7.3c-4.1,0-8.8,1.9-12,4.2l-3.3-4.9c3.8-2.1,8.8-4.9,16.4-4.9c5.7,0,9.8,2,11.3,5.9
			c0.6,1.6,0.8,2.9,0.8,6.5c0,2.7-0.3,8.4-0.3,13.8c0,5.1,0,7.1,3.1,8.9l-3.4,4.8C193.7,176.3,191.6,174.3,190.7,171.7z
			 M187.1,157.1c-5.4,0-8.6,1-10.2,2.7c-1.5,1.6-2,3-2,5.4c0,4.1,2.2,6.5,6.2,6.5c3.3,0,6.4-1.9,8.2-4.9l0.2-9.5
			C188.4,157.2,187.8,157.1,187.1,157.1z"/>
		<path class="st0" d="M243.5,159.3c0,3.2,0.4,5.6,1.6,7.4c1.9,3,5,4.4,8.5,4.4c3.5,0,6.5-1.2,9.1-3.6l2.6,4.1
			c-3.6,3.2-8,4.7-12.8,4.7c-10.3,0-16.6-7.5-16.6-19.6c0-6.5,1.3-10.6,4.5-14.4c3-3.5,6.6-5.1,11.2-5.1c4.2,0,7.5,1.3,10.1,4
			c3.3,3.3,4.4,7.5,4.5,16v1.2h-22.6V159.3z M256.7,145c-1.2-1.5-3-2.6-5.3-2.6c-5.2,0-7.8,4.2-7.8,11H259
			C259,149.8,258.2,146.8,256.7,145z"/>
		<path class="st0" d="M288.3,144c-4.2,0-7.7,3.5-7.7,7.6v24h-6.8v-27.3c0-4.5-0.5-7-1.4-9.3l6.6-1.7c0.7,1.4,1.3,3.9,1.3,5.7v0.7
			c3-4.3,6.2-6.5,10.1-6.5c0.9,0,1.8,0.2,2.4,0.4l-2.5,6.8C289.6,144.2,289.1,144,288.3,144z"/>
		<path class="st0" d="M218.3,166.9l9.3-28.5h7.5l-14.5,39.4c-1.9,5.3-3.9,8.5-6.6,10.6c-1.9,1.5-4.6,2.7-7.3,3.2l-2.3-4.5
			c2.8-0.7,4.9-1.9,6.8-4.3c1.3-1.5,2.7-3.3,4.2-7.5l-14.6-35.7l6.7-1.8c0,0,8.9,24.1,10.6,29.1H218.3z"/>
	</g>
</g>
</svg>
