<?xml version="1.0" encoding="utf-8"?>
<!-- Generator: Adobe Illustrator 21.0.2, SVG Export Plug-In . SVG Version: 6.00 Build 0)  -->
<svg version="1.1" id="Layer_1" xmlns="http://www.w3.org/2000/svg" xmlns:xlink="http://www.w3.org/1999/xlink" x="0px" y="0px"
	 viewBox="0 0 300 60.5" style="enable-background:new 0 0 300 60.5;" xml:space="preserve">
<style type="text/css">
	.st0{fill:#010101;}
	.st1{fill:none;stroke:#010101;stroke-width:7.5;stroke-miterlimit:10;}
</style>
<g>
	<path class="st0" d="M7.9,7.8h6.5c6,0,8.6,1.9,8.6,5.7c0,3.3-2.6,5.6-7.9,5.6H7.9V7.8z M0,45.4h16c8.4,0,16.8-3,16.8-12.7
		c0-5.7-4-10.1-9.6-10.7v-0.1c4.6-1.4,7.7-4.7,7.7-9.7C30.9,4.1,24,1,17.3,1H0V45.4z M7.9,25.9h7.6c6.4,0,9.4,1.6,9.4,6.3
		c0,5.8-5.7,6.5-9.7,6.5H7.9V25.9z"/>
	<line class="st1" x1="41.7" y1="45.4" x2="41.7" y2="0"/>
	<path class="st0" d="M58,30.4c0-4.7,3.3-9,8.8-9c5.5,0,8.8,4.3,8.8,9c0,4.7-3.3,9-8.8,9C61.3,39.4,58,35.1,58,30.4 M50.5,30.4
		c0,9.5,7.3,15.8,16.4,15.8c9.1,0,16.4-6.3,16.4-15.8s-7.3-15.8-16.4-15.8C57.8,14.6,50.5,20.9,50.5,30.4"/>
	<path class="st0" d="M94.1,30.4c0-4.7,3.3-9,8.8-9c5.5,0,8.8,4.3,8.8,9c0,4.7-3.3,9-8.8,9C97.5,39.4,94.1,35.1,94.1,30.4
		 M86.6,30.4c0,9.5,7.3,15.8,16.4,15.8c9.1,0,16.4-6.3,16.4-15.8s-7.3-15.8-16.4-15.8C93.9,14.6,86.6,20.9,86.6,30.4"/>
	<path class="st0" d="M123.9,15.3h7.1V20h0.1c1.3-2.8,4.2-5.5,9.2-5.5c4.6,0,7.8,1.8,9.4,5.6c2.2-3.8,5.4-5.6,9.9-5.6
		c8,0,10.8,5.7,10.8,12.9v17.9H163v-17c0-3.8-1.1-7-5.6-7c-4.7,0-6.5,3.9-6.5,7.8v16.3h-7.5V27.5c0-3.7-1.5-6.1-5.1-6.1
		c-4.9,0-6.9,3.6-6.9,7.6v16.4h-7.5V15.3z"/>
	<path class="st0" d="M201.6,30.4c0,4.7-3.3,9-8.8,9c-5.5,0-8.8-4.3-8.8-9c0-4.7,3.3-9,8.8-9C198.3,21.3,201.6,25.7,201.6,30.4
		 M176.6,45.4h7.1v-4.5h0.1c2.2,3.6,6.1,5.3,10.4,5.3c9.3,0,14.8-6.9,14.8-15.8c0-8.9-6-15.8-14.5-15.8c-5.6,0-8.7,2.6-10.2,4.6
		h-0.2V0h-7.5V45.4L176.6,45.4z"/>
	<path class="st0" d="M220,27.4c0.6-4.3,3.3-7.1,7.8-7.1c4.7,0,7.6,2.8,7.7,7.1H220z M243,33v-2.1c0-10.5-5.7-16.4-14.1-16.4
		c-9.1,0-16.4,6.3-16.4,15.8s7.3,15.8,16.4,15.8c4.8,0,9.2-1.7,12.7-6l-5.4-4.1c-1.9,2.3-4.3,4.1-8.1,4.1c-4.2,0-7.6-2.7-8.1-7.1
		H243z"/>
	<path class="st0" d="M247.9,15.3h7.5v4.8h0.1c1.6-3.4,4.9-5.5,8.9-5.5c0.9,0,1.8,0.2,2.7,0.4v7.3c-1.2-0.3-2.4-0.6-3.6-0.6
		c-7.1,0-8.1,6-8.1,7.6v16.1h-7.5L247.9,15.3L247.9,15.3z"/>
	<path class="st0" d="M284,21.4c5.4,0,8.9,3.6,8.9,8.8c0,5-3.4,8.8-9,8.8c-5.1,0-8.8-3.9-8.8-8.7C275.1,25,278.7,21.4,284,21.4
		 M292.9,15.3v4.5h-0.1c-2.2-3.6-6.2-5.3-10.4-5.3c-9.3,0-14.8,6.9-14.8,15.8c0,8.5,6,15.4,15,15.4c3.8,0,7.6-1.4,9.9-4.4h0.1v2.2
		c0,5.9-2.2,10.1-9.5,10.1c-4.2,0-7.3-1.6-10.3-4.3l-4.5,6.2c4.2,3.8,9.3,5,14.9,5c11.7,0,17-6.9,17-17.7V15.3H292.9z"/>
</g>
</svg>
