<?xml version="1.0" encoding="utf-8"?>
<!-- Generator: Adobe Illustrator 20.0.0, SVG Export Plug-In . SVG Version: 6.00 Build 0)  -->
<svg version="1.1" id="Layer_1" xmlns="http://www.w3.org/2000/svg" xmlns:xlink="http://www.w3.org/1999/xlink" x="0px" y="0px"
	 viewBox="0 0 297.7 143.3" style="enable-background:new 0 0 297.7 143.3;" xml:space="preserve">
<style type="text/css">
	.st0{fill:#9C9EA1;}
	.st1{fill:#010202;}
</style>
<path class="st0" d="M98.5,40.5"/>
<path class="st1" d="M49.9,84.3c-4.6-5.3-11.7-7.9-21.1-7.9c-9.8,0-17.4,3-22.8,9.1c-5.5,5.8-8.2,14.1-8.2,24.7
	c0,11.8,3.3,20.4,9.8,26.3c4.8,4.3,11.3,6.6,19.2,6.6c8.5,0,15-2.7,19.3-7.9l1.4,6.5h8.9v-33.9H32.5v10h10.3v2.9c0,3.3-1.4,6-4.2,8
	c-2.7,2-6,2.9-10,2.9c-5.3,0-9.4-1.9-12.3-5.5c-2.9-3.7-4.3-9-4.3-15.9c0-7.1,1.4-12.7,4.2-16.6c2.9-4.1,7-6.1,12.3-6.1
	c7.4,0,12.3,3.8,14.8,11.7l12.9-3.2C54.6,91.2,52.5,87.3,49.9,84.3 M76.6,141.6v-24.9h13.7l11.7,24.9h15.5l-13.7-27.2
	c7.5-3.4,11.2-9.1,11.2-17.1c0-5.6-1.4-10-4.3-13.2c-3.7-4.2-9.4-6.3-17.1-6.3H62.8v63.7h13.8V141.6z M76.6,88.7H90
	c3.7,0,6.3,0.6,8.1,2c1.8,1.4,2.8,3.4,2.8,6.5c0,6-3.7,8.9-10.9,8.9H76.6V88.7z M126.4,85.3c-5.5,6-8.1,14.1-8.1,24.5
	c0,11.5,3.3,20.1,9.8,26c5.5,4.8,12.6,7.4,21.2,7.4c9.8,0,17.4-3,22.8-9c5.6-6,8.1-14,8.1-24.4s-2.8-18.7-8.1-24.5
	c-5.6-6-13.1-9-22.7-9C139.6,76.3,132,79.3,126.4,85.3z M161.9,93.9c3,3.9,4.4,9.3,4.4,16c0,7.4-1.9,13.1-5.5,17
	c-3,3.3-6.9,5.1-11.8,5.1c-5.5,0-9.6-2-12.7-6.1c-2.9-3.8-4.3-9.3-4.3-16c0-6.7,1.4-12.2,4.3-16c3-4.1,7.2-6.1,12.6-6.1
	C154.6,87.8,158.9,89.7,161.9,93.9z M185.5,116.9c0,8,2.2,14.3,6.3,19c4.6,5.1,11.3,7.4,20.4,7.4c8.9,0,15.5-2.3,19.9-6.9
	c4.6-4.6,7-11.2,7-19.5v-39h-13.7v39.8c0,9.4-4.3,14-13.1,14c-8.8,0-13.2-4.6-13.2-14V77.9h-13.8v39L185.5,116.9L185.5,116.9z
	 M259.8,141.6v-23h14.6c7,0,12.6-1.9,16.8-5.5c4.3-3.8,6.6-8.9,6.6-15.2c0-6.2-1.9-11.2-5.7-14.8c-3.8-3.6-9.1-5.5-16-5.5h-29.9
	v63.7h13.7V141.6z M259.8,88.7h13.3c3.3,0,5.8,0.8,7.6,2.4c1.9,1.5,2.8,3.9,2.8,6.9c0,3-1,5.5-3,7.2c-2,1.8-4.4,2.5-7.6,2.5h-13.2
	v-19C259.6,88.7,259.8,88.7,259.8,88.7z"/>
<path class="st1" d="M27.7,64c17.5,0,26.3-6.3,26.3-19.2c0-7.1-3.4-12.1-10.3-14.8c5.6-2.7,8.1-7.2,8.1-13.7c0-5.7-2.3-9.9-6.7-12.8
	C41.5,1.1,36.5,0,30.6,0H0v63.7h27.7 M13.6,36.2h14.3c3.8,0,6.6,0.5,8.5,1.4c2.5,1.3,3.7,3.6,3.7,7.1c0,2.9-0.8,4.8-2.4,6.2
	c-1.9,1.5-5.2,2.4-9.9,2.4H13.6V36.2z M13.6,11H28c2.9,0,5.1,0.4,6.5,1c2.5,1,3.7,3.2,3.7,6.1c0,2.5-0.8,4.3-2.4,5.5
	c-1.5,1.1-4.1,1.8-7.7,1.8H13.6V11z M73.7,64V18.7l15.1,45.4H100l15.2-45.4v45.4h13.1V0.3h-18.1L94.8,47.6L79.2,0.3H60.7V64H73.7z
	 M164.7,64L176.6,19l11.2,45.1h15l15.5-63.7h-14l-9.6,45.9L183.8,0.3h-13.6L159,46.3l-9.4-46.1h-14.3l14.5,63.8h15V64z"/>
</svg>
