<?xml version="1.0" encoding="utf-8"?>
<!-- Generator: Adobe Illustrator 22.1.0, SVG Export Plug-In . SVG Version: 6.00 Build 0)  -->
<svg version="1.1" id="Layer_1" xmlns="http://www.w3.org/2000/svg" xmlns:xlink="http://www.w3.org/1999/xlink" x="0px" y="0px"
	 viewBox="0 0 300 300" style="enable-background:new 0 0 300 300;" xml:space="preserve">
<style type="text/css">
	.st0{fill:url(#SVGID_1_);}
	.st1{fill:url(#SVGID_2_);}
	.st2{fill:url(#SVGID_3_);}
	.st3{fill:url(#SVGID_4_);}
	.st4{fill:url(#SVGID_5_);}
	.st5{fill:url(#SVGID_6_);}
	.st6{fill:#FFFFFF;}
	.st7{fill:#231F20;}
</style>
<g>
	<g>
		<linearGradient id="SVGID_1_" gradientUnits="userSpaceOnUse" x1="32.5746" y1="122.7459" x2="32.5746" y2="187.9138">
			<stop  offset="0" style="stop-color:#008053"/>
			<stop  offset="0.6" style="stop-color:#7FCAAD"/>
			<stop  offset="1" style="stop-color:#00A66D"/>
		</linearGradient>
		<rect x="1.7" y="124.3" class="st0" width="61.7" height="61.7"/>
		<linearGradient id="SVGID_2_" gradientUnits="userSpaceOnUse" x1="32.4772" y1="108.9292" x2="32.4772" y2="182.1599">
			<stop  offset="0" style="stop-color:#00A66D"/>
			<stop  offset="0.3" style="stop-color:#7FCAAD"/>
			<stop  offset="0.55" style="stop-color:#00A66D"/>
			<stop  offset="0.8352" style="stop-color:#008053"/>
			<stop  offset="0.8861" style="stop-color:#00895C"/>
			<stop  offset="0.969" style="stop-color:#00A173"/>
			<stop  offset="1" style="stop-color:#00AC7D"/>
		</linearGradient>
		<path class="st1" d="M61.5,155.5c0,12.9,0.6,26.1,0.6,26.1c0,1.5-1,2.4-2.2,2.4H6.5c-1.2,0-2-1.1-2.2-2.4c0,0-1.5-11.3-1.5-28.5
			c0-17.2,1.5-25.3,1.5-25.3c0.2-1.4,1-2.4,2.2-2.4H60c1.2,0,2.2,1.1,2.2,2.4C62.1,127.8,61.5,142.6,61.5,155.5z"/>
		<g>
			<g>
				<linearGradient id="SVGID_3_" gradientUnits="userSpaceOnUse" x1="44.2076" y1="178.1161" x2="44.2076" y2="130.7266">
					<stop  offset="0" style="stop-color:#00B286"/>
					<stop  offset="1" style="stop-color:#00A66D"/>
				</linearGradient>
				<path class="st2" d="M49.6,140.9c-3.8,2.2-5,2.4-9.1,4.9l0.2-0.5c2.2-2.4,3.1-3.4,4.5-5.5c-3.8,0.2-9.4,0.7-13.3,1.5l0,0l0,0
					l0,0l0.2-0.4c3.6-1.8,10.3-3.5,13.7-3.9c-0.8-1.2-7.6-4.8-9.3-5.5l0,0l0,0l0,0l0.2-0.4c5.1,0.6,11.9,3,14.9,4.8
					c1.3-0.4,2.5-0.4,4.9-0.6c0,0-0.3,1.4-2.9,3.1l0,0l0,0l0,0c0.6,1.7-0.9,11-2.1,13.5l0,0l0,0l0,0C51.4,148,51.1,143.1,49.6,140.9
					z"/>
				<linearGradient id="SVGID_4_" gradientUnits="userSpaceOnUse" x1="14.8051" y1="178.1189" x2="14.8051" y2="130.7153">
					<stop  offset="0" style="stop-color:#00B286"/>
					<stop  offset="1" style="stop-color:#00A66D"/>
				</linearGradient>
				<path class="st3" d="M21.8,174.3l0.2-0.4c-2-0.8-4.1-1.4-5.7-3l0,0l0,0l0,0l0,0l0,0l0,0l0,0l0,0l0,0l0,0l0,0l0,0l0,0l0,0l0,0
					l0,0l0,0l0,0l0,0l0,0l0,0l0,0l0,0l0,0l0,0l0,0l0,0l0,0l0,0l0,0l0,0c0.5-1.4,1.1-2.6,2.1-4l0,0l0,0l0,0l0,0l0,0l0,0l0,0l0,0l0,0
					l0,0l0,0l0,0l0,0l0,0l0,0l0,0l0,0l0,0l0,0l0,0l0,0l0,0l0,0l0,0l0,0l0,0l0,0l0,0l0,0l0,0l0,0l0.2-0.4c-1.7,0.3-3.3,0.9-4.8,1.2
					l0,0l0,0l0,0l0,0l0,0l0,0l0,0l0,0l0,0l0,0l0,0l0,0l0,0l0,0l0,0l0,0l0,0l0,0l0,0l0,0l0,0l0,0l0,0l0,0l0,0l0,0l0,0l0,0l0,0l0,0
					l0,0c-1.2-2.1-1.6-4.9-2.2-7.7l-0.2,0.4l0,0l0,0l0,0l0,0l0,0l0,0l0,0l0,0l0,0l0,0l0,0l0,0l0,0l0,0l0,0c-0.3,3.1-0.5,5.3,0,7.8
					l0,0l0,0l0,0l0,0l0,0l0,0l0,0l0,0l0,0l0,0l0,0l0,0l0,0l0,0l0,0l0,0l0,0l0,0l0,0l0,0l0,0l0,0l0,0l0,0l0,0l0,0l0,0l0,0l0,0l0,0
					l0,0c-1.3,0.3-2.4,0.4-3.4,0.8l-0.2,0.4l0,0l0,0l0,0l0,0l0,0l0,0l0,0l0,0l0,0l0,0l0,0l0,0l0,0l0,0l0,0l0,0l0,0l0,0l0,0l0,0l0,0
					l0,0l0,0l0,0l0,0l0,0l0,0l0,0l0,0l0,0l0,0c1.6,1,2.9,1.8,4.7,2.6l0,0l0,0l0,0l0,0l0,0l0,0l0,0l0,0l0,0l0,0l0,0l0,0l0,0l0,0l0,0
					l0,0l0,0l0,0l0,0l0,0l0,0l0,0l0,0l0,0l0,0l0,0l0,0l0,0l0,0l0,0l0,0c1,2.1,2,3.5,3.6,5.1l0,0l0,0l0,0l0,0l0,0l0,0l0,0l0,0l0,0
					l0,0l0,0l0,0l0,0l0,0l0,0l0,0l0,0l0,0l0,0l0,0l0,0l0,0l0,0l0,0l0,0l0,0l0,0l0,0l0,0l0,0l0,0l0.2-0.4c-0.3-1.2-0.7-2.2-0.5-3.5
					l0,0l0,0l0,0l0,0l0,0l0,0l0,0l0,0l0,0l0,0l0,0l0,0l0,0l0,0l0,0l0,0l0,0l0,0l0,0l0,0l0,0l0,0l0,0l0,0l0,0l0,0l0,0l0,0l0,0l0,0
					l0,0C17.7,173.9,19.4,174.2,21.8,174.3z"/>
				<linearGradient id="SVGID_5_" gradientUnits="userSpaceOnUse" x1="23.9643" y1="178.1084" x2="23.9643" y2="130.7338">
					<stop  offset="0" style="stop-color:#00B286"/>
					<stop  offset="1" style="stop-color:#00A66D"/>
				</linearGradient>
				<path class="st4" d="M27.4,143.3c0,0-0.8,1.4-1.5,3.4h-0.2l0,0l0,0c4.8,0.6,9.2,2.6,10.4,3.2l-0.2,0.4l0,0l0,0l0,0l0,0l0,0l0,0
					l0,0c-4.9-0.9-7.5-0.8-9.4-0.6l0,0l0,0l0,0c-1.8,0.2-2.2,0.4-2.2,0.4l0,0l0,0l0,0l0,0l0,0l0,0l0,0c-1.1,2.3-1.7,6.1-1.9,7.5
					l-0.2,0.4l0,0l0,0l0,0l0,0l0,0l0,0l0,0c-0.9-2.2-2.2-6.5-2.2-6.5l0,0l0,0l0,0l0,0l0,0l0,0l0,0c-2.5,1.3-8.2,6.7-8.2,6.7l0,0l0,0
					l0,0l0,0l0,0l0,0l0,0c3.2-6.3,6.4-9.2,6.4-9.2l0,0l0,0l0,0l0,0l0,0l0,0l0,0c-1.1-1.1-4-1.7-6.1-1.8l0,0l0,0l0,0l0.2-0.4
					c1.3-0.4,4-0.6,5.9-0.6l0,0l0,0l0,0l0,0l0,0l0,0l0,0c2.2-0.1,3.5,0.1,3.5,0.1l0,0l0,0l0,0C23.5,144.8,26.4,143.4,27.4,143.3z"/>
				<linearGradient id="SVGID_6_" gradientUnits="userSpaceOnUse" x1="31.8833" y1="178.1154" x2="31.8833" y2="130.7259">
					<stop  offset="0" style="stop-color:#00B286"/>
					<stop  offset="1" style="stop-color:#00A66D"/>
				</linearGradient>
				<path class="st5" d="M33.4,170.4c-1,1.4-1.8,2.4-2.9,3.7l0,0l0,0l0,0l0,0l0,0l0,0l0,0l0,0l0,0l0,0l0,0l0,0l0,0l0,0l0,0l0,0l0,0
					l0,0l0,0l0,0l0,0l0,0l0,0l0,0l0,0l0,0l0,0l0,0l0,0l0,0l0,0c-1.6,0.5-3.6,0.2-5.1,0.3l-0.2,0.4l0,0l0,0l0,0l0,0l0,0l0,0l0,0l0,0
					l0,0l0,0l0,0l0,0l0,0l0,0l0,0l0,0l0,0l0,0l0,0l0,0l0,0l0,0l0,0l0,0l0,0l0,0l0,0l0,0l0,0l0,0l0,0c1.1,0.6,2.2,0.9,3.4,1.2l0,0
					l0,0l0,0l0,0l0,0l0,0l0,0l0,0l0,0l0,0l0,0l0,0l0,0l0,0l0,0l0,0l0,0l0,0l0,0l0,0l0,0l0,0l0,0l0,0l0,0l0,0l0,0l0,0l0,0l0,0l0,0
					c-1,0.9-2.2,1.5-3.1,2.1l-0.2,0.4l0,0l0,0l0,0l0,0l0,0l0,0l0,0l0,0l0,0l0,0l0,0l0,0l0,0l0,0l0,0l0,0l0,0l0,0l0,0l0,0l0,0l0,0
					l0,0l0,0l0,0l0,0l0,0l0,0l0,0l0,0l0,0c1.9-0.5,4.5-1.3,6.4-2.4l0,0l0,0l0,0l0,0l0,0l0,0l0,0l0,0l0,0l0,0l0,0l0,0l0,0l0,0l0,0
					l0,0l0,0l0,0l0,0l0,0l0,0l0,0l0,0l0,0l0,0l0,0l0,0l0,0l0,0l0,0l0,0c1,0,1.9,0,2.6-0.2l0,0l0,0l0,0l0,0l0,0l0,0l0,0l0,0l0,0l0,0
					l0,0l0,0l0,0l0,0l0,0l0,0l0,0l0,0l0,0l0,0l0,0l0,0l0,0l0,0l0,0l0,0l0,0l0,0l0,0l0,0l0,0c0,0,0.2-0.4,0.2-0.4
					c-0.1-0.4-0.5-0.7-0.6-1.3l0,0l0,0l0,0l0,0l0,0l0,0l0,0l0,0l0,0l0,0l0,0l0,0l0,0l0,0l0,0l0,0l0,0l0,0l0,0l0,0l0,0l0,0l0,0l0,0
					l0,0l0,0l0,0l0,0l0,0l0,0l0,0c1.8-1.4,3.1-2.6,4.5-4.1l0,0l0,0l0,0l0,0l0,0l0,0l0,0l0,0l0,0l0,0l0,0l0,0l0,0l0,0l0,0l0,0l0,0
					l0,0l0,0l0,0l0,0l0,0l0,0l0,0l0,0l0,0l0,0l0,0l0,0l0,0l0,0l0.2-0.4c-1.5,1-3.2,2.4-5,3.2l0,0l0,0l0,0l0,0l0,0l0,0l0,0l0,0l0,0
					l0,0l0,0l0,0l0,0l0,0l0,0l0,0l0,0l0,0l0,0l0,0l0,0l0,0l0,0l0,0l0,0l0,0l0,0l0,0l0,0l0,0l0,0C33.5,172.1,33.5,171.3,33.4,170.4z"
					/>
			</g>
			<g>
				<path class="st6" d="M49.8,140.5c-3.8,2.2-5,2.4-9.1,4.9c2.4-2.6,3.3-3.7,4.7-5.9c-3.8,0.2-9.4,0.7-13.3,1.5l0,0l0,0l0,0
					c3.4-1.8,10.3-3.9,13.9-4.4c-0.8-1.2-7.6-4.8-9.3-5.5l0,0l0,0l0,0c5.4,0.4,11.9,2.4,15.1,4.4c1.3-0.4,2.6-0.4,4.9-0.6l0,0l0,0
					l0,0c-0.6,1-0.6,1.6-2.9,3.1l0,0l0,0l0,0c0.6,1.7-0.9,11-2.1,13.5l0,0l0,0l0,0C51.6,147.6,51.3,142.6,49.8,140.5z"/>
				<path class="st6" d="M21.9,173.9c-2.2-0.8-3.8-1.8-5.5-3.4l0,0l0,0l0,0l0,0l0,0l0,0l0,0l0,0l0,0l0,0l0,0l0,0l0,0l0,0l0,0l0,0
					l0,0l0,0l0,0l0,0l0,0l0,0l0,0l0,0l0,0l0,0l0,0l0,0l0,0l0,0l0,0c0.5-1.4,1.1-2.6,2.1-4l0,0l0,0l0,0l0,0l0,0l0,0l0,0l0,0l0,0l0,0
					l0,0l0,0l0,0l0,0l0,0l0,0l0,0l0,0l0,0l0,0l0,0l0,0l0,0l0,0l0,0l0,0l0,0l0,0l0,0l0,0l0,0c-1.8,0.3-3.1,0.5-4.6,0.8l0,0l0,0l0,0
					l0,0l0,0l0,0l0,0l0,0l0,0l0,0l0,0l0,0l0,0l0,0l0,0l0,0l0,0l0,0l0,0l0,0l0,0l0,0l0,0l0,0l0,0l0,0l0,0l0,0l0,0l0,0l0,0
					c-1.2-2.2-1.8-4.3-2.4-7.2l0,0l0,0l0,0l0,0l0,0l0,0l0,0l0,0l0,0l0,0l0,0l0,0l0,0l0,0l0,0c-0.3,3.1-0.5,5.3,0,7.8l0,0l0,0l0,0
					l0,0l0,0l0,0l0,0l0,0l0,0l0,0l0,0l0,0l0,0l0,0l0,0l0,0l0,0l0,0l0,0l0,0l0,0l0,0l0,0l0,0l0,0l0,0l0,0l0,0l0,0l0,0l0,0
					c-1.4,0.4-2.4,0.7-3.6,1.3l0,0l0,0l0,0l0,0l0,0l0,0l0,0l0,0l0,0l0,0l0,0l0,0l0,0l0,0l0,0l0,0l0,0l0,0l0,0l0,0l0,0l0,0l0,0l0,0
					l0,0l0,0l0,0l0,0l0,0l0,0l0,0c1.6,1,2.9,1.8,4.7,2.6l0,0l0,0l0,0l0,0l0,0l0,0l0,0l0,0l0,0l0,0l0,0l0,0l0,0l0,0l0,0l0,0l0,0l0,0
					l0,0l0,0l0,0l0,0l0,0l0,0l0,0l0,0l0,0l0,0l0,0l0,0l0,0c1,2.1,2,3.5,3.6,5.1l0,0l0,0l0,0l0,0l0,0l0,0l0,0l0,0l0,0l0,0l0,0l0,0
					l0,0l0,0l0,0l0,0l0,0l0,0l0,0l0,0l0,0l0,0l0,0l0,0l0,0l0,0l0,0l0,0l0,0l0,0l0,0c-0.4-1.4-0.5-2.5-0.3-3.9l0,0l0,0l0,0l0,0l0,0
					l0,0l0,0l0,0l0,0l0,0l0,0l0,0l0,0l0,0l0,0l0,0l0,0l0,0l0,0l0,0l0,0l0,0l0,0l0,0l0,0l0,0l0,0l0,0l0,0l0,0l0,0
					C17.9,173.5,19.6,173.8,21.9,173.9z"/>
				<path class="st6" d="M27.6,142.9L27.6,142.9L27.6,142.9L27.6,142.9L27.6,142.9c-0.7,0.9-1.5,2.5-1.7,3.3l0,0l0,0l0,0
					c5.6,0.8,10.2,3.7,10.2,3.7l0,0l0,0l0,0l0,0l0,0l0,0l0,0c-4.9-0.9-7.5-0.8-9.4-0.6l0,0l0,0l0,0c-1.8,0.2-2.2,0.4-2.2,0.4l0,0
					l0,0l0,0l0,0l0,0l0,0l0,0c-1.3,2.9-2.1,7.9-2.1,7.9l0,0l0,0l0,0l0,0l0,0l0,0l0,0c-0.9-2.2-2.2-6.5-2.2-6.5l0,0l0,0l0,0l0,0l0,0
					l0,0l0,0c-2.5,1.3-8.2,6.7-8.2,6.7l0,0l0,0l0,0l0,0l0,0l0,0l0,0c3.1-6.3,6.3-9.2,6.3-9.2l0,0l0,0l0,0l0,0l0,0l0,0l0,0
					c-1.1-1.1-4-1.7-6.1-1.8l0,0l0,0l0,0c1.1-0.4,3.9-1,6.1-1.1l0,0l0,0l0,0l0,0l0,0l0,0l0,0c2.2-0.1,3.5,0.1,3.5,0.1l0,0l0,0l0,0
					C23.7,144.4,26.6,143.1,27.6,142.9z"/>
				<path class="st6" d="M33.6,170c-1,1.4-1.9,2.4-3,3.6l0,0l0,0l0,0l0,0l0,0l0,0l0,0l0,0l0,0l0,0l0,0l0,0l0,0l0,0l0,0l0,0l0,0l0,0
					l0,0l0,0l0,0l0,0l0,0l0,0l0,0l0,0l0,0l0,0l0,0l0,0l0,0c-1.9,0.5-3.4,0.7-5.3,0.7l0,0l0,0l0,0l0,0l0,0l0,0l0,0l0,0l0,0l0,0l0,0
					l0,0l0,0l0,0l0,0l0,0l0,0l0,0l0,0l0,0l0,0l0,0l0,0l0,0l0,0l0,0l0,0l0,0l0,0l0,0l0,0c1.1,0.6,2.2,0.9,3.4,1.2l0,0l0,0l0,0l0,0
					l0,0l0,0l0,0l0,0l0,0l0,0l0,0l0,0l0,0l0,0l0,0l0,0l0,0l0,0l0,0l0,0l0,0l0,0l0,0l0,0l0,0l0,0l0,0l0,0l0,0l0,0l0,0
					c-1.2,1.1-2.2,1.8-3.3,2.6l0,0l0,0l0,0l0,0l0,0l0,0l0,0l0,0l0,0l0,0l0,0l0,0l0,0l0,0l0,0l0,0l0,0l0,0l0,0l0,0l0,0l0,0l0,0l0,0
					l0,0l0,0l0,0l0,0l0,0l0,0l0,0c1.9-0.5,4.5-1.3,6.4-2.4l0,0l0,0l0,0l0,0l0,0l0,0l0,0l0,0l0,0l0,0l0,0l0,0l0,0l0,0l0,0l0,0l0,0
					l0,0l0,0l0,0l0,0l0,0l0,0l0,0l0,0l0,0l0,0l0,0l0,0l0,0l0,0c1,0,1.9,0,2.6-0.2l0,0l0,0l0,0l0,0l0,0l0,0l0,0l0,0l0,0l0,0l0,0l0,0
					l0,0l0,0l0,0l0,0l0,0l0,0l0,0l0,0l0,0l0,0l0,0l0,0l0,0l0,0l0,0l0,0l0,0l0,0l0,0c-0.2-0.6-0.3-1-0.4-1.7l0,0l0,0l0,0l0,0l0,0l0,0
					l0,0l0,0l0,0l0,0l0,0l0,0l0,0l0,0l0,0l0,0l0,0l0,0l0,0l0,0l0,0l0,0l0,0l0,0l0,0l0,0l0,0l0,0l0,0l0,0l0,0
					c1.8-1.4,3.1-2.6,4.5-4.1l0,0l0,0l0,0l0,0l0,0l0,0l0,0l0,0l0,0l0,0l0,0l0,0l0,0l0,0l0,0l0,0l0,0l0,0l0,0l0,0l0,0l0,0l0,0l0,0
					l0,0l0,0l0,0l0,0l0,0l0,0l0,0c-1.6,1.1-2.9,1.9-4.8,2.8l0,0l0,0l0,0l0,0l0,0l0,0l0,0l0,0l0,0l0,0l0,0l0,0l0,0l0,0l0,0l0,0l0,0
					l0,0l0,0l0,0l0,0l0,0l0,0l0,0l0,0l0,0l0,0l0,0l0,0l0,0l0,0C33.7,171.6,33.7,170.9,33.6,170z"/>
			</g>
		</g>
	</g>
</g>
<g>
	<g>
		<g>
			<g>
				<g>
					<path class="st7" d="M79,144.6c0.1,2.2,0.3,7.9,0.3,10c0,1.9,0,8.3-0.3,11l0,0.2h10c4.9,0,10.1-1.5,10.1-5.9
						c0-2.7-2-4.7-5.7-5.8c2.7-0.7,4.6-2.6,4.6-4.7c0-3.6-4.1-4.9-7.9-5h-11L79,144.6z M86.7,146.8c4.2,0,5.7,0.9,5.7,3.1
						c0,0.6-0.2,1.2-0.6,1.6c-0.8,1-2.3,1.5-4.3,1.3h-0.1l-1.2,3h1.2c2.3-0.1,4.3,0.7,5.3,1.9c0.5,0.6,0.7,1.3,0.7,2
						c0,2.4-2.1,3.6-6.2,3.6c-0.7,0-1.8,0-2.5,0c-0.1-3.2-0.2-7.4-0.2-8.7c0-1.5,0.1-4.8,0.2-7.6C85.2,146.9,85.9,146.8,86.7,146.8z
						"/>
					<path class="st7" d="M121.9,144.4h-4.9l0.2,5.4c0.1,2.7,0.2,5.4,0.4,8.1l0,0l0,0c-0.3-0.8-0.6-1.3-2.1-3.4c0-0.1-5-7.8-6.8-10
						l-0.1,0h-5.6v0.2c0.2,2.2,0.2,7.9,0.2,10c0,1.9,0,8.3-0.3,11l0,0.2h5v-0.2c-0.3-5.2-0.3-10.5-0.3-15.6l0,0
						c0.2,0.6,0.4,1.2,1.2,2.3c0.1,0.1,8.7,12.7,9.1,13.4l0,0.1h4l0-0.2c-0.3-2.8-0.3-9.1-0.3-11c0-2.1,0.1-7.7,0.3-10l0.1-0.2
						H121.9z"/>
					<path class="st7" d="M127.7,144.6c0.2,2.2,0.3,7.9,0.3,10c0,1.9,0,8.3-0.3,11v0.2h6l0-0.2c-0.2-2-0.3-5.8-0.3-8.6
						c0.3,0,1.1,0.1,1.1,0.1l0.8,0c7.9,0,11.7-2.1,11.7-6.5c0-5-5.4-6.1-9.8-6.2h-9.4V144.6z M135.1,147c2.8-0.1,4.7,0.5,5.7,1.7
						c0.4,0.5,0.7,1.2,0.7,1.9c0,3.1-3.5,3.8-6.4,3.8l-1.2-0.1c0,0-0.3,0-0.5,0c0-0.7,0-1.7,0-2.7c0-1.3,0-3,0.1-4.4
						C133.8,147.1,134.4,147,135.1,147z"/>
					<path class="st7" d="M158.4,144.6c0.2,2.2,0.3,7.9,0.3,10c0,1.9,0,8.3-0.3,11v0.2h6l0-0.2c-0.2-2-0.3-5.8-0.3-8.6
						c0.3,0,1.1,0.1,1.1,0.1l0.9,0c7.8,0,11.7-2.1,11.7-6.5c0-5-5.4-6.1-9.9-6.2h-9.4V144.6z M165.7,147c2.8-0.1,4.8,0.5,5.7,1.7
						c0.4,0.5,0.6,1.2,0.6,1.9c0,3.1-3.5,3.8-6.4,3.8l-1.2-0.1c0,0-0.3,0-0.5,0c0-0.7,0-1.7,0-2.7c0-1.4,0-3,0.1-4.4
						C164.4,147.1,165,147,165.7,147z"/>
					<path class="st7" d="M185.6,144.4L185.6,144.4l-0.1,0.1c-1.1,3.1-8.3,18.7-9.4,21.1l-0.1,0.3h5.1l0-0.1c0.4-1.5,1-3.1,1.7-4.9
						c0.2,0,4.2-0.1,4.2-0.1l3.5,0c0,0,0.6,0,0.7,0c0.9,2.3,1.6,4,1.9,4.9l0.1,0.1h5.9l-9.5-21.4h-0.1H185.6z M187,150.7
						c0.5,1,1.7,3.9,3.1,7.3c-0.2,0-0.5,0-0.5,0l-2.6,0c0,0-2.7,0-3.2,0C185,155.3,186.1,152.8,187,150.7z"/>
					<path class="st7" d="M201.5,144.6c0.2,2.2,0.3,7.9,0.3,10c0,1.9,0,8.3-0.3,11v0.2h6l0-0.2c-0.3-2.8-0.3-9.1-0.3-11
						c0-1.5,0-4.8,0.2-7.5c0.5,0,1.1-0.1,1.6-0.1c2.8-0.1,4.7,0.5,5.7,1.7c0.4,0.5,0.6,1.2,0.6,1.9c0,2.5-2.3,3.7-4.5,3.8
						c-0.7,0-1.3-0.1-1.3-0.1l-0.4-0.1l0.2,0.4c2.1,3.1,5.3,8.5,6.6,11l0,0.1h6.4l-0.2-0.3c-0.3-0.4-4.4-6.5-6.2-9.1
						c0,0-0.1-0.1-0.2-0.2c3.3-1,4.9-2.8,4.9-5.6c0-4.9-5.4-6.1-9.9-6.2h-9.3L201.5,144.6z"/>
					<path class="st7" d="M230.9,144.4h-5.7l0,0.2c0.1,2.2,0.3,7.9,0.3,10c0,1.9,0,8.3-0.3,11l0,0.2h5.9l0-0.2
						c-0.2-2.8-0.3-9.1-0.3-11c0-2.1,0.1-7.7,0.3-10v-0.2H230.9z"/>
					<path class="st7" d="M236.5,144.6c0.2,2.2,0.3,7.9,0.3,10c0,1.9,0,8.3-0.3,11l0,0.2h10c4.9,0,10.1-1.5,10.1-5.9
						c0-2.7-2-4.7-5.7-5.8c2.7-0.7,4.6-2.6,4.6-4.7c0-3.6-4.1-4.9-7.9-5h-11L236.5,144.6z M244.2,146.8L244.2,146.8
						c4.2,0,5.7,0.9,5.7,3.1c0,0.6-0.2,1.2-0.6,1.6c-0.8,1-2.4,1.5-4.3,1.3h-0.1l-1.2,3h1.2c2.3-0.1,4.3,0.7,5.3,1.9
						c0.5,0.6,0.7,1.3,0.7,2c0,2.4-2.1,3.6-6.2,3.6c-0.7,0-1.8,0-2.5,0c-0.2-3.2-0.2-7.4-0.2-8.7c0-1.5,0.1-4.8,0.2-7.6
						C242.7,146.9,243.4,146.8,244.2,146.8z"/>
					<path class="st7" d="M271.1,144.4h-4l0,0.1c-1.2,3.2-8.8,19.7-9.4,21.1l-0.1,0.3h5.1l0-0.1c0.4-1.5,1-3.1,1.7-4.9
						c0.2,0,4.2-0.1,4.2-0.1l3.5,0.1c0,0,0.6,0,0.7,0c0.9,2.3,1.6,4.1,1.9,4.9l0.1,0.1h5.9l-9.5-21.4H271.1z M268.7,150.7
						c0.5,1,1.7,3.9,3.1,7.3c-0.2,0-0.5,0-0.5,0l-2.6,0c0,0-2.7-0.1-3.1-0.1C266.7,155.3,267.7,152.8,268.7,150.7z"/>
					<path class="st7" d="M282.5,150c0,3.8,3.8,5.3,7.1,6.7c2.6,1,5.3,2.1,5.3,3.9c0,0.5-0.1,1-0.4,1.3c-0.6,0.7-1.9,1-3.9,0.9
						c-2-0.1-4.2-0.7-6.8-1.9l-1-0.5v0.8v3.8l0.7,0.2l0.4,0.1c1.2,0.3,3.7,0.9,6.1,0.9c6.3,0,10.1-2.5,10.1-6.7
						c0-3.9-3.9-5.4-7.3-6.8c-2.5-1-5.1-2-5.1-3.7c0-0.5,0-1.9,3.3-1.9c2.4,0,4.7,1,6.1,1.5l1.2,0.5l0-0.8v-3.9l-1.2-0.2
						c-1.2-0.2-3.3-0.7-5.4-0.7C286.1,143.6,282.5,146.2,282.5,150z"/>
				</g>
			</g>
		</g>
	</g>
</g>
</svg>
