<?xml version="1.0" encoding="utf-8"?>
<!-- Generator: Adobe Illustrator 20.0.0, SVG Export Plug-In . SVG Version: 6.00 Build 0)  -->
<svg version="1.1" id="Layer_1" xmlns="http://www.w3.org/2000/svg" xmlns:xlink="http://www.w3.org/1999/xlink" x="0px" y="0px"
	 viewBox="0 0 300 47.9" style="enable-background:new 0 0 300 47.9;" xml:space="preserve">
<style type="text/css">
	.st0{fill:#FFFFFF;}
	.st1{fill:#00529B;}
	.st2{fill:#047BB5;}
</style>
<g>
	<rect class="st0" width="49" height="47.3"/>
	<path class="st1" d="M49,47.3V22.1c-1.2-0.1-2.6-0.2-3.9-0.2c-15.2,0-28.4,10.9-34.1,25.3L49,47.3"/>
	<path class="st2" d="M49,0h-1.1C35.7,3.9,21.8,13.5,10.2,34.8c0,0,3.1-19.1,18.3-34.8H0v47.3h5.4C13.8,31.4,30.6,20.3,49,18.7V0"/>
	<path class="st1" d="M290.3,30.6c0-0.9-0.4-1.5-1.1-2c-0.7-0.5-1.9-0.7-3.4-0.7c-2,0-3.7,1-3.7,2.1c0,1.7,2.9,2.4,5.1,2.7
		c5.2,1,12.8,1.4,12.8,7.9c0,5-6.5,7.4-13.7,7.4c-7.4,0-13.7-1.5-13.8-8h8.7c0,2.1,2.1,3.5,5.2,3.5c2,0,4.6-0.7,4.6-2.4
		c0-3.2-6.4-2.6-13.2-4.7c-3.2-1-4.7-3.2-4.7-5.7c0.4-5.6,6.9-7.2,13.5-7.2c6.4,0,13.1,1.7,12.6,7.5h-8.9V30.6z M268.1,47.3h-8.7
		V23.6h8.7V47.3z M234.1,47.3V23.6h8.7v19h12.7v4.6h-21.5V47.3z M216.9,37.9l-4-9.7h-0.1l-4.2,9.7H216.9L216.9,37.9z M195.7,47.3
		l12.3-23.6h10.6L231,47.3h-9.7l-2-4.6h-12.7l-2,4.6H195.7L195.7,47.3z M169.9,47.3V23.6h23.3v4.6h-14.6v4.9h13.5v4.6h-13.5v5h14.6
		v4.6L169.9,47.3L169.9,47.3z M150.3,33.7c2.9,0,5.5-0.2,5.5-2.7s-2.7-2.7-5.5-2.7h-3.5v5.4L150.3,33.7L150.3,33.7z M146.8,47.3
		h-8.7V23.6h14.5c5.2,0,12.2,1,12.2,6c0,3.6-3.6,5.4-8,5.7v0.1c5.5,0.1,6.2,2.4,7.2,5.9c0.6,2.5,0.5,2.4,1.2,5.7h-9.4
		c0,0,0-0.2-0.6-4.9c-0.4-3.1-0.7-4.1-5.1-4.1h-3.4L146.8,47.3L146.8,47.3z M118.1,27.6c-5.9,0-7.1,4.1-7.1,7.9
		c0,3.5,1.1,7.6,7.1,7.6s7.1-4.1,7.1-7.6C125.2,31.8,124.1,27.6,118.1,27.6L118.1,27.6z M101.9,35.4c0-7.9,5.9-12.3,16.3-12.3
		s16.3,4.5,16.3,12.3s-5.9,12.3-16.3,12.3C107.8,47.7,101.9,43.2,101.9,35.4L101.9,35.4z M81.2,32.9h4.4c2.4,0,3.9-0.6,3.9-2.5
		c0-1.2-1.5-2.4-3.6-2.4h-4.7v4.7L81.2,32.9L81.2,32.9z M86.3,42.7c2.1,0,3.7-1,3.7-2.5c0-1.2-1.1-2.6-3.2-2.7h-5.6v5.1L86.3,42.7
		L86.3,42.7z M72.6,47.3V23.6h15c5.9,0,10.9,2,10.9,6.1c0,3-3.2,4.6-6.9,5.1v0.1c4.1,0.4,7.6,2.5,7.6,5.7c0,7-11.7,6.4-12,6.4H72.6"
		/>
</g>
</svg>
