<?xml version="1.0" encoding="utf-8"?>
<!-- Generator: Adobe Illustrator 20.0.0, SVG Export Plug-In . SVG Version: 6.00 Build 0)  -->
<svg version="1.1" id="Layer_1" xmlns="http://www.w3.org/2000/svg" xmlns:xlink="http://www.w3.org/1999/xlink" x="0px" y="0px"
	 viewBox="0 0 300 397.6" style="enable-background:new 0 0 300 397.6;" xml:space="preserve">
<style type="text/css">
	.st0{fill:#00A551;}
	.st1{fill:#A5CD39;}
	.st2{fill:#FFD900;}
	.st3{fill:#FFFFFF;}
</style>
<g>
	<path class="st0" d="M149.7,245.7L149.7,245.7L149.7,245.7L149.7,245.7L149.7,245.7L149.7,245.7L149.7,245.7L149.7,245.7
		L149.7,245.7L149.7,245.7L149.7,245.7L149.7,245.7L149.7,245.7L149.7,245.7L149.7,245.7L149.7,245.7L149.7,245.7L149.7,245.7
		L149.7,245.7L149.7,245.7L149.7,245.7L149.7,245.7L149.7,245.7L149.7,245.7L149.7,245.7L149.7,245.7L149.7,245.7L149.7,245.7
		L149.7,245.7L149.7,245.7L149.7,245.7L149.7,245.7L149.7,245.7L149.7,245.7L149.7,245.7L149.7,245.7L149.7,245.7L149.7,245.7
		L149.7,245.7L149.7,245.7L149.7,245.7L149.7,245.7L149.7,245.7L149.7,245.7L149.7,245.7L149.7,245.7L149.7,245.7L149.7,245.7
		L149.7,245.7L149.7,245.7L149.7,245.7L149.7,245.7L149.7,245.7L149.7,245.7z M90.8,143.6c0.9-16,3.9-30.4,7-40.5
		c9,5.7,20.6,14.7,31.5,26.7c6.3-14.5,14.2-27.1,20.4-35.7c6.4,8.5,14.4,21,20.4,35.7c10.9-11.6,22.5-20.6,31.5-26.7
		c3.3,10.1,6.3,24.5,7,40.5c14.2-7.2,28.2-11.8,38.7-14.2c-0.6,10.7-2.6,25.2-7.2,40.5c15.7-1.8,30.6-1.5,41.3,0
		c-4.2,9.9-11,22.8-20.6,35.7c15.5,3.5,29.1,9,38.7,13.8c-7.2,7.9-18.2,17.5-31.5,26.3c13.4,8.5,24.3,18.6,31.5,26.3
		c-9.6,4.8-23.2,10.5-38.7,13.8c9.6,12.7,16.4,25.6,20.6,35.7c-10.7,1.5-25.2,1.8-41.3,0c4.6,15.3,6.6,29.8,7.2,40.5
		c-10.5-2.4-24.5-7-38.7-14.2c-0.9,16-3.9,30.4-7,40.5c-9-5.7-20.6-14.7-31.5-26.7c-6.3,14.5-14.2,27.1-20.4,35.7
		c-6.4-8.5-14.4-21-20.4-35.7c-10.9,11.6-22.5,20.6-31.5,26.7c-3.3-10.1-6.3-24.5-7-40.5c-14.2,7.2-28.2,11.8-38.7,14.2
		c0.6-10.7,2.6-25.2,7.2-40.5c-15.7,1.8-30.6,1.5-41.3,0c4.2-9.9,11-22.8,20.6-35.7c-15.5-3.5-29.1-9-38.7-13.8
		c7.4-7.9,18.2-17.5,31.5-26.3C18,237.4,7.2,227.3,0,219.5c9.6-4.8,23.2-10.5,38.7-13.8C29.1,193,22.3,180.1,18,170
		c10.7-1.5,25.2-1.8,41.3,0c-4.6-15.3-6.6-29.8-7.2-40.5C62.6,131.9,76.6,136.5,90.8,143.6L90.8,143.6z M149.7,245.7L149.7,245.7
		L149.7,245.7L149.7,245.7z"/>
	<path class="st1" d="M149.7,245.7L149.7,245.7L149.7,245.7L149.7,245.7L149.7,245.7L149.7,245.7L149.7,245.7L149.7,245.7
		L149.7,245.7L149.7,245.7L149.7,245.7L149.7,245.7L149.7,245.7L149.7,245.7L149.7,245.7L149.7,245.7L149.7,245.7L149.7,245.7
		L149.7,245.7L149.7,245.7L149.7,245.7L149.7,245.7L149.7,245.7L149.7,245.7L149.7,245.7L149.7,245.7L149.7,245.7L149.7,245.7
		L149.7,245.7L149.7,245.7L149.7,245.7L149.7,245.7L149.7,245.7L149.7,245.7L149.7,245.7L149.7,245.7L149.7,245.7L149.7,245.7z
		 M63,261c-11.4-3.7-21.7-9.2-30.9-15.3c9.2-6.1,19.9-11.6,30.9-15.3c-9.2-7.4-17.3-16.2-24.1-25c10.9-2.6,22.7-3.9,34.4-3.7
		c-6.3-10.1-10.7-21-14.2-31.7c11,1.5,22.7,3.9,33.7,8.3c-2.4-11.6-2.8-23.6-2.4-34.6c9.9,5.2,19.9,11.4,28.9,19.2
		c1.8-11.8,5.3-23.2,9.8-33.3c7.6,8.1,14.7,17.5,20.4,28c5.7-10.5,12.9-19.9,20.4-28c4.4,10.1,7.9,21.5,9.8,33.3
		c9-7.9,19-14.4,28.9-19.2c0.6,11,0,22.8-2.4,34.6c11-4.4,22.7-7,33.7-8.3c-3.3,10.7-7.9,21.5-14.2,31.7c11.8-0.2,23.6,1.1,34.4,3.7
		c-6.6,8.8-14.7,17.5-24.1,25c11.4,3.7,21.7,9.2,30.9,15.3c-9.2,6.1-19.9,11.6-30.9,15.3c9.2,7.4,17.3,16.2,24.1,25
		c-10.9,2.6-22.7,3.9-34.4,3.7c6.3,10.1,10.7,21,14.2,31.7c-11-1.5-22.7-3.9-33.7-8.3c2.4,11.6,2.8,23.6,2.4,34.6
		c-9.9-5.2-19.9-11.4-28.7-19.2c-1.8,11.8-5.3,23.2-9.8,33.3c-7.6-8.1-14.7-17.5-20.4-28c-5.7,10.5-12.9,19.9-20.4,28
		c-4.4-10.1-7.9-21.5-9.8-33.3c-9,7.9-19,14.4-28.9,19.2c-0.6-11,0-22.8,2.4-34.6c-11,4.4-22.7,7-33.7,8.3
		c3.3-10.7,7.9-21.5,14.2-31.7c-11.8,0.2-23.6-1.1-34.4-3.7C45.7,277.2,53.8,268.5,63,261L63,261z"/>
	<path class="st2" d="M149.7,245.7L149.7,245.7L149.7,245.7L149.7,245.7L149.7,245.7z M149.7,245.7L149.7,245.7L149.7,245.7
		L149.7,245.7L149.7,245.7L149.7,245.7L149.7,245.7L149.7,245.7L149.7,245.7L149.7,245.7L149.7,245.7L149.7,245.7L149.7,245.7z
		 M149.7,245.7L149.7,245.7L149.7,245.7L149.7,245.7L149.7,245.7L149.7,245.7L149.7,245.7L149.7,245.7L149.7,245.7L149.7,245.7
		L149.7,245.7L149.7,245.7L149.7,245.7L149.7,245.7L149.7,245.7L149.7,245.7L149.7,245.7L149.7,245.7L149.7,245.7L149.7,245.7
		L149.7,245.7z M149.7,245.7L149.7,245.7L149.7,245.7L149.7,245.7z M139.4,186.4c1.8-10.1,5.5-19.9,10.5-28.7
		c4.8,8.8,8.5,18.6,10.5,28.7c5.3-9,12-16.6,19.7-23.4c1.5,9.9,1.7,20.4,0,30.6c8.1-6.6,17.1-11.6,26.3-15.3
		c-2,9.9-5.3,19.7-10.5,28.7c9.8-3.5,19.9-5.2,30-5.3c-5.3,8.5-11.8,16.6-19.7,23.4c10.5,0.2,20.6,2,30,5.3
		c-7.9,6.3-16.6,11.6-26.3,15.3c9.8,3.7,18.6,9,26.3,15.3c-9.6,3.3-19.7,5.3-30,5.3c7.9,6.6,14.4,14.7,19.7,23.4
		c-10.1-0.2-20.4-1.8-30-5.3c5.2,9,8.3,18.8,10.5,28.7c-9.6-3.7-18.6-8.5-26.3-15.3c1.7,10.1,1.5,20.6,0,30.6
		c-7.6-6.6-14.4-14.4-19.7-23.4c-1.8,10.1-5.5,19.9-10.5,28.7c-4.8-8.8-8.5-18.6-10.5-28.7c-5.3,9-12,16.6-19.7,23.4
		c-1.5-9.9-1.7-20.4,0-30.6c-8.1,6.6-17.1,11.6-26.3,15.3c2-9.9,5.3-19.7,10.5-28.7c-9.8,3.5-19.9,5.2-30,5.3
		c5.3-8.5,11.8-16.6,19.7-23.4c-10.5-0.2-20.6-2-30-5.3c7.9-6.3,16.6-11.6,26.3-15.3c-9.8-3.7-18.6-9-26.3-15.3
		c9.6-3.3,19.7-5.3,30-5.3c-7.9-6.6-14.4-14.7-19.7-23.4c10.1,0.2,20.4,1.8,30,5.3c-5.2-9-8.3-18.8-10.5-28.7
		c9.6,3.7,18.6,8.5,26.3,15.3c-1.7-10.1-1.5-20.6,0-30.6C127.1,169.6,134.1,177.5,139.4,186.4L139.4,186.4z M149.7,245.7
		L149.7,245.7L149.7,245.7z"/>
	<path class="st3" d="M139,216.6c-1.8-10.7-1.7-20.6,0.2-30.4c4.8,8.3,8.5,17.9,10.5,28.5c1.8-10.7,5.5-20.1,10.5-28.5
		c1.8,9.6,2,19.7,0.2,30.4c5.3-9.2,12-16.9,19.7-23.2c-1.7,9.8-4.8,19.2-10.1,28.5c8.1-7,17.1-11.8,26.3-15.1
		c-4.8,8.5-11,16.4-19.5,23.4c10.1-3.7,20.1-5.3,29.8-5.2c-7.4,6.3-16,11.6-26.2,15.3c10.7,0,20.6,1.8,29.8,5.3
		c-9,3.5-19,5.3-29.8,5.3c10.1,3.7,18.8,8.8,26.2,15.3c-9.8,0-19.7-1.5-29.8-5.2c8.3,7,14.5,14.7,19.5,23.4
		c-9.2-3.3-18-8.1-26.3-15.1c5.3,9.2,8.5,19,10.1,28.5c-7.6-6.3-14.4-13.8-19.7-23.2c1.8,10.7,1.7,20.6-0.2,30.4
		c-5.2-8.3-8.5-17.9-10.5-28.5c-1.8,10.7-5.5,20.1-10.5,28.5c-1.8-9.6-2-19.7-0.2-30.4c-5.3,9.2-12,16.9-19.5,23.2
		c1.7-9.8,4.8-19.2,10.1-28.5c-8.1,7-17.1,11.8-26.3,15.1c4.8-8.5,11-16.4,19.5-23.4c-10.1,3.7-20.1,5.3-29.8,5.2
		c7.4-6.3,16-11.6,26.2-15.3c-10.7,0-20.6-1.8-29.8-5.3c9-3.5,19-5.3,29.8-5.3c-10.1-3.7-18.8-8.8-26.2-15.3
		c9.8-0.2,19.7,1.5,29.8,5.2c-8.3-7-14.5-14.7-19.5-23.4c9.2,3.3,18,8.1,26.3,15.1c-5.3-9.2-8.5-19-10.1-28.5
		C127.1,199.6,133.9,207.4,139,216.6L139,216.6z"/>
	<path class="st0" d="M190.1,0v74h11v-7.2c4.6,6.1,9.6,8.8,16.9,8.8c13.6,0,23.4-11,23.4-28.7c0-18-9.9-29.1-23.2-29.1
		c-7.4,0-12.9,2.9-16.9,9V0H190.1L190.1,0z M215.5,28c8.8,0,14.2,6.6,14.2,19.2c0,11.8-5.5,18.6-14.2,18.6
		c-9.2,0-14.4-6.4-14.4-18.8C200.9,34.4,206.1,28,215.5,28L215.5,28z"/>
	<path class="st0" d="M274,28c8.5,0,14.2,6.6,14.2,18.6c0,12.3-5.5,19-14.2,19c-9.6,0-14.4-6.3-14.4-18.6
		C259.7,34.4,264.8,28,274,28L274,28z M259.9,67.4c3.7,5.5,9.6,8.5,16.9,8.5c13.3,0,23.2-11,23.2-29.1c0-17.5-9.8-28.7-23.4-28.7
		c-7.4,0-12.5,2.8-16.9,9.6v-7.6h-11v75.7h11V67.4H259.9z"/>
</g>
</svg>
