<?xml version="1.0" encoding="utf-8"?>
<!-- Generator: Adobe Illustrator 21.1.0, SVG Export Plug-In . SVG Version: 6.00 Build 0)  -->
<svg version="1.1" id="Layer_1" xmlns="http://www.w3.org/2000/svg" xmlns:xlink="http://www.w3.org/1999/xlink" x="0px" y="0px"
	 viewBox="0 0 300 240.5" style="enable-background:new 0 0 300 240.5;" xml:space="preserve">
<style type="text/css">
	.st0{fill:#B7C934;}
	.st1{fill:#FBAD2C;}
	.st2{fill:#00A3C9;}
	.st3{fill:#007742;}
	.st4{clip-path:url(#SVGID_2_);}
</style>
<g>
	<path class="st0" d="M157.6,31.1c-5.6,9.4-8.8,20.4-8.8,32.1c0,18.5,7.9,35.1,20.5,46.6c19.9-10.2,33.1-28.6,33.1-40.4
		C202.4,57.8,180.5,41.6,157.6,31.1L157.6,31.1z"/>
	<path class="st1" d="M212,0c-18.4,0-35,7.9-46.6,20.5c15.5,17.5,35,30.9,41.9,26.4c4.7-3.1,18.7-21.1,25.5-43.4
		C226.3,1.3,219.3,0,212,0L212,0z"/>
	<path class="st2" d="M212,126.4c31.4,0,57.5-22.9,62.4-52.9c-29.9,1-57.6,5.8-68.7,19.1c-4.5,5.4-12.2,16.8-15.8,29.9
		C196.8,125,204.2,126.4,212,126.4L212,126.4z"/>
	<path class="st3" d="M243.7,8.5c-19.5,23.3-31,50.2-25.3,57.1c5.1,6,30.7,5,56.7-5.6C274,38,261.7,19,243.7,8.5L243.7,8.5z"/>
	<path d="M135.1,180.3c-3.4-1.9-9.2-2-18-2H91.5l-13,60.7h22.9l10.5-49.5c1.8-0.4,4.1,0,4.6,0c-0.4,1.8-0.5,1.5-0.5,2.8
		c0,2.3,1.3,6.8,7,8.6c2,0.6,3.9,0.7,4.6,0.7c4.6,0,8.5-1.4,11.1-5.4c1.8-2.7,1.9-5.3,1.9-6.4C140.6,186,138.7,182.1,135.1,180.3
		L135.1,180.3z"/>
	<g>
		<defs>
			<rect id="SVGID_1_" y="0" width="300" height="240.5"/>
		</defs>
		<clipPath id="SVGID_2_">
			<use xlink:href="#SVGID_1_"  style="overflow:visible;"/>
		</clipPath>
		<path class="st4" d="M54.9,185.6c-1.1,1.1-2.2,1.9-3.4,2.8c-3,2.5-6.8,5.6-6.8,9.9c0,4,3,6.7,5,9.6c2.3,3.4,2.7,6.2,2.7,7.8
			c0,3.4-1.4,5.7-2.1,6.8c-0.4,0.6-1.5,2.2-3.2,3.4c-4.4,3-10.8,3-12,3c-4.9,0-7.3-0.8-9.4-1.6l12.8-60c3-1.4,5.7-1.5,7-1.5
			c4.3,0,9.2,1.9,11.5,6c0.9,1.5,1.3,3.5,1.3,5.4C58.2,180.4,57.1,183.3,54.9,185.6L54.9,185.6z M74,188.7
			c4.6-5.3,5.1-10.9,5.1-13.6c0-9.2-6.1-13.3-9.1-15.1c-5.7-3-12.2-3.6-25.1-3.7H17.5L0,238.9h28.2c13.3,0,20.2-0.3,26.4-1.9
			c11.7-3,17.1-10.8,18.8-15.2c1.6-4.1,1.8-8.2,1.8-9.7c0-5.7-1.5-8.9-2.8-11c-0.6-1-1.3-2-1.9-2.9l-2.7-3.7l1.1-0.8
			C69.5,193,72.2,191,74,188.7L74,188.7z"/>
		<path class="st4" d="M276,202l-2.9,13.6l-2.6,12c-2,1.4-3.4,1.7-5,1.8c-2.5,0.1-8.3-0.5-10.7-7.3c-0.8-2.3-1-5.1-1-5.8
			c0-0.7,0-1.4,0-2.1c0-7.3,2.2-16.6,7.5-21.8c2.2-2.2,4.7-3.5,8-3.7c6.3-0.3,7.3,5.1,7.4,7.2C276.8,197.7,276.5,199.5,276,202
			L276,202z M300,195c0-0.2,0-0.4,0-0.6c0-0.1,0-0.2,0-0.3c0-0.2-0.1-0.4-0.1-0.4l0,0c-0.8-5.2-5-9.6-11.1-12.6l0,0
			c-3.6-1.7-6.6-2.6-9.8-3.2c-0.4-0.1-0.9-0.2-1.3-0.2c-0.3,0-0.5-0.1-0.8-0.1c-0.8-0.1-1.7-0.2-2.5-0.3c-0.2,0-0.3,0-0.4,0
			c-0.4,0-0.7,0-1.1-0.1c-1.7-0.1-3.4-0.1-5.1,0c-9.9,0.5-18.5,3.8-24.1,8.5c-5.6,4.4-8.8,9.7-10.5,13.8c-2.7,6.6-2.8,12.5-2.6,15.2
			c0.2,3.7,1,12.5,9.2,18.9c8.9,6.9,20.8,6.3,31.1,5.9l20.8-1.1l7.7-39l0.5-3.1C299.9,196.2,300,195.5,300,195L300,195z"/>
	</g>
	<path d="M164.6,174.2c6.9,0,12.4-5.5,12.5-12.4c0-2.2-0.9-8.3-7.1-11.2c-1.6-0.8-3.4-1.2-5.3-1.2c-6.9,0-12.4,5.5-12.4,12.4
		C152.4,168.6,157.8,174.2,164.6,174.2L164.6,174.2z"/>
	<path d="M149.5,178.8l-9.9,46.9c-0.2,1.4-0.5,2.5-0.5,4c0,2,0.4,3.6,1.5,5.4c1.1,1.7,3.1,3.8,7.5,4.3c1.2,0.1,1.3,0.1,2.2,0.2
		l9.2,0l12.9-60.7H149.5L149.5,178.8z"/>
	<path d="M180.9,189.3c-1.3,2.3-2,5.5-2,8.3c0,9.7,6.9,13.6,14.6,17.3l3.5,1.9c3.3,1.9,4.3,3,4.3,5.1c0,0.8-0.1,2-1.1,3.4
		c-1.8,2.5-4.4,3.3-7.3,3.3c-7.8,0-13.4-5.7-14.8-7.4c-0.4-0.5-0.8-1.2-1.5-2.2l-3.5,16.6c8.9,4.9,17.7,4.9,21.3,4.9
		c13.8,0,20.6-4.9,24.4-10.1c1.3-1.6,3.9-5.6,3.9-11.5c0-6.7-2.9-10.4-8.2-13.9c-1.9-1.3-3.9-2.3-5.8-3.4l-3.7-2
		c-2.3-1.2-4.3-2.6-4.3-5.6c0-2.5,1.9-6,7.7-6c3.2,0,9.8,1.4,15.2,7.7l3-14.1c-4-2.3-9.5-5-19.8-5
		C191.8,176.7,184,183.4,180.9,189.3L180.9,189.3z"/>
</g>
</svg>
