<?xml version="1.0" encoding="utf-8"?>
<!-- Generator: Adobe Illustrator 20.0.0, SVG Export Plug-In . SVG Version: 6.00 Build 0)  -->
<svg version="1.1" id="Layer_1" xmlns="http://www.w3.org/2000/svg" xmlns:xlink="http://www.w3.org/1999/xlink" x="0px" y="0px"
	 viewBox="0 0 300 69.3" style="enable-background:new 0 0 300 69.3;" xml:space="preserve">
<style type="text/css">
	.st0{fill:#003F86;}
</style>
<g>
	<g>
		<path id="XMLID_12_" class="st0" d="M245,25.4c-0.9,2.3-1.9,4.7-2.9,7c-8.4-7.2-20.6-8.4-31.3-5.8c-6.5,1.5-13.4,6.8-14.7,13.8
			c-1.2,7.1,0.2,14.4,6,18.8c8.2,6.2,20.7,6.3,30.6,4.1l2.7-1c0-1.9,0-6,0-13.1c-2,0-4.6,0.2-6.7,0.4c0-1.6,0.2-3.4,0-5
			c5.3,0.8,11.4,0.4,15.8,0.5v20.1c-11.4,3-25.8,4.5-38.4,2c-8.4-1.6-17.7-7.3-19.8-16.2c-2.1-8.2,0.3-16.6,7.1-21.8
			c10.9-8.1,25.9-8.8,39.6-7C237.1,22.8,241.3,23.7,245,25.4"/>
		<path id="XMLID_11_" class="st0" d="M299.1,22.6c-0.5,1.8-0.1,3.3-0.1,5.1c-4.6-0.7-9.7-0.8-14.4-0.8h-21.6
			c0,13.4-0.1,9.2-0.1,13.8c11.4,0.1,22.8-0.1,34.3-0.2c-0.3,1.6-0.3,3.2-0.1,4.8c-11.4-0.4-22.7,0-34.1,0c0,16.5-0.1,11.8,0,17.4
			c7,0.2,14,0,21-0.1c5.2-0.1,10.7,0,15.8-0.8c0,1.8-0.4,4.4,0.1,6.1c-44.9,0-9.5,0-46.2,0c0-15.9-0.1-30.4,0-45.4
			C272.6,22.4,256.5,22.6,299.1,22.6"/>
		<path id="XMLID_10_" class="st0" d="M176.8,23.4v45.2h-3.7c-14.1-11.2-29-22.8-43.2-33.6c0,2.9,0,13.5,0,33.2
			c-2-0.2-4.6-0.3-6.6,0V23.3c-0.1-0.1,5,0,5.2,0c1.3,0,27.8,20.9,41.7,31.6c0-17,0-13.4,0-31.5C172.4,23.6,174.8,23.5,176.8,23.4"
			/>
		<path id="XMLID_9_" class="st0" d="M112.9,23.2v27.7c0,6.3-4.4,12.3-10.3,15.1c-7.7,3.5-17,4.1-25.8,2.7
			c-6.3-1-13.5-3.8-16.1-10.6c-0.9-2.3-1.2-4.8-1.3-7.5l0.1-27.3c5.6,0.7,4.4,0.4,9.1,0c0,22.9-0.1,18.8,0.2,28.2
			c0.2,4.7,2.8,9.9,7.7,11.6c6.2,2.1,13.9,2.4,20.2,0.4c4-1.3,7.7-5,8.9-9.1c0.5-2,0.7-4.2,0.9-6.4V23.3
			C110.3,23.8,110.6,23.6,112.9,23.2"/>
		<path class="st0" d="M36.7,48c-8-2.8-16.9-1.6-26-1.6l-0.1,17.8c12.7,0,13.7,0.1,20.2-0.4c3.8-0.3,7.7-2,9.7-5.5
			c1.4-2.4,0.9-6.1-0.8-8.2C38.9,49.1,37.8,48.4,36.7,48 M31.5,28.1c-16.3-0.1-14.1-0.2-20.9,0c0,11.3-0.1,0.9-0.1,13.9
			c6.8,0.1,14.2,0.3,20.9-0.9c3.1-0.5,6.9-2.2,7.9-5.8c0.5-1.9,0.1-3.9-1.4-5.2C36.2,28.5,33.9,28.1,31.5,28.1 M44.7,26.3
			c2.8,1.8,3.9,5.1,3.3,8.3c-0.9,5-6.3,7.8-10.5,9.2c4.5,0.8,9.5,1.7,12.1,6.1c2.2,3.7,1.7,9.3-1.2,12.6c-5.8,6.3-14.5,5.8-22.7,6.2
			L0,68.6c0-23.4,0-25.7,0-45.4c14.6,0,17.2,0.1,26,0.1C32.1,23.3,39.4,23.1,44.7,26.3"/>
		<path id="XMLID_5_" class="st0" d="M87.6,0c-4,0-7.6,1.3-10.5,3.5h21C95.2,1.3,91.5,0,87.6,0"/>
		<path id="XMLID_4_" class="st0" d="M105,17.4c0-0.7,0-1.4-0.1-2.1H70.3c-0.1,0.7-0.1,1.4-0.1,2.1c0,0.6,0,1.2,0.1,1.8h34.6
			C104.9,18.6,105,18,105,17.4"/>
		<path id="XMLID_3_" class="st0" d="M87.6,34.8c4.1,0,7.9-1.5,10.9-3.9H76.7C79.6,33.3,83.4,34.8,87.6,34.8"/>
		<path id="XMLID_2_" class="st0" d="M101.8,7.5H73.3c-0.8,1.2-1.5,2.5-2,3.9h32.6C103.4,10,102.7,8.7,101.8,7.5"/>
		<path id="XMLID_1_" class="st0" d="M71.2,23.1c0.5,1.4,1.1,2.7,1.9,3.9h29c0.8-1.2,1.5-2.5,1.9-3.9H71.2z"/>
	</g>
</g>
</svg>
