<?xml version="1.0" encoding="utf-8"?>
<!-- Generator: Adobe Illustrator 20.0.0, SVG Export Plug-In . SVG Version: 6.00 Build 0)  -->
<svg version="1.1" id="Layer_1" xmlns="http://www.w3.org/2000/svg" xmlns:xlink="http://www.w3.org/1999/xlink" x="0px" y="0px"
	 viewBox="0 0 300 62.6" style="enable-background:new 0 0 300 62.6;" xml:space="preserve">
<style type="text/css">
	.st0{fill:#EC1C24;}
</style>
<g>
	<path class="st0" d="M23.6,44.5c4.8,7.9,13.7,13.2,23.5,13.2c14.5,0,22.4-12.4,22.4-12.4l0,0l1.1,3.3l0,0
		c-6.8,8.7-18.7,13.9-32.1,13.9c-15.4,0-28.8-7.3-34.9-18.1C1.4,40.5,0,35.9,0,31.2C0,14,17.2,0,38.5,0c15,0,27.1,6.4,33.5,15.7l0,0
		L46.7,30.9l14.4-22l0,0c-4.1-2.6-9.1-5-14.4-5C32,3.8,19.8,16.1,19.8,30.9C19.8,35.8,21.3,40.5,23.6,44.5L23.6,44.5L23.6,44.5
		L23.6,44.5L23.6,44.5z"/>
	<path class="st0" d="M91,44.5c-0.1,0.5-0.1,1.1-0.1,1.5c0,5.5,4.6,10.1,10.1,10.1c5.5,0,10.1-4.6,10.1-10.1c0-0.5,0-1.1-0.1-1.6
		c-0.7-4.9-4.9-8.6-10.1-8.6C95.9,35.8,91.9,39.6,91,44.5L91,44.5L91,44.5L91,44.5L91,44.5z M128.8,44.5l5,17H116l-3.4-11.7l0,0
		c-2.3,6.6-10.2,11.7-19.6,11.7c-11.2,0-20.2-7-20.2-15.7c0-0.4,0-0.7,0-1.2C73.6,36.4,82.4,30,93,30c6.2,0,11.4,2.1,15.1,5.3l0,0
		l-4.8-16.1H83.1l0,0c0,0,3.3-2,18.3-7.4s19.8,7.4,19.8,7.4l0,0L128.8,44.5L128.8,44.5L128.8,44.5L128.8,44.5z"/>
	<path class="st0" d="M185.2,44.5v17H167v-17V24.2l0,0c0-2.8-2.2-4.9-4.9-4.9c-2.1,0-3.8,1.4-4.7,3.2l0,0v22.1v16.9h-18v-17V19.1
		h-10.3l0,0c0,0,14.5-8.7,19.6-8.7c4.8,0,8.2,3.7,8.7,8.4c7-3.7,13.9-8.4,18.7-8.4c4.9,0,8.9,3.9,9.1,8.9l0,0v25.2h0V44.5
		L185.2,44.5z"/>
	<path class="st0" d="M213.3,44.5l2.6,8.4l0,0c0,3.6,3.1,6.5,6.6,6.5c3.7,0,6.6-3.1,6.6-6.6c0-0.2,0-0.5,0-0.7l0,0l-2.1-7.3
		l-7.6-25.8l0,0c-0.4-3.3-3.2-6-6.6-6s-6.6,3.2-7,6.5l0,0L213.3,44.5L213.3,44.5L213.3,44.5L213.3,44.5z M242.2,44.5
		c-3.4,10.5-13.3,18.1-25,18.1c-11.6,0-21.5-7.6-25-18.1c-0.7-2.6-1.4-5.3-1.4-8.2c0-14.5,11.7-26.2,26.2-26.2s26.2,11.7,26.2,26.2
		C243.5,39.1,243.1,41.8,242.2,44.5L242.2,44.5L242.2,44.5L242.2,44.5L242.2,44.5z"/>
	<path class="st0" d="M272.3,44.5v17h-18v-17V19.1h-10l0,0c0,0,14-8.7,19.1-8.7c4.8,0,8.2,3.7,8.7,8.4c7-3.7,13.9-8.4,18.7-8.4
		c4.9,0,8.9,3.9,9.1,8.9l0,0v25.2v17h-18.3v-17V24.1l0,0c0-2.8-2.2-4.9-4.9-4.9c-2.1,0-3.8,1.4-4.7,3.2l0,0v22.1H272.3L272.3,44.5
		L272.3,44.5z"/>
</g>
</svg>
