<?xml version="1.0" encoding="utf-8"?>
<!-- Generator: Adobe Illustrator 20.0.0, SVG Export Plug-In . SVG Version: 6.00 Build 0)  -->
<svg version="1.1" id="Layer_1" xmlns="http://www.w3.org/2000/svg" xmlns:xlink="http://www.w3.org/1999/xlink" x="0px" y="0px"
	 viewBox="0 0 300.2 319.9" style="enable-background:new 0 0 300.2 319.9;" xml:space="preserve">
<style type="text/css">
	.st0{fill:#ED1C24;}
	.st1{fill:#1F1A17;}
	.st2{fill:none;stroke:#1F1A17;stroke-width:0.5605;stroke-miterlimit:2.4142;}
</style>
<g>
	<path class="st0" d="M153.4,3.1l7.5,0.1l7.5,0.6l7.3,0.9L183,6l7.2,1.6l6.9,1.9l6.7,2.2l6.7,2.7l6.6,3l6.4,3.1l6.3,3.6l5.8,3.9
		l5.7,4l5.5,4.5l5.4,4.6l5.1,4.8l4.8,5.1l4.6,5.4l4.5,5.5l4,5.7l3.9,5.8l3.6,6.3l3.1,6.4l3,6.6l2.7,6.7l2.2,6.7l1.9,6.9l1.6,7.2
		l1.2,7.3l0.9,7.3l0.6,7.5l0.1,7.6v3.9l-0.1,3.9l-0.1,3.9l-0.3,3.7l-0.3,3.7l-0.6,3.7l-0.7,3.7l-0.7,3.7l-0.9,3.6l-0.9,3.6l-1,3.6
		l-1,3.6l-1.2,3.6l-1.2,3.4l-1.2,3.4l-1.5,3.4l-1.5,3.4l-1.6,3.1l-1.6,3.1l-1.8,3.1l-1.8,3.1l-1.9,3l-1.9,3l-1.9,3l-2.1,3l-2.1,2.8
		l-2.1,2.8l-2.2,2.8l-2.2,2.7l-2.5,2.7l-2.5,2.7l-2.5,2.5l-10-8.4l2.2-2.2l2.2-2.2l2.2-2.5l2.1-2.5l2.1-2.5l2.1-2.7l1.9-2.7l1.9-2.7
		l1.9-2.7l1.8-2.8l1.8-2.8l1.6-2.8l1.6-3l1.6-3l1.5-3l1.5-3l1.2-3l1.2-3.1l1-3.1l1-3.1l1-3.1l0.9-3.4l0.9-3.4l0.7-3.4l0.7-3.4
		l0.6-3.4l0.6-3.4l0.3-3.6l0.3-3.6l0.1-3.6l0.1-3.6v-3.6l-0.1-6.9l-0.6-6.7l-0.9-6.7l-1.2-6.6l-1.5-6.4l-1.8-6.4l-2.1-6.3l-2.5-6
		l-2.7-5.8l-3-5.8l-3.1-5.7l-3.6-5.5l-3.7-5.4l-3.9-5.1l-4.3-4.8l-4.5-4.6l-4.6-4.5l-4.8-4.3l-5.1-3.9l-5.4-3.7l-5.5-3.6l-5.7-3.1
		l-5.8-3l-5.8-2.7l-6-2.5l-6.3-2.1l-6.4-1.8l-6.4-1.5l-6.6-1.2l-6.7-0.9l-6.7-0.6l-6.9-0.1l-6.9,0.1l-6.7,0.6l-6.7,0.9l-6.6,1.2
		l-6.4,1.5l-6.4,1.8l-6,2.2l-6,2.5l-6,2.7l-5.7,3l-5.7,3.1l-5.5,3.6l-5.4,3.7l-5.1,3.9l-4,4.5l-4.6,4.5l-4.5,4.6L50,64.9L46.1,70
		l-3.6,5.4l-3.6,5.5l-3.1,5.7l-3,5.8l-2.7,5.8l-2.2,5.8l-2.1,6.3l-1.8,6.4l-1.5,6.4l-1.3,6.4l-0.9,6.7l-0.4,6.7l-0.1,6.9v1.2v1.2
		v1.2v1.2v1.2v1.2v1.2v1v1.2l0.1,1l0.1,1l0.1,1l0.1,1l0.1,1l0.1,1l0.1,1l0.1,1l0.1,1l0.1,1l0.1,1l0.1,1l0.1,1l0.1,1l0.1,1l0.1,1
		l0.1,1l0.1,1l0.1,1l0.3,1l0.3,1l0.3,1l0.3,1l-1.2,1.5l-1.2,1.5l-1.2,1.5l-1.2,1.5l-1.2,1.5l-1.2,1.5l-1.2,1.5l-1.2,1.2l-0.6-1.5
		l-0.6-1.5l-0.6-1.5l-0.3-1.5l-0.3-1.5l-0.3-1.5l-0.3-1.5l-0.3-1.5l-0.3-1.5l-0.3-1.5l-0.3-1.5l-0.3-1.5l-0.3-1.5L9,175.3l-0.1-1.5
		l-0.1-1.5l-0.1-1.5l-0.1-1.5l-0.1-1.5l-0.1-1.6L8,164.7l-0.1-1.6l-0.1-1.5l-0.1-1.6l-0.1-1.6l-0.1-1.6L7.1,155v-1.6v-1.6v-1.6v-1.6
		v-1.6l0.1-7.6l0.6-7.5l0.9-7.3l1.2-7.3l1.6-7.2l1.9-6.9l2.2-6.7l2.7-6.7l3-6.6l3.1-6.4l3.6-6.3l3.9-5.8l4-5.7l4.5-5.5l4.6-5.4
		l4.8-5.1l5.1-4.8l5.4-4.6l5.5-4.5l5.7-4l6-3.9l6.3-3.6l6.4-3.1l6.6-3l6.7-2.7l6.9-2.2l6.9-1.9l7.2-1.6l7.3-1.2l7.3-0.9l7.5-0.6
		L153.4,3.1L153.4,3.1z M67.8,269.2l-1.5-1l-1.5-1l-1.5-1l-1.5-1l-1.5-1l-1.5-1.2l-1.5-1.2l-1.5-1.2l-1.5-1.2l-1.5-1.2l-1.2-1.2
		l-1.2-1.2l-1.2-1.2l-1.2-1.2l-1.2-1.2l-1.2-1.2l-1.2-1.5l-1.2-1.5l-1.2-1.5l-1.2-1.5l-1.2-1.5l-1-1.5l-1-1.5l-1-1.5l-1-1.5l-1-1.5
		l-1-1.5l-1-1.5l-1-1.6l-1-1.6l-1-1.6l-0.9-1.6l1-1.6l1-1.6l1-1.5l1-1.5l1-1.5l1-1.5l0.9-1.2l0.9-1.2l0.7,1.5l0.7,1.2l0.7,1.2
		l0.9,1.2l0.9,1.2l0.9,1.2l0.9,1.2l0.9,1.2l0.9,2.2l0.9,1.2l0.9,1.2l0.9,1.2l0.9,1.2l0.9,1.2l0.9,1.2l1,1.2l0.9,1.2l1,1.2l1,1l1,1
		l1,1l1,1l1,1l1,1l1,1l1,1l1,1l1,1l1,1l1,1l1,1l1.2,1v16.3h0.6V269.2z"/>
	<polygon class="st1" points="69,165.2 68.7,165.3 67.6,166.1 66.1,167.1 64,168.6 62.7,169.5 61.5,170.6 60.1,171.7 58.6,172.8 
		57.3,174.1 55.7,175.5 54,176.8 52.2,178.5 50.4,180 48.9,181.6 47.1,183.4 45.3,185.2 43.5,187.1 41.8,189.1 40,191 38.5,193.1 
		36.7,195.4 35,197.5 33.4,199.7 32,202.1 30.5,204.3 29.2,206.7 28,209.1 26.8,211.7 25.8,213.9 24.7,216.4 24,218.5 23.2,220.9 
		22.6,223 22,225 21.6,227.1 21.1,228.8 20.8,230.8 20.7,232.6 20.7,234.2 20.7,235.7 20.7,237.4 20.7,239 20.8,240.4 21.1,241.9 
		21.6,243 21.9,244.2 22.5,245.6 22.9,246.6 23.5,247.7 24,248.6 24.7,249.6 25.5,250.5 26.4,251.3 27.3,252.2 28.2,252.6 
		29.1,253.4 29.9,254 31,254.4 32,255 33.1,255.3 34.1,255.9 35.2,256.2 36.5,256.8 37.6,257.4 38.8,258 40,258.7 41.2,259.3 
		42.4,260.2 43.5,261 44.6,261.9 45.9,262.8 47,263.8 48,264.7 49.1,265.8 50.1,266.8 51.2,267.9 52.2,269.1 53.1,270.3 54,271.3 
		54.9,272.5 55.7,273.8 56.6,275 57.3,276.5 57.7,277.7 58.3,279.1 58.8,280.4 59.4,281.8 59.7,283.3 59.8,284.6 60.1,286.1 
		60.3,287.4 60.3,288.9 60.3,290.3 60.1,291.9 59.8,293.1 59.5,294.6 59.4,296 58.9,297.5 58.5,298.7 58.2,299.9 57.6,301.2 
		57,302.4 56.6,303.6 56,304.6 55.4,305.8 54.8,306.9 54.2,307.9 53.6,309 53,309.9 52.2,310.8 51.8,311.7 51,312.3 50.4,313 
		50,313.8 49.4,314.5 49.1,314.9 48.2,315.8 47.4,316.6 47.1,317.2 47,317.2 0.2,317.2 19.2,297.6 32.2,297.6 32.3,297.6 
		32.5,297.3 32.9,297 33.4,296.6 34.1,295.8 34.9,295.1 35.2,294.8 35.6,294.3 35.9,293.9 36.2,293.3 36.7,292.8 37,292.2 
		37.4,291.8 37.7,291 37.9,290.4 38.2,289.8 38.6,289.1 38.8,288.3 38.9,287.6 39.1,287 39.4,286.2 39.5,285.4 39.5,284.6 
		39.7,283.7 39.5,282.8 39.5,281.9 39.4,281 39.1,280 38.9,279.1 38.6,278.2 38.2,277.3 37.9,276.5 37.4,275.6 36.8,274.9 36.2,274 
		35.8,273.2 35.2,272.5 34.6,271.9 33.8,271.2 33.1,270.4 32.3,269.7 31.4,269.1 30.8,268.3 29.9,267.7 29.1,267.1 28.2,266.5 
		27.3,265.9 26.4,265.3 25.5,264.7 24.4,264.3 22.6,263.1 20.7,261.9 18.7,260.8 16.8,259.8 16,259.2 15.1,258.7 14.4,258 
		13.8,257.2 13.1,256.4 12.5,255.5 11.7,254.6 11.3,253.5 10.7,252.5 10.2,251.4 9.8,250.2 9.3,249.2 8.9,247.7 8.6,246.5 
		8.3,245.1 8.1,243.8 7.7,242.3 7.5,241 7.4,239.5 7.4,238 7.4,236.5 7.4,235 7.4,233.5 7.4,231.8 7.5,230.5 7.7,228.8 7.8,227.2 
		8.3,225.7 8.6,224.2 8.9,222.7 9.3,221.2 9.8,219.6 10.4,218.1 11,216.4 11.6,214.8 12.5,213.3 13.4,211.7 14.3,209.9 15.1,208.2 
		16.2,206.7 17.2,205.1 18.6,203.3 19.6,201.6 20.8,200.1 22,198.5 23.4,196.9 24.6,195.4 26.1,193.7 27.3,192.2 28.5,190.7 
		29.9,189.2 31.3,187.9 32.5,186.4 33.8,185.2 35.2,183.7 36.5,182.5 37.7,181.5 39.1,180.3 40.3,179.2 41.5,178 42.7,177.1 
		43.7,176.4 44.7,175.5 45.9,174.7 46.8,174 47.9,173.2 48.9,172.6 50,172 51,171.3 51.9,170.9 53,170.3 54,170 54.9,169.4 
		56,169.1 56.9,168.5 57.9,168.2 58.8,167.7 59.7,167.4 60.6,167.3 61.5,167 62.2,166.7 63.1,166.5 63.9,166.2 64.5,166.1 
		65.8,165.8 66.9,165.5 67.8,165.3 68.4,165.3 68.8,165.2 	"/>
	<polygon class="st2" points="69,165.2 68.7,165.3 67.6,166.1 66.1,167.1 64,168.6 62.7,169.5 61.5,170.6 60.1,171.7 58.6,172.8 
		57.3,174.1 55.7,175.5 54,176.8 52.2,178.5 50.4,180 48.9,181.6 47.1,183.4 45.3,185.2 43.5,187.1 41.8,189.1 40,191 38.5,193.1 
		36.7,195.4 35,197.5 33.4,199.7 32,202.1 30.5,204.3 29.2,206.7 28,209.1 26.8,211.7 25.8,213.9 24.7,216.4 24,218.5 23.2,220.9 
		22.6,223 22,225 21.6,227.1 21.1,228.8 20.8,230.8 20.7,232.6 20.7,234.2 20.7,235.7 20.7,237.4 20.7,239 20.8,240.4 21.1,241.9 
		21.6,243 21.9,244.2 22.5,245.6 22.9,246.6 23.5,247.7 24,248.6 24.7,249.6 25.5,250.5 26.4,251.3 27.3,252.2 28.2,252.6 
		29.1,253.4 29.9,254 31,254.4 32,255 33.1,255.3 34.1,255.9 35.2,256.2 36.5,256.8 37.6,257.4 38.8,258 40,258.7 41.2,259.3 
		42.4,260.2 43.5,261 44.6,261.9 45.9,262.8 47,263.8 48,264.7 49.1,265.8 50.1,266.8 51.2,267.9 52.2,269.1 53.1,270.3 54,271.3 
		54.9,272.5 55.7,273.8 56.6,275 57.3,276.5 57.7,277.7 58.3,279.1 58.8,280.4 59.4,281.8 59.7,283.3 59.8,284.6 60.1,286.1 
		60.3,287.4 60.3,288.9 60.3,290.3 60.1,291.9 59.8,293.1 59.5,294.6 59.4,296 58.9,297.5 58.5,298.7 58.2,299.9 57.6,301.2 
		57,302.4 56.6,303.6 56,304.6 55.4,305.8 54.8,306.9 54.2,307.9 53.6,309 53,309.9 52.2,310.8 51.8,311.7 51,312.3 50.4,313 
		50,313.8 49.4,314.5 49.1,314.9 48.2,315.8 47.4,316.6 47.1,317.2 47,317.2 0.2,317.2 19.2,297.6 32.2,297.6 32.3,297.6 
		32.5,297.3 32.9,297 33.4,296.6 34.1,295.8 34.9,295.1 35.2,294.8 35.6,294.3 35.9,293.9 36.2,293.3 36.7,292.8 37,292.2 
		37.4,291.8 37.7,291 37.9,290.4 38.2,289.8 38.6,289.1 38.8,288.3 38.9,287.6 39.1,287 39.4,286.2 39.5,285.4 39.5,284.6 
		39.7,283.7 39.5,282.8 39.5,281.9 39.4,281 39.1,280 38.9,279.1 38.6,278.2 38.2,277.3 37.9,276.5 37.4,275.6 36.8,274.9 36.2,274 
		35.8,273.2 35.2,272.5 34.6,271.9 33.8,271.2 33.1,270.4 32.3,269.7 31.4,269.1 30.8,268.3 29.9,267.7 29.1,267.1 28.2,266.5 
		27.3,265.9 26.4,265.3 25.5,264.7 24.4,264.3 22.6,263.1 20.7,261.9 18.7,260.8 16.8,259.8 16,259.2 15.1,258.7 14.4,258 
		13.8,257.2 13.1,256.4 12.5,255.5 11.7,254.6 11.3,253.5 10.7,252.5 10.2,251.4 9.8,250.2 9.3,249.2 8.9,247.7 8.6,246.5 
		8.3,245.1 8.1,243.8 7.7,242.3 7.5,241 7.4,239.5 7.4,238 7.4,236.5 7.4,235 7.4,233.5 7.4,231.8 7.5,230.5 7.7,228.8 7.8,227.2 
		8.3,225.7 8.6,224.2 8.9,222.7 9.3,221.2 9.8,219.6 10.4,218.1 11,216.4 11.6,214.8 12.5,213.3 13.4,211.7 14.3,209.9 15.1,208.2 
		16.2,206.7 17.2,205.1 18.6,203.3 19.6,201.6 20.8,200.1 22,198.5 23.4,196.9 24.6,195.4 26.1,193.7 27.3,192.2 28.5,190.7 
		29.9,189.2 31.3,187.9 32.5,186.4 33.8,185.2 35.2,183.7 36.5,182.5 37.7,181.5 39.1,180.3 40.3,179.2 41.5,178 42.7,177.1 
		43.7,176.4 44.7,175.5 45.9,174.7 46.8,174 47.9,173.2 48.9,172.6 50,172 51,171.3 51.9,170.9 53,170.3 54,170 54.9,169.4 
		56,169.1 56.9,168.5 57.9,168.2 58.8,167.7 59.7,167.4 60.6,167.3 61.5,167 62.2,166.7 63.1,166.5 63.9,166.2 64.5,166.1 
		65.8,165.8 66.9,165.5 67.8,165.3 68.4,165.3 68.8,165.2 	"/>
	<path class="st1" d="M152.2,244.8L135.5,261v38.4l16.7,19l16.9-19V261L152.2,244.8L152.2,244.8z M146.7,262H158v39h-11.4V262
		L146.7,262z"/>
	<polygon class="st2" points="152.2,244.8 135.5,261 135.5,299.3 152.2,318.2 169.1,299.3 169.1,261 	"/>
	<polygon class="st2" points="146.7,262 158,262 158,301.2 146.7,301.2 	"/>
	<path class="st1" d="M194.2,244.8L177.5,261v57.5l10.3-0.1l0.7-13.9l10.8,10.6l11.7-10.6V261L194.2,244.8L194.2,244.8z M188.7,262
		h11.4v39h-11.4V262L188.7,262z"/>
	<polygon class="st2" points="194.2,244.8 177.5,261 177.5,318.5 187.8,318.2 188.5,304.3 199.3,314.9 211,304.3 211,261 	"/>
	<polygon class="st2" points="188.7,262 200.1,262 200.1,301.2 188.7,301.2 	"/>
	<polygon class="st1" points="274.3,246 257.7,262.2 257.7,300.6 274.3,319.4 291.2,300.6 291.2,290.4 280,290.4 280,302.4 
		269,302.4 269,263.4 280,263.4 280,277.9 291.2,277.9 291.2,262.2 	"/>
	<polygon class="st2" points="274.3,246 257.7,262.2 257.7,300.6 274.3,319.4 291.2,300.6 291.2,290.4 280,290.4 280,302.4 
		269,302.4 269,263.4 280,263.4 280,277.9 291.2,277.9 291.2,262.2 	"/>
	<polygon class="st1" points="250.4,301.8 228.9,301.8 228.9,289.2 251.6,289.2 251.6,277 228.9,277 228.9,262.2 240.3,262.2 
		252.5,262.2 234.4,246 217.8,262.2 217.8,301.8 234.4,319.4 	"/>
	<polygon class="st2" points="250.4,301.8 228.9,301.8 228.9,289.2 251.6,289.2 251.6,277 228.9,277 228.9,262.2 240.3,262.2 
		240.3,262.2 252.5,262.2 234.4,246 217.8,262.2 217.8,301.8 234.4,319.4 	"/>
	<path class="st1" d="M143.4,138.4L143.4,138.4l0.1-0.6l0.1-0.7v-0.7V136v-0.3v-0.3v-0.3V135v-0.1v-0.1l0,0h-0.1h-0.1h-0.1h-0.1H143
		h-0.3l-0.1,0.1l-0.1,0.1l-0.1,0.1l-0.1,0.1l-0.1,0.1l-0.1,0.3l-0.3,0.7l-0.3,0.7l-0.6,0.7l-0.3,0.9l-0.3,0.9l-0.3,0.9l-0.3,0.9
		l-0.3,0.9l-0.1,0.3l-0.7,0.3l-0.1,0.3l-0.1,0.3v0.3v0.6v0.3v0.3v0.3v0.3v0.1v0.1v0.1v0.1l0.1,0.1l0.1,0.1l0.1,0.1l0.1,0.1l0.1,0.1
		h0.1h0.1h0.1h0.1h0.1h0.3h0.3h0.3h0.3l0.3-0.1h0.1v-0.1l0.1-0.6l0.1-0.3l0.1-0.3l0.1-0.6l0.1-0.6l0.1-0.6l0.1-0.6l0.1-0.6l0.3-0.6
		l0.1-0.1l0.1-0.1l0.1-0.1l0.1-0.1l0.1-0.1l0.1-0.1l0.1-0.1l0.1-0.1l0.6-0.1l0.6-0.3l0.7-0.3l0.7-0.6l0.7-0.6l0.9-0.6l0.9-0.6
		l0.9-0.6v0.6v0.6v0.6v0.6v0.6v0.6v0.9v0.6l-0.6,0.6l-0.6,0.6l-0.6,0.6l-0.6,0.6l-0.6,0.6l-0.6,0.6l-0.3,0.6l-0.3,0.3l-0.1,0.1v0.1
		v0.1v0.1v0.1v0.1v0.1v0.1v0.1v0.1v0.1v0.1l0.1,0.1l0.1,0.1l0.1,0.1l0.1,0.1l0.1,0.1l0.1,0.1l0.1,0.1h0.1h0.1l0.6-0.1l0.7-0.1l1-0.3
		l-0.1,2.2v2.2v2.2v2.2v2.1v2.1v1.9v1.9v1.8v1.6v1.5v1.2v1v0.9v0.7v0.6v0.3v0.1v0.1v0.1v0.1h0.1l0,0h0.1h0.1l0.1-0.1l0.1-0.1
		l0.1-0.1l0.1-0.1l0.1-0.1l0.1-0.1l0.1-0.1l0.1-0.6l0.1-0.7l0.1-0.7l0.1-0.7l0.1-0.7l0.1-0.7v-0.7V170v-0.3v-0.6v-0.7v-0.9v-1v-1.2
		v-1.5v-1.5v-1.6v-1.6v-1.8v-1.8v-1.8v-1.9v-1.9v-1.9l0.7-0.1l0.7-0.1l0.7-0.1l0.7-0.1l0.7-0.1l0.6-0.1l0.6-0.1l0.3-0.1l0.1-0.1
		l0.1-0.1l0.1-0.1l0.1-0.1l0.1-0.1l0.1-0.1v-0.1v-0.1v-0.1V145v-0.4v-0.1v-0.1v-0.1v-0.1v-0.1l-0.1-0.1l-0.1-0.1l-0.1-0.1l-0.1-0.1
		l-0.3-0.1l-0.3-0.1h1.2h-0.1h-0.1h-0.1h-1.5h-0.1l0,0l0,0v-0.1v-0.1v-0.1v-0.1l0.1-0.3l0.3-0.3l0.3-0.3l0.6-0.3l0.6-0.3l0.6-0.6
		l0.6-0.6l0.6-0.3l0.6-0.3l0.6-0.3l0.6-0.3l0.6-0.3l0.1-0.1l0.1-0.1l0.1-0.1l0.1-0.1l0.1-0.1l0.1-0.1l0.1-0.1l0.1-0.1l0.1-0.1
		l0.1-0.1l0.1-0.1l0.1-0.1l0.1-0.1V136v-0.1v-0.1v-0.1v-1.5v-0.1v-0.1v-0.1v-0.1v-0.1v-0.1V133v-0.4l-0.1-0.1l-0.1-0.1l-0.1-0.1
		L163,132l-0.1-0.1h-0.1l-0.3-0.1l-0.3-0.1h-0.6h-0.9H160h-0.7h-0.7h-0.7H157l-0.7,0.1l-0.7,0.1l-0.7,0.1l-0.7,0.1l-0.7,0.1
		l-0.7,0.1l-0.7,0.1v-1.2v-1.2v-1v-1v-0.9v-0.7v-0.7v-0.6V123v-1.8v-1.5v-1.2v-0.9v-0.7v-0.3v-0.1h-0.1l-0.3,0.1l-0.1,0.1l-0.1,0.1
		l-0.1,0.1l-0.1,0.1l-0.1,0.3l-0.1,0.3l-0.1,0.3l-0.1,0.3l-0.1,0.1v0.6v0.1v0.1v0.1v0.1v0.1v0.3v0.6v0.9v1.2v1.6v1.8v2.1v2.2
		l-0.1,2.5l-1.2,0.9l-1.2,0.7l-1,0.7l-0.9,0.7l-0.7,0.6l-0.6,0.3L143.4,138.4L143.4,138.4L143.4,138.4z M152.2,136.9l0.6-0.1
		l0.6-0.1h0.1h0.1h0.1h0.1h0.1h0.1h0.1h0.1l0,0l0,0l0,0l0,0v0.1v0.1v0.1v0.1l-0.1,0.3l-0.1,0.3l-0.1,0.3l-0.1,0.3l-0.3,0.3l-0.3,0.3
		l-0.7,0.7l-0.7,0.7v-0.6v-0.6v-0.6v-0.6v-0.6v-0.6v0.1L152.2,136.9L152.2,136.9z"/>
	<polygon class="st2" points="143.4,138.4 143.4,138.3 143.4,138 143.5,137.2 143.5,136.5 143.5,136.2 143.5,135.9 143.5,135.4 
		143.5,135.1 143.5,135.1 143.4,135 143.4,134.8 143.4,134.8 143.3,134.8 143,134.5 143,134.5 142.8,134.5 142.7,134.5 142.7,134.5 
		142.5,134.8 142.4,135 142.1,135.1 141.9,135.3 141.6,135.4 141.5,135.9 141,136.5 140.6,137.2 140.1,138 139.7,138.9 139.2,139.8 
		138.9,140.7 138.5,141.6 138.2,142.6 138,142.9 137.9,143.5 137.7,143.8 137.7,144.1 137.6,144.7 137.6,145 137.3,145.4 
		137.3,145.7 137.3,145.9 137.3,146.3 137.3,146.5 137.6,146.8 137.6,146.9 137.7,147.2 137.7,147.4 137.9,147.5 137.9,147.5 
		138,147.7 138.2,147.7 138.5,147.8 138.6,147.8 138.8,147.8 138.9,147.8 138.9,147.8 139.2,148.1 139.7,147.8 140,147.8 
		140.1,147.8 140.7,147.7 140.9,147.7 140.9,147.5 141,146.8 141,146.5 141.3,146.2 141.5,145.6 141.6,145 141.8,144.5 141.9,143.9 
		142.1,143.6 142.5,143 142.7,142.9 142.7,142.6 142.8,142.5 143,142.2 143.3,142 143.4,142 143.5,141.9 143.7,141.7 144.3,141.6 
		144.7,141.1 145.5,140.8 146.2,140.2 147.1,139.8 147.7,139.2 148.6,138.9 149.5,138.3 149.5,138.9 149.5,139.3 149.5,139.9 
		149.5,140.5 149.4,141.1 149.4,141.7 149.4,142.2 149.4,142.9 148.9,143.3 148.3,143.8 147.7,144.4 147.4,144.8 147,145.6 
		146.4,145.9 146.1,146.5 145.6,146.9 145.5,146.9 145.5,147.2 145.3,147.4 145.3,147.4 145.3,147.5 145.3,147.7 145.3,147.7 
		145.3,147.8 145.3,148.1 145.3,148.1 145.5,148.3 145.5,148.3 145.6,148.6 145.8,148.7 145.8,149 146.1,149.2 146.2,149.3 
		146.4,149.3 146.7,149.5 146.7,149.6 147,149.5 147.4,149.5 148.2,149.2 149.2,148.7 149.1,151.3 149.1,153.5 148.9,155.9 
		148.9,158 148.9,160.4 148.6,162.3 148.6,164.4 148.6,166.2 148.6,168 148.5,169.5 148.5,171.2 148.5,172.3 148.5,173.5 
		148.5,174.3 148.5,175 148.5,175.6 148.6,175.9 148.6,176.1 148.6,176.4 148.9,176.5 148.9,176.7 149.1,176.7 149.1,176.7 
		149.2,176.7 149.2,176.7 149.4,176.5 149.4,176.5 149.5,176.4 149.8,176.1 149.8,175.8 150,175.6 150,175.5 150.3,174.7 
		150.4,174.1 150.6,173.5 150.9,172.8 150.9,172 151,171.3 151,170.9 151.2,170.1 151.2,169.8 151.2,169.2 151.2,168.5 151.2,167.4 
		151.2,166.4 151.2,165.3 151.3,163.8 151.3,162.5 151.3,160.8 151.3,159 151.5,157.5 151.5,155.8 151.5,153.8 151.8,151.9 
		151.8,150.1 151.9,148.1 152.7,147.7 153.3,147.5 154,147.2 154.8,146.9 155.5,146.8 156,146.5 156.6,146.3 156.9,146.2 157,146.2 
		157.2,145.9 157.5,145.9 157.5,145.7 157.6,145.6 157.6,145.6 157.7,145.4 157.7,145.3 157.7,145.3 157.7,145 157.7,144.8 
		157.7,144.8 157.7,144.7 157.7,144.5 157.7,144.5 157.6,144.4 157.6,144.1 157.2,143.9 157,143.6 156.9,143.6 156.6,143.5 
		156.3,143.3 156.1,143.3 156,143.3 155.8,143.3 155.7,143.3 155.7,143.3 155.5,143 155.5,143 155.5,143 155.2,142.9 155.5,142.9 
		155.5,142.8 155.5,142.6 155.8,142.2 156,141.9 156.6,141.6 156.9,141 157.5,140.7 157.9,140.1 158.5,139.8 158.9,139.2 
		159.5,138.9 160,138.4 160.6,138.1 161.2,137.8 161.5,137.7 161.6,137.4 161.8,137.2 161.9,137.1 162.2,136.9 162.4,136.8 
		162.5,136.5 162.7,136.3 162.8,136.2 163.1,135.9 163.1,135.6 163.3,135.4 163.4,135.3 163.4,135 163.6,134.8 163.6,134.5 
		163.6,134.4 163.6,134.1 163.7,133.9 163.7,133.6 163.7,133.5 163.7,133.3 163.6,133 163.6,132.7 163.6,132.6 163.6,132.6 
		163.4,132.4 163.3,132.3 163.3,132.1 163.1,132.1 162.8,132 162.7,132 162.4,131.7 161.9,131.7 161.5,131.5 160.9,131.5 
		160.4,131.5 159.7,131.5 159.1,131.5 158.5,131.5 157.6,131.7 156.9,131.7 156.1,132 155.2,132.1 154.6,132.3 153.9,132.4 
		153,132.6 152.2,133 152.4,131.7 152.4,130.5 152.4,129.4 152.4,128.4 152.4,127.5 152.4,126.6 152.4,126 152.4,125.6 152.7,123.3 
		152.7,121.7 152.7,120.2 152.8,119 152.8,118.1 153,117.5 153,117.2 153,117 152.8,117.2 152.7,117.3 152.2,117.3 152.1,117.5 
		151.9,117.6 151.5,118.1 151.3,118.2 151,118.5 150.9,119 150.6,119.3 150.4,119.4 150.4,119.7 150.3,120 150.3,120.2 150.3,120.5 
		150.3,120.8 150.3,120.9 150.1,121.2 150.1,121.8 150.1,122.7 150.1,123.9 150.1,125.6 150,127.4 150,129.4 149.8,131.7 
		149.8,134.2 148.5,135.1 147.3,135.9 146.2,136.5 145.3,137.2 144.4,137.8 143.8,138.1 143.5,138.4 	"/>
	<polygon class="st2" points="152.2,136.9 152.8,136.8 153.3,136.5 153.7,136.3 153.9,136.3 154,136.3 154.3,136.3 154.6,136.3 
		154.6,136.3 154.8,136.3 154.8,136.3 154.9,136.5 154.9,136.5 154.9,136.8 154.9,136.8 154.9,136.9 154.9,136.9 154.9,137.1 
		154.9,137.2 154.8,137.4 154.6,137.8 154.3,138.1 154,138.4 153.9,138.9 153.4,139.2 152.8,139.9 152.1,140.7 152.1,140.1 
		152.1,139.8 152.1,139.2 152.1,138.7 152.1,138.3 152.1,137.8 152.2,137.4 	"/>
	<path class="st1" d="M167.3,138.4L167.3,138.4H167h-0.1h-0.3h-0.1l-0.1,0.1l-0.1,0.1l-0.1,0.1v0.1v0.1v0.1v0.1v0.1v0.4v0.1v0.1v0.1
		v0.1v0.1v0.1v0.6v0.7v0.7v0.7v0.7v0.7l-0.1,0.7l-0.1,0.7l-0.1,0.7l-0.1,0.7l-0.1,0.7l-0.1,0.7l-0.1,1l-0.1,0.7v0.3v0.3v0.6v0.6v0.6
		v0.6v0.6v0.6v0.1v0.1v0.1v0.1v0.1v0.1l0.1,0.1l0.1,0.1h0.1h0.1h0.1h0.1h0.1l0.1-0.1l0.1-0.1l0.1-0.1l0.1-0.1l0.1-0.3l0.1-0.3
		l0.1-0.6l0.1-0.6l0.1-0.6l0.1-0.7v-0.7l0.1-0.7V151v-0.7v-0.7l0.1-1.6v-1.6v-1.6v-1.6v-1.5v-1.2v-1v-0.9v-0.6v0.7H167.3z
		 M178.7,132.6v0.1l0.1,0.6l0.1,0.3l0.1,0.3l0.1,0.6l0.1,0.6l0.1,0.6l0.1,0.6l0.1,0.3l0.3,0.3l0.1,0.1l0.1,0.1l0.1,0.1l0.1,0.1
		l0.1,0.1h0.1h0.1h0.1h0.1h0.1l0,0l0,0v-0.1v-0.1v-0.1v-0.1v-0.3l-0.1-0.3l-0.1-0.3l-0.1-0.3l-0.3-0.9l-0.3-0.7l-0.3-0.6l-0.1-0.1
		L178.7,132.6L178.7,132.6z M170,139.6h0.3h0.6l0.7-0.1l0.7-0.1l0.9-0.1l0.9-0.1l0.9-0.1l0.9-0.1l-0.1-0.7l-0.3-0.9v-0.6v-0.6v-0.6
		V135v-0.3v-0.3v-0.3v-0.1l0.1-0.1l0.1-0.1l0.1-0.1l0,0v0.1v0.3v0.6v0.7v0.3v0.3v0.3v0.3l0.1,0.3l0.1,0.6l0.1,0.6l0.1,0.6l0,0l0,0
		h0.1h0.1h0.1h0.1h0.1h0.1h0.1h0.1h0.1l0,0l0,0l0,0l0,0l0,0v0.1v0.1v0.1v0.1v0.1v0.1v0.1l0,0l-0.7,0.1l0.1,0.6l0.1,0.7l0.1,0.7
		l0.1,0.7l0.1,0.7l0.1,0.7l0.1,0.7l0.3,0.7l0,0l0,0l0.1-0.1l0.1-0.1l0.1-0.1l0.1-0.1l0.3-0.3l0.3-0.3l0.3-0.3l0.3-0.3l0.3-0.1
		l0.3-0.1l0.3-0.1l0.3-0.1l0.1-0.1l0.1-0.1l0.3-0.1h0.1v0.1l-0.1,0.3l-0.3,0.7l-0.3,0.9l-0.6,0.9l-0.6,1l-0.3,0.6l-0.3,0.6l-0.3,0.6
		l-0.3,0.6l0.3,0.9l0.3,0.9l0.3,0.9l0.1,0.7l0.1,0.7l0.1,0.6l0.1,0.1l0.1,0.1v0.1l0.1,0.1l0.1,0.3l0.1,0.3l0.1,0.3l0.1,0.3v0.3v0.1
		v0.1v0.1v0.1l0,0l0,0l0,0l0,0l0,0h1.5l0,0h-0.1h-0.1h-0.1h-0.1h-0.1h-0.1l-0.1-0.1l-0.1-0.1l-0.1-0.1l-0.1-0.1l-0.1-0.1l-0.1-0.1
		l-0.1-0.1l-0.1-0.3l-0.1-0.3l-0.1-0.3l-0.1-0.7l-0.1-0.9l-0.1-0.9l-0.3-0.9l-0.3,0.9l-0.6,0.9l-0.6,0.9l-0.6,0.9l-0.6,0.9l-0.6,0.7
		l-0.6,0.7l-0.6,0.7h0.7h0.7h0.3h0.3h0.3h0.3h0.1h0.1h0.1h0.1h0.1h0.1h0.1h0.1h0.1h0.1h0.1h0.1l0.1,0.1l0.1,0.1l0.1,0.1l0.1,0.1
		l0.1,0.1l0.1,0.1l0.1,0.6l0.1,0.6v0.1v0.1l-0.1,0.1l-0.1,0.1h-0.1h-0.3H180h-0.3h-0.3h-0.3h-0.6h-0.6H177h-1h-1h-1h-1H172l-1.2-0.1
		h-0.6l0.6-2.7h0.1h0.1h0.3h0.6l0.1-0.1l0.3-0.1l0.3-0.3l0.3-0.3l0.6-0.3l0.3-0.3l0.3-0.3l0.3-0.3l0.3-0.6l0.3-0.6l0.3-0.6l0.1-0.6
		l0.1-0.6l0.1-0.6l0.1-0.6l0.1-0.6l0.6-1l0.3-1l-0.1-0.7l-0.1-0.7l-0.1-0.7l-0.1-0.7l-0.1-0.7l-0.1-0.7l-0.1-0.7l-0.1-0.6l-0.1,0.3
		l-0.1,0.6l-0.1,0.6h0.1l-0.1,0.1l-0.1,0.1l-0.1,0.1l-0.1,0.1l-0.1,0.1l-0.1,0.1l-0.1,0.1l-0.1,0.1h-0.1l-0.1,0.1h-0.1l-0.1,0.1
		l-0.1,0.1l-0.1,0.1l-0.1,0.3l-0.1,0.3l-0.1,0.3v0.3l-0.1,0.6v0.6v0.3v0.1h0.3h0.3h0.3h0.3h0.3h0.3h0.1h0.1h0.1h0.1l0,0l0,0l0,0l0,0
		l0,0l0,0l0,0l0,0l-0.1,0.1l-0.1,0.1l-0.6,0.1l-0.7,0.3l-0.7,0.6l-0.9,0.6l-0.9,0.7l-0.9,0.7l-0.6,0.3l-0.6,0.3l-0.3,0.3l-0.3,0.3
		h-0.1h-0.1h-0.1h-0.1l0,0h-0.1l0,0l0,0l-0.1-0.1v-0.1v-0.1v-0.1v0.3v-0.1v-0.1v-0.1v-0.3v-0.1l3.1-2.5v-0.1l0.1-0.3l0.1-0.6
		l0.1-0.7l0.1-0.3v-0.4v-0.3v-0.3v-0.1v-0.1v-0.1l0,0l0,0l0,0h-0.1h-0.1h-0.1h-0.1h-0.1l-0.1-0.1l-0.1-0.1L170,146l-0.1-0.1v-0.1
		v-0.1v-0.1v-0.1v-0.1l0.1-0.1l0.1-0.1l0.1-0.1l0.1-0.1h0.1l0.1-0.1l0.1-0.1l0.1-0.1v-0.1l0.1-0.1v-0.1v-0.1l0.1-0.6v-0.6v-0.6v-0.3
		l-1.8,0.3l0,0l-0.1-0.1l-0.3-0.3l-0.3-0.3l-0.1-0.1l-0.1-0.1v-0.1v-0.1l0,0l0,0l0,0l0,0l0,0L170,139.6L170,139.6L170,139.6
		L170,139.6z M172.8,129.9L172.8,129.9l-0.3,0.3l-0.1,0.1l-0.1,0.1l-0.1,0.1l-0.1,0.1l-0.1,0.1l-0.1,0.1v0.1v0.1v0.1v0.1v0.1v0.1
		l0,0l0,0l0,0h0.1h0.1h0.1h0.1h0.1h0.1h0.1h0.1h0.1h0.1h0.1l0.6-0.1l0.6-0.1l0.6-0.1l0.6-0.1l1-0.6l0.9-0.6l0.9-0.3l0.7-0.3h0.1h0.1
		h0.1h0.1h0.6h0.6h0.3h0.3h0.3h0.3h0.3h0.3h0.3h0.3l0.3,0.1l0.3,0.1l0.3,0.1l0.3,0.1l0.3,0.1l0.1,0.1l0.1,0.1l0.1,0.1l0.1,0.1
		l0.1,0.1l0.1,0.1l0.1,0.3l0.1,0.3l0.1,0.3v0.3v0.3v0.9v1.9v1.2v1.5v1.6v1.6v1.5v1.6v1.6v1.6v1.5v1.5v1.2v1v0.7v0.6v0.3v0.3v0.3
		l-0.1,0.3l-0.1,0.3l-0.1,0.3l-0.1,0.3l-0.1,0.3l-0.1,0.3l-0.1,0.1l-0.1,0.1l-0.1,0.1l-0.1,0.1l-0.1,0.1h-0.1h-0.1h0.1h-0.1h-0.1
		h-0.1h-0.1h-0.1v0.1v0.3v0.1v0.1v0.1v0.1v0.3l0.1,0.3l0.1,0.3l0.1,0.3l0.1,0.3l0.1,0.3l0.1,0.1l0.1,0.1l0.1,0.1l0.1,0.1l0.1,0.1
		l0.1,0.1h0.1h0.1h0.1h0.1h0.1h0.1h0.1h0.1h0.1l0.1-0.1l0.1-0.1l0.1-0.1l0.1-0.1l0.1-0.1l0.1-0.1l0.1-0.1l0.1-0.3l0.1-0.3l0.1-0.3
		l0.1-0.3l0.1-0.3l0.1-0.3l0.1-0.3l0.1-0.6l0.1-0.6l0.1-0.6l0.1-0.6l0.1-0.6l0.1-0.6v-0.7v-0.7v-0.7V152v-0.9v-1.8v-1.8v-1.9v-1.9
		v-1.9v-1.9v-1.9v-0.7v-1.8v-1.6v-1.5v-1v-0.9v-0.7v-0.1v-0.1V129l-0.1-0.1l-0.1-0.1l-0.1-0.1l-0.1-0.1l-0.1-0.1l-0.1-0.1l-0.1-0.1
		l-0.1-0.1h-0.1h-0.3h-0.3h-0.3h-0.3h-0.7h-0.7H185h-0.7h-1.5l-1.2,0.1h-0.3h0.3h-0.3h-0.3l-0.7,0.1l-0.7,0.1l-0.7,0.1l-0.7,0.1
		l-0.7,0.1l-0.7,0.1l-1.2,0.6l-0.9,0.6l-0.7,0.3L172.8,129.9L172.8,129.9z M176.6,140.2l-2.1,0.6v1.9l2.7-0.7l-0.1-0.6l-0.1-0.6
		l-0.1-0.3L176.6,140.2L176.6,140.2z"/>
	<polygon class="st2" points="167.3,138.4 167.2,138.4 167,138.7 166.9,138.7 166.6,138.7 166.4,138.9 166.1,138.9 166,139 
		165.7,139.2 165.5,139.3 165.5,139.6 165.5,139.6 165.4,139.8 165.4,139.9 165.4,140.1 165.2,140.2 165.2,140.5 165.2,140.8 
		165.2,141 165.2,141.1 165.2,141.6 165.4,142 165.4,142.8 165.4,143.5 165.4,144.1 165.4,144.8 165.2,145.7 165.2,146.5 
		165.1,147.2 165.1,148.1 164.9,148.7 164.6,149.3 164.5,150.1 164.3,151.1 164.2,151.9 164.2,152.2 164,152.8 164,153.1 164,153.5 
		164,154.3 164,154.9 164,155.3 164.2,156.1 164.2,156.2 164.2,156.4 164.3,156.8 164.3,157 164.3,157.1 164.5,157.2 164.5,157.5 
		164.6,157.7 164.6,157.7 164.9,157.8 165.1,157.8 165.2,157.8 165.2,157.7 165.4,157.7 165.5,157.5 165.7,157.2 166,157.1 
		166.1,156.8 166.3,156.2 166.3,155.9 166.4,155.3 166.6,154.9 166.6,154.1 166.9,153.4 166.9,152.8 167,152 167,151.3 167,150.4 
		167.2,148.7 167.2,146.9 167.3,145.4 167.3,143.8 167.3,142.5 167.3,141.1 167.3,140.1 167.3,139.2 167.3,138.7 	"/>
	<polygon class="st2" points="178.7,132.6 178.8,132.7 179.1,133.3 179.3,133.6 179.4,134.2 179.6,134.5 179.7,135.1 179.9,135.4 
		180.3,136 180.5,136.3 180.8,136.8 181.1,136.9 181.1,137.1 181.2,137.2 181.4,137.4 181.5,137.4 181.7,137.4 182,137.7 182,137.7 
		182.1,137.7 182.3,137.4 182.3,137.4 182.4,137.4 182.4,137.2 182.4,137.1 182.4,136.9 182.4,136.9 182.4,136.5 182.3,136 
		182.3,135.6 182.1,135.1 181.5,134.4 181.2,133.5 181.1,133 180.8,132.7 	"/>
	<polygon class="st2" points="170,139.6 170.6,139.3 171.1,139.3 171.8,139.2 172.5,139.2 173.4,139 174.2,138.9 175.1,138.7 
		176,138.7 175.8,138 175.7,137.2 175.7,136.8 175.5,136.2 175.5,135.6 175.5,135.1 175.7,134.8 175.7,134.4 175.8,134.2 
		175.8,134.1 176,133.6 176,133.5 176.3,133.3 176.3,133.3 176.3,133.5 176.3,133.6 176.4,134.2 176.4,135 176.4,135.3 176.6,135.6 
		176.6,136 176.6,136.5 176.7,136.9 176.9,137.4 177,137.8 177,138.3 177,138.3 177.3,138.3 177.3,138.3 177.5,138.3 177.6,138.3 
		177.8,138.1 177.9,138.1 177.9,138.1 178.2,138.1 178.4,138.3 178.4,138.3 178.5,138.3 178.5,138.3 178.5,138.4 178.7,138.4 
		178.7,138.4 178.7,138.7 178.7,138.9 178.7,139 178.7,139.2 178.7,139.3 178.7,139.6 178.5,139.8 178.5,139.8 177.8,139.9 
		177.9,140.5 178.2,141.1 178.4,141.9 178.7,142.6 178.8,143.3 179.1,143.9 179.4,144.7 179.6,145.6 179.7,145.4 179.7,145.4 
		179.7,145.3 179.9,144.8 180.2,144.7 180.3,144.5 180.6,144.1 181.1,143.6 181.4,143.5 181.7,143 182,142.8 182.3,142.6 
		182.6,142.5 183,142.2 183.2,142 183.3,141.9 183.6,141.9 183.9,141.7 183.6,141.9 183.5,142.5 183.3,142.9 183,143.8 182.4,144.7 
		182,145.7 181.7,146.3 181.4,146.8 181.1,147.4 180.6,147.8 181.1,148.7 181.4,149.6 181.5,150.5 182,151.3 182.1,151.9 
		182.3,152.3 182.4,152.8 182.4,152.9 182.6,153.1 182.6,153.1 182.7,153.4 183,153.8 183.2,154 183.3,154.3 183.3,154.4 
		183.3,154.9 183.3,155 183.3,155.2 183.3,155.3 183.3,155.3 183.2,155.6 183.2,155.6 183.2,155.6 183,155.8 183,155.8 182.7,155.8 
		182.7,155.8 182.6,155.8 182.4,155.8 182.4,155.8 182.3,155.6 182.1,155.6 182,155.3 181.7,155.3 181.5,155.2 181.5,155 
		181.4,154.9 181.2,154.7 181.2,154.4 181.1,154.1 180.8,153.8 180.8,153.5 180.6,152.8 180.3,152 180.2,151.1 179.7,150.2 
		179.4,151 178.8,151.9 178.4,152.8 177.8,153.5 177.3,154.4 176.7,155.2 176.3,156.1 175.7,156.7 176.4,156.7 177,156.7 
		177.5,156.7 177.8,156.4 178.2,156.4 178.5,156.2 178.7,156.2 179.1,156.2 179.3,156.2 179.4,156.1 179.6,156.1 179.7,156.1 
		179.9,156.2 180.2,156.2 180.3,156.2 180.3,156.2 180.5,156.2 180.6,156.4 180.8,156.7 181.1,156.8 181.2,157 181.4,157.1 
		181.5,157.5 181.7,157.7 182,158.1 182.3,158.7 182.3,158.9 182.3,159 182.1,159 182,159.2 181.7,159.2 181.4,159.2 181.2,159.5 
		180.8,159.5 180.3,159.5 179.9,159.5 179.4,159.5 178.8,159.5 177.9,159.5 176.9,159.5 175.8,159.5 174.8,159.2 173.7,159.2 
		172.8,159.2 171.7,159 171.1,159 171.4,156.2 171.7,156.4 171.8,156.4 172.2,156.4 172.7,156.4 173,156.2 173.1,156.1 173.6,155.8 
		173.9,155.3 174.5,154.9 174.8,154.4 175.4,154 175.7,153.5 176,153.1 176.3,152.8 176.6,152.2 176.7,151.9 177,151.3 177.3,150.7 
		177.5,150.2 177.8,149.9 178.2,148.7 178.7,147.7 178.5,146.9 178.4,146.5 178.2,145.7 177.9,145 177.6,144.5 177.6,143.8 
		177.5,143.3 177.3,142.6 177,142.9 176.9,143.5 176.6,143.9 176.4,144.4 176.3,144.7 176.3,144.8 176,145 175.8,145.4 175.7,145.6 
		175.5,145.6 175.4,145.7 175.1,145.9 174.9,145.9 174.9,146.2 174.8,146.2 174.6,146.3 174.5,146.5 174.2,146.8 174,146.9 
		174,147.4 173.9,147.7 173.7,147.8 173.7,148.4 173.6,149 173.6,149.3 173.6,149.3 173.9,149.3 174.2,149.3 174.5,149.2 
		174.8,149.2 175.1,149.2 175.5,149.2 175.7,149.3 175.8,149.3 176,149.3 176.3,149.5 176.3,149.5 176.4,149.5 176.4,149.6 
		176.4,149.6 176.4,149.6 176.4,149.6 176.4,149.9 176.4,149.9 176.3,150.1 176,150.2 175.5,150.4 174.9,150.7 174.2,151.3 
		173.4,151.9 172.5,152.5 171.7,153.2 171.2,153.5 170.8,154 170.3,154.4 169.9,154.9 169.7,154.9 169.7,154.9 169.4,154.9 
		169.4,154.7 169.3,154.7 169.3,154.7 169.1,154.4 169.1,154.4 169,154.3 169,154.1 168.8,153.8 168.8,153.5 168.8,153.4 
		168.8,153.2 168.8,152.9 168.8,152.8 168.8,152.5 168.8,152.3 172,149.9 172,149.6 172.1,149.3 172.5,148.7 172.7,148.1 
		172.8,147.7 172.8,147.4 172.8,146.9 172.8,146.8 172.8,146.6 172.8,146.5 172.8,146.5 172.7,146.3 172.7,146.3 172.7,146.3 
		172.5,146.2 172.2,146.2 172.1,146.2 172,146.2 171.8,146.2 171.7,145.9 171.4,145.7 171.2,145.7 171.2,145.6 171.1,145.4 
		171.1,145.3 171.1,145 171.1,144.8 171.1,144.7 171.2,144.5 171.4,144.5 171.4,144.4 171.8,144.1 171.8,144.1 172,143.9 
		172.1,143.8 172.1,143.8 172.2,143.6 172.2,143.3 172.5,143 172.5,142.9 172.7,142.5 172.7,142 172.8,141.6 172.8,141.1 
		171.1,141.6 170.9,141.3 170.8,141.1 170.3,141 170.2,140.7 170,140.5 169.9,140.2 169.9,140.1 169.9,139.9 169.9,139.9 
		169.9,139.8 169.9,139.8 169.9,139.8 169.9,139.6 169.9,139.6 	"/>
	<polygon class="st2" points="172.8,129.9 172.7,129.9 172.5,130.3 172.1,130.5 172,130.6 171.8,130.8 171.7,131.1 171.4,131.2 
		171.2,131.5 171.2,131.5 171.1,131.7 171.1,132 171.1,132 171.1,132.1 171.1,132.1 171.2,132.3 171.2,132.3 171.2,132.4 
		171.4,132.4 171.7,132.6 171.8,132.6 172,132.6 172.1,132.6 172.2,132.6 172.5,132.6 172.7,132.6 172.8,132.6 173.1,132.6 
		173.4,132.4 173.9,132.4 174.5,132.3 174.9,132.1 175.5,132 176.4,131.4 177.5,130.8 178.4,130.5 179.1,130.2 179.3,130.2 
		179.4,129.9 179.6,129.9 179.7,129.9 180.3,129.7 180.8,129.7 181.2,129.7 181.4,129.7 181.7,129.7 182.1,129.7 182.4,129.9 
		182.6,129.9 183,129.9 183.3,130.2 183.6,130.2 183.9,130.3 184.2,130.5 184.5,130.5 184.8,130.6 185.1,130.8 185.3,131.1 
		185.4,131.2 185.9,131.5 186,131.7 186.2,132 186.2,132.3 186.3,132.6 186.4,132.7 186.4,133.2 186.4,133.5 186.4,134.4 
		186.7,135.4 186.7,136.9 186.7,138.3 186.7,139.8 186.9,141.6 186.9,143 186.9,144.8 186.9,146.5 186.9,148.1 186.9,149.5 187,151 
		187,152.2 187,153.1 187,154 187,154.3 187,154.7 186.9,155 186.9,155.3 186.7,155.8 186.7,156.1 186.4,156.4 186.3,156.8 
		186.2,157.1 185.9,157.2 185.6,157.7 185.4,157.7 185.3,157.8 185.1,157.8 185,158 185,158 184.8,158.1 184.5,158.1 184.4,158.1 
		184.2,158.4 184.1,158.4 183.9,158.4 183.6,158.1 183.6,158.4 183.5,158.7 183.6,158.9 183.6,159 183.6,159.2 183.6,159.6 
		183.6,159.8 183.9,160.1 183.9,160.4 184.1,160.7 184.2,161 184.4,161.3 184.5,161.4 184.8,161.6 184.8,161.6 185,161.7 
		185.1,161.9 185.3,161.9 185.4,162 185.6,162 185.9,162 186,162 186.2,162 186.3,162 186.4,162 186.7,162 186.9,161.9 187,161.9 
		187.2,161.7 187.3,161.6 187.6,161.4 187.8,161.3 187.9,161 188.1,160.8 188.2,160.5 188.5,160.1 188.7,159.9 188.8,159.6 
		188.8,159.2 189,158.7 189.1,158.4 189.3,157.8 189.6,157.5 189.6,157 189.7,156.4 189.9,155.9 189.9,155.2 190,154.7 190,154 
		190,153.2 190.2,152.3 190.2,151.6 190.2,149.9 190.5,148.1 190.5,146.2 190.2,143.9 190.2,142 190.2,140.1 190,138.1 190,136.3 
		190,134.5 189.9,133 189.9,131.5 189.9,130.5 189.7,129.6 189.7,128.8 189.7,128.7 189.7,128.6 189.7,128.3 189.6,128 189.3,128 
		189.1,127.8 189,127.7 188.8,127.5 188.7,127.5 188.5,127.4 188.1,127.1 187.9,127.1 187.6,127.1 187.3,126.9 187,126.9 
		186.7,126.9 186,126.8 185.4,126.8 184.8,126.8 184.1,126.8 182.6,126.8 181.4,126.9 181.1,126.9 180.6,126.9 180.3,127.1 
		179.9,127.1 179.4,127.4 178.7,127.5 177.9,127.7 177.3,128 176.6,128.3 175.8,128.6 174.6,129.1 173.7,129.4 173,129.7 	"/>
	<polygon class="st2" points="176.6,140.2 174.5,140.7 174.5,142.8 177,142 176.9,141.6 176.7,141.1 176.6,140.7 	"/>
	<path class="st1" d="M204.1,132L204.1,132h-0.1l0,0l0,0l0,0v0.1l0,0v0.1v0.1v0.1v0.1v0.1l0.1,0.1l0.1,0.1l0.3,0.3l0.3,0.1l0.3,0.1
		l0.3,0.1l0.3,0.1l0.3,0.1l0.3,0.1l0.3,0.1h0.1h0.1h0.1h0.1h0.6h0.7h0.7h0.7h0.7h0.7h0.7h0.7l0.7-0.1l0.7-0.1l0.6-0.1l0.6-0.1h0.1
		h0.1h0.1h0.1h0.1l0.1-0.1l0.1-0.1l0.1-0.1l0.1-0.3l0.1-0.3l0.1-0.3l0.1-0.6l0.1-0.6l0.1-0.6l0.3-0.9l0.3-0.7l0.1-0.6v-0.1h-0.1
		h-0.6l-0.7,0.1l-0.9,0.1l-1,0.1L214,129l-1.5,0.1l-1.5,0.3l-1.5,0.1l-1.5,0.1l-1.2,0.1l-1.2,0.1l-1,0.1l-0.9,0.1l-0.7,0.1
		L204.1,132L204.1,132z M206.8,138.1L206.8,138.1l-0.3,0.6l-0.3,0.6l-0.6,0.7l-0.1,0.3l-0.1,0.3l-0.1,0.3l-0.1,0.6l-0.1,0.6
		l-0.1,0.6l-0.1,0.6l-0.1,0.6v0.3l-0.1,0.3l-0.1,0.6l-0.1,0.7l-0.7,1.8l-0.9,2.1l-1.3,2.2l-1.2,2.7l-0.7,1.5l-0.7,1.5l-0.7,1.5
		l-0.7,1.6l-0.7,1.6l-0.7,1.6l-0.9,1.6l-0.9,1.6l-0.9,1.6l-0.9,1.5l-0.9,1.5l-0.9,1.5L189,175l-0.9,1.5l-0.9,1.2l-0.9,1.2l-0.9,1
		l-0.9,1l-0.9,0.9l-0.7,0.9l0,0v0.1v0.1v0.1v0.1v0.1v0.1v0.1l0.1,0.1l0.1,0.1h0.1h0.1h0.1h0.1h0.1h0.1l0.1-0.1l0.1-0.1l0.3-0.1
		l0.3-0.3l0.3-0.3l0.3-0.3l0.3-0.3l0.3-0.6l0.3-0.6l0.6-0.7l0.6-0.7l0.6-0.7l0.6-0.9l0.6-0.9l0.6-0.9l0.6-0.9l1-1.9l1-1.9l1-1.9
		l0.9-1.9l0.9-1.8l0.9-1.8l0.9-1.6l0.7-1.6l0.7-1.5l0.6-1.2l0.3-0.9l0.3-0.7l0.1-0.6v-0.1l0.9,3.9l0.1,0.1l0.6,0.1l0.3,0.1l0.3,0.1
		l0.3,0.1l0.3,0.1l0.3,0.1h0.3h0.1h0.1h0.1h0.1h0.1h0.1h0.1l0.1-0.1l0.1-0.1l0.1-0.1l0.1-0.1v-0.1l0.1-0.3l0.1-0.6v-0.6v-0.6v-0.6
		v-1.5v-0.6v-0.6v-1v-0.9V152l0,0h0.3l0.7-0.1l1-0.1l1.2-0.1h0.7h0.7h0.7h0.7h0.7h0.6h0.1h0.1h0.1h0.1v0.1v0.3v0.6l-0.1,0.6
		l-0.1,0.3l-0.1,0.3l-0.1,0.3l-0.1,0.1v0.1l-0.1,0.1v0.1h-0.1h-0.1h-0.1h-0.1h0.6h-0.1h-0.1l-0.1,0.1l-0.1,0.1l-0.1,0.1l0.3,0.3
		l-0.1,0.1l-0.1,0.1l-0.1,0.1l-0.1,0.1l-0.1,0.1v0.1v0.1v0.1v0.1v0.1v0.1v0.1v0.1v0.1l0,0v0.1l0,0h0.1l0.1,0.1l0.1,0.1l0.1,0.1h0.3
		h0.3h0.3h0.3h0.3h0.3h0.3h0.3l0.3-0.1l0.7-0.1l0.9-0.1l0.9-0.1l0.9-0.1l0.9-0.1l0.7-0.1l0.6-0.1h0.1v-0.1v-0.3v-0.1v-0.1v-0.1v-0.3
		v-0.3v-0.1l-0.1-0.1l-0.1-0.1v0l-0.1-0.1h0h-0.1h-0.1h-0.1h-0.1h-0.1h-0.3h-0.4h-0.1h-0.1h-0.1h-0.1l-0.1-0.1l-0.1-0.1l-0.1-0.1
		l-0.1-0.1v-0.1V154v-0.4v-0.1l0,0l0,0l0,0l0,0l0,0l0,0h0.1h0.1h0.1h0.1l0.1-0.1l0.1-0.1l0.1-0.3l0.1-0.3l0.1-0.6l0.1-0.6l0.1-0.6
		l0.1-0.6l0.1-0.6l0.1-0.6l0.1-0.6l0.1-0.6l0.1-0.6v-0.6v-0.1v-0.1V146v-0.1v-0.1v-0.1v-0.1l0,0h-0.1h-0.1h-0.1h-0.1h-0.1h-0.1h-0.1
		H219h-0.3l-0.3,0.1l-0.3,0.1l-0.3,0.1l-0.3,0.1l-0.3,0.1l-0.3,0.3l-0.1,0.3l-0.1,0.3l-0.1,0.3l-0.1,0.3l-0.1,0.3l-0.1,0.1l-0.1,0.1
		l-0.1,0.1l-0.3,0.1l-0.1,0.1l-0.3,0.1l-0.1,0.1h-0.1h-0.1h-0.1h-0.3h-1.2h1.2h-0.7h-1h-1.2h-1.5h-1.5h-1.2H206h-0.1h-0.1h-0.1
		l-0.1-0.1l-0.1-0.1v-0.1v-0.1v-0.1v0.7v-0.1v-0.1v-0.1l0.1-0.6l0.1-0.6l0.1-0.6l0.1-0.6l0.1-0.3l0.1-0.3l0.1-0.6l0.1-0.1v-0.1
		l0.1-0.3l0.1-0.7l0.3-0.7l0.3-0.9l0.1-0.9l0.1-0.3v-0.3v-0.4v-0.3V138v-0.1v-0.1l0,0l0,0l0,0l0,0l0,0h-0.1h-0.1h-0.1h-0.1l-0.3,0.1
		l-0.1,0.1L206.8,138.1L206.8,138.1L206.8,138.1z"/>
	<polygon class="st2" points="204.1,132 204.1,132 203.9,132 203.9,132 203.9,132.1 203.8,132.1 203.8,132.3 203.8,132.3 
		203.9,132.4 203.9,132.4 203.9,132.6 204.1,132.7 204.1,132.7 204.4,133.2 204.7,133.3 205,133.6 205.1,133.9 205.6,134.2 
		205.9,134.4 206.2,134.5 206.6,134.8 206.9,135 207.1,135.1 207.2,135.1 207.5,135.1 207.7,135.1 207.8,135.3 208.6,135.3 
		209,135.3 209.8,135.3 210.5,135.3 211.4,135.3 212.2,135.1 212.9,135.1 213.7,135.1 214.4,135 215.1,134.8 215.7,134.8 
		216.3,134.5 216.5,134.5 216.6,134.4 216.9,134.4 217.1,134.4 217.1,134.2 217.2,134.2 217.2,134.1 217.4,133.9 217.5,133.5 
		218,133.2 218.1,132.7 218.4,132.3 218.6,131.7 218.9,131.4 219.3,130.5 219.8,129.6 219.9,129.1 219.9,128.8 219.8,128.8 
		219.3,129.1 218.6,129.1 217.5,129.3 216.5,129.6 215.3,129.7 214.1,129.9 212.6,130.3 211.3,130.5 209.8,130.8 208.4,131.1 
		207.2,131.2 206.2,131.5 205.1,131.7 204.7,131.7 	"/>
	<polygon class="st2" points="206.8,138.1 206.6,138.1 206.3,138.4 205.9,139 205.6,139.8 205.1,140.1 205,140.5 204.8,141 
		204.7,141.3 204.2,141.9 204.2,142.2 204.1,142.8 203.9,143.3 203.9,143.5 203.8,143.9 203.5,144.5 203.2,145.3 202.7,146.9 
		201.8,149.2 200.6,151.6 199.5,154.3 199,155.8 198.3,157.1 197.5,158.7 196.8,160.4 195.9,161.7 195.3,163.4 194.5,164.9 
		193.6,166.5 192.7,168 192,169.5 191.1,171 190.2,172.3 189.3,173.8 188.7,175.2 187.8,176.5 186.9,177.6 186,178.8 185.3,179.7 
		184.4,180.7 183.6,181.5 183.6,181.6 183.6,181.6 183.6,182.1 183.6,182.2 183.9,182.4 183.9,182.5 183.9,182.5 184.1,182.7 
		184.2,182.7 184.2,182.8 184.4,182.8 184.5,183.1 184.8,183.1 185,183.1 185.1,182.8 185.3,182.8 185.4,182.7 185.9,182.5 
		186.2,182.4 186.3,182.2 186.7,181.8 187,181.5 187.3,180.9 187.8,180.6 188.2,179.8 188.8,179.4 189.1,178.6 189.7,177.7 
		190.2,177 190.8,176.1 191.4,175.2 191.8,174.1 192.9,172.3 193.9,170.4 195,168.5 196.2,166.5 197.1,164.7 197.8,162.9 
		198.6,161.4 199.5,159.8 200.1,158.4 200.5,157.1 201.1,156.2 201.4,155.3 201.5,155 201.5,154.9 202.4,158.7 202.7,158.9 
		203.2,159 203.5,159.2 203.9,159.5 204.2,159.5 204.7,159.6 205,159.8 205.3,159.8 205.6,159.8 205.7,159.8 206,159.8 206.2,159.8 
		206.2,159.6 206.3,159.6 206.6,159.5 206.8,159.5 206.9,159.2 206.9,159 207.1,158.9 207.1,158.7 207.2,158.4 207.2,157.8 
		207.5,157.2 207.5,156.8 207.5,156.2 207.5,155.8 207.5,155 207.5,154.4 207.2,153.4 207.2,152.8 207.1,152.2 207.1,151.9 
		207.5,151.9 208.1,151.9 209.2,151.6 210.7,151.4 211.3,151.4 211.9,151.4 212.6,151.3 213.4,151.3 214.1,151.4 214.6,151.4 
		214.7,151.4 215,151.4 215.3,151.6 215.4,151.6 215.4,151.9 215.3,152.2 215.3,152.8 215.1,153.2 215,153.5 215,154 214.7,154.1 
		214.6,154.4 214.6,154.4 214.4,154.7 214.4,154.9 214.3,154.9 214.1,155 214.1,155 213.8,155 213.7,155 213.5,155.2 213.4,155.2 
		212.9,155.3 212.8,155.3 212.6,155.6 212.5,155.8 212.3,155.9 212.2,156.1 212.2,156.2 211.9,156.4 211.7,156.7 211.7,157 
		211.7,157.1 211.7,157.2 211.7,157.5 211.7,157.8 211.7,157.8 211.7,158 211.9,158.1 211.9,158.1 211.9,158.4 212.2,158.4 
		212.2,158.6 212.3,158.6 212.5,158.7 212.6,158.7 212.9,158.9 213.2,158.9 213.5,158.9 213.8,159 214.1,159 214.4,159 214.7,158.9 
		215.1,158.9 215.4,158.9 215.7,158.7 216.5,158.6 217.4,158.4 218.4,158 219.3,157.8 220.2,157.7 221,157.5 221.3,157.2 
		221.4,157.2 221.4,157.1 221.7,156.8 221.7,156.7 221.7,156.4 221.4,156.1 221.4,155.9 221.4,155.6 221.4,155.3 221.3,155 
		221.1,154.9 221.1,154.7 221,154.7 221,154.4 220.8,154.4 220.7,154.4 220.4,154.3 220.4,154.3 220.2,154.3 219.9,154.3 
		219.5,154.3 219.3,154.3 219.3,154.1 219.2,154.1 219,154.1 218.9,154 218.6,153.8 218.6,153.5 218.4,153.4 218.4,153.2 
		218.4,153.1 218.4,152.9 218.4,152.8 218.4,152.5 218.4,152.5 218.6,152.5 218.6,152.3 218.9,152.3 218.9,152.2 219,152.2 
		219,152.2 219.2,152 219.2,152 219.3,151.9 219.5,151.9 219.8,151.4 220.1,151 220.2,150.5 220.7,150.1 220.8,149.5 221,149 
		221.1,148.3 221.4,147.7 221.4,147.2 221.7,146.6 221.9,146.2 221.9,145.6 221.9,145.4 221.9,145.3 221.9,145 221.9,144.8 
		221.7,144.8 221.7,144.7 221.7,144.5 221.4,144.5 221.4,144.5 221.3,144.4 221.1,144.4 221.1,144.4 221,144.4 220.8,144.4 
		220.7,144.4 220.7,144.4 220.2,144.4 219.9,144.5 219.5,144.7 219.2,144.8 219,145 218.6,145.3 218.3,145.6 218.1,145.7 
		217.8,146.2 217.5,146.5 217.4,146.6 217.2,146.9 217.1,147.2 216.6,147.5 216.5,147.7 216.2,147.8 216,147.8 215.6,148.1 
		215.4,148.3 215.3,148.3 215.1,148.3 214.7,148.4 214.6,148.4 214.4,148.4 214.3,148.4 213.5,148.4 212.5,148.4 211.3,148.4 
		209.8,148.4 208.4,148.4 207.1,148.4 206.2,148.4 206,148.4 205.9,148.4 205.7,148.3 205.7,148.3 205.6,148.1 205.6,147.8 
		205.6,147.7 205.6,147.5 205.6,147.4 205.6,147.2 205.6,146.9 205.6,146.8 205.6,146.3 205.7,145.7 205.9,145.4 206,144.8 
		206.2,144.4 206.3,143.9 206.6,143.5 206.8,143.3 206.8,143 206.9,142.6 207.1,142 207.5,141.1 207.8,140.2 208,139.6 208.1,139 
		208.1,138.7 208.4,138.3 208.4,138.1 208.4,138 208.4,137.8 208.1,137.7 208.1,137.7 208.1,137.7 208.1,137.4 208,137.4 208,137.4 
		208,137.4 207.8,137.4 207.7,137.4 207.5,137.4 207.1,137.7 206.9,137.8 206.8,138 	"/>
	<path class="st1" d="M241.8,132L241.8,132L241.8,132h0.1l0,0l0,0H241.8L241.8,132v-0.1l-0.1-0.1l-0.1-0.1l-0.1-0.1l-0.3-0.3
		l-0.3-0.1l-0.3-0.1h-0.1h-0.4h-0.1h-0.1h-0.1h-0.1h-0.1h-0.1h-0.1l-0.1,0.1l-0.1,0.1l-0.1,0.1l-0.1,0.1l-0.1,0.1l-0.1,0.3l-0.1,0.3
		l-0.6,0.7l-0.6,0.9l-0.7,1l-0.7,1l-0.7,1.2l-0.9,1.2l-0.3,0.6l-0.3,0.6l-0.3,0.6l-0.3,0.6l-0.6,0.6l-0.7,0.3l-0.6,0.6l-0.6,0.6
		l-0.6,0.3l-0.6,0.3l-0.6,0.3l-0.6,0.3l-0.6,0.3l-0.6,0.1l-0.6,0.1l-0.6,0.1v0.1v0.3v0.1l0.1,0.3v0.1v0.1v0.1l0.1,0.1l0.1,0.1h0.6
		l0.1,0.1h0.1h0.1h0.1h0.1h0.1h0.1h0.1h0.1h0.1l0.3-0.1l0.3-0.1l0.3-0.1l0.3-0.1l1.2-0.9l0.9-0.7l0.7-0.6l0.6-0.3l0.3-0.3l0.1-0.1
		l0.1-0.1l0,0v0.3v0.7v1v1.5v0.7v0.7v0.7v0.7v0.6l-0.1,0.6v0.1v0.1v0.1v0.1l-0.1,0.3l-0.1,0.3L232,152l-0.1,0.3l-0.6,0.6l-0.6,0.6
		l-0.3,0.1l-0.1,0.1l-0.1,0.1l-0.1,0.1l-0.1,0.1l-0.1,0.1v0.1v0.1v0.1v0.1v0.1v0.1v0.1v0.1v0.1h0.1h0.1h0.1h0.1h0.1h0.1h0.1h0.3h0.3
		h0.3h0.3h0.1h0.1h0.1h0.1h0.1h0.1l0.1-0.1l0.1-0.1l0.1-0.1l0.1-0.1l0.1-0.1l0.1-0.1l0.1-0.1l0.1-0.1l0.1-0.1l0.1-0.1l0.1-0.3
		l0.1-0.3l0.1-0.3l0.1-0.3l0.1-0.7l0.1-0.9l0.1-0.9l0.1-0.9V149v-0.9v-0.9v-0.7v-0.7v-0.6v-0.6v-0.3v-0.3l-0.1-0.3l-0.1-0.3L235,143
		l-0.1-0.3l-0.1-0.3l-0.1-0.3l-0.1-0.3l-0.3-0.6l-0.3-0.6l-0.1-0.3l-0.1-0.1l0.1-0.3l0.7-1l0.9-1.5l1.2-1.6l0.6-0.9l0.6-0.7l0.6-0.7
		l0.6-0.7l0.1-0.3l0.1-0.1l0.1-0.1l0.1-0.1l0.1-0.1l0.1-0.1L241.8,132L241.8,132L241.8,132z M256.4,132L256.4,132l-0.6,0.6l-0.7,0.6
		l-0.9,0.7l-1,0.9l-1.2,0.9l-1.5,1l-1.5,1l0.3-2.5v-0.1l-0.1-0.3l-0.1-0.1l-0.1-0.1l0-0.4l-0.1-0.1h-0.1h-0.1h-0.1H248h-0.1h-0.1
		h-0.1h-0.3h-0.1l-0.1,0.1l-0.1,0.1l-0.1,0.1l-0.1,0.1l-0.1,0.1l-0.1,0.1l-0.1,0.3l-0.1,0.6l-0.1,0.6l-0.1,0.6l-0.1,0.7l-0.1,0.7
		l-0.1,0.7l-0.1,0.7l-0.1,0.7l-0.7,0.3l-0.7,0.3l-0.7,0.3l-0.6,0.3l-0.6,0.3l-0.6,0.1l-0.6,0.1l-0.3,0.1h-0.1l-0.1,0.1h-0.1h-0.1
		h-0.1l0,0l0,0l0,0l0,0l0,0l0,0l0,0h0.1h0.1h0.1h0.1h0.3h0.3h0.6h0.6h0.6h0.7l0.7-0.1l0.7-0.1l-0.1,1.5l-0.1,1.5l-0.1,1.2v1.2v1v1
		v0.9v0.7v0.3v0.3v0.1v0.1v0.1v0.1v0.1l0.1,0.1v0.1l0.1,0.1l0.1,0.1l0.1,0.1l0.1,0.1l0.1,0.1l0.1,0.1l0.1,0.1l0.1,0.1l0.1,0.1
		l0.1,0.1l0.1,0.1l0.1,0.1l0.3,0.1l0.3,0.1l0.3,0.1l0.7,0.1l0.7,0.1l0.7,0.1l0.9,0.1h0.6h0.6h0.6h0.6h0.6h0.6h0.6h0.6h0.6h0.6h0.6
		h0.6h0.6h0.6l0.6-0.1l0.6-0.1l0.6-0.1l0.6-0.1l0.6-0.1l0.6-0.1l0.6-0.1l0.6-0.1l0.6-0.1l0.6-0.1l0.6-0.3l0.6-0.3l0.6-0.3l0.6-0.3
		l0.6-0.3l0.6-0.3l0.6-0.3l0.6-0.3l0.9-0.9l0.9-0.7l0.7-0.7l0.7-0.7l0.3-0.3l0.1-0.3l0.1-0.3l0.1-0.3l0.1-0.3l0.1-0.3l0.1-0.3
		l0.1-0.3l0.1-0.3l0.1-0.1l0.1-0.3v-0.1v-0.1v-0.1v-0.1v-0.1v-0.6v-0.1v0.7V145v-0.6v-0.6l-0.1-1l0.7-1.2l-0.1-1.6l-0.1-1.8
		l-0.1-1.8l-0.1-1.6L274,133l-0.1-1.2v-0.1v-0.1v-0.1v-0.1l0,0l0,0l0,0l0,0h-0.1v0.1l-0.1,0.1v0.1l-0.1,0.6l-0.1,0.6l-0.1,0.7
		l-0.1,0.7l-0.1,0.7l-0.1,0.9v0.3v0.3v0.3v0.3v0.3v0.6v0.3v0.3v0.9v0.9v1v0.9v0.9l-0.1,0.7l-0.1,0.7l-0.1,0.7l-0.3,1.2l-0.1,0.9
		l-0.1,0.6v0.1l-0.1,0.3l-0.6,0.7l-0.6,0.6l-0.6,0.6l-0.3,0.3l-0.3,0.3l-0.3,0.3l-0.3,0.3l-0.3,0.3l-0.3,0.3l-0.6,0.3l-0.6,0.1
		l-0.6,0.3l-0.6,0.1l-0.6,0.1l-0.6,0.1l-0.6,0.1L263,154l-0.7,0.1l-0.7,0.1l-0.7,0.1l-0.7,0.1h-0.7h-0.7h-0.7l-0.7-0.1l-0.7-0.1
		l-0.6-0.1l-0.6-0.1l-0.6-0.3l-0.6-0.3l-0.6-0.3l-0.3-0.3l-0.3-0.3l-0.3-0.3l-0.3-0.6l-0.1-0.6l-0.1-0.6l-0.1-0.6l-0.1-0.6l-0.1-0.6
		l-0.1-0.6l-0.1-0.6v-0.6v-0.3v-0.3v-0.3v-0.3v-0.7v-0.6v-0.3v-0.1l0.3-1.9l0.6-0.1l0.6-0.3l0.6-0.3l0.6-0.3l0.6-0.3l0.6-0.3
		l0.6-0.3l0.6-0.3l2.1-1.9l1.6-1.5l0.7-0.6l0.6-0.6l0.3-0.3l0.3-0.3l0.3-0.3l0.1-0.3l0.1-0.1v-0.1v-0.1v-0.1V133v-0.4v-0.1v-0.1
		v-0.1V132l0,0l0,0l0,0l0,0h-0.1h-0.1h-0.1h-2.7h-0.3l-0.3,0.1L256.4,132L256.4,132L256.4,132z"/>
	<polygon class="st2" points="241.8,132 241.8,132 241.8,132 241.9,132 241.9,132 241.9,131.7 241.9,131.7 241.8,131.7 241.8,131.5 
		241.6,131.4 241.5,131.2 241.2,131.1 240.9,130.8 240.6,130.8 240.1,130.6 240,130.6 239.8,130.5 239.7,130.5 239.4,130.5 
		239.2,130.5 239.1,130.5 238.9,130.6 238.8,130.6 238.6,130.6 238.3,130.8 238.2,131.1 238,131.2 237.9,131.4 237.7,131.5 
		237.4,132 237.1,132.1 236.5,133 236.1,133.9 235.3,135 234.6,136 234,137.2 233.1,138.4 232.6,139 232.3,139.6 231.7,140.1 
		231.4,140.7 230.8,141.3 230.5,141.7 229.9,142.2 229.5,142.8 229.2,143 228.6,143.6 228.3,143.9 227.7,144.1 227.1,144.5 
		226.8,144.7 226.4,144.8 225.9,144.8 225.9,145 225.9,145.6 226.1,145.7 226.1,146.2 226.4,146.3 226.4,146.3 226.4,146.5 
		226.5,146.6 226.7,146.6 226.7,146.8 226.8,146.9 227,146.9 227,147.2 227.1,147.2 227.6,147.2 227.7,147.2 227.9,147.2 228,147.2 
		228.3,147.2 228.6,146.9 228.8,146.9 229.2,146.8 229.5,146.6 229.8,146.5 231.1,145.6 232,144.8 232.8,144.4 233.4,143.9 
		233.7,143.8 234,143.6 234.1,143.5 234.1,143.5 234.1,143.8 234.1,144.5 234.3,145.6 234.3,146.9 234.3,147.7 234.3,148.4 
		234.1,149.2 234.1,149.9 234.1,150.4 234,151 234,151.3 233.7,151.4 233.7,151.6 233.7,151.9 233.5,152.2 233.2,152.5 233.1,152.9 
		232.6,153.1 232.2,153.5 231.6,154.1 231.3,154.4 231.1,154.7 230.8,154.9 230.7,155.2 230.5,155.3 230.4,155.6 230.4,155.8 
		230.2,155.9 230.2,155.9 230.2,156.1 230.2,156.2 230.2,156.2 230.4,156.4 230.4,156.4 230.4,156.7 230.5,156.7 230.7,156.8 
		230.7,156.8 230.8,157 231.1,157 231.3,157 231.3,157.1 231.7,157.1 232.2,157.1 232.5,157.1 232.8,157.1 233.1,157.1 233.2,157.1 
		233.5,157 233.7,157 234,157 234.1,156.8 234.3,156.8 234.4,156.7 234.9,156.4 235,156.4 235.2,156.2 235.3,156.1 235.5,155.9 
		235.5,155.8 235.8,155.3 235.9,155.2 236.1,154.9 236.1,154.4 236.2,154.1 236.4,153.8 236.5,153.1 236.8,152.3 237,151.4 
		237,150.5 237.1,149.6 237.1,148.7 237.1,147.8 237.1,147.2 237.1,146.5 237.1,145.7 237.1,145.4 237.1,144.8 237.1,144.7 
		237,144.4 236.8,143.9 236.5,143.6 236.4,143.3 236.2,142.9 236.1,142.6 235.9,142.2 235.5,141.7 235.2,141.1 235,140.8 
		234.9,140.8 235,140.5 235.8,139.3 236.8,138 237.9,136.2 238.6,135.3 239.1,134.5 239.7,133.9 240.1,133.2 240.6,132.7 
		240.7,132.6 240.9,132.3 241.2,132.1 241.5,132.1 241.5,132 241.6,132 	"/>
	<polygon class="st2" points="256.4,132 256.4,132 256,132.3 255.2,133 254.3,133.6 253.3,134.5 252.1,135.4 250.6,136.5 
		249.2,137.7 249.7,135.1 249.5,135 249.4,134.5 249.2,134.4 249.1,134.2 248.6,134.1 248.5,133.9 248.3,133.9 248.2,133.9 
		248.2,133.6 247.9,133.6 247.7,133.6 247.6,133.6 247.6,133.6 247.4,133.9 247.3,133.9 247.1,134.1 246.8,134.2 246.7,134.4 
		246.7,134.5 246.5,134.8 246.4,135 246.2,135.3 246.2,135.9 245.9,136.3 245.8,136.9 245.6,137.4 245.5,138.1 245.5,138.9 
		245.3,139.6 245,140.5 244.4,140.8 243.8,141.3 243.1,141.7 242.7,142 242.1,142.5 241.6,142.6 241,142.8 240.6,142.9 240.3,143 
		240.1,143 240,143.3 239.8,143.3 239.7,143.5 239.7,143.5 239.4,143.6 239.4,143.6 239.4,143.6 239.4,143.8 239.7,143.8 
		239.7,143.8 239.8,143.9 239.8,143.9 240,143.9 240.1,143.9 240.6,144.1 240.9,144.1 241.5,144.1 242.1,144.1 242.7,144.1 
		243.4,143.9 244,143.9 244.7,143.8 244.6,145.3 244.6,146.5 244.4,147.8 244.4,149.2 244.3,150.2 244.3,151.3 244.3,152.2 
		244.3,152.9 244.3,153.1 244.3,153.4 244.3,153.5 244.3,154 244.4,154.1 244.4,154.3 244.4,154.7 244.6,154.9 244.6,155 
		244.7,155.2 244.9,155.3 244.9,155.6 245,155.8 245.3,155.9 245.5,156.1 245.6,156.2 245.9,156.4 246.2,156.7 246.4,156.8 
		246.7,156.8 246.8,157 247.3,157.1 247.4,157.1 247.7,157.2 248.5,157.5 249.2,157.7 250,157.8 250.7,158 251.3,158.1 251.6,158.1 
		252.2,158.1 252.8,158.1 253.3,158.1 253.9,158.4 254.2,158.4 254.8,158.1 255.2,158.1 255.8,158.1 256.3,158.1 256.9,158 
		257.3,158 258,158 258.6,157.8 259.1,157.7 259.7,157.5 260.1,157.5 260.7,157.2 261.3,157.1 261.9,156.8 262.5,156.7 263,156.4 
		263.6,156.1 264.2,155.9 264.6,155.6 265.2,155.2 265.7,154.9 266.3,154.4 266.7,154.1 267.3,153.8 267.9,153.4 268.7,152.5 
		269.4,151.9 270.3,151 270.9,150.4 271.2,150.1 271.4,149.6 271.8,149.3 272,149 272.1,148.7 272.2,148.4 272.4,148.1 272.7,147.8 
		272.8,147.5 273,147.4 273,146.9 273.1,146.8 273.1,146.5 273.1,146.3 273.3,146.2 273.3,145.7 273.3,145.6 273.3,145.4 273.3,145 
		273.3,144.8 273.3,144.4 273.1,143.9 273,142.9 272.8,141.6 272.7,139.9 272.2,138.1 272.1,136.3 272,134.5 271.8,133.2 271.5,132 
		271.5,131.5 271.5,131.4 271.5,131.2 271.5,131.2 271.4,131.1 271.4,131.1 271.2,131.1 271.2,131.1 271.1,131.2 271.1,131.2 
		270.9,131.4 270.9,131.5 270.8,132.1 270.5,132.6 270.3,133.2 270.2,133.9 270,134.8 269.9,135.4 269.9,136 269.9,136.3 
		269.9,136.9 269.9,137.2 269.9,137.7 269.9,138.1 269.9,138.7 269.9,139 269.9,139.9 270,140.8 269.9,141.7 269.9,142.6 
		269.9,143.3 269.6,144.1 269.6,144.8 269.4,145.6 269.1,146.8 269,147.8 268.7,148.4 268.7,148.6 268.5,149 267.9,149.6 
		267.5,150.1 266.7,150.5 266.6,151 266.3,151.1 265.8,151.4 265.4,151.9 265.1,152 264.6,152.3 264.2,152.8 263.6,152.9 263,153.2 
		262.5,153.4 261.9,153.5 261.5,154 260.7,154.1 260.1,154.3 259.5,154.4 258.8,154.7 258,154.7 257.3,154.9 256.7,154.9 256,154.9 
		255.1,154.9 254.3,154.7 253.6,154.7 253.1,154.4 252.5,154.1 252.1,154 251.5,153.5 251.2,153.2 250.6,152.9 250.3,152.5 250,152 
		249.7,151.6 249.4,151.1 249.2,150.5 249.1,150.2 248.8,149.6 248.6,149.2 248.5,148.6 248.3,148.3 248.3,147.7 248.3,147.4 
		248.2,146.8 248.2,146.5 248.2,146.2 248.2,145.4 248.2,144.8 248.2,144.5 248.2,144.5 248.5,142.6 249.1,142.5 249.5,142 
		250.1,141.7 250.6,141.3 251.2,141 251.6,140.7 252.2,140.2 252.5,139.8 254.8,137.8 256.4,136.3 257,135.6 257.6,135.3 258,134.8 
		258.5,134.4 258.6,134.1 258.8,133.9 258.9,133.5 259.1,133.3 259.1,133.2 259.1,132.7 259.1,132.6 259.1,132.3 258.9,132.3 
		258.9,132.1 258.9,132 258.9,132 258.8,132 258.8,131.7 258.6,131.7 258.6,131.7 258.5,131.5 258.2,131.5 257.9,131.5 257.7,131.5 
		257.3,131.5 256.9,131.7 256.7,131.7 	"/>
	<path class="st1" d="M87.2,33.8v282.7h-12v-275l3.4-2.2l5.5-3.6L87.2,33.8L87.2,33.8z M106.6,24.5l12.1,110.2V20.8l1.5-0.3l6.4-1.5
		l3.9-0.7v298.2h-12l-12.9-112.7v112.7h-12V30.2l1.8-0.9l5.8-2.7L106.6,24.5L106.6,24.5z"/>
</g>
</svg>
