<?xml version="1.0" encoding="utf-8"?>
<!-- Generator: Adobe Illustrator 20.0.0, SVG Export Plug-In . SVG Version: 6.00 Build 0)  -->
<svg version="1.1" id="Layer_1" xmlns="http://www.w3.org/2000/svg" xmlns:xlink="http://www.w3.org/1999/xlink" x="0px" y="0px"
	 viewBox="0 0 300 52.5" style="enable-background:new 0 0 300 52.5;" xml:space="preserve">
<style type="text/css">
	.st0{clip-path:url(#SVGID_2_);}
	.st1{clip-path:url(#SVGID_4_);}
	.st2{clip-path:url(#SVGID_6_);fill:#FF8300;}
	.st3{clip-path:url(#SVGID_6_);fill:#F99C1C;}
</style>
<g>
	<defs>
		<rect id="SVGID_1_" width="300" height="52.5"/>
	</defs>
	<clipPath id="SVGID_2_">
		<use xlink:href="#SVGID_1_"  style="overflow:visible;"/>
	</clipPath>
	<g class="st0">
		<g>
			<defs>
				<rect id="SVGID_3_" x="-6.8" y="-161.5" width="306.8" height="306.8"/>
			</defs>
			<clipPath id="SVGID_4_">
				<use xlink:href="#SVGID_3_"  style="overflow:visible;"/>
			</clipPath>
			<g class="st1">
				<defs>
					<rect id="SVGID_5_" x="-6.8" y="-161.5" width="306.8" height="306.8"/>
				</defs>
				<clipPath id="SVGID_6_">
					<use xlink:href="#SVGID_5_"  style="overflow:visible;"/>
				</clipPath>
				<path class="st2" d="M27.1,1.3L27.1,1.3c1.9,0,3.7,0.2,5.4,0.5c1.7,0.4,3.3,0.8,4.9,1.4V1.2l10.9,8.9v2.8
					c-2.4-2.8-5.5-4.6-9.4-5.5C35,6.4,31.2,6.5,27.4,7.6c-3.8,1.1-7,3.2-9.7,6.3c-2.7,3.2-4.1,7.4-4.1,12.6c0,4.9,1.2,9.1,3.6,12.4
					s5.4,5.7,9,7.1c3.6,1.4,7.4,1.8,11.4,1.1s7.6-2.6,10.7-5.8c-0.1,1.9-0.1,3.1,0,3.7c-2.7,2.1-6,3.8-9.7,5
					C34.8,51.4,31,52,27.1,52c-7.5,0-13.7-2.4-18.8-7.3c-5.1-4.9-7.6-10.8-7.6-17.8c0-3.5,0.7-6.7,2.2-9.8s3.4-5.7,5.8-8
					c2.4-2.3,5.2-4.1,8.4-5.5C20.3,2.2,23.6,1.4,27.1,1.3 M35.4,12.3c3.7,0,6.8,1.5,9.5,4.6c2.7,3.1,4,6.7,4,10.9
					c0,4.3-1.3,7.9-4,10.9c-2.7,3-5.9,4.5-9.5,4.5c-3.8,0-7-1.5-9.7-4.5c-2.7-3-4-6.6-4-10.9c0-4.2,1.3-7.8,4-10.9
					S31.6,12.3,35.4,12.3 M35.8,15.2c-1.9,0-2.9,1-2.9,2.9v19.8c0,1.9,1,2.9,2.9,2.9c1.9,0,2.9-1,2.9-2.9V18.1
					C38.7,16.1,37.8,15.2,35.8,15.2 M50.6,13.4H63v1.8c4.9-2.4,8.7-3.2,11.3-2.4c2.6,0.8,4.5,2.5,5.5,5.3v21.7h2.9v2.5H69.6V18.5
					c-0.3-1.1-1.4-1.8-3.3-2.1c-1.9,0-2.9,0.8-2.9,2.5v20.9h2.5v2.5H50.6v-2.5h2.5V16h-2.5V13.4z M84.6,13.8l12.8-12v12h3v2.5h-3
					v23.5h2.8v2.5H84.6v-2.5h2.5V16.3h-2.5V13.8z M101.8,13.8h12.4v26h2.9v2.5h-15.3v-2.5h2.9V16.1h-2.9V13.8z M108.9,2
					c1.6,0,3,0.5,4.2,1.4c1.2,1,1.8,2.1,1.8,3.4c0,1.4-0.6,2.6-1.8,3.5c-1.2,1-2.6,1.4-4.2,1.4c-1.7,0-3.1-0.5-4.2-1.4
					c-1.2-1-1.7-2.1-1.7-3.5c0-1.3,0.6-2.5,1.7-3.4C105.9,2.5,107.3,2,108.9,2 M119.2,13.8h12.4V15c4.9-2.4,8.7-3.2,11.3-2.4
					c2.6,0.8,4.5,2.6,5.5,5.3v21.9h2.9v2.5h-13.2v-24c-0.3-1.1-1.4-1.8-3.3-2c-1.9,0-2.9,0.8-2.9,2.4v21.1h2.5v2.5h-15.3v-2.5h2.5
					V16.3h-2.5V13.8z M165.3,13c3.9,0,7.5,1.5,10.6,4.6c3.1,3.1,4.4,6.7,3.8,10.9h-17.4v7.2c1.1,4,3.4,5.7,6.7,5
					c3.4-0.6,5.8-3.2,7.2-7.8h2.8c-1,3.2-2.7,5.8-5.2,7.8c-2.5,2-5.3,3-8.5,3c-4,0-7.4-1.5-10.2-4.5c-2.8-3-4.2-6.7-4.2-10.9
					c0-4.2,1.4-7.8,4.2-10.8C157.9,14.5,161.3,13,165.3,13 M165.2,15c-1.9,0-2.9,1-2.9,2.9v8.3h5.8v-8.3
					C168.1,15.9,167.1,15,165.2,15 M180.2,14h12.4v1.9c4.9-2.5,8.7-3.3,11.3-2.5c2.6,0.8,4.5,2.6,5.5,5.3v21.1h2.9v2.5h-13.2V19.1
					c-0.3-1-1.4-1.7-3.3-2c-1.9,0-2.9,0.8-2.9,2.5v20.2h2.5v2.5h-15.3v-2.5h2.5V17.1h-2.5V14z M213.5,14.8l12.8-12v12h3v2.4h-3v22.6
					h2.7v2.5h-15.5v-2.5h2.4V17.2h-2.4V14.8z M231.3,15.7c0.9-1.5,2.7-2.5,5.3-3.1c2.6-0.6,5.3-0.8,8-0.5c2.7,0.2,5.2,0.9,7.3,2.1
					c2.2,1.2,3.3,2.8,3.3,4.8v20.7h2.4l0.1,2.4l-12,0.1v-1.7c-0.8,0.9-1.6,1.6-2.5,2.1c-0.9,0.5-2.2,0.8-4,0.8
					c-2.2,0-3.9-0.5-5.1-1.6c-1.2-1.1-2.1-2.3-2.7-3.7c-0.6-1.4-1-2.7-1.1-4c-0.1-1.3-0.2-2.1-0.2-2.4c-0.1-0.3,0-1,0.2-2.3
					c0.2-1.3,0.5-2.6,1.1-3.9c0.6-1.4,1.5-2.6,2.7-3.7c1.2-1.1,2.9-1.6,5.1-1.6c0.8,0,1.7,0.1,2.8,0.4s2.3,0.9,3.6,1.9v-4.8
					c-1.6-1.9-3.7-2.6-6.2-2.3c-2.5,0.3-5.3,1.7-8.3,4.3V15.7z M243,23.4c-1.8,0-2.7,1-2.7,2.9v9.9c0,0.8,0.3,1.5,0.8,2
					c0.5,0.6,1.2,0.8,1.9,0.8c1.7,0,2.5-1,2.5-2.9v-9.9C245.5,24.3,244.6,23.4,243,23.4 M259.1,1.8h12.8v9.6v7.8v8.6v12h2.7v2.5
					h-15.5v-2.5h2.4V4.2h-2.4V1.8z M290.3,1.3c3.7,0,6.9,1.3,9.6,4s4,5.9,4,9.6c0,3.8-1.3,7-4,9.6s-5.9,3.9-9.6,3.9
					c-3.8,0-7-1.3-9.6-3.9c-2.6-2.6-3.9-5.8-3.9-9.6c0-3.7,1.3-6.9,3.9-9.6C283.3,2.6,286.5,1.3,290.3,1.3 M290.3,1.9
					c-3.6,0-6.7,1.3-9.2,3.8c-2.5,2.6-3.8,5.6-3.8,9.1c0,3.6,1.3,6.7,3.8,9.2s5.6,3.8,9.2,3.8c3.6,0,6.7-1.3,9.2-3.8
					c2.6-2.6,3.8-5.6,3.8-9.2c0-3.5-1.3-6.6-3.8-9.1C297,3.2,293.9,1.9,290.3,1.9 M281.6,18.5l-2.5,0.8L279,19l2.2-0.7l-0.4-1.2
					l0.3-0.1L281.6,18.5z M280,15.5c-0.1,0.1-0.2,0.1-0.3,0.1c-0.2,0-0.3,0-0.4-0.1c-0.1-0.1-0.1-0.2-0.1-0.3
					c0.1-0.1,0.1-0.2,0.1-0.3c0.1-0.1,0.2-0.2,0.3-0.2c0.1,0,0.3,0.1,0.4,0.2c0.1,0,0.1,0.1,0.1,0.3C280.1,15.3,280.1,15.4,280,15.5
					 M282.3,9.7c0-0.1-0.1-0.3-0.3-0.5l0.2-0.2c0.3,0.3,0.4,0.5,0.4,0.6c0,0.3,0,0.6-0.1,0.7c-0.2,0.3-0.4,0.4-0.5,0.5
					c-0.3,0.1-0.5,0.2-0.6,0.1c-0.2,0-0.4-0.1-0.7-0.2c-0.1-0.1-0.3-0.2-0.5-0.4c-0.1-0.1-0.2-0.3-0.2-0.6c0-0.3,0-0.6,0.1-0.7
					l0.5-0.5h0.7l-0.1,0.3c-0.3,0-0.4,0-0.5,0.1c-0.1,0-0.2,0.1-0.3,0.3c-0.1,0.1-0.1,0.2-0.1,0.5c0,0.1,0.1,0.3,0.2,0.4
					c0.1,0.1,0.3,0.2,0.4,0.3c0.3,0.1,0.4,0.2,0.5,0.2c0.3,0,0.4,0,0.5-0.1l0.3-0.3C282.3,10,282.3,9.9,282.3,9.7 M282.9,20.8
					l-2.7,0.6l-0.2-0.3l1.6-2.3l0.2,0.3l-0.5,0.7l0.6,0.9l0.8-0.2L282.9,20.8z M281.6,20.8l-0.5-0.8l-0.4,0.7l-0.4,0.4
					c0.1,0,0.1,0,0.2-0.1l0.3-0.2L281.6,20.8z M283.9,21.5l-1.6,1.6l0.6,0.6l-0.3,0.2l-1.4-1.5l0.3-0.2l0.6,0.6l1.6-1.5L283.9,21.5z
					 M282.6,8.4c-0.3,0-0.4-0.1-0.5-0.3c-0.3-0.2-0.5-0.5-0.5-0.9c0-0.4,0.1-0.7,0.3-0.9c0.1-0.1,0.3-0.3,0.6-0.4
					c0.3,0,0.5,0,0.7,0.1l0.6,0.3l0.3,0.6c0.1,0.2,0.1,0.4,0.1,0.7c-0.1,0.3-0.3,0.4-0.4,0.5c-0.1,0.1-0.2,0.3-0.5,0.4
					C283,8.5,282.7,8.4,282.6,8.4 M290.3,6.4c2.4,0,4.4,0.8,6.1,2.5c1.7,1.7,2.5,3.7,2.5,6c0,2.4-0.8,4.4-2.5,6
					c-1.7,1.6-3.7,2.4-6.1,2.4c-2.4,0-4.4-0.8-6.1-2.4c-1.7-1.6-2.5-3.6-2.5-6c0-2.3,0.8-4.3,2.5-6C285.9,7.2,287.9,6.4,290.3,6.4
					 M281.9,7.1c0,0.3,0.1,0.5,0.4,0.8c0.2,0.2,0.4,0.3,0.7,0.3c0.3,0,0.5-0.1,0.6-0.3c0.2-0.1,0.3-0.3,0.3-0.6
					c0-0.2-0.1-0.4-0.4-0.7c-0.1-0.2-0.3-0.3-0.5-0.3c-0.1-0.1-0.2-0.1-0.4-0.1c-0.1,0.1-0.3,0.2-0.4,0.3
					C282,6.6,281.9,6.8,281.9,7.1 M290.3,7c-2.3,0-4.2,0.8-5.7,2.3s-2.3,3.4-2.3,5.5c0,2.2,0.8,4.1,2.3,5.6c1.6,1.6,3.5,2.3,5.7,2.3
					c2.2,0,4.1-0.8,5.7-2.3c1.6-1.6,2.4-3.4,2.4-5.6c0-2.1-0.8-4-2.4-5.5C294.4,7.8,292.5,7,290.3,7 M284.2,14.3l-0.1,0.2l-0.9,0.2
					l0.2-1l0.2-0.1h0.1l0.1-0.1l0.3-0.3l0.3-0.1l0.5-0.3h0.4l0.3-0.1l0.5,0.1l0.2,0.1l0.6,0.3v-0.1v-0.3l0.3-0.3l0.1-0.2l0.1-0.1
					l0.2-0.2l0.2-0.2l0.1-0.2l0.2-0.1l0.1-0.2l0.1-0.1l0.3-0.2h0.1l0.1-0.3v-0.1v-0.5l-0.2-0.1h-0.2h-0.6l-0.1,0.1l-0.1,0.1h-0.3
					l-0.1-0.1l-0.1-0.1V9.8h0.2l0.5-0.1V9.4l-0.1-0.1l-0.6,0.3l-0.2-0.2V9.3V9.2V9.1V9l0.3-0.2h0.1l1.3-0.3h0.1l1-0.4V7.5l0.7,0.8
					h0.2h0.1v0.2v0.1v0.1h-0.1v0.1h0.1h0.1h0.3v0.3v0.1l-0.2,0.1l0.2,0.1h0.1v0.2v0.1l-0.1,0.1V10v0.1h0.1h0.1v0.2l-0.1,0.2h-0.1
					v0.1v0.1l0.1,0.1V11v0.1l-0.1,0.1h-0.2h-0.1l0.1,0.1l0.2,0.2v0.1l-0.3,0.1h-0.1v0.1V12h0.1v0.2h-0.1v0.1h-0.1v0.2v0.2l0.1,0.1
					l0.5,0.1l0.9,0.2h0.1l0.4-0.2h0.6l0.6,0.2l0.4,0.1l0.2,0.3l0.3,0.2h0.1l0.1,0.1h0.2l0.2-0.1h0.1l0.3-0.1l0.2-0.1l0.3-0.2
					l0.2-0.1h0.3l0.2,0.1l0.3,0.3l0.1,0.3v0.2v0.4l-0.1,0.5v0.3l-0.3,0.5v0.5l-0.1,0.4v0.4l0.1,0.1l0.2,0.1l0.1,0.1h-0.5l-0.5-0.1
					l-0.5-0.3l-0.1-0.6v-0.3l0.1-0.3l0.1-0.2l0.1-0.4l0.2-0.5v-0.2l-0.3-0.2l-0.1-0.1h-0.1h-0.2l-0.5,0.3l0.2,0.5v0.3l-0.2,0.3
					l-0.1,0.1l-0.1,0.4v0.2v0.3v0.1l0.1,0.1v0.3l0.1,0.1l0.2,0.1l0.1,0.1l0.1,0.2h0.1v0.1V18l-0.2,0.1l-0.3,0.2l-0.2,0.4l-0.3,0.4
					l-0.1,0.2v0.2l-0.1,0.2h-0.3h-0.1l-0.2,0.1l0.1,0.1h0.1v0.3h-1l0.1-0.5l0.5-0.4l0.2-0.2l0.2-0.3l0.3-0.1l0.1-0.3l0.1-0.1v-0.1
					l0.1-0.1V18l-0.1-0.2l-0.2-0.2l-0.3-0.2l-0.2-0.2l-0.2-0.1l-0.1-0.3l-0.1-0.1v-0.4l-0.1,0.1v0.2h-0.2v0.2v0.3l0.3,0.3l0.2,0.4
					l0.2,0.2v0.1v0.1l-0.2,0.1l-0.1,0.1l-0.4,0.3l-0.3,0.2l-0.3,0.3v0.1v0.2l-0.1,0.2h-0.1h-0.2h-0.2h-0.1v0.1v0.1h0.2l-0.1,0.3h4
					l-0.1,0.3h-10.4v-0.3h5.5l0.1-0.4l0.1-0.1l0.2-0.1l0.1-0.3l0.1-0.1l0.1-0.1h0.2l0.2-0.3h0.3l0.1-0.1l0.1-0.1l0.3-0.2v-0.1v-0.2
					l-0.2-0.3l-0.1-0.2l-0.2-0.2v-0.1l-0.2-0.1l-0.1-0.1l-0.1-0.1l-0.1-0.3v-0.1v-0.3l0.1-0.5h-0.1h-0.7l-0.6,0.2h-0.4h-0.1h-0.1
					l-0.1-0.2h-0.2l-1.2-0.5l-0.1,0.3l-0.3,0.1l-1.9-1h-0.2l-0.1,0.3l-0.2,0.1l-0.2,0.2l-0.1,0.3v0.1v0.1V16v0.1l-0.2-0.1h-0.1
					l-0.1,0.1l0.1,0.1v0.1h0.1h0.2v0.3l-0.8,0.6v-0.1l-0.1-0.4v-0.4v-0.1V16v-0.2l0.1-0.2v-0.3l0.1-0.1l0.3-0.2l0.4-0.5l0.1-0.4
					l0.7-0.2v0.2l0.8,0.2l-0.8-0.8l-0.5-0.2l-0.8,0.4l-0.2,0.2h-0.1h-0.1v-0.1h-0.1l-0.3,0.1v0.2h0.1l0.2,0.1L284.2,14.3z
					 M286.6,23.4l-1.4,2.2l-0.3-0.2l-0.1-2.4l-1,1.7l-0.3-0.1l1.3-2.2l0.3,0.2l0.1,2.4l1.1-1.7L286.6,23.4z M285.3,7.1L284,4.9
					l0.4-0.2l2.1,1.1L285.6,4l0.2-0.1l1.3,2.3l-0.3,0.1l-2.2-1.1l1,1.8L285.3,7.1z M288.8,24.2l-0.7,2.5l-1.8-0.6l0.1-0.3l1.5,0.5
					l0.2-0.8l-1.4-0.4l0.1-0.3l1.4,0.4l0.2-0.8l-1.5-0.5l0.1-0.3L288.8,24.2z M288.2,5.8l-0.5-2.2l-0.8,0.2l-0.1-0.3l2-0.5v0.3
					L288,3.5l0.6,2.2L288.2,5.8z M291.4,24.3l0.1,2.6h-0.4l-1.4-2l0.1,2h-0.4v-2.6h0.4l1.3,2v-2H291.4z M289.8,5.5l-0.1-2.6h0.3
					l0.2,2.6H289.8z M290.8,5.4l0.4-2.5h0.3l1.1,2.2l0.3-2l0.3,0.1l-0.4,2.5h-0.3l-1.1-2.2l-0.3,2L290.8,5.4z M292.4,24.2l0.4,2.5
					l-0.3,0.1l-0.5-2.6H292.4z M293.4,5.9l1-2.4l1.7,0.7L296,4.5l-1.5-0.6l-0.3,0.7l1.4,0.6l-0.2,0.2l-1.3-0.5l-0.3,0.8l1.5,0.6
					l-0.2,0.3L293.4,5.9z M293.9,23.7l0.7,2.2l0.8-0.3l0.1,0.3l-1.9,0.6l-0.1-0.3l0.8-0.2l-0.7-2.2L293.9,23.7z M296.7,22.1l1.5,2.1
					l-0.3,0.2l-2.2-0.9l1.1,1.7l-0.3,0.2l-1.4-2.1l0.3-0.2l2.2,0.9l-1.1-1.7L296.7,22.1z M295.6,6.8l1.7-2l0.2,0.3l-0.3,2.4l1.4-1.6
					l0.2,0.3l-1.7,1.9l-0.2-0.2l0.3-2.4L295.8,7L295.6,6.8z M299.6,20.7L299.6,20.7c0.3,0.3,0.5,0.6,0.6,0.9c0,0.4-0.1,0.7-0.3,0.9
					c-0.1,0.1-0.3,0.3-0.6,0.4c-0.1,0.1-0.3,0.1-0.6,0.1c-0.3-0.1-0.5-0.3-0.6-0.4c-0.2-0.1-0.4-0.2-0.5-0.5
					c-0.1-0.1-0.1-0.4-0.1-0.7c0-0.1,0-0.2,0.1-0.3c0.1-0.1,0.1-0.2,0.2-0.3l0.6-0.3c0.1-0.1,0.3-0.1,0.6-0.1
					c0.1,0.1,0.1,0.1,0.2,0.2C299.3,20.6,299.5,20.7,299.6,20.7 M299.8,21.7c0-0.3-0.1-0.5-0.4-0.7c-0.3-0.2-0.6-0.3-0.8-0.3
					c-0.2,0-0.4,0.1-0.6,0.3c-0.1,0.3-0.2,0.5-0.2,0.7c0.1,0.4,0.3,0.6,0.5,0.7c0.1,0.1,0.3,0.2,0.5,0.2c0.1,0.1,0.3,0.1,0.4,0
					c0.1,0,0.3-0.1,0.4-0.2C299.8,22.2,299.9,21.9,299.8,21.7 M297.9,9l1.8-1.4L299.2,7l0.2-0.2l1.3,1.6l-0.2,0.2l-0.6-0.7l-1.8,1.4
					L297.9,9z M298.6,9.8l2.8-0.1l0.1,0.3l-1.9,2l-0.2-0.3l0.6-0.6l-0.4-1h-0.8L298.6,9.8z M299.4,19.2c0.1,0.1,0.2,0.3,0.4,0.5
					l-0.2,0.3c-0.2-0.1-0.4-0.3-0.5-0.6c-0.1-0.1,0-0.4,0.1-0.8c0.1-0.3,0.3-0.4,0.4-0.5c0.1-0.1,0.3-0.2,0.6-0.2
					c0.3,0,0.5,0,0.7,0.1c0.3,0.1,0.5,0.3,0.6,0.4c0.1,0.3,0.2,0.5,0.2,0.6c0.1,0.1,0,0.3-0.1,0.6c-0.1,0.2-0.2,0.4-0.4,0.6
					c-0.1,0.1-0.3,0.1-0.6,0.1V20c0.1,0,0.1,0,0.2-0.1c0.1,0,0.2,0,0.3,0c0.1-0.1,0.2-0.3,0.3-0.4V19c0-0.1-0.1-0.3-0.2-0.4
					c-0.1,0-0.2,0-0.3-0.1l-0.2-0.2c-0.1,0-0.3,0-0.5-0.1c-0.2,0-0.4,0.1-0.5,0.2l-0.3,0.3V19.2z M299.6,12.3l2.5-0.6l0.1,0.3
					l-2.2,0.5l0.3,1.3H300L299.6,12.3z M299.9,10.1l0.3,0.8l0.6-0.6c0.4-0.2,0.5-0.3,0.4-0.3h-0.3h-0.2L299.9,10.1z M300.9,15.5
					c0.1-0.1,0.2-0.1,0.3-0.1c0.2,0,0.3,0.1,0.3,0.2c0.1,0.1,0.2,0.2,0.1,0.3c0,0.1,0,0.2-0.1,0.3c-0.1,0.1-0.2,0.1-0.3,0.1
					c-0.2,0-0.3-0.1-0.3-0.2c-0.3,0-0.3-0.1-0.1-0.3C300.8,15.6,300.8,15.5,300.9,15.5"/>
				<path class="st3" d="M27-176.4L27-176.4c1.9,0,3.7,0.2,5.4,0.5c1.7,0.4,3.3,0.8,4.9,1.4v-2.1l10.9,8.9v2.8
					c-2.4-2.8-5.5-4.6-9.4-5.5c-3.9-0.9-7.7-0.8-11.5,0.2s-7,3.2-9.7,6.3c-2.7,3.2-4.1,7.4-4.1,12.6c0,4.9,1.2,9.1,3.6,12.4
					c2.4,3.3,5.4,5.7,9,7.1s7.4,1.8,11.4,1.1c4-0.7,7.6-2.6,10.7-5.8c-0.1,1.9-0.1,3.1,0,3.7c-2.7,2.1-6,3.8-9.7,5
					c-3.8,1.2-7.6,1.8-11.5,1.8c-7.5,0-13.7-2.4-18.8-7.3c-5.1-4.9-7.6-10.8-7.6-17.8c0-3.5,0.7-6.7,2.2-9.8c1.5-3.1,3.4-5.7,5.8-8
					c2.4-2.3,5.2-4.1,8.4-5.5C20.3-175.5,23.6-176.3,27-176.4 M35.4-165.4c3.7,0,6.8,1.5,9.5,4.6c2.7,3.1,4,6.7,4,10.9
					c0,4.3-1.3,7.9-4,10.9c-2.7,3-5.9,4.5-9.5,4.5c-3.8,0-7-1.5-9.7-4.5c-2.7-3-4-6.6-4-10.9c0-4.2,1.3-7.8,4-10.9
					C28.4-163.9,31.6-165.4,35.4-165.4 M35.8-162.5c-1.9,0-2.9,1-2.9,2.9v19.8c0,1.9,1,2.9,2.9,2.9c1.9,0,2.9-1,2.9-2.9v-19.8
					C38.7-161.5,37.8-162.5,35.8-162.5 M50.6-164.3H63v1.8c4.9-2.4,8.7-3.2,11.3-2.4c2.6,0.8,4.5,2.5,5.5,5.3v21.7h2.9v2.5H69.6
					v-23.8c-0.3-1.1-1.4-1.8-3.3-2.1c-1.9,0-2.9,0.8-2.9,2.5v20.9h2.5v2.5H50.6v-2.5h2.5v-23.8h-2.5V-164.3z M84.6-163.9l12.8-12v12
					h3v2.5h-3v23.5h2.8v2.5H84.6v-2.5h2.5v-23.5h-2.5V-163.9z M101.8-163.9h12.4v26h2.9v2.5h-15.3v-2.5h2.9v-23.7h-2.9V-163.9z
					 M108.9-175.7c1.6,0,3,0.5,4.2,1.4c1.2,1,1.8,2.1,1.8,3.4c0,1.4-0.6,2.6-1.8,3.5s-2.6,1.4-4.2,1.4c-1.7,0-3.1-0.5-4.2-1.4
					c-1.2-1-1.7-2.1-1.7-3.5c0-1.3,0.6-2.5,1.7-3.4C105.9-175.2,107.3-175.7,108.9-175.7 M119.2-163.9h12.4v1.2
					c4.9-2.4,8.7-3.2,11.3-2.4s4.5,2.6,5.5,5.3v21.9h2.9v2.5h-13.2v-24c-0.3-1.1-1.4-1.8-3.3-2c-1.9,0-2.9,0.8-2.9,2.4v21.1h2.5v2.5
					h-15.3v-2.5h2.5v-23.5h-2.5V-163.9z M165.3-164.7c3.9,0,7.5,1.5,10.6,4.6c3.1,3.1,4.4,6.7,3.8,10.9h-17.4v7.2
					c1.1,4,3.4,5.7,6.7,5c3.4-0.6,5.8-3.2,7.2-7.8h2.8c-1,3.2-2.7,5.8-5.2,7.8c-2.5,2-5.3,3-8.5,3c-4,0-7.4-1.5-10.2-4.5
					c-2.8-3-4.2-6.7-4.2-10.9c0-4.2,1.4-7.8,4.2-10.8C157.9-163.2,161.3-164.7,165.3-164.7 M165.2-162.7c-1.9,0-2.9,1-2.9,2.9v8.3
					h5.8v-8.3C168.1-161.7,167.1-162.7,165.2-162.7 M180.2-163.7h12.4v1.9c4.9-2.5,8.7-3.3,11.3-2.5c2.6,0.8,4.5,2.6,5.5,5.3v21.1
					h2.9v2.5h-13.2v-23.2c-0.3-1-1.4-1.7-3.3-2c-1.9,0-2.9,0.8-2.9,2.5v20.2h2.5v2.5h-15.3v-2.5h2.5v-22.7h-2.5V-163.7z
					 M213.5-162.9l12.8-12v12h3v2.4h-3v22.6h2.7v2.5h-15.5v-2.5h2.4v-22.6h-2.4V-162.9z M231.3-162c0.9-1.5,2.7-2.5,5.3-3.1
					c2.6-0.6,5.3-0.8,8-0.5c2.7,0.2,5.2,0.9,7.3,2.1c2.2,1.2,3.3,2.8,3.3,4.8v20.7h2.4l0.1,2.4l-12,0.1v-1.7
					c-0.8,0.9-1.6,1.6-2.5,2.1c-0.9,0.5-2.2,0.8-4,0.8c-2.2,0-3.9-0.5-5.1-1.6c-1.2-1.1-2.1-2.3-2.7-3.7c-0.6-1.4-1-2.7-1.1-4
					c-0.1-1.3-0.2-2.1-0.2-2.4c-0.1-0.3,0-1,0.2-2.3c0.2-1.3,0.5-2.6,1.1-3.9c0.6-1.4,1.5-2.6,2.7-3.7c1.2-1.1,2.9-1.6,5.1-1.6
					c0.8,0,1.7,0.1,2.8,0.4s2.3,0.9,3.6,1.9v-4.8c-1.6-1.9-3.7-2.6-6.2-2.3c-2.5,0.3-5.3,1.7-8.3,4.3V-162z M243-154.3
					c-1.8,0-2.7,1-2.7,2.9v9.9c0,0.8,0.3,1.5,0.8,2c0.5,0.6,1.2,0.8,1.9,0.8c1.7,0,2.5-1,2.5-2.9v-9.9
					C245.5-153.4,244.6-154.3,243-154.3 M259.1-175.9h12.8v9.6v7.8v8.6v12h2.7v2.5h-15.5v-2.5h2.4v-35.6h-2.4V-175.9z M290.3-176.4
					c3.7,0,6.9,1.3,9.6,4s4,5.9,4,9.6c0,3.8-1.3,7-4,9.6c-2.7,2.6-5.9,3.9-9.6,3.9c-3.8,0-7-1.3-9.6-3.9c-2.6-2.6-3.9-5.8-3.9-9.6
					c0-3.7,1.3-6.9,3.9-9.6C283.3-175.1,286.5-176.4,290.3-176.4 M290.3-175.8c-3.6,0-6.7,1.3-9.2,3.8s-3.8,5.6-3.8,9.1
					c0,3.6,1.3,6.7,3.8,9.2s5.6,3.8,9.2,3.8c3.6,0,6.7-1.3,9.2-3.8c2.6-2.6,3.8-5.6,3.8-9.2c0-3.5-1.3-6.6-3.8-9.1
					C297-174.5,293.9-175.8,290.3-175.8 M281.6-159.2l-2.5,0.8l-0.1-0.3l2.2-0.7l-0.4-1.2l0.3-0.1L281.6-159.2z M280-162.2
					c-0.1,0.1-0.2,0.1-0.3,0.1c-0.2,0-0.3,0-0.4-0.1c-0.1-0.1-0.1-0.2-0.1-0.3c0.1-0.1,0.1-0.2,0.1-0.3c0.1-0.1,0.2-0.2,0.3-0.2
					c0.1,0,0.3,0.1,0.4,0.2c0.1,0,0.1,0.1,0.1,0.3C280.1-162.4,280.1-162.3,280-162.2 M282.3-168c0-0.1-0.1-0.3-0.3-0.5l0.2-0.2
					c0.3,0.3,0.4,0.5,0.4,0.6c0,0.3,0,0.6-0.1,0.7c-0.2,0.3-0.4,0.4-0.5,0.5c-0.3,0.1-0.5,0.2-0.6,0.1c-0.2,0-0.4-0.1-0.7-0.2
					c-0.1-0.1-0.3-0.2-0.5-0.4c-0.1-0.1-0.2-0.3-0.2-0.6c0-0.3,0-0.6,0.1-0.7l0.5-0.5h0.7l-0.1,0.3c-0.3,0-0.4,0-0.5,0.1
					c-0.1,0-0.2,0.1-0.3,0.3c-0.1,0.1-0.1,0.2-0.1,0.5c0,0.1,0.1,0.3,0.2,0.4c0.1,0.1,0.3,0.2,0.4,0.3c0.3,0.1,0.4,0.2,0.5,0.2
					c0.3,0,0.4,0,0.5-0.1l0.3-0.3C282.3-167.6,282.3-167.8,282.3-168 M282.9-156.9l-2.7,0.6l-0.2-0.3l1.6-2.3l0.2,0.3l-0.5,0.7
					l0.6,0.9l0.8-0.2L282.9-156.9z M281.6-156.9l-0.5-0.8l-0.4,0.7l-0.4,0.4c0.1,0,0.1,0,0.2-0.1l0.3-0.2L281.6-156.9z M283.9-156.2
					l-1.6,1.6l0.6,0.6l-0.3,0.2l-1.4-1.5l0.3-0.2l0.6,0.6l1.6-1.5L283.9-156.2z M282.6-169.3c-0.3,0-0.4-0.1-0.5-0.3
					c-0.3-0.2-0.5-0.5-0.5-0.9c0-0.4,0.1-0.7,0.3-0.9c0.1-0.1,0.3-0.3,0.6-0.4c0.3,0,0.5,0,0.7,0.1l0.6,0.3l0.3,0.6
					c0.1,0.2,0.1,0.4,0.1,0.7c-0.1,0.3-0.3,0.4-0.4,0.5c-0.1,0.1-0.2,0.3-0.5,0.4C283-169.2,282.7-169.2,282.6-169.3 M290.3-171.3
					c2.4,0,4.4,0.8,6.1,2.5c1.7,1.7,2.5,3.7,2.5,6c0,2.4-0.8,4.4-2.5,6c-1.7,1.6-3.7,2.4-6.1,2.4c-2.4,0-4.4-0.8-6.1-2.4
					c-1.7-1.6-2.5-3.6-2.5-6c0-2.3,0.8-4.3,2.5-6C285.9-170.5,287.9-171.3,290.3-171.3 M281.9-170.6c0,0.3,0.1,0.5,0.4,0.8
					c0.2,0.2,0.4,0.3,0.7,0.3c0.3,0,0.5-0.1,0.6-0.3c0.2-0.1,0.3-0.3,0.3-0.6c0-0.2-0.1-0.4-0.4-0.7c-0.1-0.2-0.3-0.3-0.5-0.3
					c-0.1-0.1-0.2-0.1-0.4-0.1c-0.1,0.1-0.3,0.2-0.4,0.3C282-171.1,281.9-170.9,281.9-170.6 M290.3-170.7c-2.3,0-4.2,0.8-5.7,2.3
					c-1.6,1.6-2.3,3.4-2.3,5.5c0,2.2,0.8,4.1,2.3,5.6c1.6,1.6,3.5,2.3,5.7,2.3c2.2,0,4.1-0.8,5.7-2.3c1.6-1.6,2.4-3.4,2.4-5.6
					c0-2.1-0.8-4-2.4-5.5C294.4-169.9,292.5-170.7,290.3-170.7 M284.2-163.4l-0.1,0.2l-0.9,0.2l0.2-1l0.2-0.1h0.1l0.1-0.1l0.3-0.3
					l0.3-0.1l0.5-0.3h0.4l0.3-0.1l0.5,0.1l0.2,0.1l0.6,0.3v-0.1v-0.3l0.3-0.3l0.1-0.2l0.1-0.1l0.2-0.2l0.2-0.2l0.1-0.2l0.2-0.1
					l0.1-0.2l0.1-0.1l0.3-0.2h0.1l0.1-0.3v-0.1v-0.5l-0.2-0.1h-0.2h-0.6l-0.1,0.1l-0.1,0.1h-0.3l-0.1-0.1l-0.1-0.1v-0.2h0.2l0.5-0.1
					v-0.3l-0.1-0.1l-0.6,0.3l-0.2-0.2v-0.1v-0.1v-0.1v-0.1l0.3-0.2h0.1l1.3-0.3h0.1l1-0.4v-0.6l0.7,0.8h0.2h0.1v0.2v0.1v0.1h-0.1
					v0.1h0.1h0.1h0.3v0.3v0.1l-0.2,0.1l0.2,0.1h0.1v0.2v0.1l-0.1,0.1v0.2v0.1h0.1h0.1v0.2l-0.1,0.2h-0.1v0.1v0.1l0.1,0.1v0.2v0.1
					l-0.1,0.1h-0.2h-0.1l0.1,0.1l0.2,0.2v0.1l-0.3,0.1h-0.1v0.1v0.2h0.1v0.2h-0.1v0.1h-0.1v0.2v0.2l0.1,0.1l0.5,0.1l0.9,0.2h0.1
					l0.4-0.2h0.6l0.6,0.2l0.4,0.1l0.2,0.3l0.3,0.2h0.1l0.1,0.1h0.2l0.2-0.1h0.1l0.3-0.1l0.2-0.1l0.3-0.2l0.2-0.1h0.3l0.2,0.1
					l0.3,0.3l0.1,0.3v0.2v0.4l-0.1,0.5v0.3l-0.3,0.5v0.5l-0.1,0.4v0.4l0.1,0.1l0.2,0.1l0.1,0.1h-0.5l-0.5-0.1l-0.5-0.3l-0.1-0.6
					v-0.3l0.1-0.3l0.1-0.2l0.1-0.4l0.2-0.5v-0.2l-0.3-0.2l-0.1-0.1h-0.1h-0.2l-0.5,0.3l0.2,0.5v0.3l-0.2,0.3l-0.1,0.1l-0.1,0.4v0.2
					v0.3v0.1l0.1,0.1v0.3l0.1,0.1l0.2,0.1l0.1,0.1l0.1,0.2h0.1v0.1v0.3l-0.2,0.1l-0.3,0.2l-0.2,0.4l-0.3,0.4l-0.1,0.2v0.2l-0.1,0.2
					h-0.3h-0.1l-0.2,0.1l0.1,0.1h0.1v0.3h-1l0.1-0.5l0.5-0.4l0.2-0.2l0.2-0.3l0.3-0.1l0.1-0.3l0.1-0.1v-0.1l0.1-0.1v-0.1l-0.1-0.2
					l-0.2-0.2l-0.3-0.2l-0.2-0.2l-0.2-0.1l-0.1-0.3l-0.1-0.1v-0.4l-0.1,0.1v0.2h-0.2v0.2v0.3l0.3,0.3l0.2,0.4l0.2,0.2v0.1v0.1
					l-0.2,0.1l-0.1,0.1l-0.4,0.3l-0.3,0.2l-0.3,0.3v0.1v0.2l-0.1,0.2h-0.1h-0.2h-0.2h-0.1v0.1v0.1h0.2l-0.1,0.3h4l-0.1,0.3h-10.4
					v-0.3h5.5l0.1-0.4l0.1-0.1l0.2-0.1l0.1-0.3l0.1-0.1l0.1-0.1h0.2l0.2-0.3h0.3l0.1-0.1l0.1-0.1l0.3-0.2v-0.1v-0.2l-0.2-0.3
					l-0.1-0.2l-0.2-0.2v-0.1l-0.2-0.1l-0.1-0.1l-0.1-0.1l-0.1-0.3v-0.1v-0.3l0.1-0.5h-0.1h-0.7l-0.6,0.2h-0.4h-0.1h-0.1l-0.1-0.2
					h-0.2l-1.2-0.5l-0.1,0.3l-0.3,0.1l-1.9-1h-0.2l-0.1,0.3l-0.2,0.1l-0.2,0.2l-0.1,0.3v0.1v0.1v0.2v0.1l-0.2-0.1h-0.1l-0.1,0.1
					l0.1,0.1v0.1h0.1h0.2v0.3l-0.8,0.6v-0.1l-0.1-0.4v-0.4v-0.1v-0.2v-0.2l0.1-0.2v-0.3l0.1-0.1l0.3-0.2l0.4-0.5l0.1-0.4l0.7-0.2
					v0.2l0.8,0.2l-0.8-0.8l-0.5-0.2l-0.8,0.4l-0.2,0.2h-0.1h-0.1v-0.1h-0.1l-0.3,0.1v0.2h0.1l0.2,0.1L284.2-163.4z M286.6-154.3
					l-1.4,2.2l-0.3-0.2l-0.1-2.4l-1,1.7l-0.3-0.1l1.3-2.2l0.3,0.2l0.1,2.4l1.1-1.7L286.6-154.3z M285.3-170.6l-1.3-2.2l0.4-0.2
					l2.1,1.1l-0.9-1.8l0.2-0.1l1.3,2.3l-0.3,0.1l-2.2-1.1l1,1.8L285.3-170.6z M288.8-153.5l-0.7,2.5l-1.8-0.6l0.1-0.3l1.5,0.5
					l0.2-0.8l-1.4-0.4l0.1-0.3l1.4,0.4l0.2-0.8l-1.5-0.5l0.1-0.3L288.8-153.5z M288.2-171.9l-0.5-2.2l-0.8,0.2l-0.1-0.3l2-0.5v0.3
					l-0.8,0.2l0.6,2.2L288.2-171.9z M291.4-153.4l0.1,2.6h-0.4l-1.4-2l0.1,2h-0.4v-2.6h0.4l1.3,2v-2H291.4z M289.8-172.2l-0.1-2.6
					h0.3l0.2,2.6H289.8z M290.8-172.3l0.4-2.5h0.3l1.1,2.2l0.3-2l0.3,0.1l-0.4,2.5h-0.3l-1.1-2.2l-0.3,2L290.8-172.3z M292.4-153.5
					l0.4,2.5l-0.3,0.1l-0.5-2.6H292.4z M293.4-171.8l1-2.4l1.7,0.7l-0.1,0.3l-1.5-0.6l-0.3,0.7l1.4,0.6l-0.2,0.2l-1.3-0.5l-0.3,0.8
					l1.5,0.6l-0.2,0.3L293.4-171.8z M293.9-154l0.7,2.2l0.8-0.3l0.1,0.3l-1.9,0.6l-0.1-0.3l0.8-0.2l-0.7-2.2L293.9-154z
					 M296.7-155.6l1.5,2.1l-0.3,0.2l-2.2-0.9l1.1,1.7l-0.3,0.2l-1.4-2.1l0.3-0.2l2.2,0.9l-1.1-1.7L296.7-155.6z M295.6-170.9l1.7-2
					l0.2,0.3l-0.3,2.4l1.4-1.6l0.2,0.3l-1.7,1.9l-0.2-0.2l0.3-2.4l-1.4,1.5L295.6-170.9z M299.6-157L299.6-157
					c0.3,0.3,0.5,0.6,0.6,0.9c0,0.4-0.1,0.7-0.3,0.9c-0.1,0.1-0.3,0.3-0.6,0.4c-0.1,0.1-0.3,0.1-0.6,0.1c-0.3-0.1-0.5-0.3-0.6-0.4
					c-0.2-0.1-0.4-0.2-0.5-0.5c-0.1-0.1-0.1-0.4-0.1-0.7c0-0.1,0-0.2,0.1-0.3c0.1-0.1,0.1-0.2,0.2-0.3l0.6-0.3
					c0.1-0.1,0.3-0.1,0.6-0.1c0.1,0.1,0.1,0.1,0.2,0.2C299.3-157.1,299.5-157,299.6-157 M299.8-156c0-0.3-0.1-0.5-0.4-0.7
					c-0.3-0.2-0.6-0.3-0.8-0.3c-0.2,0-0.4,0.1-0.6,0.3c-0.1,0.3-0.2,0.5-0.2,0.7c0.1,0.4,0.3,0.6,0.5,0.7c0.1,0.1,0.3,0.2,0.5,0.2
					c0.1,0.1,0.3,0.1,0.4,0c0.1,0,0.3-0.1,0.4-0.2C299.8-155.5,299.9-155.8,299.8-156 M297.9-168.7l1.8-1.4l-0.5-0.6l0.2-0.2
					l1.3,1.6l-0.2,0.2l-0.6-0.7l-1.8,1.4L297.9-168.7z M298.6-167.9l2.8-0.1l0.1,0.3l-1.9,2l-0.2-0.3l0.6-0.6l-0.4-1h-0.8
					L298.6-167.9z M299.4-158.5c0.1,0.1,0.2,0.3,0.4,0.5l-0.2,0.3c-0.2-0.1-0.4-0.3-0.5-0.6c-0.1-0.1,0-0.4,0.1-0.8
					c0.1-0.3,0.3-0.4,0.4-0.5c0.1-0.1,0.3-0.2,0.6-0.2c0.3,0,0.5,0,0.7,0.1c0.3,0.1,0.5,0.3,0.6,0.4c0.1,0.3,0.2,0.5,0.2,0.6
					c0.1,0.1,0,0.3-0.1,0.6c-0.1,0.2-0.2,0.4-0.4,0.6c-0.1,0.1-0.3,0.1-0.6,0.1v-0.3c0.1,0,0.1,0,0.2-0.1c0.1,0,0.2,0,0.3,0
					c0.1-0.1,0.2-0.3,0.3-0.4v-0.5c0-0.1-0.1-0.3-0.2-0.4c-0.1,0-0.2,0-0.3-0.1l-0.2-0.2c-0.1,0-0.3,0-0.5-0.1
					c-0.2,0-0.4,0.1-0.5,0.2l-0.3,0.3V-158.5z M299.6-165.4l2.5-0.6l0.1,0.3l-2.2,0.5l0.3,1.3H300L299.6-165.4z M299.9-167.6
					l0.3,0.8l0.6-0.6c0.4-0.2,0.5-0.3,0.4-0.3h-0.3h-0.2L299.9-167.6z M300.9-162.2c0.1-0.1,0.2-0.1,0.3-0.1c0.2,0,0.3,0.1,0.3,0.2
					c0.1,0.1,0.2,0.2,0.1,0.3c0,0.1,0,0.2-0.1,0.3c-0.1,0.1-0.2,0.1-0.3,0.1c-0.2,0-0.3-0.1-0.3-0.2c-0.3,0-0.3-0.1-0.1-0.3
					C300.8-162,300.8-162.1,300.9-162.2"/>
				<g style="clip-path:url(#SVGID_6_);">
					<text transform="matrix(1 0 0 1 26.1569 -81.8337)"><tspan x="0" y="0" style="fill:#ED1C24; font-family:'Myriad-Roman'; font-size:12.783px;">R</tspan><tspan x="6.9" y="0" style="fill:#ED1C24; font-family:'Myriad-Roman'; font-size:12.783px;">ec</tspan><tspan x="19" y="0" style="fill:#ED1C24; font-family:'Myriad-Roman'; font-size:12.783px;">r</tspan><tspan x="23.2" y="0" style="fill:#ED1C24; font-family:'Myriad-Roman'; font-size:12.783px;">e</tspan><tspan x="29.6" y="0" style="fill:#ED1C24; font-family:'Myriad-Roman'; font-size:12.783px;">a</tspan><tspan x="35.7" y="0" style="fill:#ED1C24; font-family:'Myriad-Roman'; font-size:12.783px;">t</tspan><tspan x="39.9" y="0" style="fill:#ED1C24; font-family:'Myriad-Roman'; font-size:12.783px;">e </tspan><tspan x="49" y="0" style="fill:#ED1C24; font-family:'Myriad-Roman'; font-size:12.783px;">L</tspan><tspan x="54.5" y="0" style="fill:#ED1C24; font-family:'Myriad-Roman'; font-size:12.783px;">OGO(f</tspan><tspan x="87.8" y="0" style="fill:#ED1C24; font-family:'Myriad-Roman'; font-size:12.783px;">r</tspan><tspan x="91.9" y="0" style="fill:#ED1C24; font-family:'Myriad-Roman'; font-size:12.783px;">om </tspan><tspan x="112.3" y="0" style="fill:#ED1C24; font-family:'Myriad-Roman'; font-size:12.783px;">p</tspan><tspan x="119.5" y="0" style="fill:#ED1C24; font-family:'Myriad-Roman'; font-size:12.783px;">d</tspan><tspan x="126.8" y="0" style="fill:#ED1C24; font-family:'Myriad-Roman'; font-size:12.783px; letter-spacing:1;">f</tspan><tspan x="131.9" y="0" style="fill:#ED1C24; font-family:'Myriad-Roman'; font-size:12.783px;">)</tspan></text>
				</g>
				<rect x="32" y="-64.6" class="st2" width="19.7" height="19.7"/>
			</g>
		</g>
	</g>
</g>
</svg>
