<?xml version="1.0" encoding="utf-8"?>
<!-- Generator: Adobe Illustrator 20.0.0, SVG Export Plug-In . SVG Version: 6.00 Build 0)  -->
<svg version="1.1" id="Layer_1" xmlns="http://www.w3.org/2000/svg" xmlns:xlink="http://www.w3.org/1999/xlink" x="0px" y="0px"
	 viewBox="0 0 297.4 37.7" style="enable-background:new 0 0 297.4 37.7;" xml:space="preserve">
<style type="text/css">
	.st0{fill:none;}
</style>
<rect x="-1.4" y="-1.1" class="st0" width="300" height="39.8"/>
<g>
	<path d="M3.9,2.8H1.4C1,0.5,1.3,0,8.9,0h10.8c15.4,0,22.2,7,22.2,18.5c0,11.1-6.3,18.5-21.6,18.5H0.1c-0.1-0.5-0.1-1.5,0-2.1
		c5.7-0.3,6.7-0.7,6.7-4.2V5.1C6.8,3,6.3,2.8,3.9,2.8z M34.6,19.4c0-10.3-5.4-16.2-15.6-16.2h-5.5v26.9c0,3.3,1.2,3.8,6.2,3.8
		C28.8,33.9,34.6,30.9,34.6,19.4z"/>
	<path d="M67.6,0.4c0.1,1.2,0.5,2.1,1.5,4l12.4,28.2c0.5,1.5,1.2,1.8,4,1.8h1.2c0.3,1.6,0,2.4-1.5,2.4H67.7c-0.1-0.5-0.1-1.5,0-2.1
		c5.8-0.1,6.5-0.7,5.8-2l-3.4-8H56.4l-2.2,5.8c-1.2,3.2-1.2,4,1.7,4h4.6c0.4,1.6,0,2.4-1.3,2.4H43.9c-0.1-0.5-0.1-1.5,0-2.1
		c4.1-0.5,4.6-0.9,6.1-4.2L60.5,5.4c1.7-4.1,2.5-5,5-5L67.6,0.4L67.6,0.4z M69.1,21.6L63.3,7.8l-5.7,13.8H69.1z"/>
	<path d="M107.6,1.1c0.1,0.5,0.1,1.6,0,2.1c-4.6,0.3-5.4,1.3-5.4,3.6v25.5c0,1.8,0.5,2.2,2.8,2.2h2.9c0.4,1.6,0.3,2.4-1.5,2.4H90.3
		c-0.3-0.5-0.3-1.5,0-2.1c4.2-0.7,5.3-1.2,5.3-3.4V5.7c0-2-0.5-2.2-2.9-2.2h-2.5c-0.3-1.5,0-2.4,2.2-2.4H107.6z"/>
	<path d="M169.3,1.1c0.3,0.7,0.3,1.5,0,2.1c-5,0.3-5.3,1.2-5.1,2.8l2.5,26.1c0.1,1.7,1.1,1.8,5.1,2.4c0.1,1.6,0,2.4-1.5,2.4h-18.9
		c-0.3-0.7-0.3-1.5,0-2.1l2.9-0.1c4.5-0.3,5.3-0.8,5-3.4L157,7.8l-12.8,26.9c-0.9,2-1.5,2.2-2.6,2.2L126.8,7.8l-1.7,24
		c-0.1,2.1-0.1,2.6,5.5,2.6h2.9c0.4,1.6,0.1,2.4-1.3,2.4h-17.8c-0.1-0.7-0.1-1.5,0-2.1c5.9-0.3,6.3-1.5,6.5-3.7l2.2-25.2
		c0.1-1.7-0.1-2.2-5.4-2.5c-0.3-1.2,0-2.4,2.2-2.4h10.8l13.5,25.7l12.4-25.7h12.7V1.1z"/>
	<path d="M198.8,1.1c0.1,0.5,0.1,1.6,0,2.1c-5.7,0.3-6.7,0.8-6.7,4.2V31c0,1.7,0.9,2.2,2.4,2.2h3.4c4,0,4.5-0.3,6.7-5.1l1.5-3.3
		c1.6,0,2.4,0.5,1.7,2.2c-1.2,3.2-2.1,6.3-2.8,9.6h-26.1c-0.1-0.7-0.1-1.5,0-2.1c5.1-0.3,6.3-1.1,6.3-4.5V5.7c0-2-0.7-2.2-2.9-2.2
		h-2.5c-0.3-1.5,0-2.4,2.2-2.4H198.8z"/>
	<path d="M242.2,1.1c0.1,2.4,0.5,4.9,0.8,7.3c0.3,1.7-0.4,2.5-2.1,2.4l-0.7-2.4c-0.9-3.3-2-4.1-5-4.1h-8.6v13.7h5.7
		c1.6,0,2-0.5,2.1-2l0.4-2.8h0.7c1.1,0,1.7,0.4,1.6,2c-0.1,3.4-0.1,7.1,0,10.5c-0.5,0.3-1.3,0.3-1.8,0c-0.7-4.2-1.5-4.6-2.8-4.6
		h-5.7v9.4c0,2,0.5,2.8,4.1,2.8h4.6c4,0,4.5-0.3,6.7-5.1l1.5-3.3c1.6,0,2.2,0.7,1.7,2.2c-1.1,3-2.1,6.3-2.8,9.6h-29.4
		c-0.3-0.7-0.3-1.5,0-2.1c5.7-0.3,6.7-0.7,6.7-4.2V5.7c0-2-0.5-2.2-2.9-2.2h-2.5c-0.3-1.5,0-2.4,2.4-2.4H242.2z"/>
	<path d="M255.4,3.4h-2.5c-0.4-1.5,0-2.4,2.2-2.5c2.5-0.3,5.8-0.3,13.3-0.3c10.3,0,16,4.9,16,12.1c0,4.5-2.8,8.2-7.3,10
		c0,0,4,3.7,6.1,5.4c7.1,5.7,9.4,6.2,14.1,6.2c0.5,1.8-0.8,3.3-6.5,3.3c-5,0-8.2-1.1-12.1-4.5c-1.7-1.6-3.7-3.7-5.1-6.2
		c-1.3-2.4-1.5-2.5-4.7-2.5h-3.6v7.9c0,1.6,0.5,2.1,3.3,2.1h2.8c0.1,1.6,0,2.4-1.6,2.4h-16.9c-0.1-0.5-0.1-1.5,0-2.1
		c4.6-0.3,5.7-0.9,5.7-4.1V5.8C258.4,3.8,257.6,3.4,255.4,3.4z M267.7,21.4c5.3,0,9.6-0.8,9.6-8s-4.2-9.5-10.3-9.5h-1.8v17.5
		C265.2,21.4,267.7,21.4,267.7,21.4z"/>
</g>
</svg>
