<?xml version="1.0" encoding="utf-8"?>
<!-- Generator: Adobe Illustrator 20.0.0, SVG Export Plug-In . SVG Version: 6.00 Build 0)  -->
<svg version="1.1" id="Layer_1" xmlns="http://www.w3.org/2000/svg" xmlns:xlink="http://www.w3.org/1999/xlink" x="0px" y="0px"
	 viewBox="0 0 300 103.4" style="enable-background:new 0 0 300 103.4;" xml:space="preserve">
<style type="text/css">
	.st0{fill:#EF3E42;}
	.st1{fill:#FFFFFF;}
</style>
<path class="st0" d="M224.4,89.3c0-3.7,2.8-6.5,6.4-6.5s6.4,2.8,6.4,6.5c0,3.8-2.8,6.6-6.4,6.6C227.2,96,224.4,93.2,224.4,89.3z
	 M230.8,97.3c4.3,0,8-3.3,8-7.9c0-4.5-3.7-7.9-8-7.9s-8,3.3-8,7.9C222.8,93.9,226.5,97.3,230.8,97.3z M229.1,90h1.6l2.5,3.9h1.6
	l-2.6-4.1c1.4-0.1,2.3-0.9,2.3-2.5c0-1.8-1.1-2.6-3.2-2.6h-3.4v9.1h1.4V90H229.1z M229.1,88.9V86h1.8c1,0,2,0.2,2,1.4
	c0,1.4-1,1.5-2.2,1.5L229.1,88.9L229.1,88.9z"/>
<g>
	<polygon class="st0" points="149,0 0,50.6 149,103.4 300,51 	"/>
	<path class="st1" d="M234.9,40.8c-0.9,0.2-1.5,0.6-1.8,1.1l-11.8,26.3c0,1.1,0,1.6,2.5,1.6v2.3l-16.2,0.1v-2.3c1.6,0,2-0.5,2-1.7
		c0-0.5-5.7-15-5.7-15l-6.6,14.5c-0.1,0.1-0.2,0.4-0.2,0.6c0,1.4,0.7,1.7,2.6,1.7l0,0v2.3l-17.6-0.1v-2.3c1.5,0,2.7-0.2,2.7-1.7
		c0-0.2,0-0.5-0.1-0.7l-9.8-25.3l0,0c-0.5-0.7-0.2-1.4-2.8-1.4v-2.5h16.1v2.5c-1.2,0-2.1,0.1-2.1,1.4h-0.1l5.4,16.1l6.8-18.8h5.7
		h5.4l7.3,19.7l6.4-16.8c0-0.7-0.2-1.4-2.3-1.4h-0.5v-2.5l16.5-0.1v2.6C236.5,40.7,235.1,40.7,234.9,40.8z"/>
	<path class="st1" d="M149.3,36c-13.3,0-21.8,8.4-21.8,18.6c0,11.3,8.6,18.6,21.8,18.6s21.8-7.3,21.8-18.6
		C171.1,44.4,162.5,36,149.3,36z M149.3,65.5c-7.4,0-12.3-4.7-12.3-10.4s4.8-10.4,12.3-10.4c7.4,0,12.3,4.7,12.3,10.4
		S156.8,65.5,149.3,65.5z"/>
	<path class="st1" d="M104.1,30.2c-7.1,0-30.8,0-30.8,0v2l0,0c2.3,0,4.1,0.6,4.3,1.4l0,0l0,0c0,0,0,0,0,0.1c0,0,0,0,0,0.1v34h-0.1
		c0,0.7-2,1.5-4.3,1.5v2.2c0,0,23.7,0,30.8,0c6.6,0,17-8.2,17-20.3C120.9,39.9,111.8,30.2,104.1,30.2z M103.1,62.4
		c-7.1,0-16.1,0-16.1,0V39c0,0,9.1,0,16.1,0c3.2,0,9,4.3,9.1,12C112.2,58.6,107.2,62.4,103.1,62.4z"/>
</g>
</svg>
