<?xml version="1.0" encoding="utf-8"?>
<!-- Generator: Adobe Illustrator 21.0.0, SVG Export Plug-In . SVG Version: 6.00 Build 0)  -->
<svg version="1.1"
	 id="svg49340" xmlns:cc="http://creativecommons.org/ns#" xmlns:dc="http://purl.org/dc/elements/1.1/" xmlns:rdf="http://www.w3.org/1999/02/22-rdf-syntax-ns#" xmlns:svg="http://www.w3.org/2000/svg"
	 xmlns="http://www.w3.org/2000/svg" xmlns:xlink="http://www.w3.org/1999/xlink" x="0px" y="0px" viewBox="0 0 300 116.7"
	 style="enable-background:new 0 0 300 116.7;" xml:space="preserve">
<style type="text/css">
	.st0{fill:#E31837;}
</style>
<g id="layer1" transform="translate(-537.3366,-507.84823)">
	<g id="g49320" transform="matrix(3.1671804,0,0,-3.1671804,729.32075,554.16425)">
		<path id="path49322" class="st0" d="M0.1,0v-14.3c0-3.2-2.4-3.7-5-3.8c-2.5-0.2-5,0.3-5,3.4V0h2.7v-14c0-1.4,1.3-1.5,2.3-1.5
			c1.1,0.1,2.4,0.2,2.4,1.4V0H0.1z M0.1,0h-2.6v6.3c0,1.4-1.3,1.4-2.4,1.5c-1,0.1-2.3-0.1-2.3-1.4V0h-2.7v7.1c0,3.1,2.4,3.5,5,3.4
			c2.5-0.1,5-0.7,5-3.7V0z M-12.6,0v-6.6c0-2.7-2.3-3.3-3.9-3.3H-20v-8.3c-0.6,0-2.1,0.1-2.7,0.1V0h2.7v-7.2l3.5-0.1
			c0.6,0,1.1,0.2,1.1,1.2V0L-12.6,0L-12.6,0z M-22.6,0v10.3c1.8,0.2,4.6,0.3,7.2,0.3c1.3,0,2.9-0.7,2.9-3V0h-2.7v7.3
			c0,0.5-0.3,0.6-0.6,0.6c-0.2,0-3.8-0.1-4-0.1V0C-20,0-22.6,0-22.6,0z M22.1-12.8c-0.9-0.4-1.6-0.7-2.6-1.1V3.4
			c-1.3,0.5-2.5,0.9-3.7,1.2v2.8c4.7-1.3,7.2-2.5,9.9-4.1V0c-1,0.8-2.3,1.5-3.6,2.2C22.1,2.2,22.1-12.8,22.1-12.8z M5.7-17
			c-1-0.2-1.6-0.3-2.7-0.4V9.7c1.1-0.1,1.8-0.2,2.8-0.3l4.5-16.5V8.7c1.1-0.3,1.6-0.3,2.6-0.6v-23.8C12-16,11.1-16,10.1-16.3
			L5.7-0.6C5.7-0.6,5.7-17,5.7-17z M-29.2,9.8v-23.4c0-3.5-2.4-3.6-5-3.2c-2.6,0.5-5,0.8-5,4V8.1l2.6,0.6v-21.2
			c0-1.3,1.2-1.3,2.4-1.6c1.1-0.2,2.3-0.4,2.3,1V9.5C-31.9,9.5-29.2,9.8-29.2,9.8z M-42,0v-11.5c0-1.9-1.6-3.1-3-2.6
			c-1.4,0.5-4.7,1.7-6.3,2.8V0h2.7v-9.8c0.8-0.3,1.9-0.8,2.7-1.2c0.9-0.3,1.3,0.1,1.3,0.8V0C-44.7,0-42,0-42,0z M-44.7,0v2.6
			c0,0.6-0.4,1-1.1,0.8c-0.5-0.2-1.9-0.8-2.9-1.2V0h-2.7v3.7c1.8,1.1,4.6,2.3,5.9,2.6C-44,6.8-42,6.2-42,3.9V0L-44.7,0L-44.7,0z
			 M-13.2,12.6c-26.4,0-45.5-6.4-45.5-16.3c0-10,19.1-16.4,45.5-16.4V-22c-27.5,0-47.4,7.2-47.4,18.3c0,11,19.9,18.2,47.4,18.2
			C-13.2,14.4-13.2,12.6-13.2,12.6z M-13.2-20.2c26.3,0,45.5,6.4,45.5,16.4c0,9.9-19.1,16.3-45.5,16.3v1.9
			c27.4,0,47.3-7.2,47.3-18.2C34.1-14.9,14.2-22-13.2-22"/>
	</g>
	<g id="g49324" transform="matrix(3.1671804,0,0,-3.1671804,819.98446,613.35885)">
	</g>
</g>
</svg>
