<?xml version="1.0" encoding="utf-8"?>
<!-- Generator: Adobe Illustrator 20.0.0, SVG Export Plug-In . SVG Version: 6.00 Build 0)  -->
<svg version="1.1" id="Layer_1" xmlns="http://www.w3.org/2000/svg" xmlns:xlink="http://www.w3.org/1999/xlink" x="0px" y="0px"
	 viewBox="0 0 300 96.4" style="enable-background:new 0 0 300 96.4;" xml:space="preserve">
<style type="text/css">
	.st0{fill:#067AC1;}
</style>
<g>
	<path class="st0" d="M72,11.7l5.4,19.4H66.4L72,11.7z M62.2,44.7l-4.9,16.1H86l-4.6-16.1H62.2z M137.1,0H82v17.3h17.4v43.4h27.9
		c-1.7-1-13.6-10.5-13.6-28C113.7,18.1,122.6,3.7,137.1,0 M146.7,45.2c6.5,0,11.7-5.4,11.7-12.3c0-6.7-4.9-12.9-11.5-12.9
		s-11.7,6.1-11.7,12.9C135,39.8,139.9,45.2,146.7,45.2 M204.4,38.2L193.1,0.1h-28.7v60.7h17.8V22.7h0.1l11.1,38.1h28.8V0.1h-18.1
		L204.4,38.2L204.4,38.2z M34.6,60.8l5.2-17H20.7v-5.2h20.7l4.9-16.3H20.7v-4.9h27.1l5.2-17.3H0v60.7H34.6z"/>
	<path d="M52.3,75.1h4.6c1.4,0,3.6,0.1,2.8,4c-0.8,3.4-2.1,4.9-5,4.9h-2.8l-1.7,7.7h-1.4L52.3,75.1z M52.2,82.9h2.7
		c1.5,0,2.7-0.8,3.2-3.4c0.6-2.8-0.5-3.1-1.9-3.1h-2.7L52.2,82.9z"/>
	<path d="M59.5,87.3l0.6-2.8c0.3-1.5,1-4.5,5-4.5s3.4,3.1,3.1,4.5l-0.6,2.8c-0.6,3.1-2.1,4.8-5,4.8C59.5,92.1,58.9,90.4,59.5,87.3
		 M65.5,89.5c0.4-0.5,0.9-2.7,1-3.5c0.8-3.5,0.6-4.9-1.5-4.9c-2.3,0-3,1.5-3.7,4.9c-0.1,0.8-0.5,2.8-0.5,3.5c0,0.3,0.1,1.5,2.1,1.5
		C64.7,91,65.3,89.7,65.5,89.5"/>
	<polygon points="70.4,80.2 71.8,80.2 72.3,90.4 72.3,90.4 76.9,80.2 78.6,80.2 79.1,90.4 79.1,90.4 83.9,80.2 85.3,80.2 79.7,91.9 
		77.8,91.9 77.5,81.9 77.3,81.9 72.8,91.9 71,91.9 	"/>
	<path d="M86.6,86.2l-0.1,0.9c-0.4,1.7-0.4,3.7,1.8,3.7c1.7,0,2.8-1.2,3.1-2.7h1.4c-0.8,2.8-2.5,3.7-4.9,3.7c-2.1,0-3.9-0.8-3.1-4.4
		l0.6-2.8c0.8-3.4,2.5-4.9,5-4.9c4,0,3.4,2.8,2.7,6.3h-6.6V86.2z M92.2,85.2c0.5-2.6,0.5-4.1-1.8-4.1c-2.2,0-3,1.5-3.5,4.1H92.2z"/>
	<path d="M98.4,81.7L98.4,81.7c0.9-1.2,2.2-1.8,3.6-1.8l-0.3,1.4c-1.9-0.1-3.5,1-3.9,3l-1.5,7.5h-1.4L97.3,80h1.4L98.4,81.7z"/>
	<path d="M101.1,91.9l2.5-11.7h1.4l-2.5,11.7H101.1z M104.1,76.9l0.4-1.8h1.7l-0.4,1.8H104.1z"/>
	<path d="M107,91.9h-1.4l2.5-11.7h1.4l-0.3,1.4l0,0c0.9-1,1.9-1.7,3.2-1.7c2.8,0,2.7,2.2,2.5,3.7l-1.8,8.3h-1.4l1.8-8.1
		c0.3-1.4,0-2.6-1.5-2.6c-1.3,0-2.7,0.9-3.2,3.5L107,91.9z"/>
	<path d="M125,80.2h1.4c-0.3,1.2-0.4,1.7-0.5,2.3l-2.1,9.8c-0.5,2.6-1.7,4.1-5,4.1c-3,0-3.1-2.1-2.7-3.2h1.4
		c-0.4,1.3,0.4,2.2,1.8,2.2c2.7,0,2.8-1.4,3.6-4.9l0,0c-0.8,1-2.1,1.4-3.1,1.4c-3.4,0-3-2.8-2.5-5.6c0.5-2.7,0.6-2.7,1.2-4
		c0.3-0.5,1.4-2.3,3.7-2.3c1.2,0,2.2,0.6,2.6,1.7l0,0L125,80.2z M118.6,85.7c-0.5,2.5-1,4.9,1.5,4.9c1.2,0,2.1-0.8,2.5-1.3
		c0.5-0.9,0.8-1.4,1.4-4.9c0.5-2.5-0.6-3.4-1.9-3.4C119.7,81.1,118.9,84,118.6,85.7"/>
	<path d="M131.8,91.9l3.6-16.8h4.6c2.6,0,3.7,1,3.1,4c-0.4,2.1-1,3.4-3.2,4l0,0c2.1,0.5,2.3,1.9,1.9,4c-0.6,3-2.5,4.6-5.3,4.6h-4.8
		V91.9z M133.5,90.6h2.3c2.5,0,3.9-0.8,4.4-3.4c0.3-1.4,0.3-3.5-2.2-3.5h-3L133.5,90.6z M138,82.6c2.2,0,3.1-1.4,3.5-3.4
		c0.6-2.8-0.9-2.8-2.1-2.8h-3l-1.3,6.2H138z"/>
	<path d="M153,80.2l-2.5,11.7h-1.2l0.3-1.3l0,0c-1,1-1.9,1.5-3.2,1.5c-2.5,0-2.7-1.8-2.3-3.6l1.8-8.3h1.4l-1.7,8
		c-0.1,0.3-0.6,2.8,1.4,2.8c1.9,0,3-1.8,3.1-2.6l1.8-8.3h1V80.2z"/>
	<path d="M156.3,92.1c-2.6,0-3.2-1.3-2.7-3.7h1.4c-0.4,1.5-0.3,2.7,1.5,2.7c1.3,0,2.2-0.8,2.5-2.1c0.6-3.1-4.8-2.3-4-6.2
		c0.5-2.2,2.1-3,4.1-3c2.3,0,2.7,1.5,2.3,3.4h-1.4c0.3-1.4,0-2.3-1.5-2.3c-1,0-1.9,0.6-2.2,1.7c-0.6,3,4.8,2.2,4,6.1
		C160.1,91,158.5,92.1,156.3,92.1"/>
	<path d="M162.4,91.9l2.5-11.7h1.4l-2.5,11.7H162.4z M165.4,76.9l0.4-1.8h1.7l-0.4,1.8H165.4z"/>
	<path d="M168.4,91.9h-1.4l2.5-11.7h1.4l-0.3,1.4l0,0c0.9-1,1.9-1.7,3.2-1.7c2.8,0,2.7,2.2,2.5,3.7l-1.8,8.3H173l1.8-8.1
		c0.3-1.4,0-2.6-1.5-2.6c-1.3,0-2.7,0.9-3.2,3.5L168.4,91.9z"/>
	<path d="M179.8,86.2l-0.1,0.9c-0.4,1.7-0.4,3.7,1.8,3.7c1.7,0,2.8-1.2,3.1-2.7h1.4c-0.8,2.8-2.5,3.7-4.9,3.7
		c-2.1,0-3.9-0.8-3.1-4.4l0.6-2.8c0.8-3.4,2.5-4.9,5-4.9c4,0,3.4,2.8,2.7,6.3h-6.6V86.2z M185.4,85.2c0.5-2.6,0.5-4.1-1.8-4.1
		c-2.2,0-3,1.5-3.5,4.1H185.4z"/>
	<path d="M190.8,92.1c-2.6,0-3.2-1.3-2.7-3.7h1.4c-0.4,1.5-0.3,2.7,1.5,2.7c1.3,0,2.2-0.8,2.5-2.1c0.6-3.1-4.8-2.3-4-6.2
		c0.5-2.2,2.1-3,4.1-3c2.3,0,2.7,1.5,2.3,3.4h-1.4c0.3-1.4,0-2.3-1.5-2.3c-1,0-1.9,0.6-2.2,1.7c-0.6,3,4.8,2.2,4,6.1
		C194.6,91,193,92.1,190.8,92.1"/>
	<path d="M199.7,92.1c-2.6,0-3.2-1.3-2.7-3.7h1.4c-0.4,1.5-0.3,2.7,1.5,2.7c1.3,0,2.2-0.8,2.5-2.1c0.6-3.1-4.8-2.3-4-6.2
		c0.5-2.2,2.1-3,4.1-3c2.3,0,2.7,1.5,2.3,3.4h-1.4c0.3-1.4,0-2.3-1.5-2.3c-1,0-1.9,0.6-2.2,1.7c-0.6,3,4.8,2.2,4,6.1
		C203.3,91,201.9,92.1,199.7,92.1"/>
	<polygon points="220.2,75.1 222.2,75.1 222.4,89.9 222.4,89.9 229.2,75.1 230.6,75.1 223,91.9 221,91.9 220.8,76.9 220.8,76.9 
		214.1,91.9 212.2,91.9 211.7,75.1 213.4,75.1 213.5,90 213.7,90 	"/>
	<path d="M228.8,87.3l0.6-2.8c0.3-1.5,1-4.5,5-4.5c4,0,3.4,3.1,3.1,4.5l-0.6,2.8c-0.6,3.1-2.1,4.8-5,4.8
		C228.8,92.1,228.1,90.4,228.8,87.3 M234.7,89.5c0.4-0.5,0.9-2.7,1-3.5c0.8-3.5,0.6-4.9-1.5-4.9c-2.3,0-3,1.5-3.7,4.9
		c-0.1,0.8-0.5,2.8-0.5,3.5c0,0.3,0.1,1.5,2.1,1.5C233.9,91,234.6,89.7,234.7,89.5"/>
	<path d="M242.3,81.7L242.3,81.7c0.9-1.2,2.2-1.8,3.6-1.8l-0.3,1.4c-1.9-0.1-3.5,1-3.9,3l-1.5,7.5h-1.4l2.5-11.7h1.4L242.3,81.7z"/>
	<polygon points="245.2,91.9 248.7,75.1 250.1,75.1 246.6,91.9 	"/>
	<path d="M256.3,90.4L256.3,90.4c-1,1.2-2.1,1.7-3.4,1.7c-3.4,0-2.8-3.4-2.3-6.1c0.5-2.2,1.3-6.1,4.9-6.1c1,0,2.1,0.5,2.6,1.4l0,0
		l1.3-6.2h1.4l-3.1,14.5c-0.3,1.2-0.4,1.9-0.4,2.3H256L256.3,90.4z M256.9,87l0.4-2.1c0.1-0.6,0.8-4-1.8-4c-2.5,0-3,2.3-3.6,5
		c-0.9,4.4,0,4.9,1.5,4.9C254.8,91,256.3,90,256.9,87"/>
	<polygon points="261.4,80.2 262.9,80.2 263.4,90.4 263.4,90.4 268,80.2 269.7,80.2 270.2,90.4 270.2,90.4 275,80.2 276.4,80.2 
		270.7,91.9 268.9,91.9 268.5,81.9 268.4,81.9 263.9,91.9 262.1,91.9 	"/>
	<path d="M275.6,91.9l2.5-11.7h1.4l-2.5,11.7H275.6z M278.6,76.9l0.4-1.8h1.7l-0.4,1.8H278.6z"/>
	<path d="M286.7,90.4L286.7,90.4c-1,1.2-2.1,1.7-3.4,1.7c-3.4,0-2.8-3.4-2.3-6.1c0.5-2.2,1.3-6.1,4.9-6.1c1,0,2.1,0.5,2.6,1.4l0,0
		l1.3-6.2h1.4l-3.1,14.5c-0.3,1.2-0.4,1.9-0.4,2.3h-1.3L286.7,90.4z M287.4,87l0.4-2.1c0.1-0.6,0.8-4-1.8-4c-2.5,0-3,2.3-3.6,5
		c-0.9,4.4,0,4.9,1.5,4.9C285.2,91,286.7,90,287.4,87"/>
	<path d="M292.9,86.2l-0.1,0.9c-0.4,1.7-0.4,3.7,1.8,3.7c1.7,0,2.8-1.2,3.1-2.7h1.4c-0.8,2.8-2.5,3.7-4.9,3.7
		c-2.1,0-3.9-0.8-3.1-4.4l0.6-2.8c0.8-3.4,2.5-4.9,5-4.9c4,0,3.4,2.8,2.7,6.3h-6.6V86.2z M298.5,85.2c0.5-2.6,0.5-4.1-1.8-4.1
		c-2.2,0-3,1.5-3.5,4.1H298.5z"/>
</g>
</svg>
