<?xml version="1.0" encoding="utf-8"?>
<!-- Generator: Adobe Illustrator 20.0.0, SVG Export Plug-In . SVG Version: 6.00 Build 0)  -->
<svg version="1.1" id="Layer_1" xmlns="http://www.w3.org/2000/svg" xmlns:xlink="http://www.w3.org/1999/xlink" x="0px" y="0px"
	 viewBox="0 0 300 126.5" style="enable-background:new 0 0 300 126.5;" xml:space="preserve">
<style type="text/css">
	.st0{fill:#F15A22;}
	.st1{fill:#003974;}
</style>
<g>
	<path class="st0" d="M77,19.5c0.5-4-0.1-9.8,3-12.5c0.9-4.3,7.6-3.3,6.5-6c-0.7-1.7-3.8-0.9-5.1-0.5C80.5,0.8,71.3,3.6,67.7,4
		c-1.4-0.4-3-0.8-4.4-1.3c-5.7,0.8-9.1,5.3-12.2,9c-2.7,3-6.4,10.5-3.4,15c-0.1,0.9-0.3,2-0.5,2.9l6.5,9.5c2.2,1.6,2.6,2.9,4.9,4.4
		c0.5,0.8,1,1.6,1.6,2.2c2,1.3,7.8,1.3,8.9,0.5c9.3,0.9,8.4-18.2,11.4-22.2C80,22.3,78.4,20.4,77,19.5z M36.2,76.9
		c2-0.5,5.3-0.8,7.2-1.7c2.9-1.4,12.6-8.2,9.5-13.8c-0.9-11.7-15.1-1.8-21.1-6c-6.1-0.7-13-12.3-14.8-17.3c-0.8-2-0.4-1.3-1.4-2.9
		c0-0.1-0.7,0.5-0.7,0.4c-1.8,2.1-1.4,3.9-1.7,9c-0.8,0-1.6-0.1-2.3-0.1c-0.1,1.8-0.4,2.9-1.2,3.8c-0.1,0.3-0.4,0.7-0.5,0.9
		c-1.6-0.5-0.8,0.3-1.4-1c-5.6,0.3-5.2,5.9-7.8,9.1C0.2,67.8,21,80.8,36.2,76.9z M105.6,44.9c-9.1,1.4-14.7,4.3-18.1,6.6
		c-2.3,1.7-3.1,2.7-3.6,3.5c-0.5,0.7-0.9,2.2-0.7,3.9c0.3,1.7,0.9,3.4,2.3,4.3c11.2-0.8,30.6-1.6,34.4,7.8c0.3,1.3,0.5,2.1,0.5,2.3
		c3.6-0.9,1-0.7,6.4,0.3c1.3,0.3,4.3-0.5,6.4-1c0.9-0.3,1.4-1,1.4-1s-0.1-0.9-0.1-1.4c0,0,2,0.1,2.7-0.5c5.2-0.8,2.5-3.3,4.9-6
		C140.8,46.3,122.7,42.3,105.6,44.9z M85.6,83c-2.6,2-3.6,1.4-5.2,4.6c-0.1,0,0.3,0.5,0.1,0.5c1.6,3.1,5.1,4.3,7.7,6.5
		c0.8,0.7,3,4.6,4,4.8c1.2,1.4,2,5.3,2.7,5.3c0.8,1,0,3.6,0.7,4.7c0,4.6-0.5,4.9-1.4,5.7c0,0.3,0.4,1.2,0.4,1.4
		c0.3,0.3,2.1,1.6,2.9,1.4c2.5,0.1,12.8,8.1,13.5,9.6c7.3,0.5,6.8-1.7,11.8-3.8c1.4-0.5,2.5,0,3.4-0.9c0.9-0.9,1-2.9,2-3.8
		C128.4,100.8,103.8,83.7,85.6,83z M56.7,87.2c-1,1-3.8,1.4-4.6,2.7c-1.2,1.9-3.9,6.2-6.1,8.2c-6.9,6.6-21.9,9.9-29.2,3.6
		c-0.5,0-0.3,0.3,0.4,2.1c0.5,3.4,3.3,11.5,2.2,13.5c0.7,2.3,1.3,1.4,2.6,2.7c0.9,0.8,1.2,3.1,2.2,3.6c1.2-0.1,2.2-0.1,3.4-0.3
		c0.3,0.7,0.4,1.3,0.7,1.8c1.4-0.1,2.9-0.3,4.3-0.3c0.8,0.1,3.3,1.4,3.9,1.7c1.6-0.1,3.3-0.3,4.8-0.4c3.6,0.9,6.9-0.5,9.9-2.6
		c1.7-1.2,3.6-1,5.1-2.3c2.2-2,5.2-5.6,6.6-8.2c3.5-6.3,2.3-21.4-0.9-25C60.8,86.8,59.4,86.8,56.7,87.2z"/>
</g>
<g>
	<path class="st1" d="M233.1,46.1c15.1,0,25.4,9.5,25.4,26.7c0,21.5-14.1,27.9-28.8,27.9H210c0.1-1.2,0-4.4,0-8.3V54.5
		c0-4,0.1-6.5,0-8.3h23v-0.1H233.1z M228.6,90.3c8.3,0,15.1-2.7,15.1-17.4c0-12.5-6.8-16.7-15.1-16.7h-4.4v34.2h4.4V90.3z"/>
	<path class="st1" d="M279.9,92.3c0,4,0.1,8.3,0.1,8.3h-14.6c0,0,0.1-4.4,0.1-8.3V54.5c0-4-0.1-8.3-0.1-8.3H300v10.4
		c0,0-7.7-0.3-10.3-0.3h-9.8v10.9l9.8,0.1c1.8,0,8.2-0.1,8.2-0.1v10c0,0-5.6-0.1-8.2-0.1h-9.8L279.9,92.3L279.9,92.3z"/>
	<path class="st1" d="M180.9,89.7c-6.9,0-12.1-4.7-12.1-11.8v-0.7c0,0,12.8-0.3,17.1-0.3c7.4,0,10.4-0.1,16.1-0.1c0-1,0-4.2,0-4.2
		C202,54,194.1,45,177.9,45c-7.4,0-24.9,2.9-24.9,28.8c0,17.3,8.7,27.7,24.1,27.7c12,0,19.4-3.1,24.7-6.9c-0.7-0.9-5.1-9-5.7-9.9
		C193,87.2,187.6,89.7,180.9,89.7z M168.6,66.8c0.3-3.1,1.3-10.5,9.2-10.5c8.2,0,8.6,6.9,8.6,10.5v0.8c0,0-5.5,0.1-8.7,0.1
		s-9.2-0.1-9.2-0.1L168.6,66.8z"/>
</g>
</svg>
