<?xml version="1.0" encoding="utf-8"?>
<!-- Generator: Adobe Illustrator 20.1.0, SVG Export Plug-In . SVG Version: 6.00 Build 0)  -->
<svg version="1.1" id="Layer_1" xmlns="http://www.w3.org/2000/svg" xmlns:xlink="http://www.w3.org/1999/xlink" x="0px" y="0px"
	 viewBox="0 0 348.9 108.8" style="enable-background:new 0 0 348.9 108.8;" xml:space="preserve">
<style type="text/css">
	.st0{clip-path:url(#SVGID_2_);}
	.st1{clip-path:url(#SVGID_4_);fill:url(#SVGID_5_);}
	.st2{clip-path:url(#SVGID_7_);fill:url(#SVGID_8_);}
	.st3{clip-path:url(#SVGID_10_);fill:url(#SVGID_11_);}
	.st4{clip-path:url(#SVGID_13_);fill:url(#SVGID_14_);}
	.st5{clip-path:url(#SVGID_16_);fill:url(#SVGID_17_);}
	.st6{clip-path:url(#SVGID_19_);fill:url(#SVGID_20_);}
	.st7{filter:url(#Adobe_OpacityMaskFilter);}
	.st8{clip-path:url(#SVGID_22_);}
	.st9{enable-background:new    ;}
	.st10{clip-path:url(#SVGID_25_);fill:url(#SVGID_26_);}
	.st11{clip-path:url(#SVGID_22_);mask:url(#SVGID_23_);}
	.st12{clip-path:url(#SVGID_28_);}
	.st13{clip-path:url(#SVGID_30_);fill:url(#SVGID_31_);}
	.st14{clip-path:url(#SVGID_33_);fill:url(#SVGID_34_);}
	.st15{clip-path:url(#SVGID_36_);fill:url(#SVGID_37_);}
	.st16{clip-path:url(#SVGID_39_);fill:url(#SVGID_40_);}
	.st17{clip-path:url(#SVGID_42_);fill:url(#SVGID_43_);}
	.st18{clip-path:url(#SVGID_45_);fill:url(#SVGID_46_);}
	.st19{clip-path:url(#SVGID_48_);fill:url(#SVGID_49_);}
	.st20{filter:url(#Adobe_OpacityMaskFilter_1_);}
	.st21{clip-path:url(#SVGID_51_);}
	.st22{clip-path:url(#SVGID_54_);fill:url(#SVGID_55_);}
	.st23{clip-path:url(#SVGID_51_);mask:url(#SVGID_52_);}
	.st24{clip-path:url(#SVGID_57_);}
	.st25{clip-path:url(#SVGID_59_);fill:url(#SVGID_60_);}
	.st26{clip-path:url(#SVGID_62_);fill:url(#SVGID_63_);}
	.st27{filter:url(#Adobe_OpacityMaskFilter_2_);}
	.st28{clip-path:url(#SVGID_65_);}
	.st29{clip-path:url(#SVGID_68_);fill:url(#SVGID_69_);}
	.st30{clip-path:url(#SVGID_65_);mask:url(#SVGID_66_);}
	.st31{clip-path:url(#SVGID_71_);}
	.st32{clip-path:url(#SVGID_73_);fill:url(#SVGID_74_);}
	.st33{clip-path:url(#SVGID_76_);fill:url(#SVGID_77_);}
	.st34{filter:url(#Adobe_OpacityMaskFilter_3_);}
	.st35{clip-path:url(#SVGID_79_);}
	.st36{clip-path:url(#SVGID_79_);fill:url(#SVGID_81_);}
	.st37{clip-path:url(#SVGID_79_);mask:url(#SVGID_80_);}
	.st38{clip-path:url(#SVGID_83_);}
	.st39{clip-path:url(#SVGID_85_);fill:url(#SVGID_86_);}
	.st40{filter:url(#Adobe_OpacityMaskFilter_4_);}
	.st41{clip-path:url(#SVGID_88_);}
	.st42{clip-path:url(#SVGID_91_);fill:url(#SVGID_92_);}
	.st43{clip-path:url(#SVGID_88_);mask:url(#SVGID_89_);}
	.st44{clip-path:url(#SVGID_94_);}
	.st45{clip-path:url(#SVGID_96_);fill:url(#SVGID_97_);}
	.st46{clip-path:url(#SVGID_2_);fill:#B2B3AD;}
</style>
<g>
	<defs>
		<rect id="SVGID_1_" x="10.4" width="300" height="108.8"/>
	</defs>
	<clipPath id="SVGID_2_">
		<use xlink:href="#SVGID_1_"  style="overflow:visible;"/>
	</clipPath>
	<g class="st0">
		<defs>
			<path id="SVGID_3_" d="M72.6,46.4c3.8,3.7,6.5,8.4,7.9,13.6h12.7c-1.5-8.7-5.8-16.5-11.9-22.5L72.6,46.4z"/>
		</defs>
		<clipPath id="SVGID_4_">
			<use xlink:href="#SVGID_3_"  style="overflow:visible;"/>
		</clipPath>
		
			<linearGradient id="SVGID_5_" gradientUnits="userSpaceOnUse" x1="18.242" y1="106.1001" x2="19.2983" y2="106.1001" gradientTransform="matrix(8.6886 16.5874 -16.5874 8.6886 1680.3593 -1183.1639)">
			<stop  offset="0" style="stop-color:#EE2E24"/>
			<stop  offset="1" style="stop-color:#ED1C24"/>
		</linearGradient>
		<polygon class="st1" points="63.4,42.4 77,68.5 102.4,55.2 88.7,29.1 		"/>
	</g>
	<g class="st0">
		<defs>
			<path id="SVGID_6_" d="M51.8,25.7l0.1,12.4c0.1,0,0.2,0,0.3,0c8,0,15.3,3.2,20.6,8.5l8.8-8.8C74,30.3,63.6,25.7,52.2,25.7
				C52,25.7,51.9,25.7,51.8,25.7"/>
		</defs>
		<clipPath id="SVGID_7_">
			<use xlink:href="#SVGID_6_"  style="overflow:visible;"/>
		</clipPath>
		
			<linearGradient id="SVGID_8_" gradientUnits="userSpaceOnUse" x1="18.1551" y1="105.9537" x2="19.2114" y2="105.9537" gradientTransform="matrix(23.3578 10.0427 -10.0427 23.3578 692.7031 -2627.0491)">
			<stop  offset="0" style="stop-color:#EE3124"/>
			<stop  offset="1" style="stop-color:#EE2E24"/>
		</linearGradient>
		<polygon class="st2" points="44.2,43.3 76.9,57.4 89.1,28.9 56.4,14.9 		"/>
	</g>
	<g class="st0">
		<defs>
			<path id="SVGID_9_" d="M22.6,38.1l8.8,8.7c5.3-5.4,12.6-8.7,20.8-8.7V25.7C40.6,25.7,30.1,30.4,22.6,38.1"/>
		</defs>
		<clipPath id="SVGID_10_">
			<use xlink:href="#SVGID_9_"  style="overflow:visible;"/>
		</clipPath>
		
			<linearGradient id="SVGID_11_" gradientUnits="userSpaceOnUse" x1="18.5671" y1="106.0547" x2="19.6235" y2="106.0547" gradientTransform="matrix(-23.2449 10.7198 -10.7198 -23.2449 1619.9666 2295.9133)">
			<stop  offset="0" style="stop-color:#EE3124"/>
			<stop  offset="1" style="stop-color:#EF3B24"/>
		</linearGradient>
		<polygon class="st3" points="47,14.4 14.5,29.4 27.8,58 60.2,43.1 		"/>
	</g>
	<g class="st0">
		<defs>
			<path id="SVGID_12_" d="M10.7,67.2c0,0.1,0,0.2,0,0.4l12.4-0.1c0-0.1,0-0.2,0-0.3c0-8,3.3-15.3,8.5-20.6l-8.8-8.8
				C15.3,45.3,10.7,55.7,10.7,67.2"/>
		</defs>
		<clipPath id="SVGID_13_">
			<use xlink:href="#SVGID_12_"  style="overflow:visible;"/>
		</clipPath>
		
			<linearGradient id="SVGID_14_" gradientUnits="userSpaceOnUse" x1="18.4706" y1="106.1893" x2="19.5269" y2="106.1893" gradientTransform="matrix(-9.7042 22.9064 -22.9064 -9.7042 2637.3596 649.2783)">
			<stop  offset="0" style="stop-color:#EF3B24"/>
			<stop  offset="1" style="stop-color:#F04E26"/>
		</linearGradient>
		<polygon class="st4" points="13.9,30.3 0,63 28.4,75 42.2,42.4 		"/>
	</g>
	<g class="st0">
		<defs>
			<path id="SVGID_15_" d="M10.7,67.2L10.7,67.2c0,11.6,4.8,22.1,12.4,29.6l8.7-8.8c-5.4-5.3-8.7-12.6-8.7-20.8H10.7z"/>
		</defs>
		<clipPath id="SVGID_16_">
			<use xlink:href="#SVGID_15_"  style="overflow:visible;"/>
		</clipPath>
		
			<linearGradient id="SVGID_17_" gradientUnits="userSpaceOnUse" x1="18.2935" y1="106.1947" x2="19.3498" y2="106.1947" gradientTransform="matrix(10.1556 24.1477 -24.1477 10.1556 2393.865 -1452.3225)">
			<stop  offset="0" style="stop-color:#F04E26"/>
			<stop  offset="1" style="stop-color:#F05326"/>
		</linearGradient>
		<polygon class="st5" points="0.1,71.6 13.8,104.3 42.3,92.3 28.6,59.6 		"/>
	</g>
	<g class="st0">
		<defs>
			<path id="SVGID_18_" d="M22.8,96.5c7.5,7.5,17.9,12.2,29.3,12.2c0.1,0,0.2,0,0.4,0l-0.1-12.4c-0.1,0-0.2,0-0.3,0
				c-8,0-15.3-3.3-20.6-8.5L22.8,96.5z"/>
		</defs>
		<clipPath id="SVGID_19_">
			<use xlink:href="#SVGID_18_"  style="overflow:visible;"/>
		</clipPath>
		
			<linearGradient id="SVGID_20_" gradientUnits="userSpaceOnUse" x1="18.1504" y1="106.093" x2="19.2067" y2="106.093" gradientTransform="matrix(23.4706 9.2528 -9.2528 23.4706 582.3423 -2564.1294)">
			<stop  offset="0" style="stop-color:#F05326"/>
			<stop  offset="1" style="stop-color:#F2612C"/>
		</linearGradient>
		<polygon class="st6" points="15.7,105.9 48.5,118.8 59.7,90.6 26.8,77.6 		"/>
	</g>
	<g class="st0">
		<defs>
			<path id="SVGID_21_" d="M52.2,96.3v12.4c13.4,0,25.3-6.4,32.9-16.2l-9.8-7.5C69.9,91.8,61.6,96.3,52.2,96.3"/>
		</defs>
		<clipPath id="SVGID_22_">
			<use xlink:href="#SVGID_21_"  style="overflow:visible;"/>
		</clipPath>
		<defs>
			<filter id="Adobe_OpacityMaskFilter" filterUnits="userSpaceOnUse" x="11.9" y="40.1" width="113.4" height="113.4">
				<feColorMatrix  type="matrix" values="1 0 0 0 0  0 1 0 0 0  0 0 1 0 0  0 0 0 1 0"/>
			</filter>
		</defs>
		<mask maskUnits="userSpaceOnUse" x="11.9" y="40.1" width="113.4" height="113.4" id="SVGID_23_">
			<g class="st7">
				<rect x="40.3" y="68.4" class="st8" width="56.7" height="56.7"/>
				<g class="st9">
					<g>
						<defs>
							
								<rect id="SVGID_24_" x="48.6" y="76.7" transform="matrix(0.7045 -0.7097 0.7097 0.7045 -48.4104 77.3036)" width="40.1" height="40.1"/>
						</defs>
						<clipPath id="SVGID_25_" class="st8">
							<use xlink:href="#SVGID_24_"  style="overflow:visible;"/>
						</clipPath>
						
							<linearGradient id="SVGID_26_" gradientUnits="userSpaceOnUse" x1="18.1814" y1="105.8512" x2="19.2377" y2="105.8512" gradientTransform="matrix(21.3545 -21.5139 21.5139 21.3545 -2610.7756 -1758.4836)">
							<stop  offset="0" style="stop-color:#FFFFFF"/>
							<stop  offset="0.27" style="stop-color:#FFFFFF"/>
							<stop  offset="0.3333" style="stop-color:#F2F3F3"/>
							<stop  offset="0.4459" style="stop-color:#D9DADC"/>
							<stop  offset="0.5948" style="stop-color:#B0B2B4"/>
							<stop  offset="0.7742" style="stop-color:#7C7D80"/>
							<stop  offset="0.9775" style="stop-color:#222222"/>
							<stop  offset="1" style="stop-color:#000000"/>
						</linearGradient>
						<polygon class="st10" points="68.8,153.5 125.3,96.6 68.4,40.1 11.9,97 						"/>
					</g>
				</g>
			</g>
		</mask>
		<g class="st11">
			<g>
				<defs>
					<rect id="SVGID_27_" x="40.3" y="68.4" width="56.7" height="56.7"/>
				</defs>
				<clipPath id="SVGID_28_">
					<use xlink:href="#SVGID_27_"  style="overflow:visible;"/>
				</clipPath>
				<g class="st12">
					<defs>
						
							<rect id="SVGID_29_" x="48.6" y="76.7" transform="matrix(0.7045 -0.7097 0.7097 0.7045 -48.4104 77.3036)" width="40.1" height="40.1"/>
					</defs>
					<clipPath id="SVGID_30_">
						<use xlink:href="#SVGID_29_"  style="overflow:visible;"/>
					</clipPath>
					
						<linearGradient id="SVGID_31_" gradientUnits="userSpaceOnUse" x1="18.1814" y1="105.8512" x2="19.2377" y2="105.8512" gradientTransform="matrix(21.3545 -21.5139 21.5139 21.3545 -2610.7756 -1758.4836)">
						<stop  offset="0" style="stop-color:#F2612C"/>
						<stop  offset="0.27" style="stop-color:#F2612C"/>
						<stop  offset="1" style="stop-color:#F15F2B"/>
					</linearGradient>
					<polygon class="st13" points="68.8,153.5 125.3,96.6 68.4,40.1 11.9,97 					"/>
				</g>
			</g>
		</g>
	</g>
	<g class="st0">
		<defs>
			<path id="SVGID_32_" d="M253.5,46.4c3.8,3.7,6.6,8.4,7.9,13.6H274c-1.5-8.7-5.8-16.5-11.9-22.5L253.5,46.4z"/>
		</defs>
		<clipPath id="SVGID_33_">
			<use xlink:href="#SVGID_32_"  style="overflow:visible;"/>
		</clipPath>
		
			<linearGradient id="SVGID_34_" gradientUnits="userSpaceOnUse" x1="18.1805" y1="106.2479" x2="19.2369" y2="106.2479" gradientTransform="matrix(-7.3566 -12.6441 12.6441 -7.3566 -941.7407 1067.4973)">
			<stop  offset="0" style="stop-color:#0077C0"/>
			<stop  offset="1" style="stop-color:#007EC5"/>
		</linearGradient>
		<polygon class="st14" points="283.8,54.3 268.8,28.6 243.7,43.2 258.6,68.9 		"/>
	</g>
	<g class="st0">
		<defs>
			<path id="SVGID_35_" d="M232.7,25.7l0.1,12.4c0.1,0,0.2,0,0.3,0c8,0,15.3,3.2,20.6,8.5l8.8-8.8c-7.5-7.5-17.9-12.1-29.4-12.1
				C232.9,25.7,232.8,25.7,232.7,25.7"/>
		</defs>
		<clipPath id="SVGID_36_">
			<use xlink:href="#SVGID_35_"  style="overflow:visible;"/>
		</clipPath>
		
			<linearGradient id="SVGID_37_" gradientUnits="userSpaceOnUse" x1="18.1726" y1="106.039" x2="19.229" y2="106.039" gradientTransform="matrix(-19.4642 -8.0462 8.0462 -19.4642 -243.267 2249.9072)">
			<stop  offset="0" style="stop-color:#007EC5"/>
			<stop  offset="1" style="stop-color:#008ACE"/>
		</linearGradient>
		<polygon class="st15" points="269.8,28.7 237,15.2 225.3,43.5 258.1,57.1 		"/>
	</g>
	<g class="st0">
		<defs>
			<path id="SVGID_38_" d="M203.4,38.1l8.8,8.7c5.3-5.4,12.6-8.7,20.8-8.7V25.7C221.4,25.7,211,30.4,203.4,38.1"/>
		</defs>
		<clipPath id="SVGID_39_">
			<use xlink:href="#SVGID_38_"  style="overflow:visible;"/>
		</clipPath>
		
			<linearGradient id="SVGID_40_" gradientUnits="userSpaceOnUse" x1="18.5094" y1="105.9274" x2="19.5657" y2="105.9274" gradientTransform="matrix(19.6175 -8.3528 8.3528 19.6175 -1038.5747 -1883.4017)">
			<stop  offset="0" style="stop-color:#0095D1"/>
			<stop  offset="1" style="stop-color:#008ACE"/>
		</linearGradient>
		<polygon class="st16" points="208,57.4 240.6,43.5 228.5,15 195.8,28.9 		"/>
	</g>
	<g class="st0">
		<defs>
			<path id="SVGID_41_" d="M191.5,67.2c0,0.1,0,0.2,0,0.4l12.4-0.1c0-0.1,0-0.2,0-0.3c0-8,3.3-15.3,8.5-20.6l-8.8-8.8
				C196.2,45.3,191.5,55.7,191.5,67.2"/>
		</defs>
		<clipPath id="SVGID_42_">
			<use xlink:href="#SVGID_41_"  style="overflow:visible;"/>
		</clipPath>
		
			<linearGradient id="SVGID_43_" gradientUnits="userSpaceOnUse" x1="18.3956" y1="106.0084" x2="19.4519" y2="106.0084" gradientTransform="matrix(8.0462 -19.3109 19.3109 8.0462 -1997.968 -433.4751)">
			<stop  offset="0" style="stop-color:#00A0D7"/>
			<stop  offset="1" style="stop-color:#0095D1"/>
		</linearGradient>
		<polygon class="st17" points="209.3,75 223,42.2 194.6,30.4 181,63.1 		"/>
	</g>
	<g class="st0">
		<defs>
			<path id="SVGID_44_" d="M191.5,67.2L191.5,67.2c0,11.6,4.7,22.1,12.4,29.6l8.7-8.8c-5.4-5.3-8.7-12.6-8.7-20.8H191.5z"/>
		</defs>
		<clipPath id="SVGID_45_">
			<use xlink:href="#SVGID_44_"  style="overflow:visible;"/>
		</clipPath>
		
			<linearGradient id="SVGID_46_" gradientUnits="userSpaceOnUse" x1="18.4558" y1="105.8438" x2="19.5121" y2="105.8438" gradientTransform="matrix(8.3528 19.4642 -19.4642 8.3528 2103.0569 -1173.0551)">
			<stop  offset="0" style="stop-color:#00A0D7"/>
			<stop  offset="1" style="stop-color:#00ACDC"/>
		</linearGradient>
		<polygon class="st18" points="180.8,71.8 194.8,104.4 223.3,92.2 209.3,59.5 		"/>
	</g>
	<g class="st0">
		<defs>
			<path id="SVGID_47_" d="M203.7,96.5c7.5,7.5,17.9,12.2,29.3,12.2c0.1,0,0.2,0,0.4,0l-0.1-12.4c-0.1,0-0.2,0-0.3,0
				c-8,0-15.3-3.3-20.6-8.5L203.7,96.5z"/>
		</defs>
		<clipPath id="SVGID_48_">
			<use xlink:href="#SVGID_47_"  style="overflow:visible;"/>
		</clipPath>
		
			<linearGradient id="SVGID_49_" gradientUnits="userSpaceOnUse" x1="18.5104" y1="105.9539" x2="19.5667" y2="105.9539" gradientTransform="matrix(22.7866 9.3218 -9.3218 22.7866 773.8247 -2493.0022)">
			<stop  offset="0" style="stop-color:#00ACDC"/>
			<stop  offset="1" style="stop-color:#60C4E5"/>
		</linearGradient>
		<polygon class="st19" points="196.4,105.7 229.1,119.1 240.7,90.8 207.9,77.4 		"/>
	</g>
	<g class="st0">
		<defs>
			<path id="SVGID_50_" d="M233,96.3v12.4c13.4,0,25.3-6.4,32.9-16.2l-9.8-7.5C250.8,91.8,242.4,96.3,233,96.3"/>
		</defs>
		<clipPath id="SVGID_51_">
			<use xlink:href="#SVGID_50_"  style="overflow:visible;"/>
		</clipPath>
		<defs>
			<filter id="Adobe_OpacityMaskFilter_1_" filterUnits="userSpaceOnUse" x="193.1" y="40.4" width="112.9" height="112.9">
				<feColorMatrix  type="matrix" values="1 0 0 0 0  0 1 0 0 0  0 0 1 0 0  0 0 0 1 0"/>
			</filter>
		</defs>
		<mask maskUnits="userSpaceOnUse" x="193.1" y="40.4" width="112.9" height="112.9" id="SVGID_52_">
			<g class="st20">
				<rect x="221.2" y="68.5" class="st21" width="56.6" height="56.5"/>
				<g class="st9">
					<g>
						<defs>
							
								<rect id="SVGID_53_" x="229.6" y="76.6" transform="matrix(0.672 -0.7405 0.7405 0.672 10.1559 216.4997)" width="39.7" height="40.4"/>
						</defs>
						<clipPath id="SVGID_54_" class="st21">
							<use xlink:href="#SVGID_53_"  style="overflow:visible;"/>
						</clipPath>
						
							<linearGradient id="SVGID_55_" gradientUnits="userSpaceOnUse" x1="18.3915" y1="106.0587" x2="19.4478" y2="106.0587" gradientTransform="matrix(23.0839 -25.4394 25.4394 23.0839 -2888.4624 -1866.6968)">
							<stop  offset="0" style="stop-color:#FFFFFF"/>
							<stop  offset="0.27" style="stop-color:#FFFFFF"/>
							<stop  offset="0.3333" style="stop-color:#F2F3F3"/>
							<stop  offset="0.4459" style="stop-color:#D9DADC"/>
							<stop  offset="0.5948" style="stop-color:#B0B2B4"/>
							<stop  offset="0.7742" style="stop-color:#7C7D80"/>
							<stop  offset="0.9775" style="stop-color:#222222"/>
							<stop  offset="1" style="stop-color:#000000"/>
						</linearGradient>
						<polygon class="st22" points="252.2,153.2 305.9,94 246.7,40.4 193.1,99.5 						"/>
					</g>
				</g>
			</g>
		</mask>
		<g class="st23">
			<g>
				<defs>
					<rect id="SVGID_56_" x="221.2" y="68.5" width="56.6" height="56.5"/>
				</defs>
				<clipPath id="SVGID_57_">
					<use xlink:href="#SVGID_56_"  style="overflow:visible;"/>
				</clipPath>
				<g class="st24">
					<defs>
						
							<rect id="SVGID_58_" x="229.6" y="76.6" transform="matrix(0.672 -0.7406 0.7406 0.672 10.1591 216.5062)" width="39.7" height="40.4"/>
					</defs>
					<clipPath id="SVGID_59_">
						<use xlink:href="#SVGID_58_"  style="overflow:visible;"/>
					</clipPath>
					
						<linearGradient id="SVGID_60_" gradientUnits="userSpaceOnUse" x1="18.3915" y1="106.059" x2="19.4478" y2="106.059" gradientTransform="matrix(23.0839 -25.4394 25.4394 23.0839 -2888.4592 -1866.7108)">
						<stop  offset="0" style="stop-color:#60C4E5"/>
						<stop  offset="0.27" style="stop-color:#60C4E5"/>
						<stop  offset="1" style="stop-color:#60C4E5"/>
					</linearGradient>
					<polygon class="st25" points="252.2,153.2 305.9,94 246.7,40.4 193.1,99.5 					"/>
				</g>
			</g>
		</g>
	</g>
	<g class="st0">
		<defs>
			<rect id="SVGID_61_" x="286.4" y="43.5" width="12.4" height="37.4"/>
		</defs>
		<clipPath id="SVGID_62_">
			<use xlink:href="#SVGID_61_"  style="overflow:visible;"/>
		</clipPath>
		
			<linearGradient id="SVGID_63_" gradientUnits="userSpaceOnUse" x1="18.3665" y1="105.7116" x2="19.4229" y2="105.7116" gradientTransform="matrix(0 35.1625 -35.1625 0 4009.6484 -602.0485)">
			<stop  offset="0" style="stop-color:#00A775"/>
			<stop  offset="1" style="stop-color:#6CC071"/>
		</linearGradient>
		<rect x="286.4" y="43.5" class="st26" width="12.4" height="37.4"/>
	</g>
	<g class="st0">
		<defs>
			<path id="SVGID_64_" d="M286.4,80.7c0,13.1,6.1,20.9,16.7,27.9l7.1-10.2c-7.2-4.9-11.3-8.8-11.3-17.7H286.4z"/>
		</defs>
		<clipPath id="SVGID_65_">
			<use xlink:href="#SVGID_64_"  style="overflow:visible;"/>
		</clipPath>
		<defs>
			<filter id="Adobe_OpacityMaskFilter_2_" filterUnits="userSpaceOnUse" x="247.6" y="44" width="101.3" height="101.3">
				<feColorMatrix  type="matrix" values="1 0 0 0 0  0 1 0 0 0  0 0 1 0 0  0 0 0 1 0"/>
			</filter>
		</defs>
		<mask maskUnits="userSpaceOnUse" x="247.6" y="44" width="101.3" height="101.3" id="SVGID_66_">
			<g class="st27">
				<rect x="272.7" y="69.1" class="st28" width="51.1" height="51.2"/>
				<g class="st9">
					<g>
						<defs>
							
								<rect id="SVGID_67_" x="279.9" y="76.6" transform="matrix(0.6362 -0.7715 0.7715 0.6362 35.4618 264.5441)" width="36.6" height="36"/>
						</defs>
						<clipPath id="SVGID_68_" class="st28">
							<use xlink:href="#SVGID_67_"  style="overflow:visible;"/>
						</clipPath>
						
							<linearGradient id="SVGID_69_" gradientUnits="userSpaceOnUse" x1="18.8786" y1="105.6962" x2="19.9349" y2="105.6962" gradientTransform="matrix(10.7348 8.8515 -8.8515 10.7348 1029.1619 -1208.6948)">
							<stop  offset="0" style="stop-color:#FFFFFF"/>
							<stop  offset="9.966818e-02" style="stop-color:#F8F8F8"/>
							<stop  offset="0.2234" style="stop-color:#EBEBEC"/>
							<stop  offset="0.36" style="stop-color:#D5D7D8"/>
							<stop  offset="0.5058" style="stop-color:#B8BABC"/>
							<stop  offset="0.659" style="stop-color:#949699"/>
							<stop  offset="0.8183" style="stop-color:#6A6C6E"/>
							<stop  offset="0.9799" style="stop-color:#1E1E1F"/>
							<stop  offset="1" style="stop-color:#000000"/>
						</linearGradient>
						<polygon class="st29" points="247.6,99.5 303.1,145.3 348.9,89.8 293.4,44 						"/>
					</g>
				</g>
			</g>
		</mask>
		<g class="st30">
			<g>
				<defs>
					<rect id="SVGID_70_" x="272.7" y="69.1" width="51.1" height="51.2"/>
				</defs>
				<clipPath id="SVGID_71_">
					<use xlink:href="#SVGID_70_"  style="overflow:visible;"/>
				</clipPath>
				<g class="st31">
					<defs>
						
							<rect id="SVGID_72_" x="279.9" y="76.6" transform="matrix(0.6362 -0.7715 0.7715 0.6362 35.4618 264.5441)" width="36.6" height="36"/>
					</defs>
					<clipPath id="SVGID_73_">
						<use xlink:href="#SVGID_72_"  style="overflow:visible;"/>
					</clipPath>
					
						<linearGradient id="SVGID_74_" gradientUnits="userSpaceOnUse" x1="18.8786" y1="105.6962" x2="19.9349" y2="105.6962" gradientTransform="matrix(10.7348 8.8515 -8.8515 10.7348 1029.1619 -1208.6946)">
						<stop  offset="0" style="stop-color:#6CC071"/>
						<stop  offset="1" style="stop-color:#6CC071"/>
					</linearGradient>
					<polygon class="st32" points="247.6,99.5 303.1,145.3 348.9,89.8 293.4,44 					"/>
				</g>
			</g>
		</g>
	</g>
	<g class="st0">
		<defs>
			<path id="SVGID_75_" d="M117.9,37v25.1c1.9-9.9,10.7-24.1,27.6-24.1c0.3,0,0.6,0,0.9,0V25.7c-0.3,0-0.6,0-0.9,0
				C134.7,25.7,125,30,117.9,37"/>
		</defs>
		<clipPath id="SVGID_76_">
			<use xlink:href="#SVGID_75_"  style="overflow:visible;"/>
		</clipPath>
		
			<linearGradient id="SVGID_77_" gradientUnits="userSpaceOnUse" x1="18.2993" y1="105.8912" x2="19.3556" y2="105.8912" gradientTransform="matrix(26.9713 0 0 26.9713 -375.6638 -2812.1072)">
			<stop  offset="0" style="stop-color:#ED0C6E"/>
			<stop  offset="4.699710e-03" style="stop-color:#ED0C6E"/>
			<stop  offset="0.9957" style="stop-color:#E8558E"/>
			<stop  offset="1" style="stop-color:#E8558E"/>
		</linearGradient>
		<rect x="117.9" y="25.7" class="st33" width="28.5" height="36.5"/>
	</g>
	<g class="st0">
		<defs>
			<path id="SVGID_78_" d="M145.8,38.1c11.9,0.2,21.7,9.7,21.7,21.9v4.1h12.4V60c0-19-15.3-34.1-34.1-34.3V38.1z"/>
		</defs>
		<clipPath id="SVGID_79_">
			<use xlink:href="#SVGID_78_"  style="overflow:visible;"/>
		</clipPath>
		<defs>
			<filter id="Adobe_OpacityMaskFilter_3_" filterUnits="userSpaceOnUse" x="145.8" y="25.7" width="34.1" height="38.4">
				<feColorMatrix  type="matrix" values="1 0 0 0 0  0 1 0 0 0  0 0 1 0 0  0 0 0 1 0"/>
			</filter>
		</defs>
		<mask maskUnits="userSpaceOnUse" x="145.8" y="25.7" width="34.1" height="38.4" id="SVGID_80_">
			<g class="st34">
				<rect x="145.8" y="25.7" class="st35" width="34.1" height="38.4"/>
				<g class="st9">
					
						<linearGradient id="SVGID_81_" gradientUnits="userSpaceOnUse" x1="18.3474" y1="105.9057" x2="19.4037" y2="105.9057" gradientTransform="matrix(0 20.7501 -20.7501 0 2360.4092 -340.0338)">
						<stop  offset="0" style="stop-color:#FFFFFF"/>
						<stop  offset="2.104190e-02" style="stop-color:#FFFFFF"/>
						<stop  offset="1" style="stop-color:#000000"/>
					</linearGradient>
					<rect x="145.8" y="25.7" class="st36" width="34.1" height="38.4"/>
				</g>
			</g>
		</mask>
		<g class="st37">
			<g>
				<defs>
					<rect id="SVGID_82_" x="145.8" y="25.7" width="34.1" height="38.4"/>
				</defs>
				<clipPath id="SVGID_83_">
					<use xlink:href="#SVGID_82_"  style="overflow:visible;"/>
				</clipPath>
				<g class="st38">
					<defs>
						<rect id="SVGID_84_" x="145.8" y="25.7" width="34.1" height="38.4"/>
					</defs>
					<clipPath id="SVGID_85_">
						<use xlink:href="#SVGID_84_"  style="overflow:visible;"/>
					</clipPath>
					
						<linearGradient id="SVGID_86_" gradientUnits="userSpaceOnUse" x1="18.3474" y1="105.9057" x2="19.4037" y2="105.9057" gradientTransform="matrix(0 20.7501 -20.7501 0 2360.4092 -340.0345)">
						<stop  offset="0" style="stop-color:#E8558E"/>
						<stop  offset="2.104190e-02" style="stop-color:#E8558E"/>
						<stop  offset="1" style="stop-color:#E8558E"/>
					</linearGradient>
					<rect x="145.8" y="25.7" class="st39" width="34.1" height="38.4"/>
				</g>
			</g>
		</g>
	</g>
	<g class="st0">
		<defs>
			<path id="SVGID_87_" d="M167.5,64.1h12.4H167.5z"/>
		</defs>
		<clipPath id="SVGID_88_">
			<use xlink:href="#SVGID_87_"  style="overflow:visible;"/>
		</clipPath>
		<defs>
			<filter id="Adobe_OpacityMaskFilter_4_" filterUnits="userSpaceOnUse" x="167.3" y="61.7" width="12.9" height="4.8">
				<feColorMatrix  type="matrix" values="1 0 0 0 0  0 1 0 0 0  0 0 1 0 0  0 0 0 1 0"/>
			</filter>
		</defs>
		<mask maskUnits="userSpaceOnUse" x="167.3" y="61.7" width="12.9" height="4.8" id="SVGID_89_">
			<g class="st40">
				<rect x="167.5" y="62.9" class="st41" width="12.4" height="2.4"/>
				<g class="st9">
					<g>
						<defs>
							
								<rect id="SVGID_90_" x="167.5" y="63.5" transform="matrix(0.9952 -9.777451e-02 9.777451e-02 0.9952 -5.432 17.2891)" width="12.3" height="1.2"/>
						</defs>
						<clipPath id="SVGID_91_" class="st41">
							<use xlink:href="#SVGID_90_"  style="overflow:visible;"/>
						</clipPath>
						
							<linearGradient id="SVGID_92_" gradientUnits="userSpaceOnUse" x1="18.423" y1="105.8048" x2="19.4793" y2="105.8048" gradientTransform="matrix(0.5969 6.0813 -6.0813 0.5969 805.5093 -117.3954)">
							<stop  offset="0" style="stop-color:#FFFFFF"/>
							<stop  offset="1" style="stop-color:#000000"/>
						</linearGradient>
						<polygon class="st42" points="167.3,62.9 167.6,66.5 180.1,65.2 179.8,61.7 						"/>
					</g>
				</g>
			</g>
		</mask>
		<g class="st43">
			<g>
				<defs>
					<rect id="SVGID_93_" x="167.5" y="62.9" width="12.4" height="2.4"/>
				</defs>
				<clipPath id="SVGID_94_">
					<use xlink:href="#SVGID_93_"  style="overflow:visible;"/>
				</clipPath>
				<g class="st44">
					<defs>
						
							<rect id="SVGID_95_" x="167.5" y="63.5" transform="matrix(0.9952 -9.777451e-02 9.777451e-02 0.9952 -5.432 17.2891)" width="12.3" height="1.2"/>
					</defs>
					<clipPath id="SVGID_96_">
						<use xlink:href="#SVGID_95_"  style="overflow:visible;"/>
					</clipPath>
					
						<linearGradient id="SVGID_97_" gradientUnits="userSpaceOnUse" x1="18.423" y1="105.805" x2="19.4793" y2="105.805" gradientTransform="matrix(0.5969 6.0813 -6.0813 0.5969 805.5103 -117.3963)">
						<stop  offset="0" style="stop-color:#EF548E"/>
						<stop  offset="1" style="stop-color:#EF548E"/>
					</linearGradient>
					<polygon class="st45" points="167.3,62.9 167.6,66.5 180.1,65.2 179.8,61.7 					"/>
				</g>
			</g>
		</g>
	</g>
	<rect x="105.5" y="29.1" class="st46" width="12.4" height="43.3"/>
	<rect x="286.4" y="0.1" class="st46" width="12.4" height="43.3"/>
	<rect x="167.5" y="64.1" class="st46" width="12.4" height="43.3"/>
	<rect x="49.8" y="60" class="st46" width="43.3" height="12.4"/>
	<rect x="230.6" y="60" class="st46" width="43.3" height="12.4"/>
</g>
</svg>
