<?xml version="1.0" encoding="utf-8"?>
<!-- Generator: Adobe Illustrator 20.0.0, SVG Export Plug-In . SVG Version: 6.00 Build 0)  -->
<svg version="1.1" id="Layer_1" xmlns="http://www.w3.org/2000/svg" xmlns:xlink="http://www.w3.org/1999/xlink" x="0px" y="0px"
	 viewBox="0 0 300 366.9" style="enable-background:new 0 0 300 366.9;" xml:space="preserve">
<style type="text/css">
	.st0{fill:#FFD520;}
	.st1{fill:#231F20;}
	.st2{fill:#CE1141;}
</style>
<path class="st0" d="M288.7,366.7c6.3,0,11.3-5,11.3-11.3V128c0-6.2-5-11.3-11.3-11.3H11.3C5,116.7,0,121.8,0,128v227.4
	c0,6.3,5,11.3,11.3,11.3H288.7z"/>
<path class="st1" d="M41.3,322.4c0.4-23.8,14.1-41.7,36.5-41.7c16.3,0,26.6,8.7,28.8,23.4c1.6,11.3-0.4,18.3-13.5,18.1L47,324.4
	c1,31.9,21.8,42.3,47.2,42.1h16.1l-0.2-7.3H94.6c-23.4-0.6-36.7-10.7-37.3-28.6l42.7-2.2c9.1-0.4,15.5-4.4,15.5-15.9
	c0-20.4-11.1-39.3-37.5-39.3c-24.2,0-45,17.3-45,49.4c0,18.1,5.8,34.5,18.1,44h14.1C49.8,359.9,40.9,344.6,41.3,322.4z"/>
<path class="st1" d="M146,301.4v65.3h9.7v-62.1c5.2-6.3,14.7-11.1,22-11.1c8.7,0,12.9,3.2,12.9,14.1v59.1h9.3v-60.3
	c0-13.1-6-20.8-21.8-20.8C169.2,285.7,159.1,290.7,146,301.4z"/>
<path class="st1" d="M140.3,298.8c12.9-11.1,26-18.3,39.5-18.3c16.9,0,26.4,8.5,26.2,26v60.3h9.3v-60.3c0.6-19.4-9.3-32.9-33.9-32.9
	c-14.7,0-32.7,7.1-50.4,23v70.4h9.3V298.8z"/>
<path class="st1" d="M247,284.7l6.3-1.4v83.5h8.9v-90.5c0-2.6-1.6-4-4.6-3l-19.4,5.2v88.3h8.9L247,284.7L247,284.7z"/>
<circle class="st1" cx="250" cy="239.9" r="12.5"/>
<path class="st1" d="M100.8,305c-1.8-12.3-9.5-19.4-23.2-19.4c-16.7,0-28.2,13.3-30.4,33.9l44.6-2.2
	C100.4,316.9,102.2,314.1,100.8,305z M92.9,305.6c0,2.6-1.4,4.6-6.2,4.8l-29,1.6c0.8-9.7,8.1-18.5,19.4-18.5
	C89.1,293.5,92.7,300.8,92.9,305.6z"/>
<path class="st2" d="M179.2,28.6c0-1.2-1.6-3.2-2.8-3.8c-7.7-4.4-15.1,1.2-22.8,1.2c-2.8,0-5.6,0.6-7.9-1c0-1.2,1.2-1.6,1.2-2.8
	c-1.8,0-4-0.6-6.2-1c0,0-4.6-0.4-7.7-1.2c-10.5-4.4-20.2-6.7-32.1-1c-3.8,1.6-7.7,3.2-11.7,3.2c-1.8,0,2.8,3.8,2.2,5.6
	c-6.2,1-11.9,2.8-17.3,7.9v0.4c3.8,4.6,9.5,5.4,15.1,5.4c1.8,0,5.4,4.4,14.1,5.6c12.9,2.4,20.6-4.6,29.6-1c-0.6-1.6-0.6-2.6-0.6-3.8
	c10.7,2.8,19.2,2.4,27.4-1.6C167.5,38.9,171,28.2,179.2,28.6"/>
<path class="st1" d="M66.9,30.8l8.5-4.6C77,26.6,77,28,78,29c2.2-0.6,1.2-3.8,2.6-5.4c1.2,0,1.2,1.8,2.2,2.8c2.2,0,1.6-3.4,2.6-5
	c1.2-1.8,4.6-1.2,4-4.4L86.3,2.8c-0.4-1.6-1.2-2.4-1.8-2.2c-11.3,4-20.2,8.3-30.8,11.9c-1,0.4-2.2,0.8-3.4,0.4L32.7,0
	c1,7.5,1.8,14.5,2.6,19c0.2,0.8,0,1.2-0.6,1.2c-3.4,0-6.9,2.4-8.9,6c-3,5-5.6,9.9-10.7,11.9c1,2.2,2.8,3.4,4.6,4
	c1.6,0.6,3.2,0.4,4.6,1.2c0,0.6-0.4,1-0.6,1.6c-4,7.3,1,16.9-6.9,22.4c3.4,1.6,8.7,0,11.5-3.2l0.6,0.2c-2.2,5-3,10.9-2.8,16.3
	c0,0,0.2,1.2-0.4,3c0,0-0.6,1.8-1,2.8C34.9,84.9,38.7,72,39.5,69.8l0.8,0.2c0,0-3.4,9.3-0.4,13.5c0.6,1,1.8,1.8,2.8,1.6
	c1.2-4.4,3.6-10.3,7.9-13.3c3.8,0.2,7.7,2.2,11.3,3.8c2.2-5.4-2.6-13.3-2.6-13.3l0.4-0.4l0.6,0.6c0,0,3.2,3.4,4.6,4.6
	c1.8,1.2,7.7,2.4,10.7,0.6c1.2-0.6,2.8-2.2,3.2-3.4c-10.1,0.6-10.7-11.9-15.5-17.9l0.4-0.4c2.6,1.2,3.8,4.6,6.2,6
	c0,0,13.3,2.8,13.7,2.8c1,0.2,1.2-1.2,1.2-1.2c0.2-0.4,1.4-5.4,0.6-7.9c-1.6-1-2.2,1.6-3.4,1.6c-3.4-1-5.6-1.2-9.5-2.8l-5.6-12.5
	C66.5,31,66.9,30.8,66.9,30.8 M61.9,22.6c0,2.2-1.6,3.8-3.8,3.8c-1.8,0-3.4-1.6-3.4-3.8s1.6-3.8,3.4-3.8
	C60.3,18.7,61.9,20.4,61.9,22.6"/>
<path class="st1" d="M80.6,136.1c-4-0.6-8.3-1.6-12.3-3.6c0,0-1-0.6-1,0.4v6c0,2.2,2,5,9.5,4.4c0,0,1.4,2.6-5.6,5.4
	c-2.6,1-1.6,2.8-1.6,2.8s1,2.2,6.9,3.8c-2.2,4.2-7.1,4.4-6.3,6.9c0,0,0.6,1.8,4.2,2.8c-1.2,3.4-4.6,4.8-5.4,6.9
	c-1,2.2,2.2,3.8,1.8,4c-5.2,3.4-9.3,8.1-9.9,10.5c-1.8,5.4-2.8,11.7-4.2,16.9c-0.4,1.8-2.6,3.2-4,3.4c-5.2,0.2-9.1,0-13.7,0
	c-1.4,0-0.8-1-0.8-1c4.8-8.5,15.5-15.5,13.9-26c-4.6-28.2-13.1-44.8-17.7-69.4c-1.8-9.5-2-19.2,1-27c0.8,3.8,5.4,7.5,9.3,7.5
	c1.6-5.4,4.8-14.1,7.1-14.5c2.6-0.4,11.3,4.2,11.3,4.2c2.6-2.4,3.2-5.8,3.4-8.7c2.8,1.2,5.6,1.8,9.5,1c6.7-1.8,7.5-4,9.7-6.5
	c2.4,8.3-1.2,13.9-2,16.9c0,0-0.2,0.4,0,0.6c0,0,0.2,0.4,1,0c2.4-1.2,4.8-3,6-4c1.6-1.4,6.5-7.3,6.5-7.3c2.6,4,2,9.9,0.4,13.9
	c0,0-0.8,1.4,1,1.2c4.8-0.8,8.3-9.9,11.7-11.5c0,0,0.2-0.2,0.4,0c0.2,4,0.2,10.1,1.8,12.9c0,0,0.4,0.8,1,0
	c1.8-2.8,4.8-10.1,8.1-10.7c0,4.6,1,11.7,3,11.9c1.8,0.2,3.4-4.4,4.2-6.5c1-2.4,2.2-4.2,3.4-4.2c0.4,4,1.8,10.3,5.2,10.3
	c1.6,0,1.2-2.8,1.6-5c0.6-3.6,2.4-4.6,2.4-4.6c1,3.4,2.4,6,5,7.9c0.8,0.6,1.8,0.6,1.8-0.8c0-3.2,0.6-6.3,2-7.5
	c0.2,0.4,0.8,1.6,1.4,2.4c1.4,2,3,3,5.4,2.2c1-0.4,2-1.6,2.2-2.6c-1.8-2.6-4-7.1-4.4-10.3c-0.6-4.6,1.6-8.9,5.4-10.7
	c2.8-1.6,6.9-1.8,9.5,0.2c1.6,1.4,2.8,3.4,2.8,5.6c0,1.8-0.8,3.8-2.6,4.6c-1.2,0.6-2.8,0.6-4.2-0.2c-1.2-0.8-2.2-2.6-3-3.2
	c-1,2.2,0.6,4.8,1.8,6.2c2.6,2.8,6,2.2,7.3,1.4c8.3-6,6.7-12.1,11.7-24.4c1.2-2.8,2.6-5.4,4.2-8.1c0.2-0.4,0.4-0.6,0.6-1
	c4-6,10.9-10.1,18.8-10.1c12.3,0,22.4,10.1,22.4,22.4c0,6.2-2.4,11.7-6.5,15.7c-0.4,0.4-0.8,0.8-1.2,1c-1.6,1.4-2,2.8-1.2,3.4
	c2.6,1.8,3.2,2.2,5,4.4c7.9,9.5,11.3,20.6,15.7,31.5c1.2,2.6,2.6,5.8,4.6,7.9c3.4,3.2,6.5,4.4,11.1,5c0.4,0-2.4,3.4-0.2,4.6
	c1.6,1,6.3,0.6,7.9-0.4c0.6,4.6-6.7,6.7-6.3,8.3c0.4,1.4,3.8,2.6,7.9,2c-1,3.6-5,3.6-5,5.8c0,2.2,2,3.2,5.2,2.6c0,0-1.2,1.8-3.8,4.4
	c-2.8,2.8-1.2,6.5-1.2,6.5c1.2,2.6,2.4,5.4,5.4,8.1c2,1.6,3.6,2.6,5,4.2c-8.1,4.4-6.3,11.7-6.7,15.5c-0.2,1.2-1.2,1.2-1.2,1.2
	l-16.5,2.6c-1.4,0.2-2.4-0.2-0.8-2.2c4-4.8,9.1-9.5,11.9-14.7c-0.4-1.8-1.4-3.6-2.6-5.6c-5.4-8.7-10.5-16.7-15.5-25.6
	c-0.6-1-2.2-1.2-2.2-1.2c-12.3-2.2-26.4-6-35.5-11.7c-0.6-0.2-0.6,0.6-0.6,0.6c0,2.2-0.2,7.9,0.8,9.3c3,4.2,10.9,2.2,12.1,2.2
	c-0.2,3-2,4.6-5,6.7c0,0-0.6,0.4-0.4,1c0.4,1,3.2,0.6,5.6-0.4c-1.2,4.6-5.4,4.4-5.2,6c0.2,1,1.6,2,3,1.8c-2.4,3.2-6,3.8-6,6.3
	l0.6,11.1c0,0,0,0.4-0.2,0.6c-0.2,0.2-0.8,0.4-0.8,0.4l-16.1,3.8c-0.4,0-1,0-1.4-0.4c-0.4-0.6,0.2-1.4,0.2-1.4l10.5-15.7
	c0.6-3.4-1.8-5.6-3.4-8.5c-3.4-4.4-7.3-7.9-11.3-10.5c-3.4-4.2-3.6-8.9-4.4-11.5c-0.2-1-1.4-0.6-2.2,0.2c-2.2,2.2-4.2,4.8-5.6,7.9
	c-0.6,1.4,0.6,2.6,2.6,3c1.2,0.4,3.2,0.6,5.2-0.2c0.4,3-3.2,5-5.2,6c0,0-0.6,0.2-0.2,0.8c1.2,1.2,3.4,1.2,5,0.8c0,0-0.6,2.8-4.6,5.4
	c-3.4,2,2.2,1.8,3,1.6c-0.8,2-3.8,4.6-4.8,6.7c-2.2,4.2-0.6,9.5-1,14.1c-0.4,1-1.4,1.4-2.4,1.6l-16.9,0.6c-1,0-1-1.2-0.4-1.8
	l11.9-14.5c1-1.2,0-2-0.4-2.6c-5.2-6.9-10.1-14.1-13.5-22c-2.6,0.4-6.7,1.6-7.3,4c-0.6,2.2,4.4,2.6,6.7,2.6c0,0,0.4,2.2-6,4.4
	c0,0-3.4,1-4.4,2.6c0,0-0.4,0.4,0.2,0.8c1.4,1,4.8,1.2,5.4,1.2c-2.4,3.4-9.9,3.2-11.3,4.6c-0.8,0.6,0.8,2.2,5.2,2
	c-2.2,2.8-5.8,2.4-9.1,3.4c0,0-1.4,0.2-1,1.2c1.2,2.2,4,1.6,3.2,2.6c-1.2,1.2-4.4,2.2-6,2.6c-1.4,0.4-2.2,1.4-2.2,1.4
	c-1.2,1.2-0.8,2.8-1.6,4.8c-1.2,3.2-3,6.9-5.2,9.5c0,0-0.4,0.6-0.8,0l-11.3-9.1c-1-0.8-0.4-2-0.4-2c1-2.2,3.4-2.8,5.6-4
	c3-1.8,6.2-3.8,8.9-6.9c0.6-0.6,0.6-1.4,0.6-1.4c1.2-8.3,4-15.7,5.8-23.8c0.4-2.4-2.2-1.8-2.2-1.8c-3.8,0.6-9.9,2.2-20,1.4
	c-1,0-1.2,0.4-2,2c-1,2.2-2.2,3.8-1,5.6c2.4,3,8.9,0.6,8.7,1c-2.2,5.4-8.3,4.4-10.7,7.7c0,0-0.8,1-0.2,1.8c0.6,0.8,3.2,1.2,7.5,0.2
	c0,0-1.8,3.8-5.4,5c-3,1-5,1.4-5.4,2.8c-0.2,1,0.6,2,5.4,1.6c0,0-1.2,3.6-5.4,4.8c-2.6,0.8-3.2,2.4-4,3.8c-1.8,3.4-2.2,8.1-4.4,11.3
	c0,0-0.4,0.4-1-0.2l-9.7-8.7c-0.4-0.4-0.6-0.6-0.6-0.6c-1-1.2,1.8-2.6,2.8-3.6c2.6-2,6.7-3.8,7.3-7.9c0.8-6-1.6-9.7-3.2-14.7
	c-1.2-3.6-1.2-8.3-1-12.1C81.2,136.3,80.6,136.1,80.6,136.1z M177.8,78.8c-0.2,0.2-0.4,0.6,0,0.6c3.4,0,7.3-2.2,10.5-4.4
	c4-2.6,7.5-7.1,10.3-11.1c2.2,2,5.2,3.4,8.7,3.4c7.1,0,12.7-5.6,12.7-12.7s-5.6-12.7-12.7-12.7c-0.4,0-1,0-1.2,0
	c-5.6,0.4-9.5,3.4-13.3,10.5c-3.2,6-7.3,18.5-14.5,26.2C178.2,78.4,178,78.6,177.8,78.8"/>
</svg>
