<?xml version="1.0" encoding="utf-8"?>
<!-- Generator: Adobe Illustrator 20.0.0, SVG Export Plug-In . SVG Version: 6.00 Build 0)  -->
<svg version="1.1" id="Layer_1" xmlns="http://www.w3.org/2000/svg" xmlns:xlink="http://www.w3.org/1999/xlink" x="0px" y="0px"
	 viewBox="0 0 298.8 400" style="enable-background:new 0 0 298.8 400;" xml:space="preserve">
<style type="text/css">
	.st0{fill:none;stroke:#68737A;stroke-width:0.3187;stroke-miterlimit:3.864;}
	.st1{fill:#68737A;}
	.st2{fill:#008061;}
</style>
<rect x="6" y="54.8" class="st0" width="280.3" height="218.5"/>
<line class="st0" x1="286.3" y1="249.4" x2="6" y2="249.4"/>
<line class="st0" x1="286.3" y1="224.8" x2="6" y2="224.8"/>
<line class="st0" x1="286.3" y1="177.4" x2="6" y2="177.4"/>
<line class="st0" x1="286.3" y1="152.5" x2="6" y2="152.5"/>
<line class="st0" x1="286.3" y1="127.9" x2="6" y2="127.9"/>
<line class="st0" x1="286.3" y1="103" x2="6" y2="103"/>
<line class="st0" x1="286.3" y1="78.4" x2="6" y2="78.4"/>
<line class="st0" x1="263.8" y1="273.2" x2="263.8" y2="54.8"/>
<line class="st0" x1="240.2" y1="273.2" x2="240.2" y2="54.8"/>
<line class="st0" x1="193.9" y1="273.2" x2="193.9" y2="54.8"/>
<line class="st0" x1="170.4" y1="273.2" x2="170.4" y2="54.8"/>
<line class="st0" x1="146.8" y1="273.2" x2="146.8" y2="54.8"/>
<line class="st0" x1="123.2" y1="273.2" x2="123.2" y2="54.8"/>
<line class="st0" x1="99.4" y1="273.2" x2="99.4" y2="54.8"/>
<line class="st0" x1="75.8" y1="273.2" x2="75.8" y2="54.8"/>
<line class="st0" x1="53.3" y1="273.2" x2="53.3" y2="54.8"/>
<line class="st0" x1="29.6" y1="273.2" x2="29.6" y2="54.8"/>
<line class="st0" x1="286.3" y1="201" x2="6" y2="201"/>
<line class="st0" x1="216.7" y1="273.2" x2="216.7" y2="54.8"/>
<g>
	<path class="st1" d="M3,400.4v-3.7c2.6-1.3,4.8-2.6,6.5-3.9c0.2-1.9,0.4-5,0.6-9.1c0.4-7.6,0.4-13.2,0.4-16.7v-29.8
		c0-1.1,0-5.4-0.2-13c-0.2-5-0.4-8-0.9-9.1c-0.2-0.4-0.6-0.9-1.1-1.1c-1.3-0.4-4.3-0.9-9.5-1.3v-5.6l15.4,0.4c3,0,6.1,0,8.9,0
		c6.1,0,12.8,0,20.3-0.2l13.4-0.4c1.5,0,4.8,0,9.7,0.2c0.4,0,1.1,0.2,2.2,0.4l0.4,0.9l-1.3,9.5c0,0.6-0.2,3.9-0.6,9.5H62
		c0-5.2-0.2-8.4-0.6-9.7c-0.2-0.6-0.4-1.1-0.9-1.3c-0.6-0.4-2.4-0.6-5.4-1.1c-4.3-0.4-8.7-0.6-13-0.6c-3.9,0-8,0.2-12.1,0.4
		c-0.6,5-0.9,11.5-0.9,19v13.6c3,0.2,6.1,0.4,9.5,0.4c1.1,0,4.8,0,11-0.2c2.4,0,3.9-0.2,4.3-0.4c0.4-0.2,0.6-0.6,0.9-1.3
		c0.4-1.7,0.9-4.5,0.9-8.4h5.4l-0.2,14.7l0.2,14.5h-5.6c0-5.2-0.2-8.2-1.1-9.5c-0.4-0.9-1.5-1.5-2.8-1.7c-3-0.4-6.9-0.6-11.7-0.6
		c-4.3,0-7.8,0.2-10.6,0.4v28.1c0,3.2,0,5.8,0.2,8c3.7,0.2,7.8,0.4,12.8,0.4c4.8,0,9.3-0.2,13.2-0.4c4.1-0.2,6.5-0.6,7.6-1.3
		c0.2-0.2,0.6-0.6,0.9-1.3c0.9-2.2,1.7-6.1,2.6-12.1h5.4c-1.1,8.9-1.5,16-1.5,21.6l-0.9,0.9c-2.8,0.2-6.9,0.4-12.1,0.4l-10.6-0.2
		c-10.6-0.2-17.7-0.2-21.8-0.2C23.9,400,16.6,400.2,3,400.4z"/>
	<path class="st1" d="M76.7,313v-5.4c1.1,0,4.5,0,10.6,0.2c3,0,7.1,0.2,12.5,0.2c4.8,0,8.7,0,11.9-0.2c5.4-0.2,9.9-0.4,13.6-0.4
		c6.9,0,12.1,0.4,15.6,1.5c3.5,1.1,6.5,3,8.9,6.3s3.7,6.9,3.7,11.5c0,5.4-1.7,10.2-5,14.7c-3.2,4.3-8.4,7.8-15.4,10.4
		c1.1,1.9,2.4,4.1,3.9,6.1c1.5,2.2,2.2,3.2,2.6,3.9c0.2,0.4,0.4,0.9,0.9,1.3l10.4,15.6c2.8,4.1,4.3,6.3,4.5,6.7
		c3.2,4.3,5.4,7.1,6.1,7.8c0.6,0.9,1.5,1.3,2.2,1.7c0.6,0.2,2.2,0.4,4.1,0.4v5.4c-6.9-0.2-11.7-0.2-14.7-0.2c-3.5,0-7.1,0-10.6,0.2
		c-0.2-0.9-0.6-2.2-1.5-3.7l-14.3-23.4c-4.1-6.7-7.6-12.1-10.4-15.8c-1.5-1.9-2.8-3.5-4.1-4.3l0.6-2.2c5.4,0.2,9.3-0.4,12.1-1.7
		c2.6-1.3,5-3.5,6.9-6.7c1.9-3.2,2.8-6.9,2.8-11c0-4.1-1.1-7.4-3-10.2c-1.9-2.8-4.3-4.5-7.1-5.6c-1.9-0.6-5.2-1.1-9.9-1.1
		c-2.2,0-4.3,0.2-6.3,0.4c-0.2,1.5-0.2,5.2-0.4,10.8c-0.2,12.5-0.4,21-0.4,25.1c0,6.7,0,13.6,0.2,21.2c0.2,9.1,0.2,14.3,0.4,15.6
		c0.2,2.4,0.4,4.1,0.6,4.8c0.2,0.4,0.4,0.6,0.9,0.9c0.4,0.2,1.1,0.4,1.9,0.6s3.5,0.2,7.8,0.4v5.8c-7.6-0.2-15.1-0.4-22.9-0.4
		c-6.9,0-13.4,0.2-19.3,0.4v-5.8c5-0.2,8-0.4,8.9-0.6c0.4-0.2,0.9-0.4,1.1-0.6c0.2-0.2,0.4-0.9,0.6-1.9c0.2-1.7,0.4-4.3,0.6-7.8
		l0.4-19.5v-24.7l-0.2-14.1c0-5.6-0.4-8.9-0.9-9.9c-0.2-0.4-0.6-0.9-1.1-1.1C85.6,313.7,82.3,313.2,76.7,313z"/>
	<path class="st1" d="M171.9,400.4v-5.6c5-0.4,8-0.6,8.9-1.1c0.4-0.2,0.9-0.4,1.3-0.9c0.4-0.6,0.6-1.5,0.9-2.6
		c0.2-2.6,0.6-8,0.9-16.7c0.2-4.1,0.2-11.2,0.2-21.2c0-9.1,0-16.9-0.2-23.8s-0.4-11-0.9-12.3c-0.2-0.6-0.4-1.1-0.9-1.5
		s-1.1-0.6-2.2-0.9c-3-0.4-5.6-0.9-8-0.9v-5.6c9.1,0.2,15.4,0.4,18.8,0.4c4.5,0,9.1-0.2,13.8-0.4l5.8,13.2l4.5,9.9l21.2,43.7
		c4.5-8.7,8-15.6,10.2-20.3l8.9-18.4c5-10.4,7.8-16.7,8.9-19c1.1-2.4,2.4-5.4,3.7-9.1c5.8,0.2,9.5,0.4,11.2,0.4l19.9-0.4v5.6H298
		c-4.5,0-7.4,0.4-8.4,1.5c-1.3,1.1-1.7,3.2-1.7,6.3c0,3.7,0,6.5,0,8.4l-0.4,18.6v23.4c0,5.6,0,9.1,0,9.9c0.4,5.6,0.6,9.1,0.9,10.4
		c0.2,0.6,0.4,1.1,0.6,1.5c0.4,0.4,0.9,0.6,1.5,0.9c0.6,0.2,3.5,0.4,8.4,0.9v5.6l-21.2-0.4l-20.8,0.4v-5.6c5.4-0.2,8.7-0.4,9.3-0.9
		c0.9-0.4,1.3-1.5,1.7-3.2c0.4-1.7,0.4-7.1,0.4-16.4v-48.4L253,356.9l-7.4,15.6c-1.9,4.1-4.8,9.9-8.2,17.7
		c-2.2,4.8-3.9,8.4-5.2,11.5h-4.5c-1.5-3.7-3.9-8.9-6.9-15.4c-5.2-11-9.1-19.3-11.7-24.9l-17.5-35.7v32.7c0,5.4,0,11.9,0.2,19.5
		c0.2,7.6,0.2,11.7,0.4,12.8c0.2,1.1,0.4,1.7,0.9,2.2c0.4,0.4,1.1,0.9,1.9,1.1s3.7,0.6,8.2,0.9v5.6c-5-0.2-9.9-0.4-15.1-0.4
		C181.2,400,175.8,400.2,171.9,400.4z"/>
</g>
<polygon class="st1" points="193.9,268.5 281.3,178.1 281.3,177.8 239.1,133.7 219.9,154.9 216.7,152.5 239.1,129 286.3,177.4 
	193.9,273.2 4.9,79.4 7.1,77.3 "/>
<path class="st2" d="M51,207.9c0.9-0.9-0.4-1.9-2.2-1.1c-0.4-3.2-2.2-2.6-2.2-3.5c-1.1-0.4,1.7-2.6,2.2-2.2l-1.1-1.1V199l0,0h-1.1
	l-2.2-2.2c-1.7-1.1-2.2-1.7-1.1-2.2c1.1-1.1-1.1-2.8-2.2-2.2c0,0.4-1.1,0-1.1-1.1l-1.1-2.2c-1.3,0.4-1.7-0.2-1.1-1.1
	c0.4-1.3,0-1.1-1.1-1.3c-2.4,0-2.4-1.1-1.1-2.4c1.5,0,1.1-0.6,0-0.9h-2.2v-1.1l1.1-2.2l-1.1-2.2c-1.9,3-2.6-0.9-1.1-2.2l-1.1-1.1
	c-0.9,0-1.9-2.4-2.2-4.5c-1.9,0-1.9-2.2,0-2.2h0.2c3.2,0.4,1.9-1.7-1.1-2.2c-0.2-0.6-0.2,0-1.1,0l-1.1-1.1V164l-1.1-2.4l1.1-1.1
	l1.1-1.1l-1.1-2.2h-1.1c-0.4-0.2-0.4-1.5,0-2.2c-0.4-0.4-1.5-1.1-1.1-1.1V153l-2.2-1.1v-3.5l-1.1-1.1v-2.2l-1.1-1.1
	c-2.2,0-1.7-0.6,0-1.1c0-0.6-0.6-1.1-2.4-1.1c-1.1,0-1.7-0.6-2.2-1.1l0,0c0.4,0,1.1-0.6,1.1-1.1c2.4,0,2.4-1.1,1.1-2.2l-1.1-1.3
	c1.1,0,0.6-0.9,0-0.9v-1.1c-1.7,0.4-1.7-1.9-1.1-2.2c1.1-0.9,1.1-1.9-1.1-3.5v-2.2l-2.2-1.1v-1.1l-1.1-1.1l0,0H12
	c2.8-0.4,1.1-3.9-1.1-4.5l0,0l1.1-1.1c1.5,0,1.5-1.1,1.1-2.2l0,0v-1.1l-1.1-1.1c-1.3,0.4-1.9-0.2-1.1-2.4c-0.6,0-0.6-0.6,0-0.9
	c1.5-1.9,1.1-1.9-1.1-2.2c-3-0.2-1.9-2.2,0-2.2c1.1-0.4,1.5-1.5,0-2.2c-0.6-0.4-1.1-1.5-1.1-2.2l-1.7-2.8v-1.1h1.1
	c-0.9-1.1,0-2.2,0-2.2c0.4-1.7,0.4-2.8-1.1-3.5v-1.1h1.1l-1.1-1.1c-3,0.4-2.6-3.5-2.2-4.5c-0.9-1.3-0.2-2.6,0-3.5
	c-0.2-1.5-0.2-1.9,0-2.2v-9.1l0,0v-1.1l-2.2-1.1c0.9-0.6-0.2-1.7-1.1-2.2v-1.1c1.3-0.6,0.9-3,0-4.5l1.1-2.2c2.6-0.2,0.9-1.9-1.1-2.2
	v-1.1l1.1-0.9c0.9,0,0.9-0.6,0-1.3l-1.1-2.2v-2.2c-0.9-2.2-0.4-3.5,0-4.5c0.9,0,0.2-2.4-1.1-4.5v-1.1c-0.4-1.3-0.4-1.9,1.1-2.2
	c0.9-0.9,0-1.9,0-3.5c-3.2-2.6-0.9-2.6,0-5.6v-1.1l0,0l0,0l0,0v-2.2c-1.5-1.7-0.4-3.5,0-3.5C2.5,20,2.5,20,2.7,19.5
	c-0.2-0.6-0.2-1.1,0-1.1v-2.2c-1.5,0.4-1.1-0.6-1.1-1.1c0.9-1.3,0.2-1.1-1.1-1.1v-1.3c0.9,0,1.1-0.6,1.3-0.9c0-0.9,0.6-1.1,0.9-1.1
	c-0.2-0.9-0.2-1.9,0-2.2C3,7.8,3,6.8,2.7,6.5c-0.9-0.2-0.9-2.2,0-2.2C3,3.9,3.6,2.9,3.8,2.2C3,1.8,3.6,1.1,3.8,1.1
	c0.9-1.5,1.5-1.5,2.2,0v3.5c0.4-0.4,0.4,0,0,0v2.2C6.8,7,6.8,8.1,6,8.9C6.4,8.7,6.4,9.1,7.1,10v2.2c0.4,0,0.4,1.1-0.2,2.4
	c0,0,0.2,0.6,0.2,0.2v2.2l0,0v7.8v1.1v2.4c0.4,0,0.4,0.6,0,0.9v2.2c0.9-0.4,1.5,0.9,0.9,1.1c0,1.5,0,3.7,1.3,4.5
	c-0.6,1.5-0.6,2.6-0.2,3.5c0,1.1,0.6,9.7,1.3,11.5c1.1,0,1.1,5.8,0,7.8c1.1,1.5,1.1,3.2,1.1,4.5c0,0.4,1.3,3.2,1.3,5.6v1.1
	c0,0,0,0,0,1.1l0,0c-0.6,0,0,1.1,0,2.2c0.4-0.4,1.1,0,1.1,1.3c0,0-0.6-0.2-1.1-0.2v-0.2c1.7,0.6,1.7,4.8,1.1,5.6
	c1.7,0.9,2.8,7.1,2.2,7.8l1.1,2.2h-1.1v2.2c1.1,1.1,1.1,1.7,1.1,4.5c1.1,0.6,2.2,4.8,2.2,6.7c1.3,0.9,1.1,3.7,1.1,3.5v2.2
	c0,0.4,0.6,0.9,1.1,2.2c-0.4,1.1,0,1.1,0,2.2c0.6,1.5,0.6,2.2,1.3,3.5c0,0.6,1.7,4.5,2.2,6.7c0.9,1.3,1.1,3,1.3,4.8
	c0,0,1.1,2.8,0.9,3.2c-0.4,1.5-0.4,0.9,0,1.1l1.1,2.2c0.9-1.3,1.5,2.6,1.1,3.5c0.9,1.1,0.9,1.1,1.1,1.1l0,0l0,0
	c0.2,1.1,0.2,3.5,0,3.5v2.2c0.2,0.6,1.1,1.1,0.9,2.2c0,0.6,0.2,1.7,0.2,3.5c2.2-1.1,3.5,2.4,3.5,5.6c1.1,0.2,1.5,0.9,2.2,1.1
	c-0.6,1.5,0,3.7,0,4.5c1.1,0.4,2.2,1.5,2.2,2.2c0,1.7,1.1,3.5,1.1,3.5c2.8,2.8,2.8,3.5,3.5,4.5c0.6,1.3,1.7,1.7,1.1,3.5
	c0.6-0.4,1.1,0.2,1.1,1.1c1.7,1.3,1.7,1.9,1.1,3.5c-0.4,0.2,0.2,1.9,1.1,2.2c4.1,1.9,4.1,2.6,4.5,4.5v1.1c1.5,1.5,6.1,6.7,7.8,10.2
	c1.5,0,1.5,1.1,1.1,2.2c1.1-0.4,2.2,1.3,2.2,2.4c1.1,0,2.2,1.7,1.1,3.2l2.2,1.1l1.1,1.1v1.1c0,0.4,0.6,0.4,1.1,1.1l0,0v-0.2
	c0.6,0,1.3,0.6,2.2,0.2v1.1c-1.1,1.1,0.2,2.2,1.1,2.2c1.3,0.4,1.9,1.5,2.4,3.2c0,0,0.9,0.6,0.9,2.4l3.5,2.2c2.6-1.1,2.6,0.6,2.2,2.2
	l1.1,1.1l1.1,1.1l1.1,1.1h1.1l1.1,1.1h1.1l1.1,1.1l2.2,1.1l1.1,1.1c0,0.9,0.6,2.2,1.1,1.9c0.6,0,1.7,1.3,2.2,1.3l1.1,0.9
	c0.6,0,2.4,0.6,3.5,1.3c0.9,1.1,1.9,1.5,3.5,2.2c1.5,1.1,5.4,3.5,7.8,5.6l0,0l0,0c0.4,0,0.4,0,0,1.1c7.4,0.6,7.4,4.1,7.8,6.7h1.1
	l0,0h1.1l1.1-1.1c3-1.5,4.8,0.2,5.6,1.3c0.2,0,1.5,0,1.1,0.9l0,0c0.2,0.2,0.2,0.2,0.9,1.1c0,0.9,1.7,1.5,2.4,1.1
	c0.4-0.9,1.5-0.9,2.2,0h1.1h1.1l2.2,1.1c0.6-0.9,1.7-0.2,2.2,0c0.6,0.9,1.7,0.9,2.2,0c0.6,0.4,1.7,0.4,2.2,1.1l3.5,1.1h1.1h1.1l0,0
	h1.1h1.1c3.2-0.9,6.1,1.1,6.7,1.1l1.1,1.1v-1.1h1.1v1.1h3.5h1.1v-1.1l0,0h1.1h1.1v1.1h2.2c0.6,0.4,3.7-0.2,4.5-1.1h1.1l0,0h1.1l0,0
	h2.2l0,0l0,0h2.2c0.4,0.4,5,0.4,5.6,0c0,0.4,0.6,1.1,1.1,0c1.1,0.4,6.3,0,6.7,0c1.3,0.4,1.3-0.2,2.2-1.3c1.3,0,4.8-0.9,5.6-0.9
	c0.9,0.4,4.5-0.9,4.5-1.1c0.4-0.9,2.2-1.9,3.5-2.2c0.4,0.2,1.1,0.2,1.1,0c0.4-0.9,1.1-1.5,1.1-1.1l0,0h1.1l0,0
	c0.6-0.4,0.6-0.4,1.1,0c0-0.9,1.1-1.9,2.2-1.1c0.6,0.9,0.6,0.2,1.1-1.1c0.6-1.5,3-2.2,4.5-2.2c0.9,0.6,1.3,0.2,2.2-1.1
	c0.2-0.4,2.6-1.5,3.5-1.1c0.4-0.4,1.5-1.1,2.2-1.1c0.4-1.1,0.4-1.1,1.3-1.1v-0.2c0.4-0.4,1.5-0.2,2.2,0.2c1.1,0,1.7-0.6,1.1-1.1
	c0.4-1.1,2.2-2.8,3.5-2.4c1.1,0,4.1-1.1,4.5-3.2c0-2.4,2.4-3.5,3.2-3.5c1.3,1.5,1.9-0.2,2.2-2.2l0,0v-1.1c-0.4,0.2,0.2,0.2,1.1,0
	c1.9,0.9,2.6-0.2,2.2-1.1c0.2-3.2-0.2-2.6,1.1-3.5l0,0v-1.1h1.1v-1.1h1.1v-1.1l0,0l1.1-1.1l1.1-1.1h1.1c0.4-0.4,0.4-0.4-0.2,0
	c0-1.7,0.6-2.2,1.3-2.2c0.4,0,1.7-0.6,1.1-1.1c-1.7-2.4,0-2.8,1.1-3.5c0.6-1.3,1.1-1.3,0-2.2c0-0.6,0-0.6,0-1.1l2.2-1.1l0,0l0,0
	v-1.1v-1.1c0-0.2,0-1.3,1.1-2.2c-0.4-0.2,0.6-0.9,1.1-1.1c-0.4-1.9-0.4-2.6,0-3.2c0,0,0.6,0,0-1.3c0-0.4,0.6-1.5,1.1-2.2
	c0.6,0,1.1-1.3,1.1-1.3c-1.1-1.7-0.4-1.7,0.2-2.2c0,0,0.6-1.1,0-2.4c0,0,0-0.6,1.1-1.1c-0.4-0.6,0-0.6,0-1.1c-0.4-1.7-0.4-5.2,0-6.7
	c-0.4-0.9,0-0.9,0-1.1c-2.2-1.9-1.5-3.2,0-3.5v-1.1c-1.1-0.4-0.4-2.2,0-2.2v-1.1l0.2-1.1c0-0.4-0.2-1.1-0.2-1.1
	c-1.1-1.1-0.4-1.1,0.2-1.1c0-1.1-0.2-1.1-0.2-1.1c-1.1-1.1-1.1-1.7-1.1-3.5c0.6-0.6,0.6-0.6,0-2.2c-1.1-1.3-1.1-1.3,0-3.5
	c-1.1-1.3-1.1-2.4,0-3.5c0.6-0.9,0.6-0.9,0-1.1l-2.2-2.2c-0.4-0.9,0-1.5-1.1-2.2c-0.4,0-1.1-0.6-1.1-1.3c-1.7-0.4-1.1-2.8-1.1-3.5
	l-1.1-1.1c-2.4-1.7-1.1-2.8,0-3.5c2.2-1.7,0-2.8-2.2-2.2c-1.3,2.8-1.7,2.2-2.2,1.1c-1.3,0-1.9-0.6-2.2-1.1c0.4-0.6,0.4-0.6,0-1.1
	l0,0l0,0c0.4-0.6,0.4-0.6,0-1.1c-1.3,0.4-2.6-0.2-3.5-1.3c-0.2,0-0.2-0.6-1.1-1.1c-0.9,0.4-3.7-0.2-4.5-1.3c-0.9,0-1.5,0-2.2-1.9
	c-0.4-0.2-0.4-1.5-1.1-1.1l0,0l-1.1-1.1l-1.1-1.1c-0.4,0.2-2.2-0.2-2.2-1.1c0-0.9-1.1-0.9-1.1,0.2c-0.6,0-4.1,1.7-6.7,1.9l-1.1-1.1
	c-1.9,0.2-6.1,2.6-6.7,4.5l-2.2,1.1c0,1.5-0.6,2.2-1.3,2.2c-1.5,0.4-2.2,1.5-1.1,2.2l0,0h-0.2l-1.1,1.1v1.1L216,143
	c-0.4,2.4,0,3.5,1.1,3.5c2.4,0,0.6,0,1.1,0l1.1,1.1c-0.4-0.4,1.3-1.1,2.2-1.1c0.9-1.1,2.4-1.7,4.5-1.1c2.6-3.5,5-1.7,4.5,0
	c0.4,1.1,3.2,2.2,4.5,2.2c1.1-1.1,2.2,1.3,1.1,2.2v1.1l1.1,1.1v1.1l2.2,0.2c0.6,0,0.6,1.7-1.1,1.9l-1.1,1.1
	c-1.1,1.9,0.6,1.9,1.1,1.1c1.7-0.9,1.7,1.5,1.1,4.5v1.1l1.1,1.1c0.6,1.1,0.6,1.7,0,2.2c-1.1,0-2.8,1.1-3.5,0c-1.1,0-1.7,0-2.2-1.1
	l-1.1,2.2h-1.1h-2.2l-1.1,1.1l0,0c-1.3,1.7-1.9,1.7-2.2,1.1c-0.9,0-1.5,0.6-2.2,2.2c-0.9,0.6-2.6,0.6-2.2,0c0.9-1.7-0.4-2.8-1.1-2.2
	l-1.1,1.1h-1.1v1.1h-1.1c-2.8-1.1-1.5-1.1,0-2.2l1.1,1.1l1.1-1.1v-2.2l0,0v-1.1l-1.1-1.1c-1.1,0.4-1.5,0-1.1-1.1
	c-0.4-0.6-2.2-0.6-2.2,0v1.1c0,1.1,0,1.1,0,1.1c0,0.4-1.1,1.1-1.1-1.3c-0.6,0-1.1,0-2.2,0c-2.4,1.1-2.8-0.6-2.2-2.4
	c0.4,0,0.4-0.6-1.1-1.1l0,0l-1.1-1.3c0.4,0-0.2-0.6-1.1-0.9c-0.6,0.4-0.6,0.4-1.1,0c-1.9-1.3-2.4-1.9-1.1-2.2
	c0.9-1.5,0.4-1.9-1.1-2.2v-2.2l0,0c-1.9-2.2,0.4-3.2,1.1-2.2c3.2-1.1,1.5-2.8-0.2-2.2c0,0.6-0.6,0.6-1.9,0c-1.5-2.2-0.9-3.2,1.1-4.5
	v-1.1c-2.6-0.6-1.3-1.7-1.1-2.2l1.1-1.1l0.2-0.2l1.1-1.3c1.5,0,0.9-1.1,0-2.2c-1.3,1.1-1.1-0.6-1.1-1.1v-2.2
	c0.4-0.2,0.4-0.9,1.1-1.1c-0.9-0.2,0-1.5,0-2.2c1.5,0.2,2.6-1.1,2.2-1.1c0-0.9,0.2-1.1,0.2-1.1c1.5-0.9,2.2-2.6,1.1-3.5
	c0.4-0.4,1.5-2.2,2.2-2.2c0.4,0,1.1-0.6,1.1-1.3c1.1-0.4,1.1-1.7,2.2-2.2c0.6,0,1.7-0.6,2.2-1.1l2.4-3.5c0,0.4,1.1-0.2,2.2-1.1l0,0
	h1.1c3.7,0.4,3.7-0.2,3.5-1.1c-0.9-0.6,0.2,0,1.1,0l0,0h1.1h1.1l0,0c0.4,1.1,2.2,0.4,2.2,0l1.1-2.2h1.1v2.2l2.2-1.1l0,0h1.1h1.1
	c1.1,0.4,5.2,0.9,6.7,2.2c1.9,0.4,3,0.4,3.5,1.1l1.1-0.2c1.9,0,3,1.1,4.5,2.4v1.1h2.2c0.4,0,2.6,0.6,4.5,3.5l1.1,1.1l2.2,2.2
	l2.2,1.1v2.2l0,0l2.2,2.2l0,0h-1.1h-1.1l0,0l-1.1-2.2c-0.6-0.4-1.1-1.5-3.5-1.1c-0.6-1.1-1.7,1.1-1.1,1.3c1.1,0,1.1,0.9,1.1,0.9
	c-0.6,0.9-1.3,1.9,1.1,1.1c2.2-0.4,2.2,0.2,2.2,1.1c-1.1,1.9,1.7,1.9,3.5,1.1V130l0,0c6.9,1.9,6.5,3,6.7,4.3c-1.5,0-1.9,1.7-1.1,2.4
	c1.9,0.4,1.3,2.2,0,2.2c-0.4-0.6-1.1,0.2-0.2,0.9v0.2c-0.4,0.4-0.2,1.3,0,1.3h1.1c-0.4,0,0.2,0,0,0c-0.4,1.1,0.2,1.7,1.1,2.2
	c1.9,0,1.9,1.7,1.1,3.5c-1.5,0-0.2,1.7,1.1,1.1c1.5,0,2.2,0.6,2.2,1.1c1.5,0.6,0.9,1.7-0.2,2.4c0,0,0.2,2.4,0.2,3.2
	c0.4,0.9,2.6,1.9,2.2,3.5c1.1,0.2,1.1,1.1,0,1.1c1.1,0.4,1.1,2.2,0,2.2c1.5,0.4,1.1,2.2,0,2.2c0.4,0,0.4,2.4,0,2.4
	c1.1,0.4,1.1,1.1,1.1,1.1c-0.6,0.4-0.6,2.2-1.1,2.2c1.1,0.6,2.2,1.1,2.2,2.2c0.4,0.6,0.4,1.1,0,1.3c-0.6,0-1.1,1.1-1.1,2.4
	c-0.6,0-0.6,3.5-0.2,4.3c0-0.4,0.2,1.9,0.2,3.5L282,185h1.1v1.1H282v2.2c1.1,0.4,0.4,2.8-0.2,3.5c0,1.1,0.2,1.7,0.2,3.5
	c0.4,0-0.2,2.8-1.3,3.5c0,0-0.6,1.7-0.9,2.2c0.4,1.3,0.4,3-1.1,4.5c-0.9,0.2-0.9,0.2,0,1.1c0.4,0.9,0.4,1.5-0.2,2.2
	c0,0.9,0,1.5,0,2.2v0.2c0,0.4-0.6,1.1-2.2,1.1l0,0v1.1l0,0l0,0c-0.2,0.4-0.2,1.5-1.1,1.1c0.2,2.2-0.9,1.5-2.2,1.1v-1.1
	c-3.2,0.4-2.2,3.2-1.1,2.2c1.3-0.6,1.9,0,2.2,1.1h-1.1l0.2,2.2c0-0.6-1.3,0.6-1.3,1.1c0.9,1.3,0.2,3-1.1,3.5c-2.2,0-2.8,2.8-2.2,3.2
	c-0.4,1.3-1.5,3-2.2,2.2c0,0.2-1.1,0.9-1.1,2.2l-3.5,2.2c0,0.4,0,1.5,0,2.2c1.1,2.2-0.6,3.5-2.4,3.5c0,0.4,0,2.2-1.1,2.2
	c-1.3,0.6-1.9,1.7-2.2,2.2c0.4,0.6,0.4,0.6,0,1.1l0,0l0,0l0,0h-0.2c0,0.6-0.6,0.6-0.9,1.1v1.1h-1.1c0.4-0.4-1.3,0-1.1,1.1
	c-0.2,1.3-1.3,2.2-1.1,2.4c-0.9,0-1.5,0-1.1,0.9c-0.2,1.3-1.5,0.9-2.2,1.1c-2.2-0.9-2.6-0.4-2.2,1.1l0,0c-0.4,0.2-0.4,0.2,0,1.1
	c-0.4,1.5-1.5,1.9-2.2,1.1c-1.1,0.2-1.5,0.9-2.2,1.1c0,0.9,0,1.5-1.3,1.1c-2.2,0.4-3.5,0.4-4.5,1.1c0.4,1.5-0.6,2.2-3.5,2.2
	c0,0-0.6,0.6-1.1,1.3l0,0l0,0c-0.6,0-0.6,0.2-1.1,0.2c0.9,1.1,0.4,2.6-1.1,2.2h-1.1v1.1h-1.1h-1.1l-2.2,1.1h-1.1l-2.2,2.2l0,0
	l-1.1-1.1h-0.2c-1.1-1.1-2.8,0-3.5,1.1l1.1,2.2l0,0h1.1l-4.5,1.1l-1.1,1.1l-1.1-1.1h-2.4c0-0.4-0.6-0.4-0.9,1.1h-1.1v1.1v1.1h-2.2
	l0,0h-1.1v-1.1c0.9,0.6,1.5-0.4,1.1-1.1c0.2-1.5,0.2-2.8,0-2.2l0,0c0.9-1.1,0.9-1.1,1.1-1.1c0.9-0.4,1.5-1.7,0-2.2
	c-0.2-0.6-0.2-0.6,0-1.1c0.9-0.6,0.9-1.7-1.1-2.2l0,0l0,0h-1.1l-1.1,1.1c0.2,1.1,0.2,2.2,0,3.5c0.2,0,0.2,1.1,0,2.2l0,0
	c-0.4-0.4-1.1,0-1.1,1.1h-1.1l0,0l1.1,1.1v1.3c1.9,0,1.3,1.1,0,2.2h-1.1l0,0L200,276l-1.1,1.1l0,0c-0.4-2.2-2.8-2.2-3.5-1.1h-2.2
	c-0.6-0.4-1.1-0.9-2.2,0c-0.6,0.9-1.7,0.9-3.5-1.1v-2.2c0.4,0,1.5,0.6,2.2,1.1c1.1-1.1,1.1-1.5,0-2.2h-2.4c0,1.3-1.7,2.2-3.2,2.2
	L182,275c-2.6-0.4-1.3,0.6-1.1,2.2h1.1l0,0v1.1l0,0v1.1H181l0,0l0,0h-1.1l0,0c-0.2-0.2-0.9-2.2-1.1-2.2c-0.2-2.6-2.6-1.5-1.9,0
	c0,4.3-1.7,3-3.7,0H171h-1.1c0.6-2.2-1.1-1.5-2.2-1.1c-1.1-0.4-1.7,0.2-2.4,1.1c0,2.6-1.1,1.9-1.1,0c-0.6-1.5-1.7-0.9-2.2,0
	l-1.1-1.1l-1.1,1.1l-1.1-1.1l0,0l0,0h-1.1l0,0c-0.9-0.9-1.3-0.9-2.2,0c-0.2,1.9-1.5,1.3-1.1-1.1c0.2-1.1,0.2-1.1-2.2-1.1
	c-1.5-1.1-3.2-0.4-4.5,0.2c-1.5,0-1.1,0.6,0,1.1c3.5,0,1.3,2.4,0,0.9h-1.1l0,0c-0.4-0.4-0.4-1.1-1.1-1.1v-1.1
	c-1.1-1.1-0.4-2.2,0-2.2l0,0c0-1.1,1.1-1.7,2.2-2.2c-0.4-3.5-3.2-1.1-5.6,2.2l0,0l0,0c-1.1,0-2.8,2.4-5.6,1.1
	c-0.6-0.4-0.6-1.1-1.1-1.1l0,0c0.4-1.1,1.1-1.7,1.1-1.1c0.4-1.1,1.1-2.2-1.1-2.2l-0.2-1.1c0,0-0.6-0.6-0.9,0c-0.9,1.1-1.3,0.6-2.2,0
	c0.2-1.1-0.2-1.7-1.1-1.1c0.2,1.7,0.2,1.1,0,1.1l0,0h-1.1l0,0h-1.1l0,0H128l-1.1-1.1c-0.4,0-0.9,0-2.2,1.1c-1.5,0.6-3.5,0.6-3.5-1.1
	c-1.1-1.3-3.5-2.2-5.6-2.2l-2.4-1.1c0,0.4-0.6,0-1.1,0H112c0-1.3,0.6-1.9,1.3-2.2v-1.1c-1.3-3,2.2-3,3.5-2.2h1.1v-1.1h-1.1
	c1.1-1.5-0.6-1.9-1.1-1.1c-1.3,0.9-1.7,1.5-3.5,0c-0.6,0.2-1.1-0.2-1.1-1.1l0,0c0.4-0.4,0.4-1.1,1.1-1.1l-0.2-1.1
	c0-2.6-1.7-1.5-1.1,0h-1.1l-1.1,1.3c-1.3,0-1.9,0.6-2.2,0.9l0,0c-0.2,0.2,0.2,1.3,1.1,1.1c1.5-0.9,2.6-0.9,3.5,0l2.2,1.1l-1.1,1.1
	l-1.3,1.1c0-1.9-2.2-0.9-2.2,1.1c2.2,2.2,0.4,2.2-1.1,1.1l0,0c-5.4-0.6-5.4-2.4-4.5-6.7l0,0l0,0H102l-2.2-1.1l-2.2-0.9
	c-0.4,0-0.4-1.3,0-1.1c-0.4,0-1.7-0.2-1.1-0.2c-1.1-0.4-1.7-1.5-1.1-1.1h-2.2l-1.1-1.1c0.4-0.4,0-1.1-1.1-1.1
	c-1.3-0.4-3.5,0-3.5-1.1v-1.1l0,0l0,0c-0.6-1.7-2.4-3.5-3.5-3.5c-2.6,0.6-1.9-0.6-1.1-1.1c0.4-1.3-0.9-4.1-2.2-4.5H80l-2.2-3.5h-4.5
	l-1.1-2.2l1.1-1.1h1.1h1.1h1.1v2.2h1.1l1.1,1.1c3.7-0.2,3-1.3,1.1-2.2l-2.2-1.1c-2.2-4.3-5.6-1.5-5.6,0h-2.2l1.1-1.1l-1.1-1.1h-2.2
	l-1.1-1.1l0,0l1.1-1.1c2.4-1.1,2.4-2.2,1.1-2.2c-1.1-0.4-1.1-0.4-2.2-1.1l0,0c0-0.4,0-0.4-1.1-1.1c2.2-1.7,1.7-2.8,0-3.5l-1.1-2.2
	h-1.1l-1.1,1.1l-1.1-1.1H59l0,0l1.1-1.1l2.2-0.2c2.8,0,1.5-1.7,0-2.2h-2.2v-0.9l0.9-0.2l0.2,0.2c0.9-1.3-0.9-2.6-2.2-1.1l-3.5,1.1
	l-1.1,1.1c-0.2,2.8-0.2,2.8-2.2,0c-0.4-1.3-0.4-1.1,0-1.1l0,0l0,0C51.2,210.5,51,209.9,51,207.9z M216.7,255.1L216.7,255.1
	L216.7,255.1L216.7,255.1L216.7,255.1z M14.8,121.2c0,2.4,1.3,1.1,1.3,0C16.8,120.5,15.5,120.3,14.8,121.2L14.8,121.2z M21.6,138
	c0,1.5,0.6,1.1,1.5,0c0-0.4-1.3-0.9-1.3,0H21.6z M20.7,138c-2.6,0-1.7,1.5,0,2.2C21.3,139.3,20.9,138.3,20.7,138L20.7,138z
	 M22.9,142.6v2.2h1.1c1.7-1.3,0.6-2.6,0-2.2H22.9z M35.4,169.4c0,0-0.4-0.9-1.1,0.2c-0.9,0.6-0.2,1.5,1.1,1.1
	C35.8,171.1,36.3,170.3,35.4,169.4L35.4,169.4z M37.6,177.4L37.6,177.4l-1.1,1.1h2.2C39.5,178.3,39.1,177,37.6,177.4L37.6,177.4z
	 M39.7,186.5c0.2,0.4,1.1,0,1.1,0c0.4-1.1,0-1.7,0-1.1C39.1,184.8,38.9,185.2,39.7,186.5z M53.3,201c-0.6-1.5-1.5-0.9-2.2,0
	C52.5,202.5,52.7,202.1,53.3,201z M55.5,199.9h-1.1C54,202.7,55.9,201.6,55.5,199.9z M57.7,199.9c0,0-0.2,0.2-0.9,0
	C57.7,201.9,58.8,201.2,57.7,199.9z M55.5,204.5v1.1l1.1-0.2c0.6,0,1.1-1.1,1.1-2.2c-0.9-1.5-2.6-0.9-2.2,0V204.5z M64.6,210.1
	c-0.2-1.1-1.5-1.1-2.2,0C62,213.1,63.5,212,64.6,210.1z M66.8,219.2c0,1.9,1.9,1.7,2.4,0C68.5,217.6,67.2,218.1,66.8,219.2
	L66.8,219.2z M83.6,230.4c0,0.9,0.9,1.3,1.1,0C84.7,230,83.6,230,83.6,230.4L83.6,230.4z M82.5,238.2c0,1.1,0.6,0.9,1.1,0
	C83.2,237.5,82.5,237.5,82.5,238.2L82.5,238.2z M91.6,240.6c-0.4-0.2-1.1,0-1.1,0C91.8,242.3,92.1,240.8,91.6,240.6z M93.8,243.8
	l1.1-1.1c1.3-2.2,0.2-2.2-1.1-1.1c-0.6-1.1-1.5,0.6-1.1,1.1L93.8,243.8z M102.9,251.8c-0.9,0,0,1.1,1.1,1.1h1.1v-1.1
	c0.6-0.2,1.1-0.4,1.1-2.2c0-1.1-2.2-1.3-2.2,0C103.5,249.7,103.1,251,102.9,251.8z M120,251.8c0-0.9-1.7-1.3-2.4,0
	C118,253.3,119.8,252.7,120,251.8z M113,263.1c0,0.9,1.9,0.6,2.2,0C114.6,261.3,113,261.3,113,263.1L113,263.1z M125.4,259.6
	C125.4,259.2,125.6,259.2,125.4,259.6C125.6,260.7,125.2,260.5,125.4,259.6z M128.8,260.7L128.8,260.7v-1.1l0,0l-1.1,1.1H128.8z
	 M125.4,265.2c3,1.3,3.5,0.2,3.5-2.2c-0.4-0.6-2.6-0.9-3.5,0C124.3,263.9,124.3,264.6,125.4,265.2z M162.6,275.6
	c0.4,0,0.6,0.2,1.1-0.2C163,274.7,162.8,274.7,162.6,275.6L162.6,275.6z M165.8,273.2c0,1.5,1.1,1.5,1.3,0
	C167.1,272.2,165.8,272.6,165.8,273.2L165.8,273.2z M170.4,275.4c0-1.5-1.1-1.5-1.1,0C169.1,277.6,170.8,277.8,170.4,275.4z
	 M173.8,276.5c0.4-0.4-0.9-0.6-1.1,0C173,278.9,174.3,278.6,173.8,276.5z M216.7,264.1l-1.1,1.1h1.1l1.1,2.2h1.1v-1.1l1.1,1.1
	c3.5,0,0.4-1.9-2.2-2.2v-2.2c3.5-3.2,1.1-4.1,0-3.5L216.7,264.1z M225.5,265.2h1.1l0,0C223.8,264.1,224.7,265.7,225.5,265.2z
	 M227.9,259.8c-0.9,0-1.1,0.2-1.1,1.1h1.1V259.8L227.9,259.8z M230.1,259.6c0,1.1,0.9,0.9,1.1,0H230.1L230.1,259.6z M241.3,257.4
	c1.1-0.2,1.1-0.6,1.1-1.1c-0.4-1.9-2.4-1.1-3.5-1.1C238.3,256.4,238.9,257.4,241.3,257.4z M239.1,259.6c-1.1,0-0.6,1.3,0,1.3V259.6
	L239.1,259.6z M244.8,255.1c-0.4-0.4-1.1,0-1.1,0v1.1h1.1v1.1h1.1v-2.2H244.8z M243.5,247.3c0,1.5,2.2,1.7,4.8,1.1
	c1.1,0.4,1.3,0.9,2.2-1.1c0.4-0.6,0.6-1.7-1.1-1.1l0,0H248l0,0l-1.1-1.1h-1.1l0,0C242.8,243.2,242.6,246.4,243.5,247.3L243.5,247.3z
	 M246.9,242.7c-0.6-0.6-1.5-0.6-2.2,0C245.2,243.8,246.3,243.8,246.9,242.7z M260.6,238.2c-4.3,0-2.8,2.8-1.1,3.2
	C262.3,240.8,261.9,238.2,260.6,238.2L260.6,238.2z M257.1,236c1.1,0.6,1.3,1.3,2.2-0.2c1.5,0,1.9,0,1.1-0.9
	c-0.4-1.5-1.5-1.5-2.2-1.1C257.1,235.2,257.1,235.4,257.1,236z M271.8,205.5h1.1c1.3,0.6,2.2,0.6,2.2,0v-2.2l0,0l-1.3-1.1
	c0,0.4-2.2,0.4-2.4,0c0,0.4,0.2,2.2,0.2,2.2v1.1H271.8z M277.4,205.5h1.1l0,0H277.4L277.4,205.5z M276.3,203.4L276.3,203.4
	L276.3,203.4h1.1h1.1l0,0c-0.9-2.2-2.4-1.1-3.5,0H276.3z M279.6,201.2c-0.6,0-1.1,0-1.1,1.1c0.9,2.4,4.1,1.1,4.5,0
	c-0.9-1.5-1.1-2.6-1.1-3.5c0.6-1.3,0.6-1.9-1.1-3.5c-1.9-0.4-3,1.5-1.1,2.2C280,198.8,280,199.3,279.6,201.2z M233.5,152.8
	c-1.1,0-2.4,0.6-1.1,1.1C233.5,155.6,234,153.8,233.5,152.8z M234.6,158.4c0-0.6,0-1.1-1.1-1.1l-1.1,2.2c0.9,2.6,3,0.6,1.1-1.1
	H234.6z M238.1,161.4c-1.1,0-0.9,1.7,0,2.4l1.1-0.2c0.4,0,0.4-2.2,0-2.2C239.6,161,238.1,161.4,238.1,161.4L238.1,161.4z M229,155.8
	c-1.3,0-1.1,0.9,0,1.3V156V155.8z M225.5,157.1h1.1V156C225.7,154.9,225.3,156.2,225.5,157.1z M225.5,151.5L225.5,151.5l-1.1-1.1
	c-0.6-0.4-1.7,0-1.1,1.1H225.5L225.5,151.5z M215.4,157.1c-0.6,0-1.1,0.6-1.1,1.3C215.8,158.8,216,158.2,215.4,157.1L215.4,157.1z
	 M213.2,157.1c1.5-0.4,0.9-2.2,0-2.2C210.6,154.3,210.6,156,213.2,157.1z M221,124.4L221,124.4C221.4,125.3,220.8,125.7,221,124.4z
	 M229.8,117.7c0,1.9,1.9,1.3,1.3,0c0.4-2.2-1.1-2.2-1.1,0H229.8z M236.8,125.7v-2.2C235.7,122.9,235.9,124.6,236.8,125.7z
	 M253.6,131.3c-2.2-1.1-3,1.3-1.1,3.5c1.5,1.1,2.8,0.9,3.5,0c1.3,0.4,1.5-2.2,0-2.2C255.4,131.6,254.5,131.3,253.6,131.3z
	 M284.1,156h-1.1l0,0C283.7,157.1,284.1,156,284.1,156z M276.3,160.5c1.5,0.6,2.6-0.6,2.2-1.1c-1.1-1.1-2.8-1.1-3.5,0
	C275.5,160.3,275.7,160.5,276.3,160.5z M277.4,180.9c0.6-0.9-0.2-1.3-1.1,0C276.8,181.5,277.4,181.5,277.4,180.9z M278.3,189.7
	c0,1.1,1.3,0.6,1.3-1.1h-1.1C278.1,188,277.4,188.7,278.3,189.7L278.3,189.7z M282,188.7L282,188.7
	C282.4,189.7,281.5,189.5,282,188.7z M285.2,188.4c-0.9,0-1.7-0.4-1.1,1.3C285,190.8,285.2,188.9,285.2,188.4z"/>
</svg>
