<?xml version="1.0" encoding="utf-8"?>
<!-- Generator: Adobe Illustrator 20.0.0, SVG Export Plug-In . SVG Version: 6.00 Build 0)  -->
<svg version="1.1" id="Layer_1" xmlns="http://www.w3.org/2000/svg" xmlns:xlink="http://www.w3.org/1999/xlink" x="0px" y="0px"
	 viewBox="0 0 235.7 114.7" style="enable-background:new 0 0 235.7 114.7;" xml:space="preserve">
<style type="text/css">
	.st0{fill:none;}
	.st1{fill:#EC1C24;}
</style>
<g>
	<rect x="-32.1" y="-35.5" class="st0" width="300" height="185.9"/>
	<g>
		<g>
			<g>
				<g>
					<g>
						<g>
							<g>
								<g>
									<path class="st1" d="M97.2,15.5c-1.7-1.6-4.6-2.5-7.3-2.5c-6.6,0-12,5.2-12.1,12c0,6.6,5.5,11.8,12.1,11.8
										c3.8,0,6.9-1.4,9.1-4.2V26c-1.2,2.1-3.5,4.7-5.7,5.6c-1,0.4-2.2,0.8-3.5,0.8c-4.2,0-7.5-3.3-7.5-7.4c0-3.9,3.1-7.5,7.5-7.5
										c2.1,0,3.9,0.9,5.3,2.2c1.4,1.4,3.6,4.3,4.7,5.3c2.7,2.9,6.5,4.7,10.8,4.7c8.2,0,14.8-6.6,14.8-14.7c0-8.2-6.6-15-14.8-15
										c-4.8,0-9,2.5-11.7,6v8.8c2.1-5.6,5.9-10.1,11.7-10.1c5.6,0,10.1,4.7,10.1,10.3c0,5.6-4.6,10.1-10.1,10.1
										c-2.5,0-4.8-0.9-6.6-2.5C101.9,21.1,99.5,17.4,97.2,15.5"/>
								</g>
							</g>
						</g>
					</g>
					<path class="st1" d="M0,40.2h32.8v9.1c0,0-1.7-3.6-5.2-3.6H12.4v15.7h16.4v8.3c0,0-0.5-2.6-4.6-2.6H12.4v21.5
						c0,3.1,3.4,5.1,3.4,5.1H0.1c0,0,3.3-1.7,3.3-5.1V45.8C3.5,42.2,0,40.2,0,40.2z"/>
					<path class="st1" d="M82.4,40.2H99c0,0-3.8,1.8-3.8,4.7v50.2c0,16.9-17,19.8-18,19.6c1.4-0.9,8.5-6.9,8.6-19.6V44.9
						C85.9,42.2,82.4,40.2,82.4,40.2z"/>
					<path class="st1" d="M101.3,40.2H118c0,0-3.8,1.8-3.8,4.7v43.7c0,3.1,3.8,5.1,3.8,5.1h-16.7c0,0,3.8-2,3.8-5.1V44.9
						C105,42,101.3,40.2,101.3,40.2z"/>
					<path class="st1" d="M121.4,40.2h36.8l-3.1,9.8c0,0-0.9-4-4.4-4H143v42.8c0,2.7,3.6,5.1,3.6,5.1h-16.4c0,0,3.5-2.1,3.5-5.1
						V45.8h-9.2c-2.6,0-6.4,4.9-6.4,4.9L121.4,40.2z"/>
					<path class="st1" d="M219.6,40.2h16.1c0,0-3.4,1.8-3.4,4.7v32.4c0,13.1-10.9,17.2-18.5,17.2c-7.5,0-19.3-4-19.3-17.2V44.9
						c0-2.9-3.5-4.7-3.5-4.7h16.4c0,0-3.6,1.8-3.6,4.7v32.4c0,6.9,4.6,11.4,9.9,11.4c5.3,0,9.5-4.7,9.5-11.4V44.9
						C223.2,42,219.6,40.2,219.6,40.2z"/>
					<path class="st1" d="M63,40.2h16.4c0,0-3.5,2-3.5,4.8v32.3c0,13.3-11.4,17.4-19.1,17.4c-7.5,0-19.3-4.2-19.3-17.4V45
						c0-2.9-3.4-4.8-3.4-4.8h16.5c0,0-3.8,2-3.8,4.8v32.3c0,6.9,4.6,11.6,9.9,11.6s9.6-4.8,9.6-11.6V45C66.6,42.2,63,40.2,63,40.2z"
						/>
					<path class="st1" d="M186,48.8c0,0-2.3-4-9-4c-6.8,0-10.4,3.5-10.4,8.1c0,5.2,3.9,7.2,9.9,10c5.7,2.7,14.3,6.5,14.3,16.1
						c0,8.6-7.7,15.7-21.3,15.7c-4.2,0-10-1.4-10-1.4L156.4,83c2.9,2.9,8.1,5.9,13.3,5.9c5.5,0,12-3.4,12-8.8
						c0-10.4-24.3-8.7-24.3-26.1c0-6,4.2-14.7,18.7-14.7c4.7,0,10,1.4,10,1.4L186,48.8z"/>
				</g>
			</g>
		</g>
	</g>
</g>
</svg>
