<?xml version="1.0" encoding="utf-8"?>
<!-- Generator: Adobe Illustrator 20.0.0, SVG Export Plug-In . SVG Version: 6.00 Build 0)  -->
<svg version="1.1" id="Layer_1" xmlns="http://www.w3.org/2000/svg" xmlns:xlink="http://www.w3.org/1999/xlink" x="0px" y="0px"
	 viewBox="0 0 300 143.8" style="enable-background:new 0 0 300 143.8;" xml:space="preserve">
<style type="text/css">
	.st0{fill:url(#SVGID_1_);}
	.st1{fill:url(#SVGID_2_);}
	.st2{fill:url(#SVGID_3_);}
	.st3{fill:#4BB6E8;}
	.st4{fill:url(#SVGID_4_);}
	.st5{fill:url(#SVGID_5_);}
	.st6{fill:#0B7AC0;}
	.st7{fill:#2387C6;}
	.st8{fill:#0C6CA8;}
	.st9{fill:url(#SVGID_6_);}
	.st10{fill:url(#SVGID_7_);}
	.st11{fill:url(#SVGID_8_);}
	.st12{fill:url(#SVGID_9_);}
	.st13{fill:url(#SVGID_10_);}
	.st14{fill:#5DBDEA;}
	.st15{fill:#0D71B0;}
	.st16{fill:url(#SVGID_11_);}
	.st17{fill:url(#SVGID_12_);}
	.st18{fill:url(#SVGID_13_);}
	.st19{fill:url(#SVGID_14_);}
	.st20{fill:url(#SVGID_15_);}
	.st21{fill:url(#SVGID_16_);}
	.st22{fill:url(#_x003C_Path_x003E_31.12_2_);}
	.st23{fill:url(#_x003C_Path_x003E_-54.16_2_);}
	.st24{fill:#AF0759;}
	.st25{fill:url(#_x003C_Path_x003E_157.25_2_);}
	.st26{fill:url(#_x003C_Path_x003E_-28.89_2_);}
	.st27{fill:url(#_x003C_Path_x003E_175.84_2_);}
	.st28{fill:url(#_x003C_Path_x003E_130.97_2_);}
	.st29{fill:url(#_x003C_Path_x003E_135_2_);}
	.st30{fill:url(#_x003C_Path_x003E_100.1_2_);}
	.st31{fill:url(#_x003C_Path_x003E_51.07_2_);}
	.st32{fill:url(#_x003C_Path_x003E_-19.14_2_);}
	.st33{fill:url(#_x003C_Path_x003E__0_2_);}
	.st34{fill:url(#SVGID_17_);}
	.st35{fill:url(#SVGID_18_);}
	.st36{fill:url(#SVGID_19_);}
	.st37{fill:url(#SVGID_20_);}
	.st38{fill:url(#SVGID_21_);}
	.st39{fill:url(#SVGID_22_);}
	.st40{fill:url(#SVGID_23_);}
	.st41{fill:url(#SVGID_24_);}
	.st42{fill:url(#SVGID_25_);}
	.st43{fill:url(#SVGID_26_);}
	.st44{fill:url(#SVGID_27_);}
	.st45{fill:url(#SVGID_28_);}
	.st46{fill:url(#SVGID_29_);}
	.st47{fill:url(#SVGID_30_);}
	.st48{fill:url(#SVGID_31_);}
	.st49{fill:#9BC057;}
</style>
<g>
	
		<radialGradient id="SVGID_1_" cx="150.0357" cy="77.916" r="217.8728" gradientTransform="matrix(1 0 0 -1 0 154.5608)" gradientUnits="userSpaceOnUse">
		<stop  offset="5.618000e-03" style="stop-color:#C0296A"/>
		<stop  offset="0.9944" style="stop-color:#AF0759"/>
	</radialGradient>
	<path class="st0" d="M113.9,72.4c-2.5,0-3.2-1.3-3.4-2.6c-0.1-1,0.1-2.2,0.6-3.5c-4.9-1.3-10.4-2.9-16.2-4.7
		c-1.6,1-3.2,1.7-4.4,1.6c-0.4,0-0.6-0.4,0.3-1.6c0.1-0.1,0.4-0.5,0.8-1c-4.3-1.3-8.7-2.9-13.3-4.4c-9,8.2-19.2,16.5-25,16.5
		c-2.2,0-4.4-1.6-4.4-5.1c0-2.3,3.1-10.1,9.4-19c-4.7-1.9-9.5-4-14.3-6.2c-11,11.7-16.1,22.4-16.1,29.9c0,9.6,9,10.8,13.8,10.8
		c12.5,0,17.9-5.7,20.4-5.7c2.5,0-1.4,5.8-5.2,8.2C26,104.2,0.6,120.2,0.6,135.1c0,6.8,6.2,7.1,10.9,7.1s27.8-3,63.2-57.7
		c1.7-2.6,4.4-4,7-6c2.6-1.8,11-8.1,12.7-8.1s1.6,0.8,1.6,1.4c-0.1,1-1.2,3.5-1.2,6.4c0,2.9,3,6.2,7.8,6.2c10.8,0,18.6-7.7,25-14.6
		c-2.1-0.4-4.5-0.9-7.3-1.6C117.8,70.7,115.2,72.3,113.9,72.4z M18.6,131.9c-2.1,0-3.1-1.2-3.1-3.1c0-6.6,22.9-23.9,25.6-23.9
		c0.6,0,0.9,0.3,0.9,0.8C42,111,25.3,131.9,18.6,131.9z M140.8,72.9c0,4.5,1.6,11.2,12.2,11.2c6,0,11.4-3.2,16-7.8
		c-9-0.6-18.5-1.9-28.3-3.8C140.8,72.8,140.8,72.9,140.8,72.9z M219.5,75c0,3.9,0.9,10,7.5,10c13,0,29.1-16.4,29.9-16.5
		c0.5-0.1,0.6,0.1,0.6,0.6c0,0.6-1.8,7.1-20.8,30.2s-28.2,32.1-28.2,37s4.3,6.8,6.2,6.8c1.9,0,10.3-0.4,29.9-32.5
		c14-22.9,20.7-37,28.2-48.4C259.4,68.1,242.5,71.9,219.5,75z M180.7,76.9c-1.4,2.1-2.6,3.9-3.4,5.2c0,0-1,1.2,0.5,1.2h14
		c0.6,0,1.2-0.5,1.7-1.2c0.1-0.3,1.6-2.5,3.5-5.2C191.6,77.2,186.3,77.2,180.7,76.9z"/>
	
		<radialGradient id="SVGID_2_" cx="171.7071" cy="106.5337" r="92.4755" gradientTransform="matrix(1 0 0 -1 0 154.5608)" gradientUnits="userSpaceOnUse">
		<stop  offset="6.474800e-02" style="stop-color:#4BB6E8"/>
		<stop  offset="0.3375" style="stop-color:#3CA8DF"/>
		<stop  offset="0.8557" style="stop-color:#1685C7"/>
		<stop  offset="1" style="stop-color:#0B7AC0"/>
	</radialGradient>
	<path class="st1" d="M286.2,28.9c0-3.2,6.5-9.9,9.5-9.9c2.1,0,3.5,2.2,3.5,4.3c0,5.6-6.2,9.6-8.2,9.6
		C289.9,32.9,286.2,31.2,286.2,28.9z M101.4,56.3c4.8,0.9,9.6,1.8,14.6,2.5c-2.2,2.6-3.9,5.2-4.8,7.5c-4.9-1.3-10.4-2.9-16.2-4.7
		c1.8-1.2,3.6-2.7,4.3-3.4C100.1,57.6,100.7,56.9,101.4,56.3z M290.8,38.5c0,1.3-1.6,4.3-7.4,10.1c-3.1,3-7.5,9.1-10.5,13.6
		c-13.5,5.8-30.4,9.7-53.4,12.9c0-0.5,0-0.9,0-1.3c0.1-2.9,1.3-4.9,1.3-5.8c0-0.4,0-0.9-0.6-0.9s-2.9,1.2-5.2,1.2
		c-8.2,0-5.5-5.6-7.7-5.6c-0.6,0-1.2,0.4-1.6,1c-0.3,0.4-5.2,8.1-8.8,13.5c-5.2,0.3-10.7,0.3-16.2,0c3.8-5.8,9.2-14,12.5-20.7
		c10.1-2.1,20.3-4.8,30.2-8.4c0,0.5,0,0.9,0,1.4c0,4.8,1.6,7.3,2.7,7.3c1.2,0,2.9-1.3,4.4-3.1c13.6-16.4,24.6-18.2,28.6-18.2
		c2.7,0,3.8,2.2,3.8,4.4c0,8.1-14.3,19.9-23.3,22.6c-2.5,0.8-3.8,2.2-3.8,3.9c0,2.2,1,4.5,4.7,4.5c9.6,0,20.3-13,29.2-22.6
		c8.8-9.6,16-13.1,18.1-13.1C289.7,35.1,290.8,36.8,290.8,38.5z M240.7,55.2c0,0.6,0.5,1,1.2,1c2.9,0,11.7-8.1,11.7-11.4
		c0-0.5-0.5-0.8-1-0.8C249.6,44.1,240.7,52.6,240.7,55.2z M127.8,60.1c3.1,0.3,6.4,0.5,9.5,0.6c-3,1.9-6.2,5.6-9.9,9.5
		c-2.1-0.4-4.5-0.9-7.3-1.6C123.4,65.9,126.6,62.4,127.8,60.1z M180.9,58.5c-2.9,6.2-6.9,12.9-12,17.9c-9-0.6-18.5-1.9-28.3-3.8
		c0.1-4.2,1.8-10.1,2.1-11.8c5.3,0.1,10.7,0,16-0.3c-1.9,3-3.4,6-3.2,8.1c0,1.7,1.2,2.7,3,2.7c5.7,0,10.5-5.7,13.9-11.8
		C175.3,59.1,178.2,58.9,180.9,58.5z M46.4,39.9c4.5,1.8,9.5,3.5,14.6,5.2c-0.9,1.2-1.7,2.3-2.5,3.4c-4.7-1.9-9.5-4-14.3-6.2
		C44.8,41.5,45.6,40.7,46.4,39.9z M95.7,55c-1.7,2.3-3.2,4.4-4,5.6c-4.3-1.3-8.7-2.9-13.3-4.4c1.6-1.4,3.1-2.9,4.5-4.3
		C87,53,91.2,54.1,95.7,55z"/>
	
		<radialGradient id="SVGID_3_" cx="178.4848" cy="98.8899" r="117.4007" gradientTransform="matrix(1 0 0 -1 0 154.5608)" gradientUnits="userSpaceOnUse">
		<stop  offset="3.956800e-02" style="stop-color:#9BC057"/>
		<stop  offset="0.241" style="stop-color:#8BBA51"/>
		<stop  offset="0.6046" style="stop-color:#74B148"/>
		<stop  offset="0.8309" style="stop-color:#6BAE44"/>
	</radialGradient>
	<path class="st2" d="M109.2,36.8c0-0.9-1.3-1.7-3-1.7c-1.4,0-7.3,1-11.8,5.3c-1.7,1.6-6.1,6.2-11.6,11.4C87,53,91.2,54.1,95.5,55
		c3.9-5.3,9-12.2,10.3-13.6C108,38.9,109.2,37.6,109.2,36.8z M121.5,16.2c0.5,0.1,0.6,0,0.9-0.4c0.3-0.5,7.9-14.2,7.9-14.2
		c0.1-0.3,0-0.4-0.1-0.4c-0.1,0-1.6-0.5-4.3-0.5c-11.4,0-36.5,5.7-61.7,24c-7,5.1-13,10.3-17.9,15.2c4.5,1.8,9.5,3.5,14.6,5.2
		c2.7-3.5,5.8-7,9.5-10.4c14.3-13.1,30.7-19.5,40.9-19.5C115.7,15.3,120.8,16.1,121.5,16.2z M224.6,34.8c-3.9,0-11.3,9.2-12.7,9.2
		c-1,0-2.3-4.2-3.6-5.8c-1.8-2.5-4.3-3-11.3-3c-3.5,0-5.6,0.3-8.7,0.3c-3.6,0-4.4-0.1-5.1-1.7c-0.6-1.6-11.2-29.4-35.2-29.4
		c-5.3,0-10.9,2.3-10.9,9.6s4.3,17.2,22.5,23.1c0.4,0.1,0.9,0.3,0.9,0.6c0,0.8-8.6,12.3-16.4,13.8c-0.9,0.1-1.6-0.6-1.6-1.4
		c0-0.8,1.2-3.2,1.2-6.9s-1.2-8.8-8.2-8.8c-6.8,0-14.6,3.2-34.1,22.1c4.8,0.9,9.6,1.8,14.6,2.5c6.1-7.4,15.5-14.7,17.8-14.7
		c1.4,0,2.1,0.5,2.1,1.2c0.3,2.6-3.5,4.4-5.8,6.1c-2.7,1.9-3.6,2.6-3.2,4.2c0.1,0.9,1.4,1.2,1.6,2.7c0,0.5-0.1,1-0.5,1.8
		c3.1,0.3,6.4,0.5,9.5,0.6c1.3-0.9,2.7-1.3,4-1.3c1.2,0,1.6,0.5,1.6,1.2c0,0,0,0.1,0,0.4c5.3,0.1,10.7,0,16-0.3
		c2.9-4.4,6.6-8.7,8.6-9.7c3.1-1.8,4.8-3.8,4.8-4.8c0-1-2.2-2.5-2.5-3.5c-0.3-1.2,0.6-1.8,2.9-1.3c3.1,0.8,5.3,0.9,5.5,3.1
		c0,1.8-1.9,8.8-5.5,15.1c2.7-0.3,5.6-0.6,8.3-1c2.7-6,4.2-11.4,4.2-14.4c0-0.6,0.3-1.4,1.4-1.4c1.2,0,4.5,0.4,6,0.5
		c1.6,0.1,3.8,1.4,3.8,4.5c0,1.8-1.3,5.1-3.1,8.7c10.1-2.1,20.3-4.8,30.2-8.4c0.4-6.4,3.5-9,3.5-11
		C226.9,35.4,226.3,34.8,224.6,34.8z M174.6,35.2c-5.3,0-25.6-7.9-25.6-17.9c0-3.2,2.2-5.1,5.2-5.1c14.6,0,21.8,20.7,21.8,22
		C176,34.8,175.6,35.2,174.6,35.2z"/>
	<path class="st3" d="M98.8,57.8c-1,1-3,2.6-4.8,3.6c0.6,0.1,1.2,0.4,1.8,0.5c2.2-1.4,3.9-3.1,3.9-3.1c0.8-0.8,1.7-1.6,2.5-2.3
		c-0.5-0.1-1-0.3-1.7-0.4C100.1,56.7,99.4,57.2,98.8,57.8z"/>
	
		<linearGradient id="SVGID_4_" gradientUnits="userSpaceOnUse" x1="206.6255" y1="84.6149" x2="214.8532" y2="77.7109" gradientTransform="matrix(1 0 0 -1 0 154.5608)">
		<stop  offset="0" style="stop-color:#2387C6"/>
		<stop  offset="0.633" style="stop-color:#3FA8DE"/>
		<stop  offset="1" style="stop-color:#4BB6E8"/>
	</linearGradient>
	<path class="st4" d="M220.2,66.2c-0.3,0-0.8,0.1-1.3,0.4c-1,0.4-2.5,0.8-3.9,0.8c-4.9,0-5.5-1.9-5.8-3.6c-0.3-0.9-0.5-2.1-1.8-2.1
		c-0.8,0-1.7,0.5-2.2,1.3l-3,4.7c-1.8,2.7-4.2,6.4-6,9.2c0.5,0,1.2,0,1.7,0c1.6-2.5,3.5-5.3,5.5-8.4l3-4.7c0.3-0.4,0.6-0.6,1-0.6
		c0.1,0,0.3,0.1,0.5,1c0.5,1.7,1.3,4.7,7.3,4.7c1.7,0,3.2-0.5,4.3-0.9c0.3-0.1,0.6-0.3,0.9-0.3c0,0,0,0.1,0,0.3
		c0,0.3-0.1,0.8-0.4,1.3c-0.4,1.2-0.8,2.6-0.9,4.5c0,0.5,0,0.9,0,1.4c0.5,0,0.9-0.1,1.4-0.1c0-0.4,0-0.8,0-1.2
		c0.1-1.7,0.5-3.1,0.9-4.2c0.3-0.8,0.4-1.3,0.4-1.7C221.6,66.3,220.7,66.2,220.2,66.2z"/>
	
		<linearGradient id="SVGID_5_" gradientUnits="userSpaceOnUse" x1="168.9472" y1="86.5922" x2="159.1983" y2="92.389" gradientTransform="matrix(1 0 0 -1 0 154.5608)">
		<stop  offset="0" style="stop-color:#6FC4EC"/>
		<stop  offset="0.1681" style="stop-color:#66BEE9"/>
		<stop  offset="0.4395" style="stop-color:#4EACDE"/>
		<stop  offset="0.7785" style="stop-color:#2890CD"/>
		<stop  offset="1" style="stop-color:#0B7AC0"/>
	</linearGradient>
	<path class="st5" d="M171.7,59.5c-1.4,2.5-3.1,4.9-4.9,6.9c-2.7,2.7-5.5,4.2-8.2,4.2c-0.8,0-2.2-0.3-2.3-1.9
		c-0.1-2.1,1.4-5.1,3.4-8.1c-0.5,0-1.2,0-1.7,0.1c-1.8,3-3.1,6-3.1,8.1c0.1,2.1,1.4,3.4,3.6,3.4c3.1,0,6.2-1.6,9.2-4.7
		c2.2-2.2,4-5.1,5.6-8.1C172.9,59.5,172.4,59.5,171.7,59.5z"/>
	<path class="st6" d="M110.5,66.2c0.4,0.1,0.9,0.3,1.3,0.4c0.8-2.1,2.5-4.7,4.9-7.7c-0.5-0.1-1-0.1-1.6-0.3
		C113.3,61,111.5,63.6,110.5,66.2z"/>
	<path class="st3" d="M77.5,55.9c0.5,0.1,1,0.4,1.4,0.5c1.6-1.4,3.1-2.9,4.5-4.3c-0.5-0.1-1-0.3-1.6-0.4C80.6,53,79,54.5,77.5,55.9z
		"/>
	<path class="st3" d="M127.1,59.9c-0.5,0.9-1.3,1.9-2.6,3.5c-1.6,1.7-3.4,3.5-5.1,4.9c0.5,0.1,1.2,0.3,1.7,0.4
		c1.7-1.4,3.2-3,4.4-4.4c1.4-1.7,2.5-3.1,3-4.3C128,60.1,127.5,60.1,127.1,59.9z"/>
	<path class="st7" d="M128.6,68.1c-0.5,0.6-1.2,1.3-1.8,1.9c0.5,0.1,1,0.3,1.6,0.4c0.4-0.4,0.8-0.9,1.2-1.3c3.4-3.6,6.4-6.9,9.1-8.3
		c-0.8,0-1.7,0-2.5-0.1C133.8,62.4,131.3,65.1,128.6,68.1z"/>
	<path class="st8" d="M57.7,48.2c0.4,0.1,0.9,0.4,1.3,0.5c0.8-1.2,1.7-2.2,2.6-3.4c-0.5-0.1-0.9-0.3-1.4-0.5
		C59.3,46,58.5,47.2,57.7,48.2z"/>
	
		<linearGradient id="SVGID_6_" gradientUnits="userSpaceOnUse" x1="235.0166" y1="101.6579" x2="263.4963" y2="101.6579" gradientTransform="matrix(1 0 0 -1 0 154.5608)">
		<stop  offset="0" style="stop-color:#0C6CA8"/>
		<stop  offset="1" style="stop-color:#0B67A1"/>
	</linearGradient>
	<path class="st9" d="M236.4,66.2c0-1.4,1.2-2.6,3.2-3.2c9-2.6,23.8-14.6,23.8-23.3H262c0,7.8-14.3,19.4-22.9,22
		c-2.7,0.8-4.3,2.5-4.3,4.5H236.4z"/>
	
		<linearGradient id="SVGID_7_" gradientUnits="userSpaceOnUse" x1="233.2274" y1="103.0756" x2="225.3979" y2="102.072" gradientTransform="matrix(1 0 0 -1 0 154.5608)">
		<stop  offset="0" style="stop-color:#4BB6E8"/>
		<stop  offset="0.2329" style="stop-color:#42AEE2"/>
		<stop  offset="0.609" style="stop-color:#2A98D3"/>
		<stop  offset="1" style="stop-color:#0B7AC0"/>
	</linearGradient>
	<path class="st10" d="M235.5,47.1c-1.8,1.8-3.6,3.8-5.6,6c-1.4,1.7-3,2.9-3.9,2.9c-0.6,0-2.1-1.9-2.1-6.5c0-0.6,0-1.2,0.1-1.7
		c-0.5,0.1-0.9,0.4-1.4,0.5c0,0.4,0,0.8,0,1.2c0,5.5,1.8,7.9,3.5,7.9c1.8,0,3.9-2.1,4.9-3.4c1.7-2.1,3.4-3.9,5.1-5.6L235.5,47.1z"/>
	
		<linearGradient id="SVGID_8_" gradientUnits="userSpaceOnUse" x1="255.4205" y1="112.4546" x2="260.2378" y2="112.0531" gradientTransform="matrix(1 0 0 -1 0 154.5608)">
		<stop  offset="0" style="stop-color:#4BB6E8"/>
		<stop  offset="0.2001" style="stop-color:#44ADE0"/>
		<stop  offset="0.5231" style="stop-color:#3095CB"/>
		<stop  offset="0.9267" style="stop-color:#116FA8"/>
		<stop  offset="1" style="stop-color:#0B67A1"/>
	</linearGradient>
	<path class="st11" d="M236,48.4c11.4-11.4,20.3-12.3,23-12.3c3,0,3.1,3.1,3.1,3.6h1.4c0-2.5-1.4-5.1-4.4-5.1
		c-3.5,0-12.3,1.3-23.5,12.3L236,48.4z"/>
	
		<linearGradient id="SVGID_9_" gradientUnits="userSpaceOnUse" x1="248.3306" y1="102.9246" x2="245.8949" y2="105.9689" gradientTransform="matrix(1 0 0 -1 0 154.5608)">
		<stop  offset="0" style="stop-color:#45A7D4"/>
		<stop  offset="0.2474" style="stop-color:#3D9ECD"/>
		<stop  offset="0.6455" style="stop-color:#2687BC"/>
		<stop  offset="1" style="stop-color:#0C6CA8"/>
	</linearGradient>
	<path class="st12" d="M254.2,45c0-0.9-0.9-1.6-1.7-1.6c-3.2,0-12.5,8.7-12.5,11.8c0,1,0.9,1.8,1.8,1.8
		C245.1,57.1,254.2,48.7,254.2,45z M241.5,55.2c0-2.3,8.7-10.5,11.2-10.5c0.1,0,0.3,0.1,0.3,0.1c0,3-8.6,10.7-11,10.7
		C241.8,55.6,241.5,55.5,241.5,55.2z"/>
	
		<linearGradient id="SVGID_10_" gradientUnits="userSpaceOnUse" x1="291.2539" y1="129.6026" x2="294.8681" y2="128.0968" gradientTransform="matrix(1 0 0 -1 0 154.5608)">
		<stop  offset="0" style="stop-color:#4BB6E8"/>
		<stop  offset="0.1913" style="stop-color:#44ADE0"/>
		<stop  offset="0.5002" style="stop-color:#3295C9"/>
		<stop  offset="0.886" style="stop-color:#146FA5"/>
		<stop  offset="1" style="stop-color:#0A6299"/>
	</linearGradient>
	<path class="st13" d="M295.7,18.2c-3.4,0-10.1,7-10.1,10.5c0,2.9,4,4.8,5.6,4.8c2.1,0,8.8-4.3,8.8-10.3
		C300,20.8,298.2,18.2,295.7,18.2z M291.2,32.1c-1,0-4.2-1.6-4.2-3.4c0-2.7,6.1-9.2,8.8-9.2c1.7,0,2.9,1.9,2.9,3.6
		C298.6,28.3,292.7,32.1,291.2,32.1z"/>
	<path class="st14" d="M179.8,76.9c0.5,0,1,0,1.7,0c3.9-6,9.2-14.3,12.6-20.9c-0.5,0.1-1.2,0.3-1.7,0.4
		C188.9,63.2,183.4,71.5,179.8,76.9z"/>
	<path class="st3" d="M43.4,42c0.4,0.3,0.9,0.4,1.3,0.6c0.8-0.8,1.6-1.7,2.3-2.5c-0.5-0.1-0.9-0.4-1.4-0.5
		C44.8,40.4,44.1,41.2,43.4,42z"/>
	<path class="st15" d="M94.9,54.9c-1.7,2.3-3.2,4.4-4,5.6c0.5,0.1,0.9,0.3,1.4,0.4c0.9-1.3,2.3-3.2,4.2-5.7
		C95.8,55,95.4,55,94.9,54.9z"/>
	<path class="st3" d="M141.8,62.3c-0.6,2.5-1.7,6.9-1.7,10.3c0.5,0.1,0.9,0.1,1.4,0.3c0-3.2,1.2-7.8,1.7-10.1
		c0.3-0.9,0.4-1.4,0.4-1.7c-0.5,0-0.9,0-1.4,0C142.1,61.2,141.9,61.7,141.8,62.3z"/>
	<path class="st7" d="M180.2,58.6c-1.3,2.9-2.9,5.7-4.7,8.6c-1.7,2.6-4.2,6.1-7.3,9.1c0.6,0,1.2,0.1,1.8,0.1
		c5.1-5.2,9.1-11.8,11.8-18.1C181.2,58.4,180.7,58.5,180.2,58.6z"/>
	
		<linearGradient id="SVGID_11_" gradientUnits="userSpaceOnUse" x1="285.4362" y1="113.2693" x2="273.6932" y2="106.645" gradientTransform="matrix(1 0 0 -1 0 154.5608)">
		<stop  offset="0" style="stop-color:#4BB6E8"/>
		<stop  offset="0.2099" style="stop-color:#43ADE0"/>
		<stop  offset="0.5488" style="stop-color:#2F95CC"/>
		<stop  offset="0.9723" style="stop-color:#0E6FAA"/>
		<stop  offset="1" style="stop-color:#0C6CA8"/>
	</linearGradient>
	<path class="st16" d="M235,66.2c0,3,1.7,4.9,4.5,5.2c3,0,4.9-0.5,8.2-2.1c6.6-3.5,13.4-10.9,19.5-17.7l2.7-3
		c8.8-9.6,15.7-12.9,17.5-12.9v-1.4c-2.5,0-9.6,3.6-18.6,13.3l-2.7,3c-8.2,9.1-17.5,19.4-26,19.4c-3.2,0-4-2.1-4-3.8H235z"/>
	
		<linearGradient id="SVGID_12_" gradientUnits="userSpaceOnUse" x1="277.3338" y1="111.1262" x2="278.6278" y2="109.1852" gradientTransform="matrix(1 0 0 -1 0 154.5608)">
		<stop  offset="0" style="stop-color:#4BB6E8"/>
		<stop  offset="0.3546" style="stop-color:#3093C7"/>
		<stop  offset="0.7748" style="stop-color:#1470A6"/>
		<stop  offset="1" style="stop-color:#0A6299"/>
	</linearGradient>
	<path class="st17" d="M287.7,35.7c1.7,0,2.5,1.4,2.5,2.7c0,0.6-0.5,3.1-7.1,9.6c-3.4,3.2-7.9,9.6-11.2,14.6c0.8-0.4,1.6-0.6,2.3-1
		c2.7-4.2,6.9-9.9,9.7-12.6c4.9-4.8,7.5-8.4,7.5-10.5c0-2.1-1.3-4.2-3.9-4.2v1.4H287.7z"/>
	
		<linearGradient id="SVGID_13_" gradientUnits="userSpaceOnUse" x1="109.864" y1="85.0851" x2="121.1067" y2="85.0851" gradientTransform="matrix(1 0 0 -1 0 154.5608)">
		<stop  offset="0" style="stop-color:#AF0759"/>
		<stop  offset="0.423" style="stop-color:#C33773"/>
		<stop  offset="0.7992" style="stop-color:#D25A87"/>
		<stop  offset="1" style="stop-color:#D8688F"/>
	</linearGradient>
	<path class="st18" d="M113.9,71.6c-1.6,0-2.5-0.6-2.6-1.9c-0.1-0.9,0.1-1.9,0.6-3.2c-0.4-0.1-0.9-0.3-1.3-0.4
		c-0.5,1.3-0.8,2.6-0.6,3.6c0.1,2.1,1.7,3.2,4,3.2c1.7,0,4.5-1.9,7.1-4.3c-0.5-0.1-1.2-0.3-1.7-0.4
		C117.1,70.3,114.9,71.6,113.9,71.6z"/>
	
		<linearGradient id="SVGID_14_" gradientUnits="userSpaceOnUse" x1="89.5625" y1="92.279" x2="95.8526" y2="92.279" gradientTransform="matrix(1 0 0 -1 0 154.5608)">
		<stop  offset="0" style="stop-color:#A30253"/>
		<stop  offset="1" style="stop-color:#D45584"/>
	</linearGradient>
	<path class="st19" d="M89.7,63.3c0.1,0.4,0.5,0.5,0.9,0.6c1.6,0.3,3.6-0.8,5.3-1.9c-0.5-0.1-1.2-0.4-1.8-0.5c-1.2,0.6-2.2,1-3,1.2
		c0-0.1,0.1-0.3,0.3-0.5c0.1-0.1,0.4-0.5,0.9-1.2c-0.5-0.1-0.9-0.3-1.4-0.4c-0.3,0.4-0.5,0.8-0.6,0.8C89.6,62.1,89.4,62.8,89.7,63.3
		z"/>
	
		<linearGradient id="SVGID_15_" gradientUnits="userSpaceOnUse" x1="28.033" y1="37.833" x2="30.744" y2="33.917" gradientTransform="matrix(1 0 0 -1 0 154.5608)">
		<stop  offset="0" style="stop-color:#AF0759"/>
		<stop  offset="0.423" style="stop-color:#C33773"/>
		<stop  offset="0.7992" style="stop-color:#D25A87"/>
		<stop  offset="1" style="stop-color:#D8688F"/>
	</linearGradient>
	<path class="st20" d="M41.1,104.1c-1.8,0-8.8,5.1-14.3,9.6c-4.5,3.8-12.1,10.8-12.1,14.9c0,2.5,1.3,3.9,3.8,3.9
		c3.1,0,7.5-3.8,10.8-7c6.4-6.4,13.4-16.2,13.4-19.9c0-0.3,0-0.8-0.4-1.2C42,104.2,41.6,104.1,41.1,104.1z M41.3,105.7
		c0,3-6.4,12.3-13,19c-4.2,4.2-7.8,6.6-9.7,6.6c-1.7,0-2.3-0.8-2.3-2.5c0-6.1,22.4-23.1,25-23.3C41.1,105.5,41.2,105.5,41.3,105.7
		L41.3,105.7L41.3,105.7z"/>
	
		<linearGradient id="SVGID_16_" gradientUnits="userSpaceOnUse" x1="54.938" y1="97.5911" x2="65.9757" y2="89.1239" gradientTransform="matrix(1 0 0 -1 0 154.5608)">
		<stop  offset="0" style="stop-color:#A30253"/>
		<stop  offset="0.4482" style="stop-color:#BE3772"/>
		<stop  offset="0.808" style="stop-color:#D15A87"/>
		<stop  offset="1" style="stop-color:#D8688F"/>
	</linearGradient>
	<path class="st21" d="M53.3,73.3c5.7,0,15.6-7.7,25.6-16.9c-0.5-0.1-1-0.4-1.4-0.5c-8.8,8.1-18.7,16-24.2,16
		c-2.3,0-3.6-1.7-3.6-4.4c0-2.5,3.2-10,9.4-18.6c-0.4-0.1-0.9-0.4-1.3-0.5c-6.2,8.8-9.4,16.6-9.4,19.2C48.2,71.8,51,73.3,53.3,73.3z
		"/>
	
		<linearGradient id="_x003C_Path_x003E_31.12_2_" gradientUnits="userSpaceOnUse" x1="46.9189" y1="55.4231" x2="57.5564" y2="61.8459" gradientTransform="matrix(1 0 0 -1 0 154.5608)">
		<stop  offset="0" style="stop-color:#D8688F"/>
		<stop  offset="0.423" style="stop-color:#C43975"/>
		<stop  offset="0.7992" style="stop-color:#B51561"/>
		<stop  offset="1" style="stop-color:#AF0759"/>
	</linearGradient>
	<path id="_x003C_Path_x003E_31.12_1_" class="st22" d="M1.4,135.1c0-14.2,23.1-29.2,55.9-49l-0.8-1.2C23.4,104.9,0,120.2,0,135.1
		H1.4z"/>
	
		<linearGradient id="_x003C_Path_x003E_-54.16_2_" gradientUnits="userSpaceOnUse" x1="44.3663" y1="83.5745" x2="46.9751" y2="79.9626" gradientTransform="matrix(1 0 0 -1 0 154.5608)">
		<stop  offset="0" style="stop-color:#D8688F"/>
		<stop  offset="0.423" style="stop-color:#C43975"/>
		<stop  offset="0.7992" style="stop-color:#B51561"/>
		<stop  offset="1" style="stop-color:#AF0759"/>
	</linearGradient>
	<path id="_x003C_Path_x003E_-54.16_1_" class="st23" d="M41.6,82.4c-4.8,0-13-1.3-13-10.1c0-6.9,4.5-17.4,16.1-29.6
		c-0.4-0.3-0.9-0.4-1.3-0.6C31.8,54.3,27.3,65.1,27.3,72.3c0,7.3,5.2,11.6,14.4,11.6v-1.4H41.6z"/>
	<path id="_x003C_Path_x003E__Godrej_Red_Dark_V_1_" class="st24" d="M57.2,86.2c3.1-1.9,6.8-6.6,6.2-8.4c-0.1-0.6-0.6-0.9-1.4-0.9
		c-0.9,0-2.1,0.5-3.5,1.4c-3.1,1.7-8.4,4.4-16.9,4.4v1.4c8.8,0,14.3-2.9,17.5-4.5c1.3-0.6,2.3-1.3,3-1.3c0.1,0,0.1,0,0.1,0.1
		c0,1-2.5,4.8-5.6,6.8"/>
	
		<linearGradient id="_x003C_Path_x003E_157.25_2_" gradientUnits="userSpaceOnUse" x1="104.5851" y1="80.83" x2="99.9185" y2="82.787" gradientTransform="matrix(1 0 0 -1 0 154.5608)">
		<stop  offset="0" style="stop-color:#A30253"/>
		<stop  offset="9.138881e-02" style="stop-color:#A90F5B"/>
		<stop  offset="0.5166" style="stop-color:#C5497D"/>
		<stop  offset="0.8318" style="stop-color:#D66C93"/>
		<stop  offset="1" style="stop-color:#DC7A9B"/>
	</linearGradient>
	<path id="_x003C_Path_x003E_157.25_1_" class="st25" d="M94.1,78.4c0,3.4,3.4,7,8.4,7c11.2,0,19.2-8.1,25.7-15.1
		c-0.5-0.1-1-0.3-1.6-0.4c-6.2,6.6-13.9,14-24.2,14c-4.7,0-7-3.2-7-5.6H94.1z"/>
	
		<linearGradient id="_x003C_Path_x003E_-28.89_2_" gradientUnits="userSpaceOnUse" x1="26.6782" y1="61.6171" x2="31.0451" y2="59.2079" gradientTransform="matrix(1 0 0 -1 0 154.5608)">
		<stop  offset="0" style="stop-color:#D8688F"/>
		<stop  offset="0.4482" style="stop-color:#BD3370"/>
		<stop  offset="0.808" style="stop-color:#AA105B"/>
		<stop  offset="1" style="stop-color:#A30253"/>
	</linearGradient>
	<path id="_x003C_Path_x003E_-28.89_1_" class="st26" d="M0,135.1c0,7.8,7.8,7.8,11.6,7.8c2.6,0,9.6-0.8,20.5-8.4
		c13.6-9.6,28.2-26.3,43.3-49.5c1.3-1.9,3.1-3.2,5.2-4.7l1.7-1.2l0.6-0.4c8.6-6.1,10.9-7.4,11.7-7.5c0.6-0.1,0.8,0,0.8,0.1l1-1
		c-0.4-0.4-0.9-0.5-1.8-0.5c-1.3,0-4.8,2.2-12.5,7.8l-0.6,0.4L79.9,79c-2.2,1.4-4.2,2.9-5.6,5.1c-35.2,54.6-58.2,57.5-62.5,57.5
		c-6.1,0-10.3-1-10.3-6.5H0z"/>
	
		<linearGradient id="_x003C_Path_x003E_175.84_2_" gradientUnits="userSpaceOnUse" x1="153.2096" y1="75.2699" x2="144.9308" y2="75.872" gradientTransform="matrix(1 0 0 -1 0 154.5608)">
		<stop  offset="0" style="stop-color:#A30253"/>
		<stop  offset="9.138881e-02" style="stop-color:#A90F5B"/>
		<stop  offset="0.5166" style="stop-color:#C5497D"/>
		<stop  offset="0.8318" style="stop-color:#D66C93"/>
		<stop  offset="1" style="stop-color:#DC7A9B"/>
	</linearGradient>
	<path id="_x003C_Path_x003E_175.84_1_" class="st27" d="M153,83.6c-7.8,0-11.6-3.5-11.6-10.5c0-0.1,0-0.1,0-0.3
		c-0.5-0.1-0.9-0.1-1.4-0.3c0,0.1,0,0.3,0,0.5c0,7.8,4.4,12,13,12c6.2,0,12-3.5,16.9-8.4c-0.5,0-1.2-0.1-1.8-0.1
		C164,80.2,158.8,83.6,153,83.6z"/>
	
		<linearGradient id="_x003C_Path_x003E_130.97_2_" gradientUnits="userSpaceOnUse" x1="188.1867" y1="72.8026" x2="183.198" y2="78.5472" gradientTransform="matrix(1 0 0 -1 0 154.5608)">
		<stop  offset="0" style="stop-color:#A30253"/>
		<stop  offset="0.4482" style="stop-color:#BE3772"/>
		<stop  offset="0.808" style="stop-color:#D15A87"/>
		<stop  offset="1" style="stop-color:#D8688F"/>
	</linearGradient>
	<path id="_x003C_Path_x003E_130.97_1_" class="st28" d="M192.9,81.8c-0.5,0.6-0.9,0.9-1.2,0.9h-14l0,0c0,0,0,0,0-0.1l0,0L180,79
		c0.4-0.6,0.9-1.3,1.3-2.1c-0.5,0-1,0-1.7,0c-0.3,0.5-0.6,0.9-0.9,1.3l-2.3,3.5c-0.1,0.1-0.4,0.6-0.4,1.2c0,0.1,0,0.3,0.1,0.5
		c0.1,0.3,0.5,0.6,1.4,0.6h14c0.8,0,1.6-0.5,2.2-1.4c0.1-0.3,1.7-2.5,3.8-5.7c-0.5,0-1.2,0-1.7,0C194.3,79.5,193,81.6,192.9,81.8z"
		/>
	
		<linearGradient id="_x003C_Path_x003E_135_2_" gradientUnits="userSpaceOnUse" x1="226.6499" y1="69.657" x2="224.3904" y2="71.9165" gradientTransform="matrix(1 0 0 -1 0 154.5608)">
		<stop  offset="0" style="stop-color:#BF3871"/>
		<stop  offset="0.3824" style="stop-color:#C23C74"/>
		<stop  offset="0.7779" style="stop-color:#CC497D"/>
		<stop  offset="1" style="stop-color:#D45384"/>
	</linearGradient>
	<path id="_x003C_Path_x003E_135_1_" class="st29" d="M227.1,84.4c-1.9,0-3.5-0.6-4.5-1.8c-1.8-1.9-2.2-5.3-2.2-7.7
		c-0.5,0.1-0.9,0.1-1.4,0.1c0,0,0,0,0,0.1c0,2.9,0.5,6.1,2.6,8.3c1.4,1.4,3.2,2.2,5.6,2.2V84.4z"/>
	
		<linearGradient id="_x003C_Path_x003E_100.1_2_" gradientUnits="userSpaceOnUse" x1="95.7148" y1="77.229" x2="94.8122" y2="82.2939" gradientTransform="matrix(1 0 0 -1 0 154.5608)">
		<stop  offset="0" style="stop-color:#DC7A9B"/>
		<stop  offset="9.138881e-02" style="stop-color:#D66D93"/>
		<stop  offset="0.5166" style="stop-color:#BA3371"/>
		<stop  offset="0.8318" style="stop-color:#A9105B"/>
		<stop  offset="1" style="stop-color:#A30253"/>
	</linearGradient>
	<path id="_x003C_Path_x003E_100.1_1_" class="st30" d="M95.4,78.4c0-1.7,0.4-3.1,0.8-4.3c0.3-0.8,0.4-1.3,0.4-1.8v-0.4
		c0-0.5,0-1-0.4-1.6l-0.5,0.5l-0.5,0.5c0.1,0.1,0.1,0.3,0.1,0.4c0,0.1,0,0.4-0.1,0.5c0,0.1-0.1,0.8-0.4,1.4
		c-0.4,1.2-0.8,2.9-0.8,4.7H95.4z"/>
	
		<linearGradient id="_x003C_Path_x003E_51.07_2_" gradientUnits="userSpaceOnUse" x1="232.1258" y1="46.4731" x2="248.8342" y2="67.1598" gradientTransform="matrix(1 0 0 -1 0 154.5608)">
		<stop  offset="0" style="stop-color:#DC7A9B"/>
		<stop  offset="9.138881e-02" style="stop-color:#D66D93"/>
		<stop  offset="0.5166" style="stop-color:#BA3371"/>
		<stop  offset="0.8318" style="stop-color:#A9105B"/>
		<stop  offset="1" style="stop-color:#A30253"/>
	</linearGradient>
	<path id="_x003C_Path_x003E_51.07_1_" class="st31" d="M210.3,139.9c-0.6-0.9-1-2.1-1-3.5c0-3.4,4.9-9.2,14.9-20.9
		c3.8-4.4,8.1-9.5,13.1-15.6c6.8-8.2,11.3-14.3,14.4-18.8l-1.4-0.4c-3,4.4-7.5,10.4-14,18.3c-5.1,6.1-9.4,11.2-13.1,15.6
		c-10.4,12.3-15.2,17.9-15.2,21.8c0,1.9,0.6,3.5,1.6,4.7L210.3,139.9z"/>
	
		<linearGradient id="_x003C_Path_x003E_-19.14_2_" gradientUnits="userSpaceOnUse" x1="226.4436" y1="57.9292" x2="230.254" y2="56.6069" gradientTransform="matrix(1 0 0 -1 0 154.5608)">
		<stop  offset="0" style="stop-color:#DC7A9B"/>
		<stop  offset="9.138881e-02" style="stop-color:#D66D93"/>
		<stop  offset="0.5166" style="stop-color:#BA3371"/>
		<stop  offset="0.8318" style="stop-color:#A9105B"/>
		<stop  offset="1" style="stop-color:#A30253"/>
	</linearGradient>
	<path id="_x003C_Path_x003E_-19.14_1_" class="st32" d="M209.4,141c1.6,1.9,3.8,2.7,5.3,2.7c6.8,0,17.3-11.3,30.5-32.9
		c7.3-11.7,12.7-21.6,17.7-30.3c4.8-8.4,7.3-13.3,11-19c-0.8,0.4-1.6,0.6-2.3,1c-3.5,5.5-5.7,9.6-10,17.3
		c-4.9,8.7-10.4,18.6-17.7,30.3c-17.3,27.9-25.7,32.2-29.4,32.2c-1,0-3.1-0.6-4.4-2.6L209.4,141z"/>
	
		<linearGradient id="_x003C_Path_x003E__0_2_" gradientUnits="userSpaceOnUse" x1="227.0489" y1="77.6761" x2="258.2483" y2="77.6761" gradientTransform="matrix(1 0 0 -1 0 154.5608)">
		<stop  offset="0" style="stop-color:#BF3871"/>
		<stop  offset="7.501298e-02" style="stop-color:#BC336E"/>
		<stop  offset="0.6774" style="stop-color:#AA105B"/>
		<stop  offset="1" style="stop-color:#A30253"/>
	</linearGradient>
	<path id="_x003C_Path_x003E__0_1_" class="st33" d="M251.8,81c6.4-9.2,6.5-11.7,6.5-11.7c0-0.3,0-0.8-0.4-1.2
		c-0.4-0.3-0.9-0.3-1-0.3c-0.3,0.1-0.5,0.3-2.2,1.7c-4.7,4-17.3,14.9-27.7,14.9v1.4c10.9,0,23.7-11,28.5-15.2c0.5-0.4,0.9-0.8,1.2-1
		c-0.3,0.9-1.6,3.9-6.5,11L251.8,81z"/>
	
		<linearGradient id="SVGID_17_" gradientUnits="userSpaceOnUse" x1="189.7398" y1="101.8816" x2="191.8475" y2="100.2254" gradientTransform="matrix(1 0 0 -1 0 154.5608)">
		<stop  offset="0" style="stop-color:#6BAE44"/>
		<stop  offset="1" style="stop-color:#9BC057"/>
	</linearGradient>
	<path class="st34" d="M192.6,42.4l-0.6-0.1c-1.7-0.1-4.3-0.4-5.5-0.4c-1.3,0-2.1,0.8-2.1,2.2c0,3-1.6,8.6-4.3,14.6
		c0.5-0.1,1-0.1,1.6-0.3c2.6-5.8,4-11.2,4-14.3c0-0.6,0.1-0.8,0.8-0.8c1,0,3.6,0.3,5.2,0.4l0.6,0.1c1.2,0.1,3.1,1,3.1,3.8
		c0,1.8-1.3,5.1-3.2,8.8c0.5-0.1,1.2-0.3,1.7-0.4c1.8-3.6,3-6.6,3-8.6C196.9,44.3,194.7,42.6,192.6,42.4z"/>
	
		<linearGradient id="SVGID_18_" gradientUnits="userSpaceOnUse" x1="165.1002" y1="131.2124" x2="169.165" y2="132.7179" gradientTransform="matrix(1 0 0 -1 0 154.5608)">
		<stop  offset="0" style="stop-color:#6BAE44"/>
		<stop  offset="1" style="stop-color:#9BC057"/>
	</linearGradient>
	<path class="st35" d="M154.2,11.6c-3.6,0-6,2.2-6,5.7c0,10.8,20.8,18.7,26.3,18.7c1.8,0,2.1-1,2.1-1.7
		C176.6,32.9,169.4,11.6,154.2,11.6z M174.6,34.6c-4.8,0-25-7.8-25-17.3c0-2.7,1.7-4.3,4.5-4.3c13.8,0,21.1,19.9,21.1,21.3
		C175.2,34.4,175.2,34.6,174.6,34.6z"/>
	
		<linearGradient id="SVGID_19_" gradientUnits="userSpaceOnUse" x1="139.8425" y1="94.6517" x2="141.7139" y2="93.6474" gradientTransform="matrix(1 0 0 -1 0 154.5608)">
		<stop  offset="0" style="stop-color:#6BAE44"/>
		<stop  offset="0.4192" style="stop-color:#7DB44B"/>
		<stop  offset="1" style="stop-color:#9BC057"/>
	</linearGradient>
	<path class="st36" d="M141.4,58.6c-1.7,0-3.4,0.8-5.1,1.9c0.8,0,1.6,0.1,2.5,0.1c0.9-0.5,1.8-0.8,2.7-0.8c0.8,0,0.8,0.3,0.8,0.5
		c0,0,0,0.1,0,0.4c0.5,0,0.9,0,1.4,0c0-0.1,0-0.3,0-0.4C143.6,60.1,143.4,58.6,141.4,58.6z"/>
	
		<linearGradient id="SVGID_20_" gradientUnits="userSpaceOnUse" x1="171.0767" y1="101.4977" x2="173.4866" y2="100.2926" gradientTransform="matrix(1 0 0 -1 0 154.5608)">
		<stop  offset="0" style="stop-color:#6BAE44"/>
		<stop  offset="1" style="stop-color:#9BC057"/>
	</linearGradient>
	<path class="st37" d="M167.8,51.5c3.2-1.9,5.2-4,5.1-5.5c0-0.8-0.8-1.6-1.4-2.3c-0.4-0.4-0.9-1-1-1.3c0-0.3,0-0.4,0.1-0.5
		c0.1-0.1,0.8-0.3,1.9,0l1.4,0.4c2.6,0.5,3.5,0.9,3.5,2.2c0,1.6-1.9,8.7-5.6,15.2c0.5,0,1.2-0.1,1.7-0.1c3.4-6.4,5.3-13,5.2-15.1
		c-0.1-2.5-2.2-3-4.5-3.5l-1.3-0.3c-1.9-0.5-2.9,0-3.2,0.4c-0.4,0.4-0.6,1-0.5,1.8c0.1,0.6,0.8,1.3,1.4,1.9c0.4,0.4,1,1.2,1,1.4
		c0,0.5-1.2,2.2-4.4,4.2c-2.1,1.2-6.1,5.8-9,10.4c0.5,0,1.2,0,1.7-0.1C162.5,56.4,166,52.4,167.8,51.5z"/>
	
		<linearGradient id="SVGID_21_" gradientUnits="userSpaceOnUse" x1="104.666" y1="108.9414" x2="99.6236" y2="110.202" gradientTransform="matrix(1 0 0 -1 0 154.5608)">
		<stop  offset="0" style="stop-color:#6BAE44"/>
		<stop  offset="0.2762" style="stop-color:#73B147"/>
		<stop  offset="0.6967" style="stop-color:#88B84F"/>
		<stop  offset="1" style="stop-color:#9BC057"/>
	</linearGradient>
	<path class="st38" d="M109.8,36.8c0-1.6-1.8-2.5-3.8-2.5c-1.4,0-7.5,0.9-12.3,5.6l-2.6,2.6c-2.2,2.2-5.6,5.6-9.4,9.2
		c0.5,0.1,1,0.3,1.6,0.4c3-2.9,6-5.8,8.7-8.7l2.5-2.5c4.4-4.3,10.1-5.2,11.3-5.2c1.3,0,2.3,0.6,2.3,1
		C108.1,36.8,109.8,36.8,109.8,36.8z"/>
	
		<linearGradient id="SVGID_22_" gradientUnits="userSpaceOnUse" x1="94.8616" y1="108.677" x2="109.8769" y2="108.677" gradientTransform="matrix(1 0 0 -1 0 154.5608)">
		<stop  offset="9.340701e-02" style="stop-color:#5C983B"/>
		<stop  offset="0.8297" style="stop-color:#6BAE44"/>
	</linearGradient>
	<path class="st39" d="M108.5,36.8c0,0.5-1,1.7-2.6,3.5l-0.6,0.5c-1.4,1.6-6.5,8.6-10.5,14c0.5,0.1,1,0.3,1.4,0.3
		c3.9-5.3,8.7-12,10-13.4l0.5-0.6c2.1-2.3,3-3.4,3-4.4h-1.2V36.8z"/>
	
		<linearGradient id="SVGID_23_" gradientUnits="userSpaceOnUse" x1="60.182" y1="120.6354" x2="87.1054" y2="120.6354" gradientTransform="matrix(1 0 0 -1 0 154.5608)">
		<stop  offset="3.846100e-02" style="stop-color:#5C983B"/>
		<stop  offset="3.956800e-02" style="stop-color:#5C983B"/>
		<stop  offset="0.2415" style="stop-color:#5F9C3D"/>
		<stop  offset="0.8309" style="stop-color:#65A541"/>
	</linearGradient>
	<path class="st40" d="M86.4,22.4c-5.5,3-11.2,7-16.5,12c-3.8,3.4-7,7-9.7,10.7c0.5,0.1,0.9,0.3,1.4,0.5c2.7-3.4,5.7-6.9,9.4-10.1
		c5.3-4.8,10.8-8.8,16.2-11.7L86.4,22.4z"/>
	
		<linearGradient id="SVGID_24_" gradientUnits="userSpaceOnUse" x1="100.6254" y1="109.6518" x2="144.3471" y2="109.6518" gradientTransform="matrix(1 0 0 -1 0 154.5608)">
		<stop  offset="0" style="stop-color:#9BC057"/>
		<stop  offset="0.3762" style="stop-color:#99BE56"/>
		<stop  offset="0.5916" style="stop-color:#91BA52"/>
		<stop  offset="0.7664" style="stop-color:#83B24C"/>
		<stop  offset="0.9185" style="stop-color:#6FA744"/>
		<stop  offset="1" style="stop-color:#619F3E"/>
	</linearGradient>
	<path class="st41" d="M143.4,50.6c-0.1-0.1-0.3-0.4-0.3-0.6c0-0.1,0.1-0.6,0.3-1c0.4-1.3,0.9-3.2,0.9-5.8c0-2.1-0.4-3.8-1-5.2
		c-1.3-2.9-4-4.4-7.8-4.4c-7.3,0-15.3,3.8-35,22.6c0.5,0.1,1,0.3,1.7,0.4c18.7-17.9,26.5-21.6,33.4-21.6c3,0,5.1,1,6.2,3
		c0.8,1.3,1.2,3,1.2,5.2c0,2.3-0.5,4.3-0.9,5.5c-0.1,0.6-0.3,1-0.3,1.4c0,0.6,0.3,1.3,0.8,1.7L143.4,50.6z"/>
	
		<linearGradient id="SVGID_25_" gradientUnits="userSpaceOnUse" x1="146.8814" y1="104.6582" x2="157.087" y2="113.6707" gradientTransform="matrix(1 0 0 -1 0 154.5608)">
		<stop  offset="1.098900e-02" style="stop-color:#619F3E"/>
		<stop  offset="2.953393e-02" style="stop-color:#64A03F"/>
		<stop  offset="0.1986" style="stop-color:#7BA948"/>
		<stop  offset="0.3589" style="stop-color:#88AE4E"/>
		<stop  offset="0.5" style="stop-color:#8DB050"/>
		<stop  offset="0.6578" style="stop-color:#89AF4E"/>
		<stop  offset="0.8166" style="stop-color:#7DAC4A"/>
		<stop  offset="0.9755" style="stop-color:#69A642"/>
		<stop  offset="1" style="stop-color:#65A541"/>
	</linearGradient>
	<path class="st42" d="M142.5,51.6c0.4,0.4,1,0.5,1.6,0.4c8.1-1.4,16.9-13.1,16.9-14.4l-1.6,0.1c-1.2,2.1-8.7,11.7-15.6,12.9
		c-0.1,0-0.3,0-0.4-0.1L142.5,51.6z"/>
	
		<linearGradient id="SVGID_26_" gradientUnits="userSpaceOnUse" x1="225.0693" y1="113.1707" x2="202.3053" y2="120.1093" gradientTransform="matrix(1 0 0 -1 0 154.5608)">
		<stop  offset="0" style="stop-color:#619F3E"/>
		<stop  offset="0.1065" style="stop-color:#72A945"/>
		<stop  offset="0.2986" style="stop-color:#9BC057"/>
		<stop  offset="0.6648" style="stop-color:#64A340"/>
		<stop  offset="0.8859" style="stop-color:#87B54E"/>
		<stop  offset="1" style="stop-color:#9BC057"/>
	</linearGradient>
	<path class="st43" d="M227.1,35c-0.5-0.6-1.3-0.9-2.5-0.9c-2.7,0-6.5,3.6-9.6,6.5c-1.2,1-2.6,2.5-3.1,2.6c-0.4-0.3-1-1.8-1.6-2.7
		c-0.5-1-1-2.2-1.6-2.9c-1.9-2.6-4.5-3.2-12-3.2c-1.8,0-3.2,0.1-4.7,0.1l0.3,1.6c1.3-0.1,2.7-0.1,4.5-0.1c7,0,9.2,0.5,10.8,2.7
		c0.4,0.6,0.9,1.6,1.4,2.6c0.9,1.9,1.7,3.5,2.7,3.5c0.6,0,1.6-0.8,4-3.1c2.6-2.5,6.5-6.1,8.7-6.1c1.4,0,1.6,0.4,1.6,1.3
		c0,0.6-0.4,1.4-0.9,2.5c-0.9,1.8-2.3,4.5-2.6,8.8c0.5-0.1,0.9-0.4,1.4-0.5c0.3-3.6,1.6-6,2.5-7.7c0.6-1.2,1.2-2.1,1.2-3.1
		C227.6,36,227.5,35.5,227.1,35z"/>
	
		<linearGradient id="SVGID_27_" gradientUnits="userSpaceOnUse" x1="182.4584" y1="119.7905" x2="192.3663" y2="119.7905" gradientTransform="matrix(1 0 0 -1 0 154.5608)">
		<stop  offset="0" style="stop-color:#6BAE44"/>
		<stop  offset="0.29" style="stop-color:#74B148"/>
		<stop  offset="0.7637" style="stop-color:#8DBA51"/>
		<stop  offset="1" style="stop-color:#9BC057"/>
	</linearGradient>
	<path class="st44" d="M192.2,34.6l-4,0.1c-3.6,0-4-0.1-4.5-1.3l-1.3,0.5c0.9,2.1,2.3,2.2,5.7,2.2l4.3-0.1L192.2,34.6z"/>
	
		<linearGradient id="SVGID_28_" gradientUnits="userSpaceOnUse" x1="125.0651" y1="103.9769" x2="129.6566" y2="97.8992" gradientTransform="matrix(1 0 0 -1 0 154.5608)">
		<stop  offset="0" style="stop-color:#619F3E"/>
		<stop  offset="8.378145e-02" style="stop-color:#6DA643"/>
		<stop  offset="0.3497" style="stop-color:#8FB951"/>
		<stop  offset="0.4945" style="stop-color:#9BC057"/>
	</linearGradient>
	<path class="st45" d="M136.6,45.1c-0.1-0.9-0.9-1.9-2.9-1.8c-2.5,0.1-10.1,6-16,12.2c-0.3,0.3-0.5,0.5-0.8,0.8
		c-0.6,0.6-1.3,1.4-1.9,2.2c0.5,0.1,1,0.1,1.6,0.3c0.4-0.5,0.9-1,1.3-1.6c0.5-0.5,0.9-1,1.4-1.6c5.8-6.1,12.6-11,14.2-11
		c0.8,0,1.4,0.3,1.4,0.5v0.1c0,1.7-2.2,3.1-4.2,4.3l-1.4,1h-0.1c-2.5,1.7-3.6,2.6-3.6,4.2c0,0.3,0,0.4,0,0.6c0.1,0.6,0.5,1,0.8,1.3
		c0.3,0.3,0.6,0.5,0.8,1h1.4c-0.1-1-0.8-1.6-1.2-2.1c-0.3-0.3-0.4-0.4-0.4-0.5c-0.1-1.2,0.1-1.4,3-3.5h0.1l1.4-0.9
		C134.1,49.4,136.7,47.7,136.6,45.1z"/>
	
		<linearGradient id="SVGID_29_" gradientUnits="userSpaceOnUse" x1="122.8919" y1="102.3747" x2="127.5022" y2="96.2722" gradientTransform="matrix(1 0 0 -1 0 154.5608)">
		<stop  offset="0" style="stop-color:#6BAE44"/>
		<stop  offset="1" style="stop-color:#9BC057"/>
	</linearGradient>
	<path class="st46" d="M127.6,58.4L127.6,58.4c0,0.4-0.1,0.9-0.5,1.7c0.5,0,1,0.1,1.4,0.1c0.4-0.8,0.5-1.4,0.5-1.9v-0.1h-1.4
		C127.6,58.1,127.6,58.2,127.6,58.4z"/>
	
		<linearGradient id="SVGID_30_" gradientUnits="userSpaceOnUse" x1="146.2018" y1="146.2443" x2="143.1187" y2="149.9185" gradientTransform="matrix(1 0 0 -1 0 154.5608)">
		<stop  offset="0" style="stop-color:#6BAE44"/>
		<stop  offset="0.4193" style="stop-color:#87B955"/>
		<stop  offset="0.8132" style="stop-color:#A5C668"/>
	</linearGradient>
	<path class="st47" d="M183.7,33.1c-2.9-6.9-13.8-29.5-35.7-29.5c-5.5,0-9.4,2.2-10.9,6c-0.5,1.3-0.8,2.7-0.8,4.3
		c0,6,3,17.2,23,23.8l0.3,0.1l0,0l1.6-0.1c0-0.8-0.8-1-1.2-1.2h-0.3c-19.2-6.4-22.1-16.9-22.1-22.5c0-1.6,0.3-2.9,0.8-3.9
		c1.9-4.4,7-4.9,9.6-4.9c21.1,0,31.7,22,34.4,28.7l0.1,0.3l1.3-0.5L183.7,33.1z"/>
	
		<linearGradient id="SVGID_31_" gradientUnits="userSpaceOnUse" x1="109.3842" y1="141.5167" x2="108.429" y2="143.7368" gradientTransform="matrix(1 0 0 -1 0 154.5608)">
		<stop  offset="0" style="stop-color:#65A541"/>
		<stop  offset="0.5084" style="stop-color:#67A642"/>
		<stop  offset="0.6915" style="stop-color:#6EA944"/>
		<stop  offset="0.822" style="stop-color:#79AF49"/>
		<stop  offset="0.9268" style="stop-color:#8AB750"/>
		<stop  offset="1" style="stop-color:#9BC057"/>
	</linearGradient>
	<path class="st48" d="M131.2,1.2c-0.1-0.3-0.4-0.5-0.6-0.5c-0.6-0.1-1.3-0.4-2.2-0.4v1.4c0.5,0,0.9,0.1,1.3,0.3
		c-2.7,4.8-7.5,13.3-7.8,13.6c0,0,0,0,0,0.1h-0.1h-0.3c-4-0.6-7.4-0.9-10-0.9c-6.4,0-15.3,2.5-24.8,7.7l0.6,1.2
		c9.4-5.2,18.1-7.5,24.3-7.5c2.6,0,5.8,0.3,9.7,0.9h0.3c0.4,0,0.6,0,0.9-0.1s0.5-0.4,0.6-0.6c0.3-0.5,7.7-13.6,8.1-14.2
		C131.3,1.8,131.3,1.4,131.2,1.2z"/>
	<path class="st49" d="M64.7,25.3c26-18.8,50.7-23.9,61.4-23.9c0.9,0,1.7,0,2.3,0.1V0.1C127.6,0,126.9,0,126.1,0
		C115.3,0,90.2,5.1,64,24.2c-7.3,5.3-13.3,10.5-18.2,15.5c0.5,0.1,0.9,0.4,1.4,0.5C51.9,35.4,57.7,30.4,64.7,25.3z"/>
</g>
</svg>
