<?xml version="1.0" encoding="utf-8"?>
<!-- Generator: Adobe Illustrator 21.0.2, SVG Export Plug-In . SVG Version: 6.00 Build 0)  -->
<svg version="1.1" id="Google" xmlns="http://www.w3.org/2000/svg" xmlns:xlink="http://www.w3.org/1999/xlink" x="0px" y="0px"
	 viewBox="0 0 300 98.4" style="enable-background:new 0 0 300 98.4;" xml:space="preserve">
<style type="text/css">
	.st0{fill:#4285F4;}
	.st1{fill:#EA4335;}
	.st2{fill:#FBBC05;}
	.st3{fill:#34A853;}
</style>
<g>
	<path class="st0" d="M73.8,34.7H38.4v10.4h25.1c-1.2,14.6-13.3,20.8-24.8,20.8c-14.6,0-27.4-11.5-27.4-27.7
		c0-15.7,12.2-27.8,27.4-27.8c11.8,0,18.7,7.5,18.7,7.5l7.3-7.5c0,0-9.3-10.4-26.4-10.4C16.8,0,0,18.3,0,38.1
		c0,19.4,15.8,38.3,39,38.3c20.4,0,35.4-14,35.4-34.7C74.4,37.3,73.8,34.7,73.8,34.7L73.8,34.7z"/>
	<path class="st1" d="M103.6,27.2C89.3,27.2,79,38.4,79,51.5c0,13.3,10,24.7,24.8,24.7c13.4,0,24.4-10.3,24.4-24.4
		C128.3,35.6,115.5,27.2,103.6,27.2L103.6,27.2z M103.8,36.8c7.1,0,13.8,5.7,13.8,14.9c0,9-6.7,14.9-13.8,14.9c-7.8,0-14-6.3-14-15
		C89.8,43.2,95.9,36.8,103.8,36.8L103.8,36.8z"/>
	<path class="st2" d="M157,27.2c-14.4,0-24.7,11.2-24.7,24.3c0,13.3,10,24.7,24.8,24.7c13.4,0,24.4-10.3,24.4-24.4
		C181.6,35.6,168.8,27.2,157,27.2L157,27.2z M157.1,36.8c7.1,0,13.8,5.7,13.8,14.9c0,9-6.7,14.9-13.8,14.9c-7.8,0-14-6.3-14-15
		C143.1,43.2,149.2,36.8,157.1,36.8L157.1,36.8z"/>
	<path class="st0" d="M209.6,27.2c-13.2,0-23.5,11.5-23.5,24.5c0,14.8,12,24.6,23.3,24.6c7,0,10.7-2.8,13.5-6v4.8
		c0,8.5-5.1,13.5-12.9,13.5c-7.5,0-11.3-5.6-12.6-8.7l-9.4,3.9C191.3,91,198,98.4,210,98.4c13.1,0,23.1-8.3,23.1-25.6V28.1h-10.3
		v4.8C219.6,29.5,215.3,27.2,209.6,27.2L209.6,27.2z M210.5,36.9c6.5,0,13.1,5.5,13.1,14.9c0,9.6-6.6,14.9-13.2,14.9
		c-7,0-13.6-5.7-13.6-14.8C196.8,42.5,203.6,36.9,210.5,36.9L210.5,36.9z"/>
	<path class="st1" d="M277.9,27.2c-12.4,0-22.9,9.9-22.9,24.5c0,15.4,11.6,24.6,24.1,24.6c10.4,0,16.7-5.7,20.5-10.8l-8.5-5.6
		c-2.2,3.4-5.9,6.8-12,6.8c-6.9,0-10.1-3.8-12-7.4L300,45.6l-1.7-4C295.1,33.7,287.7,27.2,277.9,27.2L277.9,27.2z M278.3,36.6
		c4.5,0,7.7,2.4,9.1,5.2l-22,9.2C264.5,43.9,271.2,36.6,278.3,36.6L278.3,36.6z"/>
	<rect x="239.9" y="2.5" class="st3" width="10.1" height="72.3"/>
</g>
</svg>
