<?xml version="1.0" encoding="utf-8"?>
<!-- Generator: Adobe Illustrator 20.0.0, SVG Export Plug-In . SVG Version: 6.00 Build 0)  -->
<svg version="1.1" id="Layer_1" xmlns="http://www.w3.org/2000/svg" xmlns:xlink="http://www.w3.org/1999/xlink" x="0px" y="0px"
	 viewBox="0 0 300 92.1" style="enable-background:new 0 0 300 92.1;" xml:space="preserve">
<style type="text/css">
	.st0{fill:#008064;}
</style>
<g>
	<path class="st0" d="M54.2,55.8h18.9C69.2,66.9,58.5,75,45.9,75C30,75,17,62,17,46.1S30,17.2,45.9,17.2c11.6,0,21.6,7,26.3,16.9
		h2.1l8.1-16.1C73.9,7,60.7,0,45.9,0C20.6,0,0,20.6,0,46.1s20.6,46.1,46.1,46.1c13.7,0,26-6.1,34.4-15.4l-1.6,13.2h13.2l5-47.1H55.7
		L54.2,55.8z"/>
	<path class="st0" d="M203.4,53.2l1.8-16h-35.8l2.1-18.3H211l1.8-16H156l-9.6,85.5c-3.4-6.6-17.8-33.9-18.9-36.3
		c12-2.4,20.2-11.2,21.6-23.6c0.1-1.3,0.3-2.5,0.3-3.8c0-5.5-1.6-10-4.8-13.5c-4.9-5.5-13.5-8.3-25.5-8.3H88.4l-4,35.8h17.4
		c0.3-2.2,2.1-18.7,2.2-20.6h12c4.2,0,10.3,0.4,13.1,3.4c1.1,1.2,1.7,2.9,1.7,4.9c0,0.5,0,1.1-0.1,1.6c-1.1,9.8-9.8,10.7-18.5,10.7
		h-10.4L100.2,54h9.1c0.5,1.3,16.8,35.9,16.8,35.9h76.8l1.8-16h-39.5l2.4-20.6h35.8V53.2z"/>
	<polygon class="st0" points="219.2,2.9 209.3,89.7 226.7,89.7 236.6,2.9 	"/>
	<polygon class="st0" points="298.2,18.9 300,2.9 243.1,2.9 233.2,89.7 250.6,89.7 254.9,53.2 290.6,53.2 292.3,37.2 256.6,37.2 
		258.7,18.9 	"/>
</g>
</svg>
