<?xml version="1.0" encoding="utf-8"?>
<!-- Generator: Adobe Illustrator 20.0.0, SVG Export Plug-In . SVG Version: 6.00 Build 0)  -->
<svg version="1.1" id="Layer_1" xmlns="http://www.w3.org/2000/svg" xmlns:xlink="http://www.w3.org/1999/xlink" x="0px" y="0px"
	 viewBox="0 0 300 80.2" style="enable-background:new 0 0 300 80.2;" xml:space="preserve">
<style type="text/css">
	.st0{fill:#0072BC;}
	.st1{fill:#77777A;}
	.st2{fill:url(#SVGID_1_);}
	.st3{fill:url(#SVGID_2_);}
	.st4{fill:url(#SVGID_3_);}
	.st5{fill:url(#SVGID_4_);}
	.st6{fill:url(#SVGID_5_);}
	.st7{fill:url(#SVGID_6_);}
	.st8{fill:url(#SVGID_7_);}
</style>
<g>
	<g>
		<g>
			<g>
				<g>
					<g>
						<g>
							<path class="st0" d="M109.7,60c-12.2,0-19-8.1-19-19.9c0-12,7.3-20,19.3-20c4.7,0,8.7,1.2,11.8,2.9l-1.3,8.3
								c-2.9-1.8-6.2-3.3-10.3-3.3c-6.6,0-9.9,4.9-9.9,12.1c0,7.3,3.4,12.4,10,12.4c2.1,0,3.6-0.4,5.2-1.2v-6.9h-6.6l-1.2-7h16.1
								v18.7C119.7,58.6,115.1,60,109.7,60z"/>
							<path class="st0" d="M142.1,59.7c-5.2,0-9.5-1.2-13.4-2.9l1.4-8.2c3.9,2.1,8.3,3.5,12.2,3.5c2.7,0,4.7-1.2,4.7-3.5
								c0-2.2-1.2-3.1-6.5-5.2c-7.7-3-11.1-5.5-11.1-11.8c0-7.4,5.9-11.3,13.1-11.3c5.1,0,8.2,0.9,11.6,2.6l-1.4,8.1
								c-3.5-2-7-3.1-10-3.1c-2.9,0-4.3,1.2-4.3,3c0,2,1,2.9,5.9,4.8c8.3,3.1,11.7,6,11.7,12.1C155.9,56,149.8,59.7,142.1,59.7z"/>
						</g>
					</g>
				</g>
			</g>
			<g>
				<path class="st1" d="M184.3,59.9c-10,0-16.8-7.7-16.8-19.1s6.9-19.3,17-19.3c4.2,0,7.7,1.3,10.4,3.1l-0.7,3.8
					c-2.9-2.1-6.1-3.6-9.9-3.6c-8.2,0-13.3,6.5-13.3,15.9c0,9.5,5.1,15.9,13.1,15.9c4,0,7.5-1.6,10.5-3.9l0.5,3.5
					C192.9,58.3,188.7,59.9,184.3,59.9z"/>
				<path class="st1" d="M217.6,59.2l-0.7-3.5c-2.5,2.3-5.5,4-9.2,4c-4.6,0-7.8-2.5-7.8-7.2c0-6.2,4.9-9.1,16.9-10.3v-1.7
					c0-3.5-2.1-5.1-5.5-5.1c-3.1,0-6.2,0.9-9.1,2.3l-0.5-3.3c3.1-1.3,6.1-2.3,9.8-2.3c5.9,0,8.9,2.7,8.9,8.1v18.7h-2.7V59.2z
					 M216.8,45.3c-10.4,1-13.3,3.5-13.3,7.2c0,2.9,2,4.3,4.7,4.3c2.9,0,6-1.6,8.5-3.9v-7.5H216.8z"/>
				<path class="st1" d="M227.9,59.2V20.8l3.6-0.7v39.2h-3.6V59.2z"/>
				<path class="st1" d="M247.5,59.7c-4.2,0-6.9-1.6-6.9-6.5V36.1h-4v-3.1h4v-9.1l3.6-0.7v9.8h6.1l0.5,3.1h-6.6v16.7
					c0,2.7,1,3.9,3.9,3.9c0.8,0,1.8-0.1,2.5-0.3l0.5,3.1C250.4,59.5,249.1,59.7,247.5,59.7z"/>
				<path class="st1" d="M275.8,46.3h-18.4c0.1,6.5,3.1,10.3,8.5,10.3c3.5,0,6.6-1.6,9.4-3.9l0.5,3.4c-2.6,2.2-6,3.8-10.2,3.8
					c-6.9,0-11.8-4.7-11.8-13.8c0-8.5,4.9-13.7,11.3-13.7c7.2,0,10.7,5.9,10.7,13.1C275.8,45.8,275.8,46.1,275.8,46.3z M265.1,35.3
					c-4.2,0-6.8,3.1-7.5,8.1h14.3C271.6,38.7,269.4,35.3,265.1,35.3z"/>
				<path class="st1" d="M296.2,59.6l-7.5-11.2l-7.2,10.9h-3.9l9.2-13.5l-8.6-12.5l3.6-0.8l7,10.4l6.6-10h3.9l-8.7,12.8l9.2,13.4
					L296.2,59.6z"/>
			</g>
		</g>
	</g>
	<g>
		<g>
			<g>
				<g>
					<g>
						
							<linearGradient id="SVGID_1_" gradientUnits="userSpaceOnUse" x1="9.6364" y1="66.5275" x2="-2.0826" y2="54.8085" gradientTransform="matrix(1 0 0 -1 0 88.9736)">
							<stop  offset="0" style="stop-color:#FCB813"/>
							<stop  offset="1" style="stop-color:#C3BF30"/>
						</linearGradient>
						<path class="st2" d="M8.5,21.3l-2.9-3.1c-3.5,6-5.5,13-5.5,20h2C2.1,31.5,4.3,25.5,8.5,21.3z"/>
						
							<linearGradient id="SVGID_2_" gradientUnits="userSpaceOnUse" x1="-2.4517" y1="46.3278" x2="7.5935" y2="36.2823" gradientTransform="matrix(1 0 0 -1 0 88.9736)">
							<stop  offset="0" style="stop-color:#C3BF30"/>
							<stop  offset="1" style="stop-color:#80C242"/>
						</linearGradient>
						<path class="st3" d="M7.9,52.3c-3.6-3.4-5.9-7.9-5.9-14.2l0,0H0c0,7.2,1.3,13.9,3.8,19.8L7.9,52.3z"/>
						
							<linearGradient id="SVGID_3_" gradientUnits="userSpaceOnUse" x1="68.8205" y1="53.809" x2="77.3632" y2="45.2664" gradientTransform="matrix(1 0 0 -1 0 88.9736)">
							<stop  offset="0" style="stop-color:#6DCEF5"/>
							<stop  offset="1" style="stop-color:#00B9C5"/>
						</linearGradient>
						<path class="st4" d="M70.8,33.1l-3.6,3.8c5.1,0.1,8.2,4,8.1,9h2.1C77.3,41,75,36.4,70.8,33.1z"/>
						
							<linearGradient id="SVGID_4_" gradientUnits="userSpaceOnUse" x1="79.1592" y1="39.1522" x2="70.5273" y2="30.5204" gradientTransform="matrix(1 0 0 -1 0 88.9736)">
							<stop  offset="0" style="stop-color:#00B9C5"/>
							<stop  offset="1" style="stop-color:#00A89C"/>
						</linearGradient>
						<path class="st5" d="M77.3,45.9h-2c-0.1,4.2-2.3,7.5-7.2,10.2l5.2,7.2C75.7,58.4,77.3,52.8,77.3,45.9z"/>
						
							<linearGradient id="SVGID_5_" gradientUnits="userSpaceOnUse" x1="14.5209" y1="48.4312" x2="67.0214" y2="48.4312" gradientTransform="matrix(1 0 0 -1 0 88.9736)">
							<stop  offset="0" style="stop-color:#0071BB"/>
							<stop  offset="1" style="stop-color:#6DCEF5"/>
						</linearGradient>
						<path class="st6" d="M10.5,32.4c-0.1,0.8-0.3,1.6-0.3,2.3c0,11.8,8.9,19.4,19.9,19.4c21.1,0,27.3-17.3,36.8-17.3h0.1l3.6-3.8
							c-4.6-3.8-11.3-6.1-19.5-6.1c-16.7,0-25.6,13.9-33.2,13.9c-3.3,0-5.9-3.6-5.9-7.2c0-0.4,0-0.8,0-1L10.5,32.4z"/>
						
							<linearGradient id="SVGID_6_" gradientUnits="userSpaceOnUse" x1="5.5965" y1="76.8044" x2="77.3102" y2="76.8044" gradientTransform="matrix(1 0 0 -1 0 88.9736)">
							<stop  offset="0" style="stop-color:#FCB813"/>
							<stop  offset="0.5936" style="stop-color:#F5841C"/>
							<stop  offset="1" style="stop-color:#F16522"/>
						</linearGradient>
						<path class="st7" d="M23.6,15.1c12.2,0,20.7,9.2,31.6,9.2c13,0,20.3-6.4,22.1-18.7l-2-0.4c-0.5,3.3-2.7,7.3-6.5,7.3
							c-3.6,0-7.4-3.1-13.1-6.2C50.1,3.1,43.6,0,35.7,0C22.8,0,11.8,7.7,5.6,18.2l2.9,3.1C12.1,17.4,17.3,15.1,23.6,15.1z"/>
						
							<linearGradient id="SVGID_7_" gradientUnits="userSpaceOnUse" x1="7.9152" y1="22.7263" x2="68.085" y2="22.7263" gradientTransform="matrix(1 0 0 -1 0 88.9736)">
							<stop  offset="0" style="stop-color:#80C242"/>
							<stop  offset="1" style="stop-color:#00A89C"/>
						</linearGradient>
						<path class="st8" d="M36.3,61C26.8,61,15,59,7.9,52.3l-4,5.6c5.9,13.4,18.2,22.3,36.8,22.3c12.4,0,25.9-4.8,32.5-17L68.1,56
							C62,59.2,51.8,61,36.3,61z"/>
					</g>
				</g>
			</g>
		</g>
	</g>
</g>
</svg>
