<?xml version="1.0" encoding="utf-8"?>
<!-- Generator: Adobe Illustrator 20.0.0, SVG Export Plug-In . SVG Version: 6.00 Build 0)  -->
<svg version="1.1" id="Layer_1" xmlns="http://www.w3.org/2000/svg" xmlns:xlink="http://www.w3.org/1999/xlink" x="0px" y="0px"
	 viewBox="0 0 225 54.2" style="enable-background:new 0 0 225 54.2;" xml:space="preserve">
<style type="text/css">
	.st0{clip-path:url(#SVGID_2_);}
	.st1{clip-path:url(#SVGID_4_);}
	.st2{fill:#FFFFFF;}
	.st3{fill:#FE5F10;}
	.st4{fill:#878787;}
	.st5{clip-path:url(#SVGID_4_);fill:#FFFFFF;}
	.st6{clip-path:url(#SVGID_4_);fill:#FE5F10;}
</style>
<g>
	<defs>
		<rect id="SVGID_1_" width="225" height="48"/>
	</defs>
	<clipPath id="SVGID_2_">
		<use xlink:href="#SVGID_1_"  style="overflow:visible;"/>
	</clipPath>
	<g class="st0">
		<defs>
			<rect id="SVGID_3_" width="225" height="54.2"/>
		</defs>
		<clipPath id="SVGID_4_">
			<use xlink:href="#SVGID_3_"  style="overflow:visible;"/>
		</clipPath>
		<path class="st1" d="M-41.3-6.2h-235.5c-4.5,0-8.1,3.6-8.1,8.1v44.2c0,4.5,3.6,8.1,8.1,8.1h235.5c4.5,0,8.1-3.6,8.1-8.1V1.9
			C-33.2-2.6-36.8-6.2-41.3-6.2z"/>
		<g class="st1">
			<path class="st2" d="M-204.4,9.4c-0.1,0.2-2.3,7.4-2.3,7.4h-7l2.3-7.4h-8.1c0,0-6.1,19.9-6.2,20.3c0.4,0,7.8,0,8.1,0
				c0.1-0.2,2.6-8.5,2.6-8.5h7c0,0-2.5,8.1-2.6,8.5c0.4,0,7.8,0,8.1,0c0.1-0.2,6.1-19.9,6.2-20.3C-196.7,9.4-204.1,9.4-204.4,9.4z"
				/>
			<path class="st2" d="M-162,11.6l-0.4,0.3l0.8-2.5h-8.1c0,0-6.1,19.9-6.2,20.3c0.4,0,7.9,0,8.1,0c0.1-0.2,3.7-12.2,3.7-12.2
				c0.5-1.7,1.9-2.8,3.3-2.8h2.1c0.7,0,1.2,0.2,1.5,0.6c0.2,0.3,0.3,0.7,0.3,1.2c0,0.3-0.1,0.7-0.2,1.1c0,0-3.2,10.6-3.7,12.2
				c0.4,0,7.8,0,8.1,0c0.1-0.2,4.4-14.3,4.4-14.3c0.1-0.4,0.3-1.1,0.3-2c0-0.8-0.2-1.8-0.8-2.6c-0.9-1.2-2.5-1.8-4.7-1.8
				C-157.8,9-160.7,10.6-162,11.6z"/>
			<path class="st2" d="M-193.9,10.9c0.1,0.2,1.2,4,1.2,4.3c0.7-0.3,3.7-1.5,6.3-1.5c2.5,0,3.9,0.3,4.4,1.1c0.3,0.4,0.3,0.8,0.1,1.4
				l-0.5,1.7l-0.1,0c-3.4-1.1-6-1.1-6-1.1c-2.7,0-5.1,0.7-7,1.9c-1.8,1.2-3.1,3-3.7,5c-0.6,1.8-0.4,3.4,0.4,4.5c1,1.3,2.8,2,5.5,2
				c2.5,0,5.2-0.6,7.6-1.8l0.3-0.1c0,0-0.4,1.2-0.5,1.5c0.4,0,7.9,0,8.1,0c0.1-0.2,4.3-14,4.3-14c0.2-0.6,0.3-1.1,0.3-1.7
				c0-0.9-0.2-1.7-0.7-2.3c-1.3-1.7-4.3-2.7-8.6-2.7C-188,9-193,10.6-193.9,10.9z M-187.5,20.9c0.6,0,2.7,0,4,0.7l0.1,0.1l-0.9,3
				l-0.1,0c-1.3,0.6-3.1,1-4.5,1c-1.4,0-2.3-0.3-2.7-0.9c-0.2-0.2-0.3-0.5-0.3-0.9c0-0.2,0-0.4,0.1-0.6
				C-191.3,21.7-189.7,20.9-187.5,20.9z"/>
			<path class="st2" d="M-130.5,9.3c-0.1,0.1-7.7,6.1-7.7,6.1l1.9-6.1h-8.1c0,0-6.2,20.2-6.3,20.6c0.4,0,7.8,0,8.1,0
				c0.1-0.2,2.6-8.4,2.6-8.4s5.8,8.2,5.9,8.4c0.1,0,8.1,0,8.6,0c-0.3-0.5-7.4-10.5-7.4-10.5s11.6-9.5,12.2-10
				C-121.6,9.3-130.4,9.3-130.5,9.3z"/>
			<path class="st2" d="M-127.2,19.6L-127.2,19.6c-0.9,2.9-0.5,5.5,0.9,7.5c1.7,2.3,4.7,3.5,8.5,3.5c8.9,0,13.9-3.4,16.3-11.1
				c0.9-2.9,0.5-5.5-0.9-7.5c-1.7-2.3-4.7-3.5-8.5-3.5C-119.1,8.5-125,12.5-127.2,19.6z M-119.3,24.1c-0.7-0.9-0.7-2.5-0.1-4.6l0,0
				c0.8-2.6,2.6-5.7,6.7-5.7c1.6,0,2.6,0.4,3.2,1.2c0.7,0.9,0.7,2.5,0.1,4.6c-0.8,2.6-2.6,5.7-6.7,5.7
				C-117.7,25.3-118.7,24.9-119.3,24.1z"/>
			<path class="st2" d="M-100.3,19.6L-100.3,19.6c-0.9,2.9-0.5,5.5,0.9,7.5c1.7,2.3,4.7,3.5,8.5,3.5c8.9,0,13.9-3.4,16.3-11.1
				c0.9-2.9,0.5-5.5-0.9-7.5c-1.7-2.3-4.7-3.5-8.5-3.5C-92.2,8.5-98.2,12.5-100.3,19.6z M-85.8,13.8c1.6,0,2.6,0.4,3.2,1.2
				c0.7,0.9,0.7,2.5,0.1,4.6c-0.8,2.6-2.6,5.7-6.7,5.7c-1.6,0-2.6-0.4-3.2-1.2c-0.7-1-0.7-2.5-0.1-4.6l0,0
				C-91.7,16.9-89.9,13.8-85.8,13.8z"/>
			<path class="st2" d="M-56.4,9.1c-0.1,0.1-7.8,6.6-7.8,6.6l2-6.6h-8.1c0,0-6.3,20.5-6.4,20.9c0.4,0,7.8,0,8.1,0
				c0.1-0.2,2.6-8.5,2.6-8.5s6.2,8.4,6.3,8.5c0.1,0,8.3,0,8.8,0c-0.3-0.5-7.9-10.6-7.9-10.6s10.9-9.8,11.5-10.3
				C-48,9.1-56.3,9.1-56.4,9.1z"/>
			<path class="st3" d="M-223.3,6l-0.1-1h-6.8c0.8,8.1-4.8,17.1-12.7,19.2l0,0c0,0,0,0,0,0c0,0-0.1,0-0.2-0.1c0,0,0-0.1,0-0.1l0,0
				c6.6-4.4,10.1-11.5,9.5-19h-6.7c0.3,6.6-4.1,12.6-10.9,15c0,0-0.1,0-0.2-0.1c0,0,0-0.1,0.1-0.1l0,0c4.9-3.3,7.8-8.3,7.6-14.8
				h-6.7c-0.1,7.8-7,13.2-20.7,13.2c0.2,0.1,0.4,0.2,0.6,0.3c8.9,4.9,13.5,7.8,20.1,13.2c1,0.9,2.4,1.3,3.8,1.3
				C-228.8,31.7-222.4,16.2-223.3,6z"/>
		</g>
		<g class="st1">
			<g>
				<path class="st4" d="M-181.3,38.1c-0.2,0.6-0.5,1-0.9,1.4c-0.4,0.4-0.9,0.6-1.5,0.8c-0.6,0.2-1.2,0.2-1.9,0.2h-2.2l-0.8,2.6h-2
					l2.2-7.3h4.4c0.6,0,1.2,0.1,1.6,0.3c0.5,0.2,0.8,0.4,1,0.8C-181.1,37.1-181.1,37.6-181.3,38.1z M-183.3,38.1
					c0.1-0.3,0-0.6-0.2-0.7c-0.2-0.2-0.5-0.2-1-0.2h-2.3l-0.6,1.9h2.3c0.5,0,0.8-0.1,1.1-0.2C-183.6,38.7-183.4,38.4-183.3,38.1z"/>
				<polygon class="st4" points="-174.7,43.1 -181.8,43.1 -179.6,35.8 -172.7,35.8 -173.1,37.2 -178,37.2 -178.4,38.5 -175.6,38.5 
					-176,39.9 -178.9,39.9 -179.4,41.6 -174.2,41.6 				"/>
				<path class="st4" d="M-165.3,43.1h-2.3l-1-2.6h-2l-0.8,2.6h-2l2.2-7.3h4.6c0.6,0,1.2,0.1,1.6,0.3c0.5,0.2,0.8,0.4,1,0.8
					c0.2,0.3,0.2,0.8,0.1,1.3c-0.3,1.1-1.2,1.8-2.6,2.1L-165.3,43.1z M-165.9,38.1c0.1-0.3,0-0.6-0.2-0.7c-0.2-0.1-0.5-0.2-1-0.2
					h-2.6l-0.6,1.9h2.6C-166.6,39.1-166.1,38.8-165.9,38.1z"/>
				<polygon class="st4" points="-155.3,37.2 -160.5,37.2 -160.9,38.6 -157.9,38.6 -158.3,40 -161.3,40 -162.3,43.1 -164.2,43.1 
					-162,35.8 -154.9,35.8 				"/>
				<path class="st4" d="M-147.6,39.4c-0.2,0.7-0.6,1.4-1.1,2c-0.5,0.6-1.2,1-1.9,1.3c-0.7,0.3-1.6,0.5-2.5,0.5
					c-0.9,0-1.6-0.2-2.2-0.5c-0.6-0.3-0.9-0.8-1.1-1.3c-0.2-0.6-0.1-1.2,0.1-2c0.2-0.7,0.6-1.4,1.1-2c0.5-0.6,1.1-1,1.9-1.3
					c0.7-0.3,1.6-0.5,2.5-0.5c0.9,0,1.6,0.2,2.2,0.5c0.5,0.3,0.9,0.8,1.1,1.3C-147.3,38-147.4,38.7-147.6,39.4z M-149.7,39.4
					c0.1-0.4,0.2-0.8,0.1-1.2c0-0.3-0.2-0.6-0.5-0.8c-0.3-0.2-0.7-0.3-1.2-0.3c-0.5,0-1,0.1-1.4,0.3c-0.4,0.2-0.7,0.5-1,0.8
					c-0.3,0.3-0.5,0.7-0.6,1.2c-0.1,0.4-0.2,0.8-0.1,1.2c0.1,0.3,0.2,0.6,0.5,0.8c0.3,0.2,0.7,0.3,1.2,0.3c0.5,0,1-0.1,1.4-0.3
					c0.4-0.2,0.7-0.5,1-0.8C-150,40.3-149.8,39.9-149.7,39.4z"/>
				<path class="st4" d="M-139.8,43.1h-2.3l-1-2.6h-2l-0.8,2.6h-2l2.2-7.3h4.6c0.6,0,1.2,0.1,1.6,0.3c0.5,0.2,0.8,0.4,1,0.8
					c0.2,0.3,0.2,0.8,0.1,1.3c-0.3,1.1-1.2,1.8-2.6,2.1L-139.8,43.1z M-140.3,38.1c0.1-0.3,0-0.6-0.2-0.7c-0.2-0.1-0.5-0.2-1-0.2
					h-2.6l-0.6,1.9h2.6C-141.1,39.1-140.5,38.8-140.3,38.1z"/>
				<path class="st4" d="M-129.3,43.1h-2l0.8-2.7c0-0.1,0.1-0.3,0.2-0.5c0.1-0.2,0.1-0.4,0.2-0.6c0.1-0.2,0.1-0.3,0.1-0.5
					c-0.1,0.1-0.3,0.3-0.5,0.5c-0.2,0.2-0.4,0.4-0.6,0.7l-3,3.2l-1-3.2c-0.1-0.2-0.1-0.4-0.2-0.7c-0.1-0.2-0.1-0.4-0.1-0.5
					c0,0.1-0.1,0.3-0.1,0.5c-0.1,0.2-0.1,0.4-0.2,0.6c-0.1,0.2-0.1,0.4-0.2,0.5l-0.8,2.7h-2l2.2-7.3h1.9l1.1,3.3
					c0.1,0.2,0.1,0.4,0.2,0.7c0.1,0.2,0.1,0.4,0.1,0.6c0.1-0.1,0.3-0.3,0.5-0.6c0.2-0.2,0.4-0.4,0.6-0.7l3-3.3h2L-129.3,43.1z"/>
				<path class="st4" d="M-119.3,43.1h-2.2l-0.3-1.6h-3.7l-1.3,1.6h-2.1l6.1-7.3h1.9L-119.3,43.1z M-122,40.1l-0.2-1.3
					c0-0.2-0.1-0.4-0.1-0.6c0-0.2,0-0.4-0.1-0.5c-0.1,0.1-0.2,0.3-0.4,0.5c-0.2,0.2-0.3,0.4-0.5,0.6l-1,1.3H-122z"/>
				<path class="st4" d="M-110.5,43.1h-1.8l-2.4-4c-0.1-0.1-0.2-0.3-0.3-0.4c-0.1-0.2-0.1-0.3-0.2-0.4c0,0.1-0.1,0.2-0.1,0.4
					c-0.1,0.2-0.1,0.4-0.2,0.6c-0.1,0.2-0.1,0.4-0.2,0.5l-1,3.2h-2l2.2-7.3h1.9l2.3,3.9c0.1,0.1,0.2,0.3,0.3,0.4
					c0.1,0.2,0.2,0.3,0.2,0.4c0-0.1,0.1-0.2,0.1-0.4c0.1-0.2,0.1-0.4,0.2-0.6c0.1-0.2,0.1-0.4,0.2-0.5l0.9-3.1h2L-110.5,43.1z"/>
				<path class="st4" d="M-99.8,37.3l-2,0.6c-0.1-0.3-0.3-0.4-0.5-0.6c-0.3-0.1-0.6-0.2-1.1-0.2c-0.8,0-1.4,0.2-1.9,0.6
					c-0.5,0.4-0.9,1-1.1,1.7c-0.1,0.4-0.2,0.8-0.1,1.2c0.1,0.3,0.3,0.6,0.6,0.8c0.3,0.2,0.7,0.3,1.2,0.3c0.4,0,0.8-0.1,1.2-0.2
					c0.3-0.1,0.7-0.4,1.1-0.7l1.5,0.7c-0.5,0.5-1.1,0.9-1.8,1.2c-0.7,0.3-1.5,0.4-2.4,0.4c-0.9,0-1.6-0.2-2.1-0.5
					c-0.6-0.3-0.9-0.7-1.1-1.3c-0.2-0.6-0.2-1.2,0.1-2c0.2-0.7,0.6-1.4,1.2-2c0.5-0.6,1.2-1,2-1.3c0.8-0.3,1.6-0.5,2.5-0.5
					c0.9,0,1.7,0.2,2.2,0.5C-100.3,36.4-99.9,36.8-99.8,37.3z"/>
				<polygon class="st4" points="-93.5,43.1 -100.6,43.1 -98.4,35.8 -91.4,35.8 -91.9,37.2 -96.8,37.2 -97.2,38.5 -94.3,38.5 
					-94.8,39.9 -97.6,39.9 -98.2,41.6 -93,41.6 				"/>
				<polygon class="st4" points="-80.3,37.2 -83.2,37.2 -85,43.1 -87,43.1 -85.2,37.2 -88,37.2 -87.6,35.8 -79.8,35.8 				"/>
				<polygon class="st4" points="-78.8,43.1 -80.8,43.1 -78.6,35.8 -76.6,35.8 				"/>
				<path class="st4" d="M-69,43.1h-2.3l-1-2.6h-2l-0.8,2.6h-2l2.2-7.3h4.6c0.6,0,1.2,0.1,1.6,0.3c0.5,0.2,0.8,0.4,1,0.8
					c0.2,0.3,0.2,0.8,0.1,1.3c-0.3,1.1-1.2,1.8-2.6,2.1L-69,43.1z M-69.5,38.1c0.1-0.3,0-0.6-0.2-0.7c-0.2-0.1-0.5-0.2-1-0.2h-2.6
					l-0.6,1.9h2.6C-70.3,39.1-69.7,38.8-69.5,38.1z"/>
				<polygon class="st4" points="-60.7,43.1 -67.9,43.1 -65.6,35.8 -58.7,35.8 -59.2,37.2 -64.1,37.2 -64.5,38.5 -61.6,38.5 
					-62,39.9 -64.9,39.9 -65.5,41.6 -60.3,41.6 				"/>
				<path class="st4" d="M-51.9,40.9c-0.2,0.7-0.7,1.3-1.5,1.7c-0.8,0.4-1.8,0.6-3.2,0.6c-0.8,0-1.6-0.1-2.2-0.4
					c-0.6-0.2-1-0.6-1.3-1l1.7-0.9c0.3,0.3,0.6,0.5,1,0.6c0.4,0.1,0.8,0.2,1.3,0.2c0.6,0,1-0.1,1.4-0.2c0.3-0.1,0.5-0.3,0.6-0.6
					c0.1-0.2,0-0.3,0-0.4c-0.1-0.1-0.3-0.2-0.6-0.3c-0.3-0.1-0.7-0.2-1.3-0.3c-0.6-0.1-1.1-0.2-1.5-0.4c-0.4-0.2-0.7-0.4-0.9-0.7
					c-0.2-0.3-0.2-0.7-0.1-1.1c0.1-0.4,0.4-0.8,0.8-1.1c0.4-0.3,0.9-0.6,1.5-0.7c0.6-0.2,1.2-0.3,1.9-0.3c0.8,0,1.4,0.1,2,0.3
					c0.5,0.2,1,0.5,1.3,0.8l-1.8,1c-0.2-0.2-0.5-0.4-0.9-0.6c-0.3-0.1-0.7-0.2-1.2-0.2c-0.5,0-0.9,0.1-1.2,0.2
					c-0.3,0.1-0.4,0.3-0.5,0.4c0,0.2,0,0.3,0.1,0.4c0.1,0.1,0.3,0.2,0.5,0.3c0.3,0.1,0.7,0.2,1.1,0.2c0.4,0.1,0.8,0.1,1.1,0.2
					c0.4,0.1,0.7,0.2,1,0.4c0.3,0.2,0.5,0.4,0.6,0.6C-51.8,40.1-51.8,40.5-51.9,40.9z"/>
			</g>
		</g>
		<path class="st5" d="M229.7-6.2H-5.9c-4.5,0-8.1,3.6-8.1,8.1v44.2c0,4.5,3.6,8.1,8.1,8.1h235.5c4.5,0,8.1-3.6,8.1-8.1V1.9
			C237.8-2.6,234.2-6.2,229.7-6.2z"/>
		<path class="st1" d="M66.6,9.4c-0.1,0.2-2.3,7.4-2.3,7.4h-7l2.3-7.4h-8.1c0,0-6.1,19.9-6.2,20.3c0.4,0,7.9,0,8.1,0
			c0.1-0.2,2.6-8.5,2.6-8.5h7c0,0-2.5,8.1-2.6,8.5c0.4,0,7.8,0,8.1,0c0.1-0.2,6.1-19.9,6.2-20.3C74.3,9.4,66.8,9.4,66.6,9.4z"/>
		<path class="st1" d="M109,11.6l-0.4,0.3l0.8-2.5h-8.1c0,0-6.1,19.9-6.2,20.3c0.4,0,7.9,0,8.1,0c0.1-0.2,3.7-12.2,3.7-12.2
			c0.5-1.7,1.9-2.8,3.3-2.8h2.1c0.7,0,1.2,0.2,1.5,0.6c0.2,0.3,0.3,0.7,0.3,1.2c0,0.3-0.1,0.7-0.2,1.1c0,0-3.2,10.6-3.7,12.2
			c0.4,0,7.8,0,8.1,0c0.1-0.2,4.4-14.3,4.4-14.3c0.1-0.4,0.3-1.1,0.3-2c0-0.8-0.2-1.8-0.8-2.6c-0.9-1.2-2.5-1.8-4.7-1.8
			C113.1,9,110.3,10.6,109,11.6z"/>
		<path class="st1" d="M77.1,10.9c0.1,0.2,1.2,4,1.2,4.3c0.7-0.3,3.7-1.5,6.3-1.5c2.5,0,3.9,0.3,4.4,1.1c0.3,0.4,0.3,0.8,0.1,1.4
			l-0.5,1.7l-0.1,0c-3.4-1.1-6-1.1-6-1.1c-2.7,0-5.1,0.7-7,1.9c-1.8,1.2-3.1,3-3.7,5c-0.6,1.8-0.4,3.4,0.4,4.5c1,1.3,2.8,2,5.5,2
			c2.5,0,5.2-0.6,7.6-1.8l0.3-0.1c0,0-0.4,1.2-0.5,1.5c0.4,0,7.9,0,8.1,0c0.1-0.2,4.3-14,4.3-14c0.2-0.6,0.3-1.1,0.3-1.7
			c0-0.9-0.2-1.7-0.7-2.3C95.7,9.9,92.7,9,88.3,9C83,9,77.9,10.6,77.1,10.9z M83.4,20.9c0.6,0,2.7,0,4,0.7l0.1,0.1l-0.9,3l-0.1,0
			c-1.3,0.6-3.1,1-4.5,1c-1.4,0-2.3-0.3-2.7-0.9c-0.2-0.2-0.3-0.5-0.3-0.9c0-0.2,0-0.4,0.1-0.6C79.6,21.7,81.2,20.9,83.4,20.9z"/>
		<path class="st1" d="M140.4,9.3c-0.1,0.1-7.7,6.1-7.7,6.1l1.9-6.1h-8.1c0,0-6.2,20.2-6.3,20.6c0.4,0,7.8,0,8.1,0
			c0.1-0.2,2.6-8.4,2.6-8.4s5.8,8.2,5.9,8.4c0.1,0,8.1,0,8.6,0c-0.3-0.5-7.4-10.5-7.4-10.5s11.6-9.5,12.2-10
			C149.3,9.3,140.5,9.3,140.4,9.3z"/>
		<path class="st1" d="M143.8,19.6L143.8,19.6c-0.9,2.9-0.5,5.5,0.9,7.5c1.7,2.3,4.7,3.5,8.5,3.5c8.9,0,13.9-3.4,16.3-11.1
			c0.9-2.9,0.5-5.5-0.9-7.5c-1.7-2.3-4.7-3.5-8.5-3.5C151.9,8.5,145.9,12.5,143.8,19.6z M151.6,24.1c-0.7-0.9-0.7-2.5-0.1-4.6l0,0
			c0.8-2.6,2.6-5.7,6.7-5.7c1.6,0,2.6,0.4,3.2,1.2c0.7,0.9,0.7,2.5,0.1,4.6c-0.8,2.6-2.6,5.7-6.7,5.7
			C153.3,25.3,152.2,24.9,151.6,24.1z"/>
		<path class="st1" d="M170.6,19.6L170.6,19.6c-0.9,2.9-0.5,5.5,0.9,7.5c1.7,2.3,4.7,3.5,8.5,3.5c8.9,0,13.9-3.4,16.3-11.1
			c0.9-2.9,0.5-5.5-0.9-7.5c-1.7-2.3-4.7-3.5-8.5-3.5C178.7,8.5,172.8,12.5,170.6,19.6z M185.2,13.8c1.6,0,2.6,0.4,3.2,1.2
			c0.7,0.9,0.7,2.5,0.1,4.6c-0.8,2.6-2.6,5.7-6.7,5.7c-1.6,0-2.6-0.4-3.2-1.2c-0.7-1-0.7-2.5-0.1-4.6l0,0
			C179.2,16.9,181.1,13.8,185.2,13.8z"/>
		<path class="st1" d="M214.5,9.1c-0.1,0.1-7.8,6.6-7.8,6.6l2-6.6h-8.1c0,0-6.3,20.5-6.4,20.9c0.4,0,7.8,0,8.1,0
			c0.1-0.2,2.6-8.5,2.6-8.5s6.2,8.4,6.3,8.5c0.1,0,8.3,0,8.8,0c-0.3-0.5-7.9-10.6-7.9-10.6S223,9.6,223.7,9.1
			C222.9,9.1,214.6,9.1,214.5,9.1z"/>
		<path class="st6" d="M47.7,6l-0.1-1h-6.8C41.5,13,36,22,28,24.2l0,0c0,0,0,0,0,0c0,0-0.1,0-0.2-0.1c0,0,0-0.1,0-0.1l0,0
			c6.6-4.4,10.1-11.5,9.5-19h-6.7c0.3,6.6-4.1,12.6-10.9,15c0,0-0.1,0-0.2-0.1c0,0,0-0.1,0.1-0.1l0,0c4.9-3.3,7.8-8.3,7.6-14.8h-6.7
			c-0.1,7.8-7,13.2-20.7,13.2c0.2,0.1,0.4,0.2,0.6,0.3c8.9,4.9,13.5,7.8,20.1,13.2c1,0.9,2.4,1.3,3.8,1.3
			C42.2,31.7,48.5,16.2,47.7,6z"/>
		<g class="st1">
			<g>
				<path class="st4" d="M89.7,38.1c-0.2,0.6-0.5,1-0.9,1.4c-0.4,0.4-0.9,0.6-1.5,0.8c-0.6,0.2-1.2,0.2-1.9,0.2h-2.2l-0.8,2.6h-2
					l2.2-7.3H87c0.6,0,1.2,0.1,1.6,0.3c0.5,0.2,0.8,0.4,1,0.8C89.8,37.1,89.8,37.6,89.7,38.1z M87.6,38.1c0.1-0.3,0-0.6-0.2-0.7
					c-0.2-0.2-0.5-0.2-1-0.2h-2.3l-0.6,1.9h2.3c0.5,0,0.8-0.1,1.1-0.2C87.3,38.7,87.5,38.4,87.6,38.1z"/>
				<polygon class="st4" points="96.3,43.1 89.1,43.1 91.4,35.8 98.3,35.8 97.9,37.2 92.9,37.2 92.5,38.5 95.4,38.5 95,39.9 
					92.1,39.9 91.6,41.6 96.7,41.6 				"/>
				<path class="st4" d="M105.6,43.1h-2.3l-1-2.6h-2l-0.8,2.6h-2l2.2-7.3h4.6c0.6,0,1.2,0.1,1.6,0.3c0.5,0.2,0.8,0.4,1,0.8
					c0.2,0.3,0.2,0.8,0.1,1.3c-0.3,1.1-1.2,1.8-2.6,2.1L105.6,43.1z M105.1,38.1c0.1-0.3,0-0.6-0.2-0.7c-0.2-0.1-0.5-0.2-1-0.2h-2.6
					l-0.6,1.9h2.6C104.3,39.1,104.9,38.8,105.1,38.1z"/>
				<polygon class="st4" points="115.6,37.2 110.5,37.2 110.1,38.6 113.1,38.6 112.6,40 109.6,40 108.7,43.1 106.7,43.1 108.9,35.8 
					116.1,35.8 				"/>
				<path class="st4" d="M123.3,39.4c-0.2,0.7-0.6,1.4-1.1,2c-0.5,0.6-1.2,1-1.9,1.3c-0.7,0.3-1.6,0.5-2.5,0.5
					c-0.9,0-1.6-0.2-2.2-0.5c-0.6-0.3-0.9-0.8-1.1-1.3c-0.2-0.6-0.1-1.2,0.1-2c0.2-0.7,0.6-1.4,1.1-2c0.5-0.6,1.1-1,1.9-1.3
					c0.7-0.3,1.6-0.5,2.5-0.5c0.9,0,1.6,0.2,2.2,0.5c0.5,0.3,0.9,0.8,1.1,1.3C123.6,38,123.6,38.7,123.3,39.4z M121.3,39.4
					c0.1-0.4,0.2-0.8,0.1-1.2c0-0.3-0.2-0.6-0.5-0.8c-0.3-0.2-0.7-0.3-1.2-0.3c-0.5,0-1,0.1-1.4,0.3c-0.4,0.2-0.7,0.5-1,0.8
					c-0.3,0.3-0.5,0.7-0.6,1.2c-0.1,0.4-0.2,0.8-0.1,1.2c0.1,0.3,0.2,0.6,0.5,0.8c0.3,0.2,0.7,0.3,1.2,0.3c0.5,0,1-0.1,1.4-0.3
					c0.4-0.2,0.7-0.5,1-0.8C121,40.3,121.2,39.9,121.3,39.4z"/>
				<path class="st4" d="M131.2,43.1h-2.3l-1-2.6h-2l-0.8,2.6h-2l2.2-7.3h4.6c0.6,0,1.2,0.1,1.6,0.3c0.5,0.2,0.8,0.4,1,0.8
					c0.2,0.3,0.2,0.8,0.1,1.3c-0.3,1.1-1.2,1.8-2.6,2.1L131.2,43.1z M130.7,38.1c0.1-0.3,0-0.6-0.2-0.7c-0.2-0.1-0.5-0.2-1-0.2h-2.6
					l-0.6,1.9h2.6C129.9,39.1,130.4,38.8,130.7,38.1z"/>
				<path class="st4" d="M141.6,43.1h-2l0.8-2.7c0-0.1,0.1-0.3,0.2-0.5c0.1-0.2,0.1-0.4,0.2-0.6c0.1-0.2,0.1-0.3,0.1-0.5
					c-0.1,0.1-0.3,0.3-0.5,0.5c-0.2,0.2-0.4,0.4-0.6,0.7l-3,3.2l-1-3.2c-0.1-0.2-0.1-0.4-0.2-0.7c-0.1-0.2-0.1-0.4-0.1-0.5
					c0,0.1-0.1,0.3-0.1,0.5c-0.1,0.2-0.1,0.4-0.2,0.6c-0.1,0.2-0.1,0.4-0.2,0.5l-0.8,2.7h-2l2.2-7.3h1.9l1.1,3.3
					c0.1,0.2,0.1,0.4,0.2,0.7c0.1,0.2,0.1,0.4,0.1,0.6c0.1-0.1,0.3-0.3,0.5-0.6c0.2-0.2,0.4-0.4,0.6-0.7l3-3.3h2L141.6,43.1z"/>
				<path class="st4" d="M151.7,43.1h-2.2l-0.3-1.6h-3.7l-1.3,1.6h-2.1l6.1-7.3h1.9L151.7,43.1z M148.9,40.1l-0.2-1.3
					c0-0.2-0.1-0.4-0.1-0.6c0-0.2,0-0.4-0.1-0.5c-0.1,0.1-0.2,0.3-0.4,0.5c-0.2,0.2-0.3,0.4-0.5,0.6l-1,1.3H148.9z"/>
				<path class="st4" d="M160.5,43.1h-1.8l-2.4-4c-0.1-0.1-0.2-0.3-0.3-0.4c-0.1-0.2-0.1-0.3-0.2-0.4c0,0.1-0.1,0.2-0.1,0.4
					c-0.1,0.2-0.1,0.4-0.2,0.6c-0.1,0.2-0.1,0.4-0.2,0.5l-1,3.2h-2l2.2-7.3h1.9l2.3,3.9c0.1,0.1,0.2,0.3,0.3,0.4
					c0.1,0.2,0.2,0.3,0.2,0.4c0-0.1,0.1-0.2,0.1-0.4c0.1-0.2,0.1-0.4,0.2-0.6c0.1-0.2,0.1-0.4,0.2-0.5l0.9-3.1h2L160.5,43.1z"/>
				<path class="st4" d="M171.2,37.3l-2,0.6c-0.1-0.3-0.3-0.4-0.5-0.6c-0.3-0.1-0.6-0.2-1.1-0.2c-0.8,0-1.4,0.2-1.9,0.6
					c-0.5,0.4-0.9,1-1.1,1.7c-0.1,0.4-0.2,0.8-0.1,1.2c0.1,0.3,0.3,0.6,0.6,0.8c0.3,0.2,0.7,0.3,1.2,0.3c0.4,0,0.8-0.1,1.2-0.2
					c0.3-0.1,0.7-0.4,1.1-0.7l1.5,0.7c-0.5,0.5-1.1,0.9-1.8,1.2c-0.7,0.3-1.5,0.4-2.4,0.4c-0.9,0-1.6-0.2-2.1-0.5
					c-0.6-0.3-0.9-0.7-1.1-1.3c-0.2-0.6-0.2-1.2,0.1-2c0.2-0.7,0.6-1.4,1.2-2c0.6-0.6,1.2-1,2-1.3c0.8-0.3,1.6-0.5,2.5-0.5
					c0.9,0,1.7,0.2,2.2,0.5C170.7,36.4,171,36.8,171.2,37.3z"/>
				<polygon class="st4" points="177.5,43.1 170.3,43.1 172.6,35.8 179.5,35.8 179.1,37.2 174.1,37.2 173.7,38.5 176.6,38.5 
					176.2,39.9 173.3,39.9 172.8,41.6 177.9,41.6 				"/>
				<polygon class="st4" points="190.7,37.2 187.8,37.2 186,43.1 184,43.1 185.8,37.2 182.9,37.2 183.4,35.8 191.1,35.8 				"/>
				<polygon class="st4" points="192.1,43.1 190.1,43.1 192.3,35.8 194.4,35.8 				"/>
				<path class="st4" d="M202,43.1h-2.3l-1-2.6h-2l-0.8,2.6h-2l2.2-7.3h4.6c0.6,0,1.2,0.1,1.6,0.3c0.5,0.2,0.8,0.4,1,0.8
					c0.2,0.3,0.2,0.8,0.1,1.3c-0.3,1.1-1.2,1.8-2.6,2.1L202,43.1z M201.4,38.1c0.1-0.3,0-0.6-0.2-0.7c-0.2-0.1-0.5-0.2-1-0.2h-2.6
					l-0.6,1.9h2.6C200.7,39.1,201.2,38.8,201.4,38.1z"/>
				<polygon class="st4" points="210.2,43.1 203.1,43.1 205.3,35.8 212.2,35.8 211.8,37.2 206.9,37.2 206.5,38.5 209.3,38.5 
					208.9,39.9 206,39.9 205.5,41.6 210.6,41.6 				"/>
				<path class="st4" d="M219,40.9c-0.2,0.7-0.7,1.3-1.5,1.7c-0.8,0.4-1.8,0.6-3.2,0.6c-0.8,0-1.6-0.1-2.2-0.4c-0.6-0.2-1-0.6-1.3-1
					l1.7-0.9c0.3,0.3,0.6,0.5,1,0.6c0.4,0.1,0.8,0.2,1.3,0.2c0.6,0,1-0.1,1.4-0.2c0.3-0.1,0.5-0.3,0.6-0.6c0.1-0.2,0-0.3,0-0.4
					c-0.1-0.1-0.3-0.2-0.6-0.3c-0.3-0.1-0.7-0.2-1.3-0.3c-0.6-0.1-1.1-0.2-1.5-0.4c-0.4-0.2-0.7-0.4-0.9-0.7c-0.2-0.3-0.2-0.7,0-1.1
					c0.1-0.4,0.4-0.8,0.8-1.1c0.4-0.3,0.9-0.6,1.5-0.7c0.6-0.2,1.2-0.3,1.9-0.3c0.8,0,1.4,0.1,2,0.3c0.5,0.2,1,0.5,1.3,0.8l-1.8,1
					c-0.2-0.2-0.5-0.4-0.9-0.6c-0.3-0.1-0.7-0.2-1.2-0.2c-0.5,0-0.9,0.1-1.2,0.2c-0.3,0.1-0.4,0.3-0.5,0.4c0,0.2,0,0.3,0.1,0.4
					c0.1,0.1,0.3,0.2,0.5,0.3c0.3,0.1,0.7,0.2,1.1,0.2c0.4,0.1,0.8,0.1,1.1,0.2c0.4,0.1,0.7,0.2,1,0.4c0.3,0.2,0.5,0.4,0.6,0.6
					C219.1,40.1,219.1,40.5,219,40.9z"/>
			</g>
		</g>
		<g class="st1">
			<path d="M-41.7,76h-235.7c-4.5,0-8.1,3.6-8.1,8.1v44.2c0,4.5,3.6,8.1,8.1,8.1h235.7c4.5,0,8.1-3.6,8.1-8.1V84.1
				C-33.6,79.7-37.2,76-41.7,76z"/>
			<g>
				<path class="st2" d="M-204.9,91.7c-0.1,0.2-2.3,7.4-2.3,7.4h-7.1l2.3-7.4h-8.1c0,0-6.1,19.9-6.2,20.3c0.4,0,7.9,0,8.1,0
					c0.1-0.2,2.6-8.5,2.6-8.5h7.1c0,0-2.5,8.1-2.6,8.5c0.4,0,7.9,0,8.1,0c0.1-0.2,6.1-19.9,6.2-20.3
					C-197.3,91.7-204.7,91.7-204.9,91.7z"/>
				<path class="st2" d="M-162.5,93.9l-0.4,0.3l0.8-2.5h-8.1c0,0-6.1,19.9-6.2,20.3c0.4,0,7.9,0,8.1,0c0.1-0.2,3.8-12.3,3.8-12.3
					c0.5-1.7,1.9-2.8,3.3-2.8h2.1c0.7,0,1.2,0.2,1.5,0.6c0.2,0.3,0.3,0.7,0.3,1.2c0,0.3-0.1,0.7-0.2,1.1c0,0-3.3,10.6-3.7,12.2
					c0.4,0,7.9,0,8.1,0c0.1-0.2,4.4-14.3,4.4-14.3c0.1-0.4,0.3-1.1,0.3-2c0-0.8-0.2-1.8-0.8-2.6c-0.9-1.2-2.5-1.8-4.7-1.8
					C-158.4,91.3-161.2,92.9-162.5,93.9z"/>
				<path class="st2" d="M-194.5,93.1c0.1,0.2,1.2,4,1.2,4.3c0.7-0.3,3.7-1.5,6.4-1.5c2.5,0,3.9,0.3,4.4,1.1
					c0.3,0.4,0.3,0.8,0.1,1.4l-0.5,1.7l-0.1,0c-3.4-1.1-6-1.1-6-1.1c-2.7,0-5.1,0.7-7,1.9c-1.8,1.2-3.1,3-3.7,5
					c-0.6,1.8-0.4,3.4,0.4,4.5c1,1.3,2.8,2,5.5,2c2.5,0,5.2-0.6,7.6-1.8l0.3-0.2c0,0-0.4,1.2-0.5,1.5c0.4,0,7.9,0,8.1,0
					c0.1-0.2,4.3-14,4.3-14c0.2-0.6,0.3-1.1,0.3-1.7c0-0.9-0.2-1.7-0.7-2.3c-1.3-1.8-4.3-2.7-8.7-2.7
					C-188.5,91.3-193.6,92.9-194.5,93.1z M-188.1,103.1c0.6,0,2.7,0,4,0.7l0.1,0.1l-0.9,3l-0.1,0c-1.3,0.6-3.1,1-4.5,1
					c-1.4,0-2.3-0.3-2.7-0.9c-0.2-0.2-0.3-0.5-0.3-0.9c0-0.2,0-0.4,0.1-0.6C-191.9,104-190.3,103.1-188.1,103.1z"/>
				<path class="st2" d="M-131.1,91.6c-0.1,0.1-7.7,6.1-7.7,6.1l1.9-6.1h-8.1c0,0-6.2,20.2-6.3,20.6c0.4,0,7.8,0,8.1,0
					c0.1-0.2,2.6-8.4,2.6-8.4s5.8,8.2,5.9,8.4c0.1,0,8.1,0,8.6,0c-0.3-0.5-7.4-10.6-7.4-10.6s11.6-9.5,12.2-10.1
					C-122.2,91.6-131,91.6-131.1,91.6z"/>
				<path class="st2" d="M-127.7,101.9L-127.7,101.9c-0.9,2.9-0.5,5.5,0.9,7.6c1.7,2.3,4.7,3.5,8.5,3.5c8.9,0,13.9-3.4,16.3-11.2
					c0.9-2.9,0.5-5.5-0.9-7.6c-1.7-2.3-4.7-3.5-8.5-3.5C-119.6,90.7-125.5,94.8-127.7,101.9z M-119.8,106.4c-0.7-1-0.7-2.5-0.1-4.6
					l0,0c0.8-2.6,2.6-5.7,6.8-5.7c1.6,0,2.6,0.4,3.2,1.2c0.7,0.9,0.7,2.5,0.1,4.6c-0.8,2.6-2.6,5.7-6.8,5.7
					C-118.2,107.6-119.2,107.2-119.8,106.4z"/>
				<path class="st2" d="M-100.8,101.9L-100.8,101.9c-0.9,2.9-0.5,5.5,0.9,7.6c1.7,2.3,4.7,3.5,8.5,3.5c8.9,0,13.9-3.4,16.3-11.2
					c0.9-2.9,0.5-5.5-0.9-7.6c-1.7-2.3-4.7-3.5-8.5-3.5C-92.7,90.7-98.7,94.8-100.8,101.9z M-86.2,96.1c1.6,0,2.6,0.4,3.2,1.2
					c0.7,0.9,0.7,2.5,0.1,4.6c-0.8,2.6-2.6,5.7-6.8,5.7c-1.6,0-2.6-0.4-3.2-1.2c-0.7-1-0.7-2.5-0.1-4.6l0,0
					C-92.2,99.2-90.4,96.1-86.2,96.1z"/>
				<path class="st2" d="M-56.9,91.4c-0.1,0.1-7.8,6.6-7.8,6.6l2-6.6h-8.1c0,0-6.3,20.6-6.4,20.9c0.4,0,7.8,0,8.1,0
					c0.1-0.2,2.6-8.5,2.6-8.5s6.2,8.4,6.3,8.5c0.1,0,8.3,0,8.8,0c-0.3-0.5-7.9-10.6-7.9-10.6s10.9-9.8,11.6-10.3
					C-48.5,91.4-56.8,91.4-56.9,91.4z"/>
				<path class="st3" d="M-223.9,88.2l-0.1-1h-6.8c0.8,8.1-4.8,17.1-12.7,19.2l0,0c0,0,0,0,0,0c0,0-0.1,0-0.2-0.1c0,0,0-0.1,0-0.1
					l0,0c6.6-4.4,10.1-11.5,9.5-19h-6.7c0.3,6.6-4.1,12.6-10.9,15c0,0-0.1,0-0.2-0.1c0,0,0-0.1,0.1-0.1l0,0
					c4.9-3.3,7.8-8.3,7.6-14.8h-6.7c-0.1,7.8-7,13.2-20.7,13.2c0.2,0.1,0.4,0.2,0.6,0.3c8.9,4.9,13.5,7.8,20.1,13.2
					c1,0.9,2.4,1.3,3.8,1.3C-229.4,114-223,98.4-223.9,88.2z"/>
			</g>
			<g>
				<path class="st4" d="M-183,116.1c0,0-0.7,2.1-0.8,2.6c-0.8-0.5-1.8-0.7-3.2-0.7c-3,0-5.4,1.5-6.1,3.8c-0.3,1-0.2,1.9,0.3,2.5
					c0.6,0.8,1.8,1.2,3.5,1.2c1.3,0,2.5-0.2,3.7-0.7c0,0.1-0.2,0.6-0.2,0.6h2.4l3.1-10L-183,116.1z M-190.7,123.4
					c-0.3-0.4-0.3-0.9-0.1-1.5l0,0c0.5-1.7,1.8-2.6,3.7-2.6c1.4,0,2.3,0.4,2.8,0.8c-0.1,0.3-0.9,2.9-1,3.1c-1.1,0.6-2.3,0.9-3.4,0.9
					C-189.7,124.1-190.4,123.9-190.7,123.4z"/>
				<path class="st4" d="M-177.5,118.6c0,0,0.2-0.5,0.2-0.5h-2.4l-2.2,7.3h2.4l1.3-4.1c0.4-1.2,1.5-1.9,3.1-1.9
					c0.9,0,1.4,0.1,1.7,0.2l0.2,0.1l1.1-1.4l-0.4-0.1c-0.5-0.1-1.1-0.2-2-0.2C-175.6,117.9-176.7,118.2-177.5,118.6z"/>
				<path class="st4" d="M-171.6,116.4L-171.6,116.4c-0.1,0.2,0,0.4,0.1,0.6c0.2,0.3,0.7,0.5,1.3,0.5c0.7,0,1.6-0.3,1.7-0.9
					c0.1-0.2,0-0.4-0.1-0.6c-0.2-0.3-0.7-0.5-1.2-0.5C-170.7,115.5-171.4,115.9-171.6,116.4z M-171.7,118.1l-2.2,7.3h2.4l2.2-7.3
					H-171.7z"/>
				<path class="st4" d="M-159.9,118.1c0,0-4.9,5.3-4.9,5.3c-0.3-0.9-1.6-5.3-1.6-5.3h-2.5l2.7,7.3h1.9l7.2-7.3H-159.9z"/>
				<path class="st4" d="M-156.8,116.4L-156.8,116.4c-0.1,0.2,0,0.4,0.1,0.6c0.2,0.3,0.7,0.5,1.3,0.5c0.7,0,1.5-0.3,1.7-0.9
					c0.1-0.2,0-0.4-0.1-0.6c-0.2-0.3-0.7-0.5-1.2-0.5C-155.9,115.5-156.6,115.9-156.8,116.4z M-156.9,118.1l-2.2,7.3h2.4l2.2-7.3
					H-156.9z"/>
				<path class="st4" d="M-150.7,118.6c0-0.1,0.2-0.5,0.2-0.5h-2.4l-2.2,7.3h2.4l1.3-4.1c0.4-1.2,1.7-1.9,3.6-1.9
					c1.1,0,1.7,0.2,2,0.6c0.2,0.3,0.2,0.7,0,1.2l-1.3,4.3h2.4l1.3-4.3c0.2-0.8,0.2-1.5-0.2-2c-0.6-0.8-1.8-1.1-3.6-1.1
					C-148.6,117.9-149.8,118.2-150.7,118.6z"/>
				<path class="st4" d="M-143,121.7c-0.1,0.5-0.2,0.9-0.2,1.3c0,0.5,0.2,0.9,0.4,1.2c0.6,0.8,1.8,1.2,3.5,1.2
					c1.3,0,2.5-0.2,3.7-0.7c-0.5,1.2-1.5,1.7-5.6,1.8l-0.4,0l0.6,1.3l0.2,0c2.4,0,4.1-0.3,5.3-0.8c1.2-0.5,1.9-1.3,2.3-2.4l2-6.5
					h-2.4c0,0-0.1,0.4-0.2,0.6c-0.8-0.5-1.8-0.7-3.2-0.7C-139.8,117.9-142.3,119.4-143,121.7z M-140.6,123.4
					c-0.3-0.4-0.3-0.9-0.1-1.5l0,0c0.5-1.7,1.8-2.6,3.7-2.6c1.4,0,2.3,0.4,2.8,0.8c-0.1,0.3-0.9,2.9-1,3.1c-1.1,0.6-2.3,0.9-3.4,0.9
					C-139.5,124.1-140.2,123.9-140.6,123.4z"/>
				<path class="st4" d="M-127,121.6c-0.1,0.4-0.2,0.8-0.2,1.2c0,0.5,0.2,0.9,0.5,1.3c1,1.3,3.2,1.5,4,1.5c1.9,0,3.1-0.3,4.9-0.8
					l0.4-0.1l-1-1.1l-0.2,0.1c-1.3,0.4-2.2,0.6-3.6,0.6c-1.1,0-1.9-0.3-2.3-0.7c-0.2-0.2-0.3-0.5-0.3-0.8c0-0.1,0-0.2,0-0.3
					c0.4,0,8.4,0,8.4,0l0.1-0.1c0.1-0.2,0.2-0.3,0.3-0.6c0.1-0.4,0.2-0.7,0.1-1.1c0-0.5-0.2-0.9-0.4-1.2c-0.7-0.9-2.1-1.4-4.1-1.4
					C-123.7,117.9-126.3,119.4-127,121.6z M-120.7,119.3c1.1,0,1.9,0.2,2.3,0.7c0.2,0.2,0.2,0.4,0.3,0.7c0,0.1,0,0.2,0,0.3
					c-0.4,0-5.3,0-6.1,0C-123.7,119.9-122.4,119.3-120.7,119.3z"/>
				<path class="st4" d="M-105.7,119c-0.5-0.5-1.4-1.1-3.2-1.1c-1.1,0-2.2,0.2-3,0.6c0,0,0.2-0.5,0.2-0.5h-2.4l-2.2,7.3h2.4l1.3-4.1
					c0.4-1.3,1.5-1.9,3.2-1.9c0.9,0,1.5,0.2,1.8,0.5c0.2,0.3,0.2,0.7,0,1.2c0,0-1.3,4.3-1.3,4.3h2.4l1.3-4.1
					c0.4-1.3,1.5-1.9,3.2-1.9c1,0,1.5,0.2,1.8,0.5c0.2,0.3,0.2,0.7,0,1.3l-1.3,4.3h2.4l1.3-4.3c0.3-0.8,0.2-1.5-0.2-2
					c-0.6-0.7-1.7-1.1-3.4-1.1C-103.6,117.9-104.9,118.5-105.7,119z"/>
				<path class="st4" d="M-94.8,118.9c-1.3,0.7-2.2,1.6-2.5,2.8l0,0c-0.3,0.9-0.2,1.7,0.3,2.4c0.7,1,2.3,1.5,4.3,1.5
					c1.6,0,3.1-0.3,4.3-0.9c1.3-0.7,2.2-1.6,2.6-2.8c0.3-0.9,0.2-1.7-0.3-2.3c-0.7-1-2.3-1.5-4.4-1.5
					C-92.1,117.9-93.6,118.3-94.8,118.9z M-94.9,123.3c-0.3-0.4-0.3-0.9-0.1-1.5h0c0.5-1.6,2-2.5,4.2-2.5c1.2,0,2.1,0.3,2.5,0.8
					c0.3,0.4,0.3,0.9,0.1,1.5c-0.5,1.6-2.1,2.5-4.3,2.5C-93.6,124.1-94.5,123.8-94.9,123.3z"/>
				<path class="st4" d="M-82.7,116.1c0,0-0.5,1.7-0.6,2c-0.3,0-1.6,0-1.6,0l-0.4,1.3c0,0,1.1,0,1.6,0c-0.2,0.6-1.3,4.2-1.3,4.2
					c-0.1,0.2-0.1,0.5-0.1,0.6c0,0.2,0.1,0.4,0.2,0.6c0.3,0.4,1,0.6,2.1,0.6c0.9,0,1.7-0.1,2.5-0.2l0.1,0l0.7-1.4l-0.5,0.1
					c-0.6,0.1-1.1,0.2-1.8,0.2c-0.6,0-0.8-0.1-0.8-0.1c0,0,0-0.1,0-0.3c0,0,1-3.4,1.3-4.2c0.3,0,3.1,0,3.1,0l0.4-1.3
					c0,0-2.6,0-3.1,0c0.2-0.5,0.8-2.7,0.8-2.7L-82.7,116.1z"/>
				<path class="st4" d="M-76.5,116.4L-76.5,116.4c-0.1,0.2,0,0.4,0.1,0.6c0.2,0.3,0.7,0.5,1.3,0.5c0.7,0,1.6-0.3,1.7-0.9
					c0.1-0.2,0-0.4-0.1-0.6c-0.2-0.3-0.7-0.5-1.2-0.5C-75.6,115.5-76.4,115.9-76.5,116.4z M-76.7,118.1l-2.2,7.3h2.4l2.2-7.3H-76.7z
					"/>
				<path class="st4" d="M-71.9,118.9c-1.3,0.7-2.2,1.6-2.5,2.8l0,0c-0.3,0.9-0.2,1.7,0.3,2.4c0.7,1,2.3,1.5,4.3,1.5
					c1.6,0,3.1-0.3,4.3-0.9c1.3-0.7,2.2-1.6,2.6-2.8c0.3-0.9,0.2-1.7-0.3-2.3c-0.7-1-2.3-1.5-4.4-1.5
					C-69.2,117.9-70.7,118.3-71.9,118.9z M-67.8,119.3c1.2,0,2.1,0.3,2.5,0.8c0.3,0.4,0.3,0.9,0.1,1.5c-0.5,1.6-2.1,2.5-4.3,2.5
					c-1.2,0-2.1-0.3-2.4-0.8c-0.2-0.2-0.2-0.4-0.3-0.7c0-0.2,0-0.5,0.1-0.8C-71.6,120.2-70,119.3-67.8,119.3z"/>
				<path class="st4" d="M-58.7,118.6c0-0.1,0.2-0.5,0.2-0.5h-2.4l-2.2,7.3h2.4l1.3-4.1c0.5-1.7,2.7-1.9,3.6-1.9
					c1.1,0,1.7,0.2,2,0.6c0.2,0.3,0.2,0.7,0,1.2c0,0-1.3,4.3-1.3,4.3h2.4l1.3-4.3c0.2-0.8,0.2-1.5-0.2-2c-0.6-0.8-1.8-1.1-3.6-1.1
					C-56.6,117.9-57.7,118.2-58.7,118.6z"/>
			</g>
		</g>
		<g class="st1">
			<path class="st2" d="M231,76H-4.7c-4.5,0-8.1,3.6-8.1,8.1v44.2c0,4.5,3.6,8.1,8.1,8.1H231c4.5,0,8.1-3.6,8.1-8.1V84.1
				C239.1,79.7,235.5,76,231,76z"/>
			<path d="M67.8,91.7c-0.1,0.2-2.3,7.4-2.3,7.4h-7l2.3-7.4h-8.1c0,0-6.1,19.9-6.2,20.3c0.4,0,7.9,0,8.1,0c0.1-0.2,2.6-8.5,2.6-8.5
				h7.1c0,0-2.5,8.1-2.6,8.5c0.4,0,7.9,0,8.1,0c0.1-0.2,6.1-19.9,6.2-20.3C75.5,91.7,68,91.7,67.8,91.7z"/>
			<path d="M110.2,93.9l-0.4,0.3l0.8-2.5h-8.1c0,0-6.1,19.9-6.2,20.3c0.4,0,7.9,0,8.1,0c0.1-0.2,3.8-12.3,3.8-12.3
				c0.5-1.7,1.9-2.8,3.3-2.8h2.1c0.7,0,1.2,0.2,1.5,0.6c0.2,0.3,0.3,0.7,0.3,1.2c0,0.3-0.1,0.7-0.2,1.1c0,0-3.3,10.6-3.7,12.2
				c0.4,0,7.9,0,8.1,0c0.1-0.2,4.4-14.3,4.4-14.3c0.1-0.4,0.3-1.1,0.3-2c0-0.8-0.2-1.8-0.8-2.6c-0.9-1.2-2.5-1.8-4.7-1.8
				C114.4,91.3,111.5,92.9,110.2,93.9z"/>
			<path d="M78.3,93.1c0.1,0.2,1.2,4,1.2,4.3c0.7-0.3,3.7-1.5,6.4-1.5c2.5,0,3.9,0.3,4.4,1.1c0.3,0.4,0.3,0.8,0.1,1.4l-0.5,1.7
				l-0.1,0c-3.4-1.1-6-1.1-6-1.1c-2.7,0-5.1,0.7-7,1.9c-1.8,1.2-3.1,3-3.7,5c-0.6,1.8-0.4,3.4,0.4,4.5c1,1.3,2.8,2,5.5,2
				c2.5,0,5.2-0.6,7.6-1.8l0.3-0.2c0,0-0.4,1.2-0.5,1.5c0.4,0,7.9,0,8.1,0c0.1-0.2,4.3-14,4.3-14c0.2-0.6,0.3-1.1,0.3-1.7
				c0-0.9-0.2-1.7-0.7-2.3c-1.3-1.8-4.3-2.7-8.7-2.7C84.2,91.3,79.1,92.9,78.3,93.1z M84.7,103.1c0.6,0,2.7,0,4,0.7l0.1,0.1l-0.9,3
				l-0.1,0c-1.3,0.6-3.1,1-4.5,1c-1.4,0-2.3-0.3-2.7-0.9c-0.2-0.2-0.3-0.5-0.3-0.9c0-0.2,0-0.4,0.1-0.6
				C80.8,104,82.4,103.1,84.7,103.1z"/>
			<path d="M141.7,91.6c-0.1,0.1-7.7,6.1-7.7,6.1l1.9-6.1h-8.1c0,0-6.2,20.2-6.3,20.6c0.4,0,7.9,0,8.1,0c0.1-0.2,2.6-8.4,2.6-8.4
				s5.8,8.2,5.9,8.4c0.1,0,8.1,0,8.6,0c-0.3-0.5-7.4-10.6-7.4-10.6s11.6-9.5,12.2-10.1C150.6,91.6,141.8,91.6,141.7,91.6z"/>
			<path d="M145,101.9L145,101.9c-0.9,2.9-0.5,5.5,0.9,7.6c1.7,2.3,4.7,3.5,8.5,3.5c8.9,0,13.9-3.4,16.3-11.2
				c0.9-2.9,0.5-5.5-0.9-7.6c-1.7-2.3-4.7-3.5-8.5-3.5C153.1,90.7,147.2,94.8,145,101.9z M152.9,106.4c-0.7-1-0.7-2.5-0.1-4.6l0,0
				c0.8-2.6,2.6-5.7,6.8-5.7c1.6,0,2.6,0.4,3.2,1.2c0.7,0.9,0.7,2.5,0.1,4.6c-0.8,2.6-2.6,5.7-6.8,5.7
				C154.6,107.6,153.5,107.2,152.9,106.4z"/>
			<path d="M171.9,101.9L171.9,101.9c-0.9,2.9-0.5,5.5,0.9,7.6c1.7,2.3,4.7,3.5,8.5,3.5c8.9,0,13.9-3.4,16.3-11.2
				c0.9-2.9,0.5-5.5-0.9-7.6c-1.7-2.3-4.7-3.5-8.5-3.5C180,90.7,174.1,94.8,171.9,101.9z M186.5,96.1c1.6,0,2.6,0.4,3.2,1.2
				c0.7,0.9,0.7,2.5,0.1,4.6c-0.8,2.6-2.6,5.7-6.8,5.7c-1.6,0-2.6-0.4-3.2-1.2c-0.7-1-0.7-2.5-0.1-4.6l0,0
				C180.5,99.2,182.3,96.1,186.5,96.1z"/>
			<path d="M215.8,91.4c-0.1,0.1-7.8,6.6-7.8,6.6l2-6.6h-8.1c0,0-6.3,20.6-6.4,20.9c0.4,0,7.8,0,8.1,0c0.1-0.2,2.6-8.5,2.6-8.5
				s6.2,8.4,6.3,8.5c0.1,0,8.3,0,8.8,0c-0.3-0.5-7.9-10.6-7.9-10.6s10.9-9.8,11.6-10.3C224.2,91.4,215.9,91.4,215.8,91.4z"/>
			<path class="st3" d="M48.9,88.2l-0.1-1h-6.8c0.8,8.1-4.8,17.1-12.7,19.2l0,0c0,0,0,0,0,0c0,0-0.1,0-0.2-0.1c0,0,0-0.1,0-0.1l0,0
				c6.6-4.4,10.1-11.5,9.5-19h-6.7c0.3,6.6-4.1,12.6-10.9,15c0,0-0.1,0-0.2-0.1c0,0,0-0.1,0.1-0.1l0,0c4.9-3.3,7.8-8.3,7.6-14.8
				h-6.7c-0.1,7.8-7,13.2-20.7,13.2c0.2,0.1,0.4,0.2,0.6,0.3c8.9,4.9,13.5,7.8,20.1,13.2c1,0.9,2.4,1.3,3.8,1.3
				C43.3,114,49.7,98.4,48.9,88.2z"/>
			<g>
				<path class="st4" d="M89.7,116.1c0,0-0.7,2.1-0.8,2.6c-0.8-0.5-1.8-0.7-3.2-0.7c-3,0-5.4,1.5-6.1,3.8c-0.3,1-0.2,1.9,0.3,2.5
					c0.6,0.8,1.8,1.2,3.5,1.2c1.3,0,2.5-0.2,3.7-0.7c0,0.1-0.2,0.6-0.2,0.6h2.4l3.1-10L89.7,116.1z M82,123.4
					c-0.3-0.4-0.3-0.9-0.1-1.5l0,0c0.5-1.7,1.8-2.6,3.7-2.6c1.4,0,2.3,0.4,2.8,0.8c-0.1,0.3-0.9,2.9-1,3.1c-1.1,0.6-2.3,0.9-3.4,0.9
					C83.1,124.1,82.4,123.9,82,123.4z"/>
				<path class="st4" d="M95.2,118.6c0,0,0.2-0.5,0.2-0.5H93l-2.2,7.3h2.4l1.3-4.1c0.4-1.2,1.5-1.9,3.1-1.9c0.9,0,1.4,0.1,1.7,0.2
					l0.2,0.1l1.1-1.4l-0.4-0.1c-0.5-0.1-1.1-0.2-2-0.2C97.1,117.9,96.1,118.2,95.2,118.6z"/>
				<path class="st4" d="M101.1,116.4L101.1,116.4c-0.1,0.2,0,0.4,0.1,0.6c0.2,0.3,0.7,0.5,1.3,0.5c0.7,0,1.6-0.3,1.7-0.9
					c0.1-0.2,0-0.4-0.1-0.6c-0.2-0.3-0.7-0.5-1.2-0.5C102.1,115.5,101.3,115.9,101.1,116.4z M101,118.1l-2.2,7.3h2.4l2.2-7.3H101z"
					/>
				<path class="st4" d="M112.8,118.1c0,0-4.9,5.3-4.9,5.3c-0.3-0.9-1.6-5.3-1.6-5.3h-2.5l2.7,7.3h1.9l7.2-7.3H112.8z"/>
				<path class="st4" d="M115.9,116.4L115.9,116.4c-0.1,0.2,0,0.4,0.1,0.6c0.2,0.3,0.7,0.5,1.3,0.5c0.7,0,1.5-0.3,1.7-0.9
					c0.1-0.2,0-0.4-0.1-0.6c-0.2-0.3-0.7-0.5-1.2-0.5C116.9,115.5,116.1,115.9,115.9,116.4z M115.8,118.1l-2.2,7.3h2.4l2.2-7.3
					H115.8z"/>
				<path class="st4" d="M122,118.6c0-0.1,0.2-0.5,0.2-0.5h-2.4l-2.2,7.3h2.4l1.3-4.1c0.4-1.2,1.7-1.9,3.6-1.9c1.1,0,1.7,0.2,2,0.6
					c0.2,0.3,0.2,0.7,0,1.2l-1.3,4.3h2.4l1.3-4.3c0.2-0.8,0.2-1.5-0.2-2c-0.6-0.8-1.8-1.1-3.6-1.1C124.1,117.9,123,118.2,122,118.6z
					"/>
				<path class="st4" d="M129.8,121.7c-0.1,0.5-0.2,0.9-0.2,1.3c0,0.5,0.2,0.9,0.4,1.2c0.6,0.8,1.8,1.2,3.5,1.2
					c1.3,0,2.5-0.2,3.7-0.7c-0.5,1.2-1.5,1.7-5.6,1.8l-0.4,0l0.6,1.3l0.2,0c2.4,0,4.1-0.3,5.3-0.8c1.2-0.5,1.9-1.3,2.3-2.4l2-6.5
					h-2.4c0,0-0.1,0.4-0.2,0.6c-0.8-0.5-1.8-0.7-3.2-0.7C132.9,117.9,130.5,119.4,129.8,121.7z M132.2,123.4
					c-0.3-0.4-0.3-0.9-0.1-1.5l0,0c0.5-1.7,1.8-2.6,3.7-2.6c1.4,0,2.3,0.4,2.8,0.8c-0.1,0.3-0.9,2.9-1,3.1c-1.1,0.6-2.3,0.9-3.4,0.9
					C133.2,124.1,132.5,123.9,132.2,123.4z"/>
				<path class="st4" d="M145.7,121.6c-0.1,0.4-0.2,0.8-0.2,1.2c0,0.5,0.2,0.9,0.5,1.3c1,1.3,3.2,1.5,4,1.5c1.9,0,3.2-0.3,4.9-0.8
					l0.4-0.1l-1-1.1l-0.2,0.1c-1.3,0.4-2.2,0.6-3.6,0.6c-1.1,0-1.9-0.3-2.3-0.7c-0.2-0.2-0.3-0.5-0.3-0.8c0-0.1,0-0.2,0-0.3
					c0.4,0,8.4,0,8.4,0l0.1-0.1c0.1-0.2,0.2-0.3,0.3-0.6c0.1-0.4,0.2-0.7,0.1-1.1c0-0.5-0.2-0.9-0.4-1.2c-0.7-0.9-2.1-1.4-4.1-1.4
					C149,117.9,146.4,119.4,145.7,121.6z M152,119.3c1.1,0,1.9,0.2,2.3,0.7c0.2,0.2,0.2,0.4,0.3,0.7c0,0.1,0,0.2,0,0.3
					c-0.4,0-5.3,0-6.1,0C149.1,119.9,150.3,119.3,152,119.3z"/>
				<path class="st4" d="M167,119c-0.5-0.5-1.4-1.1-3.2-1.1c-1.1,0-2.2,0.2-3,0.6c0,0,0.2-0.5,0.2-0.5h-2.4l-2.2,7.3h2.4l1.3-4.1
					c0.4-1.3,1.5-1.9,3.2-1.9c0.9,0,1.5,0.2,1.8,0.5c0.2,0.3,0.2,0.7,0,1.2c0,0-1.3,4.3-1.3,4.3h2.4l1.3-4.1
					c0.4-1.3,1.5-1.9,3.2-1.9c1,0,1.5,0.2,1.8,0.5c0.2,0.3,0.2,0.7,0,1.3l-1.3,4.3h2.4l1.3-4.3c0.3-0.8,0.2-1.5-0.2-2
					c-0.6-0.7-1.7-1.1-3.4-1.1C169.1,117.9,167.9,118.5,167,119z"/>
				<path class="st4" d="M177.9,118.9c-1.3,0.7-2.2,1.6-2.5,2.8l0,0c-0.3,0.9-0.2,1.7,0.3,2.4c0.7,1,2.3,1.5,4.3,1.5
					c1.6,0,3.1-0.3,4.3-0.9c1.3-0.7,2.2-1.6,2.6-2.8c0.3-0.9,0.2-1.7-0.3-2.3c-0.7-1-2.3-1.5-4.4-1.5
					C180.6,117.9,179.1,118.3,177.9,118.9z M177.9,123.3c-0.3-0.4-0.3-0.9-0.1-1.5l0,0c0.5-1.6,2-2.5,4.2-2.5c1.2,0,2.1,0.3,2.5,0.8
					c0.3,0.4,0.3,0.9,0.1,1.5c-0.5,1.6-2.1,2.5-4.3,2.5C179.1,124.1,178.3,123.8,177.9,123.3z"/>
				<path class="st4" d="M190,116.1c0,0-0.5,1.7-0.6,2c-0.3,0-1.6,0-1.6,0l-0.4,1.3c0,0,1.1,0,1.6,0c-0.2,0.6-1.3,4.2-1.3,4.2
					c-0.1,0.2-0.1,0.5-0.1,0.6c0,0.2,0.1,0.4,0.2,0.6c0.3,0.4,1,0.6,2.1,0.6c0.9,0,1.7-0.1,2.5-0.2l0.1,0l0.7-1.4l-0.5,0.1
					c-0.6,0.1-1.1,0.2-1.8,0.2c-0.6,0-0.8-0.1-0.8-0.1c0,0,0-0.1,0-0.3c0,0,1-3.4,1.3-4.2c0.3,0,3.1,0,3.1,0l0.4-1.3
					c0,0-2.6,0-3.1,0c0.2-0.5,0.8-2.7,0.8-2.7L190,116.1z"/>
				<path class="st4" d="M196.2,116.4L196.2,116.4c-0.1,0.2,0,0.4,0.1,0.6c0.2,0.3,0.7,0.5,1.3,0.5c0.7,0,1.6-0.3,1.7-0.9
					c0.1-0.2,0-0.4-0.1-0.6c-0.2-0.3-0.7-0.5-1.2-0.5C197.1,115.5,196.4,115.9,196.2,116.4z M196.1,118.1l-2.2,7.3h2.4l2.2-7.3
					H196.1z"/>
				<path class="st4" d="M200.8,118.9c-1.3,0.7-2.2,1.6-2.5,2.8l0,0c-0.3,0.9-0.2,1.7,0.3,2.4c0.7,1,2.3,1.5,4.3,1.5
					c1.6,0,3.1-0.3,4.3-0.9c1.3-0.7,2.2-1.6,2.6-2.8c0.3-0.9,0.2-1.7-0.3-2.3c-0.7-1-2.3-1.5-4.4-1.5
					C203.6,117.9,202.1,118.3,200.8,118.9z M204.9,119.3c1.2,0,2.1,0.3,2.5,0.8c0.3,0.4,0.3,0.9,0.1,1.5c-0.5,1.6-2.1,2.5-4.3,2.5
					c-1.2,0-2.1-0.3-2.4-0.8c-0.2-0.2-0.2-0.4-0.3-0.7c0-0.2,0-0.5,0.1-0.8C201.1,120.2,202.7,119.3,204.9,119.3z"/>
				<path class="st4" d="M214,118.6c0-0.1,0.2-0.5,0.2-0.5h-2.4l-2.2,7.3h2.4l1.3-4.1c0.5-1.7,2.7-1.9,3.6-1.9c1.1,0,1.7,0.2,2,0.6
					c0.2,0.3,0.2,0.7,0,1.2c0,0-1.3,4.3-1.3,4.3h2.4l1.3-4.3c0.2-0.8,0.2-1.5-0.2-2c-0.6-0.8-1.8-1.1-3.6-1.1
					C216.1,117.9,215,118.2,214,118.6z"/>
			</g>
		</g>
	</g>
</g>
</svg>
