<?xml version="1.0" encoding="utf-8"?>
<!-- Generator: Adobe Illustrator 20.0.0, SVG Export Plug-In . SVG Version: 6.00 Build 0)  -->
<svg version="1.1" id="Layer_1" xmlns="http://www.w3.org/2000/svg" xmlns:xlink="http://www.w3.org/1999/xlink" x="0px" y="0px"
	 viewBox="0 0 300 167.2" style="enable-background:new 0 0 300 167.2;" xml:space="preserve">
<style type="text/css">
	.st0{fill:#FFFFFF;}
	.st1{fill:#EC1C24;}
</style>
<g>
	<path class="st0" d="M3.9,83.6C3.9,37.9,71.7,3.7,150,3.7s146.3,34.1,146.3,79.9s-67.9,79.7-146.3,79.7
		C71.7,163.5,3.9,129.5,3.9,83.6"/>
	<path class="st1" d="M257.6,108.9h10.3V53.7h-10.3V108.9z M175.3,108.9h10.3V87.3l15.2,21.6h12.8l-16.8-22.4l14.8-17.5h-12.3
		l-13.7,17.2V53.7h-10.3V108.9L175.3,108.9z M129.7,108.9H140V87.3c0-8.1,2.8-11.5,8.8-11.5c5.1,0,7.3,3.2,7.3,9.9v23.2h10.3V84.4
		c0-9.9-2.9-16.4-14.5-16.4c-4.7,0-9.5,2.1-12.3,6.7h-0.3v-5.6h-9.7v39.9H129.7z M32.3,108.9h10.9V85.2h23.6v23.7h10.9V53.7H66.8
		v22.7H43.2V53.7H32.3V108.9L32.3,108.9z M231.9,75.5c-6.1,0-9.3,4.1-9.7,9.3h19.1C240.5,79.2,238.1,75.5,231.9,75.5L231.9,75.5z
		 M251.5,91.6H222c0.3,7.3,4.4,10.7,10.5,10.7c4.5,0,7.6-2.5,8.4-5.1h9.7c-2.5,8.8-9.7,12.9-18.5,12.9c-12.5,0-20.4-8.7-20.4-21.1
		c0-12,8.3-21.1,20.4-21.1C245.7,67.9,252.3,79.3,251.5,91.6L251.5,91.6z M104,75.5c-6.1,0-9.3,4.1-9.7,9.3h19.2
		C112.7,79.2,110.3,75.5,104,75.5L104,75.5z M123.7,91.6H94.1c0.3,7.3,4.4,10.7,10.5,10.7c4.5,0,7.6-2.5,8.4-5.1h9.7
		c-2.5,8.8-9.6,12.9-18.5,12.9c-12.5,0-20.4-8.7-20.4-21.1c0-12,8.3-21.1,20.4-21.1C117.9,67.9,124.4,79.3,123.7,91.6L123.7,91.6z
		 M150,7.5C71.3,7.5,7.6,41.6,7.6,83.6s63.9,76,142.4,76c78.7,0,142.4-34.1,142.4-76C292.5,41.6,228.7,7.5,150,7.5L150,7.5z M150,0
		c82.8,0,150,37.5,150,83.6s-67.2,83.6-150,83.6S0,129.7,0,83.6S67.2,0,150,0"/>
</g>
</svg>
