<?xml version="1.0" encoding="utf-8"?>
<!-- Generator: Adobe Illustrator 20.0.0, SVG Export Plug-In . SVG Version: 6.00 Build 0)  -->
<svg version="1.1" id="Layer_1" xmlns="http://www.w3.org/2000/svg" xmlns:xlink="http://www.w3.org/1999/xlink" x="0px" y="0px"
	 viewBox="0 0 304.4 84.9" style="enable-background:new 0 0 304.4 84.9;" xml:space="preserve">
<style type="text/css">
	.st0{fill:#414141;}
	.st1{fill:#ED2135;}
</style>
<path class="st0" d="M235.6,0c0,0,0,16.3,0,16.2h21.7V0c0,0,10.7,0,10.8,0c0,0,0,40.5,0,40.7h-10.8V22.8h-21.7c0,0.1,0,17.9,0,17.9
	h-10.8V0L235.6,0"/>
<path class="st0" d="M133.6,0c0,0.1,0,6.9,0,6.9h-16.5v33.7h-10.8V6.9H89.9V0C89.9,0,133.6,0,133.6,0"/>
<path class="st0" d="M149.8,6.9l-7.5,18.5h14.9L149.8,6.9 M175.4,40.7c0,0-12.1,0-12,0l-3.5-8.7h-20.2l-3.5,8.7h-12l19-40.7h13.3
	L175.4,40.7z"/>
<rect x="276.6" class="st0" width="10.8" height="40.7"/>
<path class="st0" d="M34.2,0c0,0,0,16.3,0,16.2H56V0c0,0,10.7,0,10.8,0c0,0,0,40.5,0,40.7H56V22.8H34.2c0,0.1,0,17.9,0,17.9H23.4V0
	L34.2,0"/>
<rect x="75.3" class="st0" width="10.8" height="40.7"/>
<path class="st0" d="M175,29.5c-0.9-2.7-1.4-5.7-1.4-8.6c0-4.2,0.8-8.4,2.8-11.8c2.1-3.6,5.3-6.3,9.3-7.7c3.7-1.4,7.7-2.2,12-2.2
	c4.9,0,9.4,1,13.5,2.8c3.9,1.7,6.8,5.1,7.7,9.4c0.1,0.9,0.3,1.7,0.4,2.6h-11.3c0-1-0.3-2.2-0.6-3.1c-0.9-2.2-2.7-4-5-4.8
	c-1.5-0.5-3.1-0.6-4.8-0.6c-1.9,0-3.6,0.4-5.3,0.9c-2.7,1-4.9,3.2-5.9,5.9c-0.9,2.7-1.4,5.5-1.4,8.5c0,2.4,0.4,4.9,1,7.1
	c0.8,3,3.1,5.3,5.9,6.4c1.8,0.6,3.7,1,5.8,1c1.7,0,3.3-0.3,5-0.8c2.1-0.6,3.9-2.2,4.8-4.2c0.6-1.3,0.9-2.8,0.9-4.4h11.3
	c-0.1,1.3-0.3,2.6-0.5,3.9c-1,4-3.7,7.3-7.5,9c-4.2,1.8-8.9,2.8-13.8,2.8c-3.9,0-7.5-0.6-10.9-1.7C181.3,38.3,176.8,34.6,175,29.5"
	/>
<path class="st0" d="M13.9,52l-9.5,0.9v1.4h0.3c3.9,0.5,3.9,0.5,3.9,3.2v20.1h5.8V51.8L13.9,52"/>
<path class="st0" d="M34.2,59.6c-3.6,0-5.7,2.4-6.7,3.9c0-1.3,0-4,0-4l-8.2,1.3v1.4h0.4c2.4,0.1,3,0.6,3,3v12.6h4.9v-9.3
	c0-2.4,2.3-5.7,4.8-5.7c2.3,0,2.4,1.9,2.4,5.1v9.8h4.9V65.1C39.6,61.5,37.7,59.6,34.2,59.6"/>
<path class="st0" d="M53.2,66.6c-1.9-0.9-3.6-1.8-3.6-3.1c0-1.5,1.8-1.7,2.6-1.7c1.9,0,3.7,1.2,4.5,1.5l0.8,0.5v-0.6v-3l-0.6-0.1
	c-0.9-0.3-2.6-0.5-4.4-0.5c-4.5,0-7.3,1.9-7.3,5.3c0,3,2.8,4.4,5.3,5.5c1.9,0.9,3.7,1.8,3.7,3.2c0,1.3-1.2,2.1-3.2,2.1
	c-2.3,0-4.1-1.2-5.3-1.8l-0.5-0.3v3.7l0.4,0.1c1,0.3,2.8,0.6,5.3,0.6c4.9,0,7.8-2.1,7.8-5.4C58.7,69.3,55.7,67.9,53.2,66.6"/>
<path class="st0" d="M73.1,62.3c3.3,0,3.7,3.6,3.7,6.3c0,4.6-1.2,6.8-3.6,6.8c-3.1,0-3.9-3-3.9-5.4v-1.5
	C69.4,66.6,69.8,62.3,73.1,62.3 M74.5,59.6c-1.8,0-3.6,0.9-5.1,2.4c0-0.9,0-2.6,0-2.6H69l-7.7,1.2V62h0.4c2.4,0.1,3,0.5,3,3v19.9
	h4.9c0,0,0-7.6,0-9.1c0.9,1,2.3,2.1,5,2.1c5,0,7.7-3.3,7.7-9.5C82.1,62.9,79.3,59.6,74.5,59.6z"/>
<path class="st0" d="M85.4,60.8v1.4h0.4c2.4,0.1,2.8,0.5,2.8,3v12.6h4.9V59.6h-0.4L85.4,60.8"/>
<path class="st0" d="M91.1,57.4c1.7,0,3.1-1.2,3.1-2.7c0-1.4-1.3-2.6-3-2.6c-1.7,0-3,1.2-3,2.6C88.1,56.2,89.4,57.4,91.1,57.4"/>
<path class="st0" d="M113.7,63.6v-3.7h-0.3c-0.8-0.1-1.5-0.1-2.3-0.1c-2.7,0-4.2,2.1-4.9,3.6c0-1.4,0-3.6,0-3.6L98.2,61v1.4h0.4
	c2.4,0.1,3,0.5,3,3V78h4.8v-9c0-1.5,0.5-5.1,5-5.1c0.5,0,1.2,0.1,1.7,0.4l0.8,0.3V63.6"/>
<path class="st0" d="M124.8,61.5c2.6,0,3.2,1.9,3.3,3.6c-0.6,0-6.3,0-6.9,0C121.2,63.8,122,61.5,124.8,61.5 M132.9,66.9
	c0-4.9-2.7-7.3-8-7.3c-6,0-9.1,3-9.1,8.6c0,6.2,4,9.8,10.5,9.8c2.8,0,5.1-0.8,5.9-1l0.3-0.1v-2.3l-0.5,0.1c-0.8,0.3-2.2,0.6-3.7,0.6
	c-5.1,0-7.1-4.2-7.2-8.1c0.6,0,11.8,0,11.8,0S132.9,66.9,132.9,66.9z"/>
<path class="st0" d="M177.2,59.6c-3.6,0-5.7,2.2-6.7,3.9c0-1.9,0-12.1,0-12.1h-0.4l-7.7,0.9v1.4h0.4c2.4,0.1,3,0.6,3,3v21h4.9v-9
	c0-3.3,2.4-5.9,4.5-5.9c2.7,0,2.7,2.1,2.7,3.9v11.1h4.9V66C182.6,64.1,182.6,59.6,177.2,59.6"/>
<path class="st0" d="M196.2,61.5c2.6,0,3.2,1.9,3.3,3.6c-0.6,0-6.3,0-6.9,0C192.6,63.8,193.5,61.5,196.2,61.5 M204.3,66.9
	c0-4.9-2.7-7.3-8-7.3c-6,0-9.1,3-9.1,8.6c0,6.2,4,9.8,10.5,9.8c2.8,0,5.1-0.8,5.9-1l0.3-0.1v-2.3l-0.5,0.1c-0.8,0.3-2.2,0.6-3.7,0.6
	c-5.1,0-7.1-4.2-7.2-8.1c0.6,0,11.8,0,11.8,0V66.9z"/>
<path class="st0" d="M150,54.5c0,0,0,5,0,5.5c-0.5,0-3.2,0-3.2,0v2.2c0,0,2.7,0,3.2,0c0,0.6,0,10.8,0,10.8c0,4.6,3,5,6.7,5
	c0.9,0,1.8-0.1,2.8-0.3h0.3v-2.2l-0.4,0.1c-0.4,0.1-0.9,0.1-1.4,0.1c-3,0-3.1-0.9-3.1-3.3c0,0,0-9.6,0-10.3c0.6,0,5.4,0,5.4,0v-2.2
	c0,0-4.9,0-5.4,0c0-0.6,0-5.5,0-5.5L150,54.5"/>
<path class="st0" d="M245.4,52.4h-4.9c0,0,0,17.4,0,19.2c-1-1.5-12.6-19.2-12.6-19.2h-11.2v1.4l1,0.1c3,0.5,3.2,0.5,3.2,3.5v20.2
	h5.1c0,0,0-18.3,0-20.1c1,1.5,13.3,20.1,13.3,20.1h6.4V52.4L245.4,52.4"/>
<path class="st0" d="M259.1,61.5c2.6,0,3.2,1.9,3.3,3.6c-0.6,0-6.3,0-6.9,0C255.6,63.9,256.4,61.5,259.1,61.5 M267.4,66.9
	c0-4.9-2.7-7.3-8-7.3c-6,0-9.1,3-9.1,8.6c0,6.2,4,9.8,10.5,9.8c2.8,0,5.1-0.8,5.9-1l0.3-0.1v-2.3l-0.5,0.1c-0.8,0.3-2.2,0.6-3.7,0.6
	c-5.1,0-7.1-4.2-7.2-8.1c0.6,0,11.8,0,11.8,0V66.9z"/>
<path class="st0" d="M294.1,54.5c0,0,0,5,0,5.5c-0.5,0-3.2,0-3.2,0v2.2c0,0,2.7,0,3.2,0c0,0.6,0,10.8,0,10.8c0,4.6,3,5,6.7,5
	c0.9,0,1.8-0.1,2.8-0.3h0.3v-2.2l-0.4,0.1c-0.4,0.1-0.9,0.1-1.4,0.1c-3,0-3.1-0.9-3.1-3.3c0,0,0-9.6,0-10.3c0.6,0,5.4,0,5.4,0v-2.2
	c0,0-4.9,0-5.4,0c0-0.6,0-5.5,0-5.5L294.1,54.5"/>
<path class="st0" d="M284.3,65.7l5-5.8h-5.1l-4.8,5.4l-4.1-5.4h-7.5v1.4h0.4c2.6,0.1,3.1,0.6,4.6,2.7l3.1,4l-5,5.8h5.1l2.2-2.6
	l4.8,6.3h5.8l-9.1-11.8H284.3"/>
<polyline class="st1" points="294,54.5 288.8,54.5 295.1,47.3 300.3,47.3 294,54.5 "/>
</svg>
