<?xml version="1.0" encoding="utf-8"?>
<!-- Generator: Adobe Illustrator 20.0.0, SVG Export Plug-In . SVG Version: 6.00 Build 0)  -->
<svg version="1.1" id="Layer_1" xmlns="http://www.w3.org/2000/svg" xmlns:xlink="http://www.w3.org/1999/xlink" x="0px" y="0px"
	 viewBox="0 0 300 36.5" style="enable-background:new 0 0 300 36.5;" xml:space="preserve">
<style type="text/css">
	.st0{fill:#EC1B2E;}
</style>
<g>
	<path class="st0" d="M34.5,5.7L39,6.2c2,0.3,2.2,2,2.2,3v5.4H20.3V9.2c0-1.1,0.3-2.8,2.2-3l4.5-0.5V1.1H0v4.6l4.5,0.5
		c2,0.3,2.2,2,2.2,3v17.7c0,1.1-0.3,2.8-2.2,3L0,30.5v4.6h27.2v-4.6L22.7,30c-2-0.3-2.2-2-2.2-3v-5.4h21v5.4c0,1.1-0.3,2.8-2.2,3
		l-4.5,0.5v4.6h26.9v-4.6L57.2,30c-2-0.3-2.2-2-2.2-3V9.2c0-1.1,0.3-2.8,2.2-3l4.5-0.5V1.1H34.5V5.7z"/>
	<path class="st0" d="M216.1,1.2h-33.6v4.6l4,0.4c1.5,0.1,2.4,0.8,2.4,2.8v18c0,1.1-0.3,2.8-2.2,3l-4.5,0.5v4.6h34.1
		c12.2,0,22.2-4.9,22.2-17C238.3,6.1,228.3,1.2,216.1,1.2 M213.6,28.7h-11.4v-21h11.4c6.7,0,9,3.2,9,10.4S220.3,28.7,213.6,28.7z"/>
	<path class="st0" d="M295.5,30c-2.1-0.3-2.8-1.6-3.4-2.6c-15.7-24-15.7-24-15.7-24c-1.2-1.7-2-2.2-3.6-2.2H247v4.6l6.2,0.7
		c0.8,0.1,2.1,1.3,1.1,2.9l-11.6,18.9c-0.5,0.8-1.1,1.7-2.4,1.8l-4.6,0.5v4.6h21.8v-4.6l-3.7-0.4c-1.6-0.1-2.5-1.3-1.7-2.6l1.7-2.8
		h20.9l1.6,2.4c1.3,2.1-0.4,2.9-1.8,3l-3.8,0.4v4.6H300v-4.6L295.5,30 M257.3,18.8l6.5-10.4l6.9,10.4H257.3z"/>
	<path class="st0" d="M158.1,5.7l4.5,0.5c2,0.3,2.2,2,2.2,3v17l-18-23.8c-0.8-1.1-1.5-1.5-3.4-1.5c-1.2,0-23.4,0-23.4,0v4.6l4.5,0.5
		c2,0.3,2.2,2,2.2,3v17.7c0,1.1-0.3,2.8-2.2,3l-4.5,0.5v4.6h21.8v-4.6l-4.5-0.5c-2-0.3-2.2-2-2.2-3v-17l18,23.8
		c0.8,1.1,1.5,1.5,3.4,1.5c0.1,0,0.1,0,0.1,0c0.8,0,4.2,0,16.4,0V9.2c0-1.1,0.3-2.8,2.2-3l4.5-0.5V1.1h-21.7V5.7z"/>
	<path class="st0" d="M90.9,0C68.8,0,63,9.6,63,18.2c0,8.5,5.7,18.2,27.9,18.2c22.1,0,27.9-9.6,27.9-18.2S113.1,0,90.9,0 M90.9,29.9
		c-8.6,0-12.2-3.6-12.2-11.6c0-8.1,3.6-11.8,12.2-11.8S103,10,103,18.2C103,26.3,99.5,29.9,90.9,29.9z"/>
</g>
</svg>
