<?xml version="1.0" encoding="utf-8"?>
<!-- Generator: Adobe Illustrator 20.0.0, SVG Export Plug-In . SVG Version: 6.00 Build 0)  -->
<svg version="1.1" id="Layer_1" xmlns="http://www.w3.org/2000/svg" xmlns:xlink="http://www.w3.org/1999/xlink" x="0px" y="0px"
	 viewBox="0 0 225 102.6" style="enable-background:new 0 0 225 102.6;" xml:space="preserve">
<style type="text/css">
	.st0{clip-path:url(#SVGID_2_);fill:#C6CF21;}
	.st1{clip-path:url(#SVGID_2_);fill:url(#SVGID_3_);}
	.st2{clip-path:url(#SVGID_5_);fill:#518A2E;}
	.st3{clip-path:url(#SVGID_5_);}
	.st4{clip-path:url(#SVGID_9_);fill:#0079C2;}
	.st5{clip-path:url(#SVGID_9_);}
	.st6{clip-path:url(#SVGID_13_);fill:#0079C2;}
	.st7{clip-path:url(#SVGID_13_);}
	.st8{clip-path:url(#SVGID_17_);fill:#F47D20;}
	.st9{clip-path:url(#SVGID_17_);}
	.st10{clip-path:url(#SVGID_21_);fill:#F47D20;}
	.st11{clip-path:url(#SVGID_21_);}
	.st12{fill:#50892E;}
</style>
<g>
	<g>
		<g>
			<g>
				<defs>
					<path id="SVGID_1_" d="M31.5,0C29.6,23.6,0.4,22,0,44.5c-0.1,3.3,1.3,7.9,5,11.6c1.2,1.2,2.7,2.3,4.2,3.1
						c-1,5-1.3,10.8-0.7,17.5l3.5-0.2c-1.3-6.2-1.4-11.6-0.8-16.3C26.3,65.7,49.5,52.9,31.5,0"/>
				</defs>
				<clipPath id="SVGID_2_">
					<use xlink:href="#SVGID_1_"  style="overflow:visible;"/>
				</clipPath>
				<path class="st0" d="M31.5,0C29.6,23.6,0.4,22,0,44.5c-0.1,3.3,1.3,7.9,5,11.6c1.2,1.2,2.7,2.3,4.2,3.1c-1,5-1.3,10.8-0.7,17.5
					l3.5-0.2c-1.3-6.2-1.4-11.6-0.8-16.3C26.3,65.7,49.5,52.9,31.5,0"/>
				
					<linearGradient id="SVGID_3_" gradientUnits="userSpaceOnUse" x1="-208.6139" y1="466.1559" x2="-206.7961" y2="466.1559" gradientTransform="matrix(17.1349 26.2979 41.2801 -26.8968 -15659.3574 18038.4375)">
					<stop  offset="0" style="stop-color:#C6CF21"/>
					<stop  offset="3.370800e-02" style="stop-color:#C6CF21"/>
					<stop  offset="0.1812" style="stop-color:#B5C523"/>
					<stop  offset="0.4728" style="stop-color:#89AB28"/>
					<stop  offset="0.8" style="stop-color:#518A2E"/>
					<stop  offset="1" style="stop-color:#518A2E"/>
				</linearGradient>
				<polygon class="st1" points="34.8,-22.7 84.6,53.8 14.7,99.4 -35.1,22.9 				"/>
			</g>
		</g>
	</g>
	<g>
		<g>
			<g>
				<defs>
					<path id="SVGID_4_" d="M12.7,48.3C10.3,44.5,7.7,37.1,7.9,32l0,0c1,4.4,3.4,10.3,5.7,14.3c1.8-3.8,4-7.2,6.2-10.5
						c-2.4-3.7-3.1-9.7-3-10.9c0,0,0,0,0,0c0.6,2.1,1.9,5.7,4.1,9.2c2.1-3.1,4.1-6.2,5.8-9.5c-1.1-2.3-1.8-5.8-1.7-6.9h0
						c0.5,1.5,1.7,3.6,2.7,4.8c2.2-4.4,3.4-8.1,3.9-10.5c0.6-3.7,0.6-7.6,0-12.1C29.6,23.6,0.4,22,0,44.5c-0.1,3.3,1.3,7.9,5,11.6
						c1.2,1.2,2.7,2.3,4.2,3.1C10.1,55.1,11.3,51.5,12.7,48.3"/>
				</defs>
				<clipPath id="SVGID_5_">
					<use xlink:href="#SVGID_4_"  style="overflow:visible;"/>
				</clipPath>
				<path class="st2" d="M12.7,48.3C10.3,44.5,7.7,37.1,7.9,32l0,0c1,4.4,3.4,10.3,5.7,14.3c1.8-3.8,4-7.2,6.2-10.5
					c-2.4-3.7-3.1-9.7-3-10.9c0,0,0,0,0,0c0.6,2.1,1.9,5.7,4.1,9.2c2.1-3.1,4.1-6.2,5.8-9.5c-1.1-2.3-1.8-5.8-1.7-6.9h0
					c0.5,1.5,1.7,3.6,2.7,4.8c2.2-4.4,3.4-8.1,3.9-10.5c0.6-3.7,0.6-7.6,0-12.1C29.6,23.6,0.4,22,0,44.5c-0.1,3.3,1.3,7.9,5,11.6
					c1.2,1.2,2.7,2.3,4.2,3.1C10.1,55.1,11.3,51.5,12.7,48.3"/>
				<g class="st3">
					<defs>
						<rect id="SVGID_6_" x="-0.1" y="0" width="32.2" height="59.2"/>
					</defs>
					<clipPath id="SVGID_7_">
						<use xlink:href="#SVGID_6_"  style="overflow:visible;"/>
					</clipPath>
					<g transform="matrix(1 0 0 1 0 1.164153e-10)" style="clip-path:url(#SVGID_7_);">
						
							<image style="overflow:visible;" width="114" height="210" xlink:href="63CD58B7.jpg"  transform="matrix(0.2827 0 0 0.2827 -6.175061e-02 1.766761e-03)">
						</image>
					</g>
				</g>
			</g>
		</g>
	</g>
	<g>
		<g>
			<g>
				<defs>
					<path id="SVGID_8_" d="M54.2,0c-1.9,23.6-31,22-31.5,44.5c-0.1,3.3,1.3,7.9,5.1,11.6C40.5,68.8,75.2,61.4,54.2,0"/>
				</defs>
				<clipPath id="SVGID_9_">
					<use xlink:href="#SVGID_8_"  style="overflow:visible;"/>
				</clipPath>
				<path class="st4" d="M54.2,0c-1.9,23.6-31,22-31.5,44.5c-0.1,3.3,1.3,7.9,5.1,11.6C40.5,68.8,75.2,61.4,54.2,0"/>
				<g class="st5">
					<defs>
						<rect id="SVGID_10_" x="22.7" y="0" width="52.5" height="68.8"/>
					</defs>
					<clipPath id="SVGID_11_">
						<use xlink:href="#SVGID_10_"  style="overflow:visible;"/>
					</clipPath>
					<g transform="matrix(1 0 0 1 0 1.164153e-10)" style="clip-path:url(#SVGID_11_);">
						
							<image style="overflow:visible;" width="186" height="244" xlink:href="63CD58B5.jpg"  transform="matrix(0.2827 0 0 0.2827 22.6991 1.766761e-03)">
						</image>
					</g>
				</g>
			</g>
		</g>
	</g>
	<g>
		<g>
			<g>
				<defs>
					<path id="SVGID_12_" d="M22.8,44.5c-0.1,3.3,1.3,7.9,5.1,11.6c0.4,0.4,0.9,0.9,1.4,1.3c6.4-5.2,10.7-15.9,8.1-34.2
						C29.9,28.4,23,33.6,22.8,44.5"/>
				</defs>
				<clipPath id="SVGID_13_">
					<use xlink:href="#SVGID_12_"  style="overflow:visible;"/>
				</clipPath>
				<path class="st6" d="M22.8,44.5c-0.1,3.3,1.3,7.9,5.1,11.6c0.4,0.4,0.9,0.9,1.4,1.3c6.4-5.2,10.7-15.9,8.1-34.2
					C29.9,28.4,23,33.6,22.8,44.5"/>
				<g class="st7">
					<defs>
						<rect id="SVGID_14_" x="22.7" y="23.2" width="17.2" height="34.2"/>
					</defs>
					<clipPath id="SVGID_15_">
						<use xlink:href="#SVGID_14_"  style="overflow:visible;"/>
					</clipPath>
					<g transform="matrix(1 0 0 1 0 1.907349e-06)" style="clip-path:url(#SVGID_15_);">
						
							<image style="overflow:visible;" width="61" height="122" xlink:href="63CD58BB.jpg"  transform="matrix(0.2827 0 0 0.2827 22.6991 23.1658)">
						</image>
					</g>
				</g>
			</g>
		</g>
	</g>
	<g>
		<g>
			<g>
				<defs>
					<path id="SVGID_16_" d="M77.2,0c-1.9,23.6-31.1,22-31.5,44.5c-0.1,3.3,1.3,7.9,5,11.6C63.5,68.8,98.2,61.4,77.2,0"/>
				</defs>
				<clipPath id="SVGID_17_">
					<use xlink:href="#SVGID_16_"  style="overflow:visible;"/>
				</clipPath>
				<path class="st8" d="M77.2,0c-1.9,23.6-31.1,22-31.5,44.5c-0.1,3.3,1.3,7.9,5,11.6C63.5,68.8,98.2,61.4,77.2,0"/>
				<g class="st9">
					<defs>
						<rect id="SVGID_18_" x="45.7" y="0" width="52.5" height="68.8"/>
					</defs>
					<clipPath id="SVGID_19_">
						<use xlink:href="#SVGID_18_"  style="overflow:visible;"/>
					</clipPath>
					<g transform="matrix(1 0 0 1 -3.814697e-06 1.164153e-10)" style="clip-path:url(#SVGID_19_);">
						
							<image style="overflow:visible;" width="186" height="244" xlink:href="63CD58BD.jpg"  transform="matrix(0.2827 0 0 0.2827 45.7164 1.766761e-03)">
						</image>
					</g>
				</g>
			</g>
		</g>
	</g>
	<g>
		<g>
			<g>
				<defs>
					<path id="SVGID_20_" d="M45.8,44.5c-0.1,3.3,1.3,7.9,5,11.6c0.4,0.4,0.8,0.8,1.3,1.1c6.3-5.2,10.5-15.9,8-33.9
						C52.8,28.5,46,33.7,45.8,44.5"/>
				</defs>
				<clipPath id="SVGID_21_">
					<use xlink:href="#SVGID_20_"  style="overflow:visible;"/>
				</clipPath>
				<path class="st10" d="M45.8,44.5c-0.1,3.3,1.3,7.9,5,11.6c0.4,0.4,0.8,0.8,1.3,1.1c6.3-5.2,10.5-15.9,8-33.9
					C52.8,28.5,46,33.7,45.8,44.5"/>
				<g class="st11">
					<defs>
						<rect id="SVGID_22_" x="45.7" y="23.3" width="16.9" height="33.9"/>
					</defs>
					<clipPath id="SVGID_23_">
						<use xlink:href="#SVGID_22_"  style="overflow:visible;"/>
					</clipPath>
					<g transform="matrix(1 0 0 1 -3.814697e-06 1.907349e-06)" style="clip-path:url(#SVGID_23_);">
						
							<image style="overflow:visible;" width="60" height="121" xlink:href="63CD58BF.jpg"  transform="matrix(0.2827 0 0 0.2827 45.7164 23.3314)">
						</image>
					</g>
				</g>
			</g>
		</g>
	</g>
	<g>
		<g>
			<path class="st12" d="M146.1,90.6c1.9-0.6,5.3-2.2,5.3-6.7c0-3.5-2.8-7-8-7h-11.2v25.3h5.2c0,0,0-21,0-21.9c0.8,0,4.1,0,4.1,0
				c3.9,0,4.5,2.4,4.5,3.8c0,2.3-1.7,3.8-4.4,3.8c-1.7,0-2.8,0.7-2.8,1.8c0,0.7,0.4,1.5,2.3,1.8c2.4,0.4,3.4,2.7,4.6,5.6
				c0,0,1.1,2.5,1.4,3.3c0.4,0.8,0.7,1.7,2.5,1.7h4.1l-1.8-3.9C150.1,94.4,148.7,92.1,146.1,90.6"/>
			<path class="st12" d="M94.8,90.6c1.9-0.6,5.3-2.2,5.3-6.7c0-3.5-2.8-7-8-7H80.8v25.3H86c0,0,0-21,0-21.9c0.8,0,4.1,0,4.1,0
				c4,0,4.5,2.4,4.5,3.8c0,2.3-1.7,3.8-4.4,3.8c-1.8,0-2.8,0.7-2.8,1.8c0,0.7,0.4,1.5,2.3,1.8c2.4,0.4,3.4,2.7,4.6,5.6
				c0,0,1.1,2.5,1.4,3.3c0.4,0.8,0.7,1.7,2.5,1.7h4.1l-1.8-3.9C98.8,94.4,97.4,92.1,94.8,90.6"/>
			<rect x="23.1" y="77" class="st12" width="5.2" height="25.3"/>
			<path class="st12" d="M63.5,90.9c0.9,0,12.2,0,12.2,0v-3.4c0,0-11.3,0-12.2,0c0-0.8,0-6.3,0-7.1c0.9,0,12.8,0,12.8,0V77h-18v25.3
				h18.3v-3.4c0,0-12.2,0-13.1,0C63.5,98,63.5,91.7,63.5,90.9"/>
			<path class="st12" d="M110.3,80.4c0.8,0,4.2,0,4.2,0c5.8,0,9.2,3.4,9.2,9.2c0,5.8-3.4,9.2-9.1,9.2c0,0-3.5,0-4.3,0
				C110.3,98.8,110.3,81.3,110.3,80.4 M115.4,77h-10.3v25.3h9.5c9.3,0,14.5-4.5,14.5-12.6C129.1,81.8,123.8,77,115.4,77z"/>
			<path class="st12" d="M167.4,98.5c-5.2,0-8.1-3.2-8.1-8.9c0-5.7,3-8.9,8.1-8.9c5.1,0,8.1,3.2,8.1,8.9
				C175.5,95.3,172.6,98.5,167.4,98.5 M167.4,76.6c-9.4,0-13.6,6.5-13.6,13c0,6.5,4.2,13,13.6,13c9.3,0,13.5-6.7,13.5-13
				C180.9,83.1,176.8,76.6,167.4,76.6z"/>
			<path class="st12" d="M39.3,80.4c0.8,0,4.2,0,4.2,0c3.1,0,4.1,1.7,4.1,3.2c0,1.8-1.3,3.6-4.1,3.6c-1.8,0-2.8,0.6-2.8,1.7
				c0,0.5,0.3,1.7,2.7,1.7l1.2,0c2.8,0,4.8,1.7,4.8,4.1c0,3.6-3.1,4-5.7,4c0,0-3.7,0-4.5,0C39.3,98.8,39.3,81.3,39.3,80.4
				 M48.7,88.5c1.8-0.8,4.4-2.4,4.4-5.8c0-2.9-2.5-5.8-8.1-5.8H34v25.3h12.3c7.9,0,8.7-5,8.7-7.1C55.1,90.7,51.1,89.1,48.7,88.5z"/>
			<path class="st12" d="M206.7,93.2c0.3-0.7,3.5-9.4,4.2-11.1c0.7,1.7,4.2,10,4.7,11.1C214.5,93.2,207.8,93.2,206.7,93.2 M213.8,77
				H208l-10.2,25.3h0h5.5c0,0,1.8-4.8,2-5.3c0.6,0,11.3,0,11.9,0c0.2,0.5,1.5,3.6,1.5,3.6c0.3,0.8,0.7,1.7,2.5,1.7h3.8L213.8,77z"/>
			<path class="st12" d="M189.3,98.8c0-0.9,0-21.9,0-21.9h-5.2v25.3h13.1l0-3.4C197.3,98.8,189.8,98.8,189.3,98.8"/>
		</g>
	</g>
</g>
</svg>
