<?xml version="1.0" encoding="utf-8"?>
<!-- Generator: Adobe Illustrator 20.0.0, SVG Export Plug-In . SVG Version: 6.00 Build 0)  -->
<svg version="1.1" id="Layer_1" xmlns="http://www.w3.org/2000/svg" xmlns:xlink="http://www.w3.org/1999/xlink" x="0px" y="0px"
	 viewBox="0 0 295.3 40.8" style="enable-background:new 0 0 295.3 40.8;" xml:space="preserve">
<style type="text/css">
	.st0{fill:none;}
</style>
<rect x="-4.7" y="-65.5" class="st0" width="300" height="187.9"/>
<g>
	<g>
		<g>
			<path d="M3.4,28.3H0V14.5h3.4V28.3z"/>
			<path d="M20.9,28.3H18l-7.6-9v9H7V14.5h3.2l7.4,8.4v-8.4h3.4V28.3z"/>
			<path d="M36.7,17h-5v11.3h-3.4V17h-5v-2.5h13.6V17H36.7z"/>
			<path d="M49.3,28.3H39V14.5h10.1V17h-6.6v2.9h6.3v2.5h-6.5v3.3h6.7v2.6H49.3z"/>
			<path d="M58.5,14.5c2.9,0,4.5,2,4.5,4c0,1.6-0.8,2.6-2.4,3.4c1.4,0.7,1.8,2.4,3.8,6.5h-3.8c-1.4-3-2-5.7-4-5.7h-1.1v5.7h-3.4
				V14.5H58.5z M55.7,20.1h1.8c0.9,0,1.8-0.4,1.8-1.6c0-1.1-0.7-1.6-2-1.6h-1.7C55.7,17,55.7,20.1,55.7,20.1z"/>
			<path d="M80.1,28.3h-2.9l-7.6-9v9h-3.4V14.5h3.2l7.4,8.4v-8.4h3.4C80.1,14.5,80.1,28.3,80.1,28.3z"/>
			<path d="M97.7,28.3H94l-1.2-2.8h-6.2l-1.1,2.8h-3.7l5.7-13.8h4L97.7,28.3z M89.6,17.8l-2,5.4h4.2L89.6,17.8z"/>
			<path d="M109.6,17h-5v11.3h-3.4V17h-5v-2.5h13.4V17z"/>
			<path d="M115.6,28.3h-3.4V14.5h3.4V28.3z"/>
			<path d="M125.8,28.4c-5.1,0-7.9-3.6-7.9-7.1c0-3.4,2.8-7.1,7.9-7.1c5.3,0,7.9,3.8,7.9,7.1C133.8,24.9,130.8,28.4,125.8,28.4z
				 M125.8,17.1c-2.6,0-4.3,1.7-4.3,4.2c0,2.5,1.7,4.2,4.3,4.2c2.6,0,4.3-1.7,4.3-4.2C130.2,18.8,128.4,17.1,125.8,17.1z"/>
			<path d="M149.7,28.3h-2.9l-7.6-9v9h-3.4V14.5h3.2l7.4,8.4v-8.4h3.4V28.3z"/>
			<path d="M167.3,28.3h-3.7l-1.2-2.8h-6.2l-1.1,2.8h-3.7l5.7-13.8h4L167.3,28.3z M159.2,17.8l-2,5.4h4.2L159.2,17.8z"/>
			<path d="M179.6,28.3h-10.5V14.5h3.4v11.3h7.1V28.3z"/>
		</g>
		<g>
			<path d="M236.1,14.5c3.2,0,4.6,2.2,4.6,4.1c0,2-1.4,4.2-4.6,4.2h-2.8v5.5h-3.4V14.5H236.1z M233.4,20.1h1.6
				c1.6,0,2.1-0.5,2.1-1.6c0-1.2-0.7-1.6-2.5-1.6h-1.2V20.1z"/>
			<path d="M255.8,28.3h-3.7l-1.2-2.8h-6.2l-1.1,2.8h-3.7l5.7-13.8h4L255.8,28.3z M247.6,17.8l-2,5.4h4.2L247.6,17.8z"/>
			<path d="M263.1,14.5c3.2,0,4.6,2.2,4.6,4.1c0,2-1.4,4.2-4.6,4.2h-2.8v5.5h-3.4V14.5H263.1z M260.4,20.1h1.6
				c1.6,0,2.1-0.5,2.1-1.6c0-1.2-0.7-1.6-2.5-1.6h-1.2L260.4,20.1L260.4,20.1z"/>
			<path d="M280.2,28.3H270V14.5h10.1V17h-6.6v2.9h6.3v2.5h-6.3v3.3h6.7V28.3z"/>
			<path d="M289.3,14.5c2.9,0,4.5,2,4.5,4c0,1.6-0.8,2.6-2.4,3.4c1.4,0.7,1.8,2.4,3.8,6.5h-3.8c-1.4-3-2-5.7-4-5.7h-1.1v5.7H283
				V14.5H289.3z M286.6,20.1h1.8c0.9,0,1.8-0.4,1.8-1.6c0-1.1-0.7-1.6-2-1.6h-1.7L286.6,20.1L286.6,20.1z"/>
		</g>
	</g>
	<g>
		<polygon points="189.9,28.3 194.2,28.3 206.1,8 203.9,4.3 		"/>
		<path d="M204,0c-11.3,0-20.4,9.1-20.4,20.4s9.1,20.4,20.4,20.4c11.3,0,20.4-9.1,20.4-20.4S215.2,0,204,0z M205.8,37.1v-22l5.4,9.2
			h-4.6v4H218L206.6,9.1l-4.7,8v20C193.5,36.2,187,29,187,20.4c0-9.4,7.5-16.9,16.9-16.9c9.4,0,16.9,7.5,16.9,16.9
			C220.9,29.1,214.3,36.2,205.8,37.1z"/>
	</g>
</g>
</svg>
