<?xml version="1.0" encoding="utf-8"?>
<!-- Generator: Adobe Illustrator 20.0.0, SVG Export Plug-In . SVG Version: 6.00 Build 0)  -->
<svg version="1.1" id="Layer_1" xmlns="http://www.w3.org/2000/svg" xmlns:xlink="http://www.w3.org/1999/xlink" x="0px" y="0px"
	 viewBox="0 0 297.5 327.9" style="enable-background:new 0 0 297.5 327.9;" xml:space="preserve">
<style type="text/css">
	.st0{fill:#002E6E;}
</style>
<g>
	<g>
		<path class="st0" d="M-2.3,319.3v-1.2c1.3,0,2.1-0.2,2.7-0.6c0.8-0.4,1.2-1.3,1.2-2.5v-21c0-1.3-0.4-2.1-1.3-2.5
			c-0.6-0.2-1.3-0.4-2.7-0.6v-1.2h25.6v8.7H22c-0.6-2.7-1.5-4.6-2.9-5.8c-1.3-1-3.9-1.5-7.5-1.5c-1.3,0-2.3,0.2-2.7,0.4
			c-0.4,0.2-0.6,0.8-0.6,1.5v10c2.5,0,4.2-0.4,5.2-1.3c1-1,1.5-2.7,2.1-5h1.2v14.6h-1.2c-0.4-2.5-1-4.2-1.9-5.2
			c-1-1-2.7-1.5-5.2-1.5V315c0,1,0.2,1.5,0.8,1.9c0.6,0.4,1.5,0.6,3.1,0.6c2.9,0,5.2-0.6,6.9-1.5c1.7-1.2,3.5-3.1,4.8-6h1.2
			l-1.7,9.1H-2.3V319.3z"/>
		<path class="st0" d="M27.4,318.3c0.8-0.2,1.3-0.4,1.7-0.6c0.4-0.4,0.6-1,0.6-1.9v-12.7c0-1-0.2-1.5-0.4-1.7
			c-0.4-0.4-1-0.6-1.9-0.8v-1.2h8.5v3.1c0.8-1,1.5-1.9,2.7-2.5c1.2-0.8,2.3-1,3.7-1c1.9,0,3.5,0.4,4.4,1.3c1,1,1.5,2.7,1.5,5v10.4
			c0,1,0.2,1.5,0.6,1.9c0.4,0.2,1,0.4,1.7,0.6v1H40.1v-1c0.8-0.2,1.3-0.4,1.5-0.6c0.4-0.2,0.4-1,0.4-1.7v-10.4c0-1-0.2-1.7-0.4-2.1
			c-0.4-1-1-1.3-2.1-1.3c-0.8,0-1.5,0.2-2.1,0.8c-0.6,0.6-1.2,1.2-1.5,1.5V316c0,1,0.2,1.5,0.4,1.7c0.4,0.2,0.8,0.4,1.5,0.6v1H27v-1
			H27.4z"/>
		<path class="st0" d="M55.1,301.9c1.7-1.9,3.7-2.9,6-2.9c1.2,0,2.3,0.2,3.1,0.8c0.6,0.4,1.3,1,2.1,1.7v-7.9c0-1.2-0.2-1.7-0.6-2.1
			c-0.4-0.2-1.3-0.4-2.7-0.4v-1h9.6V315c0,1,0.2,1.5,0.6,1.9c0.4,0.4,1,0.6,2.1,0.6v1c-2.5,0.2-4,0.4-4.8,0.6
			c-0.8,0.2-1.9,0.4-3.9,1v-2.9c-0.8,0.8-1.5,1.5-2.3,1.9c-1.2,0.6-2.3,1-3.7,1c-2.1,0-4-1-5.8-2.7c-1.5-1.7-2.5-4.2-2.5-7.3
			C52.6,306.6,53.4,303.9,55.1,301.9z M65.3,316.2c0.8-0.8,1.2-1.3,1.2-1.7v-10.6c0-0.4-0.4-1-1-1.5c-0.6-0.8-1.5-1-2.7-1
			c-1.5,0-2.7,1.2-3.3,3.3c-0.4,1.2-0.4,2.7-0.4,4.8c0,2.3,0.2,3.9,0.4,5c0.6,2.1,1.5,3.1,3.1,3.1C63.6,317.5,64.5,317,65.3,316.2z"
			/>
		<path class="st0" d="M85.4,299.4v14.6c0,1,0.2,1.5,0.4,1.9c0.4,0.8,1.2,1.2,2.3,1.2c0.8,0,1.3-0.2,2.1-0.6c0.4-0.2,1-0.6,1.5-1.2
			v-12.3c0-1-0.2-1.5-0.6-1.9c-0.4-0.4-1.2-0.6-2.3-0.6v-1.2h8.9V315c0,1,0.2,1.5,0.6,1.9c0.4,0.4,1,0.6,2.1,0.6v1
			c-2.7,0.2-4.4,0.4-5.2,0.6c-0.8,0.2-1.9,0.4-3.5,1v-2.9c-1.2,1-1.9,1.5-2.7,1.9c-1.2,0.6-2.5,1-3.9,1c-1.3,0-2.7-0.4-4-1.3
			c-1.2-1-1.9-2.5-1.9-4.8v-11c0-1-0.2-1.5-0.4-1.7c-0.4-0.2-1-0.6-1.7-0.8v-1H85.4z"/>
		<path class="st0" d="M101.9,318.3c0.8-0.2,1.5-0.4,1.7-0.6c0.4-0.4,0.6-0.8,0.6-1.7v-1.3v-11.8c0-1-0.2-1.5-0.4-1.9
			c-0.4-0.4-1-0.6-1.9-0.6v-1h8.5v3.5c1-1.2,1.9-2.1,2.9-2.9c1-0.8,1.9-1,3.3-1c1,0,1.7,0.2,2.5,0.8c0.8,0.6,1.2,1.3,1.2,2.5
			c0,0.8-0.2,1.5-0.8,2.1s-1.2,0.8-1.9,0.8c-1,0-1.7-0.4-2.5-1.3c-0.8-0.8-1.2-1.3-1.5-1.3c-0.6,0-1.2,0.4-1.7,1.2s-1,1.7-1,3.1v8.1
			c0,1.3,0.2,2.3,0.6,2.7c0.4,0.4,1.3,0.6,2.5,0.8v1h-11.9C101.9,319.3,101.9,318.3,101.9,318.3z"/>
		<path class="st0" d="M121.6,318.3c0.8-0.2,1.3-0.4,1.5-0.6c0.4-0.4,0.6-1.2,0.6-2.1v-12.7c0-1-0.2-1.5-0.4-1.7
			c-0.4-0.4-1-0.6-1.7-0.8v-1h8.5v16.4c0,1,0.2,1.5,0.4,1.7c0.4,0.2,0.8,0.4,1.5,0.6v1h-10.6v-0.8H121.6z M124.7,290.4
			c0.8-0.6,1.5-1,2.5-1c1,0,1.7,0.4,2.5,1c0.8,0.6,1,1.5,1,2.3c0,1-0.4,1.7-1,2.3c-0.8,0.6-1.5,1-2.5,1c-1,0-1.7-0.4-2.5-1
			c-0.6-0.6-1-1.3-1-2.3C123.5,291.9,123.9,291.1,124.7,290.4z"/>
		<path class="st0" d="M134.1,318.3c0.8-0.2,1.3-0.4,1.7-0.6c0.4-0.4,0.6-1,0.6-1.9v-12.7c0-1-0.2-1.5-0.4-1.7
			c-0.4-0.4-1-0.6-1.9-0.8v-1.2h8.5v3.1c0.8-1,1.5-1.9,2.7-2.5c1.2-0.8,2.3-1,3.7-1c1.9,0,3.5,0.4,4.4,1.3s1.5,2.7,1.5,5v10.4
			c0,1,0.2,1.5,0.6,1.9c0.4,0.2,1,0.4,1.7,0.6v1h-10.4v-1c0.8-0.2,1.3-0.4,1.5-0.6c0.4-0.2,0.4-1,0.4-1.7v-10.4c0-1-0.2-1.7-0.4-2.1
			c-0.4-1-1-1.3-2.1-1.3c-0.8,0-1.5,0.2-2.1,0.8c-0.6,0.6-1.2,1.2-1.5,1.5V316c0,1,0.2,1.5,0.4,1.7c0.4,0.2,0.8,0.4,1.5,0.6v1h-10.4
			V318.3z"/>
		<path class="st0" d="M159.9,322.4c0.6-0.6,1.5-1.2,2.7-1.3v-0.4c-1-0.4-1.5-0.6-1.9-1c-0.8-0.6-1-1.3-1-2.5s0.6-2.3,1.7-3.1
			s2.1-1.5,3.3-1.7v-0.4c-1.5-0.6-2.7-1.3-3.7-2.5c-1-1.2-1.3-2.5-1.3-4c0-1.9,0.8-3.7,2.5-4.8c1.5-1.3,3.9-1.9,6.6-1.9
			c1,0,1.9,0.2,2.9,0.4c1,0.2,1.5,0.4,2.1,0.6h6v2.3h-3.7c0.6,0.6,1,1.2,1.3,1.9c0.4,0.8,0.4,1.5,0.4,2.3c0,2.7-1.3,4.6-4,5.6
			c-1.3,0.6-3.1,0.8-5.2,0.8c-0.4,0-0.8,0-1,0s-0.4,0-0.6,0c-0.4,0-1,0.4-1.3,0.8c-0.6,0.4-0.8,0.8-0.8,1.3c0,0.4,0.2,0.8,0.4,1
			c0.2,0.2,0.6,0.4,1,0.4c0.2,0,0.8,0,1.3,0c0.8,0,1.3,0,1.7,0h2.9c1.7,0,3.1,0.2,4,0.8c2.1,0.8,3.3,2.3,3.3,4.6
			c0,2.9-1.5,4.8-4.8,5.8c-1.7,0.6-3.9,0.8-6.4,0.8c-2.1,0-3.9-0.2-5.4-0.6c-2.5-0.6-3.7-1.7-3.7-3.5
			C159.2,323.7,159.3,323.1,159.9,322.4z M164.5,326.2c1,0.6,2.3,0.8,4.2,0.8c1.7,0,3.1-0.2,4-0.4c1.9-0.4,3.1-1.3,3.1-2.7
			c0-0.8-0.2-1.3-0.8-1.7c-0.6-0.4-1.5-0.6-3.1-0.6h-7.3c-0.4,0.4-0.8,0.8-1,1c-0.4,0.4-0.6,1-0.6,1.5
			C163,324.9,163.6,325.6,164.5,326.2z M166.1,309.6c0.4,1.3,1.3,1.9,2.5,1.9s1.9-0.4,2.3-1.3c0.4-1,0.6-2.3,0.6-4.2
			c0-1.9-0.2-3.3-0.6-4.2c-0.4-1-1.2-1.3-2.3-1.3c-1.2,0-1.9,0.4-2.3,1.3c-0.4,1-0.6,2.3-0.6,4.2
			C165.7,307.5,165.7,308.7,166.1,309.6z"/>
		<path class="st0" d="M206.6,290.2v1c-1.5,0-2.7,0.2-3.1,0.4c-0.4,0.2-0.8,0.6-0.8,1.3c0,0.2,0,0.4,0,0.6s0.2,0.4,0.2,0.6l7.1,16
			l0,0l5.8-14.6c0.2-0.4,0.2-0.6,0.4-1c0.2-0.6,0.2-1,0.2-1.3c0-0.8-0.2-1.3-0.8-1.5c-0.6-0.2-1.5-0.4-3.1-0.4v-1h9.4v1
			c-1.2,0.2-1.9,0.4-2.5,1c-0.6,0.6-1.2,1.3-1.5,2.7l-10.2,25.4h-1.2L195,294.4c-0.4-1-1-1.7-1.3-2.3c-0.6-0.4-1.2-0.8-2.3-0.8v-1
			h15.2V290.2z"/>
		<path class="st0" d="M222.9,310.6c1.9-1.2,5-2.3,9.1-3.5V304c0-1.3-0.2-2.3-0.8-2.9c-0.6-0.6-1.5-1-2.9-1c-0.8,0-1.5,0.2-1.9,0.4
			c-0.6,0.2-0.8,0.6-0.8,1.2c0,0.2,0,0.4,0,0.4c0,0.2,0.2,0.2,0.2,0.4l0.2,0.4c0.2,0.2,0.4,0.6,0.6,0.8c0.2,0.2,0.2,0.6,0.2,1
			c0,0.8-0.2,1.3-0.8,1.9c-0.6,0.4-1.2,0.6-1.9,0.6c-0.8,0-1.5-0.2-2.1-0.8c-0.6-0.6-1-1.2-1-2.1c0-1.7,0.8-2.9,2.5-3.9
			c1.5-1,3.7-1.5,6-1.5c2.5,0,4.6,0.4,6.4,1.3c1.7,1,2.5,2.7,2.5,5.2v10.4c0,0.4,0,0.6,0.2,0.8c0.2,0.2,0.4,0.4,0.6,0.4s0.4,0,0.4,0
			c0.2,0,0.4-0.2,0.6-0.6l0.8,1c-1,1-1.9,1.7-2.9,2.1c-0.6,0.2-1.3,0.4-2.1,0.4c-1.3,0-2.3-0.4-2.9-1.2c-0.4-0.4-0.6-1-0.8-1.9
			c-1.2,1.2-2.7,2.1-4.2,2.5c-1,0.4-1.9,0.4-2.7,0.4c-1.2,0-2.3-0.4-3.5-1.2s-1.5-1.9-1.5-3.5C220,313.3,221,311.8,222.9,310.6z
			 M230.6,316.2c0.4-0.2,0.8-0.6,1.2-1.2v-6.4c-1.2,0.2-2.3,0.8-3.1,1.3c-1.5,1-2.3,2.3-2.3,3.9c0,1,0.2,1.7,0.6,2.1
			c0.4,0.6,1,0.8,1.5,0.8C229.5,316.8,230.1,316.6,230.6,316.2z"/>
		<path class="st0" d="M242,318.3c0.8-0.2,1.3-0.4,1.7-0.8c0.4-0.4,0.6-1,0.6-1.9v-22c0-1-0.2-1.5-0.4-1.7c-0.4-0.2-1-0.6-1.7-0.8
			v-1h8.5v25.6c0,1,0.2,1.5,0.4,1.9c0.4,0.4,1,0.6,1.7,0.8v1H242V318.3z"/>
		<path class="st0" d="M262.8,299.4v14.6c0,1,0.2,1.5,0.4,1.9c0.4,0.8,1.2,1.2,2.3,1.2c0.8,0,1.3-0.2,2.1-0.6c0.4-0.2,1-0.6,1.5-1.2
			v-12.3c0-1-0.2-1.5-0.6-1.9c-0.4-0.4-1.2-0.6-2.3-0.6v-1.2h8.9V315c0,1,0.2,1.5,0.6,1.9s1,0.6,2.1,0.6v1c-2.7,0.2-4.4,0.4-5.2,0.6
			c-0.8,0.2-1.9,0.4-3.5,1v-2.9c-1.2,1-1.9,1.5-2.7,1.9c-1.2,0.6-2.5,1-3.9,1c-1.3,0-2.7-0.4-4-1.3c-1.2-1-1.9-2.5-1.9-4.8v-11
			c0-1-0.2-1.5-0.4-1.7c-0.4-0.2-1-0.6-1.7-0.8v-1H262.8z"/>
		<path class="st0" d="M282.1,301.7c1.7-1.9,4-2.7,6.6-2.7c1.5,0,2.9,0.4,4.2,1.2c1.3,0.8,2.3,1.7,3.1,3.1c0.6,1,1,2.3,1.2,3.9
			c0.2,0.8,0.2,1.3,0.2,1.7h-11.4c0.2,1.7,0.4,3.3,1,4.4c1,2.3,2.5,3.7,4.6,3.7c1,0,2.1-0.4,2.9-1c0.6-0.4,1.3-1,2.1-1.9l1,0.6
			c-1.3,2.1-2.9,3.7-4.8,4.6c-1.2,0.6-2.5,0.8-4,0.8c-2.1,0-4.2-0.8-6.2-2.5c-1.9-1.7-2.9-4.4-2.9-8.1
			C279.4,306,280.3,303.5,282.1,301.7z M291.7,307.1c0-2.5-0.2-4.2-0.6-5.4c-0.4-1-1.2-1.5-2.3-1.5s-1.9,0.6-2.3,1.7
			c-0.4,1.2-0.8,2.9-0.8,5h6V307.1z"/>
	</g>
	<g>
		<polygon class="st0" points="77.6,195.6 111,195.6 68.6,270.3 9.1,270.3 		"/>
		<polygon class="st0" points="167.6,195.6 177.6,218.5 159.7,218.5 172.6,270.3 142.6,270.3 115.4,270.3 128.3,218.5 110.2,218.5 
			120.2,195.6 142.6,195.6 		"/>
		<path class="st0" d="M218.5,218.5c-1.7,0-3.1,0.6-3.1,2.1c0,0.4,0.2,0.8,0.4,1.2l12.7,16.8c1.2,2.1,3.9,3.7,6.7,3.7h24.7
			l26.6,28.3h-62.8c-0.4,0-0.8,0-1,0c-6.2,0-10.2-4.8-11.4-7.1l-33.7-59.7c0-0.4-0.2-1-0.2-1.3c0-3.5,2.7-6.6,6.6-6.6
			c0.2,0,0.4,0,0.6,0h33.5l21,22.7H218.5z"/>
		<polygon class="st0" points="147,0 0,270.3 132.2,121 		"/>
		<polygon class="st0" points="148,0 294.8,270.3 162.8,121 		"/>
	</g>
</g>
</svg>
