<?xml version="1.0" encoding="utf-8"?>
<!-- Generator: Adobe Illustrator 20.0.0, SVG Export Plug-In . SVG Version: 6.00 Build 0)  -->
<svg version="1.1" id="Camada_1" xmlns="http://www.w3.org/2000/svg" xmlns:xlink="http://www.w3.org/1999/xlink" x="0px" y="0px"
	 viewBox="0 0 300 110.2" style="enable-background:new 0 0 300 110.2;" xml:space="preserve">
<style type="text/css">
	.st0{fill:#E03F4F;}
</style>
<g>
	<g>
		<path class="st0" d="M96.6,52.1c0,0,5.1-13.6,12.8-20.4c7.2-6.9,8.2-4.8,4.4,1.4C110.2,38.9,102.1,50.4,96.6,52.1L96.6,52.1z
			 M8.1,52.3c6.5,0,10.1-5.6,12.5-8.4c1.4-1.5,5.7-7.1,7.8-8.9c2-1.7,4.3-0.8,2.3,1.8c-1.5,2.9-5.5,10.8-15.8,19.7
			C-0.9,69.2,0.4,72.7,0,76.3c0,1.2-0.3,7,6.8,7c9,0,15.2-11.7,19.4-18c0.2-1.1,16.7-31.5,18-33.2c1.3-1.8,10.3-15,10.3-16.2
			c0-0.9,0.6-3.2-3.5-3.2c-4.5,0-7.5,3.6-11.7,6.7c-4.5,2.7-7.8,4.8-16.6,9.2C8.5,35.6,1.7,40.6,1.7,46.7
			C1.7,52.9,8.1,52.3,8.1,52.3L8.1,52.3z M37.5,47.5c2,4.6-0.6,11.1-2,13.7c-1.5,2-5,8.5-5,17.8c0,9.9,5,13.2,12.4,13.2
			c8.1,0,7.7-5,7.7-5c-5.5-0.4-5.3-10.6-2-19.9C52.6,54.1,48.8,46,48.8,46C63,40.3,90.7,19.2,90.7,7.3c0-4.6-3.4-7.3-6.1-7.3
			c-3.4,0-6.5,1.3-11,7.6C49.9,40.3,40.8,41.2,40.8,41.2L37.5,47.5L37.5,47.5z M54.7,68.8c-4.8,1-6.3,1.9-6.3,5.7
			c0.4,4.5,8.6,1.4,8.6,1.4c0,2.1,2.7,5.2,9.4,5.2c9.1,0,18.4-7.7,18.4-7.7c0,2.5,5.1,7.7,10.8,7.7c9.5,0,19.5-7.7,19.5-7.7
			c0,4.7,4.6,9.3,9.3,9.3c13.5,0,12-13.9,12-13.9c-10.7,3.4-8.8-5.5-8.8-5.5c19.7-16.2,34.8-39.9,34.8-49.9c0-4.3-3.5-8.1-9.2-4.8
			c-32.2,18-38.1,52.7-38.1,52.7c-3.7,4.1-9.6,7.1-13.8,7.1c-4.1,0-4.1-4.4-4.1-4.4c17.8-13.9,31-36.5,31-44.1
			c0-4.6-3.8-7.2-9.3-4.6C90.9,26.5,84,63.2,84,63.2c-12.9,11.2-15.7,6.5-15.7,6.5c9.7-4.9,15-14.5,15-21.8c0-4.5-3.1-7.8-7.5-7.1
			C55.7,45.5,54.7,68.8,54.7,68.8L54.7,68.8z M128.7,50c0,0,5.7-14.6,13.6-22.6c6.6-7.1,8-4.7,4.3,1.5C142.9,35,133.7,48.3,128.7,50
			L128.7,50z M65.7,63.2c0,0,0.8-6.8,3.3-9.4c4.7-5.5,6.6-4.3,3.5,1.8C71.5,57.5,70.6,60,65.7,63.2L65.7,63.2z M162.6,43.5
			c-15.3,2-24.1,17.7-24.1,27.2c0,7.1,4.1,12,12.1,12c18.5,0,25-29.6,25-29.6c2.5,1.4,10.2,1.4,10.2,1.4c-5.1,4.2-9.8,10.8-9.8,15.8
			c0,5.2,3.5,8.4,8.1,8.4c4.9,0,10.4-3.8,10.4-3.8c-0.8,2.6-3.1,5.2-3.1,5.2c-27.8,6.7-31.3,20.9-31.3,23.4c0,3.4,3.5,6.1,8,6.1
			c15.2,0,31.6-24.2,31.6-24.2c11.4-2.7,15.7-13.8,15.7-14c0-1.6-1.5-2.6-3.5-0.7c-4.4,3.5-5.9,3.5-5.9,3.5
			c8.5-10.3,14.1-23.1,14.1-25.2c0-1.9-0.7-4.6-4-4.6c-5.1,0-9.7,8.4-12.3,12.7c-3.5,5.6-7.4,10.8-10.2,10.8c-2.3,0-2.7,0-2.7-3.4
			c0-4.7,10.2-12.3,14-14.2c4.2-2,4.2-2.7,4.2-4.1c0-2.8-1.3-3.4-4.2-3.4c-2.5,0-7.4,2.1-7.4,2.1c-14,6.8-24.2,0.5-24.2,0.5
			c-3.6,0.8-6.1,4.2-6.1,4.2C167,61.2,158,69.2,156,68.9c-1.6-0.2-2.8,0.8-2.8-3.7c0-9.1,10.8-14.9,11.7-15.6
			c1.3-0.7,2.1,0.7,2.4-2.6C167.3,43.2,162.6,43.5,162.6,43.5L162.6,43.5z M183.8,90.3c0,0-1.4,5.2-8.2,9.2
			c-3.2,1.6-4.7-0.6-2.3-2.7C174.8,95,179.9,90.3,183.8,90.3L183.8,90.3z M241.5,83.1c3.3-0.9,17.8-11.7,17.8-11.7
			c-0.2,4.1-0.9,13.5,10.6,13.5c18.7,0,22.9-22.4,21.4-28.4c-0.6-5,1.5-7.5,4.7-7.5c3.5,0,4.1-1.9,4.1-5.1c0-3.6-4.8-6.1-9.9-3.8
			c-11.2,4.6-41.1,29.1-41.1,29.1c8-11.4,8.9-13.6,8.9-15.4c0-2-0.6-4.3-3.6-4.3c-5.5,0-7.2,2.7-9.9,7.2c-3.2,5.7-7.2,9.9-9.4,9.9
			c-2.7,0-2.9,0-2.9-3.4c0.5-6.8,10.4-11.4,16.4-13.7c4.5-1.6,4-2.5,4-4.3c0-2.4-1.4-2.9-4.3-2.6c-8.5,0.2-31,12.1-31.7,27
			c0,5.1,3.7,8.5,8.4,8.5c5.1,0,10.1-3.8,10.1-3.8c-0.4,2.3-2.9,5.4-2.9,5.4c-26,6-28.6,19.3-28.6,23.4c0.2,4.9,1.8,6.9,6.6,6.9
			c16.7,0,31.1-26.9,31.1-26.9L241.5,83.1L241.5,83.1z M227,89.5c0,0-4.2,6.7-9.4,10.1c-3.1,1.9-5-0.4-2.2-2.7
			C216.8,95,222.8,89.5,227,89.5L227,89.5z M267.2,65.8l14.1-11.4c0,0,0.3,11-4.6,15.3c-2.1,2-4.3,3-4.4,1.3
			C271.9,69.2,271.9,65.8,267.2,65.8L267.2,65.8z M271.9,24.2c-5.5,0-8.1,4.7-7.9,7c0.5,2.5,0.5,3.8,2,4.7c1.7,0.9,1.7,4.2,0.4,4.6
			c-0.4,0.3-0.9,1.8-0.7,2.3c0,1.5,0.3,1.8,2.7,1.5c3.9,0,10.8-8.2,10.8-13.5C279.3,24.2,271.9,24.2,271.9,24.2"/>
	</g>
</g>
</svg>
