<?xml version="1.0" encoding="utf-8"?>
<!-- Generator: Adobe Illustrator 20.0.0, SVG Export Plug-In . SVG Version: 6.00 Build 0)  -->
<svg version="1.1" id="Layer_1" xmlns="http://www.w3.org/2000/svg" xmlns:xlink="http://www.w3.org/1999/xlink" x="0px" y="0px"
	 viewBox="0 0 300 56.3" style="enable-background:new 0 0 300 56.3;" xml:space="preserve">
<style type="text/css">
	.st0{fill:#21409A;}
</style>
<g>
	<g>
		<g>
			<g>
				<polygon class="st0" points="227.5,0 211.3,0 211.3,13.3 184.2,13.3 184.2,28.7 194.3,28.7 194.3,54.6 211.5,54.6 211.5,16.4 
					227.5,16.4 				"/>
				<path class="st0" d="M250.4,30.2c-5.6-2.9-10.9-2.2-10.5-5.1c0.4-3.1,7.1-0.7,12.3,2.2l4.6-11.1c-6.3-3.6-10.7-4.4-15-4.6
					c-5.3-0.3-10.9,1.8-13.9,4.4c-4.8,4.2-6,10.9-3,16.4c3.6,6.7,11.5,6.7,14.1,7.9c1.6,0.8,1.5,3-0.3,3.6
					c-4.5,1.4-13.4-4.2-13.4-4.2l-4.8,11.1c6.1,3.6,11.2,5.6,18.3,5.6C259.8,56.1,261.1,35.4,250.4,30.2z"/>
			</g>
		</g>
		<polygon class="st0" points="46,13.3 26.5,13.3 17.3,33.5 17.3,13.3 0,13.3 0,54.6 17.3,54.6 17.3,33.6 27,54.6 46.7,54.6 
			36.3,33.5 		"/>
		<path class="st0" d="M282.9,13.3v26l0,0c0,1.2-1.1,2.2-2.3,2.2s-2.2-1-2.3-2.2l0,0v-26h-17.1v26c0,11.3,7.7,17.1,19.3,17.1
			S300,50.7,300,39.2v-26C300,13.3,282.9,13.3,282.9,13.3z"/>
		<path class="st0" d="M66.5,11.6c-12.3,0-22.3,10-22.3,22.3s10,22.3,22.3,22.3s22.3-10,22.3-22.3S78.8,11.6,66.5,11.6z M66.5,40.3
			c-3.6,0-6.3-2.9-6.3-6.3c0-3.6,2.9-6.3,6.3-6.3c3.6,0,6.3,2.9,6.3,6.3C72.8,37.4,70.1,40.3,66.5,40.3z"/>
		<polygon class="st0" points="157.5,13.3 144,52 138.1,13.3 122.4,13.3 117.2,29.8 111.9,13.3 96.3,13.3 90,54.6 105.6,54.6 
			107.8,38.9 112.2,54.6 122.3,54.6 126.6,38.9 128.8,54.6 160.9,54.6 166.1,35.1 171.2,54.6 189.1,54.6 174.7,13.3 		"/>
	</g>
</g>
</svg>
