<?xml version="1.0" encoding="utf-8"?>
<!-- Generator: Adobe Illustrator 20.0.0, SVG Export Plug-In . SVG Version: 6.00 Build 0)  -->
<svg version="1.1" id="Layer_1" xmlns="http://www.w3.org/2000/svg" xmlns:xlink="http://www.w3.org/1999/xlink" x="0px" y="0px"
	 viewBox="0 0 300 154.5" style="enable-background:new 0 0 300 154.5;" xml:space="preserve">
<style type="text/css">
	.st0{fill:#2098C1;}
</style>
<path class="st0" d="M11.7,105.2V49.3h15.1v25.5l17.7-25.5h17.8L41.7,76.6l22.5,28.6h-19L26.8,80v25.2L11.7,105.2L11.7,105.2z
	 M0,154.5h70V0H0V154.5L0,154.5z M113,93.7c9.1,0,14.7-7.8,14.7-16.5c0-8.5-5.5-16.5-14.7-16.5c-9.1,0-14.7,7.8-14.7,16.5
	C98.5,86,103.7,93.7,113,93.7L113,93.7z M143,77.2c0,16.6-13.8,29.4-29.8,29.4c-16.3,0-30-12.9-30-29.4s13.6-29.4,30-29.4
	C129.3,48,143,60.7,143,77.2L143,77.2z M76.3,154.5h70V0h-70V154.5L76.3,154.5z M164.2,105.2V49.3h14.7L205.1,88l-0.9-38.7h14.7
	v55.9h-14.7L178,66.5l0.9,38.7H164.2L164.2,105.2z M153.6,154.5h70V0h-70V154.5L153.6,154.5z M250.8,105.2V49.3h34.3v12.3h-19.5v9.7
	H284v12h-18.3v9.4h19.5v12.6h-34.3V105.2z M230,154.5h70V0h-70V154.5L230,154.5z"/>
</svg>
