<?xml version="1.0" encoding="utf-8"?>
<!-- Generator: Adobe Illustrator 20.0.0, SVG Export Plug-In . SVG Version: 6.00 Build 0)  -->
<svg version="1.1" id="Layer_1" xmlns="http://www.w3.org/2000/svg" xmlns:xlink="http://www.w3.org/1999/xlink" x="0px" y="0px"
	 viewBox="0 0 307.4 127.5" style="enable-background:new 0 0 307.4 127.5;" xml:space="preserve">
<style type="text/css">
	.st0{fill:#2E3191;}
	.st1{fill:none;stroke:#2E3191;stroke-width:11.0531;stroke-miterlimit:2.6131;}
	.st2{fill:#FFFFFF;}
</style>
<g>
	<polygon class="st0" points="239.2,98.6 239.2,0 307.4,0 307.4,98.6 	"/>
	<polygon class="st0" points="167.5,98.6 167.5,0 235.3,0 235.3,98.6 	"/>
	<polygon class="st0" points="95.6,98.6 95.6,0 163.4,0 163.4,98.6 	"/>
	<polygon class="st0" points="23.5,98.6 23.5,0 91.3,0 91.3,98.6 	"/>
	<polygon class="st1" points="7.4,120.4 27.4,52.8 42.2,52.8 34.4,81.2 62.9,53.3 81.6,53.3 48.8,83.6 65.1,120.4 48.8,120.4 
		33.5,84 22.2,120.4 	"/>
	<polygon class="st2" points="7.4,120.4 27.4,52.8 42.2,52.8 34.4,81.2 62.9,53.3 81.6,53.3 48.8,83.6 65.1,120.4 48.8,120.4 
		33.5,84 22.2,120.4 	"/>
	<path class="st1" d="M133.9,58.4c-0.8-1.5-2.8-2.8-5-3.5c-2-0.8-10.2-2-10.2-2h-27l-20.3,67.5h14l8.5-26.8c0,0,6.6,0.8,16.4,0
		c9.8-0.4,14.4-3.2,19.9-8.2c5.5-4.8,5.9-10.2,6.3-16.2C137.4,63.2,135,60,133.9,58.4L133.9,58.4z M121.8,76.6
		c-2.4,3.2-3.5,5.2-7.4,5.9c-3.5,1.1-7,1.1-7,1.1H96.4l5.9-21H116c0,0,5,0.4,6.3,2C123.3,66.3,124.1,73,121.8,76.6L121.8,76.6z"/>
	<path class="st2" d="M133.9,58.4c-0.8-1.5-2.8-2.8-5-3.5c-2-0.8-10.2-2-10.2-2h-27l-20.3,67.5h14l8.5-26.8c0,0,6.6,0.8,16.4,0
		c9.8-0.4,14.4-3.2,19.9-8.2c5.5-4.8,5.9-10.2,6.3-16.2C137.4,63.2,135,60,133.9,58.4L133.9,58.4z M121.8,76.6
		c-2.4,3.2-3.5,5.2-7.4,5.9c-3.5,1.1-7,1.1-7,1.1H96.4l5.9-21H116c0,0,5,0.4,6.3,2C123.3,66.3,124.1,73,121.8,76.6L121.8,76.6z"/>
	<path class="st1" d="M128.3,119.9l20.3-66.7H170c0,0,1.5,26,1.5,29.2s0,24.9,0,24.9s10.9-22.5,14.4-28c3.5-5.2,17.2-26,17.2-26
		h21.4l-15.9,67.1h-15.9l15.2-53.7l-34,53.7H161l-3.9-53.7l-15.7,53.3h-13.1V119.9z"/>
	<path class="st2" d="M128.3,119.9l20.3-66.7H170c0,0,1.5,26,1.5,29.2s0,24.9,0,24.9s10.9-22.5,14.4-28c3.5-5.2,17.2-26,17.2-26
		h21.4l-15.9,67.1h-15.9l15.2-53.7l-34,53.7H161l-3.9-53.7l-15.7,53.3h-13.1V119.9z"/>
	<path class="st1" d="M285.2,75.3h-13.7c0,0,1.5-5.6,0.8-7.5c-0.8-2.4-2-3.2-3.5-3.9c-2-1.1-7.8-2-10.5-1.5
		c-4.3,0.4-10.2,3.5-13.3,7.8s-8.2,17.8-8.2,21.7c-0.4,4.3-1.1,9.9,2,14.3c3.1,3.9,6.6,4.8,10.9,5.6c4.3,0.4,10.9-1.1,10.9-1.1
		l4.6-15h-14.4l3.1-10.2H282L273,119c0,0-7.8,1.5-12.2,2.4c-4.3,0.4-12.9,0.8-16.8,0.4c-3.5-0.8-12.9-1.1-17.9-9.5
		c-5.5-8.7-4.6-15-4.3-18.6c0.4-3.2,5-19,9.4-25.3c5-8.2,13.7-15,22.6-15.8c9.4-1.1,13.7-0.8,19.2,1.1s10.5,6.3,11.7,9.9
		c1.1,3.2,1.1,5.6,0.8,7.1C285.6,72.3,285.2,75.3,285.2,75.3L285.2,75.3z"/>
	<path class="st2" d="M285.2,75.3h-13.7c0,0,1.5-5.6,0.8-7.5c-0.8-2.4-2-3.2-3.5-3.9c-2-1.1-7.8-2-10.5-1.5
		c-4.3,0.4-10.2,3.5-13.3,7.8s-8.2,17.8-8.2,21.7c-0.4,4.3-1.1,9.9,2,14.3c3.1,3.9,6.6,4.8,10.9,5.6c4.3,0.4,10.9-1.1,10.9-1.1
		l4.6-15h-14.4l3.1-10.2H282L273,119c0,0-7.8,1.5-12.2,2.4c-4.3,0.4-12.9,0.8-16.8,0.4c-3.5-0.8-12.9-1.1-17.9-9.5
		c-5.5-8.7-4.6-15-4.3-18.6c0.4-3.2,5-19,9.4-25.3c5-8.2,13.7-15,22.6-15.8c9.4-1.1,13.7-0.8,19.2,1.1s10.5,6.3,11.7,9.9
		c1.1,3.2,1.1,5.6,0.8,7.1C285.6,72.3,285.2,75.3,285.2,75.3L285.2,75.3z"/>
</g>
</svg>
