<?xml version="1.0" encoding="utf-8"?>
<!-- Generator: Adobe Illustrator 22.0.0, SVG Export Plug-In . SVG Version: 6.00 Build 0)  -->
<svg version="1.1" id="Layer_1" xmlns="http://www.w3.org/2000/svg" xmlns:xlink="http://www.w3.org/1999/xlink" x="0px" y="0px"
	 viewBox="0 0 297.8 118.2" style="enable-background:new 0 0 297.8 118.2;" xml:space="preserve">
<style type="text/css">
	.st0{fill:#454B52;}
	.st1{fill:#ED1C24;}
</style>
<g>
	<g>
		<path class="st0" d="M223.5,96.2c0.7-1,2.2-3.9,2.7-5.4c0.5-1.4,0.8-2.8,1-4.3c0.1-0.7,0.1-1.1,0.1-1.3c0-0.2,0-0.3-0.1-0.4
			c0-0.1-0.1-0.1-0.3-0.1l0,0c-0.3-0.2-0.5-0.2-0.6-0.2c-0.2,0-0.4,0.1-0.7,0.4l-0.1,0.1c-0.2,0.1-0.3,0.3-0.4,0.5
			c-0.1,0.2-0.1,0.5-0.1,1.1c0,1.5-0.6,3.5-1,5c-1,3.3-2.3,4.8-4.6,7.2c-0.6,0.7-1.2,1.2-1.7,1.6c-0.2,0.2-0.5,0.4-0.9,0.7
			c-0.4,0.3-0.7,0.5-0.8,0.5c-0.1,0-0.1,0-0.1-0.1l0,0v-0.1c0-0.9,0.4-1.8,0.6-2.7c0.3-1.1,0.5-2.1,0.9-3.1c0.1-0.3,0.2-0.6,0.2-0.7
			c0-0.2,0.1-0.8-0.1-0.8c-0.1,0-0.2,0-0.4,0c-0.2,0-0.4,0.1-0.6,0.1c-0.3,0-0.4,0-0.5,0.1c-0.1,0-0.5,0.6-0.9,0.9
			c-0.4,0.3-0.7,0.5-0.9,0.6c-0.7,0.5-1.1,1-1.6,1.7c-0.4,0.4-0.8,0.8-1.3,1.2c-0.5,0.5-0.9,1-1.4,1.4c-0.3,0.3-0.8,0.7-1.5,1.2
			c0.1-0.3,0.2-0.5,0.3-0.9c0.7-1.5,1.4-3,2.1-4.4c0.5-1,0.9-2,1.5-3c0.2-0.3,0.7-0.9,0.7-1.3c0-0.2,0.1-0.5,0.2-0.9
			c0.2-0.4,0.5-1.2,1-2.2c0.2-0.5,0.4-0.9,0.5-1.1c0.1-0.1,0.1-0.2,0.1-0.3c0-0.1-0.1-0.1-0.4-0.2c-0.2,0-0.3,0-0.4,0
			c-0.2,0-0.3,0.1-0.6,0.2c-1.6,1.1-1.7,2.8-2.5,4.4c-0.4,0.8-1.1,2.3-1.8,3.5c-0.3,0.5-0.5,1-0.7,1.5c-0.5,1.3-1.4,2.8-2.1,4.8
			c-0.2,0.4-0.3,0.9-0.3,1.3c0,0.3,0.1,0.7,0.2,1l0,0c0,0.1,0.1,0.2,0.2,0.2c0.1,0,0.2,0,0.4-0.1c0.2,0,0.3,0,0.4-0.1
			c0.7-0.3,1.4-1,1.9-1.6c1.5-1.6,3.3-3,4.9-4.5c0.2-0.2,0.3-0.3,0.4-0.3c0,0,0,0,0,0.1c0,0.1,0,0.2-0.1,0.4
			c-0.1,0.4-0.4,1.4-0.6,2.2c-0.3,0.9-0.6,2-0.6,3c0,0.5,0.1,0.7,0.4,0.8c1,0.3,1.9-0.1,2.8-0.5c0.1,0,0.3-0.2,0.6-0.6
			c0.7-0.9,1.5-1.6,2.4-2.3c0.4-0.3,0.6-0.5,0.9-0.7C221.2,98.9,222.9,97,223.5,96.2"/>
		<path class="st0" d="M242.5,99.3c0.1-0.2,0.3-0.4,0.4-0.7c0.1-0.3,0.2-0.7,0.4-1c0.1-0.4,0.2-0.7,0.2-1.1c0.1-0.4,0.1-0.7,0.1-0.9
			c0-0.4-0.1-0.5-0.2-0.5h0c0,0,0,0,0,0c-0.5,0.3-1,0.5-1.5,0.8c-0.4,0.4-0.8,0.7-1,1.1c-0.1,0.2-0.2,0.4-0.4,0.6
			c-0.2,0.2-1.2,1.8-1.4,2c-0.5,0.4-0.9,0.9-1.3,1.3c-0.5,0.6-1.5,1-2.2,1.2c-0.3,0.1-0.7,0-0.9,0c-0.2,0-0.6-0.2-0.4-0.5
			c0.1-0.3,1.1-1.6,1.5-2.1c0.5-0.7,0.9-1.3,1.3-1.9c0.4-0.6,0.8-1.4,1.2-2.2c0.2-0.4,0.4-0.7,0.5-0.9c0.4-0.6,0.6-1,0.6-1.3
			c0-0.1-0.1-0.2-0.2-0.2c-0.3,0-0.6,0-0.9,0.1c-0.3,0.1-0.6,0.2-0.8,0.4c-0.1,0.1-0.3,0.3-0.5,0.7c-0.2,0.4-0.4,0.9-0.7,1.7
			c0,0.1-0.1,0.3-0.3,0.7c-0.1,0.3-0.4,0.6-0.7,1.1c-0.4,0.5-0.6,0.8-0.7,1.1c-0.1,0.2-0.1,0.3-0.2,0.4c-0.1,0.1-0.2,0.2-0.3,0.4
			c-0.2,0.2-1.3,1.8-1.4,2.1c-0.3,0.8-0.5,0.9-0.5,1.5c0,0.3,0,0.5,0.2,0.7c0.2,0.3,2,0.5,2.6,0.3c0.5-0.2,1-0.2,1.5-0.4
			c0.6-0.3,1.2-0.7,1.8-1.1c0.2-0.2,0.4-0.3,0.6-0.5c0.2-0.1,1.2-1.5,1.4-1.7c0.2-0.4,0.6-1.5,0.6-1.5c0,0,0,0,0,0.1
			c0,0.1,0,0.2-0.1,0.4c-0.1,0.2-0.1,0.4-0.1,0.6c0,0.3-0.1,0.6-0.1,0.9c-0.1,0.3-0.1,0.5-0.2,0.8c-0.1,0.2-0.2,0.5-0.3,0.9
			c-0.1,0.3-0.3,0.9-0.5,1.5l-0.3,0.7c0,0.2-0.2,0.4-0.4,0.8c-0.2,0.3-0.4,0.6-0.5,0.9c-0.1,0.3-0.3,0.6-0.5,1
			c-0.6,1.4-1,2.5-1.3,3.3c-0.3,0.8-0.6,1.5-0.8,1.9c-0.2,0.4-0.4,0.8-0.6,1c-0.2,0.3-0.4,0.6-0.7,0.9c-0.6,0.8-1,1.2-1.2,1.4
			c-0.2,0.2-0.4,0.3-0.7,0.3H232c-0.1,0-0.1,0-0.2,0c-0.7,0-1.4-0.3-2.1-0.9c-0.7-0.5-1.2-1.2-1.4-2c-0.1-0.4-0.1-0.8-0.1-1.2
			c0-0.4,0-0.7,0.1-1c0.1-0.3,0.1-0.6,0.2-0.8c0-0.1,0.1-0.2,0.2-0.3c0.1-0.2,0.2-0.3,0.2-0.3c0,0,0,0-0.1,0c0,0-0.1,0-0.2,0
			c-0.3,0.1-0.5,0.2-0.6,0.3c-0.1,0.1-0.3,0.4-0.5,0.8c0,0-0.1,0.1-0.2,0.3c-0.2,0.4-0.4,0.7-0.6,1.1c-0.1,0.3-0.2,0.7-0.2,1.2
			c0,0.4,0.1,0.7,0.2,1c0.1,0.3,0.2,0.5,0.4,0.8c0.2,0.3,0.3,0.5,0.3,0.7c0,0.1,0.1,0.3,0.3,0.5c0.2,0.2,0.5,0.4,0.8,0.6
			c0.3,0.2,0.7,0.4,1,0.6c0.3,0.1,0.6,0.2,0.8,0.2c0.1,0,0.4,0,0.6,0c0.3,0,0.6,0,0.7,0c0.2,0,0.4-0.1,0.8-0.3
			c0.3-0.2,0.6-0.4,1-0.7c0.6-0.6,1.1-1.1,1.5-1.5c0.4-0.4,0.6-0.7,0.9-1c0.2-0.3,0.4-0.6,0.6-0.8c0.1-0.3,0.4-0.6,0.6-1.1
			c0.5-0.9,0.9-1.8,1.3-2.6c0.1-0.3,0.3-0.7,0.4-1c0.1-0.3,0.3-0.7,0.5-1.3c0.4-0.9,0.6-1.6,0.8-2c0.2-0.6,0.4-1,0.5-1.3
			c0.1-0.3,0.2-0.7,0.2-1c0-0.2,0.1-0.4,0.1-0.5c0.1-0.1,0.2-0.3,0.3-0.4c0.1-0.1,0.2-0.3,0.3-0.5c0.1-0.2,0.2-0.6,0.4-1
			c0.2-0.5,0.3-0.9,0.4-1.2C242.2,99.7,242.3,99.5,242.5,99.3"/>
		<path class="st0" d="M252.2,93.5c-0.2-0.1-0.5-0.2-0.8-0.2c-0.5,0-1.1,0.2-1.8,0.5c-0.2,0.1-0.5,0.3-0.8,0.5
			c-0.3,0.2-0.6,0.4-0.9,0.7c-0.3,0.3-0.6,0.5-0.8,0.8c-0.2,0.3-0.4,0.6-0.5,0.8c0,0-0.1,0.1-0.2,0.3c-0.1,0.3-0.3,0.6-0.3,0.9
			c-0.1,0.2-0.1,0.5-0.1,0.8c0,0.3,0.1,0.6,0.2,1c0.1,0.4,0.3,0.8,0.6,1.2c0.2,0.2,0.3,0.4,0.3,0.5c0.1,0.1,0.1,0.3,0.2,0.5
			c0,0.1,0.1,0.2,0.1,0.3c0.1,0.1,0.1,0.2,0.1,0.3c0,0.2-0.2,0.3-0.5,0.3c-0.2,0-0.4,0-0.7-0.1c-0.3-0.1-0.5-0.1-0.8-0.2
			c-0.3-0.1-0.5-0.1-0.8-0.2c-0.3-0.1-0.5-0.2-0.6-0.2c-0.1-0.2-0.1-0.4-0.3-0.4h-0.1l0,0c-0.2,0.1-0.4,0.2-0.5,0.3
			c-0.1,0.1-0.1,0.2-0.2,0.4c-0.3,0.1-0.6,0.2-0.7,0.4c-0.2,0.2-0.3,0.3-0.3,0.4c0,0.1,0.1,0.2,0.2,0.3c0.1,0.1,0.2,0.1,0.3,0.1
			c0.3,0.1,0.7,0.2,1.3,0.4c0.5,0.1,0.9,0.2,1.3,0.2c0.3,0,0.7,0,1.1-0.1c0.4-0.1,0.8-0.2,1.1-0.2c0.2-0.1,0.4-0.2,0.6-0.3
			c0.2-0.2,0.4-0.3,0.6-0.5c0.2-0.2,0.3-0.4,0.4-0.5c0.1-0.2,0.2-0.3,0.2-0.3c0-0.1,0-0.2-0.1-0.4c0-0.2,0-0.3,0-0.3
			c0-0.2,0-0.4-0.1-0.5c0-0.1-0.1-0.3-0.2-0.5c-0.1-0.2-0.2-0.3-0.3-0.4c0-0.1-0.1-0.2-0.1-0.2c0-0.1-0.1-0.2-0.2-0.3
			c-0.2-0.3-0.4-0.6-0.4-0.8c-0.1-0.2-0.1-0.4-0.1-0.7c0-0.4,0-0.6,0.1-0.8c0-0.2,0.1-0.3,0.2-0.4c0.1-0.1,0.1-0.2,0.2-0.4
			c0.1-0.3,0.2-0.5,0.4-0.7c0.2-0.2,0.5-0.4,0.9-0.6c0.1,0,0.3-0.1,0.4-0.2c0.2-0.1,0.4-0.2,0.5-0.2c0.2,0,0.3,0.1,0.4,0.2
			c0.1,0.1,0.1,0.2,0.1,0.4c0,0.1,0,0.2-0.1,0.3c-0.1,0.2-0.2,0.4-0.4,0.7c-0.2,0.3-0.4,0.5-0.7,0.9c-0.2,0.3-0.3,0.4-0.3,0.4
			c0.1,0.1,0.1,0.2,0.2,0.2c0,0,0.1,0,0.2-0.1c0.1,0,0.1-0.1,0.1-0.1c0.2-0.2,0.4-0.4,0.7-0.7c0.2-0.3,0.5-0.6,0.7-0.9
			c0.2-0.3,0.5-0.6,0.7-0.9c0.2-0.3,0.3-0.5,0.4-0.6c0.1-0.2,0.2-0.4,0.2-0.5C252.4,93.8,252.3,93.6,252.2,93.5"/>
		<path class="st0" d="M145.5,94.6c0.1-0.1,0.3-0.1,0.5-0.2c0.2-0.1,0.4-0.1,0.5-0.2c0.1-0.1,0.2-0.2,0.3-0.4
			c0.1-0.1,0.2-0.2,0.3-0.4c0.1-0.1,0.2-0.3,0.2-0.3c0,0,0-0.1-0.1-0.1c-0.1,0-0.2,0-0.4,0.1c-0.1,0-0.2,0.1-0.3,0.1
			c-0.1,0-0.3,0-0.6,0c-0.2,0-0.7,0-1.4,0.1c-1.1,0.1-2,0.2-2.8,0.2c-0.1,0-0.3,0-0.4,0c-0.1,0-0.1,0-0.1,0c0,0,0,0,0,0
			c0,0,0.1-0.2,0.3-0.4c0.1-0.1,0.2-0.3,0.3-0.4c0.5-0.7,0.9-1.4,1.3-2c0.4-0.6,0.8-1.3,1.4-2.1c0.7-1,1.1-1.7,1.2-1.9
			c0.2-0.4,0.4-0.7,0.4-0.9c0-0.2-0.1-0.2-0.2-0.2c-0.1,0-0.3,0.1-0.4,0.2c-0.2,0.1-0.3,0.2-0.5,0.3c-0.1,0-0.2,0.1-0.3,0.1
			c-0.1,0-0.2,0-0.2,0c-0.1,0.1-0.3,0.3-0.5,0.8c-0.2,0.5-0.4,0.8-0.6,1c-0.7,1.2-1.2,2.2-1.8,3c-0.4,0.6-0.8,1.3-1.3,2
			c0,0,0,0-0.1,0c-0.1,0-0.2,0-0.4,0.1c-0.1,0-0.2,0.1-0.3,0.1c-0.1,0-0.3,0-0.6,0c-0.2,0-0.7,0-1.4,0.1c-1.1,0.1-2,0.2-2.8,0.2
			c-0.1,0-0.3,0-0.4,0c-0.1,0-0.1,0-0.1,0c0,0,0,0,0,0c0,0,0.1-0.2,0.3-0.4c0.1-0.1,0.2-0.3,0.3-0.4c0.5-0.7,0.9-1.4,1.3-2
			c0.4-0.6,0.8-1.3,1.4-2.1c0.7-1,1.1-1.7,1.2-1.9c0.2-0.4,0.4-0.7,0.4-0.9c0-0.2-0.1-0.2-0.2-0.2c-0.1,0-0.3,0.1-0.4,0.2
			c-0.2,0.1-0.3,0.2-0.5,0.3c-0.1,0-0.2,0.1-0.4,0.1c-0.1,0-0.2,0-0.2,0c-0.1,0.1-0.3,0.3-0.5,0.8c-0.2,0.5-0.4,0.8-0.6,1
			c-0.7,1.2-1.2,2.2-1.7,3c-0.5,0.8-1.1,1.7-1.8,2.7c-0.2,0-0.5,0.1-1,0.3c-0.3,0.1-0.5,0.2-0.6,0.2h0c-0.2,0-0.4,0.1-0.5,0.2
			c-0.1,0.1-0.3,0.4-0.6,0.9c-0.1,0.2-0.1,0.4-0.1,0.6c0,0.2,0,0.4,0.1,0.8c0.2-0.3,0.4-0.6,0.7-0.9c0.3-0.2,0.5-0.3,0.6-0.3
			c0,0,0,0,0,0c0,0,0,0.1-0.1,0.1c-0.8,1.3-1.4,2.2-1.8,3c-0.4,0.7-1.1,1.8-1.3,2.2c-0.2,0.4-0.3,0.7-0.4,0.8c0,0.2-0.1,0.4-0.1,0.6
			c0,0.1,0,0.2,0,0.3c0,0.2,0,0.4,0,0.5c0,0.3,0.1,0.6,0.2,0.9c0.1,0.2,0.2,0.3,0.3,0.3c0.2,0,0.4-0.1,0.7-0.3
			c0.3,0,0.6-0.1,0.9-0.4c0.3-0.3,0.5-0.7,0.5-1.1v-0.1c0-0.1,0-0.1,0-0.1c-0.1,0.2-0.2,0.3-0.4,0.3c-0.1,0-0.2-0.1-0.2-0.2
			c0.1-0.5,0.3-0.9,0.5-1.4c0.2-0.5,0.7-1.5,1-2c0.3-0.5,0.6-1,1-1.6c0.4-0.6,0.8-1.2,1.3-1.9c1.9-0.2,3.2-0.4,4-0.5
			c0.1,0,0.1,0,0.2,0c-0.1,0.1-0.2,0.3-0.3,0.5c-0.1,0.2-0.1,0.4-0.1,0.6c0,0.2,0,0.4,0.1,0.8c0.2-0.3,0.4-0.6,0.7-0.9
			c0.3-0.2,0.5-0.3,0.6-0.3c0,0,0,0,0,0c0,0,0,0.1-0.1,0.1c-0.8,1.3-1.4,2.2-1.8,3c-0.4,0.7-1.1,1.8-1.3,2.2
			c-0.2,0.4-0.3,0.7-0.4,0.8c-0.1,0.2-0.1,0.4-0.1,0.6c0,0.1,0,0.2,0,0.3c0,0.2,0,0.4,0,0.5c0,0.3,0.1,0.6,0.2,0.9
			c0.1,0.2,0.2,0.3,0.3,0.3c0.1,0,0.4-0.1,0.7-0.3c0.3,0,0.6-0.1,0.9-0.4c0.3-0.3,0.5-0.7,0.5-1.1v-0.1c0-0.1,0-0.1,0-0.1
			c-0.1,0.2-0.2,0.3-0.4,0.3c-0.1,0-0.2-0.1-0.2-0.2c0.1-0.5,0.3-0.9,0.5-1.4c0.2-0.5,0.7-1.5,1-2c0.3-0.5,0.6-1,1-1.6
			c0.4-0.6,0.8-1.2,1.3-1.9c1.9-0.2,3.2-0.4,4-0.5C145,94.8,145.4,94.7,145.5,94.6"/>
		<path class="st0" d="M160.5,92.3L160.5,92.3c-0.1,0-0.1,0-0.1,0c-0.3,0.1-0.9,0.5-1.6,1c-0.3,0.2-0.5,0.4-0.7,0.5
			c0,0-0.1,0.1-0.1,0.1c0,0.1,0,0.1-0.1,0.2c-0.1,0.1-0.2,0.2-0.3,0.4c-0.2,0.2-0.4,0.4-0.7,0.7c-0.3,0.3-0.7,0.6-1.1,1.1
			c0,0-0.1,0.1-0.2,0.1c0,0-0.1,0-0.1,0c0,0,0,0,0,0v-0.2c0-0.1,0-0.2,0.1-0.4c0.1-0.2,0.1-0.4,0.2-0.6c0.1-0.2,0.2-0.4,0.3-0.7
			c0.1-0.3,0.2-0.5,0.3-0.6h-0.2l-0.2,0c-0.5,0-0.7,0.1-0.9,0.3c-0.3,0.3-0.5,0.6-0.7,0.8c-0.2,0.2-0.3,0.4-0.4,0.6
			c-0.1,0.2-0.2,0.4-0.2,0.5c-0.1,0.2-0.1,0.4-0.2,0.6c0,0.2-0.2,0.6-0.3,1c-0.2,0.4-0.3,0.8-0.5,1.1c-0.2,0.4-0.4,0.7-0.5,0.9
			c-0.3,0.5-0.5,0.9-0.6,1.1c-0.1,0.2-0.3,0.4-0.5,0.6c-0.1,0.1-0.3,0.4-0.4,0.7c-0.1,0.3-0.3,0.8-0.5,1.5l0,0.1h0.1
			c0.2,0,0.3,0.1,0.4,0.1c0.2,0,0.3-0.1,0.5-0.2c0.2-0.2,0.5-0.5,0.9-1.1l0.1-0.2c0.5-0.9,1.1-1.8,1.8-2.7c0.7-1,1.4-1.9,2.1-2.7
			c0.1-0.1,0.2-0.2,0.4-0.4c0.2-0.2,0.4-0.4,0.6-0.5c0.2-0.2,0.4-0.4,0.6-0.6c0.2-0.2,0.4-0.4,0.6-0.5c0.2,0.2,0.4,0.4,0.5,0.4
			c0.1,0,0.1,0,0.2-0.1c0.2-0.1,0.4-0.3,0.7-0.6c0.2-0.3,0.5-0.7,0.7-1.2c0.2-0.3,0.2-0.6,0.2-0.8c0-0.1,0-0.2-0.1-0.2
			C160.8,92.4,160.7,92.3,160.5,92.3"/>
		<path class="st0" d="M159.7,102.1c-0.1,0-0.2,0-0.4,0c-0.2,0-0.3,0.1-0.5,0.1c-0.4,0.1-0.6,0.3-0.7,0.7c-0.1,0.8-0.1,1.3-0.2,1.6
			c-0.1,0.3-0.2,0.5-0.4,0.7c-0.2,0.3-0.2,0.5-0.5,0.8c-0.1,0.1-0.2,0.2-0.3,0.4c0,0,0,0.1,0.1,0.1c0.2,0,0.4,0,0.6-0.1
			c0.2-0.1,0.9-0.4,1-0.5c0.1-0.1,0.1,0,0.2-0.1c0.1-0.2,0.3-0.3,0.5-0.5c0.1-0.2,0.2-0.4,0.3-0.8c0-0.2,0.1-0.5,0.2-0.9
			c0-0.3,0.1-0.5,0.1-0.6c0-0.1,0-0.2,0.1-0.4c0-0.2,0.1-0.4,0.1-0.5C159.9,102.1,159.9,102.1,159.7,102.1"/>
		<path class="st0" d="M117.8,95.7c-0.2-0.7-1-2-1.6-2.3c-0.3-0.2-0.5-0.3-0.6-0.4c-0.4-0.3-0.9-0.5-1.5-0.6
			c0.3-0.1,0.6-0.1,0.8-0.2c1-0.4,1.9-0.6,2.7-1.2c0.8-0.6,1.6-1.4,2.1-2.3c0.6-0.9,0.8-2,0.2-2.9c-1-1.3-2.9-2-3.7-2.2
			c-0.4-0.1-1.7-0.2-2.9-0.2c0.1-0.3,0.2-0.4,0.2-0.5c0-0.4-0.5-0.6-0.9-0.6c-0.1,0-0.5,0-0.7,0.1c-0.1,0-0.2,0.1-0.3,0.2
			c-0.1,0.1-0.3,0.3-0.4,0.4c-0.2,0.2-0.3,0.3-0.4,0.5c-0.1,0.2,0,0.4-0.1,0.5c0,0.1-0.1,0.3-0.1,0.6c0,0.1-0.1,1.1-0.8,2.5
			c-0.2,0.4-0.6,1-0.8,1.4c-0.3,0.7-0.2,0.9-0.5,1.5c-0.5,1.1-1.2,2.3-1.2,2.4c-0.1,0.3-0.6,1.3-0.8,1.4c0,0-0.4,1-0.6,1.3
			c-0.2,0.3-1,1.6-1.1,1.7c-0.3,0.7-1,1.9-1.6,3l-0.5,0.6c-0.1,0.1-0.1,0.3-0.2,0.5c0,0.2-0.3,0.4-0.4,0.5c-0.5,0.4-0.8,0.7-1,1.1
			c0,0,0,0.1-0.1,0.1c-0.1,0.2-0.2,0.4-0.3,0.8c-0.1,0.4,0.2,0.6,0.2,0.7l0,0.1c0,0.1,0,0.2,0.1,0.2c0.1,0,0.2,0.1,0.3,0l0.1,0l0,0
			c0.1,0,0.1,0,0.2,0c0,0.1,0.1,0.1,0.1,0.1c0.3,0,0.8-0.1,1-0.1c0,0,0.5-0.3,0.6-0.5c0.9-1.5,3.2-5.5,3.6-6.2
			c0.4-0.9,1.2-2.6,1.5-3.1l0.6-1c0,0,0,0,0-0.1c0.9,0.1,2,0.2,2.5,0.3c1,0.2,2.7,0.5,3.4,1.2c0.3,0.3,0.7,1,0.8,1.6
			c0.2,1,0,2.2-0.7,3.1c-0.5,0.9-1.5,1.5-2.8,2.1c-2,0.8-2.9,0.9-4.3,1.1c-0.3,0-1,0.1-1.3,0.1c-0.7,0-1.3-0.1-1.5-0.2
			c-0.3-0.1-0.3,0-0.2,0.2c0.2,0.5,1,1.5,1.5,1.4c0.1,0,0.1,0,0.2,0c0.1,0,0.1,0,0.2-0.1c0.1,0,0.2,0,0.3,0c0,0,0.1,0,0.2,0.1
			c0.1,0.1,0.1,0.1,0.2,0.1c0.7,0,1.4,0.1,3-0.3c1.3-0.3,2.8-0.9,3-1c0.4-0.2,1.4-0.8,1.5-0.8c0,0,1-0.6,1.6-1.4
			c0,0,0.4-0.4,0.5-0.6c0.1-0.2,0.6-1,0.7-1.2C118,98,118.1,96.6,117.8,95.7 M110.3,90.2c0.1-0.3,0.3-0.9,0.5-1.2
			c0.1-0.3,0.3-0.7,0.4-1c0.2-0.4,0.5-0.8,0.6-1.2c0.3-0.7,0.6-1.3,0.8-1.9c0,0,0.1,0,0.1,0c2.2,0.4,3.7,0.5,4.8,1.9
			c0.2,0.3,0.4,0.8,0.4,1.2c0,0.5-0.4,1.1-1,1.6c-0.1,0.1-0.3,0.2-0.6,0.4c-0.3,0.2-0.6,0.4-1,0.6c-0.4,0.2-0.8,0.4-1.3,0.6
			c-0.8,0.3-2.2,0.5-2.9,0.6c-0.3,0-1.1,0-1.6,0C109.8,91.3,110.1,90.8,110.3,90.2"/>
		<path class="st0" d="M120.3,100.4c0.2-0.2,0.3-0.4,0.5-0.6h0.3c0.1,0,0.2,0,0.3,0c1,0,2.2-0.2,3.1-0.5c0.9-0.4,1.7-1,2.2-1.8
			c0.8-1.3,1.2-2.3,1.2-2.9c0-0.7-0.4-1.2-1.3-1.4c-0.2,0-0.5,0.1-0.8,0.2c-0.3,0.1-0.7,0.3-1,0.6c-0.4,0.2-0.7,0.5-1.1,0.8
			c-0.4,0.3-0.8,0.7-1.2,1c-0.1,0.1-0.2,0.2-0.4,0.4c-0.3,0.3-1.1,0.9-1.5,1.4c-0.1,0.1-0.3,0.3-0.4,0.5c-0.3,0.2-0.6,0.5-0.8,0.8
			c-0.1,0.1-0.2,0.2-0.2,0.3c0,0,0,0.1,0,0.1c0,0,0,0,0,0c0,0.1-0.1,0.2-0.2,0.3c-0.1,0.2-0.3,0.4-0.5,0.7c-0.3,0.4-0.3,0.6-0.4,0.8
			c-0.2,0.3-0.3,0.6-0.4,0.9c-0.1,0.4-0.2,0.7-0.2,1.1c0,0.7,0.5,1.1,1.6,1.1c0.2,0,1.4,0,2.2-0.2c0.7-0.2,1.5-0.5,2.1-0.8
			c0.5-0.3,1.1-0.7,1.4-0.9c0.3-0.2,0.7-0.6,0.8-0.7c0.1-0.1,0.5-0.5,0.5-0.6c0.1-0.1,0.1-0.3,0.2-0.6c0,0,0-0.1,0-0.1
			c-0.1,0-0.2,0.1-0.4,0.3c-0.3,0.2-0.4,0.3-0.6,0.4c-0.1,0-0.3,0.1-0.5,0.2c-0.2,0.1-0.5,0.2-0.8,0.4c-0.5,0.3-0.8,0.4-0.9,0.5
			l-0.1,0c-0.6,0.2-1.2,0.4-1.6,0.5c-0.4,0.1-0.7,0.2-1,0.2c-0.2,0-0.4,0-0.7-0.1c-0.2-0.1-0.4-0.3-0.4-0.5c0-0.3,0.1-0.6,0.2-0.8
			C119.9,101.1,119.9,100.8,120.3,100.4 M122.6,97.5c0.2-0.2,0.5-0.6,0.7-0.7c0.3-0.4,0.8-0.7,1.2-1.1c0.4-0.3,0.7-0.5,0.9-0.6
			c0.1-0.1,0.3-0.1,0.4-0.1c0.2,0,0.4,0.1,0.4,0.4c0,0.1,0,0.3-0.2,0.5c-0.2,0.5-0.6,0.9-0.9,1.3c-0.4,0.4-0.7,0.6-1,0.7
			c-0.4,0.1-0.8,0.2-1.1,0.2c-0.3,0.1-0.5,0.1-0.6,0.1c-0.2,0-0.2,0-0.2-0.1C122.2,98.1,122.4,97.8,122.6,97.5"/>
		<path class="st0" d="M149.8,100.4c-0.3,0.2-0.5,0.3-0.6,0.4c-0.1,0-0.3,0.1-0.5,0.2c-0.2,0.1-0.5,0.2-0.8,0.4
			c-0.5,0.3-0.8,0.4-0.9,0.5l-0.1,0c-0.6,0.2-1.2,0.4-1.5,0.5c-0.4,0.1-0.7,0.2-1,0.2c-0.2,0-0.4,0-0.7-0.1
			c-0.2-0.1-0.4-0.3-0.4-0.5c0-0.3,0.1-0.6,0.2-0.8c0.1-0.2,0.2-0.5,0.5-0.9c0.2-0.2,0.3-0.4,0.5-0.6h0.3c0.1,0,0.2,0,0.3,0
			c1,0,2.2-0.2,3.1-0.5c0.9-0.4,1.7-1,2.2-1.8c0.8-1.3,1.2-2.3,1.2-2.9c0-0.7-0.4-1.2-1.3-1.4c-0.2,0-0.5,0.1-0.8,0.2
			c-0.3,0.1-0.7,0.3-1,0.6c-0.4,0.2-0.7,0.5-1.1,0.8c-0.4,0.3-0.8,0.7-1.2,1c-0.1,0.1-0.3,0.2-0.4,0.4c-0.3,0.3-1.1,0.9-1.5,1.4
			c-0.1,0.1-0.3,0.3-0.4,0.5c-0.3,0.2-0.6,0.5-0.8,0.8c-0.1,0.1-0.2,0.2-0.2,0.3c0,0,0,0.1,0,0.1c0,0,0,0,0,0c0,0.1-0.1,0.2-0.2,0.3
			c-0.1,0.2-0.3,0.4-0.5,0.7c-0.3,0.4-0.3,0.6-0.4,0.8c-0.2,0.3-0.3,0.6-0.4,0.9c-0.1,0.4-0.2,0.7-0.2,1.1c0,0.7,0.5,1.1,1.6,1.1
			c0.2,0,1.4,0,2.2-0.2c0.7-0.2,1.5-0.5,2.1-0.8c0.5-0.3,1.1-0.7,1.4-0.9c0.3-0.2,0.7-0.6,0.8-0.7c0.1-0.1,0.5-0.5,0.5-0.6
			c0.1-0.1,0.1-0.3,0.2-0.6c0,0,0-0.1,0-0.1C150.2,100.2,150,100.3,149.8,100.4 M146.4,97.5c0.2-0.2,0.5-0.6,0.7-0.7
			c0.3-0.4,0.8-0.7,1.2-1.1c0.4-0.3,0.7-0.5,0.9-0.6c0.1-0.1,0.3-0.1,0.4-0.1c0.2,0,0.4,0.1,0.4,0.4c0,0.1-0.1,0.3-0.2,0.5
			c-0.3,0.5-0.6,0.9-0.9,1.3c-0.4,0.4-0.7,0.6-1,0.7c-0.4,0.1-0.8,0.2-1.1,0.2c-0.3,0.1-0.5,0.1-0.6,0.1c-0.2,0-0.2,0-0.2-0.1
			C146,98.1,146.1,97.8,146.4,97.5"/>
		<path class="st0" d="M228.6,100.2c0.2-0.1,0.4-0.2,0.6-0.4c0.2-0.1,0.3-0.3,0.3-0.4v0.2l0,0.1c0,0.2,0,0.4-0.1,0.5l0,0
			c-0.1,0.1-0.2,0.5-0.4,1.1c-0.2,0.4-0.3,0.8-0.4,1.1c-0.1,0.3-0.2,0.6-0.3,0.7c-0.1,0.1-0.1,0.2-0.1,0.4c0,0.2,0.1,0.3,0.4,0.4
			c0.2,0,0.4,0.1,0.6,0.1c0.2,0,0.4,0,0.4-0.1c0-0.1,0.2-0.2,0.5-0.3c0.1,0,0.1,0,0.1,0c0.2-0.1,0.4-0.2,0.6-0.4
			c0.2-0.2,0.4-0.4,0.5-0.5c0.2-0.3,0.2-0.5,0.2-0.7c0-0.1,0-0.2-0.1-0.2l0,0h0c-0.1,0-0.3,0.1-0.7,0.3c-0.2,0.1-0.4,0.3-0.6,0.3
			c0-0.4,0.1-0.8,0.3-1.1c0.2-0.4,0.5-0.8,0.9-1.4c0.6-0.9,1-1.6,1.2-2.1c0.1-0.2,0.1-0.6,0.2-1.2c0-0.5,0.1-0.8,0.1-1
			c-0.2,0.1-0.4,0.1-0.5,0.1c-0.1,0-0.2,0-0.2-0.1c0-0.1-0.1-0.2-0.1-0.3v-0.1c0-0.2,0-0.4,0-0.6c0-0.8-0.2-1.3-0.5-1.5
			c-0.1-0.1-0.3-0.2-0.5-0.2c-0.3,0-0.6,0.1-1,0.2c-0.4,0.2-0.7,0.3-1.1,0.5c-0.4,0.3-0.8,0.6-1.2,1c-0.4,0.4-0.8,0.8-1.3,1.2
			c-0.4,0.4-0.8,0.8-1.1,1.1c-0.3,0.3-0.5,0.6-0.7,0.8l-3.2,4.5c-0.2,0.2-0.3,0.4-0.3,0.6c0,0.1-0.1,0.4-0.1,0.6v0
			c0,0.2,0,0.3,0.1,0.4c0.1,0.1,0.2,0.2,0.4,0.2h0.1c0,0,0.1,0,0.1,0c0.3,0,1-0.2,1.2-0.3c0.1-0.1,0.4-0.2,0.6-0.3
			c0.2-0.1,0.5-0.3,0.7-0.4c0.3-0.3,0.8-0.5,1-0.7c0.3-0.2,0.5-0.3,0.6-0.3c0.1,0,0.2-0.1,0.3-0.2c0-0.1,0.1-0.1,0.1-0.1
			c0.3-0.4,1.6-1.3,1.8-1.4C228.2,100.4,228.4,100.3,228.6,100.2 M227.5,99.7c-0.1,0.1-0.2,0.2-0.5,0.3c-0.1,0-0.2,0-0.3,0.1
			c-0.1,0.1-0.1,0.1-0.1,0.3c0,0.1-0.1,0.2-0.2,0.3c-0.1,0-0.3,0.2-0.6,0.4c-0.3,0.2-0.6,0.5-1.1,0.8c-0.3,0.2-0.6,0.3-0.8,0.5
			c-0.2,0.1-0.3,0.2-0.4,0.2c0,0-0.5,0.1-0.6,0.1c-0.1,0-0.5,0-0.5-0.1c0-0.1,0-0.1,0.1-0.2c0.1-0.1,0.2-0.3,0.4-0.6
			c0.6-1,1.3-2,2-2.9c0.7-0.9,1.5-1.8,2.3-2.5c0.9-0.9,1.6-1.4,1.9-1.4h0.1c0,0,0.1,0,0.1,0c0.3,0.2,0.5,0.4,0.5,0.6
			c0,0.1,0,0.2-0.1,0.4c0,0.1,0,0.1-0.1,0.3c-0.3,0.8-0.5,1.4-0.7,1.9c-0.2,0.5-0.5,0.9-0.9,1.2c-0.1,0-0.1,0.1-0.3,0.2
			C227.6,99.5,227.5,99.6,227.5,99.7"/>
		<path class="st0" d="M199.7,91.2c0.5-1,0.4-0.9,0.6-1.1c0.1-0.2,0.2-0.5,0.4-0.7l0.6-1c0.1-0.1,0.1-0.2,0.3-0.4
			c0.2-0.3,0.4-0.5,0.5-0.8c0.1-0.2,0.2-0.4,0.3-0.8c0.2-0.5,0.3-0.6,0.4-0.8c0.3-0.7,0.6-1.3,0.7-1.6c0.1-0.3,0.1-0.5,0.1-0.6
			c0-0.1,0-0.1,0-0.1c0,0,0,0-0.1,0c-0.1-0.1-0.2-0.1-0.3-0.1c0,0,0,0-0.1,0c-0.1,0-0.1,0-0.1,0c-0.3,0-0.6,0.1-0.9,0.2
			c-0.2,0.1-0.6,0.4-1,0.9c0,0.4-0.1,0.4-0.1,0.6c0,0.2-0.2,0.8-0.3,1c-0.1,0.2-0.2,0.4-0.3,0.8l0,0c-0.1,0.3-0.1,0.5-0.1,0.8v0.4
			c0,0.1,0,0.1,0,0.2c0,0-0.2,0.4-0.6,1c-0.3,0.6-0.6,1.1-0.9,1.7c-0.3,0.6-0.2,0.4-0.5,1c-0.4,0.6-0.7,1.1-0.9,1.5
			c-0.2,0.4-0.4,0.7-0.5,0.8l-1.9,3c-0.1,0.1-0.2,0.3-0.4,0.7c-0.2,0.3-0.4,0.8-0.6,1.3c-0.3,0.5-0.5,1-0.7,1.5
			c-0.2,0.5-0.6,1.3-1.2,2.7c0,0.1-0.1,0.2-0.1,0.3c0,0.1,0,0.2,0.1,0.4l0.1,0.1c0,0,0,0.1,0,0.1c0,0.1,0,0.2,0.1,0.3
			c0,0.1,0.1,0.1,0.2,0.1c0.2,0,0.5-0.1,0.9-0.2c0.4-0.1,0.6-0.2,0.8-0.3c0.2-0.2,0.4-0.4,0.6-0.7c0.3-0.3,0.5-0.5,0.6-0.6
			c-0.1-0.2-0.2-0.5-0.2-0.8c-0.4,0.4-0.8,0.6-1,0.6c0-0.3,0.2-0.7,0.4-1.3c0.3-0.6,0.6-1.3,1-2c0.4-0.7,0.7-1.4,1.1-1.9l1.5-2.5
			c0.1-0.2,0.4-0.6,0.7-1.2C198.8,92.8,199.2,92.1,199.7,91.2"/>
		<path class="st0" d="M193.2,93.3c0.3-0.6,0.7-1.3,1.2-2.2c0.5-1,0.4-0.9,0.6-1.1c0.1-0.2,0.2-0.5,0.4-0.7l0.6-1
			c0.1-0.1,0.1-0.2,0.3-0.4c0.2-0.3,0.4-0.5,0.5-0.8c0.1-0.2,0.3-0.4,0.3-0.8c0.1-0.5,0.3-0.6,0.4-0.8c0.3-0.7,0.6-1.3,0.7-1.6
			c0.1-0.3,0.1-0.5,0.1-0.6c0-0.1,0-0.1,0-0.1c0,0,0,0-0.1,0c-0.1-0.1-0.2-0.1-0.4-0.1c0,0,0,0-0.1,0c-0.1,0-0.1,0-0.1,0
			c-0.3,0-0.6,0.1-0.9,0.2c-0.2,0.1-0.6,0.4-1,0.9c0,0.4-0.1,0.4-0.1,0.6c0,0.2-0.3,0.8-0.3,1c-0.1,0.2-0.2,0.4-0.3,0.8l0,0
			c-0.1,0.3-0.1,0.5-0.1,0.8v0.4c0,0.1,0,0.1,0,0.2c0,0-0.2,0.4-0.6,1c-0.3,0.6-0.7,1.1-1,1.7c-0.3,0.6-0.2,0.4-0.5,1
			c-0.4,0.6-0.7,1.1-0.9,1.5c-0.2,0.4-0.4,0.7-0.5,0.8l-1.9,3c-0.1,0.1-0.2,0.3-0.4,0.7c-0.2,0.3-0.4,0.8-0.6,1.3
			c-0.2,0.5-0.5,1-0.7,1.5c-0.2,0.5-0.6,1.3-1.2,2.7c0,0.1-0.1,0.2-0.1,0.3c0,0.1,0,0.2,0.1,0.4l0.1,0.1c0,0,0,0.1,0,0.1
			c0,0.1,0,0.2,0.1,0.3c0,0.1,0.1,0.1,0.2,0.1c0.2,0,0.5-0.1,0.9-0.2c0.4-0.1,0.6-0.2,0.8-0.3c0.2-0.2,0.4-0.4,0.6-0.7
			c0.3-0.3,0.5-0.5,0.6-0.6c-0.1-0.2-0.2-0.5-0.2-0.8c-0.4,0.4-0.8,0.6-1,0.6c0-0.3,0.2-0.7,0.4-1.3c0.3-0.6,0.6-1.3,1-2
			c0.4-0.7,0.7-1.4,1.1-1.9l1.5-2.5C192.7,94.3,192.9,93.9,193.2,93.3"/>
		<path class="st0" d="M205.4,97.2C205.4,97.2,205.3,97.2,205.4,97.2c-0.1,0-0.2,0-0.2,0c-0.1,0-0.4,0-0.9,0.1
			c-0.6,0.1-1.1,0.1-1.3,0.2c-0.3,0-0.6,0-1.2,0c-1,0-1.7,0.1-2.1,0.3c-0.4,0.2-0.8,0.4-1,0.7c0,0.1-0.1,0.2-0.2,0.4
			c-0.1,0.1-0.1,0.1-0.1,0.2c0,0.1,0.1,0.1,0.2,0.2c0.1,0.1,0.2,0.1,0.4,0.1c0.2,0,0.5,0,0.9-0.1c0.4-0.1,0.9-0.2,1.6-0.3
			c0.2,0,0.4-0.1,0.5-0.1c0.4-0.1,0.8-0.1,1.1-0.2c0.3,0,0.6-0.1,1-0.1c0.3,0,0.5,0,0.6-0.1c0.1-0.1,0.2-0.1,0.2-0.2
			c0.1-0.1,0.2-0.2,0.4-0.3c0.1,0,0.2-0.1,0.2-0.3c0-0.1,0-0.2,0-0.4v-0.1C205.4,97.2,205.4,97.2,205.4,97.2"/>
		<path class="st0" d="M186.9,93.1c0.1-0.2,0.2-0.3,0.1-0.3c0,0,0-0.1-0.1-0.1c-0.1,0-0.2,0.1-0.4,0.1c-0.1,0-0.2,0.1-0.3,0.1
			c-0.1,0-0.3,0-0.6,0.1c-0.1,0-0.2,0-0.3,0c0-0.2,0-0.3,0-0.5c0-0.1,0.1-0.2,0.1-0.2c0.1-0.1,0.1-0.2,0.1-0.3
			c0-0.1,0.1-0.5,0.1-1.1c0.1-0.9,0.2-1.5,0.2-2c0.1-0.5,0.2-0.8,0.3-0.9c0.2-0.2,0.3-0.3,0.3-0.4c0-0.1,0.1-0.3,0.1-0.5
			c0-0.1,0-0.3,0-0.5V86c0-0.4,0-0.8,0-1.1c0-0.3-0.1-0.6-0.1-0.7v0c0-0.1-0.1-0.2-0.2-0.3c-0.1-0.1-0.3-0.2-0.6-0.4
			c-0.3-0.2-0.6-0.2-0.7-0.3c-0.1,0-0.3,0.1-0.5,0.3c-0.2,0.2-0.5,0.4-0.8,0.7c-0.3,0.3-0.5,0.5-0.8,0.8c-0.2,0.3-0.4,0.5-0.5,0.6
			l-0.1,0.1c-0.2,0.3-0.4,0.5-0.4,0.6c-0.1,0.1-0.2,0.4-0.4,0.7c-0.1,0.2-0.4,0.5-0.7,1c-0.3,0.4-0.7,0.9-1.3,1.5
			c0,0-0.1,0.2-0.3,0.4c-0.3,0.4-0.6,0.8-1,1.2c-0.3,0.4-0.7,0.8-1.1,1.2l-1.1,1.3c-0.6,0-1,0.1-1,0.1s-1.7-0.1-2.2,0.1
			c-0.2,0.1-0.4,0.1-0.6,0.2c-0.2,0.1-0.4,0.4-0.4,0.4s-0.2,0.4-0.1,0.6c0,0.2,1.2,0.5,1.5,0.6c0.3,0.1,0.6,0.2,0.9,0.4
			c-0.1,0.1-0.3,0.3-0.4,0.4c-0.2,0.2-0.4,0.4-0.5,0.5l-3.7,3.7c-0.1,0.1-0.2,0.2-0.3,0.4c-0.1,0.2-0.1,0.3-0.2,0.4
			c-0.1,0.1-0.2,0.1-0.3,0.1c-0.2,0-0.4,0.1-0.5,0.2c-0.1,0.1-0.3,0.4-0.6,0.8c0,0,0,0.1-0.1,0.1c-0.1,0.1-0.2,0.4-0.4,0.8
			c-0.2,0.4-0.2,0.6-0.2,0.6l0,0.1c0,0.1,0,0.1,0,0.1s0,0,0.1,0c0.1,0,0.2,0,0.3,0h0.1h0c0.1,0,0.1,0,0.2,0.1c0,0.1,0.1,0.1,0.1,0.1
			h0c0,0,0,0,0.1,0c0.1-0.1,0.4-0.2,0.7-0.4c0.5-0.2,0.7-0.4,0.8-0.5c0.3-0.5,0.6-1,1-1.5c0.4-0.5,0.8-1,1.2-1.5
			c0.1-0.1,0.2-0.3,0.4-0.5c0.2-0.2,0.4-0.4,0.6-0.6c0.2-0.2,0.4-0.4,0.6-0.6c0.2-0.2,0.3-0.3,0.5-0.5c0.1-0.1,0.3-0.3,0.7-0.7
			c0.3-0.3,0.5-0.5,0.8-0.8l0.8,0.5c0.3,0.1,0.5,0.6,0.9,0.9c0.4,0.3,0.4,0.6,0.9,1c0.2,0.2,0.4,0.3,0.5,0.4
			c0.1,0.1,0.4,0.5,0.6,0.8c0.2,0.3,0.5,0.7,0.8,1.1c0.2,0.3,0.5,0.7,0.6,0.9c0.1,0.1,0.2,0.2,0.2,0.2c0.1,0,0.1,0.1,0.2,0.2
			c0.1,0.1,0.2,0.3,0.3,0.6c0.2,0.3,0.3,0.4,0.4,0.6c0,0,0,0,0.1,0c0.1,0.1,0.3,0.2,0.4,0.2c0.1,0.1,0.1,0.1,0.2,0.1c0,0,0,0,0,0
			c0,0,0,0,0,0c0,0,0,0,0.1,0c0,0,0.1,0,0.1,0c0,0,0,0,0.1,0l0,0c0.1,0,0.2,0,0.3,0c0.1,0,0.2-0.1,0.4-0.2c0.2-0.1,0.4-0.2,0.6-0.4
			c0.2-0.1,0.4-0.3,0.6-0.4c0.2-0.1,0.3-0.3,0.4-0.4c0.1-0.2,0.2-2.3,0.3-3.2c0-0.2,0-0.3,0.1-0.5c0.1-0.7,0.2-1.7,0.3-3l0,0
			c0-0.2,0.1-0.4,0.1-0.6c0-0.3,0.1-0.9,0.1-1.5c0.1-0.1,0.3-0.1,0.5-0.2c0.2-0.1,0.4-0.1,0.5-0.2c0.1-0.1,0.2-0.2,0.3-0.4
			C186.7,93.3,186.8,93.2,186.9,93.1 M177.9,93.2c0.7-0.9,1.2-1.5,1.6-2c0.4-0.5,0.6-0.7,0.6-0.7c0.1-0.1,0.3-0.3,0.5-0.6
			c0.1-0.2,0.2-0.3,0.3-0.4c0.4-0.3,0.8-0.8,1.3-1.5c0.5-0.7,1-1.5,1.7-2.4c0.1,0.2,0.1,0.4,0.3,0.6c0.2,0.4,0.3,0.7,0.3,0.9
			c0.1,0.2,0.1,0.4,0.1,0.6c0,0.3-0.1,0.6-0.2,0.9c-0.1,0.2-0.1,0.6-0.2,1.2c0,0.5-0.1,0.8-0.1,1l-0.3,2.3c-1.2,0.1-3.1,0.2-3.7,0.2
			c-0.1,0-0.3,0-0.4,0c-0.1,0-0.1,0-0.1,0c0,0-0.9,0.1-1.3,0.1l0,0c-0.1,0-0.1,0-0.2,0h0c-0.1,0-0.2,0-0.3,0L177.9,93.2z
			 M180.8,102.1c-0.1-0.1-0.3-0.5-0.4-0.6c-0.6-0.8-1.3-1.6-2-2.3c-0.2-0.2-0.4-0.4-0.4-0.4c-0.1-0.1-0.3-0.3-0.6-0.7
			c-0.3-0.3-0.8-1.1-1.1-1.3l-0.8-0.7c0.2-0.2,0.4-0.4,0.6-0.7c0.1-0.1,0.2-0.1,0.2-0.1c0,0,0.5-0.1,0.5,0l1.6-0.1
			c1.7-0.2,4.1-0.4,5.1-0.5l-0.2,1.5c0,0.2-0.1,0.4-0.1,0.6c-0.2,0.8-0.6,2.9-0.6,3l-0.3,1.3l-0.6,1.1c-0.2,0.3-0.4,0.2-0.7,0.1
			C180.9,102.2,180.8,102.2,180.8,102.1"/>
	</g>
	<g>
		<g>
			<path class="st0" d="M18.3,71.7l-12-17.3l12-15.3h7.2L13.3,54.2l13,17.5H18.3z M0,39.1h6.3v32.6H0V39.1z"/>
			<path class="st0" d="M53.1,64.8c-1.7,5.4-6.9,7.6-12.3,7.6c-5.2,0-10.2-2-12.1-7.2C28.1,63.1,28,61,28,59V39.1h6.3v18.7
				c0,2-0.1,4.5,0.9,6.3c1.1,2.1,3.5,2.8,5.7,2.8c2.1,0,4.4-0.7,5.6-2.6c1.1-1.8,1-4.1,1-6.2v-19h6.3v20.4
				C53.8,61.3,53.7,63,53.1,64.8"/>
			<polygon class="st0" points="84.9,71.7 84.9,46.3 78,71.7 71.5,71.7 64.6,46.3 64.6,71.7 59,71.7 59,39.1 67.7,39.1 74.8,65 
				81.9,39.1 90.6,39.1 90.6,71.7 			"/>
			<polygon class="st0" points="115.1,71.7 115.1,57.3 102.2,57.3 102.2,71.7 95.9,71.7 95.9,39.1 102.2,39.1 102.2,52.1 
				115.1,52.1 115.1,39.1 121.4,39.1 121.4,71.7 			"/>
			<path class="st0" d="M140.2,43.8c-6.3,0-8.2,6.4-8.2,11.6c0,5.2,1.8,11.6,8.2,11.6c6.3,0,8.2-6.4,8.2-11.6
				C148.5,50.2,146.6,43.8,140.2,43.8 M147.6,70.4c-2.2,1.3-4.9,1.9-7.4,1.9c-2.1,0-4.6-0.5-6.5-1.5c-6-3.1-8.2-9-8.2-15.4
				c0-6.2,2-12,7.7-15.2c2.1-1.2,4.6-1.8,7-1.8c3.8,0,7.6,1.4,10.2,4.2c3.3,3.4,4.5,8.2,4.5,12.8C155,61.5,153.1,67.1,147.6,70.4"/>
			<polygon class="st0" points="179.4,44.5 179.4,71.7 173.1,71.7 173.1,44.5 164.5,44.5 164.5,39.1 188,39.1 188,44.5 			"/>
			<rect x="192.8" y="39.1" class="st0" width="6.3" height="32.6"/>
			<path class="st0" d="M218.4,45c-1.4-0.6-3.3-0.6-4.8-0.6h-3v9.4h4.1c3.3,0,6.2-0.9,6.2-4.8C220.9,47.2,220.1,45.8,218.4,45
				 M221.7,71.7l-6.6-12.5h-4.5v12.5h-6.3V39.1h8.8c2.6,0,5.4-0.1,7.9,0.8c4.1,1.5,6.3,4.9,6.3,9.2c0,4.2-2,7.3-5.8,9l7.5,13.5
				H221.7z"/>
			<polygon class="st0" points="231.7,71.7 231.7,39.1 252.3,39.1 252.3,44.5 238,44.5 238,52.1 251,52.1 251,57.5 238,57.5 
				238,66.3 252.8,66.3 252.8,71.7 			"/>
			<path class="st1" d="M245.8,20.7c0,0.7,0.1,1.5,0.4,2.2c1.3,3.2,4.5,5.1,8.6,3.4c1-0.4,28.2-11.3,28.2-11.3s-10.7,27.1-11.1,28.1
				c-1.6,3.9,0.3,7.4,3.5,8.6c0.7,0.3,1.4,0.4,2.2,0.4c2.6,0,4.9-1.5,6-4.6c0.2-0.5,13.6-37.2,13.9-38.1c0.2-0.5,0.5-1.8,0.5-2.6
				c0-1.8-0.7-3.5-2-4.8c-1.3-1.3-3-1.9-4.8-1.9c-0.9,0-1.6,0.2-2.7,0.5c-0.6,0.2-35.1,13-38.1,14.2
				C247.4,15.7,245.7,18.1,245.8,20.7"/>
		</g>
	</g>
</g>
</svg>
