<?xml version="1.0" encoding="utf-8"?>
<!-- Generator: Adobe Illustrator 20.0.0, SVG Export Plug-In . SVG Version: 6.00 Build 0)  -->
<svg version="1.1" id="Camada_1" xmlns="http://www.w3.org/2000/svg" xmlns:xlink="http://www.w3.org/1999/xlink" x="0px" y="0px"
	 viewBox="0 0 300 155.7" style="enable-background:new 0 0 300 155.7;" xml:space="preserve">
<style type="text/css">
	.st0{fill:#005CB9;}
</style>
<path class="st0" d="M229.2,148.4H71.1l-60.7-70L71.1,7.9h158.1l60.5,70.7L229.2,148.4z M233,0H67.2L0,78.1l67.3,77.6H233l67-77.4
	L233,0z M202.9,59.8c4.4,3.3,5.5,6.4,5.5,15.2v29.8h-9.7l0-29.4c0-2.6,0.1-5-1.1-6.8c-1.1-1.7-3.4-2.4-5-2.3
	c-3.6,0.2-5.6,2.7-5.6,5.1v33.5h-9.7V40.6h9.7v19.7c2.1-1.7,5-2.7,8.2-2.7C198.1,57.5,201.1,58.4,202.9,59.8 M123.6,90.4
	c0-0.5,0.2-2.3,0.2-8.6c0-6.3-0.2-8.9-0.2-9c0-3.5-1.9-7-5.9-7c-4,0-5.8,3.5-5.9,7.1c0,0-0.2,2.6-0.2,8.9c0,6.3,0.2,8.4,0.2,8.4
	c0.2,3.4,1.8,7.3,5.9,7.3C121.7,97.5,123.2,93.9,123.6,90.4 M117.7,57.6c6.4,0,14.2,3,15.5,16.7c0.1,1.3,0.3,5.9,0.3,7.6
	c0,3.7-0.2,6.8-0.3,7.6c-0.6,10-6.4,16.4-15.6,16.4c-9.1,0-15-6.3-15.6-16.4c0-0.8-0.3-3.8-0.2-7.6c0-5.1,0.2-6.7,0.3-7.6
	C103.1,63.3,108.6,57.6,117.7,57.6 M236.9,76c0-0.9-0.1-1.8-0.2-3.2c-0.2-2.5-1.3-7.1-5.9-7.1c-3.9,0-5.7,3.2-5.9,7.1
	c0,0.6,0,1.1-0.1,3.2H236.9z M246.3,78.9c0.1,1.9,0,5.2,0,5.2h-21.7c0,3.9,0.2,5.1,0.2,6.1c0.3,3.6,1.8,7.3,5.8,7.3
	c4.7,0,5.6-4.8,5.9-7.1c0.1-0.9,0.1-1.6,0.1-1.6h9.3c-0.6,10.6-6.5,16.9-15.3,16.9c-8.8,0-14.7-6.4-15.3-16.4c0-0.7-0.3-3.8-0.3-7.6
	c0-5.2,0.2-6.6,0.3-7.6c1.1-10.9,6.6-16.6,15.3-16.6c4.6,0,8.4,1.8,11.1,5.1c2.4,2.9,3.9,7.4,4.2,11.5
	C246.3,76.9,246.3,78.2,246.3,78.9 M85.5,59.7c0-0.3,0-0.6,0-1.5c0-0.7,0-1.1-0.1-1.5c-0.1-4.7-2.8-7.4-7.8-7.4H73v18.1h5.1
	C84,67.4,85.2,62.5,85.5,59.7 M95.1,85c0,0,1,15.7,1,15.7c0.1,2.2,0.5,4,0.5,4H87c0,0-0.4-1.8-0.5-3.9l-1-14.9
	c-0.5-7.6-4-10.3-7.1-10.3H73l0,29.1h-9.6V41.1l14.9,0c9.1,0.1,16.8,4.5,16.9,16.9c0,8.2-3.4,12.1-6,13.7C92.8,73.8,94.6,78,95.1,85
	 M155.6,65.8c4.1,0,5.8,3.5,5.9,7c0,0,0.1,0.9,0.2,2.7h9.6c0-0.6-0.1-1.2-0.1-1.5c-1.1-13.3-9.2-16.5-15.6-16.5
	c-9,0-14.6,5.8-15.6,16.6c-0.1,0.9-0.2,2.5-0.3,7.6c0,3.7,0.2,6.8,0.2,7.6c0.6,10.1,6.5,16.4,15.6,16.4c9.5,0,14.7-5.7,15.6-16.4
	c0-0.4,0.1-0.7,0.1-0.9h-9.6c0,0.7-0.1,1.3-0.1,1.8c-0.3,3.6-1.5,7.3-5.9,7.3c-4.1,0-5.7-4.1-5.9-7.1c-0.2-1.8-0.1-3.3-0.2-8.6
	c0-6.3,0.2-7.9,0.2-8.9C150.1,68.9,151.6,65.8,155.6,65.8"/>
</svg>
