<?xml version="1.0" encoding="utf-8"?>
<!-- Generator: Adobe Illustrator 20.0.0, SVG Export Plug-In . SVG Version: 6.00 Build 0)  -->
<svg version="1.1" id="Layer_1" xmlns="http://www.w3.org/2000/svg" xmlns:xlink="http://www.w3.org/1999/xlink" x="0px" y="0px"
	 viewBox="0 0 300 182.9" style="enable-background:new 0 0 300 182.9;" xml:space="preserve">
<style type="text/css">
	.st0{fill:#574945;}
	.st1{fill:#806E66;}
</style>
<g id="Logotype">
	<path class="st0" d="M0,142.8h6.5v24h11.7v6.1H0V142.8z M31.3,150.8c3.3,0,5.8,1.4,6.5,3.3v-3h6.4v21.7h-6.4V170
		c-0.6,1.8-3.2,3.2-6.5,3.2c-6.4,0-10.8-4.7-10.8-11.2C20.5,155.7,25.1,150.8,31.3,150.8z M32.5,167.5c3.2,0,5.6-2.3,5.6-5.5
		c0-3.2-2.4-5.5-5.6-5.5c-3.2,0-5.5,2.3-5.5,5.5C27,165.1,29.3,167.5,32.5,167.5z M51,156.6h-3.2v-5.5H51v-1.4
		c0-3.6,0.9-5.5,2.6-6.7c1.8-1.5,4.1-1.7,6.1-1.7c0.9,0,2.3,0.2,2.7,0.3v5.2c-0.6-0.2-1.5-0.2-2.1-0.2c-2,0-3,0.8-3,2.6v2h4.6v5.3
		h-4.6V173H51V156.6z M74.4,150.8c3.3,0,5.8,1.4,6.5,3.3v-3h6.4v21.7H81V170c-0.6,1.8-3.2,3.2-6.5,3.2c-6.4,0-10.8-4.7-10.8-11.2
		C63.6,155.7,68.4,150.8,74.4,150.8z M75.6,167.5c3.2,0,5.6-2.3,5.6-5.5c0-3.2-2.4-5.5-5.6-5.5s-5.5,2.3-5.5,5.5
		C70.2,165.1,72.5,167.5,75.6,167.5z M92.5,151.1h6.4v3c0.9-2.1,2.9-3.5,5.9-3.5c0.6,0,1.2,0.2,1.7,0.2v6.1
		c-0.6-0.2-1.4-0.2-2.1-0.2c-3.6,0-5.5,2.1-5.5,5.6V173h-6.4V151.1z M118.8,150.8c3.3,0,5.8,1.4,6.5,3.3v-3h6.4v18.1
		c0,4.6-0.8,8.7-4.1,11.2c-2,1.5-4.9,2.4-7.9,2.4c-4.1,0-7.6-0.9-10.6-3l3-4.7c2,1.2,4.1,2.1,6.7,2.1c1.8,0,3.3-0.5,4.4-1.1
		c2-1.2,2.3-3.8,2.3-5.5v-0.5c-0.9,1.5-3.5,2.6-6.7,2.6c-6.4,0-10.8-4.6-10.8-10.9C107.8,155.7,112.6,150.8,118.8,150.8z M120,167.4
		c3.2,0,5.6-2.3,5.6-5.3c0-3.2-2.4-5.5-5.6-5.5s-5.5,2.3-5.5,5.5C114.4,165.1,116.8,167.4,120,167.4z M163.3,142.8h6.5v11.5h12
		v-11.5h6.7v30.1h-6.7v-12.5h-12v12.5h-6.5V142.8z M204.5,150.5c6.8,0,12.2,5,12.2,11.5s-5.2,11.5-12.2,11.5s-12-4.9-12-11.5
		C192.5,155.5,197.6,150.5,204.5,150.5z M204.5,167.7c3.3,0,5.6-2.4,5.6-5.6c0-3.3-2.4-5.6-5.6-5.6c-3.2,0-5.6,2.4-5.6,5.6
		C198.8,165.3,201.3,167.7,204.5,167.7z M220.4,142h6.5v30.8h-6.5V142z M242.9,150.5c3.2,0,6.2,1.1,9.1,3.9l-4.1,3.9
		c-1.4-1.4-2.7-2.3-5-2.3c-3.2,0-5.6,2.4-5.6,5.6c0,3.3,2.4,5.6,5.6,5.6c2.3,0,3.6-0.8,5-2.3l4.1,3.9c-2.7,3-5.8,4.1-9.1,4.1
		c-7.1,0-12-4.7-12-11.5C230.9,155.4,236.1,150.5,242.9,150.5z M255.2,144.5c0-2.1,1.7-3.6,3.6-3.6c2.1,0,3.6,1.7,3.6,3.6
		c0,2-1.7,3.6-3.6,3.6C256.9,148.1,255.2,146.6,255.2,144.5z M255.6,151.1h6.4v21.7h-6.4V151.1z M267.2,151.1h6.4v2.7
		c0.9-1.8,2.9-3.2,5.6-3.2c3,0,4.9,1.2,5.9,3.5c1.4-2.6,4.1-3.5,7.1-3.5c5,0,7.7,3.5,7.7,9.1V173h-6.4v-12.5c0-2.6-1.1-4.1-3.2-4.1
		s-3.6,1.8-3.6,4.3V173h-6.4v-12.5c0-2.6-1.1-4.1-3.2-4.1c-2.1,0-3.6,1.8-3.6,4.3V173h-6.4V151.1z M147.3,173.5
		c3.3,0,6.7-0.9,9.4-3.8l-3.6-3.6c-1.5,1.4-3.3,2.1-5.5,2.1c-3.3,0-5.5-1.7-5.6-4.1h15.8c0.2-0.9,0.2-2.1,0.2-2.1
		c0-6.7-4.4-11.4-10.6-11.4c-7,0-11.7,4.7-11.7,11.4C135.5,168.9,140.2,173.5,147.3,173.5z M147.2,155.7c2.6,0,4.6,1.8,4.6,4.1h-9.6
		C142.2,157.4,144.3,155.7,147.2,155.7z"/>
	<g>
		<polygon class="st1" points="175.7,0 175.7,42.1 133.1,42.1 133.1,72.5 175.7,72.5 175.7,120.5 210.2,120.5 210.2,0 		"/>
		<polygon class="st0" points="124.4,89.9 124.4,0 89.9,0 89.9,120.5 158.3,120.5 158.3,89.9 		"/>
	</g>
</g>
</svg>
