<?xml version="1.0" encoding="utf-8"?>
<!-- Generator: Adobe Illustrator 21.0.2, SVG Export Plug-In . SVG Version: 6.00 Build 0)  -->
<svg version="1.1" id="Layer_1" xmlns="http://www.w3.org/2000/svg" xmlns:xlink="http://www.w3.org/1999/xlink" x="0px" y="0px"
	 viewBox="0 0 300 139.9" style="enable-background:new 0 0 300 139.9;" xml:space="preserve">
<style type="text/css">
	.st0{fill:#004D71;}
	.st1{fill:#4E9D2D;}
</style>
<g>
	<path class="st0" d="M27.9,86.8c0,7.2,0.6,9.8,3.7,11.1c3.1,1.2,8.4,1.5,15.8,1.5c15.5,0,23.7-1.9,26.6-21.3h4.4l-1.8,26.5H0v-4.3
		c13-0.9,13.3-1.2,13.3-9.5V16C13.3,7.7,13,7.4,0,6.5V2.2h42.1v4.3C28.4,7.4,27.9,7.7,27.9,16V86.8L27.9,86.8z"/>
	<path class="st0" d="M129.8,2.2c17.7,0.1,30.9,3.8,40.5,12.9c9,8.7,13.3,21.6,13.3,36.5c0,22.2-8.3,35.9-19.2,43.5
		c-10.9,7.5-24.4,9.5-37.6,9.5H80.7v-4.3c13-0.9,13.3-1.2,13.3-9.5V16c0-8.3-0.3-8.6-13.3-9.5V2.2H129.8L129.8,2.2z M108.7,86
		c0,11.7,2.5,13.3,15.4,13.3c24.8,0,43-9.9,43-47.2c0-25-9.5-44.2-41.2-44.8c-15.8,0-17.1,0.7-17.1,8.4V86L108.7,86z"/>
	<path class="st0" d="M274.6,28.8h-4.4c-2.8-17.4-13.3-23.7-28.4-23.7c-27.5-0.1-37.1,24.2-37.1,48.5c0,17.9,6.4,47.9,36.8,47.9
		c19.4,0,26.9-11.2,31-26.6h4.4l-2.1,24.7c-7.1,3.8-20.7,7.1-32.5,7.1c-16.6,0-31-3.4-40.2-12.6c-8.9-8.9-14-22.8-14-40.1
		c0-16.7,5-29.4,13.5-38.9C210.4,5.3,225,0,243.2,0c13.5,0,24.7,2.7,31.3,5.8V28.8L274.6,28.8z"/>
	<path class="st1" d="M290.7,106c5.1,0,9.3-4.2,9.3-9.3c0-5.1-4.2-9.3-9.3-9.3c-5.1,0-9.3,4.2-9.3,9.3
		C281.4,101.8,285.5,106,290.7,106"/>
	<polygon class="st1" points="5.4,132.9 12.6,132.9 12.6,135.1 2.7,135.1 2.7,119.4 5.4,119.4 5.4,132.9 	"/>
	<path class="st1" d="M15.3,129.4c0,1.2,0.2,2.1,0.7,2.8c0.5,0.7,1.2,1,2.1,1c0.9,0,1.6-0.3,2.1-1c0.5-0.7,0.7-1.7,0.7-3
		c0-1.2-0.3-2.1-0.8-2.8c-0.5-0.7-1.2-1-2.1-1c-0.9,0-1.5,0.3-2,1C15.6,127,15.3,128,15.3,129.4L15.3,129.4z M12.7,129.2
		c0-1.1,0.2-2.2,0.7-3.1c0.5-0.9,1.1-1.6,1.9-2.1c0.8-0.5,1.8-0.7,2.8-0.7c1.6,0,2.9,0.5,3.8,1.5c1,1,1.5,2.4,1.6,4l0,0.6
		c0,1.2-0.2,2.2-0.7,3.1c-0.4,0.9-1.1,1.6-1.9,2.1c-0.8,0.5-1.8,0.7-2.9,0.7c-1.7,0-3-0.5-4-1.6c-1-1.1-1.5-2.6-1.5-4.4V129.2
		L12.7,129.2z"/>
	<path class="st1" d="M32.3,134c-0.8,0.9-1.9,1.4-3.3,1.4c-1.3,0-2.2-0.4-2.9-1.1c-0.7-0.7-1-1.8-1-3.2v-7.6h2.6v7.5
		c0,1.5,0.6,2.2,1.8,2.2c1.3,0,2.1-0.5,2.6-1.4v-8.4h2.6v11.7h-2.5L32.3,134L32.3,134z"/>
	<path class="st1" d="M39.9,135.1h-2.6v-11.7h2.6V135.1L39.9,135.1z M37.2,120.4c0-0.4,0.1-0.7,0.4-1c0.3-0.3,0.6-0.4,1.1-0.4
		c0.5,0,0.8,0.1,1.1,0.4c0.3,0.3,0.4,0.6,0.4,1c0,0.4-0.1,0.7-0.4,1c-0.3,0.3-0.6,0.4-1.1,0.4c-0.5,0-0.8-0.1-1.1-0.4
		C37.3,121.1,37.2,120.8,37.2,120.4L37.2,120.4z"/>
	<path class="st1" d="M49,132c0-0.5-0.2-0.8-0.6-1.1c-0.4-0.2-1-0.5-1.9-0.6c-0.9-0.2-1.6-0.4-2.2-0.7c-1.3-0.6-2-1.6-2-2.8
		c0-1,0.4-1.9,1.3-2.5c0.9-0.7,1.9-1,3.2-1c1.4,0,2.5,0.3,3.4,1c0.9,0.7,1.3,1.6,1.3,2.7h-2.6c0-0.5-0.2-0.9-0.6-1.3
		c-0.4-0.3-0.9-0.5-1.5-0.5c-0.6,0-1,0.1-1.4,0.4c-0.4,0.3-0.5,0.6-0.5,1.1c0,0.4,0.2,0.7,0.5,0.9c0.3,0.2,1,0.4,2.1,0.7
		c1,0.2,1.8,0.5,2.4,0.8c0.6,0.3,1,0.7,1.3,1.1c0.3,0.4,0.4,1,0.4,1.6c0,1.1-0.4,1.9-1.3,2.6c-0.9,0.7-2,1-3.4,1
		c-1,0-1.8-0.2-2.6-0.5c-0.7-0.3-1.3-0.8-1.8-1.4c-0.4-0.6-0.6-1.3-0.6-2h2.6c0,0.6,0.3,1.1,0.7,1.4c0.4,0.3,1,0.5,1.7,0.5
		c0.7,0,1.2-0.1,1.6-0.4C48.9,132.7,49,132.4,49,132L49,132z"/>
	<path class="st1" d="M61.4,121.6v11.3h1.8c1.4,0,2.5-0.4,3.3-1.3c0.8-0.9,1.2-2.2,1.2-3.9v-0.9c0-1.7-0.4-3-1.1-3.9
		c-0.7-0.9-1.8-1.3-3.2-1.3H61.4L61.4,121.6z M58.7,135.1v-15.7h4.6c1.4,0,2.6,0.3,3.7,0.9c1.1,0.6,1.9,1.5,2.5,2.6
		c0.6,1.1,0.9,2.4,0.9,3.9v0.8c0,1.5-0.3,2.8-0.9,3.9c-0.6,1.1-1.4,2-2.5,2.6c-1.1,0.6-2.4,0.9-3.8,0.9H58.7L58.7,135.1z"/>
	<path class="st1" d="M78.7,125.8c-0.3-0.1-0.7-0.1-1.1-0.1c-1.2,0-2,0.5-2.4,1.4v8h-2.6v-11.7h2.5l0.1,1.3c0.6-1,1.5-1.5,2.6-1.5
		c0.4,0,0.7,0,0.9,0.2L78.7,125.8L78.7,125.8z"/>
	<path class="st1" d="M84.7,125.3c-0.7,0-1.3,0.3-1.7,0.8c-0.4,0.5-0.7,1.2-0.8,2.1h5V128c-0.1-0.9-0.3-1.5-0.7-2
		C86,125.6,85.4,125.3,84.7,125.3L84.7,125.3z M85,135.4c-1.7,0-3-0.5-4-1.6c-1-1-1.6-2.4-1.6-4.2v-0.3c0-1.2,0.2-2.2,0.7-3.1
		c0.5-0.9,1.1-1.6,1.9-2.1c0.8-0.5,1.7-0.8,2.7-0.8c1.6,0,2.8,0.5,3.7,1.5c0.9,1,1.3,2.5,1.3,4.3v1.1H82c0.1,1,0.4,1.7,1,2.3
		c0.6,0.6,1.3,0.8,2.1,0.8c1.2,0,2.2-0.5,2.9-1.5l1.4,1.4c-0.5,0.7-1.1,1.2-1.9,1.6C86.8,135.2,86,135.4,85,135.4L85,135.4z"/>
	<path class="st1" d="M95.7,131.4l2.4-7.9h2.8l-4.6,13.5c-0.7,2-1.9,3-3.6,3c-0.4,0-0.8-0.1-1.3-0.2v-2l0.5,0c0.7,0,1.2-0.1,1.5-0.4
		c0.3-0.2,0.6-0.6,0.8-1.2l0.4-1l-4.1-11.6h2.8L95.7,131.4L95.7,131.4z"/>
	<path class="st1" d="M103.8,135.1v-9.8H102v-1.9h1.8v-1.1c0-1.3,0.4-2.3,1.1-3c0.7-0.7,1.7-1.1,3-1.1c0.5,0,1,0.1,1.5,0.2l-0.1,2.1
		c-0.3-0.1-0.6-0.1-1-0.1c-1.3,0-1.9,0.6-1.9,1.9v1h2.4v1.9h-2.4v9.8H103.8L103.8,135.1z"/>
	<path class="st1" d="M117.8,134c-0.8,0.9-1.9,1.4-3.3,1.4c-1.3,0-2.2-0.4-2.9-1.1c-0.7-0.7-1-1.8-1-3.2v-7.6h2.6v7.5
		c0,1.5,0.6,2.2,1.8,2.2c1.3,0,2.1-0.5,2.6-1.4v-8.4h2.6v11.7h-2.5L117.8,134L117.8,134z"/>
	<path class="st1" d="M129.5,132c0-0.5-0.2-0.8-0.6-1.1c-0.4-0.2-1-0.5-1.9-0.6c-0.9-0.2-1.6-0.4-2.2-0.7c-1.3-0.6-2-1.6-2-2.8
		c0-1,0.4-1.9,1.3-2.5c0.8-0.7,1.9-1,3.2-1c1.4,0,2.5,0.3,3.4,1c0.9,0.7,1.3,1.6,1.3,2.7h-2.6c0-0.5-0.2-0.9-0.6-1.3
		c-0.4-0.3-0.9-0.5-1.5-0.5c-0.6,0-1,0.1-1.4,0.4c-0.4,0.3-0.5,0.6-0.5,1.1c0,0.4,0.2,0.7,0.5,0.9c0.3,0.2,1,0.4,2.1,0.7
		c1,0.2,1.8,0.5,2.4,0.8c0.6,0.3,1,0.7,1.3,1.1c0.3,0.4,0.4,1,0.4,1.6c0,1.1-0.4,1.9-1.3,2.6c-0.9,0.7-2,1-3.4,1
		c-1,0-1.8-0.2-2.6-0.5c-0.7-0.3-1.3-0.8-1.8-1.4c-0.4-0.6-0.6-1.3-0.6-2h2.6c0,0.6,0.3,1.1,0.7,1.4c0.4,0.3,1,0.5,1.7,0.5
		c0.7,0,1.2-0.1,1.6-0.4C129.3,132.7,129.5,132.4,129.5,132L129.5,132z"/>
	<path class="st1" d="M151.4,130c-0.2,1.7-0.8,3-1.9,3.9c-1.1,0.9-2.5,1.4-4.3,1.4c-1.3,0-2.4-0.3-3.3-0.9c-1-0.6-1.7-1.4-2.2-2.5
		c-0.5-1.1-0.8-2.4-0.8-3.8v-1.5c0-1.5,0.3-2.8,0.8-3.9c0.5-1.1,1.3-2,2.3-2.6c1-0.6,2.1-0.9,3.4-0.9c1.7,0,3.1,0.5,4.2,1.4
		c1.1,0.9,1.7,2.3,1.8,4h-2.7c-0.1-1.1-0.5-1.9-1-2.4c-0.5-0.5-1.3-0.8-2.3-0.8c-1.2,0-2.1,0.4-2.7,1.3c-0.6,0.9-1,2.1-1,3.8v1.4
		c0,1.7,0.3,3,0.9,3.9c0.6,0.9,1.5,1.3,2.7,1.3c1.1,0,1.9-0.2,2.4-0.7c0.5-0.5,0.9-1.3,1-2.4H151.4L151.4,130z"/>
	<path class="st1" d="M155.3,129.4c0,1.2,0.2,2.1,0.7,2.8c0.5,0.7,1.2,1,2.1,1c0.9,0,1.6-0.3,2.1-1c0.5-0.7,0.7-1.7,0.7-3
		c0-1.2-0.3-2.1-0.8-2.8c-0.5-0.7-1.2-1-2.1-1c-0.9,0-1.5,0.3-2,1C155.6,127,155.3,128,155.3,129.4L155.3,129.4z M152.7,129.2
		c0-1.1,0.2-2.2,0.7-3.1c0.5-0.9,1.1-1.6,1.9-2.1c0.8-0.5,1.8-0.7,2.8-0.7c1.6,0,2.9,0.5,3.8,1.5c1,1,1.5,2.4,1.6,4l0,0.6
		c0,1.2-0.2,2.2-0.7,3.1c-0.4,0.9-1.1,1.6-1.9,2.1c-0.8,0.5-1.8,0.7-2.9,0.7c-1.7,0-3-0.5-4-1.6c-1-1.1-1.5-2.6-1.5-4.4V129.2
		L152.7,129.2z"/>
	<path class="st1" d="M167.6,123.4l0.1,1.2c0.8-1,1.9-1.4,3.4-1.4c1.6,0,2.6,0.6,3.2,1.8c0.8-1.2,2-1.8,3.6-1.8
		c1.3,0,2.3,0.4,2.9,1.1c0.6,0.7,1,1.8,1,3.2v7.7h-2.6v-7.6c0-0.7-0.2-1.3-0.5-1.6c-0.3-0.3-0.9-0.5-1.6-0.5c-0.6,0-1.1,0.2-1.5,0.5
		c-0.4,0.3-0.6,0.7-0.8,1.3l0,8h-2.6v-7.7c0-1.4-0.7-2.1-2.1-2.1c-1.1,0-1.8,0.4-2.2,1.3v8.5h-2.6v-11.7H167.6L167.6,123.4z"/>
	<path class="st1" d="M191.6,129.2c0-1.2-0.2-2.1-0.7-2.8c-0.5-0.7-1.1-1-2-1c-1.1,0-1.8,0.4-2.3,1.3v5.2c0.5,0.9,1.3,1.4,2.3,1.4
		c0.8,0,1.5-0.3,2-1C191.3,131.6,191.6,130.5,191.6,129.2L191.6,129.2z M194.2,129.4c0,1.8-0.4,3.3-1.2,4.3
		c-0.8,1.1-1.9,1.6-3.3,1.6c-1.3,0-2.3-0.4-3.1-1.3v5.5h-2.6v-16.2h2.4l0.1,1.2c0.8-0.9,1.8-1.4,3.1-1.4c1.4,0,2.5,0.5,3.4,1.6
		c0.8,1.1,1.2,2.5,1.2,4.4V129.4L194.2,129.4z"/>
	<path class="st1" d="M200,133.2c0.5,0,1-0.1,1.5-0.4c0.5-0.3,0.8-0.6,1-1v-2.2h-1.4c-1,0-1.7,0.2-2.2,0.5c-0.5,0.3-0.7,0.8-0.7,1.4
		c0,0.5,0.2,0.9,0.5,1.2C199,133.1,199.5,133.2,200,133.2L200,133.2z M202.9,135.1c-0.1-0.2-0.2-0.6-0.3-1.1
		c-0.8,0.9-1.9,1.3-3.1,1.3c-1.2,0-2.1-0.3-2.9-1c-0.7-0.7-1.1-1.5-1.1-2.5c0-1.2,0.5-2.2,1.4-2.9c0.9-0.7,2.3-1,4-1h1.6v-0.8
		c0-0.6-0.2-1.1-0.5-1.5c-0.3-0.4-0.9-0.5-1.5-0.5c-0.6,0-1.1,0.1-1.5,0.4c-0.4,0.3-0.6,0.7-0.6,1.1h-2.6c0-0.6,0.2-1.2,0.6-1.8
		c0.4-0.6,1-1,1.7-1.3c0.7-0.3,1.5-0.5,2.5-0.5c1.4,0,2.5,0.3,3.3,1c0.8,0.7,1.2,1.7,1.3,2.9v5.3c0,1.1,0.1,1.9,0.4,2.5v0.2H202.9
		L202.9,135.1z"/>
	<path class="st1" d="M210.1,123.4l0.1,1.4c0.9-1,2-1.6,3.4-1.6c2.4,0,3.7,1.4,3.7,4.2v7.7h-2.6v-7.6c0-0.7-0.2-1.3-0.5-1.6
		c-0.3-0.4-0.8-0.5-1.6-0.5c-1.1,0-1.8,0.5-2.4,1.4v8.3h-2.6v-11.7H210.1L210.1,123.4z"/>
	<path class="st1" d="M223.8,131.4l2.4-7.9h2.8l-4.6,13.5c-0.7,2-1.9,3-3.6,3c-0.4,0-0.8-0.1-1.3-0.2v-2l0.5,0
		c0.7,0,1.2-0.1,1.5-0.4c0.3-0.2,0.6-0.6,0.8-1.2l0.4-1l-4.1-11.6h2.8L223.8,131.4L223.8,131.4z"/>
</g>
</svg>
