<?xml version="1.0" encoding="utf-8"?>
<!-- Generator: Adobe Illustrator 21.1.0, SVG Export Plug-In . SVG Version: 6.00 Build 0)  -->
<svg version="1.1" id="Layer_1" xmlns="http://www.w3.org/2000/svg" xmlns:xlink="http://www.w3.org/1999/xlink" x="0px" y="0px"
	 viewBox="0 0 269.3 47.6" style="enable-background:new 0 0 269.3 47.6;" xml:space="preserve">
<style type="text/css">
	.st0{fill:none;}
	.st1{fill:#231F20;}
	.st2{fill:#E31F26;}
</style>
<rect x="-15.3" y="-15.3" class="st0" width="300" height="78.3"/>
<g>
	<g>
		<g>
			<polygon class="st1" points="253.2,37 243.8,37 243.8,39 246.4,39 246.4,46 250.6,46 250.6,39 253.2,39 			"/>
			<polygon class="st1" points="243.9,46 243.9,44 240.2,44 240.2,37 236.1,37 236.1,46 			"/>
			<rect x="121.5" y="37" class="st1" width="4.1" height="9.1"/>
			<rect x="201.7" y="37" class="st1" width="4.1" height="9.1"/>
			<path class="st1" d="M176.3,39.8v-2.3c-1.1-0.6-2.7-0.9-4.9-0.9c-4.4,0-4.9,1.9-4.9,2.8c0,1.6,1,2.3,2.6,2.9
				c1.9,0.7,3.5,0.5,3.5,1.3c0,0.2-0.3,0.5-1.1,0.5c-1.7,0-3.5-0.7-4.7-1.4v2.5c1.5,0.7,3.3,1.2,4.8,1.2c3.3,0,5.2-1.3,5.2-3.1
				c0-1.8-1.4-2.5-3.7-3c-1.5-0.4-2.4-0.4-2.4-0.9c0-0.3,0.4-0.5,1.2-0.5C173.3,38.8,174.9,39.2,176.3,39.8z"/>
			<path class="st1" d="M226.8,39.8v-2.3c-1.1-0.6-2.7-0.9-4.9-0.9c-4.4,0-4.9,1.9-4.9,2.8c0,1.6,1,2.3,2.6,2.9
				c1.9,0.7,3.5,0.5,3.5,1.3c0,0.2-0.3,0.5-1.1,0.5c-1.7,0-3.5-0.7-4.7-1.4v2.5c1.5,0.7,3.3,1.2,4.8,1.2c3.3,0,5.2-1.3,5.2-3.1
				c0-1.8-1.4-2.5-3.7-3c-1.5-0.4-2.4-0.4-2.4-0.9c0-0.3,0.4-0.5,1.2-0.5C223.9,38.8,225.5,39.2,226.8,39.8z"/>
			<path class="st1" d="M159.4,46.3c4,0,5.5-1.6,5.5-3.9c0-0.4,0-5.4,0-5.4H161c0,0,0,5.4,0,5.7c0,0.7-0.8,1.3-1.5,1.3
				c-0.7,0-1.5-0.6-1.5-1.3c0-0.2,0-5.7,0-5.7h-3.9c0,0,0,5,0,5.4C153.9,44.7,155.4,46.3,159.4,46.3z"/>
			<path class="st1" d="M260.4,46c4,0,6-1.9,6-4.5c0-3-2.5-4.5-5.8-4.5h-5.8V46H260.4z M260,43.5c-0.7,0-0.9,0-0.9,0v-4.2
				c0.2,0,0.5,0,0.8,0c1.4,0,2.2,1,2.2,2.1C262,42.5,261.1,43.5,260,43.5z"/>
			<polygon class="st1" points="215.5,46 215.5,44.1 211.4,44.1 211.4,42.2 214.9,42.2 214.9,40.3 211.4,40.3 211.4,38.9 
				215.5,38.9 215.5,37 207.6,37 207.6,46 			"/>
			<polygon class="st1" points="177.9,39 180.5,39 180.5,46 184.7,46 184.7,39 187.3,39 187.3,37 177.9,37 			"/>
			<polygon class="st1" points="139.4,46 139.4,37 135.2,37 135.2,41.2 131.9,37 127.3,37 127.3,46 131.5,46 131.5,41.6 134.9,46 
							"/>
			<polygon class="st1" points="110,40.4 108,37 104.2,37 107.9,42.8 107.9,46 112,46 112,42.8 115.7,37 111.9,37 			"/>
			<polygon class="st1" points="100.6,46 103.9,37 100.1,37 98.2,42.7 96.2,37 92.4,37 95.7,46 			"/>
			<path class="st1" d="M85.6,37L82.3,46h3.9l0.3-1.1h3l0.3,1.1h3.9L90.3,37H85.6z M87,43.2l1-3.5l1,3.5H87z"/>
			<polygon class="st1" points="81.6,46 81.6,44.1 77.6,44.1 77.6,42.2 81.1,42.2 81.1,40.3 77.6,40.3 77.6,38.9 81.6,38.9 81.6,37 
				73.7,37 73.7,46 			"/>
			<path class="st1" d="M146.7,46c4,0,6-1.9,6-4.5c0-3-2.5-4.5-5.8-4.5h-5.8V46H146.7z M146.2,43.5c-0.7,0-0.9,0-0.9,0v-4.3
				c0.2,0,0.5,0,0.8,0c1.4,0,2.2,0.9,2.2,2.3C148.2,42.5,147.3,43.5,146.2,43.5z"/>
			<path class="st1" d="M188.9,37V46h4.4v-2.9L196,46h4.9l-3.6-3.6c1.6-0.1,2.8-1.1,2.8-2.7c0-1.8-1.4-2.8-3.1-2.8H188.9z M194.7,41
				c-0.4,0-1.1,0-1.4,0v-2.3c0.4,0,1.3,0,1.5,0c0.5,0,1.1,0.4,1.1,1.2C195.9,40.6,195.3,41,194.7,41z"/>
			<polygon class="st1" points="228.7,44.4 231.2,44.4 229.3,47.6 227.2,47.6 			"/>
			<polygon class="st1" points="67.9,37 67.9,40.1 64.9,40.1 64.9,37 60.8,37 60.8,46 64.9,46 64.9,42.8 67.9,42.8 67.9,46 72,46 
				72,37 			"/>
			<circle class="st1" cx="267.8" cy="44.8" r="1.5"/>
		</g>
		<g>
			<rect x="91.7" y="15.4" class="st1" width="8.8" height="18.4"/>
			<polygon class="st1" points="78,15.4 74.9,21.9 71.7,15.4 63.2,15.4 60.6,33.8 68.9,33.8 69.6,26.1 74.9,33.8 80.1,26.1 
				80.8,33.8 89.1,33.8 86.5,15.4 			"/>
			<polygon class="st1" points="121.7,15.4 103,15.4 103,20.4 108.1,20.4 108.1,33.8 116.6,33.8 116.6,20.4 121.7,20.4 			"/>
			<path class="st1" d="M144.1,22.7v-5.3C141,16,137.4,15,134,15c-6.5,0-10,2.2-10,5.8c0,3.1,2,4.3,5.3,5.6c3.8,1.5,6.3,0.7,6.3,1.9
				c0,0.5-0.1,0.8-1.6,0.8c-3.5,0-6.8-1.4-9.2-2.8v5.5c3.1,1.4,6.9,2.3,9.9,2.3c4.2,0,10.1-1,10.1-5.9c0-3.4-2.9-5.2-6.9-6.1
				c-3-0.7-5-0.5-5-1.6c0-0.6,0.8-0.8,2.1-0.8C137.7,19.8,141.6,21.2,144.1,22.7z"/>
			<rect x="197.3" y="15.4" class="st1" width="8.8" height="18.4"/>
			<rect x="258.5" y="15.4" class="st1" width="8.8" height="18.4"/>
			<path class="st1" d="M229.2,22.7v-5.3c-3.1-1.5-6.7-2.4-10.1-2.4c-6.5,0-10,2.2-10,5.8c0,3.1,2,4.3,5.3,5.6
				c3.8,1.5,6.3,0.7,6.3,1.9c0,0.5-0.1,0.8-1.6,0.8c-3.5,0-6.8-1.4-9.2-2.8v5.5c3.1,1.4,6.9,2.3,9.9,2.3c4.2,0,10.1-1,10.1-5.9
				c0-3.4-2.9-5.2-6.9-6.1c-3-0.7-5-0.5-5-1.6c0-0.6,0.8-0.8,2.1-0.8C222.8,19.8,226.8,21.2,229.2,22.7z"/>
			<path class="st1" d="M158.8,34.2c5.7,0,11.4-2.3,11.4-7.6c0-0.7,0-11.1,0-11.1h-8.6c0,0,0,10.8,0,11.3c0,1.5-1.2,2.7-2.8,2.7
				c-1.6,0-2.8-1.3-2.8-2.7c0-0.5,0-11.3,0-11.3h-8.6c0,0,0,10.4,0,11.1C147.4,31.8,153,34.2,158.8,34.2z"/>
			<path class="st1" d="M187.7,33.8c5.1,0,6.8-2.4,6.8-4.9c0-2.4-1.4-4-3.3-4.7c1.5-0.7,2.3-2.2,2.3-3.8c0-3-2.7-5-5.5-5h-14.7v18.4
				H187.7z M184.3,19.3c1,0,1.5,0.7,1.5,1.5c0,0.9-0.7,1.4-1.5,1.4c-0.3,0-1.4,0-2.2,0v-2.8C182.8,19.3,183.9,19.3,184.3,19.3z
				 M184.3,29.2c-0.4,0-1.5,0-2.2,0v-2.8c0.8,0,2,0,2.3,0c0.7,0,1.5,0.5,1.5,1.4C185.9,28.6,185.2,29.2,184.3,29.2z"/>
			<polygon class="st1" points="246.5,15.4 246.5,21.9 241.5,21.9 241.5,15.4 232.8,15.4 232.8,33.8 241.5,33.8 241.5,27.3 
				246.5,27.3 246.5,33.8 255.3,33.8 255.3,15.4 			"/>
		</g>
	</g>
	<g>
		<polygon class="st2" points="26.6,30.7 35.4,15.3 26.6,0 17.7,15.3 26.6,30.7 		"/>
		<polygon class="st2" points="26.6,30.7 35.4,46 53.2,46 44.3,30.7 26.6,30.7 		"/>
		<polygon class="st2" points="26.6,30.7 8.9,30.7 0,46 17.7,46 26.6,30.7 		"/>
	</g>
</g>
</svg>
