<?xml version="1.0" encoding="utf-8"?>
<!-- Generator: Adobe Illustrator 20.0.0, SVG Export Plug-In . SVG Version: 6.00 Build 0)  -->
<svg version="1.1" id="Layer_1" xmlns="http://www.w3.org/2000/svg" xmlns:xlink="http://www.w3.org/1999/xlink" x="0px" y="0px"
	 viewBox="0 0 300 118.8" style="enable-background:new 0 0 300 118.8;" xml:space="preserve">
<style type="text/css">
	.st0{fill:#231F20;}
	.st1{fill:#FF6C2C;}
</style>
<g>
	<g>
		<path class="st0" d="M300,52.9c0,2.8-4.4,5.3-9.8,5.3c-5.5,0-9.8-2.3-9.8-5.3s4.4-5.3,9.8-5.3C295.6,47.6,300,49.9,300,52.9"/>
		<path class="st1" d="M20.4,76L65,41.1L58,0C58,0,7.4,43.6,6.4,44.8C2.7,48-3.8,55.5,2.9,66.4C5.4,70.2,11.3,73.5,20.4,76 M39,82
			C18.1,79.8,5.3,75,0.6,67.6c1.7,8.7,4.5,23,6.8,31.1c0.5,1.7,1.4,3.6,2.5,5.5c5.4,8.5,13.6,12.2,28.2,13.8
			c3.4,0.4,6.8,0.6,9.7,0.7l-7.4-36.6C40,82.1,39.5,82,39,82"/>
	</g>
	<g>
		<path class="st0" d="M59.4,61.5h14.9l-1.1,4.4h0.1c3.2-3,7.4-5.4,13.8-5.4c6.6,0,8.9,2.2,10,5.4c2.7-3,7.4-5.4,13.6-5.4
			c7.5,0,12.7,3.2,10.8,10.9l-4.9,22.4h-15.1l4.1-18.3c0.7-3.3-0.5-4.3-3.2-4.3c-3.3,0-5.7,1.5-6.4,5.5l-3.8,17.2h-15l4.1-18.3
			c0.6-3.3-0.5-4.3-3.2-4.3c-3.3,0-5.7,1.5-6.4,5.5l-3.8,17.2H52.1L59.4,61.5"/>
		<path class="st0" d="M146.7,85.6c6.3,0,9.5-2.7,10.6-8c1.2-5-0.7-7.9-7-7.9c-6.1,0-9.5,2.7-10.6,7.9
			C138.4,82.9,140.5,85.6,146.7,85.6 M152.3,60.1c17.3,0,23.9,5.7,21.1,17.6c-2.6,12-11.6,17.6-28.9,17.6s-23.9-5.7-21-17.6
			C126,65.7,135,60.1,152.3,60.1"/>
		<path class="st0" d="M180.7,61.5h14.9l-0.9,4.1h0.1c2.1-2.1,7.6-4.9,15-4.9c8.5,0,14.1,3.7,12.2,12.7l-4.5,20.7H202l3.7-16.7
			c0.9-4.1-1.1-5.9-4.5-5.9c-4.1,0-7.7,2.3-8.9,7.7L189,93.9h-15.5L180.7,61.5"/>
		<path class="st0" d="M250.6,70.5c-5.7,0-9.1,3.2-10.1,7.4c-0.9,4.3,0.7,7.4,6.8,7.4c5.9,0,9-2.7,10.1-7.4
			C258.6,73.3,256.6,70.5,250.6,70.5 M255.2,90.5L255.2,90.5c-3.6,3.2-8.2,4.7-15,4.7c-10.1,0-18.1-5.3-15.5-17.3
			c2.6-12,13-17.3,23-17.3c6.3,0,10.5,1.5,12.4,4.5h0.1l3.4-15H279l-9.7,43.9h-14.9L255.2,90.5z"/>
		<polygon class="st0" points="280.9,61.5 296.3,61.5 289.2,93.9 273.7,93.9 		"/>
	</g>
</g>
</svg>
