<?xml version="1.0" encoding="utf-8"?>
<!-- Generator: Adobe Illustrator 20.0.0, SVG Export Plug-In . SVG Version: 6.00 Build 0)  -->
<svg version="1.1" id="Layer_1" xmlns="http://www.w3.org/2000/svg" xmlns:xlink="http://www.w3.org/1999/xlink" x="0px" y="0px"
	 viewBox="0 0 300 293.6" style="enable-background:new 0 0 300 293.6;" xml:space="preserve">
<style type="text/css">
	.st0{fill:#00539F;}
	.st1{fill:#887D6D;}
</style>
<g>
	<path class="st0" d="M148,11.1c-6.5,54.9,6.5,109.6,30,145.1c-12.5-1.3-24.7-2.7-36.4-4.4c-26.9-31.5-43.3-88.9-32.7-151.6
		C106.5,0,104,0,101.6,0c-7.6,0-14.9,0.9-22,2.4c-10.4,58,5.8,112.9,38.2,145.1c-8.7-1.5-16.9-3.1-24.4-4.5
		C60.9,112.5,44.7,63.2,51.2,13.2c-7.3,4.2-13.8,9.1-19.8,14.7C27.2,81.7,53,122.3,78.7,140.6c-4.2-0.9-8.2-1.8-11.6-2.5
		c-8-4.2-49.6-36.4-50.2-92.9C6.2,61.2,0,80.5,0,101.2c0,21.1,6.5,40.7,17.5,56.9H92v3.6H20.4c18.5,24.7,48,40.7,81.1,40.7
		c55.8,0,101.3-45.3,101.3-101.3C202.7,62,180.5,28,148,11.1L148,11.1z"/>
	<polygon class="st1" points="101.5,232.9 109.8,232.9 109.8,258.8 120.9,258.8 120.9,232.9 129.3,232.9 129.3,293.3 120.9,293.3 
		120.9,265.8 109.8,265.8 109.8,293.3 101.5,293.3 	"/>
	<polygon class="st1" points="140.7,232.9 149.1,232.9 156.4,258.4 156.5,258.4 164.9,232.9 172.2,232.9 160.5,268.6 160.5,293.3 
		152.2,293.3 152.2,268.6 	"/>
	<path class="st1" d="M183.6,232.9h13.5c13.5,0,14.5,4.5,14.5,22v18c0,15.5-2.7,20.4-16,20.4h-12.2v-60.4H183.6z M192,286.2h4
		c6.2,0,7.3-3.3,7.3-13.6v-20.7c0-8.9-0.9-12-8-12H192V286.2L192,286.2z"/>
	<path class="st1" d="M271.6,248.2c0-8.4,2.7-15.8,14.2-15.8c10.7,0,14.2,5.6,14.2,14.9v30.5c0,8.4-2.7,15.8-14.2,15.8
		c-10.7,0-14.2-5.6-14.2-14.9V248.2L271.6,248.2z M280,279.3c0,5.1,2.4,8,5.8,8s5.8-2.7,5.8-8v-31.6c0-6-2-8.7-5.8-8.7
		s-5.8,2.7-5.8,8.7V279.3L280,279.3z"/>
	<path class="st1" d="M245.8,293.1h8.4v-20.7c0-5.6-2-8.5-7.6-9.3v-0.2c6.9-2.2,8-5.6,8-13.6c0-13.3-1.3-16.5-13.5-16.5h-12.9v60.4
		h8.4V267h2.9c5.5,0,6.5,1.5,6.5,7.3v18.9L245.8,293.1L245.8,293.1z M238.7,260h-2.2v-20h4c5.1,0,5.6,0.9,5.6,9.8
		C246.2,258.8,245.3,260,238.7,260L238.7,260z"/>
</g>
</svg>
