<?xml version="1.0" encoding="utf-8"?>
<!-- Generator: Adobe Illustrator 23.0.0, SVG Export Plug-In . SVG Version: 6.00 Build 0)  -->
<svg version="1.1" id="Layer_1" xmlns="http://www.w3.org/2000/svg" xmlns:xlink="http://www.w3.org/1999/xlink" x="0px" y="0px"
	 viewBox="0 0 300 48" style="enable-background:new 0 0 300 48;" xml:space="preserve">
<style type="text/css">
	.st0{fill:url(#XMLID_3_);}
	.st1{fill:#0460A9;}
</style>
<g id="XMLID_53_">
	<linearGradient id="XMLID_3_" gradientUnits="userSpaceOnUse" x1="2.7233" y1="26.9805" x2="45.5089" y2="26.9805">
		<stop  offset="0.3" style="stop-color:#E74A21"/>
		<stop  offset="0.7" style="stop-color:#EC9A1E"/>
	</linearGradient>
	<path id="XMLID_72_" class="st0" d="M32.27,22.09l-0.12,0.31c2.01,0.88,6.49,4.37,6.49,11.4c0,6.62-5.58,13.29-14.35,13.29
		c-10.91,0-14.67-6.38-14.67-12.24c0-7.51,5.25-12.51,5.25-19.35c0-4.76-3.6-9.46-8.42-10.32L6.26,5.48
		c2.01,2.14,2.69,4.21,2.69,6.41c0,7.39-6.23,12.64-6.23,21.12c0,7.82,5.46,15.77,21.27,15.77c14.09,0,21.52-6.9,21.52-14.24
		C45.51,28.25,40.99,22.92,32.27,22.09z"/>
	<path id="XMLID_2_" class="st1" d="M94.17,47.53L75.44,23.38v21.77l3.82,0.91v1.03h-8.71v-1.03l3.12-0.91V21.43
		c-0.31-0.29-1.48-1.26-2.69-1.52c-0.38-0.08-0.89-0.17-0.89-0.17v-1.02h7.39l16.04,20.8V20.67l-3.82-0.92v-1.02h8.71v1.02
		l-3.12,0.92c0,0,0,19.09,0,21.59c0,1.97,0.14,4.91,0.17,5.28H94.17z M133.33,32.16c0,10.04-6.96,15.8-14.65,15.8
		c-7.77,0-14.65-5.89-14.65-15.04c0-9.23,6.96-15.08,14.61-15.08C128.03,17.85,133.33,25.15,133.33,32.16z M128.46,33.65
		c0-7.35-4.4-14.48-10.38-14.48c-6.36,0-9.23,6.15-9.23,12.73c0,6.53,3.63,14.74,10.46,14.74
		C125.73,46.64,128.46,40.14,128.46,33.65z M139.39,20.66l-2.98-0.92v-1.02h11.49v1.02l-3.6,0.92l7.93,21.62h0.04l7.93-21.62
		l-3.6-0.92v-1.02h8.5v1.02l-2.96,0.92L152.1,47.6h-2.54L139.39,20.66z M207.28,32.6h-1.82V20.22c6.05,0,9.57,1.38,9.57,6.28
		C215.03,30.14,211.88,32.6,207.28,32.6z M258.69,46.06l3.97-0.91V20.66l-3.97-0.92v-1.02h12.47v1.02l-3.97,0.92v24.48l3.98,0.91
		v1.03h-12.48V46.06z M278.8,39.28h0.79l2.65,6.1c0.79,0.4,2.78,1.26,5.07,1.26c3.44,0,6.58-2.05,6.58-5.58
		c0-2.72-1.76-4.34-4.61-5.83c-0.91-0.47-1.86-0.97-2.82-1.46c-3.37-1.75-6.74-4.23-6.74-8.22c0-4.34,3.05-7.69,9.42-7.69
		c3.28,0,6.09,0.91,6.64,1.09l0.67,6.56h-0.85l-2.45-5.26c-0.46-0.23-1.93-1.07-4.11-1.07c-3.25,0-5.46,2-5.46,4.77
		c0,2.51,1.67,4.09,4.53,5.57c1.06,0.55,2.23,1.16,3.34,1.74c4.56,2.36,6.72,4.55,6.72,8.6c0,5-4.69,8.11-10.52,8.11
		c-4.46,0-7.19-0.92-8.09-1.21L278.8,39.28z M163.19,46.06l3.21-0.91l9.91-26.43l3.31-0.85l10.23,27.27l3.21,0.92v1.03h-12.15v-1.03
		l4.11-0.92l-2.9-7.84h-10.9l-2.88,7.84l4.11,0.91v1.03h-9.27V46.06z M171.98,35.21h9.43l-4.68-12.64h-0.04L171.98,35.21z
		 M212.99,33.22c0.98-0.25,6.61-1.68,6.61-7.04c0-4.27-3.27-7.58-11.33-7.58c-4.98,0-10.02,0.11-10.63,0.13v1.02l3.29,0.92v24.48
		l-3.29,0.92v1.02h11.64v-1.02l-3.82-0.92V34.08h3.29l8.41,13h7.45V46.1l-3.77-0.96L212.99,33.22z M237.56,20.22v24.93l-3.97,0.91
		v1.03h12.47v-1.03l-3.97-0.91V20.22h6.73l2.21,4.73h0.86l-0.64-6.23h-22.84l-0.64,6.23h0.86l2.2-4.73H237.56z M24.18,38.26
		l3.97-37.79h-8.3l3.97,37.79H24.18z"/>
</g>
</svg>
