<?xml version="1.0" encoding="utf-8"?>
<!-- Generator: Adobe Illustrator 20.0.0, SVG Export Plug-In . SVG Version: 6.00 Build 0)  -->
<svg version="1.1" id="Layer_1" xmlns="http://www.w3.org/2000/svg" xmlns:xlink="http://www.w3.org/1999/xlink" x="0px" y="0px"
	 viewBox="0 0 300 69.3" style="enable-background:new 0 0 300 69.3;" xml:space="preserve">
<style type="text/css">
	.st0{fill:#00529C;}
	.st1{fill:#0099D8;}
	.st2{fill:#F47937;}
	.st3{fill:#009D57;}
	.st4{fill:#ED1B2E;}
</style>
<g>
	<path class="st0" d="M76.8,45h6.9c2.7,0,3.7,0.9,3.7,3.2c0,2.2-1,3.1-3.7,3.1h-6.9V45L76.8,45z M66.1,68.2h10.8v-9.3h11.6
		c7.6,0,10.4-4.5,10.4-10.3c0-6.6-2.8-10.6-10.4-10.6H66.1L66.1,68.2L66.1,68.2z"/>
	<polygon class="st0" points="102.3,38 131.1,38 131.1,45.2 113.1,45.2 113.1,49.4 129.9,49.4 129.9,56.7 113.1,56.7 113.1,60.8 
		131.1,60.8 131.1,68.2 102.3,68.2 	"/>
	<path class="st0" d="M146.5,45h6.9c2.7,0,3.7,0.9,3.7,3.2c0,2.2-1,3.1-3.7,3.1h-6.9V45L146.5,45z M135.7,68.2h10.8v-9.3h11.6
		c7.6,0,10.4-4.5,10.4-10.3c0-6.6-2.8-10.6-10.4-10.6h-22.2v30.2H135.7z"/>
	<path class="st0" d="M178.7,55.3c-5.3-0.9-7.5-4.3-7.5-8.5c0-7.9,6.9-10.1,15.9-10.1c12,0,17.1,3.4,17.5,10h-12.4
		c0-1.2-0.6-2.1-1.7-2.5c-0.9-0.5-2.2-0.6-3.3-0.6c-3.2,0-4.4,0.9-4.4,2.2c0,0.9,0.4,1.5,1.5,1.6l12.9,2.1c5.4,0.9,8.7,3.7,8.7,8.8
		c0,7.4-5.4,10.8-17.5,10.8C180.1,69.2,171,68,171,59h13.1c0,1,0.4,1.7,1.1,2.2c0.7,0.4,2,0.6,3.6,0.6c3.3,0,4.3-1,4.3-2.5
		c0-0.9-0.5-1.8-2-2.1L178.7,55.3L178.7,55.3z"/>
	<polygon class="st0" points="209.3,38 220.1,38 220.1,68.2 209.3,68.2 	"/>
	<path class="st0" d="M260.1,56.4c-0.6,3.9-2,7.3-4.7,9.3c-2.6,2.2-6.8,3.4-13.4,3.4c-6.5,0-18.7-0.5-18.7-16.2
		c0-15.7,12-16.2,18.7-16.2c6.4,0,16.5,0.9,17.8,13h-12c-0.2-2.2-1.6-5.3-5.8-5.3c-4.4,0-7.3,2.5-7.3,8.6s2.7,8.6,6.6,8.6
		c3.3,0,5.4-1.6,6.3-5.3h12.2l0,0H260.1z"/>
	<path class="st0" d="M274.1,53.1c0-6.1,2.8-8.6,7.3-8.6s7.3,2.5,7.3,8.6s-2.8,8.6-7.3,8.6C276.9,61.6,274.1,59.1,274.1,53.1
		L274.1,53.1z M262.6,53.1c0,15.7,12,16.2,18.7,16.2c6.5,0,18.7-0.5,18.7-16.2c0-15.7-12-16.2-18.7-16.2S262.6,37.2,262.6,53.1
		L262.6,53.1z"/>
	<path class="st0" d="M49.8,38.2C50.4,23.7,38,7.4,20.9,5.3V5c16.8,0,29.7,15.6,29.7,27.9c0,2.6-0.2,4.1-0.6,5.3H49.8L49.8,38.2z
		 M48.8,39.9c-1.1,1.5-2.6,2.7-4.3,4.1C41.5,26.5,28.6,11.2,19.7,6.9L19.4,7c9.1,7.5,20,22,24.3,37.9c-2.1,1.6-4.4,2.8-6.9,3.9
		C28.3,39,20.3,20,17.6,8l-0.2,0.1c0,11.7,8.4,31.5,18.4,41.2c-2.2,0.9-4.7,1.6-7.3,2c-9.6-3.8-16.6-16.1-16.6-28.6
		c0-8.2,2.5-13.3,2.9-14.4l-0.2-0.1C14,9,10.3,14,10.3,22.9c0,14.3,7.1,25.1,16.3,28.5c-3.2,0.4-6.5,0.2-10.1-0.5l-0.1,0.2
		c1,0.4,4.4,1.8,9.5,1.8c11.7,0,19.5-7.3,22.7-12.8v-0.2H48.8z"/>
	<path class="st1" d="M25.1,0C16.2,0,5.9,6.4,5.9,12.2c0,2.3,2.1,4.1,6.3,4.1c10,0,19.2-6.8,19.2-12C31.3,1.5,28.6,0,25.1,0L25.1,0z
		 M28.6,3.9c0,4.5-8.6,10-15.7,10c-3.2,0-4.9-1.2-4.9-3.3c0-4.5,8.6-10,15.5-10C27.8,0.7,28.6,2.9,28.6,3.9L28.6,3.9z"/>
	<path class="st2" d="M2.3,14.9c-0.2,0.4-1.2,2.5-1.2,4.4c0,3.7,3.7,7.3,10.7,7.3c13.3,0,28.5-9.8,28.5-18.8c0-4.1-3.8-6.3-6.5-6.6
		v0.1c0.7,0.2,3.8,1.7,3.8,5.3c0,7.3-13.5,17-27,17c-5.2,0-8.4-2.6-8.4-6.3c0-1.1,0.2-2,0.2-2.2H2.3V14.9z"/>
	<path class="st3" d="M45.8,8.2c0.4,0.2,2.6,2.1,2.6,5.5C48.4,25.4,30,37,13.9,37C4.3,37-0.2,32.2,0,28h0.1
		c0.4,2.2,3.4,6.1,11.9,6.1c16.2,0,34.4-11.9,34.4-22.4c0-1.8-0.5-2.9-0.7-3.3L45.8,8.2L45.8,8.2z"/>
	<path class="st4" d="M52,19.2c0.1,0.2,0.5,1.5,0.5,3.1c0,13-18.7,24.2-34.7,24.2c-8.4,0-12.8-3.9-13.6-5.7l0.1-0.1
		c2.3,2.1,6.8,3.6,12,3.6c14.3,0,35.6-10.8,35.4-25.1H52L52,19.2z"/>
</g>
</svg>
