<?xml version="1.0" encoding="utf-8"?>
<!-- Generator: Adobe Illustrator 20.0.0, SVG Export Plug-In . SVG Version: 6.00 Build 0)  -->
<svg version="1.1" id="Layer_1" xmlns="http://www.w3.org/2000/svg" xmlns:xlink="http://www.w3.org/1999/xlink" x="0px" y="0px"
	 viewBox="0 0 300 126.9" style="enable-background:new 0 0 300 126.9;" xml:space="preserve">
<style type="text/css">
	.st0{fill:#0089CA;}
	.st1{fill:#2E539A;}
	.st2{fill:#020202;}
	.st3{fill:#EA2D2E;}
</style>
<g>
	<g>
		<g>
			<g>
				<path class="st0" d="M157.2,0c-3.8,9.3-6,15-5.3,22.9c0.7,8.5,6.6,15.4,11.9,21c4.3,4.5,6.9,7.5,8.1,12.8
					c0.9,3.7,1.8,11.4-3.7,18.8c-6.5,8.8-17.2,9.2-17.2,9.2v2.7c0,0,12.7-0.5,21.3-8.4c5.9-5.4,8-10.1,9.6-17.3
					c1.4-6.1-0.2-15-4.2-21.7c-2.2-3.8-4.5-6.9-6.8-9.6c-4.5-5.2-7.7-8.7-10.6-12.8c-2.7-3.8-4.3-7.1-4.3-10.4s1.4-6.8,1.4-6.8
					L157.2,0"/>
				<path class="st0" d="M142,0c3.9,9.3,6.1,14.9,5.4,22.9c-0.7,8.5-6.5,15.4-11.8,21c-4.3,4.5-6.9,7.5-8,12.8
					c-0.9,3.7-1.7,11.4,3.7,18.8c6.6,8.8,17.2,9.2,17.2,9.2v2.7c0,0-12.7-0.5-21.3-8.2c-5.9-5.4-8-10.1-9.6-17.3
					c-1.4-6.1,0.2-15,4.1-21.7c2.2-3.8,4.5-7,6.8-9.6c4.4-5.3,7.7-8.7,10.6-12.9c2.6-3.8,4.3-7.1,4.3-10.4S142,0.4,142,0.4L142,0"/>
				<path class="st1" d="M149.8,79.1c-9.3,0-17-7.5-17-16.8s7.6-17,17-17c9.3,0,17,7.5,17,16.8C166.6,71.5,159.1,79,149.8,79.1
					 M164.1,47.3c-3.8-3.6-8.5-9.3-10.3-12.4c-3.3-5.4-4.2-10.1-4.2-10.1s-0.9,4.7-4.2,10.1c-3.1,5-8.6,10.8-10.4,12.5
					c-3.7,3.8-6,9-6,14.6c0,11.4,9.3,20.6,20.6,20.6c11.4,0,20.6-9.3,20.6-20.8C170.4,56.3,168.1,51,164.1,47.3z"/>
				<path class="st2" d="M2.8,113.8H7c1.2,0,2.8-0.6,2.8-2.7c0-2.1-1.2-2.7-2.8-2.7H2.8V113.8 M0,106.1h7.1c4.5,0,5.5,2.9,5.5,4.9
					c0,2-0.9,4.9-5.5,4.9H2.8v6.1H0V106.1z"/>
				<polyline class="st2" points="13.5,106.1 26.5,106.1 26.5,108.5 21.4,108.5 21.4,122.1 18.6,122.1 18.6,108.5 13.5,108.5 
					13.5,106.1 				"/>
				<polyline class="st2" points="26.9,106.1 39.9,106.1 39.9,108.5 34.8,108.5 34.8,122.1 31.9,122.1 31.9,108.5 26.9,108.5 
					26.9,106.1 				"/>
				<path class="st2" d="M50.9,113.8H55c1.2,0,2.8-0.6,2.8-2.7c0-2.1-1.2-2.7-2.8-2.7h-4.2V113.8 M48,106.1h7.1
					c4.5,0,5.5,2.9,5.5,4.9c0,2-0.9,4.9-5.5,4.9h-4.3v6.1H48V106.1z"/>
				<path class="st2" d="M73,122.1h-2.6v-1.6l0,0c-0.6,1.1-2.1,2-3.3,2c-3.1,0-4.3-1.6-4.3-4.5v-7.4h2.6v7.1c0,2.1,0.9,2.8,2.2,2.8
					c2.1,0,2.8-1.4,2.8-3.2v-6.8H73L73,122.1"/>
				<path class="st2" d="M81.4,112.3c-2.2,0-3.3,1.6-3.3,4.2c0,2.3,1.2,4.1,3.3,4.1c2.3,0,3.2-2.1,3.2-4.1
					C84.6,114.3,83.5,112.3,81.4,112.3 M75.7,106.1h2.6v5.9l0,0c0.7-1.1,2.2-1.8,3.4-1.8c3.7,0,5.4,2.8,5.4,6.1c0,3.1-1.6,6.1-5,6.1
					c-1.6,0-3.3-0.4-4.1-2l0,0v1.6h-2.5v-16H75.7z"/>
				<rect x="89.4" y="106.1" class="st2" width="2.6" height="16.1"/>
				<path class="st2" d="M94.8,110.6h2.6v11.7h-2.6V110.6 M94.8,106.1h2.6v2.5h-2.6V106.1z"/>
				<path class="st2" d="M108.1,114.4c-0.2-1.5-1.2-2.2-2.7-2.2c-1.4,0-3.2,0.7-3.2,4.2c0,2,0.9,3.9,3.1,3.9c1.5,0,2.6-1,2.8-2.7
					h2.6c-0.5,3.1-2.3,4.7-5.3,4.7c-3.7,0-5.7-2.6-5.7-6c0-3.6,2-6.3,5.8-6.3c2.7,0,5,1.4,5.3,4.2h-2.7"/>
				<path class="st2" d="M130.2,111.2c-0.5-1.8-1.7-3.2-4.1-3.2c-3.4,0-4.9,3.1-4.9,6.1s1.5,6.1,4.9,6.1c2.5,0,3.8-1.8,4.1-4.2h2.7
					c-0.2,3.8-2.9,6.5-6.9,6.5c-4.8,0-7.7-3.8-7.7-8.5c0-4.5,2.8-8.5,7.7-8.5c3.6,0,6.5,2.1,6.9,5.5H130.2"/>
				<path class="st2" d="M144,116.3c0-2-1-4.1-3.3-4.1c-2.3,0-3.3,2.1-3.3,4.1c0,2.1,1,4.2,3.3,4.2C143,120.5,144,118.3,144,116.3
					 M134.8,116.3c0-3.6,2.1-6.1,5.9-6.1c3.8,0,5.9,2.6,5.9,6.1s-2.1,6.1-5.9,6.1C136.9,122.5,134.8,119.9,134.8,116.3z"/>
				<path class="st2" d="M148.6,110.6h2.5v1.6h0.1c0.7-1.1,1.7-2,3.6-2c1.5,0,2.7,0.6,3.3,2c0.9-1.2,2-2,3.7-2
					c2.5,0,3.9,1.1,3.9,3.9v8h-2.6v-6.8c0-1.8-0.1-3.2-2.1-3.2c-1.7,0-2.5,1.1-2.5,3.1v6.9H156v-7.4c0-1.6-0.5-2.5-2.1-2.5
					c-1.4,0-2.6,1.1-2.6,3.1v6.9h-2.6v-11.7"/>
				<path class="st2" d="M174.1,112.3c-2.2,0-3.3,1.6-3.3,4.2c0,2.3,1.2,4.1,3.3,4.1c2.3,0,3.2-2.1,3.2-4.1
					C177.3,114.3,176.2,112.3,174.1,112.3 M168.3,110.6h2.5v1.6l0,0c0.7-1.4,2.1-1.8,3.6-1.8c3.7,0,5.4,2.8,5.4,6.1
					c0,3.1-1.6,6.1-5,6.1c-1.5,0-3.1-0.5-3.9-1.8l0,0v5.8h-2.6v-16H168.3z"/>
				<path class="st2" d="M189.2,116.3c-0.7,0.5-2.1,0.5-3.2,0.7c-1.1,0.1-2.1,0.6-2.1,2c0,1.1,1.5,1.5,2.3,1.5
					c1.1,0,2.8-0.6,2.8-2.2v-2 M191.8,119.5c0,0.6,0.1,0.9,0.6,0.9c0.1,0,0.4,0,0.6,0v1.7c-0.4,0.1-1.2,0.2-1.6,0.2
					c-1,0-1.8-0.4-2-1.5c-1,1-2.7,1.5-4.1,1.5c-2.1,0-3.9-1.1-3.9-3.4c0-2.9,2.3-3.4,4.4-3.7c1.8-0.4,3.4-0.1,3.4-1.6
					c0-1.4-1.4-1.6-2.5-1.6c-1.5,0-2.5,0.6-2.6,1.8h-2.6c0.1-2.9,2.7-3.9,5.3-3.9c2.3,0,4.7,1,4.7,3.4v6.1H191.8z"/>
				<path class="st2" d="M194.6,110.6h2.5v1.7l0,0c0.7-1.2,2.1-2.1,3.6-2.1c2.6,0,4.2,1.4,4.2,3.9v8h-2.6v-7.4
					c0-1.8-0.7-2.6-2.3-2.6c-1.7,0-2.8,1.4-2.8,3.1v6.9h-2.6v-11.5"/>
				<path class="st2" d="M206.3,110.6h2.8l3.1,8.7l0,0l2.9-8.7h2.7l-4.5,12.3c-0.9,2.1-1.5,4.1-4.2,4.1c-0.6,0-1.2,0-1.8-0.1v-2.2
					c0.4,0.1,0.9,0.1,1.2,0.1c1.2,0,1.5-0.6,1.8-1.6l0.2-0.9L206.3,110.6"/>
				<polyline class="st2" points="225.8,106.1 228.6,106.1 228.6,119.8 236.9,119.8 236.9,122.1 225.8,122.1 225.8,106.1 				"/>
				<path class="st2" d="M238.5,110.6h2.6v11.7h-2.6V110.6 M238.5,106.1h2.6v2.5h-2.6V106.1z"/>
				<path class="st2" d="M243.9,110.6h2.5v1.6h0.1c0.7-1.1,1.7-2,3.6-2c1.4,0,2.7,0.6,3.3,2c0.9-1.2,2-2,3.7-2
					c2.5,0,3.9,1.1,3.9,3.9v8h-2.6v-6.8c0-1.8-0.1-3.2-2.1-3.2c-1.7,0-2.5,1.1-2.5,3.1v6.9h-2.6v-7.4c0-1.6-0.5-2.5-2.1-2.5
					c-1.4,0-2.6,1.1-2.6,3.1v6.9H244v-11.7"/>
				<path class="st2" d="M263.5,110.6h2.6v11.7h-2.6V110.6 M263.5,106.1h2.6v2.5h-2.6V106.1z"/>
				<path class="st2" d="M267.7,110.6h2v-3.4h2.6v3.4h2.3v2h-2.3v6.3c0,1.1,0.1,1.6,1.2,1.6c0.4,0,0.7,0,1.1-0.1v2
					c-0.6,0-1.1,0.1-1.7,0.1c-2.7,0-3.2-1-3.2-2.9v-6.9h-2V110.6"/>
				<path class="st2" d="M284.4,115.4c-0.1-1.6-1.2-3.1-2.9-3.1c-1.8,0-2.9,1.4-3.1,3.1H284.4 M278.4,117c0,1.8,1,3.4,3.1,3.4
					c1.5,0,2.3-0.6,2.8-2h2.5c-0.6,2.6-2.7,3.9-5.3,3.9c-3.7,0-5.7-2.6-5.7-6.1c0-3.3,2.2-6.1,5.7-6.1c3.7,0,5.9,3.3,5.5,6.8h-8.6
					V117z"/>
				<path class="st2" d="M294.1,120.5c2.3,0,3.3-2.1,3.3-4.2c0-2.6-1.2-4.1-3.2-4.1c-2.5,0-3.3,2.1-3.3,4.2
					C290.9,118.4,291.9,120.5,294.1,120.5 M299.9,122.1h-2.5v-1.6l0,0c-0.7,1.4-2.1,1.8-3.6,1.8c-3.7,0-5.4-2.7-5.4-6.3
					c0-4.2,2.5-6,5-6c1.5,0,3.1,0.5,3.9,1.8l0,0v-5.8h2.6v16H299.9z"/>
			</g>
		</g>
	</g>
	<path class="st3" d="M166.7,62.2c0,9.3-7.6,17-17,17c-9.3,0-17-7.6-17-17c0-9.3,7.6-17,17-17C159.1,45.2,166.7,52.8,166.7,62.2z"/>
</g>
</svg>
