<?xml version="1.0" encoding="utf-8"?>
<!-- Generator: Adobe Illustrator 20.0.0, SVG Export Plug-In . SVG Version: 6.00 Build 0)  -->
<svg version="1.1" id="Layer_1" xmlns="http://www.w3.org/2000/svg" xmlns:xlink="http://www.w3.org/1999/xlink" x="0px" y="0px"
	 viewBox="0 0 143 26.5" style="enable-background:new 0 0 143 26.5;" xml:space="preserve">
<style type="text/css">
	.st0{clip-path:url(#SVGID_2_);}
	.st1{clip-path:url(#SVGID_4_);}
	.st2{clip-path:url(#SVGID_6_);fill:#0079C1;}
</style>
<g>
	<defs>
		<rect id="SVGID_1_" width="143" height="26.5"/>
	</defs>
	<clipPath id="SVGID_2_">
		<use xlink:href="#SVGID_1_"  style="overflow:visible;"/>
	</clipPath>
	<g class="st0">
		<g>
			<defs>
				<rect id="SVGID_3_" x="-79.6" y="-79.6" width="300" height="212.1"/>
			</defs>
			<clipPath id="SVGID_4_">
				<use xlink:href="#SVGID_3_"  style="overflow:visible;"/>
			</clipPath>
			<g class="st1">
				<defs>
					<rect id="SVGID_5_" x="-79.6" y="-79.6" width="300" height="212.1"/>
				</defs>
				<clipPath id="SVGID_6_">
					<use xlink:href="#SVGID_5_"  style="overflow:visible;"/>
				</clipPath>
				<path class="st2" d="M15.2,9.4c0,3.3-1.6,5.5-5.6,5.5H8.4V4.5c0.4,0,0.9,0,1.3,0C13.4,4.5,15.2,6.3,15.2,9.4 M11.1,19.4
					c7.1,0,11.6-3.7,11.6-10.1c0-7-4.8-9.5-12.7-9.5C7-0.2,3.3,0,0.7,0.3v25.1h7.7v-6H11.1z M113.6,9.4c0,3.3-1.6,5.5-5.6,5.5h-1.3
					V4.5c0.4,0,0.9,0,1.3,0C111.8,4.5,113.6,6.3,113.6,9.4 M109.5,19.4c7.1,0,11.6-3.7,11.6-10.1c0-7-4.8-9.5-12.7-9.5
					c-3,0-6.7,0.2-9.3,0.5v25.1h7.7v-6H109.5z M131.1,6.7c0-1.4,1.4-2,3.6-2c2.4,0,5,0.5,6.8,1.3l-0.6-5.5c-2-0.4-3.8-0.7-7-0.7
					c-6.2,0-10.4,2.4-10.4,7.6c0,8.8,12,7,12,11.1c0,1.6-1.2,2.4-4,2.4c-2.5,0-6.4-0.8-8.7-2l0.8,5.8c2.3,0.8,5.4,1.3,8,1.3
					c6.4,0,11.6-2.1,11.6-8.4C143.2,9.1,131.1,10.7,131.1,6.7 M93.4,0.3h-7.7v25.1h7.7V0.3z M62.4,0.3h-7.7v25.1h7.7V0.3z
					 M75.7,20.3v-20H68v25.1h13.8l1.2-5H75.7z M49.1,0.3h-7.7v10h-8v-10h-7.7v25.1h7.7v-9.9h8v9.9h7.7V0.3z"/>
			</g>
		</g>
	</g>
</g>
</svg>
