<?xml version="1.0" encoding="utf-8"?>
<!-- Generator: Adobe Illustrator 20.0.0, SVG Export Plug-In . SVG Version: 6.00 Build 0)  -->
<svg version="1.1" id="Layer_1" xmlns="http://www.w3.org/2000/svg" xmlns:xlink="http://www.w3.org/1999/xlink" x="0px" y="0px"
	 viewBox="0 0 303.5 281" style="enable-background:new 0 0 303.5 281;" xml:space="preserve">
<style type="text/css">
	.st0{fill:none;stroke:#FFFFFF;stroke-width:3.5;stroke-miterlimit:10;}
	.st1{fill:#ED1C24;}
	.st2{fill:#FFD400;}
</style>
<g>
	<path class="st0" d="M134,271.8h-76l-7.1-56.4L4.8,181.8c-2-9.9-3-19.9-3-30.1c0-82.8,67.2-150,150-150s150,67.2,150,150
		c0,10.1-1,20.1-3,30.1l-46.1,33.6l-7.1,56.4h-76l-4.4,3.1c-3.8,2.7-8.5,4.3-13.2,4.3c-4.7,0-9.4-1.6-13.2-4.3L134,271.8z"/>
	<path class="st1" d="M134,271.8h-76l-7.1-56.4L4.8,181.8c-2-9.9-3-19.9-3-30.1c0-82.8,67.2-150,150-150s150,67.2,150,150
		c0,10.1-1,20.1-3,30.1l-46.1,33.6l-7.1,56.4h-76l-4.4,3.1c-3.8,2.7-8.5,4.3-13.2,4.3c-4.7,0-9.4-1.6-13.2-4.3L134,271.8z
		 M136.3,245.6H81.1l-5.6-44.7l-45.6-33.2c-1.3-5.2-2-10.6-2-15.9c0-9,1.8-17.8,5.5-26l80.6,81.5l-78.4-96.8
		c3.1-12.5,9.9-23.9,19.6-32.4l70.3,121.4L63.3,66.7C71.4,56,82.6,48,95.4,44.1l43,150.7L107.1,37.9c9.5-5.4,20.4-8.2,31.4-8.2
		c2.4,0,4.7,0.1,6.9,0.4l6.4,163.1l6.4-163.1c2.4-0.3,4.6-0.4,6.9-0.4c11,0,21.7,2.9,31.4,8.2l-31.4,156.8l43-150.7
		c12.8,3.9,24,11.9,32.1,22.6l-62.3,132.9l70.3-121.4c9.7,8.6,16.5,19.9,19.6,32.4l-78.4,96.8l80.6-81.5c3.7,8.2,5.5,17,5.5,26
		c0,5.4-0.7,10.7-2,15.9L227.9,201l-5.6,44.7H167l-8.2,6c-2.1,1.4-4.6,2.4-7.1,2.4c-2.5,0-5-0.8-7.1-2.4L136.3,245.6z"/>
	<path class="st2" d="M136.3,245.6H81.1l-5.6-44.7l-45.6-33.2c-1.3-5.2-2-10.6-2-15.9c0-9,1.8-17.8,5.5-26l80.6,81.5l-78.4-96.8
		c3.1-12.5,9.9-23.9,19.6-32.4l70.3,121.4L63.3,66.7C71.4,56,82.6,48,95.4,44.1l43,150.7L107.1,37.9c9.5-5.4,20.4-8.2,31.4-8.2
		c2.4,0,4.7,0.1,6.9,0.4l6.4,163.1l6.4-163.1c2.4-0.3,4.6-0.4,6.9-0.4c11,0,21.7,2.9,31.4,8.2l-31.4,156.8l43-150.7
		c12.8,3.9,24,11.9,32.1,22.6l-62.3,132.9l70.3-121.4c9.7,8.6,16.5,19.9,19.6,32.4l-78.4,96.8l80.6-81.5c3.7,8.2,5.5,17,5.5,26
		c0,5.4-0.7,10.7-2,15.9L227.9,201l-5.6,44.7H167l-8.2,6c-2.1,1.4-4.6,2.4-7.1,2.4c-2.5,0-5-0.8-7.1-2.4L136.3,245.6z"/>
</g>
</svg>
