<?xml version="1.0" encoding="utf-8"?>
<!-- Generator: Adobe Illustrator 20.0.0, SVG Export Plug-In . SVG Version: 6.00 Build 0)  -->
<svg version="1.1" id="Layer_1" xmlns="http://www.w3.org/2000/svg" xmlns:xlink="http://www.w3.org/1999/xlink" x="0px" y="0px"
	 viewBox="0 0 300.1 152.5" style="enable-background:new 0 0 300.1 152.5;" xml:space="preserve">
<style type="text/css">
	.st0{fill:#00529F;}
	.st1{fill:#F9B41D;}
</style>
<g>
	<path class="st0" d="M124.1,85.3l-2.6,2.7c-3.1,3-5.9,3.3-8.4,0.9c-2.6-2.6-2.2-5.3,0.9-8.4l2.7-2.7c3.1-3.1,5.9-3.3,8.4-0.9
		C127.4,79.5,127.1,82.2,124.1,85.3 M82.5,2.6c2.6,3.3,2.6,4.3-1.2,7.1L54.4,30c-0.9,0.6-1.1,1.7,0.7,1.7h38.4
		c9.2,0,10.8,2.1,10.8,10.8v11.1c0,2.2,0.7,3.8,3.6,3.8h24c3,0,3.6-1.5,3.6-3.8V37.1c0-4.7,1.2-5.3,5.4-5.3s5.4,0.5,5.4,5.3v16.6
		c0,10.1-2.6,12.7-12.7,12.7H0c0.7-6.5,6.5-8.9,14.1-8.9h76c2.3,0,3.3-0.6,3.3-2.8V43.6c0-2-0.5-2.8-3.3-2.8H47.9
		c-7,0-9.1-3.8-9.1-7c0-3,2.2-5.5,5-7.6l31.5-24C79.3-0.9,79.9-0.7,82.5,2.6 M157.1,6.2c0-4.7,1.2-5.3,5.4-5.3s5.4,0.5,5.4,5.3v47.5
		c0,2.2,0.7,3.8,3.6,3.8h35.3c3,0,3.6-1.5,3.6-3.8V37.1c0-4.7,1.2-5.3,5.4-5.3c4.3,0,5.4,0.5,5.4,5.3v16.6c0,2.2,0.7,3.8,3.6,3.8h24
		c3,0,3.6-1.5,3.6-3.8V37.1c0-4.7,1.2-5.3,5.4-5.3c4.2,0,5.4,0.5,5.4,5.3v16.6c0,2.2,0.7,3.8,3.6,3.8h18.1c3,0,3.6-1.5,3.6-3.8V37.1
		c0-4.7,1.2-5.3,5.4-5.3c4.3,0,5.4,0.5,5.4,5.3v16.6c0,10.1-2.6,12.7-12.7,12.7H169.5c-10.1,0-12.7-2.6-12.7-12.7V6.2L157.1,6.2
		L157.1,6.2z"/>
	<path class="st1" d="M249.8,146.9c0-12.8,11.6-29.6,34.2-29.6c2.6,0,3.4,1.7,3.4,4.1v11.2c0,3.2-0.2,4.2-3.9,4.2
		c-3.7,0-3.9-1-3.9-4.2v-5.9c0-1.1-0.2-1.2-0.6-1.2c-12.1,0-21,12.5-21,18.1c0,0.9,0.1,1.4,2.1,1.4h29.3c5.4,0,10,1.7,10.7,7.1
		h-44.5C252.2,152.1,249.8,151.1,249.8,146.9 M236.7,148.2v-22.4c0-0.5-0.2-0.6-0.9-0.6h-1.6c-3.3,0-4.2-0.9-4.2-3.7s1-3.7,4.2-3.7
		h6.8c2.3,0,3.7,1,3.7,3.6v26.9c0,3.7-1.1,4.2-4.1,4.2C237.6,152.3,236.7,151.7,236.7,148.2 M197,152.1c-7.5,0-9.5-2-9.5-9.3V93.1
		c0-3.7,1.1-4.1,4.3-4.1c3.3,0,4.3,0.5,4.3,4.1v49.7c0,1.5,0.4,2.2,2.1,2.2h22.1c2,0,2.1-0.5,2.1-1.4c0-3.7-5-13.9-20.5-18.7
		c-2.7-0.7-3-2.3-2.1-4.8c1.1-2.8,2.8-2.8,4.9-2.2c18.3,5.4,26.1,17.3,26.1,29c0,4.2-2.5,5.2-5.7,5.2L197,152.1L197,152.1z
		 M143.6,152.1c-3.2,0-5.7-1-5.7-5.2c0-17.8,19.6-29.6,27.1-29.6c2.6,0,3.4,1.7,3.4,4.1v11.2c0,3.2-0.2,4.2-3.9,4.2s-3.9-1-3.9-4.2
		v-5.8c0-0.2,0-0.2-0.2-0.2c-3.2,0-14.1,9.3-14.1,17.1c0,0.9,0.1,1.4,2.1,1.4h22.4c1.7,0,2.1-0.7,2.1-2.2v-30.4
		c0-3.7,1.1-4.2,4.3-4.2s4.3,0.6,4.3,4.2v30.4c0,7.4-2,9.3-9.5,9.3L143.6,152.1L143.6,152.1z M242.1,108.3l-1.8,1.8
		c-2.5,2.5-4.7,2.7-6.6,0.7c-2-2-1.7-4.2,0.6-6.6l1.8-2c2.5-2.3,4.7-2.7,6.6-0.6C244.8,103.6,244.5,105.7,242.1,108.3 M125.8,152.1
		c6.6,0,8.1-1.6,8.1-8.1v-3.7c0-6.5-1.4-8.1-8.1-8.1h-21.9c-0.2,0-0.5-0.1-0.5-0.4c0-0.9,9.3-6.6,26.9-7c2.7-0.1,3.3-1.2,3.2-3.8
		c-0.1-2.2-0.9-3.6-4.2-3.6c-23.4,0-36.7,11.4-36.7,17.6c0,2.7,1.6,4.4,7.6,4.4h23.1c1.7,0,2,0.4,2,1.6v2.3c0,1.4-0.4,1.6-2,1.6h-31
		c-5.4,0-10,1.7-10.6,7.1L125.8,152.1L125.8,152.1z"/>
</g>
</svg>
