<?xml version="1.0" encoding="utf-8"?>
<!-- Generator: Adobe Illustrator 20.0.0, SVG Export Plug-In . SVG Version: 6.00 Build 0)  -->
<svg version="1.1" id="Layer_1" xmlns="http://www.w3.org/2000/svg" xmlns:xlink="http://www.w3.org/1999/xlink" x="0px" y="0px"
	 viewBox="0 0 300 104.8" style="enable-background:new 0 0 300 104.8;" xml:space="preserve">
<style type="text/css">
	.st0{fill:#E31513;}
	.st1{fill:#FFFFFF;}
</style>
<g>
	<g>
		<rect x="100.8" y="5.6" class="st0" width="2.8" height="94.5"/>
		<path class="st0" d="M284.6,52.8v20.2c-2.8,1-7,1.6-11.2,1.6c-14.7,0-24-8.2-24-21.4c0-13.5,9.7-21.6,25.9-21.6
			c6.9,0,13.4,1.4,19.8,4.1l1.4,0.6V23.5l-0.6-0.2c-6.8-2.1-14-3.2-21.5-3.2c-24.2,0-41,14-41,33.9c0,19.2,15.7,32.1,39.1,32.1
			c9.5,0,19.5-2,26.9-5.2l0.6-0.2V52.7h-15.4C284.6,52.7,284.6,52.8,284.6,52.8z M226.9,70.2c-6,2.9-11.4,4.3-17.6,4.3
			c-14.1,0-23.4-8.4-23.4-21.4c0-13.2,9.3-21.6,23.7-21.6c7,0,10.9,1.7,16.3,4.2l1.4,0.6V23.5l-0.6-0.2c-4.8-1.8-9.5-3.3-17.3-3.3
			c-22.9,0-39.5,14.1-39.5,33.6c0,20,14.5,32.6,37.9,32.6c7.4,0,11.8-1.1,20.2-5l0.6-0.2l-0.4-11.2L226.9,70.2z M143.4,46.7
			c-6.4-2.8-12-5.2-12-9.5c0-5.3,6.3-5.8,9-5.8c5.4,0,11.2,1.4,17,3.9l1.4,0.6V23.5l-0.6-0.2c-4.8-2.1-11.4-3.2-18.2-3.2
			c-17,0-24.7,9.5-24.7,18.2c0,11.2,10.1,15.6,18.9,19.5c6.8,2.9,12.7,5.5,12.7,10.3s-5.8,6.5-11.2,6.5c-6.6,0-14-3.8-17.9-6.1
			l-1.5-0.9v12.4l0.5,0.2c5.4,3.3,10.3,5.8,19.2,5.8c16.1,0,27-7.6,27-18.9C162.9,55.2,152.1,50.5,143.4,46.7"/>
		<polygon class="st0" points="35.1,46.2 34.5,46.6 34.3,47.6 35.3,46.3 		"/>
		<polyline class="st0" points="33.8,45.7 33.8,44.7 34.6,44.3 34.8,44.5 		"/>
		<polygon class="st1" points="45.8,0 45.3,0.3 0,26.2 0,78.7 45.8,104.8 91.7,78.7 91.7,26.2 		"/>
		<path class="st0" d="M77.9,50.2L48.7,5c8,4.5,30.7,17.6,38.1,21.8L77.9,50.2z M76.6,53.2C75.7,54.6,48,96.7,45.8,99.8
			c-2.1-3.2-29.7-45.2-30.7-46.6C16,51.8,43.7,9.1,45.8,5.8C48,9.1,75.6,51.8,76.6,53.2 M13.8,50.2L5.1,26.7
			C12.5,22.5,35.3,9.5,43.2,5L13.8,50.2z M12.1,53.1L12.1,53.1v0.1L2.8,76.9V28.4L12.1,53.1z M13.8,56.1l29.3,44.5
			c-8-4.5-30.8-17.7-38.1-21.9L13.8,56.1z M77.9,56.1l8.8,22.7C79.4,83,56.6,96,48.5,100.7L77.9,56.1z M79.8,53.2L79.8,53.2v-0.1
			l9.3-24.7v48.5L79.8,53.2z"/>
		<path class="st1" d="M29.8,50.2c-0.6,0.9-2.6,3.3-4.9,4.9c1.1,0,3.3-0.5,5.8-3.3c0-0.4,0-0.6,0-0.9C30.5,51,30,50.7,29.8,50.2"/>
		<path class="st1" d="M33.1,59.8c-0.4,0-1.7,0.9-1.6,1.4c0.2,0.5,0.6,0.6,0.5,1.6c-0.1,0.4-0.4,1.2-1.1,1c-1-0.4-0.9-2.9-0.6-4.1
			c0.2-1.8,0.5-4.3,0.1-6.8l0,0c-1.5,1.4-2.7,2.2-3.8,2.6l0,0c0.1,1.5,0.1,3.1,0.4,3.9c0.2,1.2,0,6.3,3.7,6.6
			c1.5,0.1,2.8-0.6,3.3-2.3C34.3,62.2,34.2,59.8,33.1,59.8"/>
		<path class="st1" d="M43.3,58.7c-0.2,0.5-0.6,1.4-0.6,1.4s0.5,0.6,1.4,1c0,0-0.1-3.6-0.1-4.1C44,57.1,43.6,58.3,43.3,58.7"/>
		<path class="st1" d="M63,62.2c-0.2,0.6-0.5,1.8-0.5,2.2c-0.1,1.1,0,2.1,0.2,2.8c0.4,1,0.2,1.6,0.2,1.6c0.6-0.4,0.2-1.2,0.2-2.2
			s0.1-3.2,0.6-4.2c0.4-1.1,0.2-1.8,0.2-1.8C63.7,61.5,63.2,61.6,63,62.2"/>
		<path class="st1" d="M43.3,68.6c-0.2,0-0.5,0.6-0.5,1.1c0.5,0,1-0.1,1.4-0.2C43.8,69.1,43.7,68.6,43.3,68.6"/>
		<path class="st1" d="M42.8,66.8c-0.6-0.4-2.2-2.1-3.8-2.7c0,0,0.2,2.1,0,2.9c-0.2,1.1-0.4,1.7-0.1,2.1c0.2-0.4,0.5-0.9,1-0.9
			c0.2,0,0.4,0.1,0.5,0.2s0.2,0.4,0.4,0.5c0.1-0.4,0.5-0.7,0.9-0.7s0.7,0.4,0.9,0.7c0.1-0.4,0.4-0.9,0.7-0.9c0.6-0.1,1,0.5,1.2,0.9
			l0,0c0.2-0.5-0.1-1.4-0.1-2.2C44.3,66.8,43.3,67.3,42.8,66.8"/>
		<path class="st1" d="M39.8,68.8c-0.2,0-0.5,0.4-0.6,0.7c0.1,0.1,0.4,0.1,0.6,0.1c0.1,0,0.4,0,0.6,0.1c0-0.4-0.1-0.6-0.4-0.9
			L39.8,68.8z"/>
		<path class="st1" d="M41.7,68.8c-0.4,0-0.6,0.5-0.7,1c0.4,0,0.9,0,1.4,0C42.2,69.2,42,68.8,41.7,68.8"/>
		<path class="st1" d="M45.2,62.7c-0.1,0.1,0.2,0.6,0.7,1c0.2-0.5,0.2-0.9,0.1-1.2C45.6,62.7,45.2,62.7,45.2,62.7"/>
		<path class="st1" d="M44.3,64.2c-0.1,0.2,0.2,0.7,0.5,1.1c0.1-0.2,0.2-0.4,0.4-0.6c0.1-0.1,0.1-0.2,0.2-0.4
			C45.2,64.1,44.5,63.8,44.3,64.2"/>
		<path class="st1" d="M43.7,65.3l-0.1,0.1c-0.1,0.1,0.1,0.5,0.2,0.9c0.2-0.1,0.5-0.4,0.9-0.7C44.3,65.3,43.8,65.2,43.7,65.3"/>
		<path class="st1" d="M61.3,68.7c-0.2,0-0.5,0.6-0.6,1c0.5,0,1-0.1,1.2-0.2C61.8,69.1,61.6,68.6,61.3,68.7"/>
		<path class="st1" d="M65.9,56c0,0,0.1-1.8-0.5-7.5c-0.5-5.8-4.5-8.7-7.3-10.9c-2.7-2.1-10.1-3.7-12.2-3.9c-2.2-0.2-6,0.7-7.5,1
			c-1.5,0.2-3.4-0.5-6.1-0.2c-1.7,0.1-3.1,2.2-3.1,2.2s-1.6-0.1-2.3,1.8c-0.7,2-1,2.8-1.1,3.8c-0.2,1-0.1,3.3,0,4.2
			c0,0-0.1,2.5,0,4.7c0,0-0.1,0.7-2.3,2.3c1.8-0.1,2.5-0.9,2.5-0.9c0,0.2,0,0.4,0.1,0.6l0,0c1.8-1.7,3.2-3.6,3.2-3.6l0.2-0.2
			l1.6,1.2c0,0-0.2,0.6,0,1.4c0.1,0.4,0.1,0.7,0.1,0.7s0.6-0.2,0.9-1.1c0.1-1,0.5-1.2,0.9-1.5c0.5-0.4,1.1-0.5,2-1
			c0.6-0.4,1.4-1.5,1.6-2l0.2-0.5c0,0,0.9,1.2,1.1,1.6c0.2-0.2,0.6-0.7,0.7-1.2c0.2-0.7,0.5-1.7,0.6-2.5c0.1-0.5,0.2-1,0.2-1.2
			l0.2-0.7c0.4-0.9,0.9-2,0.9-3.2c0-0.7-0.2-1.5-0.7-2.1c-1.1-1.2-3.7-1.4-3.7-1.4s2.5-1,4.2,1c1.8,1.8,0.5,4.5-0.1,5.9l-0.2,0.6
			c-0.1,0.2-0.1,0.6-0.2,1.1c-0.1,0.9-0.4,1.7-0.6,2.6c-0.2,0.7-1.1,1.6-1.1,1.7L38,49.1c0,0-0.7-1-1-1.5c-0.2,0.5-0.7,1.2-1.4,1.6
			l1.6,2.3c0.4-1,0.7-1.2,0.7-1.2c-0.4,1.4-0.9,7-1.1,9.1s0.9,2.7,1.4,2.9c0.5,0.2,3.1,1.8,4.2,2.8c0.5,0.4,0.7,0.6,1.1,0.7
			c-0.1-0.4-0.4-0.7-0.1-1.1c0.1-0.1,0.2-0.2,0.5-0.2c0.1,0,0.4,0,0.6,0c-0.1-0.2-0.2-0.5-0.2-0.7c0-0.1,0-0.2,0.1-0.4
			c0.2-0.4,0.6-0.4,1-0.2C45.3,63,45,62.7,45,62.5v-0.2c0.1-0.4,0.5-0.4,0.9-0.4c-0.4-0.2-1-0.4-1.5-0.6c-0.6-0.2-2.3-1.2-2-1.8
			c0.2-0.6,1.4-2.8,1.6-3.7c0.6-2.3,1.7-3.2,1.7-3.2c-0.5,1.1-0.6,1.7-0.6,1.7c4.5,1.4,8.2,1,8.2,1c-0.6-1.6,0-2,0-2
			c0.2,3.3,3.3,6.1,4.1,7.7c0.7,1.6,0,4.8-0.4,6.8c-0.1,0.4,0,0.6,0.1,0.9c0.2-0.4,0.6-0.9,1.1-0.9c0.1,0,0.4,0.1,0.6,0.2
			c0.1,0.1,0.2,0.4,0.2,0.5c0.2-0.4,0.5-0.7,1-0.7s0.7,0.4,0.9,0.7c0.1-0.4,0.4-0.7,0.7-0.7c0.5,0,0.9,0.5,1.1,0.9
			c0.1-0.1,0.1-0.6,0-1.1c-0.4-1.1-0.5-2.2-0.5-3.1c0-0.6,0.1-1.8,0.5-2.9c0.5-1.2,1.4-1.8,1.1-2.8c-0.2-0.7-0.5-2.9-0.1-4.3
			c0.4-1.4,1.2-5.5,1.2-5.5c0.9,2.1,0.7,6.8,0.7,6.8c-0.2,3.3,1,4.4,1,4.4S67,59,67,57.7C66.4,57.1,65.9,56,65.9,56 M33,42.6
			c-0.1,0.4-0.7,1-0.7,1s-0.4-1.2,0.2-1.8s1.4-0.2,1.4-0.2S33.2,42.2,33,42.6 M39.8,38.7c0.9,1.5-0.4,2.9-0.4,2.9s0.2-1.7-0.1-2.5
			c-0.2-0.6-1.1-1.2-2.1-1.5C37.3,37.7,39,37.2,39.8,38.7"/>
		<path class="st1" d="M59.7,68.7c-0.4,0-0.6,0.6-0.7,1h0.9h0.5C60.1,69.2,59.8,68.7,59.7,68.7"/>
		<path class="st1" d="M57.8,68.6c-0.2,0-0.5,0.4-0.7,0.7c0.4,0.2,0.7,0.4,1.2,0.4c0-0.4-0.1-0.7-0.2-0.9L57.8,68.6z"/>
	</g>
</g>
</svg>
