<?xml version="1.0" encoding="utf-8"?>
<!-- Generator: Adobe Illustrator 20.0.0, SVG Export Plug-In . SVG Version: 6.00 Build 0)  -->
<svg version="1.1" id="Layer_1" xmlns="http://www.w3.org/2000/svg" xmlns:xlink="http://www.w3.org/1999/xlink" x="0px" y="0px"
	 viewBox="0 0 300 89.3" style="enable-background:new 0 0 300 89.3;" xml:space="preserve">
<style type="text/css">
	.st0{fill:#069548;}
</style>
<g>
	<g>
		<g>
			<g>
				<polygon class="st0" points="146.7,58 134.9,58 134.9,66.3 146.2,66.3 146.2,69.9 134.9,69.9 134.9,78.5 147.1,78.5 147.1,82.1 
					131,82.1 131,54.4 146.7,54.4 				"/>
				<rect x="155.7" y="54.4" class="st0" width="3.6" height="27.6"/>
				<path class="st0" d="M172.8,73.5h12.8c0-6.8-3.1-10-7.9-10c-5,0-8.5,3.7-8.5,9.2c0,5,3.2,9.7,8.8,9.7c3.1,0,5-0.7,7.2-2.2v-3.4
					c-2.1,1.4-4.2,2.2-6.4,2.2C175.4,79,173.3,77,172.8,73.5z M177.7,66.6c2.6,0,4.2,1.7,4.3,4.5h-9.1
					C173.3,68.2,175,66.6,177.7,66.6z"/>
				<path class="st0" d="M207.8,68.5c-2.1-1.5-3.4-1.8-5-1.8c-3.3,0-5.5,2.6-5.5,6.3c0,3.8,2.5,6,6.1,6c1.6,0,2.9-0.4,4.8-1.2v3.6
					c-1.2,0.6-3.6,1.1-5.4,1.1c-5.4,0-9.2-3.8-9.2-9.1c0-6,3.4-9.8,9-9.8c2.1,0,3.6,0.5,5.3,1.2v3.7H207.8z"/>
				<path class="st0" d="M223.5,63.8h5.8V67h-5.8v9.3c0,2.2,1.6,2.8,2.6,2.8c1.4,0,2.6-0.5,4.1-1.4V81c-1.2,0.7-3.2,1.2-4.4,1.2
					c-3.9,0-5.9-2.5-5.9-5.8v-9.6h-3.2v-0.4l6.8-6.6v3.8h0V63.8z"/>
				<path class="st0" d="M243.8,63.8V68h0.1c1.8-3.2,3.6-4.5,5.3-4.5c1.5,0,2.8,0.7,4.3,2.1l-2,3.2c-1.1-1.1-2.6-1.8-3.3-1.8
					c-2.5,0-4.4,2.6-4.4,5.7v9.5h-3.6V63.9h3.6L243.8,63.8L243.8,63.8z"/>
				<rect x="263.2" y="63.8" class="st0" width="3.6" height="18.3"/>
				<path class="st0" d="M291.7,68.5c-2.1-1.5-3.4-1.8-5-1.8c-3.3,0-5.5,2.6-5.5,6.3c0,3.8,2.5,6,6.1,6c1.6,0,2.9-0.4,4.8-1.2v3.6
					c-1.2,0.6-3.6,1.1-5.4,1.1c-5.4,0-9.2-3.8-9.2-9.1c0-6,3.4-9.8,9-9.8c2.1,0,3.6,0.5,5.3,1.2C291.7,64.7,291.7,68.5,291.7,68.5z"
					/>
			</g>
		</g>
		<g>
			<path class="st0" d="M267,57.2c0.4,0.9-0.2,2.1-1.4,2.8c-1.1,0.6-2.2,0.4-2.6-0.5s0.2-2.1,1.4-2.8
				C265.5,56.1,266.6,56.4,267,57.2z"/>
		</g>
	</g>
	<g>
		<g>
			<path class="st0" d="M75,67.1c0.1-0.2,0.2-0.5,0.2-0.6l0,0C75.1,66.7,75.1,67,75,67.1z M116.5,47.8c-7-7-21.6-4.7-32.4,5.8
				c-1.7,1.6-3.2,3.3-4.5,5.2h6l-1.4,3.9h-7.1c-0.7,1.2-1.2,2.5-1.7,3.7h8.4l-1.4,3.9h-8.2c-1.4,6-0.5,11.7,3.1,15.1
				c6.9,6.9,21.5,4.4,32.3-5.9c2-1.8,3.6-3.8,5-5.8h-7.7l1.1-3.9h9c0.6-1.2,1.2-2.5,1.7-3.7H109l1.1-3.9h9.8
				C120.9,56.5,120,51.4,116.5,47.8z M112.5,58.7h-5.9c-0.6,0-0.9,0.1-1.1,0.4c-0.1,0.1-0.1,0.2-0.1,0.5l-3.2,12.2
				c-0.7,4.3-6,8.5-12.8,8.5h-9.5l1.6-6.3h6c0.6,0,1.1-0.2,1.5-0.7c0.1-0.1,0.4-0.5,0.4-0.7L91.9,62c0.7-4.3,5.3-9,12-9h9.7
				L112.5,58.7z"/>
		</g>
	</g>
	<g>
		<path class="st0" d="M192.8,2.5c1,2.5-0.7,6-3.8,7.7c-3.1,1.8-6.3,1.2-7.1-1.2c-1-2.5,0.7-5.9,3.8-7.7
			C188.6-0.6,191.8,0,192.8,2.5z"/>
	</g>
	<g>
		<g>
			<path class="st0" d="M49.3,31.9c0-5.7,3.9-9.2,10-9.2c2.5,0,5.5,0.7,8.2,2.2v-7.5c-3.3-1.2-7.5-2.1-10.8-2.1
				c-10.6,0-18.1,6.9-18.1,16.7c0,10,7.2,16.5,18.6,16.5c3.4,0,6.8-0.7,10.8-2.2v-7.2c-4.4,1.6-6.6,2.2-9,2.2
				C53.1,41.4,49.3,37.6,49.3,31.9z M129.3,15.4c-4.1,0-7.2,1.5-10.4,5.2v-4.5h-10.1c0,0,0,14,0,22.7c3.9,0.4,7.4,1.8,10.1,4.4
				c0-6,0-15.7,0-15.7c2.6-3.9,4.5-5.3,7-5.3c2.8,0,5,1.8,5,6.4v19.5H141V27.7C141,18.2,134.3,15.4,129.3,15.4z M12.2,12.7
				c0-2.3,2.7-3.9,7-3.9c4.1,0,8.1,1.2,15,4.2V3.8c-5.9-2.6-10.7-3.7-16.1-3.7C7.2,0.1,0,5.5,0,13.7c0,17,24.1,14.1,24.1,21.9
				c0,2.8-2.5,4.3-7,4.3c-5.3,0-9.3-1.6-16.2-6.1v10.1c4.7,2.5,8.8,4.5,17.1,4.5c10.6,0,18.2-5.3,18.2-14.4
				C36.3,17.7,12.2,19.8,12.2,12.7z M92.4,15.4c-3.9,0-7.2,1.7-10.1,5.4h-0.1V0.7H72.1v47.2h10.1V27.5c2.3-3.4,4.4-4.8,6.8-4.8
				c3.1,0,5.2,2.2,5.2,7v11.4c3.4-1.5,6.8-2.3,10.1-2.6V27.4C104.1,18.9,98.2,15.4,92.4,15.4z M251.4,15.4c-9.8,0-16.8,7-16.8,16.8
				s7.2,16.5,18.6,16.5c2.5,0,8.5,0,14.3-4.3v-6.3c-4.7,3.3-7.9,4.5-11.9,4.5c-6.3,0-10.2-3.3-10.6-8.8h23
				C268.4,22,260.7,15.4,251.4,15.4z M245.1,28.4c0.4-4.4,2.9-7,7-7c3.9,0,6.5,2.6,7,7H245.1z M293.3,15.4c-3.9,0-7.2,3.1-10.2,9.8
				H283V16h-10.1v32.1H283V34.3c2.2-5.9,4.5-9.3,8.2-9.3c1.6,0,3.3,0.7,6,2.3l2.8-8.8C297,16.1,295.3,15.4,293.3,15.4z M220.2,17.3
				c-2.7-1.4-5.4-2-8.4-2c-9.1,0-15.5,6.8-15.5,16.6c0,9.6,6.4,16.6,15,16.6c3.4,0,6-0.9,8.8-3.2v2.6h10.1V0.6h-10.1L220.2,17.3
				L220.2,17.3z M220.2,39.2c-2.1,1.8-3.8,2.6-6,2.6c-4.7,0-7.7-3.9-7.7-9.7c0-6.4,2.9-10.1,8.1-10.1c1.8,0,4.2,0.9,5.7,1.8
				L220.2,39.2L220.2,39.2z M182.2,47.9h10.1V15.8h-10.1V47.9z M161.8,15.4c-9.8,0-16.8,7-16.8,16.8s7.2,16.5,18.6,16.5
				c2.5,0,8.5,0,14.3-4.3v-6.3c-4.7,3.3-7.9,4.5-11.8,4.5c-6.3,0-10.2-3.3-10.6-8.8h23C178.8,22,171.2,15.4,161.8,15.4z M155.6,28.4
				c0.4-4.4,2.9-7,7-7c3.9,0,6.5,2.6,7,7H155.6z"/>
		</g>
	</g>
	<g>
		<path class="st0" d="M296.7,59.5h-1v2.6h-0.4v-2.6h-1v-0.4h2.5v0.4H296.7z"/>
		<path class="st0" d="M299.9,61.9h-0.4v-2.3l0,0l-0.9,1.1h-0.1l-0.9-1.1l0,0v2.3h-0.4V59h0.4l1,1.2l1-1.2h0.4v2.9H299.9z"/>
	</g>
</g>
</svg>
