<?xml version="1.0" encoding="UTF-8"?>
<svg width="25px" height="26px" viewBox="0 0 25 26" version="1.1" xmlns="http://www.w3.org/2000/svg" xmlns:xlink="http://www.w3.org/1999/xlink">
    <!-- Generator: sketchtool 55.2 (78181) - https://sketchapp.com -->
    <title>386DE0B4-855A-4194-8498-69CEB47746D0</title>
    <desc>Created with sketchtool.</desc>
    <g id="Page-1" stroke="none" stroke-width="1" fill="none" fill-rule="evenodd">
        <g id="01_HomePage" transform="translate(-1558.000000, -39.000000)">
            <g id="search_icon" transform="translate(1558.000000, 39.000000)">
                <ellipse id="Oval" stroke="#1C195B" stroke-width="2" cx="11.0576923" cy="11.0740741" rx="10.0576923" ry="10.0740741"></ellipse>
                <path d="M7.55145728,5.7587348 C8.46933214,4.83950013 9.69167853,4.33333333 10.9933706,4.33333333 C12.2952974,4.33333333 13.5176438,4.83950013 14.4355187,5.7587348 C14.5294189,5.85277415 14.6524282,5.89979385 14.7754376,5.89979385 C14.8984469,5.89979385 15.0214562,5.85277415 15.1153565,5.7587348 C15.3031569,5.5706561 15.3031569,5.2659686 15.1153565,5.07788989 C14.0160194,3.97668907 12.5521146,3.37037037 10.9933706,3.37037037 C9.43486142,3.37037037 7.97095666,3.97668907 6.87161959,5.07788989 C6.68381911,5.2659686 6.68381911,5.5706561 6.87161959,5.7587348 C7.05942007,5.9468135 7.3636568,5.9468135 7.55145728,5.7587348 Z" id="Path" fill="#1C195B" fill-rule="nonzero"></path>
                <path d="M20.9255876,17.3368601 L21.4582542,17.3365742 C21.8608696,17.3363581 22.1874291,17.6625673 22.1876452,18.0651828 C22.1876454,18.0655612 22.1876453,18.0659397 22.187645,18.0663182 L22.1798013,25.7496991 C22.1793908,26.1518711 21.8533652,26.4777389 21.451193,26.4779547 L20.9185265,26.4782406 C20.515911,26.4784567 20.1893515,26.1522475 20.1891354,25.7496321 C20.1891352,25.7492536 20.1891353,25.7488751 20.1891357,25.7484966 L20.1969793,18.0651157 C20.1973899,17.6629437 20.5234155,17.3370759 20.9255876,17.3368601 Z" id="Rectangle" fill="#1C195B" transform="translate(21.188390, 21.907407) rotate(-45.000000) translate(-21.188390, -21.907407) "></path>
            </g>
        </g>
    </g>
</svg>