<?xml version="1.0" encoding="utf-8"?>
<!-- Generator: Adobe Illustrator 20.0.0, SVG Export Plug-In . SVG Version: 6.00 Build 0)  -->
<svg version="1.1" id="Layer_1" xmlns="http://www.w3.org/2000/svg" xmlns:xlink="http://www.w3.org/1999/xlink" x="0px" y="0px"
	 viewBox="0 0 300 260.1" style="enable-background:new 0 0 300 260.1;" xml:space="preserve">
<style type="text/css">
	.st0{fill:#EC1C24;}
	.st1{fill:#FFC10E;}
</style>
<g>
	<g>
		<g>
			<path class="st0" d="M276.2,193.3c0-6.1,4.7-10.9,10.7-10.9s10.7,4.8,10.7,10.9c0,6.4-4.7,11.1-10.7,11.1
				C280.9,204.6,276.2,199.8,276.2,193.3L276.2,193.3z M273.9,193.3c0,7.5,5.9,13,13,13s13-5.5,13-13c0-7.2-5.9-12.9-13-12.9
				C279.8,180.7,273.9,186.2,273.9,193.3L273.9,193.3z M281.9,200.9h2.3v-6.5h2.5l4.2,6.5h2.5l-4.3-6.6c2.2-0.2,3.9-1.4,3.9-4.1
				c0-2.9-1.7-4.3-5.3-4.3h-5.9v15H281.9z M284.2,187.8h3.2c1.6,0,3.3,0.4,3.3,2.3c0,2.5-2,2.5-4.1,2.5h-2.5L284.2,187.8
				L284.2,187.8z"/>
		</g>
	</g>
	<polyline class="st0" points="150,0.1 300,260 0,260 150,0.1 	"/>
	<path class="st1" d="M129.4,180.7h-10.2c-1.5,0-2.8,1.1-3.1,2.6l-8.6,46.9c-0.2,1.5,0.7,2.6,2.1,2.6h10.2c1.5,0,2.8-1.1,3.1-2.6
		l8.6-46.9C131.8,181.8,130.9,180.7,129.4,180.7"/>
	<path class="st1" d="M135.6,161.2l1.6-8.8c0.2-1.5-0.7-2.6-2.1-2.6h-10.2c-1.5,0-2.8,1.1-3.1,2.6l-1.6,8.8
		c-0.2,1.5,0.7,2.6,2.1,2.6h10.2C134,163.8,135.3,162.7,135.6,161.2"/>
	<path class="st1" d="M247.2,233.3c1.6-0.2,2.6-1.1,2.8-2.6l1.2-6.5c0.1-0.7-0.7-1.5-1.5-1.2c-5.3,1.8-6.6-1.4-6.4-3.2
		c0.1-0.9,2.6-19.2,3.1-23.5c0.5-4.4,1.4-11.7-6.9-14.9c-2.9-1.2-8.5-0.9-8.5-0.9h-22.9c-1.6,0-3.1,1-3.2,2.3l-1.2,5.7
		c-0.2,1.2,1,2.3,2.6,2.3c0,0,1.8,0.4,4.1,0.1c6.3-0.6,6.5-0.9,13.6-1.2c7-0.5,8.2,2.3,8.1,3.6c-0.1,1.2-0.6,4.2-0.6,4.2
		c-0.4,1.2-1.7,1.7-3.2,1.2c0,0-13.4-3.8-20.9-2c-6.3,1.5-15.8,4.9-16,19.4c0,3.8-6.5,5.3-8.1,2.7c-1.7-2.6-9.1-12-9.2-13.6
		c-0.1-1.5,13.1-8.1,16.2-20.4c0.2-1.1,0.5-4.1-1.7-4.1c-1.6,0-7.6,0-8.8,0s-2.7,0.2-4.1,3.1c-5.9,13.8-20.8,12.8-19.7,7.6
		c0.4-1.7,17.4-95.5,17.4-95.5c0.2-1.5-0.7-2.6-2.1-2.6h-10.2c-1.5,0-2.8,1.1-3.1,2.6l-24.1,134.4c-0.2,1.5,0.7,2.6,2.1,2.6h10.2
		c1.5,0,2.8-1.1,3.1-2.6l3.2-17.3l0,0c0.9-2.2,2.1-3.1,4.9-3.1c10.1,0,11.5,24,25.2,24c6.1,0,13.5-4.5,15-4.7
		c2.9-0.1,5.3,4.7,15.1,4.7c8.8,0,15.8-3.2,17.9-3.2c1.8,0,7.5,1.8,9.5,2.5C242.6,233.8,245.9,233.6,247.2,233.3z M251.3,224.3
		c0.1-0.7-0.7-1.5-1.5-1.2 M218.1,220.7c-6.4-0.2-11.5-3.4-11.3-7.1c0.1-3.7,5.5-6.6,11.9-6.4s11.5,3.4,11.4,7.1
		C229.8,218.1,224.5,220.8,218.1,220.7"/>
	<path class="st1" d="M60,233.1c0.7-0.4,1.2-0.9,1.6-1s1-0.1,1.8,0h0.1c7.1,1.6,33,7.2,38-22.9c0,0,8.8-91.3,8.8-91.5
		c0.1-1.1,1.5-13.3,18.6-8.5c5.8,1.6,6.1-1.2,6.3-1.7l2.1-11.3c0-3.2-2.6-2.3-7.5-2.9c-3.8-0.5-4.8,1.5-5.5,2
		c-0.9,0.5-3.8-0.1-8.2-0.1c-2.6,0-17.8,2.7-20.3,17.8l-8.6,87.6c-0.6,2.8,0.9,28.6-29.5,15.5c-5.2-2.2-7-0.9-7.4,1.8
		c-0.2,1.8-1.2,11.3-1.4,13.3c0,0.7,0.6,2,2.1,2.2c1.6,0.1,4.1,0.4,5.3,0.5c1.7,0.1,2.8-0.1,3.7-0.5L60,233.1"/>
</g>
</svg>
