<?xml version="1.0" encoding="utf-8"?>
<!-- Generator: Adobe Illustrator 20.0.0, SVG Export Plug-In . SVG Version: 6.00 Build 0)  -->
<svg version="1.1" id="Layer_1" xmlns="http://www.w3.org/2000/svg" xmlns:xlink="http://www.w3.org/1999/xlink" x="0px" y="0px"
	 viewBox="0 0 300 44.1" style="enable-background:new 0 0 300 44.1;" xml:space="preserve">
<style type="text/css">
	.st0{fill:#2F5D8B;}
</style>
<g>
	<path class="st0" d="M138.4,38.5c0,4.1-1.2,5.4-5,5.4c-2,0-4.3-0.1-5.8-0.2V0.5h10.6l18.5,27.4c0,0-0.2-1.1-0.2-3.4v-24h10.8v43.2
		c-1.8,0.1-4.4,0.2-6.9,0.2c-4.2,0-5.4-1.2-7.3-4.1c-1.7-2.6-14.8-22.4-14.8-22.4s0.2,1,0.2,4.3v16.8H138.4z"/>
	<path class="st0" d="M13.9,0.3C3.8,0.8,0,6.7,0,13.1S4.1,26,14.3,26.3c3.3,0.1,7.8-0.1,9.2,0c2.2,0.1,4.2,1.6,4.2,4.2
		c0,2.5-1.8,4.1-4.2,4.2c-1.5,0.1-16.2,0-16.2,0c-5.3,0-6.8,1.5-6.8,6.5v2.7c5,0.1,13.8,0.2,24.2,0.1c10.5-0.1,14.6-6.9,14.6-13.8
		s-4.4-13.7-14.6-13.8c-3.1,0-8.1,0.1-9.7,0c-1.8-0.1-3.6-1.5-3.6-3.8s1.7-3.7,3.6-3.8c1.6-0.1,14.5,0,14.5,0c5.3,0,6.8-1.5,6.8-6.5
		v-2C33.3,0.3,21.5,0.1,13.9,0.3L13.9,0.3z"/>
	<path class="st0" d="M186.7,0.3c-10.1,0.5-13.9,6.4-13.9,12.8s4.1,12.9,14.3,13.2c3.3,0.1,7.8-0.1,9.2,0c2.2,0.1,4.2,1.6,4.2,4.2
		c0,2.5-1.8,4.1-4.2,4.2c-1.5,0.1-16.2,0-16.2,0c-5.3,0-6.8,1.5-6.8,6.5v2.7c5,0.1,13.8,0.2,24.2,0.1c10.5-0.1,14.6-6.9,14.6-13.8
		s-4.4-13.7-14.6-13.8c-3.1,0-8.1,0.1-9.7,0c-1.8-0.1-3.6-1.5-3.6-3.8s1.7-3.7,3.6-3.8c1.6-0.1,14.5,0,14.5,0c5.3,0,6.8-1.5,6.8-6.5
		v-2C206.3,0.3,194.5,0.1,186.7,0.3L186.7,0.3z"/>
	<path class="st0" d="M126.3,43.7c-1.4,0.1-4.6,0.2-6.9,0.2c-3.6,0-6.2-0.5-7.1-3.8l-1.5-4.7H94.7l-1.5,4.7c-1,3.3-3.3,3.7-7,3.8
		c-3.3,0.1-6.2,0.1-9.6,0c-3.6-0.1-5.3-0.9-6.9-2.7L55.7,25c-0.4-0.4-0.5-0.6-0.5-1v14.4c0,4.1-1.2,5.3-5,5.3c-2,0-5.2-0.1-6.8-0.2
		V0.3h11.8v19.6c0.1-0.5,0.1-0.9,0.5-1.2L70,0.2h13.9l-18,20.9c0,0,14.8,16.1,15,16.2c0.2,0.4,0.4,0.6,0.4,0.6s0-0.4,0.1-0.7
		C81.5,36.8,96.3,0,96.3,0h12.6L126.3,43.7L126.3,43.7z M108.1,26.7l-5.3-17l-5.3,17c0,0,0.1-0.1,0.5-0.1h9.7
		C108,26.5,108.1,26.7,108.1,26.7L108.1,26.7z"/>
	<path class="st0" d="M300,43.7c-1.4,0.1-4.6,0.2-6.9,0.2c-3.6,0-6.2-0.5-7.1-3.8l-1.5-4.7h-16.1l-1.5,4.7c-1,3.3-3.3,3.7-7,3.8
		c-3.3,0.1-6.2,0.1-9.6,0c-3.6-0.1-5.3-0.9-6.9-2.7l-14-16.2c-0.4-0.4-0.5-0.6-0.5-1v14.4c0,4.1-1.2,5.3-5,5.3c-2,0-5.2-0.1-6.8-0.2
		V0.3h11.8v19.6c0.1-0.5,0.1-0.9,0.5-1.2l14.3-18.5h13.9l-18,20.9c0,0,14.8,16.1,15,16.2c0.2,0.4,0.4,0.6,0.4,0.6s0-0.4,0.1-0.7
		C255.2,36.8,270,0,270,0h12.6L300,43.7L300,43.7z M281.7,26.7l-5.3-17l-5.3,17c0,0,0.1-0.1,0.5-0.1h9.7
		C281.6,26.5,281.7,26.7,281.7,26.7L281.7,26.7z"/>
</g>
</svg>
