<?xml version="1.0" encoding="utf-8"?>
<!-- Generator: Adobe Illustrator 20.0.0, SVG Export Plug-In . SVG Version: 6.00 Build 0)  -->
<svg version="1.1" id="Layer_1" xmlns="http://www.w3.org/2000/svg" xmlns:xlink="http://www.w3.org/1999/xlink" x="0px" y="0px"
	 viewBox="0 0 300 87.4" style="enable-background:new 0 0 300 87.4;" xml:space="preserve">
<style type="text/css">
	.st0{fill:#00A1DF;}
	.st1{fill:#2E2A25;}
</style>
<g>
	<g>
		<polygon class="st0" points="78.9,57.4 103.8,63.7 103.8,63.7 103.8,57.4 		"/>
		<path class="st0" d="M103.8,17.2c0-0.1-0.1-0.2-0.4-0.2l-79.5,8.6c-0.2,0-0.4,0.1-0.4,0.2c0,0.1,0,0.2,0.2,0.2l37.5,7.6
			c2.6,0.5,3.9,2.1,3.8,4.4c-0.1,1.8-1.2,3.2-3.9,3.8c-0.4,0.1-37.4,6.6-37.4,6.6c-0.2,0-0.4,0.1-0.2,0.4c0,0.1,0.1,0.2,0.2,0.2
			l79.6-8.6c0.2,0,0.2-0.1,0.2-0.2s-0.1-0.2-0.2-0.2l-36.5-7.4c-3.3-0.7-4.3-2.6-4.2-4.4c0.1-2,2-3.6,4.8-3.9l35.9-6.6
			C103.7,17.6,103.9,17.5,103.8,17.2"/>
		<path class="st0" d="M103.6,65.9L103.6,65.9l-35.8-9.1c-2.1-0.6-3.2-2-3.2-3.6c0-1.6,1.4-2.9,3.4-3.3l35.5-6.4
			c0.2,0,0.2-0.1,0.2-0.4c0-0.1-0.1-0.2-0.4-0.2l-79.5,8.6c-0.2,0-0.2,0.1-0.4,0.2c0,0.1,0,0.2,0.2,0.2l79.6,14.3
			c0.2,0,0.2-0.1,0.4-0.2C103.8,66,103.8,65.9,103.6,65.9"/>
		<path class="st0" d="M14.8,46.5C15.2,55.1,18,72.7,35,72.9h61.1c16.8-0.1,19.7-17.7,20.2-26.4c0.1-1.5,0.1-2.7,0.1-4.7
			s-0.1-3.2-0.1-4.7c-0.4-8.6-3.2-26.2-20.2-26.4H35c-16.8,0.1-19.7,17.7-20.2,26.4c-0.1,1.5-0.1,2.7-0.1,4.7
			C14.6,43.8,14.7,45,14.8,46.5 M130.8,46.8c-0.4,9.5-2.9,28.6-18.3,28.9h-94C3.1,75.6,0.6,56.3,0.2,46.8c-0.1-1.6-0.2-2.9-0.2-5
			c0-2.2,0.1-3.6,0.2-5C0.6,27.3,3.1,8.2,18.5,7.9h94c15.4,0.1,17.9,19.4,18.3,28.9c0.1,1.6,0.1,2.9,0.1,5
			C131,43.9,131,45.2,130.8,46.8"/>
	</g>
	<g>
		<g>
			<path class="st1" d="M145.7,25l0.4,4.2c1.4,2.2,5,3.7,7.6,3.7c4.1,0,7.6-2.2,7.6-6.4c0-2.1-1.2-3.7-4.1-4.4l-6.8-2
				c-4.1-1.2-7-4.1-7-8.2c0-7.7,5.8-10.7,12.8-10.7c2.9,0,6.1,0.5,9,1.6l0.2,0.6c-0.5,1.6-0.6,4.3-0.6,6.9h-2l-0.2-3.9
				c-1.5-1.6-4.2-2.7-6.4-2.7c-4.4,0-6.6,2.6-6.6,5.8c0,2.2,1.6,3.8,5.2,4.7l5.5,1.5c4.4,1.1,7.3,3.9,7.3,8.2
				c0,8.2-6.8,11.6-14.1,11.6c-3.4,0-7-0.7-10.1-2.2c0.6-2.8,0.7-5.5,0.7-8.4L145.7,25L145.7,25L145.7,25z"/>
			<path class="st1" d="M172.4,19.3c0-2.7-0.1-3.3-1.2-3.3l-2.2-0.1v-1.7c3.3-0.1,6.1-1.1,9-2.1l0.2,0.2v3.6L182,13
				c1.2-0.9,2.6-0.9,3.7-0.9c2.8,0,5.2,1.2,6.1,3.9l3.8-2.9c1.2-0.9,2.6-0.9,3.7-0.9c5.2,0,6.8,2.6,6.8,9v9c0,1.1,0,1.8,0.2,2.2
				c0.1,0.5,0.5,0.7,1.6,0.9l1.6,0.1v1.7c-1.7,0-3.2-0.1-4.7-0.1s-2.9,0.1-4.4,0.1V21.9c0-2.3-0.4-3.6-1.2-4.4
				c-0.9-0.9-1.8-1.1-3.1-1.1c-2,0-3.8,1.8-3.8,3.3v10.4c0,1.1,0,1.8,0.2,2.2c0.1,0.5,0.5,0.7,1.6,0.9l1.7,0.1V35
				c-2.1,0-4.1-0.1-6.5-0.1c-2.1,0-4.2,0.1-6,0.1v-1.7l1.5-0.1c1,0,1.4-0.4,1.6-0.9c0.1-0.5,0.2-1.1,0.2-2.2V22
				c0-2.3-0.4-3.6-1.2-4.4c-0.9-0.9-1.8-1.1-3.1-1.1c-2,0-3.8,1.8-3.8,3.3v10.4c0,1.1,0,1.8,0.2,2.2c0.1,0.5,0.5,0.7,1.6,0.9
				l1.4,0.1v1.7c-1.7,0-3.7-0.1-6.1-0.1c-2.1,0-4.2,0.1-6.3,0.1v-1.7l1.7-0.1c1-0.1,1.4-0.4,1.6-0.9c0.1-0.5,0.2-1.1,0.2-2.2V19.3
				L172.4,19.3L172.4,19.3z"/>
			<path class="st1" d="M210.9,19.3c0-2.7-0.1-3.3-1.2-3.3l-2.2-0.1v-1.7c1.8-0.2,3.7-0.5,5.4-1l3.3-1.1l0.5,0.2v12.5
				c0,3.1,0.2,6.3,3.9,6.3c1.6,0,3.2-1.1,4.1-2.5c0.4-0.5,0.5-1.2,0.5-1.8v-7.5c0-2.7-0.1-3.3-1.2-3.3l-2.2-0.1v-1.7
				c1.8-0.2,3.7-0.5,5.4-1l3.3-1.1l0.5,0.2v17.6c0,1.1,0,1.8,0.2,2.2c0.1,0.5,0.5,0.7,1.6,0.9l1.6,0.1v1.7c-2,0-4.1-0.1-5.4-0.1
				c-0.9,0-2.2,0.1-4.1,0.1l0.2-4.1l-3.7,3.6c-0.6,0.6-2,1.1-3.1,1.1c-5.3,0-7.5-2.9-7.5-7.6L210.9,19.3L210.9,19.3z"/>
			<path class="st1" d="M239.3,19.2c0-2.7-0.1-3.3-1.2-3.3l-2.2-0.1v-1.7c1.8-0.2,3.7-0.5,5.4-1l3.3-1.1l0.5,0.2v4.5l2.1-2.3
				c1.4-1.5,2.5-2.6,3.8-2.6c0.9,0,1.6,0,2.1,0.2l-0.2,6.3l-1.1,0.5c-0.6-1.1-1.6-1.7-2.8-1.7c-1.8,0-3.8,1.7-3.8,3.1v9.6
				c0,1.1,0,1.8,0.2,2.2c0.1,0.5,1.1,0.7,2.1,0.9l1.8,0.1v1.7c-2.8,0-4.9-0.1-7.3-0.1c-2.1,0-4.2,0.1-6.3,0.1V33l1.7-0.1
				c1-0.1,1.4-0.4,1.6-0.9c0.1-0.5,0.2-1.1,0.2-2.2L239.3,19.2L239.3,19.2z"/>
			<path class="st1" d="M271.3,4.9l-0.7,0.4c-0.9-0.6-2-1.1-3.1-1.1c-2.9,0-3.1,2-3.1,4.4v5.2c2.2,0,4.4-0.1,6.3-0.2l0.2,0.4
				l-0.5,2.8h-6V30c0,1.1,0,1.8,0.2,2.2c0.1,0.5,1.2,0.7,2.2,0.9l2.2,0.1V35c-3.2,0-5.3-0.1-7.6-0.1c-2.1,0-4.2,0.1-6.8,0.1v-1.8
				l2-0.1c1,0,1.7-0.4,1.8-0.9c0.1-0.5,0.2-1.1,0.2-2.2V16.7l-3.8,0.2v-1.1c1.4-0.6,2.7-1.4,3.8-2.2v-2.1c0-3.8,0.2-4.5,2.7-6.6
				l3.6-2.9c2.2-1.8,3.3-2,4.5-2c0.6,0,1.4,0.1,2,0.2v4.7L271.3,4.9L271.3,4.9z"/>
			<path class="st1" d="M283,4.3c0,2-1.7,3.6-3.6,3.6c-2,0-3.6-1.6-3.6-3.6c0-2.1,1.6-3.7,3.6-3.7C281.4,0.6,283,2.1,283,4.3
				 M276.6,19.2c0-2.7-0.1-3.3-1.2-3.3l-2.2-0.1v-1.7c1.8-0.2,3.7-0.5,5.4-1l3.3-1.1l0.5,0.2v17.6c0,1.1,0,1.8,0.2,2.2
				c0.1,0.5,0.5,0.7,1.6,0.9l1.7,0.1v1.7c-2.1,0-4.1-0.1-6.5-0.1c-2.1,0-4.2,0.1-6.3,0.1V33l1.7-0.1c1-0.1,1.4-0.4,1.6-0.9
				c0.1-0.5,0.2-1.1,0.2-2.2V19.2L276.6,19.2L276.6,19.2z"/>
			<path class="st1" d="M288.6,16.6l-3.1,0.2v-1.1l3.2-2.1v-2.9c0-1.5-0.1-2.9-0.2-4.4c2.1-0.7,4.4-1.7,5.9-2.5l0.7,0.5
				c-0.4,2-0.6,4.3-0.6,6.5v2.8l5.5-0.2l-0.4,3.1h-5.2v11.4c0,2.5,0.9,3.1,2.9,3.1c1,0,1.6-0.2,2.2-0.6l0.4,0.9l-2.3,2.8
				c-0.4,0.5-1.4,0.9-2.9,0.9c-4.4,0-6.1-1.8-6.1-6.1C288.6,28.8,288.6,16.6,288.6,16.6z"/>
		</g>
		<g>
			<path class="st1" d="M146.1,48.7c0-2,0-3.3-0.4-3.9c-0.2-0.4-0.7-0.6-2-0.6l-1.8-0.1v-2c2,0,4.7,0.1,7.5,0.1s5.5-0.1,7.5-0.1v2
				l-1.7,0.1c-1.2,0.1-1.8,0.2-2,0.6c-0.2,0.6-0.4,1.8-0.4,3.9v9c0,0.2,0.2,0.2,0.5,0.2l9.1-8.8c1.1-1.1,2.7-2.8,3.8-4.1
				c0.5-0.6,0.7-1.1,0.7-1.7v-1.2c1.5,0,2.9,0.1,4.4,0.1s2.9-0.1,4.4-0.1v1.8c-2,0.2-3.8,0.2-5.3,1.6l-10.7,10l12.8,15.1
				c1,1.2,2.3,2.5,4.4,2.5v2c-1.6,0-3.2-0.1-4.9-0.1c-1.6,0-3.3,0.1-4.9,0.1l-10.1-12c-1.1-1.4-2.7-3.3-3.7-3.8
				c-0.4,0-0.5,0.2-0.5,0.5v8.7c0,2,0,3.3,0.4,3.9c0.2,0.4,0.7,0.6,2,0.6l1.7,0.1v2c-2,0-4.7-0.1-7.5-0.1c-2.9,0-5.5,0.1-7.5,0.1v-2
				l1.8-0.1c1.2-0.1,1.8-0.2,2-0.6c0.2-0.6,0.4-1.8,0.4-3.9V48.7L146.1,48.7z"/>
			<path class="st1" d="M190.2,63.5l-2.2,0.6c-2.6,0.7-4.4,1.2-4.4,4.4c0,2,1.1,2.9,2.6,2.9c1.5,0,3.4-1.2,4.1-2.2v-5.7H190.2z
				 M190.2,61.6c0-3.3-1.4-5.7-5-5.7c-0.9,0-2.5,0.2-2.7,0.6l-1.1,2.5l-1.5-0.4v-3.3l2.6-1.6c2.1-1.2,4.1-1.6,5.5-1.6
				c4.2,0,8.1,1.8,8,7c0,2-0.1,3.9-0.1,5.9c0,2,0.1,4.1,0.1,6c0,1.2,0.4,1.8,1.4,2l1.5,0.1v1.8c-1.6,0-2.8-0.1-4.2-0.1
				c-1.4,0-2.7,0.1-4.4,0.1l-0.2-0.4l0.2-2.9l-4.4,3.4c-0.7,0.6-1.7,0.6-2.7,0.6c-3.6,0-5.3-2.5-5.3-5.9c0-1.8,0.6-4.1,2.2-5.2
				c1.8-1.2,3.9-1.8,6-2.2L190.2,61.6z"/>
			<path class="st1" d="M206.8,69.7c1.1,1.7,2.9,2.7,4.9,2.7c4.4,0,5.7-4.8,5.7-8.5c0-3.8-1.7-7.5-6-7.5c-1.7,0-3.7,0.9-4.5,2.5
				L206.8,69.7L206.8,69.7z M200.9,59.5c0-2.7-0.1-3.3-1.2-3.3l-2.2-0.1v-1.7c1.8-0.2,3.7-0.5,5.4-1l3.3-1.1l0.5,0.2v3.9l2.9-2.3
				c1.2-1,2.5-1.8,5-1.8c5.2,0,8.7,3.9,8.7,9c0,2-0.5,3.9-1.1,5.5c-0.9,2.1-2.3,3.8-3.6,4.7c-1.1,0.9-2.5,2-3.8,2.8
				c-1.6,1-2.8,1.5-3.9,1.5c-1.5,0-2.9-0.5-4.3-0.9v7.5c0,1.1,0,1.8,0.2,2.2c0.1,0.5,0.5,0.7,1.6,0.9l2.2,0.1v1.8
				c-2.6,0-4.5-0.1-7-0.1c-2.1,0-4.2,0.1-6.3,0.1v-1.8l1.7-0.1c1-0.1,1.4-0.4,1.6-0.9c0.1-0.5,0.2-1.1,0.2-2.2V59.5L200.9,59.5
				L200.9,59.5z"/>
			<path class="st1" d="M232.8,69.7c1.1,1.7,2.9,2.7,4.9,2.7c4.4,0,5.7-4.8,5.7-8.5c0-3.8-1.7-7.5-6-7.5c-1.7,0-3.7,0.9-4.5,2.5
				L232.8,69.7L232.8,69.7z M226.9,59.5c0-2.7-0.1-3.3-1.2-3.3l-2.2-0.1v-1.7c1.8-0.2,3.7-0.5,5.4-1l3.3-1.1l0.5,0.2v3.9l2.9-2.3
				c1.2-1,2.5-1.8,5-1.8c5.2,0,8.7,3.9,8.7,9c0,2-0.5,3.9-1.1,5.5c-0.9,2.1-2.3,3.8-3.6,4.7c-1.1,0.9-2.5,2-3.8,2.8
				c-1.6,1-2.8,1.5-3.9,1.5c-1.5,0-2.9-0.5-4.3-0.9v7.5c0,1.1,0,1.8,0.2,2.2c0.1,0.5,0.5,0.7,1.6,0.9l2.2,0.1v1.8
				c-2.6,0-4.5-0.1-7-0.1c-2.1,0-4.2,0.1-6.3,0.1v-1.8l1.7-0.1c1-0.1,1.4-0.4,1.6-0.9c0.1-0.5,0.2-1.1,0.2-2.2V59.5L226.9,59.5
				L226.9,59.5z"/>
			<path class="st1" d="M262.3,63.5l-2.2,0.6c-2.6,0.7-4.4,1.2-4.4,4.4c0,2,1.1,2.9,2.6,2.9c1.5,0,3.4-1.2,4.1-2.2v-5.7H262.3z
				 M262.3,61.6c0-3.3-1.4-5.7-5-5.7c-0.9,0-2.5,0.2-2.7,0.6l-1.1,2.5l-1.5-0.4v-3.3l2.6-1.6c2.1-1.2,4.1-1.6,5.5-1.6
				c4.2,0,8.1,1.8,8,7c0,2-0.1,3.9-0.1,5.9c0,2,0.1,4.1,0.1,6c0,1.2,0.4,1.8,1.4,2l1.5,0.1v1.8c-1.6,0-2.8-0.1-4.3-0.1
				c-1.4,0-2.7,0.1-4.4,0.1l-0.2-0.4l0.2-2.9l-4.4,3.4c-0.7,0.6-1.8,0.6-2.7,0.6c-3.6,0-5.4-2.5-5.4-5.9c0-1.8,0.6-4.1,2.2-5.2
				c1.8-1.2,3.9-1.8,6-2.2L262.3,61.6z"/>
		</g>
	</g>
</g>
</svg>
