<?xml version="1.0" encoding="utf-8"?>
<!-- Generator: Adobe Illustrator 20.0.0, SVG Export Plug-In . SVG Version: 6.00 Build 0)  -->
<svg version="1.1" id="Layer_1" xmlns="http://www.w3.org/2000/svg" xmlns:xlink="http://www.w3.org/1999/xlink" x="0px" y="0px"
	 viewBox="0 0 300 52.4" style="enable-background:new 0 0 300 52.4;" xml:space="preserve">
<style type="text/css">
	.st0{fill:#66CDF5;}
	.st1{fill:#0086CD;}
	.st2{fill:#005AA9;}
	.st3{fill:#FFFFFF;}
</style>
<g>
	<path class="st0" d="M103.3,17.4c0,4.2,3.4,7.6,7.6,7.6s7.6-3.4,7.6-7.6s-3.4-7.6-7.6-7.6C106.8,9.7,103.3,13.2,103.3,17.4
		 M102.4,17.4c0-4.7,3.8-8.5,8.5-8.5s8.5,3.8,8.5,8.5s-3.8,8.5-8.5,8.5C106.3,25.8,102.4,22,102.4,17.4"/>
	<path class="st0" d="M103.3,26.2c0,4.2,3.4,7.6,7.6,7.6s7.6-3.4,7.6-7.6s-3.4-7.6-7.6-7.6S103.3,22,103.3,26.2 M102.4,26.2
		c0-4.7,3.8-8.5,8.5-8.5s8.5,3.8,8.5,8.5s-3.8,8.5-8.5,8.5S102.4,30.9,102.4,26.2"/>
	<path class="st0" d="M103.3,35c0,4.2,3.4,7.6,7.6,7.6s7.6-3.4,7.6-7.6s-3.4-7.6-7.6-7.6S103.3,30.9,103.3,35 M102.4,35
		c0-4.7,3.8-8.5,8.5-8.5s8.5,3.8,8.5,8.5s-3.8,8.5-8.5,8.5S102.4,39.7,102.4,35"/>
	<path class="st0" d="M94.5,17.4c0,4.2,3.4,7.6,7.6,7.6s7.6-3.4,7.6-7.6s-3.4-7.6-7.6-7.6C97.9,9.7,94.5,13.2,94.5,17.4 M93.6,17.4
		c0-4.7,3.8-8.5,8.5-8.5s8.5,3.8,8.5,8.5s-3.8,8.5-8.5,8.5C97.4,25.8,93.6,22,93.6,17.4"/>
	<path class="st0" d="M94.5,26.2c0,4.2,3.4,7.6,7.6,7.6s7.6-3.4,7.6-7.6s-3.4-7.6-7.6-7.6C97.9,18.6,94.5,22,94.5,26.2 M93.6,26.2
		c0-4.7,3.8-8.5,8.5-8.5s8.5,3.8,8.5,8.5s-3.8,8.5-8.5,8.5C97.4,34.7,93.6,30.9,93.6,26.2"/>
	<path class="st0" d="M94.5,35c0,4.2,3.4,7.6,7.6,7.6s7.6-3.4,7.6-7.6s-3.4-7.6-7.6-7.6C97.9,27.4,94.5,30.9,94.5,35 M93.6,35
		c0-4.7,3.8-8.5,8.5-8.5s8.5,3.8,8.5,8.5s-3.8,8.5-8.5,8.5C97.4,43.5,93.6,39.7,93.6,35"/>
	<path class="st0" d="M94.5,8.5c0,4.2,3.4,7.6,7.6,7.6s7.6-3.4,7.6-7.6s-3.4-7.6-7.6-7.6C97.9,0.9,94.5,4.3,94.5,8.5 M93.6,8.5
		c0-4.7,3.8-8.5,8.5-8.5s8.5,3.8,8.5,8.5s-3.8,8.5-8.5,8.5C97.4,17,93.6,13.2,93.6,8.5"/>
	<path class="st0" d="M94.5,43.9c0,4.2,3.4,7.6,7.6,7.6s7.6-3.4,7.6-7.6s-3.4-7.6-7.6-7.6C97.9,36.3,94.5,39.7,94.5,43.9 M93.6,43.9
		c0-4.7,3.8-8.5,8.5-8.5s8.5,3.8,8.5,8.5s-3.8,8.5-8.5,8.5C97.4,52.4,93.6,48.6,93.6,43.9"/>
	<path class="st0" d="M85.6,8.5c0,4.2,3.4,7.6,7.6,7.6s7.6-3.4,7.6-7.6s-3.4-7.6-7.6-7.6S85.6,4.3,85.6,8.5 M84.8,8.5
		c0-4.7,3.8-8.5,8.5-8.5s8.5,3.8,8.5,8.5S98,17,93.3,17S84.8,13.2,84.8,8.5"/>
	<path class="st0" d="M85.6,43.9c0,4.2,3.4,7.6,7.6,7.6s7.6-3.4,7.6-7.6s-3.4-7.6-7.6-7.6C89.1,36.3,85.6,39.7,85.6,43.9 M84.8,43.9
		c0-4.7,3.8-8.5,8.5-8.5s8.5,3.8,8.5,8.5s-3.8,8.5-8.5,8.5S84.8,48.6,84.8,43.9"/>
	<path class="st0" d="M76.8,8.5c0,4.2,3.4,7.6,7.6,7.6S92,12.7,92,8.5s-3.4-7.6-7.6-7.6S76.8,4.3,76.8,8.5 M75.9,8.5
		c0-4.7,3.8-8.5,8.5-8.5s8.5,3.8,8.5,8.5S89.1,17,84.4,17S75.9,13.2,75.9,8.5"/>
	<path class="st0" d="M76.8,43.9c0,4.2,3.4,7.6,7.6,7.6s7.6-3.4,7.6-7.6s-3.4-7.6-7.6-7.6S76.8,39.7,76.8,43.9 M75.9,43.9
		c0-4.7,3.8-8.5,8.5-8.5s8.5,3.8,8.5,8.5s-3.8,8.5-8.5,8.5S75.9,48.6,75.9,43.9"/>
	<path class="st0" d="M67.9,17.4c0,4.2,3.4,7.6,7.6,7.6s7.6-3.4,7.6-7.6s-3.4-7.6-7.6-7.6C71.4,9.7,67.9,13.2,67.9,17.4 M67.1,17.4
		c0-4.7,3.8-8.5,8.5-8.5s8.5,3.8,8.5,8.5s-3.8,8.5-8.5,8.5C70.9,25.8,67.1,22,67.1,17.4"/>
	<path class="st0" d="M67.9,26.2c0,4.2,3.4,7.6,7.6,7.6s7.6-3.4,7.6-7.6s-3.4-7.6-7.6-7.6C71.4,18.6,67.9,22,67.9,26.2 M67.1,26.2
		c0-4.7,3.8-8.5,8.5-8.5s8.5,3.8,8.5,8.5s-3.8,8.5-8.5,8.5S67.1,30.9,67.1,26.2"/>
	<path class="st0" d="M67.9,35c0,4.2,3.4,7.6,7.6,7.6s7.6-3.4,7.6-7.6s-3.4-7.6-7.6-7.6C71.4,27.4,67.9,30.9,67.9,35 M67.1,35
		c0-4.7,3.8-8.5,8.5-8.5s8.5,3.8,8.5,8.5s-3.8,8.5-8.5,8.5S67.1,39.7,67.1,35"/>
	<path class="st0" d="M67.9,8.5c0,4.2,3.4,7.6,7.6,7.6s7.6-3.4,7.6-7.6s-3.4-7.6-7.6-7.6C71.4,0.9,67.9,4.3,67.9,8.5 M67.1,8.5
		c0-4.7,3.8-8.5,8.5-8.5s8.5,3.8,8.5,8.5S80.3,17,75.6,17S67.1,13.2,67.1,8.5"/>
	<path class="st0" d="M67.9,43.9c0,4.2,3.4,7.6,7.6,7.6s7.6-3.4,7.6-7.6s-3.4-7.6-7.6-7.6C71.4,36.3,67.9,39.7,67.9,43.9 M67.1,43.9
		c0-4.7,3.8-8.5,8.5-8.5s8.5,3.8,8.5,8.5s-3.8,8.5-8.5,8.5S67.1,48.6,67.1,43.9"/>
	<path class="st0" d="M59.1,17.4c0,4.2,3.4,7.6,7.6,7.6s7.6-3.4,7.6-7.6s-3.4-7.6-7.6-7.6C62.5,9.7,59.1,13.2,59.1,17.4 M58.2,17.4
		c0-4.7,3.8-8.5,8.5-8.5s8.5,3.8,8.5,8.5s-3.8,8.5-8.5,8.5C62,25.8,58.2,22,58.2,17.4"/>
	<path class="st0" d="M59.1,26.2c0,4.2,3.4,7.6,7.6,7.6s7.6-3.4,7.6-7.6s-3.4-7.6-7.6-7.6C62.5,18.6,59.1,22,59.1,26.2 M58.2,26.2
		c0-4.7,3.8-8.5,8.5-8.5s8.5,3.8,8.5,8.5s-3.8,8.5-8.5,8.5S58.2,30.9,58.2,26.2"/>
	<path class="st0" d="M59.1,35c0,4.2,3.4,7.6,7.6,7.6s7.6-3.4,7.6-7.6s-3.4-7.6-7.6-7.6S59.1,30.9,59.1,35 M58.2,35
		c0-4.7,3.8-8.5,8.5-8.5s8.5,3.8,8.5,8.5s-3.8,8.5-8.5,8.5S58.2,39.7,58.2,35"/>
	<path class="st0" d="M164.4,17.4c0,4.2,3.4,7.6,7.6,7.6s7.6-3.4,7.6-7.6s-3.4-7.6-7.6-7.6C167.8,9.7,164.4,13.2,164.4,17.4
		 M163.7,17.4c0-4.7,3.8-8.5,8.5-8.5s8.5,3.8,8.5,8.5s-3.8,8.5-8.5,8.5C167.3,25.8,163.7,22,163.7,17.4"/>
	<path class="st0" d="M164.4,26.2c0,4.2,3.4,7.6,7.6,7.6s7.6-3.4,7.6-7.6s-3.4-7.6-7.6-7.6S164.4,22,164.4,26.2 M163.7,26.2
		c0-4.7,3.8-8.5,8.5-8.5s8.5,3.8,8.5,8.5s-3.8,8.5-8.5,8.5C167.3,34.7,163.7,30.9,163.7,26.2"/>
	<path class="st0" d="M164.4,35c0,4.2,3.4,7.6,7.6,7.6s7.6-3.4,7.6-7.6s-3.4-7.6-7.6-7.6S164.4,30.9,164.4,35 M163.7,35
		c0-4.7,3.8-8.5,8.5-8.5s8.5,3.8,8.5,8.5s-3.8,8.5-8.5,8.5C167.3,43.5,163.7,39.7,163.7,35"/>
	<path class="st0" d="M164.4,8.5c0,4.2,3.4,7.6,7.6,7.6s7.6-3.4,7.6-7.6s-3.4-7.6-7.6-7.6S164.4,4.3,164.4,8.5 M163.7,8.5
		c0-4.7,3.8-8.5,8.5-8.5s8.5,3.8,8.5,8.5s-3.8,8.5-8.5,8.5C167.3,17,163.7,13.2,163.7,8.5"/>
	<path class="st0" d="M164.4,43.9c0,4.2,3.4,7.6,7.6,7.6s7.6-3.4,7.6-7.6s-3.4-7.6-7.6-7.6C167.8,36.3,164.4,39.7,164.4,43.9
		 M163.7,43.9c0-4.7,3.8-8.5,8.5-8.5s8.5,3.8,8.5,8.5s-3.8,8.5-8.5,8.5C167.3,52.4,163.7,48.6,163.7,43.9"/>
	<path class="st0" d="M155.5,17.4c0,4.2,3.4,7.6,7.6,7.6c4.2,0,7.6-3.4,7.6-7.6s-3.4-7.6-7.6-7.6C159,9.7,155.5,13.2,155.5,17.4
		 M154.8,17.4c0-4.7,3.8-8.5,8.5-8.5s8.5,3.8,8.5,8.5s-3.8,8.5-8.5,8.5C158.5,25.8,154.8,22,154.8,17.4"/>
	<path class="st0" d="M155.5,26.2c0,4.2,3.4,7.6,7.6,7.6c4.2,0,7.6-3.4,7.6-7.6s-3.4-7.6-7.6-7.6S155.5,22,155.5,26.2 M154.8,26.2
		c0-4.7,3.8-8.5,8.5-8.5s8.5,3.8,8.5,8.5s-3.8,8.5-8.5,8.5C158.5,34.7,154.8,30.9,154.8,26.2"/>
	<path class="st0" d="M155.5,35c0,4.2,3.4,7.6,7.6,7.6c4.2,0,7.6-3.4,7.6-7.6s-3.4-7.6-7.6-7.6S155.5,30.9,155.5,35 M154.8,35
		c0-4.7,3.8-8.5,8.5-8.5s8.5,3.8,8.5,8.5s-3.8,8.5-8.5,8.5C158.5,43.5,154.8,39.7,154.8,35"/>
	<path class="st0" d="M155.5,8.5c0,4.2,3.4,7.6,7.6,7.6c4.2,0,7.6-3.4,7.6-7.6s-3.4-7.6-7.6-7.6S155.5,4.3,155.5,8.5 M154.8,8.5
		c0-4.7,3.8-8.5,8.5-8.5s8.5,3.8,8.5,8.5S168,17,163.3,17C158.5,17,154.8,13.2,154.8,8.5"/>
	<path class="st0" d="M155.5,43.9c0,4.2,3.4,7.6,7.6,7.6c4.2,0,7.6-3.4,7.6-7.6s-3.4-7.6-7.6-7.6C159,36.3,155.5,39.7,155.5,43.9
		 M154.8,43.9c0-4.7,3.8-8.5,8.5-8.5s8.5,3.8,8.5,8.5s-3.8,8.5-8.5,8.5C158.5,52.4,154.8,48.6,154.8,43.9"/>
	<path class="st0" d="M146.7,26.2c0,4.2,3.4,7.6,7.6,7.6c4.2,0,7.6-3.4,7.6-7.6s-3.4-7.6-7.6-7.6C150.1,18.6,146.7,22,146.7,26.2
		 M146,26.2c0-4.7,3.8-8.5,8.5-8.5s8.5,3.8,8.5,8.5s-3.8,8.5-8.5,8.5C149.6,34.7,146,30.9,146,26.2"/>
	<path class="st0" d="M146.7,35c0,4.2,3.4,7.6,7.6,7.6c4.2,0,7.6-3.4,7.6-7.6s-3.4-7.6-7.6-7.6S146.7,30.9,146.7,35 M146,35
		c0-4.7,3.8-8.5,8.5-8.5s8.5,3.8,8.5,8.5s-3.8,8.5-8.5,8.5C149.6,43.5,146,39.7,146,35"/>
	<path class="st0" d="M137.8,17.4c0,4.2,3.4,7.6,7.6,7.6c4.2,0,7.6-3.4,7.6-7.6s-3.4-7.6-7.6-7.6C141.3,9.7,137.8,13.2,137.8,17.4
		 M137.1,17.4c0-4.7,3.8-8.5,8.5-8.5s8.5,3.8,8.5,8.5s-3.8,8.5-8.5,8.5C140.8,25.8,137.1,22,137.1,17.4"/>
	<path class="st0" d="M137.8,26.2c0,4.2,3.4,7.6,7.6,7.6c4.2,0,7.6-3.4,7.6-7.6s-3.4-7.6-7.6-7.6C141.3,18.6,137.8,22,137.8,26.2
		 M137.1,26.2c0-4.7,3.8-8.5,8.5-8.5s8.5,3.8,8.5,8.5s-3.8,8.5-8.5,8.5C140.8,34.7,137.1,30.9,137.1,26.2"/>
	<path class="st0" d="M129,17.4c0,4.2,3.4,7.6,7.6,7.6c4.2,0,7.6-3.4,7.6-7.6s-3.4-7.6-7.6-7.6C132.4,9.7,129,13.2,129,17.4
		 M128.3,17.4c0-4.7,3.8-8.5,8.5-8.5s8.5,3.8,8.5,8.5s-3.8,8.5-8.5,8.5C132.1,25.8,128.3,22,128.3,17.4"/>
	<path class="st0" d="M129,26.2c0,4.2,3.4,7.6,7.6,7.6c4.2,0,7.6-3.4,7.6-7.6s-3.4-7.6-7.6-7.6C132.4,18.6,129,22,129,26.2
		 M128.3,26.2c0-4.7,3.8-8.5,8.5-8.5s8.5,3.8,8.5,8.5s-3.8,8.5-8.5,8.5C132.1,34.7,128.3,30.9,128.3,26.2"/>
	<path class="st0" d="M129,35c0,4.2,3.4,7.6,7.6,7.6c4.2,0,7.6-3.4,7.6-7.6s-3.4-7.6-7.6-7.6S129,30.9,129,35 M128.3,35
		c0-4.7,3.8-8.5,8.5-8.5s8.5,3.8,8.5,8.5s-3.8,8.5-8.5,8.5C132.1,43.5,128.3,39.7,128.3,35"/>
	<path class="st0" d="M129,8.5c0,4.2,3.4,7.6,7.6,7.6c4.2,0,7.6-3.4,7.6-7.6s-3.4-7.6-7.6-7.6S129,4.3,129,8.5 M128.3,8.5
		c0-4.7,3.8-8.5,8.5-8.5s8.5,3.8,8.5,8.5s-3.8,8.5-8.5,8.5C132.1,17,128.3,13.2,128.3,8.5"/>
	<path class="st0" d="M129,43.9c0,4.2,3.4,7.6,7.6,7.6c4.2,0,7.6-3.4,7.6-7.6s-3.4-7.6-7.6-7.6S129,39.7,129,43.9 M128.3,43.9
		c0-4.7,3.8-8.5,8.5-8.5s8.5,3.8,8.5,8.5s-3.8,8.5-8.5,8.5C132.1,52.4,128.3,48.6,128.3,43.9"/>
	<path class="st0" d="M120.1,17.4c0,4.2,3.4,7.6,7.6,7.6c4.2,0,7.6-3.4,7.6-7.6s-3.4-7.6-7.6-7.6C123.6,9.7,120.1,13.2,120.1,17.4
		 M119.4,17.4c0-4.7,3.8-8.5,8.5-8.5s8.5,3.8,8.5,8.5s-3.8,8.5-8.5,8.5C123.2,25.8,119.4,22,119.4,17.4"/>
	<path class="st0" d="M120.1,26.2c0,4.2,3.4,7.6,7.6,7.6c4.2,0,7.6-3.4,7.6-7.6s-3.4-7.6-7.6-7.6C123.6,18.6,120.1,22,120.1,26.2
		 M119.4,26.2c0-4.7,3.8-8.5,8.5-8.5s8.5,3.8,8.5,8.5s-3.8,8.5-8.5,8.5S119.4,30.9,119.4,26.2"/>
	<path class="st0" d="M120.1,35c0,4.2,3.4,7.6,7.6,7.6c4.2,0,7.6-3.4,7.6-7.6s-3.4-7.6-7.6-7.6C123.6,27.4,120.1,30.9,120.1,35
		 M119.4,35c0-4.7,3.8-8.5,8.5-8.5s8.5,3.8,8.5,8.5s-3.8,8.5-8.5,8.5S119.4,39.7,119.4,35"/>
	<path class="st0" d="M120.1,8.5c0,4.2,3.4,7.6,7.6,7.6c4.2,0,7.6-3.4,7.6-7.6s-3.4-7.6-7.6-7.6C123.6,0.9,120.1,4.3,120.1,8.5
		 M119.4,8.5c0-4.7,3.8-8.5,8.5-8.5s8.5,3.8,8.5,8.5s-3.8,8.5-8.5,8.5S119.4,13.2,119.4,8.5"/>
	<path class="st0" d="M120.1,43.9c0,4.2,3.4,7.6,7.6,7.6c4.2,0,7.6-3.4,7.6-7.6s-3.4-7.6-7.6-7.6C123.6,36.3,120.1,39.7,120.1,43.9
		 M119.4,43.9c0-4.7,3.8-8.5,8.5-8.5s8.5,3.8,8.5,8.5s-3.8,8.5-8.5,8.5S119.4,48.6,119.4,43.9"/>
	<path class="st0" d="M225.5,35c0,4.2,3.4,7.6,7.6,7.6c4.2,0,7.6-3.4,7.6-7.6s-3.4-7.6-7.6-7.6S225.5,30.9,225.5,35 M224.7,35
		c0-4.7,3.8-8.5,8.5-8.5s8.5,3.8,8.5,8.5s-3.8,8.5-8.5,8.5S224.7,39.7,224.7,35"/>
	<path class="st0" d="M225.5,43.9c0,4.2,3.4,7.6,7.6,7.6c4.2,0,7.6-3.4,7.6-7.6s-3.4-7.6-7.6-7.6S225.5,39.7,225.5,43.9 M224.7,43.9
		c0-4.7,3.8-8.5,8.5-8.5s8.5,3.8,8.5,8.5s-3.8,8.5-8.5,8.5S224.7,48.6,224.7,43.9"/>
	<path class="st0" d="M216.7,17.4c0,4.2,3.4,7.6,7.6,7.6c4.2,0,7.6-3.4,7.6-7.6s-3.4-7.6-7.6-7.6C220.1,9.7,216.7,13.2,216.7,17.4
		 M215.9,17.4c0-4.7,3.8-8.5,8.5-8.5s8.5,3.8,8.5,8.5s-3.8,8.5-8.5,8.5C219.7,25.8,215.9,22,215.9,17.4"/>
	<path class="st0" d="M216.7,26.2c0,4.2,3.4,7.6,7.6,7.6c4.2,0,7.6-3.4,7.6-7.6s-3.4-7.6-7.6-7.6C220.1,18.6,216.7,22,216.7,26.2
		 M215.9,26.2c0-4.7,3.8-8.5,8.5-8.5s8.5,3.8,8.5,8.5s-3.8,8.5-8.5,8.5S215.9,30.9,215.9,26.2"/>
	<path class="st0" d="M216.7,35c0,4.2,3.4,7.6,7.6,7.6c4.2,0,7.6-3.4,7.6-7.6s-3.4-7.6-7.6-7.6S216.7,30.9,216.7,35 M215.9,35
		c0-4.7,3.8-8.5,8.5-8.5s8.5,3.8,8.5,8.5s-3.8,8.5-8.5,8.5S215.9,39.7,215.9,35"/>
	<path class="st0" d="M216.7,43.9c0,4.2,3.4,7.6,7.6,7.6c4.2,0,7.6-3.4,7.6-7.6s-3.4-7.6-7.6-7.6S216.7,39.7,216.7,43.9 M215.9,43.9
		c0-4.7,3.8-8.5,8.5-8.5s8.5,3.8,8.5,8.5s-3.8,8.5-8.5,8.5S215.9,48.6,215.9,43.9"/>
	<path class="st0" d="M207.9,35c0,4.2,3.4,7.6,7.6,7.6c4.2,0,7.6-3.4,7.6-7.6s-3.4-7.6-7.6-7.6C211.2,27.4,207.9,30.9,207.9,35
		 M207,35c0-4.7,3.8-8.5,8.5-8.5s8.5,3.8,8.5,8.5s-3.8,8.5-8.5,8.5S207,39.7,207,35"/>
	<path class="st0" d="M207.9,8.5c0,4.2,3.4,7.6,7.6,7.6c4.2,0,7.6-3.4,7.6-7.6s-3.4-7.6-7.6-7.6C211.2,0.9,207.9,4.3,207.9,8.5
		 M207,8.5c0-4.7,3.8-8.5,8.5-8.5s8.5,3.8,8.5,8.5s-3.8,8.5-8.5,8.5S207,13.2,207,8.5"/>
	<path class="st0" d="M199,35c0,4.2,3.4,7.6,7.6,7.6s7.6-3.4,7.6-7.6s-3.4-7.6-7.6-7.6S199,30.9,199,35 M198.2,35
		c0-4.7,3.8-8.5,8.5-8.5s8.5,3.8,8.5,8.5s-3.8,8.5-8.5,8.5S198.2,39.7,198.2,35"/>
	<path class="st0" d="M199,8.5c0,4.2,3.4,7.6,7.6,7.6s7.6-3.4,7.6-7.6s-3.4-7.6-7.6-7.6S199,4.3,199,8.5 M198.2,8.5
		c0-4.7,3.8-8.5,8.5-8.5s8.5,3.8,8.5,8.5s-3.8,8.5-8.5,8.5S198.2,13.2,198.2,8.5"/>
	<path class="st0" d="M190.2,17.4c0,4.2,3.4,7.6,7.6,7.6s7.6-3.4,7.6-7.6s-3.4-7.6-7.6-7.6C193.6,9.7,190.2,13.2,190.2,17.4
		 M189.3,17.4c0-4.7,3.8-8.5,8.5-8.5s8.5,3.8,8.5,8.5s-3.8,8.5-8.5,8.5C193.1,25.8,189.3,22,189.3,17.4"/>
	<path class="st0" d="M190.2,26.2c0,4.2,3.4,7.6,7.6,7.6s7.6-3.4,7.6-7.6s-3.4-7.6-7.6-7.6S190.2,22,190.2,26.2 M189.3,26.2
		c0-4.7,3.8-8.5,8.5-8.5s8.5,3.8,8.5,8.5s-3.8,8.5-8.5,8.5C193.1,34.7,189.3,30.9,189.3,26.2"/>
	<path class="st0" d="M190.2,35c0,4.2,3.4,7.6,7.6,7.6s7.6-3.4,7.6-7.6s-3.4-7.6-7.6-7.6S190.2,30.9,190.2,35 M189.3,35
		c0-4.7,3.8-8.5,8.5-8.5s8.5,3.8,8.5,8.5s-3.8,8.5-8.5,8.5C193.1,43.5,189.3,39.7,189.3,35"/>
	<path class="st0" d="M190.2,43.9c0,4.2,3.4,7.6,7.6,7.6s7.6-3.4,7.6-7.6s-3.4-7.6-7.6-7.6S190.2,39.7,190.2,43.9 M189.3,43.9
		c0-4.7,3.8-8.5,8.5-8.5s8.5,3.8,8.5,8.5s-3.8,8.5-8.5,8.5C193.1,52.4,189.3,48.6,189.3,43.9"/>
	<path class="st0" d="M181.4,35c0,4.2,3.4,7.6,7.6,7.6s7.6-3.4,7.6-7.6s-3.4-7.6-7.6-7.6C184.8,27.4,181.4,30.9,181.4,35 M180.5,35
		c0-4.7,3.8-8.5,8.5-8.5s8.5,3.8,8.5,8.5s-3.8,8.5-8.5,8.5S180.5,39.7,180.5,35"/>
	<path class="st0" d="M181.4,43.9c0,4.2,3.4,7.6,7.6,7.6s7.6-3.4,7.6-7.6s-3.4-7.6-7.6-7.6C184.8,36.3,181.4,39.7,181.4,43.9
		 M180.5,43.9c0-4.7,3.8-8.5,8.5-8.5s8.5,3.8,8.5,8.5s-3.8,8.5-8.5,8.5S180.5,48.6,180.5,43.9"/>
	<path class="st0" d="M283.9,8.5c0,4.2,3.4,7.6,7.6,7.6c4.2,0,7.6-3.4,7.6-7.6s-3.4-7.6-7.6-7.6C287.3,0.9,283.9,4.3,283.9,8.5
		 M283,8.5c0-4.7,3.8-8.5,8.5-8.5c4.7,0,8.5,3.8,8.5,8.5s-3.8,8.5-8.5,8.5C286.8,17,283,13.2,283,8.5"/>
	<path class="st0" d="M283.9,43.9c0,4.2,3.4,7.6,7.6,7.6c4.2,0,7.6-3.4,7.6-7.6s-3.4-7.6-7.6-7.6C287.3,36.3,283.9,39.7,283.9,43.9
		 M283,43.9c0-4.7,3.8-8.5,8.5-8.5c4.7,0,8.5,3.8,8.5,8.5s-3.8,8.5-8.5,8.5C286.8,52.4,283,48.6,283,43.9"/>
	<path class="st0" d="M275,26.2c0,4.2,3.4,7.6,7.6,7.6c4.2,0,7.6-3.4,7.6-7.6s-3.4-7.6-7.6-7.6C278.4,18.6,275,22,275,26.2
		 M274.1,26.2c0-4.7,3.8-8.5,8.5-8.5c4.7,0,8.5,3.8,8.5,8.5s-3.8,8.5-8.5,8.5C277.9,34.7,274.1,30.9,274.1,26.2"/>
	<path class="st0" d="M275,8.5c0,4.2,3.4,7.6,7.6,7.6c4.2,0,7.6-3.4,7.6-7.6s-3.4-7.6-7.6-7.6C278.4,0.9,275,4.3,275,8.5 M274.1,8.5
		c0-4.7,3.8-8.5,8.5-8.5c4.7,0,8.5,3.8,8.5,8.5s-3.8,8.5-8.5,8.5C277.9,17,274.1,13.2,274.1,8.5"/>
	<path class="st0" d="M275,43.9c0,4.2,3.4,7.6,7.6,7.6c4.2,0,7.6-3.4,7.6-7.6s-3.4-7.6-7.6-7.6C278.4,36.3,275,39.7,275,43.9
		 M274.1,43.9c0-4.7,3.8-8.5,8.5-8.5c4.7,0,8.5,3.8,8.5,8.5s-3.8,8.5-8.5,8.5C277.9,52.4,274.1,48.6,274.1,43.9"/>
	<path class="st0" d="M266.2,26.2c0,4.2,3.4,7.6,7.6,7.6c4.2,0,7.6-3.4,7.6-7.6s-3.4-7.6-7.6-7.6C269.6,18.6,266.2,22,266.2,26.2
		 M265.3,26.2c0-4.7,3.8-8.5,8.5-8.5c4.7,0,8.5,3.8,8.5,8.5s-3.8,8.5-8.5,8.5C269.1,34.7,265.3,30.9,265.3,26.2"/>
	<path class="st0" d="M266.2,8.5c0,4.2,3.4,7.6,7.6,7.6c4.2,0,7.6-3.4,7.6-7.6s-3.4-7.6-7.6-7.6C269.6,0.9,266.2,4.3,266.2,8.5
		 M265.3,8.5c0-4.7,3.8-8.5,8.5-8.5c4.7,0,8.5,3.8,8.5,8.5s-3.8,8.5-8.5,8.5C269.1,17,265.3,13.2,265.3,8.5"/>
	<path class="st0" d="M266.2,43.9c0,4.2,3.4,7.6,7.6,7.6c4.2,0,7.6-3.4,7.6-7.6s-3.4-7.6-7.6-7.6C269.6,36.3,266.2,39.7,266.2,43.9
		 M265.3,43.9c0-4.7,3.8-8.5,8.5-8.5c4.7,0,8.5,3.8,8.5,8.5s-3.8,8.5-8.5,8.5C269.1,52.4,265.3,48.6,265.3,43.9"/>
	<path class="st0" d="M257.3,26.2c0,4.2,3.4,7.6,7.6,7.6c4.2,0,7.6-3.4,7.6-7.6s-3.4-7.6-7.6-7.6C260.7,18.6,257.3,22,257.3,26.2
		 M256.4,26.2c0-4.7,3.8-8.5,8.5-8.5c4.7,0,8.5,3.8,8.5,8.5s-3.8,8.5-8.5,8.5C260.3,34.7,256.4,30.9,256.4,26.2"/>
	<path class="st0" d="M257.3,8.5c0,4.2,3.4,7.6,7.6,7.6c4.2,0,7.6-3.4,7.6-7.6s-3.4-7.6-7.6-7.6C260.7,0.9,257.3,4.3,257.3,8.5
		 M256.4,8.5c0-4.7,3.8-8.5,8.5-8.5c4.7,0,8.5,3.8,8.5,8.5s-3.8,8.5-8.5,8.5C260.3,17,256.4,13.2,256.4,8.5"/>
	<path class="st0" d="M257.3,43.9c0,4.2,3.4,7.6,7.6,7.6c4.2,0,7.6-3.4,7.6-7.6s-3.4-7.6-7.6-7.6C260.7,36.3,257.3,39.7,257.3,43.9
		 M256.4,43.9c0-4.7,3.8-8.5,8.5-8.5c4.7,0,8.5,3.8,8.5,8.5s-3.8,8.5-8.5,8.5C260.3,52.4,256.4,48.6,256.4,43.9"/>
	<path class="st0" d="M248.5,17.4c0,4.2,3.4,7.6,7.6,7.6c4.2,0,7.6-3.4,7.6-7.6s-3.4-7.6-7.6-7.6C251.9,9.7,248.5,13.2,248.5,17.4
		 M247.7,17.4c0-4.7,3.8-8.5,8.5-8.5c4.7,0,8.5,3.8,8.5,8.5s-3.8,8.5-8.5,8.5C251.4,25.8,247.7,22,247.7,17.4"/>
	<path class="st0" d="M248.5,26.2c0,4.2,3.4,7.6,7.6,7.6c4.2,0,7.6-3.4,7.6-7.6s-3.4-7.6-7.6-7.6C251.9,18.6,248.5,22,248.5,26.2
		 M247.7,26.2c0-4.7,3.8-8.5,8.5-8.5c4.7,0,8.5,3.8,8.5,8.5s-3.8,8.5-8.5,8.5C251.4,34.7,247.7,30.9,247.7,26.2"/>
	<path class="st0" d="M248.5,35c0,4.2,3.4,7.6,7.6,7.6c4.2,0,7.6-3.4,7.6-7.6s-3.4-7.6-7.6-7.6C251.9,27.4,248.5,30.9,248.5,35
		 M247.7,35c0-4.7,3.8-8.5,8.5-8.5c4.7,0,8.5,3.8,8.5,8.5s-3.8,8.5-8.5,8.5C251.4,43.5,247.7,39.7,247.7,35"/>
	<path class="st0" d="M248.5,8.5c0,4.2,3.4,7.6,7.6,7.6c4.2,0,7.6-3.4,7.6-7.6s-3.4-7.6-7.6-7.6C251.9,0.9,248.5,4.3,248.5,8.5
		 M247.7,8.5c0-4.7,3.8-8.5,8.5-8.5c4.7,0,8.5,3.8,8.5,8.5s-3.8,8.5-8.5,8.5C251.4,17,247.7,13.2,247.7,8.5"/>
	<path class="st0" d="M248.5,43.9c0,4.2,3.4,7.6,7.6,7.6c4.2,0,7.6-3.4,7.6-7.6s-3.4-7.6-7.6-7.6C251.9,36.3,248.5,39.7,248.5,43.9
		 M247.7,43.9c0-4.7,3.8-8.5,8.5-8.5c4.7,0,8.5,3.8,8.5,8.5s-3.8,8.5-8.5,8.5C251.4,52.4,247.7,48.6,247.7,43.9"/>
	<path class="st0" d="M239.6,17.4c0,4.2,3.4,7.6,7.6,7.6c4.2,0,7.6-3.4,7.6-7.6s-3.4-7.6-7.6-7.6C243,9.7,239.6,13.2,239.6,17.4
		 M238.9,17.4c0-4.7,3.8-8.5,8.5-8.5s8.5,3.8,8.5,8.5s-3.8,8.5-8.5,8.5C242.6,25.8,238.9,22,238.9,17.4"/>
	<path class="st0" d="M239.6,26.2c0,4.2,3.4,7.6,7.6,7.6c4.2,0,7.6-3.4,7.6-7.6s-3.4-7.6-7.6-7.6C243,18.6,239.6,22,239.6,26.2
		 M238.9,26.2c0-4.7,3.8-8.5,8.5-8.5s8.5,3.8,8.5,8.5s-3.8,8.5-8.5,8.5C242.6,34.7,238.9,30.9,238.9,26.2"/>
	<path class="st0" d="M239.6,35c0,4.2,3.4,7.6,7.6,7.6c4.2,0,7.6-3.4,7.6-7.6s-3.4-7.6-7.6-7.6C243,27.4,239.6,30.9,239.6,35
		 M238.9,35c0-4.7,3.8-8.5,8.5-8.5s8.5,3.8,8.5,8.5s-3.8,8.5-8.5,8.5C242.6,43.5,238.9,39.7,238.9,35"/>
	<path class="st0" d="M44.9,35c0,4.2,3.4,7.6,7.6,7.6s7.6-3.4,7.6-7.6s-3.4-7.6-7.6-7.6S44.9,30.9,44.9,35 M44.2,35
		c0-4.7,3.8-8.5,8.5-8.5s8.5,3.8,8.5,8.5s-3.8,8.5-8.5,8.5S44.2,39.7,44.2,35"/>
	<path class="st0" d="M44.9,8.5c0,4.2,3.4,7.6,7.6,7.6s7.6-3.4,7.6-7.6s-3.4-7.6-7.6-7.6S44.9,4.3,44.9,8.5 M44.2,8.5
		C44.2,3.8,48,0,52.7,0s8.5,3.8,8.5,8.5S57.4,17,52.7,17S44.2,13.2,44.2,8.5"/>
	<path class="st0" d="M36.1,26.2c0,4.2,3.4,7.6,7.6,7.6s7.6-3.4,7.6-7.6s-3.4-7.6-7.6-7.6C39.5,18.6,36.1,22,36.1,26.2 M35.3,26.2
		c0-4.7,3.8-8.5,8.5-8.5s8.5,3.8,8.5,8.5s-3.8,8.5-8.5,8.5C39.2,34.7,35.3,30.9,35.3,26.2"/>
	<path class="st0" d="M36.1,35c0,4.2,3.4,7.6,7.6,7.6s7.6-3.4,7.6-7.6s-3.4-7.6-7.6-7.6S36.1,30.9,36.1,35 M35.3,35
		c0-4.7,3.8-8.5,8.5-8.5s8.5,3.8,8.5,8.5s-3.8,8.5-8.5,8.5C39.2,43.5,35.3,39.7,35.3,35"/>
	<path class="st0" d="M36.1,8.5c0,4.2,3.4,7.6,7.6,7.6s7.6-3.4,7.6-7.6s-3.4-7.6-7.6-7.6S36.1,4.3,36.1,8.5 M35.3,8.5
		c0-4.7,3.8-8.5,8.5-8.5s8.5,3.8,8.5,8.5S48.5,17,43.8,17C39.2,17,35.3,13.2,35.3,8.5"/>
	<path class="st0" d="M36.1,43.9c0,4.2,3.4,7.6,7.6,7.6s7.6-3.4,7.6-7.6s-3.4-7.6-7.6-7.6S36.1,39.7,36.1,43.9 M35.3,43.9
		c0-4.7,3.8-8.5,8.5-8.5s8.5,3.8,8.5,8.5s-3.8,8.5-8.5,8.5C39.2,52.4,35.3,48.6,35.3,43.9"/>
	<path class="st0" d="M27.2,26.2c0,4.2,3.4,7.6,7.6,7.6s7.6-3.4,7.6-7.6s-3.4-7.6-7.6-7.6S27.2,22,27.2,26.2 M26.5,26.2
		c0-4.7,3.8-8.5,8.5-8.5s8.5,3.8,8.5,8.5s-3.8,8.5-8.5,8.5C30.3,34.7,26.5,30.9,26.5,26.2"/>
	<path class="st0" d="M27.2,8.5c0,4.2,3.4,7.6,7.6,7.6s7.6-3.4,7.6-7.6S39,0.9,34.8,0.9S27.2,4.3,27.2,8.5 M26.5,8.5
		C26.5,3.8,30.3,0,35,0s8.5,3.8,8.5,8.5S39.7,17,35,17C30.3,17,26.5,13.2,26.5,8.5"/>
	<path class="st0" d="M27.2,43.9c0,4.2,3.4,7.6,7.6,7.6s7.6-3.4,7.6-7.6s-3.4-7.6-7.6-7.6C30.7,36.3,27.2,39.7,27.2,43.9 M26.5,43.9
		c0-4.7,3.8-8.5,8.5-8.5s8.5,3.8,8.5,8.5s-3.8,8.5-8.5,8.5C30.3,52.4,26.5,48.6,26.5,43.9"/>
	<path class="st0" d="M18.4,26.2c0,4.2,3.4,7.6,7.6,7.6s7.6-3.4,7.6-7.6s-3.4-7.6-7.6-7.6S18.4,22,18.4,26.2 M17.6,26.2
		c0-4.7,3.8-8.5,8.5-8.5s8.5,3.8,8.5,8.5s-3.8,8.5-8.5,8.5C21.5,34.7,17.6,30.9,17.6,26.2"/>
	<path class="st0" d="M18.4,8.5c0,4.2,3.4,7.6,7.6,7.6s7.6-3.4,7.6-7.6S30.2,0.9,26,0.9S18.4,4.3,18.4,8.5 M17.6,8.5
		c0-4.7,3.8-8.5,8.5-8.5s8.5,3.8,8.5,8.5S30.8,17,26.1,17C21.5,17,17.6,13.2,17.6,8.5"/>
	<path class="st0" d="M18.4,43.9c0,4.2,3.4,7.6,7.6,7.6s7.6-3.4,7.6-7.6s-3.4-7.6-7.6-7.6S18.4,39.7,18.4,43.9 M17.6,43.9
		c0-4.7,3.8-8.5,8.5-8.5s8.5,3.8,8.5,8.5s-3.8,8.5-8.5,8.5C21.5,52.4,17.6,48.6,17.6,43.9"/>
	<path class="st0" d="M9.7,17.4c0,4.2,3.4,7.6,7.6,7.6s7.6-3.4,7.6-7.6s-3.4-7.6-7.6-7.6C13,9.7,9.7,13.2,9.7,17.4 M8.8,17.4
		c0-4.7,3.8-8.5,8.5-8.5s8.5,3.8,8.5,8.5s-3.8,8.5-8.5,8.5C12.6,25.8,8.8,22,8.8,17.4"/>
	<path class="st0" d="M9.7,26.2c0,4.2,3.4,7.6,7.6,7.6s7.6-3.4,7.6-7.6s-3.4-7.6-7.6-7.6C13,18.6,9.7,22,9.7,26.2 M8.8,26.2
		c0-4.7,3.8-8.5,8.5-8.5s8.5,3.8,8.5,8.5s-3.8,8.5-8.5,8.5S8.8,30.9,8.8,26.2"/>
	<path class="st0" d="M9.7,8.5c0,4.2,3.4,7.6,7.6,7.6s7.6-3.4,7.6-7.6s-3.4-7.6-7.6-7.6C13,0.9,9.7,4.3,9.7,8.5 M8.8,8.5
		c0-4.7,3.8-8.5,8.5-8.5s8.5,3.8,8.5,8.5S22,17,17.3,17S8.8,13.2,8.8,8.5"/>
	<path class="st0" d="M9.7,43.9c0,4.2,3.4,7.6,7.6,7.6s7.6-3.4,7.6-7.6s-3.4-7.6-7.6-7.6C13,36.3,9.7,39.7,9.7,43.9 M8.8,43.9
		c0-4.7,3.8-8.5,8.5-8.5s8.5,3.8,8.5,8.5s-3.8,8.5-8.5,8.5S8.8,48.6,8.8,43.9"/>
	<path class="st0" d="M0.8,17.4c0,4.2,3.4,7.6,7.6,7.6s7.6-3.4,7.6-7.6s-3.4-7.6-7.6-7.6C4.1,9.7,0.8,13.2,0.8,17.4 M0,17.4
		c0-4.7,3.8-8.5,8.5-8.5s8.5,3.8,8.5,8.5s-3.8,8.5-8.5,8.5S0,22,0,17.4"/>
	<path class="st0" d="M0.8,43.9c0,4.2,3.4,7.6,7.6,7.6s7.6-3.4,7.6-7.6s-3.4-7.6-7.6-7.6C4.1,36.3,0.8,39.7,0.8,43.9 M0,43.9
		c0-4.7,3.8-8.5,8.5-8.5s8.5,3.8,8.5,8.5s-3.8,8.5-8.5,8.5S0,48.6,0,43.9"/>
	<path class="st1" d="M105.3,17.4c0,3.1,2.6,5.7,5.7,5.7s5.7-2.6,5.7-5.7s-2.6-5.7-5.7-5.7S105.3,14.3,105.3,17.4 M104.5,17.4
		c0-3.6,2.8-6.4,6.4-6.4s6.4,2.8,6.4,6.4s-2.8,6.4-6.4,6.4C107.4,23.9,104.5,20.9,104.5,17.4"/>
	<path class="st1" d="M105.3,26.2c0,3.1,2.6,5.7,5.7,5.7s5.7-2.6,5.7-5.7s-2.6-5.7-5.7-5.7C107.9,20.5,105.3,23.1,105.3,26.2
		 M104.5,26.2c0-3.6,2.8-6.4,6.4-6.4s6.4,2.8,6.4,6.4s-2.8,6.4-6.4,6.4C107.4,32.7,104.5,29.8,104.5,26.2"/>
	<path class="st1" d="M105.3,35c0,3.1,2.6,5.7,5.7,5.7s5.7-2.6,5.7-5.7s-2.6-5.7-5.7-5.7C107.9,29.4,105.3,32,105.3,35 M104.5,35
		c0-3.6,2.8-6.4,6.4-6.4s6.4,2.8,6.4,6.4s-2.8,6.4-6.4,6.4C107.4,41.6,104.5,38.6,104.5,35"/>
	<path class="st1" d="M96.4,17.4c0,3.1,2.6,5.7,5.7,5.7s5.7-2.6,5.7-5.7s-2.6-5.7-5.7-5.7C99,11.7,96.4,14.3,96.4,17.4 M95.7,17.4
		c0-3.6,2.8-6.4,6.4-6.4s6.4,2.8,6.4,6.4s-2.8,6.4-6.4,6.4C98.5,23.9,95.7,20.9,95.7,17.4"/>
	<path class="st1" d="M96.4,26.2c0,3.1,2.6,5.7,5.7,5.7s5.7-2.6,5.7-5.7s-2.6-5.7-5.7-5.7S96.4,23.1,96.4,26.2 M95.7,26.2
		c0-3.6,2.8-6.4,6.4-6.4s6.4,2.8,6.4,6.4s-2.8,6.4-6.4,6.4C98.5,32.7,95.7,29.8,95.7,26.2"/>
	<path class="st1" d="M96.4,35c0,3.1,2.6,5.7,5.7,5.7s5.7-2.6,5.7-5.7s-2.6-5.7-5.7-5.7S96.4,32,96.4,35 M95.7,35
		c0-3.6,2.8-6.4,6.4-6.4s6.4,2.8,6.4,6.4s-2.8,6.4-6.4,6.4C98.5,41.6,95.7,38.6,95.7,35"/>
	<path class="st1" d="M96.4,8.5c0,3.1,2.6,5.7,5.7,5.7s5.7-2.6,5.7-5.7s-2.6-5.7-5.7-5.7S96.4,5.4,96.4,8.5 M95.7,8.5
		c0-3.6,2.8-6.4,6.4-6.4s6.4,2.8,6.4,6.4s-2.8,6.4-6.4,6.4C98.5,15,95.7,12.1,95.7,8.5"/>
	<path class="st1" d="M96.4,43.9c0,3.1,2.6,5.7,5.7,5.7s5.7-2.6,5.7-5.7s-2.6-5.7-5.7-5.7S96.4,40.8,96.4,43.9 M95.7,43.9
		c0-3.6,2.8-6.4,6.4-6.4s6.4,2.8,6.4,6.4s-2.8,6.4-6.4,6.4C98.5,50.4,95.7,47.5,95.7,43.9"/>
	<path class="st1" d="M87.6,8.5c0,3.1,2.6,5.7,5.7,5.7S99,11.6,99,8.5s-2.6-5.7-5.7-5.7S87.6,5.4,87.6,8.5 M86.8,8.5
		c0-3.6,2.8-6.4,6.4-6.4s6.4,2.8,6.4,6.4s-2.8,6.4-6.4,6.4C89.7,15,86.8,12.1,86.8,8.5"/>
	<path class="st1" d="M87.6,43.9c0,3.1,2.6,5.7,5.7,5.7S99,47,99,43.9s-2.6-5.7-5.7-5.7S87.6,40.8,87.6,43.9 M86.8,43.9
		c0-3.6,2.8-6.4,6.4-6.4s6.4,2.8,6.4,6.4s-2.8,6.4-6.4,6.4C89.7,50.4,86.8,47.5,86.8,43.9"/>
	<path class="st1" d="M78.7,8.5c0,3.1,2.6,5.7,5.7,5.7s5.7-2.6,5.7-5.7s-2.6-5.7-5.7-5.7S78.7,5.4,78.7,8.5 M78,8.5
		c0-3.6,2.8-6.4,6.4-6.4s6.4,2.8,6.4,6.4s-2.8,6.4-6.4,6.4C80.8,15,78,12.1,78,8.5"/>
	<path class="st1" d="M69.9,8.5c0,3.1,2.6,5.7,5.7,5.7s5.7-2.6,5.7-5.7s-2.6-5.7-5.7-5.7S69.9,5.4,69.9,8.5 M69.1,8.5
		c0-3.6,2.8-6.4,6.4-6.4s6.4,2.8,6.4,6.4s-2.8,6.4-6.4,6.4C72,15,69.1,12.1,69.1,8.5"/>
	<path class="st1" d="M61,17.4c0,3.1,2.6,5.7,5.7,5.7s5.7-2.6,5.7-5.7s-2.6-5.7-5.7-5.7S61,14.3,61,17.4 M60.3,17.4
		c0-3.6,2.8-6.4,6.4-6.4s6.4,2.8,6.4,6.4s-2.8,6.4-6.4,6.4C63.1,23.9,60.3,20.9,60.3,17.4"/>
	<path class="st1" d="M78.7,43.9c0,3.1,2.6,5.7,5.7,5.7s5.7-2.6,5.7-5.7s-2.6-5.7-5.7-5.7S78.7,40.8,78.7,43.9 M78,43.9
		c0-3.6,2.8-6.4,6.4-6.4s6.4,2.8,6.4,6.4s-2.8,6.4-6.4,6.4C80.8,50.4,78,47.5,78,43.9"/>
	<path class="st1" d="M69.9,17.4c0,3.1,2.6,5.7,5.7,5.7s5.7-2.6,5.7-5.7s-2.6-5.7-5.7-5.7C72.5,11.7,69.9,14.3,69.9,17.4 M69.1,17.4
		c0-3.6,2.8-6.4,6.4-6.4s6.4,2.8,6.4,6.4s-2.8,6.4-6.4,6.4C72,23.9,69.1,20.9,69.1,17.4"/>
	<path class="st1" d="M69.9,26.2c0,3.1,2.6,5.7,5.7,5.7s5.7-2.6,5.7-5.7s-2.6-5.7-5.7-5.7S69.9,23.1,69.9,26.2 M69.1,26.2
		c0-3.6,2.8-6.4,6.4-6.4s6.4,2.8,6.4,6.4s-2.8,6.4-6.4,6.4C72,32.7,69.1,29.8,69.1,26.2"/>
	<path class="st1" d="M69.9,35c0,3.1,2.6,5.7,5.7,5.7s5.7-2.6,5.7-5.7s-2.6-5.7-5.7-5.7S69.9,32,69.9,35 M69.1,35
		c0-3.6,2.8-6.4,6.4-6.4s6.4,2.8,6.4,6.4s-2.8,6.4-6.4,6.4C72,41.6,69.1,38.6,69.1,35"/>
	<path class="st1" d="M69.9,43.9c0,3.1,2.6,5.7,5.7,5.7s5.7-2.6,5.7-5.7s-2.6-5.7-5.7-5.7S69.9,40.8,69.9,43.9 M69.1,43.9
		c0-3.6,2.8-6.4,6.4-6.4s6.4,2.8,6.4,6.4s-2.8,6.4-6.4,6.4C72,50.4,69.1,47.5,69.1,43.9"/>
	<path class="st1" d="M61,26.2c0,3.1,2.6,5.7,5.7,5.7s5.7-2.6,5.7-5.7s-2.6-5.7-5.7-5.7C63.6,20.5,61,23.1,61,26.2 M60.3,26.2
		c0-3.6,2.8-6.4,6.4-6.4s6.4,2.8,6.4,6.4s-2.8,6.4-6.4,6.4C63.1,32.7,60.3,29.8,60.3,26.2"/>
	<path class="st1" d="M61,35c0,3.1,2.6,5.7,5.7,5.7s5.7-2.6,5.7-5.7s-2.6-5.7-5.7-5.7C63.6,29.4,61,32,61,35 M60.3,35
		c0-3.6,2.8-6.4,6.4-6.4s6.4,2.8,6.4,6.4s-2.8,6.4-6.4,6.4C63.1,41.6,60.3,38.6,60.3,35"/>
	<path class="st1" d="M166.5,17.4c0,3.1,2.6,5.7,5.7,5.7s5.7-2.6,5.7-5.7s-2.6-5.7-5.7-5.7C168.9,11.7,166.5,14.3,166.5,17.4
		 M165.6,17.4c0-3.6,2.8-6.4,6.4-6.4s6.4,2.8,6.4,6.4s-2.8,6.4-6.4,6.4C168.4,23.9,165.6,20.9,165.6,17.4"/>
	<path class="st1" d="M166.5,26.2c0,3.1,2.6,5.7,5.7,5.7s5.7-2.6,5.7-5.7s-2.6-5.7-5.7-5.7C168.9,20.5,166.5,23.1,166.5,26.2
		 M165.6,26.2c0-3.6,2.8-6.4,6.4-6.4s6.4,2.8,6.4,6.4s-2.8,6.4-6.4,6.4C168.4,32.7,165.6,29.8,165.6,26.2"/>
	<path class="st1" d="M166.5,35c0,3.1,2.6,5.7,5.7,5.7s5.7-2.6,5.7-5.7s-2.6-5.7-5.7-5.7C168.9,29.4,166.5,32,166.5,35 M165.6,35
		c0-3.6,2.8-6.4,6.4-6.4s6.4,2.8,6.4,6.4s-2.8,6.4-6.4,6.4C168.4,41.6,165.6,38.6,165.6,35"/>
	<path class="st1" d="M166.5,8.5c0,3.1,2.6,5.7,5.7,5.7s5.7-2.6,5.7-5.7s-2.6-5.7-5.7-5.7C168.9,2.8,166.5,5.4,166.5,8.5 M165.6,8.5
		c0-3.6,2.8-6.4,6.4-6.4s6.4,2.8,6.4,6.4s-2.8,6.4-6.4,6.4C168.4,15,165.6,12.1,165.6,8.5"/>
	<path class="st1" d="M166.5,43.9c0,3.1,2.6,5.7,5.7,5.7s5.7-2.6,5.7-5.7s-2.6-5.7-5.7-5.7C168.9,38.2,166.5,40.8,166.5,43.9
		 M165.6,43.9c0-3.6,2.8-6.4,6.4-6.4s6.4,2.8,6.4,6.4s-2.8,6.4-6.4,6.4C168.4,50.4,165.6,47.5,165.6,43.9"/>
	<path class="st1" d="M157.6,17.4c0,3.1,2.6,5.7,5.7,5.7s5.7-2.6,5.7-5.7s-2.6-5.7-5.7-5.7C160.1,11.7,157.6,14.3,157.6,17.4
		 M156.8,17.4c0-3.6,2.8-6.4,6.4-6.4c3.6,0,6.4,2.8,6.4,6.4s-2.8,6.4-6.4,6.4C159.6,23.9,156.8,20.9,156.8,17.4"/>
	<path class="st1" d="M157.6,26.2c0,3.1,2.6,5.7,5.7,5.7s5.7-2.6,5.7-5.7s-2.6-5.7-5.7-5.7C160.1,20.5,157.6,23.1,157.6,26.2
		 M156.8,26.2c0-3.6,2.8-6.4,6.4-6.4c3.6,0,6.4,2.8,6.4,6.4s-2.8,6.4-6.4,6.4C159.6,32.7,156.8,29.8,156.8,26.2"/>
	<path class="st1" d="M157.6,35c0,3.1,2.6,5.7,5.7,5.7s5.7-2.6,5.7-5.7s-2.6-5.7-5.7-5.7C160.1,29.4,157.6,32,157.6,35 M156.8,35
		c0-3.6,2.8-6.4,6.4-6.4c3.6,0,6.4,2.8,6.4,6.4s-2.8,6.4-6.4,6.4C159.6,41.6,156.8,38.6,156.8,35"/>
	<path class="st1" d="M157.6,8.5c0,3.1,2.6,5.7,5.7,5.7s5.7-2.6,5.7-5.7s-2.6-5.7-5.7-5.7C160.1,2.8,157.6,5.4,157.6,8.5 M156.8,8.5
		c0-3.6,2.8-6.4,6.4-6.4c3.6,0,6.4,2.8,6.4,6.4s-2.8,6.4-6.4,6.4C159.6,15,156.8,12.1,156.8,8.5"/>
	<path class="st1" d="M157.6,43.9c0,3.1,2.6,5.7,5.7,5.7s5.7-2.6,5.7-5.7s-2.6-5.7-5.7-5.7C160.1,38.2,157.6,40.8,157.6,43.9
		 M156.8,43.9c0-3.6,2.8-6.4,6.4-6.4c3.6,0,6.4,2.8,6.4,6.4s-2.8,6.4-6.4,6.4C159.6,50.4,156.8,47.5,156.8,43.9"/>
	<path class="st1" d="M148.8,26.2c0,3.1,2.6,5.7,5.7,5.7c3.1,0,5.7-2.6,5.7-5.7s-2.6-5.7-5.7-5.7C151.2,20.5,148.8,23.1,148.8,26.2
		 M147.9,26.2c0-3.6,2.8-6.4,6.4-6.4c3.6,0,6.4,2.8,6.4,6.4s-2.8,6.4-6.4,6.4C150.9,32.7,147.9,29.8,147.9,26.2"/>
	<path class="st1" d="M148.8,35c0,3.1,2.6,5.7,5.7,5.7c3.1,0,5.7-2.6,5.7-5.7s-2.6-5.7-5.7-5.7C151.2,29.4,148.8,32,148.8,35
		 M147.9,35c0-3.6,2.8-6.4,6.4-6.4c3.6,0,6.4,2.8,6.4,6.4s-2.8,6.4-6.4,6.4C150.9,41.6,147.9,38.6,147.9,35"/>
	<path class="st1" d="M131.1,8.5c0,3.1,2.6,5.7,5.7,5.7s5.7-2.6,5.7-5.7s-2.6-5.7-5.7-5.7C133.5,2.8,131.1,5.4,131.1,8.5 M130.2,8.5
		c0-3.6,2.8-6.4,6.4-6.4c3.6,0,6.4,2.8,6.4,6.4s-2.8,6.4-6.4,6.4C133.2,15,130.2,12.1,130.2,8.5"/>
	<path class="st1" d="M122.2,17.4c0,3.1,2.6,5.7,5.7,5.7s5.7-2.6,5.7-5.7s-2.6-5.7-5.7-5.7C124.7,11.7,122.2,14.3,122.2,17.4
		 M121.4,17.4c0-3.6,2.8-6.4,6.4-6.4c3.6,0,6.4,2.8,6.4,6.4s-2.8,6.4-6.4,6.4C124.3,23.9,121.4,20.9,121.4,17.4"/>
	<path class="st1" d="M122.2,8.5c0,3.1,2.6,5.7,5.7,5.7s5.7-2.6,5.7-5.7s-2.6-5.7-5.7-5.7C124.7,2.8,122.2,5.4,122.2,8.5 M121.4,8.5
		c0-3.6,2.8-6.4,6.4-6.4c3.6,0,6.4,2.8,6.4,6.4s-2.8,6.4-6.4,6.4C124.3,15,121.4,12.1,121.4,8.5"/>
	<path class="st1" d="M139.9,17.4c0,3.1,2.6,5.7,5.7,5.7c3.1,0,5.7-2.6,5.7-5.7s-2.6-5.7-5.7-5.7C142.4,11.7,139.9,14.3,139.9,17.4
		 M139.1,17.4c0-3.6,2.8-6.4,6.4-6.4c3.6,0,6.4,2.8,6.4,6.4s-2.8,6.4-6.4,6.4C142,23.9,139.1,20.9,139.1,17.4"/>
	<path class="st1" d="M139.9,26.2c0,3.1,2.6,5.7,5.7,5.7c3.1,0,5.7-2.6,5.7-5.7s-2.6-5.7-5.7-5.7C142.4,20.5,139.9,23.1,139.9,26.2
		 M139.1,26.2c0-3.6,2.8-6.4,6.4-6.4c3.6,0,6.4,2.8,6.4,6.4s-2.8,6.4-6.4,6.4C142,32.7,139.1,29.8,139.1,26.2"/>
	<path class="st1" d="M131.1,17.4c0,3.1,2.6,5.7,5.7,5.7s5.7-2.6,5.7-5.7s-2.6-5.7-5.7-5.7C133.5,11.7,131.1,14.3,131.1,17.4
		 M130.2,17.4c0-3.6,2.8-6.4,6.4-6.4c3.6,0,6.4,2.8,6.4,6.4s-2.8,6.4-6.4,6.4C133.2,23.9,130.2,20.9,130.2,17.4"/>
	<path class="st1" d="M131.1,26.2c0,3.1,2.6,5.7,5.7,5.7s5.7-2.6,5.7-5.7s-2.6-5.7-5.7-5.7C133.5,20.5,131.1,23.1,131.1,26.2
		 M130.2,26.2c0-3.6,2.8-6.4,6.4-6.4c3.6,0,6.4,2.8,6.4,6.4s-2.8,6.4-6.4,6.4C133.2,32.7,130.2,29.8,130.2,26.2"/>
	<path class="st1" d="M131.1,35c0,3.1,2.6,5.7,5.7,5.7s5.7-2.6,5.7-5.7s-2.6-5.7-5.7-5.7C133.5,29.4,131.1,32,131.1,35 M130.2,35
		c0-3.6,2.8-6.4,6.4-6.4c3.6,0,6.4,2.8,6.4,6.4s-2.8,6.4-6.4,6.4C133.2,41.6,130.2,38.6,130.2,35"/>
	<path class="st1" d="M131.1,43.9c0,3.1,2.6,5.7,5.7,5.7s5.7-2.6,5.7-5.7s-2.6-5.7-5.7-5.7C133.5,38.2,131.1,40.8,131.1,43.9
		 M130.2,43.9c0-3.6,2.8-6.4,6.4-6.4c3.6,0,6.4,2.8,6.4,6.4s-2.8,6.4-6.4,6.4C133.2,50.4,130.2,47.5,130.2,43.9"/>
	<path class="st1" d="M122.2,26.2c0,3.1,2.6,5.7,5.7,5.7s5.7-2.6,5.7-5.7s-2.6-5.7-5.7-5.7C124.7,20.5,122.2,23.1,122.2,26.2
		 M121.4,26.2c0-3.6,2.8-6.4,6.4-6.4c3.6,0,6.4,2.8,6.4,6.4s-2.8,6.4-6.4,6.4C124.3,32.7,121.4,29.8,121.4,26.2"/>
	<path class="st1" d="M122.2,35c0,3.1,2.6,5.7,5.7,5.7s5.7-2.6,5.7-5.7s-2.6-5.7-5.7-5.7C124.7,29.4,122.2,32,122.2,35 M121.4,35
		c0-3.6,2.8-6.4,6.4-6.4c3.6,0,6.4,2.8,6.4,6.4s-2.8,6.4-6.4,6.4C124.3,41.6,121.4,38.6,121.4,35"/>
	<path class="st1" d="M122.2,43.9c0,3.1,2.6,5.7,5.7,5.7s5.7-2.6,5.7-5.7s-2.6-5.7-5.7-5.7C124.7,38.2,122.2,40.8,122.2,43.9
		 M121.4,43.9c0-3.6,2.8-6.4,6.4-6.4c3.6,0,6.4,2.8,6.4,6.4s-2.8,6.4-6.4,6.4C124.3,50.4,121.4,47.5,121.4,43.9"/>
	<path class="st1" d="M227.6,35c0,3.1,2.6,5.7,5.7,5.7c3.1,0,5.7-2.6,5.7-5.7s-2.6-5.7-5.7-5.7C230,29.4,227.6,32,227.6,35
		 M226.7,35c0-3.6,2.8-6.4,6.4-6.4c3.6,0,6.4,2.8,6.4,6.4s-2.8,6.4-6.4,6.4C229.7,41.6,226.7,38.6,226.7,35"/>
	<path class="st1" d="M227.6,43.9c0,3.1,2.6,5.7,5.7,5.7c3.1,0,5.7-2.6,5.7-5.7s-2.6-5.7-5.7-5.7C230,38.2,227.6,40.8,227.6,43.9
		 M226.7,43.9c0-3.6,2.8-6.4,6.4-6.4c3.6,0,6.4,2.8,6.4,6.4s-2.8,6.4-6.4,6.4C229.7,50.4,226.7,47.5,226.7,43.9"/>
	<path class="st1" d="M218.7,17.4c0,3.1,2.6,5.7,5.7,5.7s5.7-2.6,5.7-5.7s-2.6-5.7-5.7-5.7C221.2,11.7,218.7,14.3,218.7,17.4
		 M217.9,17.4c0-3.6,2.8-6.4,6.4-6.4s6.4,2.8,6.4,6.4s-2.8,6.4-6.4,6.4C220.8,23.9,217.9,20.9,217.9,17.4"/>
	<path class="st1" d="M218.7,26.2c0,3.1,2.6,5.7,5.7,5.7s5.7-2.6,5.7-5.7s-2.6-5.7-5.7-5.7C221.2,20.5,218.7,23.1,218.7,26.2
		 M217.9,26.2c0-3.6,2.8-6.4,6.4-6.4s6.4,2.8,6.4,6.4s-2.8,6.4-6.4,6.4C220.8,32.7,217.9,29.8,217.9,26.2"/>
	<path class="st1" d="M218.7,35c0,3.1,2.6,5.7,5.7,5.7s5.7-2.6,5.7-5.7s-2.6-5.7-5.7-5.7C221.2,29.4,218.7,32,218.7,35 M217.9,35
		c0-3.6,2.8-6.4,6.4-6.4s6.4,2.8,6.4,6.4s-2.8,6.4-6.4,6.4C220.8,41.6,217.9,38.6,217.9,35"/>
	<path class="st1" d="M218.7,43.9c0,3.1,2.6,5.7,5.7,5.7s5.7-2.6,5.7-5.7s-2.6-5.7-5.7-5.7C221.2,38.2,218.7,40.8,218.7,43.9
		 M217.9,43.9c0-3.6,2.8-6.4,6.4-6.4s6.4,2.8,6.4,6.4s-2.8,6.4-6.4,6.4C220.8,50.4,217.9,47.5,217.9,43.9"/>
	<path class="st1" d="M209.9,35c0,3.1,2.6,5.7,5.7,5.7s5.7-2.6,5.7-5.7s-2.6-5.7-5.7-5.7C212.4,29.4,209.9,32,209.9,35 M209,35
		c0-3.6,2.8-6.4,6.4-6.4s6.4,2.8,6.4,6.4s-2.8,6.4-6.4,6.4C212,41.6,209,38.6,209,35"/>
	<path class="st1" d="M209.9,8.5c0,3.1,2.6,5.7,5.7,5.7s5.7-2.6,5.7-5.7s-2.6-5.7-5.7-5.7C212.4,2.8,209.9,5.4,209.9,8.5 M209,8.5
		c0-3.6,2.8-6.4,6.4-6.4s6.4,2.8,6.4,6.4s-2.8,6.4-6.4,6.4C212,15,209,12.1,209,8.5"/>
	<path class="st1" d="M201,8.5c0,3.1,2.6,5.7,5.7,5.7s5.7-2.6,5.7-5.7s-2.6-5.7-5.7-5.7C203.6,2.8,201,5.4,201,8.5 M200.2,8.5
		c0-3.6,2.8-6.4,6.4-6.4s6.4,2.8,6.4,6.4s-2.8,6.4-6.4,6.4C203.1,15,200.2,12.1,200.2,8.5"/>
	<path class="st1" d="M201,35c0,3.1,2.6,5.7,5.7,5.7s5.7-2.6,5.7-5.7s-2.6-5.7-5.7-5.7C203.6,29.4,201,32,201,35 M200.2,35
		c0-3.6,2.8-6.4,6.4-6.4s6.4,2.8,6.4,6.4s-2.8,6.4-6.4,6.4C203.1,41.6,200.2,38.6,200.2,35"/>
	<path class="st1" d="M192.2,17.4c0,3.1,2.6,5.7,5.7,5.7s5.7-2.6,5.7-5.7s-2.6-5.7-5.7-5.7C194.7,11.7,192.2,14.3,192.2,17.4
		 M191.4,17.4c0-3.6,2.8-6.4,6.4-6.4s6.4,2.8,6.4,6.4s-2.8,6.4-6.4,6.4C194.3,23.9,191.4,20.9,191.4,17.4"/>
	<path class="st1" d="M192.2,26.2c0,3.1,2.6,5.7,5.7,5.7s5.7-2.6,5.7-5.7s-2.6-5.7-5.7-5.7S192.2,23.1,192.2,26.2 M191.4,26.2
		c0-3.6,2.8-6.4,6.4-6.4s6.4,2.8,6.4,6.4s-2.8,6.4-6.4,6.4C194.3,32.7,191.4,29.8,191.4,26.2"/>
	<path class="st1" d="M192.2,35c0,3.1,2.6,5.7,5.7,5.7s5.7-2.6,5.7-5.7s-2.6-5.7-5.7-5.7S192.2,32,192.2,35 M191.4,35
		c0-3.6,2.8-6.4,6.4-6.4s6.4,2.8,6.4,6.4s-2.8,6.4-6.4,6.4C194.3,41.6,191.4,38.6,191.4,35"/>
	<path class="st1" d="M192.2,43.9c0,3.1,2.6,5.7,5.7,5.7s5.7-2.6,5.7-5.7s-2.6-5.7-5.7-5.7S192.2,40.8,192.2,43.9 M191.4,43.9
		c0-3.6,2.8-6.4,6.4-6.4s6.4,2.8,6.4,6.4s-2.8,6.4-6.4,6.4C194.3,50.4,191.4,47.5,191.4,43.9"/>
	<path class="st1" d="M183.3,35c0,3.1,2.6,5.7,5.7,5.7s5.7-2.6,5.7-5.7s-2.6-5.7-5.7-5.7S183.3,32,183.3,35 M182.6,35
		c0-3.6,2.8-6.4,6.4-6.4s6.4,2.8,6.4,6.4s-2.8,6.4-6.4,6.4C185.4,41.6,182.6,38.6,182.6,35"/>
	<path class="st1" d="M183.3,43.9c0,3.1,2.6,5.7,5.7,5.7s5.7-2.6,5.7-5.7s-2.6-5.7-5.7-5.7S183.3,40.8,183.3,43.9 M182.6,43.9
		c0-3.6,2.8-6.4,6.4-6.4s6.4,2.8,6.4,6.4s-2.8,6.4-6.4,6.4C185.4,50.4,182.6,47.5,182.6,43.9"/>
	<path class="st1" d="M285.8,8.5c0,3.1,2.6,5.7,5.7,5.7c3.1,0,5.7-2.6,5.7-5.7s-2.6-5.7-5.7-5.7C288.4,2.8,285.8,5.4,285.8,8.5
		 M285.1,8.5c0-3.6,2.8-6.4,6.4-6.4c3.6,0,6.4,2.8,6.4,6.4s-2.8,6.4-6.4,6.4C287.9,15,285.1,12.1,285.1,8.5"/>
	<path class="st1" d="M285.8,43.9c0,3.1,2.6,5.7,5.7,5.7c3.1,0,5.7-2.6,5.7-5.7s-2.6-5.7-5.7-5.7C288.4,38.2,285.8,40.8,285.8,43.9
		 M285.1,43.9c0-3.6,2.8-6.4,6.4-6.4c3.6,0,6.4,2.8,6.4,6.4s-2.8,6.4-6.4,6.4C287.9,50.4,285.1,47.5,285.1,43.9"/>
	<path class="st1" d="M277,26.2c0,3.1,2.6,5.7,5.7,5.7s5.7-2.6,5.7-5.7s-2.6-5.7-5.7-5.7C279.5,20.5,277,23.1,277,26.2 M276.2,26.2
		c0-3.6,2.8-6.4,6.4-6.4s6.4,2.8,6.4,6.4s-2.8,6.4-6.4,6.4C279.1,32.7,276.2,29.8,276.2,26.2"/>
	<path class="st1" d="M277,8.5c0,3.1,2.6,5.7,5.7,5.7s5.7-2.6,5.7-5.7s-2.6-5.7-5.7-5.7C279.5,2.8,277,5.4,277,8.5 M276.2,8.5
		c0-3.6,2.8-6.4,6.4-6.4s6.4,2.8,6.4,6.4s-2.8,6.4-6.4,6.4C279.1,15,276.2,12.1,276.2,8.5"/>
	<path class="st1" d="M277,43.9c0,3.1,2.6,5.7,5.7,5.7s5.7-2.6,5.7-5.7s-2.6-5.7-5.7-5.7C279.5,38.2,277,40.8,277,43.9 M276.2,43.9
		c0-3.6,2.8-6.4,6.4-6.4s6.4,2.8,6.4,6.4s-2.8,6.4-6.4,6.4C279.1,50.4,276.2,47.5,276.2,43.9"/>
	<path class="st1" d="M268.1,26.2c0,3.1,2.6,5.7,5.7,5.7s5.7-2.6,5.7-5.7s-2.6-5.7-5.7-5.7C270.7,20.5,268.1,23.1,268.1,26.2
		 M267.4,26.2c0-3.6,2.8-6.4,6.4-6.4s6.4,2.8,6.4,6.4s-2.8,6.4-6.4,6.4C270.2,32.7,267.4,29.8,267.4,26.2"/>
	<path class="st1" d="M268.1,8.5c0,3.1,2.6,5.7,5.7,5.7s5.7-2.6,5.7-5.7s-2.6-5.7-5.7-5.7S268.1,5.4,268.1,8.5 M267.4,8.5
		c0-3.6,2.8-6.4,6.4-6.4s6.4,2.8,6.4,6.4s-2.8,6.4-6.4,6.4C270.2,15,267.4,12.1,267.4,8.5"/>
	<path class="st1" d="M268.1,43.9c0,3.1,2.6,5.7,5.7,5.7s5.7-2.6,5.7-5.7s-2.6-5.7-5.7-5.7S268.1,40.8,268.1,43.9 M267.4,43.9
		c0-3.6,2.8-6.4,6.4-6.4s6.4,2.8,6.4,6.4s-2.8,6.4-6.4,6.4C270.2,50.4,267.4,47.5,267.4,43.9"/>
	<path class="st1" d="M259.3,8.5c0,3.1,2.6,5.7,5.7,5.7c3.1,0,5.7-2.6,5.7-5.7s-2.6-5.7-5.7-5.7C261.9,2.8,259.3,5.4,259.3,8.5
		 M258.5,8.5c0-3.6,2.8-6.4,6.4-6.4c3.6,0,6.4,2.8,6.4,6.4s-2.8,6.4-6.4,6.4C261.4,15,258.5,12.1,258.5,8.5"/>
	<path class="st1" d="M250.5,8.5c0,3.1,2.6,5.7,5.7,5.7s5.7-2.6,5.7-5.7s-2.6-5.7-5.7-5.7C253,2.8,250.5,5.4,250.5,8.5 M249.7,8.5
		c0-3.6,2.8-6.4,6.4-6.4c3.6,0,6.4,2.8,6.4,6.4s-2.8,6.4-6.4,6.4C252.5,15,249.7,12.1,249.7,8.5"/>
	<path class="st1" d="M241.7,17.4c0,3.1,2.6,5.7,5.7,5.7s5.7-2.6,5.7-5.7s-2.6-5.7-5.7-5.7C244.2,11.7,241.7,14.3,241.7,17.4
		 M240.8,17.4c0-3.6,2.8-6.4,6.4-6.4c3.6,0,6.4,2.8,6.4,6.4s-2.8,6.4-6.4,6.4C243.7,23.9,240.8,20.9,240.8,17.4"/>
	<path class="st1" d="M259.3,26.2c0,3.1,2.6,5.7,5.7,5.7c3.1,0,5.7-2.6,5.7-5.7s-2.6-5.7-5.7-5.7C261.9,20.5,259.3,23.1,259.3,26.2
		 M258.5,26.2c0-3.6,2.8-6.4,6.4-6.4c3.6,0,6.4,2.8,6.4,6.4s-2.8,6.4-6.4,6.4C261.4,32.7,258.5,29.8,258.5,26.2"/>
	<path class="st1" d="M259.3,43.9c0,3.1,2.6,5.7,5.7,5.7c3.1,0,5.7-2.6,5.7-5.7s-2.6-5.7-5.7-5.7C261.9,38.2,259.3,40.8,259.3,43.9
		 M258.5,43.9c0-3.6,2.8-6.4,6.4-6.4c3.6,0,6.4,2.8,6.4,6.4s-2.8,6.4-6.4,6.4C261.4,50.4,258.5,47.5,258.5,43.9"/>
	<path class="st1" d="M250.5,17.4c0,3.1,2.6,5.7,5.7,5.7s5.7-2.6,5.7-5.7s-2.6-5.7-5.7-5.7C253,11.7,250.5,14.3,250.5,17.4
		 M249.7,17.4c0-3.6,2.8-6.4,6.4-6.4c3.6,0,6.4,2.8,6.4,6.4s-2.8,6.4-6.4,6.4C252.5,23.9,249.7,20.9,249.7,17.4"/>
	<path class="st1" d="M250.5,26.2c0,3.1,2.6,5.7,5.7,5.7s5.7-2.6,5.7-5.7s-2.6-5.7-5.7-5.7C253,20.5,250.5,23.1,250.5,26.2
		 M249.7,26.2c0-3.6,2.8-6.4,6.4-6.4c3.6,0,6.4,2.8,6.4,6.4s-2.8,6.4-6.4,6.4C252.5,32.7,249.7,29.8,249.7,26.2"/>
	<path class="st1" d="M250.5,35c0,3.1,2.6,5.7,5.7,5.7s5.7-2.6,5.7-5.7s-2.6-5.7-5.7-5.7C253,29.4,250.5,32,250.5,35 M249.7,35
		c0-3.6,2.8-6.4,6.4-6.4c3.6,0,6.4,2.8,6.4,6.4s-2.8,6.4-6.4,6.4C252.5,41.6,249.7,38.6,249.7,35"/>
	<path class="st1" d="M250.5,43.9c0,3.1,2.6,5.7,5.7,5.7s5.7-2.6,5.7-5.7s-2.6-5.7-5.7-5.7C253,38.2,250.5,40.8,250.5,43.9
		 M249.7,43.9c0-3.6,2.8-6.4,6.4-6.4c3.6,0,6.4,2.8,6.4,6.4s-2.8,6.4-6.4,6.4C252.5,50.4,249.7,47.5,249.7,43.9"/>
	<path class="st1" d="M241.7,26.2c0,3.1,2.6,5.7,5.7,5.7s5.7-2.6,5.7-5.7s-2.6-5.7-5.7-5.7C244.2,20.5,241.7,23.1,241.7,26.2
		 M240.8,26.2c0-3.6,2.8-6.4,6.4-6.4c3.6,0,6.4,2.8,6.4,6.4s-2.8,6.4-6.4,6.4C243.7,32.7,240.8,29.8,240.8,26.2"/>
	<path class="st1" d="M241.7,35c0,3.1,2.6,5.7,5.7,5.7s5.7-2.6,5.7-5.7s-2.6-5.7-5.7-5.7C244.2,29.4,241.7,32,241.7,35 M240.8,35
		c0-3.6,2.8-6.4,6.4-6.4c3.6,0,6.4,2.8,6.4,6.4s-2.8,6.4-6.4,6.4C243.7,41.6,240.8,38.6,240.8,35"/>
	<path class="st1" d="M47,35c0,3.1,2.6,5.7,5.7,5.7s5.7-2.6,5.7-5.7s-2.6-5.7-5.7-5.7C49.5,29.4,47,32,47,35 M46.2,35
		c0-3.6,2.8-6.4,6.4-6.4S59,31.4,59,35s-2.8,6.4-6.4,6.4C49.1,41.6,46.2,38.6,46.2,35"/>
	<path class="st1" d="M47,8.5c0,3.1,2.6,5.7,5.7,5.7s5.7-2.6,5.7-5.7s-2.6-5.7-5.7-5.7C49.5,2.8,47,5.4,47,8.5 M46.2,8.5
		c0-3.6,2.8-6.4,6.4-6.4S59,4.9,59,8.5s-2.8,6.4-6.4,6.4C49.1,15,46.2,12.1,46.2,8.5"/>
	<path class="st1" d="M38.2,26.2c0,3.1,2.6,5.7,5.7,5.7s5.7-2.6,5.7-5.7s-2.6-5.7-5.7-5.7C40.6,20.5,38.2,23.1,38.2,26.2 M37.3,26.2
		c0-3.6,2.8-6.4,6.4-6.4s6.4,2.8,6.4,6.4s-2.8,6.4-6.4,6.4C40.3,32.7,37.3,29.8,37.3,26.2"/>
	<path class="st1" d="M38.2,35c0,3.1,2.6,5.7,5.7,5.7s5.7-2.6,5.7-5.7s-2.6-5.7-5.7-5.7C40.6,29.4,38.2,32,38.2,35 M37.3,35
		c0-3.6,2.8-6.4,6.4-6.4s6.4,2.8,6.4,6.4s-2.8,6.4-6.4,6.4C40.3,41.6,37.3,38.6,37.3,35"/>
	<path class="st1" d="M38.2,8.5c0,3.1,2.6,5.7,5.7,5.7s5.7-2.6,5.7-5.7S47,2.8,43.9,2.8C40.6,2.8,38.2,5.4,38.2,8.5 M37.3,8.5
		c0-3.6,2.8-6.4,6.4-6.4s6.4,2.8,6.4,6.4s-2.8,6.4-6.4,6.4C40.3,15,37.3,12.1,37.3,8.5"/>
	<path class="st1" d="M38.2,43.9c0,3.1,2.6,5.7,5.7,5.7s5.7-2.6,5.7-5.7s-2.6-5.7-5.7-5.7C40.6,38.2,38.2,40.8,38.2,43.9 M37.3,43.9
		c0-3.6,2.8-6.4,6.4-6.4s6.4,2.8,6.4,6.4s-2.8,6.4-6.4,6.4C40.3,50.4,37.3,47.5,37.3,43.9"/>
	<path class="st1" d="M29.3,26.2c0,3.1,2.6,5.7,5.7,5.7s5.7-2.6,5.7-5.7s-2.6-5.7-5.7-5.7C31.8,20.5,29.3,23.1,29.3,26.2 M28.5,26.2
		c0-3.6,2.8-6.4,6.4-6.4s6.4,2.8,6.4,6.4s-2.8,6.4-6.4,6.4C31.4,32.7,28.5,29.8,28.5,26.2"/>
	<path class="st1" d="M29.3,8.5c0,3.1,2.6,5.7,5.7,5.7s5.7-2.6,5.7-5.7S38.1,2.8,35,2.8C31.8,2.8,29.3,5.4,29.3,8.5 M28.5,8.5
		c0-3.6,2.8-6.4,6.4-6.4s6.4,2.8,6.4,6.4s-2.8,6.4-6.4,6.4C31.4,15,28.5,12.1,28.5,8.5"/>
	<path class="st1" d="M29.3,43.9c0,3.1,2.6,5.7,5.7,5.7s5.7-2.6,5.7-5.7s-2.6-5.7-5.7-5.7C31.8,38.2,29.3,40.8,29.3,43.9 M28.5,43.9
		c0-3.6,2.8-6.4,6.4-6.4s6.4,2.8,6.4,6.4s-2.8,6.4-6.4,6.4C31.4,50.4,28.5,47.5,28.5,43.9"/>
	<path class="st1" d="M20.5,8.5c0,3.1,2.6,5.7,5.7,5.7s5.7-2.6,5.7-5.7s-2.6-5.7-5.7-5.7C22.9,2.8,20.5,5.4,20.5,8.5 M19.6,8.5
		c0-3.6,2.8-6.4,6.4-6.4s6.4,2.8,6.4,6.4s-2.8,6.4-6.4,6.4C22.6,15,19.6,12.1,19.6,8.5"/>
	<path class="st1" d="M11.6,8.5c0,3.1,2.6,5.7,5.7,5.7S23,11.6,23,8.5s-2.6-5.7-5.7-5.7C14.1,2.8,11.6,5.4,11.6,8.5 M10.8,8.5
		c0-3.6,2.8-6.4,6.4-6.4s6.4,2.8,6.4,6.4s-2.8,6.4-6.4,6.4C13.7,15,10.8,12.1,10.8,8.5"/>
	<path class="st1" d="M2.8,17.4c0,3.1,2.6,5.7,5.7,5.7s5.7-2.6,5.7-5.7s-2.6-5.7-5.7-5.7C5.2,11.7,2.8,14.3,2.8,17.4 M1.9,17.4
		c0-3.6,2.8-6.4,6.4-6.4s6.4,2.8,6.4,6.4s-2.8,6.4-6.4,6.4C4.9,23.9,1.9,20.9,1.9,17.4"/>
	<path class="st1" d="M20.5,26.2c0,3.1,2.6,5.7,5.7,5.7s5.7-2.6,5.7-5.7s-2.6-5.7-5.7-5.7C22.9,20.5,20.5,23.1,20.5,26.2 M19.6,26.2
		c0-3.6,2.8-6.4,6.4-6.4s6.4,2.8,6.4,6.4s-2.8,6.4-6.4,6.4C22.6,32.7,19.6,29.8,19.6,26.2"/>
	<path class="st1" d="M20.5,43.9c0,3.1,2.6,5.7,5.7,5.7s5.7-2.6,5.7-5.7s-2.6-5.7-5.7-5.7C22.9,38.2,20.5,40.8,20.5,43.9 M19.6,43.9
		c0-3.6,2.8-6.4,6.4-6.4s6.4,2.8,6.4,6.4s-2.8,6.4-6.4,6.4C22.6,50.4,19.6,47.5,19.6,43.9"/>
	<path class="st1" d="M11.6,17.4c0,3.1,2.6,5.7,5.7,5.7s5.7-2.6,5.7-5.7s-2.6-5.7-5.7-5.7C14.1,11.7,11.6,14.3,11.6,17.4 M10.8,17.4
		c0-3.6,2.8-6.4,6.4-6.4s6.4,2.8,6.4,6.4s-2.8,6.4-6.4,6.4C13.7,23.9,10.8,20.9,10.8,17.4"/>
	<path class="st1" d="M11.6,26.2c0,3.1,2.6,5.7,5.7,5.7s5.7-2.6,5.7-5.7s-2.6-5.7-5.7-5.7C14.1,20.5,11.6,23.1,11.6,26.2 M10.8,26.2
		c0-3.6,2.8-6.4,6.4-6.4s6.4,2.8,6.4,6.4s-2.8,6.4-6.4,6.4C13.7,32.7,10.8,29.8,10.8,26.2"/>
	<path class="st1" d="M11.6,43.9c0,3.1,2.6,5.7,5.7,5.7S23,47,23,43.9s-2.6-5.7-5.7-5.7C14.1,38.2,11.6,40.8,11.6,43.9 M10.8,43.9
		c0-3.6,2.8-6.4,6.4-6.4s6.4,2.8,6.4,6.4s-2.8,6.4-6.4,6.4C13.7,50.4,10.8,47.5,10.8,43.9"/>
	<path class="st1" d="M2.8,43.9c0,3.1,2.6,5.7,5.7,5.7s5.7-2.6,5.7-5.7s-2.6-5.7-5.7-5.7C5.2,38.2,2.8,40.8,2.8,43.9 M1.9,43.9
		c0-3.6,2.8-6.4,6.4-6.4s6.4,2.8,6.4,6.4s-2.8,6.4-6.4,6.4C4.9,50.4,1.9,47.5,1.9,43.9"/>
	<path class="st2" d="M62.3,26.2c0-2.5,2-4.4,4.4-4.4s4.4,2,4.4,4.4c0,2.5-2,4.4-4.4,4.4C64.2,30.6,62.3,28.7,62.3,26.2"/>
	<path class="st2" d="M62.3,35c0-2.5,2-4.4,4.4-4.4s4.4,2,4.4,4.4c0,2.5-2,4.4-4.4,4.4C64.2,39.5,62.3,37.5,62.3,35"/>
	<path class="st2" d="M62.3,17.4c0-2.5,2-4.4,4.4-4.4s4.4,2,4.4,4.4c0,2.5-2,4.4-4.4,4.4C64.2,21.8,62.3,19.8,62.3,17.4"/>
	<path class="st2" d="M71.1,26.2c0-2.5,2-4.4,4.4-4.4s4.4,2,4.4,4.4c0,2.5-2,4.4-4.4,4.4S71.1,28.7,71.1,26.2"/>
	<path class="st2" d="M71.1,35c0-2.5,2-4.4,4.4-4.4s4.4,2,4.4,4.4c0,2.5-2,4.4-4.4,4.4C73.1,39.5,71.1,37.5,71.1,35"/>
	<path class="st2" d="M71.1,17.4c0-2.5,2-4.4,4.4-4.4s4.4,2,4.4,4.4c0,2.5-2,4.4-4.4,4.4S71.1,19.8,71.1,17.4"/>
	<path class="st2" d="M71.1,8.5c0-2.5,2-4.4,4.4-4.4s4.4,2,4.4,4.4s-2,4.4-4.4,4.4S71.1,11,71.1,8.5"/>
	<path class="st2" d="M71.1,43.9c0-2.5,2-4.4,4.4-4.4s4.4,2,4.4,4.4s-2,4.4-4.4,4.4S71.1,46.4,71.1,43.9"/>
	<path class="st2" d="M80,8.5c0-2.5,2-4.4,4.4-4.4s4.4,2,4.4,4.4s-2,4.4-4.4,4.4S80,11,80,8.5"/>
	<path class="st2" d="M80,43.9c0-2.5,2-4.4,4.4-4.4s4.4,2,4.4,4.4s-2,4.4-4.4,4.4S80,46.4,80,43.9"/>
	<path class="st2" d="M88.8,8.5c0-2.5,2-4.4,4.4-4.4s4.4,2,4.4,4.4s-2,4.4-4.4,4.4S88.8,11,88.8,8.5"/>
	<path class="st2" d="M88.8,43.9c0-2.5,2-4.4,4.4-4.4s4.4,2,4.4,4.4s-2,4.4-4.4,4.4S88.8,46.4,88.8,43.9"/>
	<path class="st2" d="M97.7,26.2c0-2.5,2-4.4,4.4-4.4s4.4,2,4.4,4.4c0,2.5-2,4.4-4.4,4.4S97.7,28.7,97.7,26.2"/>
	<path class="st2" d="M97.7,35c0-2.5,2-4.4,4.4-4.4s4.4,2,4.4,4.4c0,2.5-2,4.4-4.4,4.4C99.6,39.5,97.7,37.5,97.7,35"/>
	<path class="st2" d="M97.7,17.4c0-2.5,2-4.4,4.4-4.4s4.4,2,4.4,4.4c0,2.5-2,4.4-4.4,4.4S97.7,19.8,97.7,17.4"/>
	<path class="st2" d="M97.7,8.5c0-2.5,2-4.4,4.4-4.4s4.4,2,4.4,4.4s-2,4.4-4.4,4.4S97.7,11,97.7,8.5"/>
	<path class="st2" d="M106.5,35c0-2.5,2-4.4,4.4-4.4s4.4,2,4.4,4.4c0,2.5-2,4.4-4.4,4.4C108.5,39.5,106.5,37.5,106.5,35"/>
	<path class="st2" d="M106.5,26.2c0-2.5,2-4.4,4.4-4.4s4.4,2,4.4,4.4c0,2.5-2,4.4-4.4,4.4C108.5,30.6,106.5,28.7,106.5,26.2"/>
	<path class="st2" d="M106.5,17.4c0-2.5,2-4.4,4.4-4.4s4.4,2,4.4,4.4c0,2.5-2,4.4-4.4,4.4S106.5,19.8,106.5,17.4"/>
	<path class="st2" d="M97.7,43.9c0-2.5,2-4.4,4.4-4.4s4.4,2,4.4,4.4s-2,4.4-4.4,4.4S97.7,46.4,97.7,43.9"/>
	<path class="st2" d="M123.5,26.2c0-2.5,2-4.4,4.4-4.4s4.4,2,4.4,4.4c0,2.5-2,4.4-4.4,4.4S123.5,28.7,123.5,26.2"/>
	<path class="st2" d="M123.5,35c0-2.5,2-4.4,4.4-4.4s4.4,2,4.4,4.4c0,2.5-2,4.4-4.4,4.4C125.4,39.5,123.5,37.5,123.5,35"/>
	<path class="st2" d="M123.5,17.4c0-2.5,2-4.4,4.4-4.4s4.4,2,4.4,4.4c0,2.5-2,4.4-4.4,4.4S123.5,19.8,123.5,17.4"/>
	<path class="st2" d="M123.5,8.5c0-2.5,2-4.4,4.4-4.4s4.4,2,4.4,4.4s-2,4.4-4.4,4.4S123.5,11,123.5,8.5"/>
	<path class="st2" d="M123.5,43.9c0-2.5,2-4.4,4.4-4.4s4.4,2,4.4,4.4s-2,4.4-4.4,4.4S123.5,46.4,123.5,43.9"/>
	<path class="st2" d="M132.3,26.2c0-2.5,2-4.4,4.4-4.4s4.4,2,4.4,4.4c0,2.5-2,4.4-4.4,4.4S132.3,28.7,132.3,26.2"/>
	<path class="st2" d="M132.3,35c0-2.5,2-4.4,4.4-4.4s4.4,2,4.4,4.4c0,2.5-2,4.4-4.4,4.4C134.3,39.5,132.3,37.5,132.3,35"/>
	<path class="st2" d="M132.3,17.4c0-2.5,2-4.4,4.4-4.4s4.4,2,4.4,4.4c0,2.5-2,4.4-4.4,4.4S132.3,19.8,132.3,17.4"/>
	<path class="st2" d="M132.3,8.5c0-2.5,2-4.4,4.4-4.4s4.4,2,4.4,4.4s-2,4.4-4.4,4.4S132.3,11,132.3,8.5"/>
	<path class="st2" d="M132.3,43.9c0-2.5,2-4.4,4.4-4.4s4.4,2,4.4,4.4s-2,4.4-4.4,4.4S132.3,46.4,132.3,43.9"/>
	<path class="st2" d="M141.2,26.2c0-2.5,2-4.4,4.4-4.4s4.4,2,4.4,4.4c0,2.5-2,4.4-4.4,4.4S141.2,28.7,141.2,26.2"/>
	<path class="st2" d="M141.2,17.4c0-2.5,2-4.4,4.4-4.4s4.4,2,4.4,4.4c0,2.5-2,4.4-4.4,4.4S141.2,19.8,141.2,17.4"/>
	<path class="st2" d="M149.9,26.2c0-2.5,2-4.4,4.4-4.4s4.4,2,4.4,4.4c0,2.5-2,4.4-4.4,4.4C152,30.6,149.9,28.7,149.9,26.2"/>
	<path class="st2" d="M149.9,35c0-2.5,2-4.4,4.4-4.4s4.4,2,4.4,4.4c0,2.5-2,4.4-4.4,4.4C152,39.5,149.9,37.5,149.9,35"/>
	<path class="st2" d="M158.7,26.2c0-2.5,2-4.4,4.4-4.4s4.4,2,4.4,4.4c0,2.5-2,4.4-4.4,4.4C160.8,30.6,158.7,28.7,158.7,26.2"/>
	<path class="st2" d="M158.7,35c0-2.5,2-4.4,4.4-4.4s4.4,2,4.4,4.4c0,2.5-2,4.4-4.4,4.4C160.8,39.5,158.7,37.5,158.7,35"/>
	<path class="st2" d="M158.7,17.4c0-2.5,2-4.4,4.4-4.4s4.4,2,4.4,4.4c0,2.5-2,4.4-4.4,4.4C160.8,21.8,158.7,19.8,158.7,17.4"/>
	<path class="st2" d="M158.7,8.5c0-2.5,2-4.4,4.4-4.4s4.4,2,4.4,4.4s-2,4.4-4.4,4.4C160.8,12.9,158.7,11,158.7,8.5"/>
	<path class="st2" d="M167.6,35c0-2.5,2-4.4,4.4-4.4s4.4,2,4.4,4.4c0,2.5-2,4.4-4.4,4.4C169.6,39.5,167.6,37.5,167.6,35"/>
	<path class="st2" d="M167.6,26.2c0-2.5,2-4.4,4.4-4.4s4.4,2,4.4,4.4c0,2.5-2,4.4-4.4,4.4S167.6,28.7,167.6,26.2"/>
	<path class="st2" d="M167.6,17.4c0-2.5,2-4.4,4.4-4.4s4.4,2,4.4,4.4c0,2.5-2,4.4-4.4,4.4S167.6,19.8,167.6,17.4"/>
	<path class="st2" d="M167.6,8.5c0-2.5,2-4.4,4.4-4.4s4.4,2,4.4,4.4s-2,4.4-4.4,4.4S167.6,11,167.6,8.5"/>
	<path class="st2" d="M158.7,43.9c0-2.5,2-4.4,4.4-4.4s4.4,2,4.4,4.4s-2,4.4-4.4,4.4C160.8,48.3,158.7,46.4,158.7,43.9"/>
	<path class="st2" d="M167.6,43.9c0-2.5,2-4.4,4.4-4.4s4.4,2,4.4,4.4s-2,4.4-4.4,4.4S167.6,46.4,167.6,43.9"/>
	<path class="st2" d="M184.5,35c0-2.5,2-4.4,4.4-4.4s4.4,2,4.4,4.4c0,2.5-2,4.4-4.4,4.4C186.5,39.5,184.5,37.5,184.5,35"/>
	<path class="st2" d="M184.5,43.9c0-2.5,2-4.4,4.4-4.4s4.4,2,4.4,4.4s-2,4.4-4.4,4.4S184.5,46.4,184.5,43.9"/>
	<path class="st2" d="M193.4,26.2c0-2.5,2-4.4,4.4-4.4s4.4,2,4.4,4.4c0,2.5-2,4.4-4.4,4.4S193.4,28.7,193.4,26.2"/>
	<path class="st2" d="M193.4,35c0-2.5,2-4.4,4.4-4.4s4.4,2,4.4,4.4c0,2.5-2,4.4-4.4,4.4C195.4,39.5,193.4,37.5,193.4,35"/>
	<path class="st2" d="M193.4,17.4c0-2.5,2-4.4,4.4-4.4s4.4,2,4.4,4.4c0,2.5-2,4.4-4.4,4.4S193.4,19.8,193.4,17.4"/>
	<path class="st2" d="M193.4,43.9c0-2.5,2-4.4,4.4-4.4s4.4,2,4.4,4.4s-2,4.4-4.4,4.4S193.4,46.4,193.4,43.9"/>
	<path class="st2" d="M202.2,35c0-2.5,2-4.4,4.4-4.4s4.4,2,4.4,4.4c0,2.5-2,4.4-4.4,4.4C204.2,39.5,202.2,37.5,202.2,35"/>
	<path class="st2" d="M202.2,8.5c0-2.5,2-4.4,4.4-4.4s4.4,2,4.4,4.4s-2,4.4-4.4,4.4S202.2,11,202.2,8.5"/>
	<path class="st2" d="M211.1,35c0-2.5,2-4.4,4.4-4.4s4.4,2,4.4,4.4c0,2.5-2,4.4-4.4,4.4C213.1,39.5,211.1,37.5,211.1,35"/>
	<path class="st2" d="M211.1,8.5c0-2.5,2-4.4,4.4-4.4s4.4,2,4.4,4.4s-2,4.4-4.4,4.4S211.1,11,211.1,8.5"/>
	<path class="st2" d="M219.9,26.2c0-2.5,2-4.4,4.4-4.4s4.4,2,4.4,4.4c0,2.5-2,4.4-4.4,4.4S219.9,28.7,219.9,26.2"/>
	<path class="st2" d="M219.9,35c0-2.5,2-4.4,4.4-4.4s4.4,2,4.4,4.4c0,2.5-2,4.4-4.4,4.4C221.9,39.5,219.9,37.5,219.9,35"/>
	<path class="st2" d="M219.9,17.4c0-2.5,2-4.4,4.4-4.4s4.4,2,4.4,4.4c0,2.5-2,4.4-4.4,4.4S219.9,19.8,219.9,17.4"/>
	<path class="st2" d="M228.8,35c0-2.5,2-4.4,4.4-4.4c2.5,0,4.4,2,4.4,4.4c0,2.5-2,4.4-4.4,4.4C230.8,39.5,228.8,37.5,228.8,35"/>
	<path class="st2" d="M219.9,43.9c0-2.5,2-4.4,4.4-4.4s4.4,2,4.4,4.4s-2,4.4-4.4,4.4S219.9,46.4,219.9,43.9"/>
	<path class="st2" d="M228.8,43.9c0-2.5,2-4.4,4.4-4.4c2.5,0,4.4,2,4.4,4.4s-2,4.4-4.4,4.4S228.8,46.4,228.8,43.9"/>
	<path class="st2" d="M242.8,26.2c0-2.5,2-4.4,4.4-4.4c2.5,0,4.4,2,4.4,4.4c0,2.5-2,4.4-4.4,4.4C244.9,30.6,242.8,28.7,242.8,26.2"
		/>
	<path class="st2" d="M242.8,35c0-2.5,2-4.4,4.4-4.4c2.5,0,4.4,2,4.4,4.4c0,2.5-2,4.4-4.4,4.4C244.9,39.5,242.8,37.5,242.8,35"/>
	<path class="st2" d="M242.8,17.4c0-2.5,2-4.4,4.4-4.4c2.5,0,4.4,2,4.4,4.4c0,2.5-2,4.4-4.4,4.4C244.9,21.8,242.8,19.8,242.8,17.4"
		/>
	<path class="st2" d="M251.7,26.2c0-2.5,2-4.4,4.4-4.4s4.4,2,4.4,4.4c0,2.5-2,4.4-4.4,4.4C253.6,30.6,251.7,28.7,251.7,26.2"/>
	<path class="st2" d="M251.7,35c0-2.5,2-4.4,4.4-4.4s4.4,2,4.4,4.4c0,2.5-2,4.4-4.4,4.4C253.6,39.5,251.7,37.5,251.7,35"/>
	<path class="st2" d="M251.7,17.4c0-2.5,2-4.4,4.4-4.4s4.4,2,4.4,4.4c0,2.5-2,4.4-4.4,4.4C253.6,21.8,251.7,19.8,251.7,17.4"/>
	<path class="st2" d="M251.7,8.5c0-2.5,2-4.4,4.4-4.4s4.4,2,4.4,4.4s-2,4.4-4.4,4.4C253.6,12.9,251.7,11,251.7,8.5"/>
	<path class="st2" d="M251.7,43.9c0-2.5,2-4.4,4.4-4.4s4.4,2,4.4,4.4s-2,4.4-4.4,4.4C253.6,48.3,251.7,46.4,251.7,43.9"/>
	<path class="st2" d="M260.5,26.2c0-2.5,2-4.4,4.4-4.4c2.4,0,4.4,2,4.4,4.4c0,2.5-2,4.4-4.4,4.4C262.5,30.6,260.5,28.7,260.5,26.2"
		/>
	<path class="st2" d="M260.5,8.5c0-2.5,2-4.4,4.4-4.4c2.4,0,4.4,2,4.4,4.4s-2,4.4-4.4,4.4C262.5,12.9,260.5,11,260.5,8.5"/>
	<path class="st2" d="M260.5,43.9c0-2.5,2-4.4,4.4-4.4c2.4,0,4.4,2,4.4,4.4s-2,4.4-4.4,4.4C262.5,48.3,260.5,46.4,260.5,43.9"/>
	<path class="st2" d="M269.3,26.2c0-2.5,2-4.4,4.4-4.4c2.5,0,4.4,2,4.4,4.4c0,2.5-2,4.4-4.4,4.4C271.3,30.6,269.3,28.7,269.3,26.2"
		/>
	<path class="st2" d="M269.3,8.5c0-2.5,2-4.4,4.4-4.4c2.5,0,4.4,2,4.4,4.4s-2,4.4-4.4,4.4S269.3,11,269.3,8.5"/>
	<path class="st2" d="M269.3,43.9c0-2.5,2-4.4,4.4-4.4c2.5,0,4.4,2,4.4,4.4s-2,4.4-4.4,4.4S269.3,46.4,269.3,43.9"/>
	<path class="st2" d="M278.2,26.2c0-2.5,2-4.4,4.4-4.4c2.5,0,4.4,2,4.4,4.4c0,2.5-2,4.4-4.4,4.4C280.2,30.6,278.2,28.7,278.2,26.2"
		/>
	<path class="st2" d="M278.2,8.5c0-2.5,2-4.4,4.4-4.4c2.5,0,4.4,2,4.4,4.4s-2,4.4-4.4,4.4S278.2,11,278.2,8.5"/>
	<path class="st2" d="M287,8.5c0-2.5,2-4.4,4.4-4.4c2.4,0,4.4,2,4.4,4.4s-2,4.4-4.4,4.4C289,12.9,287,11,287,8.5"/>
	<path class="st2" d="M278.2,43.9c0-2.5,2-4.4,4.4-4.4c2.5,0,4.4,2,4.4,4.4s-2,4.4-4.4,4.4S278.2,46.4,278.2,43.9"/>
	<path class="st2" d="M287,43.9c0-2.5,2-4.4,4.4-4.4c2.4,0,4.4,2,4.4,4.4s-2,4.4-4.4,4.4C289,48.3,287,46.4,287,43.9"/>
	<path class="st2" d="M4,17.4C4,14.9,6,13,8.4,13s4.4,2,4.4,4.4c0,2.5-2,4.4-4.4,4.4S4,19.8,4,17.4"/>
	<path class="st2" d="M4,43.9c0-2.5,2-4.4,4.4-4.4s4.4,2,4.4,4.4s-2,4.4-4.4,4.4S4,46.4,4,43.9"/>
	<path class="st2" d="M12.9,26.2c0-2.5,2-4.4,4.4-4.4s4.5,2,4.5,4.4c0,2.5-2.1,4.4-4.5,4.4S12.9,28.7,12.9,26.2"/>
	<path class="st2" d="M12.9,17.4c0-2.5,2-4.4,4.4-4.4s4.4,2,4.4,4.4c0,2.5-2,4.4-4.4,4.4S12.9,19.8,12.9,17.4"/>
	<path class="st2" d="M12.9,8.5c0-2.5,2-4.4,4.4-4.4s4.4,2,4.4,4.4s-2,4.4-4.4,4.4S12.9,11,12.9,8.5"/>
	<path class="st2" d="M12.9,43.9c0-2.5,2-4.4,4.4-4.4s4.4,2,4.4,4.4s-2,4.4-4.4,4.4S12.9,46.4,12.9,43.9"/>
	<path class="st2" d="M21.6,26.3c0-2.5,2.1-4.5,4.5-4.5s4.4,2,4.4,4.4c0,2.5-2,4.4-4.4,4.4C23.7,30.6,21.6,28.8,21.6,26.3"/>
	<path class="st2" d="M21.7,8.5c0-2.5,2-4.4,4.4-4.4s4.4,2,4.4,4.4s-2,4.4-4.4,4.4S21.7,11,21.7,8.5"/>
	<path class="st2" d="M21.7,43.9c0-2.5,2-4.4,4.4-4.4s4.4,2,4.4,4.4s-2,4.4-4.4,4.4S21.7,46.4,21.7,43.9"/>
	<path class="st2" d="M30.6,26.2c0-2.5,2-4.4,4.4-4.4c2.5,0,4.4,2,4.4,4.4c0,2.5-2,4.4-4.4,4.4C32.5,30.6,30.6,28.7,30.6,26.2"/>
	<path class="st2" d="M30.6,8.5c0-2.5,2-4.4,4.4-4.4c2.5,0,4.4,2,4.4,4.4s-2,4.4-4.4,4.4C32.5,12.9,30.6,11,30.6,8.5"/>
	<path class="st2" d="M30.6,43.9c0-2.5,2-4.4,4.4-4.4c2.5,0,4.4,2,4.4,4.4s-2,4.4-4.4,4.4C32.5,48.3,30.6,46.4,30.6,43.9"/>
	<path class="st2" d="M39.4,26.2c0-2.5,2-4.4,4.4-4.4s4.4,2,4.4,4.4c0,2.5-2,4.4-4.4,4.4S39.4,28.7,39.4,26.2"/>
	<path class="st2" d="M39.4,35c0-2.5,2-4.4,4.4-4.4s4.4,2,4.4,4.4c0,2.5-2,4.4-4.4,4.4C41.4,39.5,39.4,37.5,39.4,35"/>
	<path class="st2" d="M39.4,8.5c0-2.5,2-4.4,4.4-4.4s4.4,2,4.4,4.4s-2,4.4-4.4,4.4S39.4,11,39.4,8.5"/>
	<path class="st2" d="M48.2,35c0-2.5,2-4.4,4.4-4.4s4.4,2,4.4,4.4c0,2.5-2,4.4-4.4,4.4C50.2,39.5,48.2,37.5,48.2,35"/>
	<path class="st2" d="M48.2,8.5c0-2.5,2-4.4,4.4-4.4s4.4,2,4.4,4.4s-2,4.4-4.4,4.4S48.2,11,48.2,8.5"/>
	<path class="st2" d="M39.4,43.9c0-2.5,2-4.4,4.4-4.4s4.4,2,4.4,4.4s-2,4.4-4.4,4.4S39.4,46.4,39.4,43.9"/>
	<path class="st3" d="M5,17.4C5,15.6,6.5,14,8.4,14c1.8,0,3.4,1.5,3.4,3.4c0,2-1.5,3.4-3.4,3.4C6.6,20.8,5,19.3,5,17.4"/>
	<path class="st3" d="M5,43.9c0-1.8,1.5-3.4,3.4-3.4c1.8,0,3.4,1.5,3.4,3.4c0,1.8-1.5,3.4-3.4,3.4C6.6,47.3,5,45.7,5,43.9"/>
	<path class="st3" d="M13.8,26.2c0-1.8,1.5-3.4,3.4-3.4c1.8,0,3.4,1.5,3.4,3.4c0,1.8-1.5,3.4-3.4,3.4C15.4,29.6,13.8,28.2,13.8,26.2
		"/>
	<path class="st3" d="M13.8,17.4c0-1.8,1.5-3.4,3.4-3.4c1.8,0,3.4,1.5,3.4,3.4c0,2-1.5,3.4-3.4,3.4C15.4,20.8,13.8,19.3,13.8,17.4"
		/>
	<path class="st3" d="M13.8,8.5c0-1.8,1.5-3.4,3.4-3.4c1.8,0,3.4,1.5,3.4,3.4c0,1.8-1.5,3.4-3.4,3.4C15.4,11.9,13.8,10.5,13.8,8.5"
		/>
	<path class="st3" d="M13.8,43.9c0-1.8,1.5-3.4,3.4-3.4c1.8,0,3.4,1.5,3.4,3.4c0,1.8-1.5,3.4-3.4,3.4C15.4,47.3,13.8,45.7,13.8,43.9
		"/>
	<path class="st3" d="M22.7,26.2c0-1.8,1.5-3.4,3.4-3.4c1.8,0,3.4,1.5,3.4,3.4c0,1.8-1.5,3.4-3.4,3.4C24.2,29.6,22.7,28.2,22.7,26.2
		"/>
	<path class="st3" d="M22.7,8.5c0-1.8,1.5-3.4,3.4-3.4c1.8,0,3.4,1.5,3.4,3.4c0,1.8-1.5,3.4-3.4,3.4S22.7,10.5,22.7,8.5"/>
	<path class="st3" d="M22.7,43.9c0-1.8,1.5-3.4,3.4-3.4c1.8,0,3.4,1.5,3.4,3.4c0,1.8-1.5,3.4-3.4,3.4S22.7,45.7,22.7,43.9"/>
	<path class="st3" d="M31.5,26.2c0-1.8,1.5-3.4,3.4-3.4c1.8,0,3.4,1.5,3.4,3.4c0,1.8-1.5,3.4-3.4,3.4C33,29.6,31.5,28.2,31.5,26.2"
		/>
	<path class="st3" d="M31.5,8.5c0-1.8,1.5-3.4,3.4-3.4c1.8,0,3.4,1.5,3.4,3.4c0,1.8-1.5,3.4-3.4,3.4S31.5,10.5,31.5,8.5"/>
	<path class="st3" d="M31.5,43.9c0-1.8,1.5-3.4,3.4-3.4c1.8,0,3.4,1.5,3.4,3.4c0,1.8-1.5,3.4-3.4,3.4S31.5,45.7,31.5,43.9"/>
	<path class="st3" d="M40.4,26.2c0-1.8,1.5-3.4,3.4-3.4c1.8,0,3.4,1.5,3.4,3.4c0,1.8-1.5,3.4-3.4,3.4C41.9,29.6,40.4,28.2,40.4,26.2
		"/>
	<path class="st3" d="M40.4,35c0-1.8,1.5-3.4,3.4-3.4c1.8,0,3.4,1.5,3.4,3.4c0,1.8-1.5,3.4-3.4,3.4C41.9,38.5,40.4,36.9,40.4,35"/>
	<path class="st3" d="M40.4,8.5c0-1.8,1.5-3.4,3.4-3.4c1.8,0,3.4,1.5,3.4,3.4c0,1.8-1.5,3.4-3.4,3.4S40.4,10.5,40.4,8.5"/>
	<path class="st3" d="M40.4,43.9c0-1.8,1.5-3.4,3.4-3.4c1.8,0,3.4,1.5,3.4,3.4c0,1.8-1.5,3.4-3.4,3.4S40.4,45.7,40.4,43.9"/>
	<path class="st3" d="M49.2,35c0-1.8,1.5-3.4,3.4-3.4c1.8,0,3.4,1.5,3.4,3.4c0,1.8-1.5,3.4-3.4,3.4S49.2,36.9,49.2,35"/>
	<path class="st3" d="M49.2,8.5c0-1.8,1.5-3.4,3.4-3.4c1.8,0,3.4,1.5,3.4,3.4c0,1.8-1.5,3.4-3.4,3.4S49.2,10.5,49.2,8.5"/>
	<path class="st3" d="M243.9,26.2c0-1.8,1.5-3.4,3.4-3.4c1.8,0,3.4,1.5,3.4,3.4c0,1.8-1.5,3.4-3.4,3.4
		C245.4,29.6,243.9,28.2,243.9,26.2"/>
	<path class="st3" d="M243.9,35c0-1.8,1.5-3.4,3.4-3.4c1.8,0,3.4,1.5,3.4,3.4c0,1.8-1.5,3.4-3.4,3.4C245.4,38.4,243.9,36.9,243.9,35
		"/>
	<path class="st3" d="M243.9,17.4c0-1.8,1.5-3.4,3.4-3.4c1.8,0,3.4,1.5,3.4,3.4c0,2-1.5,3.4-3.4,3.4
		C245.4,20.8,243.9,19.3,243.9,17.4"/>
	<path class="st3" d="M252.8,26.2c0-1.8,1.5-3.4,3.4-3.4c1.8,0,3.4,1.5,3.4,3.4c0,1.8-1.5,3.4-3.4,3.4
		C254.2,29.6,252.8,28.2,252.8,26.2"/>
	<path class="st3" d="M252.8,35c0-1.8,1.5-3.4,3.4-3.4c1.8,0,3.4,1.5,3.4,3.4c0,1.8-1.5,3.4-3.4,3.4C254.2,38.5,252.8,36.9,252.8,35
		"/>
	<path class="st3" d="M252.8,17.4c0-1.8,1.5-3.4,3.4-3.4c1.8,0,3.4,1.5,3.4,3.4c0,2-1.5,3.4-3.4,3.4
		C254.2,20.8,252.8,19.3,252.8,17.4"/>
	<path class="st3" d="M252.8,8.5c0-1.8,1.5-3.4,3.4-3.4c1.8,0,3.4,1.5,3.4,3.4c0,1.8-1.5,3.4-3.4,3.4
		C254.2,11.9,252.8,10.5,252.8,8.5"/>
	<path class="st3" d="M252.8,43.9c0-1.8,1.5-3.4,3.4-3.4c1.8,0,3.4,1.5,3.4,3.4c0,1.8-1.5,3.4-3.4,3.4
		C254.2,47.3,252.8,45.7,252.8,43.9"/>
	<path class="st3" d="M261.6,26.2c0-1.8,1.5-3.4,3.4-3.4c1.8,0,3.4,1.5,3.4,3.4c0,1.8-1.5,3.4-3.4,3.4
		C263.1,29.6,261.6,28.2,261.6,26.2"/>
	<path class="st3" d="M261.6,8.5c0-1.8,1.5-3.4,3.4-3.4c1.8,0,3.4,1.5,3.4,3.4c0,1.8-1.5,3.4-3.4,3.4
		C263.1,11.9,261.6,10.5,261.6,8.5"/>
	<path class="st3" d="M261.6,43.9c0-1.8,1.5-3.4,3.4-3.4c1.8,0,3.4,1.5,3.4,3.4c0,1.8-1.5,3.4-3.4,3.4
		C263.1,47.3,261.6,45.7,261.6,43.9"/>
	<path class="st3" d="M270.5,26.2c0-1.8,1.5-3.4,3.4-3.4c1.8,0,3.4,1.5,3.4,3.4c0,1.8-1.5,3.4-3.4,3.4
		C272,29.6,270.5,28.2,270.5,26.2"/>
	<path class="st3" d="M270.5,8.5c0-1.8,1.5-3.4,3.4-3.4c1.8,0,3.4,1.5,3.4,3.4c0,1.8-1.5,3.4-3.4,3.4C272,11.9,270.5,10.5,270.5,8.5
		"/>
	<path class="st3" d="M270.5,43.9c0-1.8,1.5-3.4,3.4-3.4c1.8,0,3.4,1.5,3.4,3.4c0,1.8-1.5,3.4-3.4,3.4
		C271.9,47.3,270.5,45.7,270.5,43.9"/>
	<path class="st3" d="M279.3,26.2c0-1.8,1.5-3.4,3.4-3.4c1.8,0,3.4,1.5,3.4,3.4c0,1.8-1.5,3.4-3.4,3.4S279.3,28.2,279.3,26.2"/>
	<path class="st3" d="M279.3,8.5c0-1.8,1.5-3.4,3.4-3.4c1.8,0,3.4,1.5,3.4,3.4c0,1.8-1.5,3.4-3.4,3.4S279.3,10.5,279.3,8.5"/>
	<path class="st3" d="M279.3,43.9c0-1.8,1.5-3.4,3.4-3.4c1.8,0,3.4,1.5,3.4,3.4c0,1.8-1.5,3.4-3.4,3.4S279.3,45.7,279.3,43.9"/>
	<path class="st3" d="M288.2,43.9c0-1.8,1.5-3.4,3.4-3.4c1.8,0,3.4,1.5,3.4,3.4c0,1.8-1.5,3.4-3.4,3.4
		C289.6,47.3,288.2,45.7,288.2,43.9"/>
	<path class="st3" d="M288.2,8.5c0-1.8,1.5-3.4,3.4-3.4c1.8,0,3.4,1.5,3.4,3.4c0,1.8-1.5,3.4-3.4,3.4S288.2,10.5,288.2,8.5"/>
	<path class="st3" d="M63.4,26.2c0-1.8,1.5-3.4,3.4-3.4c1.8,0,3.4,1.5,3.4,3.4c0,1.8-1.5,3.4-3.4,3.4C64.8,29.6,63.4,28.2,63.4,26.2
		"/>
	<path class="st3" d="M63.4,35c0-1.8,1.5-3.4,3.4-3.4c1.8,0,3.4,1.5,3.4,3.4c0,1.8-1.5,3.4-3.4,3.4C64.8,38.5,63.4,36.9,63.4,35"/>
	<path class="st3" d="M63.4,17.4c0-1.8,1.5-3.4,3.4-3.4c1.8,0,3.4,1.5,3.4,3.4c0,2-1.5,3.4-3.4,3.4C64.8,20.8,63.4,19.3,63.4,17.4"
		/>
	<path class="st3" d="M72.2,26.2c0-1.8,1.5-3.4,3.4-3.4c2,0,3.4,1.5,3.4,3.4c0,1.8-1.5,3.4-3.4,3.4C73.7,29.6,72.2,28.2,72.2,26.2"
		/>
	<path class="st3" d="M72.2,35c0-1.8,1.5-3.4,3.4-3.4c2,0,3.4,1.5,3.4,3.4c0,1.8-1.5,3.4-3.4,3.4C73.7,38.5,72.2,36.9,72.2,35"/>
	<path class="st3" d="M72.2,17.4c0-1.8,1.5-3.4,3.4-3.4c2,0,3.4,1.5,3.4,3.4c0,2-1.5,3.4-3.4,3.4S72.2,19.3,72.2,17.4"/>
	<path class="st3" d="M72.2,8.5c0-1.8,1.5-3.4,3.4-3.4c2,0,3.4,1.5,3.4,3.4c0,1.8-1.5,3.4-3.4,3.4S72.2,10.5,72.2,8.5"/>
	<path class="st3" d="M72.2,43.9c0-1.8,1.5-3.4,3.4-3.4c2,0,3.4,1.5,3.4,3.4c0,1.8-1.5,3.4-3.4,3.4S72.2,45.7,72.2,43.9"/>
	<path class="st3" d="M80.9,8.5c0-1.8,1.5-3.4,3.4-3.4c1.8,0,3.4,1.5,3.4,3.4c0,1.8-1.5,3.4-3.4,3.4C82.5,11.9,80.9,10.5,80.9,8.5"
		/>
	<path class="st3" d="M80.9,43.9c0-1.8,1.5-3.4,3.4-3.4c1.8,0,3.4,1.5,3.4,3.4c0,1.8-1.5,3.4-3.4,3.4C82.5,47.3,80.9,45.7,80.9,43.9
		"/>
	<path class="st3" d="M89.8,8.5c0-1.8,1.5-3.4,3.4-3.4s3.4,1.5,3.4,3.4c0,1.8-1.5,3.4-3.4,3.4S89.8,10.5,89.8,8.5"/>
	<path class="st3" d="M89.8,43.9c0-1.8,1.5-3.4,3.4-3.4s3.4,1.5,3.4,3.4c0,1.8-1.5,3.4-3.4,3.4S89.8,45.7,89.8,43.9"/>
	<path class="st3" d="M98.6,26.2c0-1.8,1.5-3.4,3.4-3.4c1.8,0,3.4,1.5,3.4,3.4c0,1.8-1.5,3.4-3.4,3.4
		C100.2,29.6,98.6,28.2,98.6,26.2"/>
	<path class="st3" d="M98.6,35c0-1.8,1.5-3.4,3.4-3.4c1.8,0,3.4,1.5,3.4,3.4c0,1.8-1.5,3.4-3.4,3.4C100.2,38.5,98.6,36.9,98.6,35"/>
	<path class="st3" d="M98.6,17.4c0-1.8,1.5-3.4,3.4-3.4c1.8,0,3.4,1.5,3.4,3.4c0,2-1.5,3.4-3.4,3.4C100.2,20.8,98.6,19.3,98.6,17.4"
		/>
	<path class="st3" d="M98.6,8.5c0-1.8,1.5-3.4,3.4-3.4c1.8,0,3.4,1.5,3.4,3.4c0,1.8-1.5,3.4-3.4,3.4C100.2,11.9,98.6,10.5,98.6,8.5"
		/>
	<path class="st3" d="M98.6,43.9c0-1.8,1.5-3.4,3.4-3.4c1.8,0,3.4,1.5,3.4,3.4c0,1.8-1.5,3.4-3.4,3.4
		C100.2,47.3,98.6,45.7,98.6,43.9"/>
	<path class="st3" d="M107.5,35c0-1.8,1.5-3.4,3.4-3.4c1.8,0,3.4,1.5,3.4,3.4c0,1.8-1.5,3.4-3.4,3.4C109.1,38.5,107.5,36.9,107.5,35
		"/>
	<path class="st3" d="M107.5,26.2c0-1.8,1.5-3.4,3.4-3.4c1.8,0,3.4,1.5,3.4,3.4c0,1.8-1.5,3.4-3.4,3.4
		C109.1,29.6,107.5,28.2,107.5,26.2"/>
	<path class="st3" d="M107.5,17.4c0-1.8,1.5-3.4,3.4-3.4c1.8,0,3.4,1.5,3.4,3.4c0,2-1.5,3.4-3.4,3.4
		C109.1,20.8,107.5,19.3,107.5,17.4"/>
	<path class="st3" d="M124.4,26.2c0-1.8,1.5-3.4,3.4-3.4c1.8,0,3.4,1.5,3.4,3.4c0,1.8-1.5,3.4-3.4,3.4S124.4,28.2,124.4,26.2"/>
	<path class="st3" d="M124.4,35c0-1.8,1.5-3.4,3.4-3.4c1.8,0,3.4,1.5,3.4,3.4c0,1.8-1.5,3.4-3.4,3.4S124.4,36.9,124.4,35"/>
	<path class="st3" d="M124.4,17.4c0-1.8,1.5-3.4,3.4-3.4c1.8,0,3.4,1.5,3.4,3.4c0,2-1.5,3.4-3.4,3.4S124.4,19.3,124.4,17.4"/>
	<path class="st3" d="M124.4,8.5c0-1.8,1.5-3.4,3.4-3.4c1.8,0,3.4,1.5,3.4,3.4c0,1.8-1.5,3.4-3.4,3.4S124.4,10.5,124.4,8.5"/>
	<path class="st3" d="M124.4,43.9c0-1.8,1.5-3.4,3.4-3.4c1.8,0,3.4,1.5,3.4,3.4c0,1.8-1.5,3.4-3.4,3.4S124.4,45.7,124.4,43.9"/>
	<path class="st3" d="M133.3,26.2c0-1.8,1.5-3.4,3.4-3.4c1.8,0,3.4,1.5,3.4,3.4c0,1.8-1.5,3.4-3.4,3.4S133.3,28.2,133.3,26.2"/>
	<path class="st3" d="M133.3,35c0-1.8,1.5-3.4,3.4-3.4c1.8,0,3.4,1.5,3.4,3.4c0,1.8-1.5,3.4-3.4,3.4S133.3,36.9,133.3,35"/>
	<path class="st3" d="M133.3,17.4c0-1.8,1.5-3.4,3.4-3.4c1.8,0,3.4,1.5,3.4,3.4c0,2-1.5,3.4-3.4,3.4S133.3,19.3,133.3,17.4"/>
	<path class="st3" d="M133.3,8.5c0-1.8,1.5-3.4,3.4-3.4c1.8,0,3.4,1.5,3.4,3.4c0,1.8-1.5,3.4-3.4,3.4S133.3,10.5,133.3,8.5"/>
	<path class="st3" d="M133.3,43.9c0-1.8,1.5-3.4,3.4-3.4c1.8,0,3.4,1.5,3.4,3.4c0,1.8-1.5,3.4-3.4,3.4S133.3,45.7,133.3,43.9"/>
	<path class="st3" d="M142.1,26.2c0-1.8,1.5-3.4,3.4-3.4c1.8,0,3.4,1.5,3.4,3.4c0,1.8-1.5,3.4-3.4,3.4S142.1,28.2,142.1,26.2"/>
	<path class="st3" d="M142.1,17.4c0-1.8,1.5-3.4,3.4-3.4c1.8,0,3.4,1.5,3.4,3.4c0,2-1.5,3.4-3.4,3.4S142.1,19.3,142.1,17.4"/>
	<path class="st3" d="M151,26.2c0-1.8,1.5-3.4,3.4-3.4c1.8,0,3.4,1.5,3.4,3.4c0,1.8-1.5,3.4-3.4,3.4C152.5,29.6,151,28.2,151,26.2"
		/>
	<path class="st3" d="M151,35c0-1.8,1.5-3.4,3.4-3.4c1.8,0,3.4,1.5,3.4,3.4c0,1.8-1.5,3.4-3.4,3.4C152.5,38.5,151,36.9,151,35"/>
	<path class="st3" d="M159.8,26.2c0-1.8,1.5-3.4,3.4-3.4c1.8,0,3.4,1.5,3.4,3.4c0,1.8-1.5,3.4-3.4,3.4S159.8,28.2,159.8,26.2"/>
	<path class="st3" d="M159.8,35c0-1.8,1.5-3.4,3.4-3.4c1.8,0,3.4,1.5,3.4,3.4c0,1.8-1.5,3.4-3.4,3.4S159.8,36.9,159.8,35"/>
	<path class="st3" d="M159.8,17.4c0-1.8,1.5-3.4,3.4-3.4c1.8,0,3.4,1.5,3.4,3.4c0,2-1.5,3.4-3.4,3.4S159.8,19.3,159.8,17.4"/>
	<path class="st3" d="M159.8,8.5c0-1.8,1.5-3.4,3.4-3.4c1.8,0,3.4,1.5,3.4,3.4c0,1.8-1.5,3.4-3.4,3.4S159.8,10.5,159.8,8.5"/>
	<path class="st3" d="M159.8,43.9c0-1.8,1.5-3.4,3.4-3.4c1.8,0,3.4,1.5,3.4,3.4c0,1.8-1.5,3.4-3.4,3.4S159.8,45.7,159.8,43.9"/>
	<path class="st3" d="M168.7,43.9c0-1.8,1.5-3.4,3.4-3.4c1.8,0,3.4,1.5,3.4,3.4c0,1.8-1.5,3.4-3.4,3.4S168.7,45.7,168.7,43.9"/>
	<path class="st3" d="M168.7,35c0-1.8,1.5-3.4,3.4-3.4c1.8,0,3.4,1.5,3.4,3.4c0,1.8-1.5,3.4-3.4,3.4S168.7,36.9,168.7,35"/>
	<path class="st3" d="M168.7,26.2c0-1.8,1.5-3.4,3.4-3.4c1.8,0,3.4,1.5,3.4,3.4c0,1.8-1.5,3.4-3.4,3.4S168.7,28.2,168.7,26.2"/>
	<path class="st3" d="M168.7,17.4c0-1.8,1.5-3.4,3.4-3.4c1.8,0,3.4,1.5,3.4,3.4c0,2-1.5,3.4-3.4,3.4S168.7,19.3,168.7,17.4"/>
	<path class="st3" d="M168.7,8.5c0-1.8,1.5-3.4,3.4-3.4c1.8,0,3.4,1.5,3.4,3.4c0,1.8-1.5,3.4-3.4,3.4S168.7,10.5,168.7,8.5"/>
	<path class="st3" d="M185.5,35c0-1.8,1.5-3.4,3.4-3.4s3.4,1.5,3.4,3.4c0,1.8-1.5,3.4-3.4,3.4S185.5,36.9,185.5,35"/>
	<path class="st3" d="M185.5,43.9c0-1.8,1.5-3.4,3.4-3.4s3.4,1.5,3.4,3.4c0,1.8-1.5,3.4-3.4,3.4S185.5,45.7,185.5,43.9"/>
	<path class="st3" d="M194.4,26.2c0-1.8,1.5-3.4,3.4-3.4s3.4,1.5,3.4,3.4c0,1.8-1.5,3.4-3.4,3.4S194.4,28.2,194.4,26.2"/>
	<path class="st3" d="M194.4,35c0-1.8,1.5-3.4,3.4-3.4s3.4,1.5,3.4,3.4c0,1.8-1.5,3.4-3.4,3.4S194.4,36.9,194.4,35"/>
	<path class="st3" d="M194.4,17.4c0-1.8,1.5-3.4,3.4-3.4s3.4,1.5,3.4,3.4c0,2-1.5,3.4-3.4,3.4S194.4,19.3,194.4,17.4"/>
	<path class="st3" d="M194.4,43.9c0-1.8,1.5-3.4,3.4-3.4s3.4,1.5,3.4,3.4c0,1.8-1.5,3.4-3.4,3.4S194.4,45.7,194.4,43.9"/>
	<path class="st3" d="M203.2,35c0-1.8,1.5-3.4,3.4-3.4c1.8,0,3.4,1.5,3.4,3.4c0,1.8-1.5,3.4-3.4,3.4C204.8,38.5,203.2,36.9,203.2,35
		"/>
	<path class="st3" d="M203.2,8.5c0-1.8,1.5-3.4,3.4-3.4c1.8,0,3.4,1.5,3.4,3.4c0,1.8-1.5,3.4-3.4,3.4
		C204.8,11.9,203.2,10.5,203.2,8.5"/>
	<path class="st3" d="M212.1,35c0-1.8,1.5-3.4,3.4-3.4c1.8,0,3.4,1.5,3.4,3.4c0,1.8-1.5,3.4-3.4,3.4C213.7,38.5,212.1,36.9,212.1,35
		"/>
	<path class="st3" d="M212.1,8.5c0-1.8,1.5-3.4,3.4-3.4c1.8,0,3.4,1.5,3.4,3.4c0,1.8-1.5,3.4-3.4,3.4
		C213.7,11.9,212.1,10.5,212.1,8.5"/>
	<path class="st3" d="M220.9,26.2c0-1.8,1.5-3.4,3.4-3.4c1.8,0,3.4,1.5,3.4,3.4c0,1.8-1.5,3.4-3.4,3.4
		C222.5,29.6,220.9,28.2,220.9,26.2"/>
	<path class="st3" d="M220.9,35c0-1.8,1.5-3.4,3.4-3.4c1.8,0,3.4,1.5,3.4,3.4c0,1.8-1.5,3.4-3.4,3.4C222.5,38.5,220.9,36.9,220.9,35
		"/>
	<path class="st3" d="M220.9,17.4c0-1.8,1.5-3.4,3.4-3.4c1.8,0,3.4,1.5,3.4,3.4c0,2-1.5,3.4-3.4,3.4
		C222.5,20.8,220.9,19.3,220.9,17.4"/>
	<path class="st3" d="M220.9,43.9c0-1.8,1.5-3.4,3.4-3.4c1.8,0,3.4,1.5,3.4,3.4c0,1.8-1.5,3.4-3.4,3.4
		C222.5,47.3,220.9,45.7,220.9,43.9"/>
	<path class="st3" d="M229.8,43.9c0-1.8,1.5-3.4,3.4-3.4c2,0,3.4,1.5,3.4,3.4c0,1.8-1.5,3.4-3.4,3.4
		C231.2,47.3,229.8,45.7,229.8,43.9"/>
	<path class="st3" d="M229.8,35c0-1.8,1.5-3.4,3.4-3.4c2,0,3.4,1.5,3.4,3.4c0,1.8-1.5,3.4-3.4,3.4C231.2,38.5,229.8,36.9,229.8,35"
		/>
</g>
</svg>
