<?xml version="1.0" encoding="utf-8"?>
<!-- Generator: Adobe Illustrator 20.0.0, SVG Export Plug-In . SVG Version: 6.00 Build 0)  -->
<svg version="1.1" id="Layer_1" xmlns="http://www.w3.org/2000/svg" xmlns:xlink="http://www.w3.org/1999/xlink" x="0px" y="0px"
	 viewBox="0 0 300 192" style="enable-background:new 0 0 300 192;" xml:space="preserve">
<style type="text/css">
	.st0{fill:#A5C400;}
	.st1{fill:#E30054;}
	.st2{fill:#9C1F23;}
	.st3{fill:#FDC400;}
	.st4{fill:#A3A415;}
	.st5{fill:#FFFFFF;}
</style>
<g>
	<g>
		<path class="st0" d="M187.3,66.3C174.8,27.8,138.5,0,96,0C43,0,0,42.9,0,96c0,53,42.9,96,96,96c17.8,0,34.5-4.9,48.9-13.4
			c-3.2-4.5-5.2-10.2-5.2-16.2c0-15.6,12.7-28.3,28.3-28.3c5.2,0,10.1,1.5,14.3,3.9c0.4-0.9,0.7-1.7,1.2-2.5
			c-5.5-9.3-8.6-20.2-8.6-31.7C174.8,89.7,179.5,76.8,187.3,66.3"/>
		<path class="st1" d="M237.5,41.1c-20.5,0-38.9,10-50.3,25.2c3.1,9.3,4.7,19.3,4.7,29.8c0,14-3.1,27.4-8.5,39.5
			c10.9,18.4,31,30.9,54,30.9c34.5,0,62.6-28,62.6-62.6C300.1,69.2,272.1,41.1,237.5,41.1"/>
		<path class="st2" d="M187.3,66.3c-7.7,10.5-12.4,23.4-12.4,37.4c0,11.6,3.2,22.4,8.6,31.7c5.4-12,8.5-25.3,8.5-39.5
			C191.9,85.8,190.3,75.7,187.3,66.3"/>
		<path class="st3" d="M144.7,178.7c5.2,7.3,13.5,12,23.1,12c15.6,0,28.3-12.7,28.3-28.3c0-10.5-5.7-19.5-14-24.3
			C174.1,155,160.9,169.1,144.7,178.7"/>
		<path class="st4" d="M139.7,162.4c0,6,1.8,11.7,5.2,16.2c16.1-9.6,29.1-23.7,37.4-40.7c-4.2-2.5-9.1-3.9-14.3-3.9
			C152.5,134.2,139.7,146.8,139.7,162.4"/>
		<path class="st5" d="M120.6,78.9c-5,3-11.4,4.3-14.5-1.1c-2.2-3.8-0.9-8,3.3-10.5c6-3.4,9.8-2.7,10.6-1.5c0.2,0.5,0.1,1-0.4,1.2
			l-8.1,5.4c-0.7,0.5-1,1.5-0.5,2.2c0.5,0.7,1.4,1.1,2.2,0.6l9-4.7c2.6-1.4,3.1-4.2,1.8-6.1c-3-5-11.1-3.6-17.2-0.1
			c-7.4,4.3-10.1,11.1-6.8,16.8c3.6,6.1,11.8,7.1,20.7,2c5.8-3.3,9-6.6,9.6-7.9c0.2-0.5,0.7-1.1,0.4-2c-0.5-0.9-1.5-1-2.3-0.5
			C127.5,73.5,124.8,76.6,120.6,78.9 M139.4,63l11.3-16.8c0.6-0.9,0.5-2.1,0-3c-0.7-1.2-2.3-1.8-3.8-1l-19.2,11.1
			c-0.7,0.5-0.9,1.5-0.5,2.2c0.5,0.9,1.4,1.1,2.1,0.7l11.3-4.8c1-0.5,1.4,0,1.6,0.4c0.1,0.2,0.2,0.7-0.1,1.2l-8.7,12.3
			c-1.2,1.7-1.4,3.2-0.5,4.7c1.1,1.8,3.6,2.7,5.4,1.7l22.4-12.9c1-0.5,1.2-1.6,0.7-2.5c-0.5-0.9-1.5-1.1-2.3-0.7l-18.7,8.9
			c-0.5,0.2-1.1,0.2-1.4-0.2C139.1,63.8,139.1,63.5,139.4,63 M47.4,118.4c-1.7,1.7-6.6,4.7-8.2,5.5c-7.4,4.3-12.4,6.5-13,6.9
			c-1.1,0.6-1.2,1.7-0.7,2.3c0.6,1,1.8,0.7,3.1,0.4c1.2-0.4,10-3.9,20-9.7c4.1-2.3,7.5-4.8,10-7c1-0.9,1.5-2.3,0.7-3.7
			c-0.5-0.9-1.4-1.4-2.6-1.4l-15.6-0.4c-0.7,0-1.2-0.4-1.5-0.9c-0.5-0.9-0.4-1.8,0.4-2.3l6.6-4.5c0.9-0.6,1-1.6,0.6-2.2
			c-0.5-1-1.6-0.7-2.5-0.4c-2.5,1-6.1,2.8-8.5,4.2c-3,1.7-6.1,3.9-7.1,5.2c-0.6,0.9-1,1.8-0.5,2.7c0.5,0.7,1.1,1.1,2.1,1.1l16,0.5
			c0.6,0,1.2,0.4,1.5,0.9C48.6,117,47.9,117.9,47.4,118.4 M77.2,99.9c6.1-3.6,11.2-12.5,14.4-24.2c0.2-1.1,0.5-1.5,0.9-1.8
			c0.9-0.5,1.8-0.2,2.3,0.6c0.2,0.5,0.2,1.2,0.1,1.8c-2.5,15.5-7.6,25.7-15.5,30.2c-6.6,3.8-14.3,2.1-18.7,0.1
			c-5.3-2.2-9.3-5.5-9.8-6.4s-0.5-2.1,0.6-2.7c0.7-0.4,1.4-0.4,2,0.1C61.5,102.5,70.8,103.6,77.2,99.9"/>
		<path class="st5" d="M50.3,141.7c-0.7-1.2-1.5-1.6-2.7-1c-1.1,0.6-1.2,1.7-0.6,2.8l0.1,0.2l3.3-1.8L50.3,141.7z M52.4,142.8
			l-4.4,2.6l0.2,0.4c0.7,1.2,1.7,1.6,2.8,1c0.9-0.5,1.4-1,1.8-1.6c0.2-0.4,0.9-0.5,1.2-0.1c0.4,0.4,0.5,0.7,0.1,1.2
			c-0.6,1-1.5,1.6-2.3,2.2c-2.6,1.5-4.5,0.2-5.7-1.7l-1-1.6c-1.1-2-1.1-4.3,1.4-5.8c2.6-1.5,4.5-0.4,5.7,1.7l0.4,0.7
			C52.9,142.1,52.8,142.6,52.4,142.8"/>
		<path class="st5" d="M95.8,112.2c0.2-1,0.9-1.7,1.7-2.3c2.1-1.2,3.6-0.2,4.7,1.6l2.8,4.9c0.4,0.5,0.1,1.2-0.4,1.5
			c-0.5,0.2-1.2,0.1-1.5-0.4l-2.7-4.7c-0.5-0.9-1.2-1.5-2.3-0.7c-0.9,0.5-1.2,1.2-1.2,2l3.1,5.4c0.4,0.5,0.1,1.2-0.4,1.5
			s-1.2,0.1-1.5-0.4l-4.2-7.1c-0.4-0.5-0.1-1.2,0.4-1.5C94.8,111.5,95.4,111.6,95.8,112.2"/>
		<path class="st5" d="M148.9,81.5c0.2-1,0.9-1.7,1.7-2.3c2.1-1.2,3.6-0.2,4.7,1.6l2.8,4.9c0.4,0.5,0.1,1.2-0.4,1.5
			c-0.5,0.2-1.2,0.1-1.5-0.4l-2.7-4.7c-0.5-0.9-1.2-1.5-2.3-0.7c-0.9,0.5-1.2,1.2-1.2,2l3.1,5.4c0.4,0.5,0.1,1.2-0.4,1.5
			c-0.5,0.3-1.2,0.1-1.5-0.4l-4.2-7.1c-0.4-0.5-0.1-1.2,0.4-1.5C147.9,80.7,148.7,81,148.9,81.5"/>
		<path class="st5" d="M105.5,106.6c0.2-1,0.9-1.7,1.7-2.3c2.1-1.2,3.6-0.2,4.7,1.6l2.8,4.9c0.4,0.5,0.1,1.2-0.4,1.5
			c-0.5,0.2-1.2,0.1-1.5-0.4l-2.7-4.7c-0.5-0.9-1.2-1.5-2.3-0.7c-0.9,0.5-1.2,1.2-1.2,2l3.1,5.4c0.4,0.5,0.1,1.2-0.4,1.5
			c-0.5,0.2-1.2,0.1-1.5-0.4l-4.2-7.1c-0.4-0.5-0.1-1.2,0.4-1.5C104.5,105.8,105.1,106.1,105.5,106.6"/>
		<path class="st5" d="M55.1,135.7c0.2-1,0.9-1.7,1.7-2.3c2.1-1.2,3.6-0.2,4.7,1.6l2.8,4.9c0.4,0.5,0.1,1.2-0.4,1.5
			c-0.5,0.2-1.2,0.1-1.5-0.4l-2.7-4.7c-0.5-0.9-1.2-1.5-2.3-0.7c-0.9,0.5-1.2,1.2-1.2,2l3.1,5.4c0.4,0.5,0.1,1.2-0.4,1.5
			c-0.5,0.3-1.2,0.1-1.5-0.4l-4.2-7.1c-0.4-0.5-0.1-1.2,0.4-1.5C54.1,135,54.7,135.2,55.1,135.7"/>
		<path class="st5" d="M71.5,135.8c0.1,1-0.2,1.4-0.7,1.7c-0.5,0.3-1.1,0.4-1.8-0.2c-2.1-1.7-4.4-3.7-6.5-5.5
			c-0.6-0.6-0.4-1.4,0.2-1.6c0.4-0.2,0.9-0.2,1.2,0.1c1.7,1.5,3.7,3.3,5.5,4.8c-0.4-2.3-0.9-4.9-1.4-7.3c-0.1-0.5,0.1-0.9,0.5-1.1
			c0.6-0.4,1.4-0.1,1.6,0.6C70.6,130,71.1,133,71.5,135.8"/>
		<path class="st5" d="M77.9,133.4c-0.5,0.4-1.2,0.1-1.5-0.4l-4.2-7.1c-0.2-0.5-0.1-1.2,0.4-1.5c0.5-0.4,1.2-0.1,1.5,0.4l4.2,7.1
			C78.6,132.4,78.3,133.1,77.9,133.4 M71.7,122.8c-0.6,0.4-1.5,0.1-1.8-0.5c-0.3-0.6-0.1-1.5,0.5-1.8s1.5-0.1,1.8,0.5
			C72.6,121.7,72.3,122.4,71.7,122.8"/>
		<path class="st5" d="M79.2,121.7c0.4-1.1,1.1-1.8,1.6-2.1c0.5-0.3,0.9-0.4,1.2-0.4c0.5,0,0.9,0.4,1,0.9c0.1,0.5-0.1,1.1-0.7,1.2
			c-0.2,0-0.4,0.1-0.9,0.4c-0.7,0.4-1.4,1.1-1,2.2l2.8,5c0.4,0.5,0.1,1.2-0.4,1.5c-0.5,0.2-1.2,0.1-1.5-0.4l-4.2-7.1
			c-0.4-0.5-0.1-1.2,0.4-1.5C78.2,121.1,78.8,121.2,79.2,121.7"/>
		<path class="st5" d="M90.9,118.6c-0.7-1.2-1.6-1.6-2.8-0.9c-1.2,0.7-1.2,1.7-0.6,2.8l1,1.8c0.7,1.2,1.6,1.6,2.8,1
			c1.1-0.6,1.2-1.7,0.6-2.8L90.9,118.6z M92.4,125c-2.6,1.5-4.5,0.5-5.7-1.6l-1.1-1.8c-1.1-2-1-4.3,1.5-5.7c2.5-1.5,4.5-0.5,5.7,1.6
			l1.1,1.8C95.1,121.3,94.9,123.5,92.4,125"/>
		<path class="st5" d="M119.8,101.6c-0.7-1.2-1.5-1.6-2.7-1c-1.1,0.6-1.2,1.7-0.6,2.8l0.1,0.2l3.3-1.8L119.8,101.6z M121.9,102.6
			l-4.4,2.6l0.2,0.4c0.7,1.2,1.7,1.6,2.8,1c0.9-0.5,1.4-1,1.8-1.6c0.2-0.4,0.9-0.5,1.2-0.1s0.5,0.7,0.1,1.2c-0.6,1-1.5,1.6-2.3,2.2
			c-2.6,1.5-4.5,0.2-5.7-1.7l-1-1.6c-1.1-2-1.1-4.3,1.4-5.8c2.6-1.5,4.4-0.4,5.7,1.7l0.4,0.7C122.5,102,122.2,102.4,121.9,102.6"/>
		<path class="st5" d="M144,87.6c-0.7-1.2-1.5-1.6-2.7-1c-1.1,0.6-1.2,1.7-0.6,2.8l0.1,0.2l3.3-1.8L144,87.6z M146.2,88.6l-4.4,2.6
			l0.2,0.4c0.7,1.2,1.7,1.6,2.8,1c0.9-0.5,1.4-1,1.8-1.6c0.2-0.4,0.9-0.5,1.2-0.1c0.3,0.4,0.5,0.7,0.1,1.2c-0.6,1-1.5,1.6-2.3,2.2
			c-2.6,1.5-4.5,0.2-5.7-1.7l-1-1.6c-1.1-2-1.1-4.3,1.4-5.8c2.6-1.5,4.4-0.4,5.7,1.7l0.4,0.7C146.7,88,146.6,88.5,146.2,88.6"/>
		<path class="st5" d="M166,82.5l-0.6,0.4c-2.5,1.5-4.1,0.2-5.4-2.1l-2-3.4l-0.4,0.2c-0.5,0.2-1,0.1-1.2-0.4c-0.2-0.5-0.1-1,0.4-1.2
			l0.4-0.2l-0.9-1.5c-0.4-0.5-0.1-1.2,0.4-1.5c0.5-0.4,1.2-0.1,1.5,0.4l0.9,1.5l1.5-0.9c0.5-0.2,1-0.1,1.2,0.4
			c0.2,0.5,0.1,1-0.4,1.2l-1.5,0.9l2,3.3c0.9,1.6,1.6,2,2.8,1.4l0.4-0.2c0.5-0.2,1.1-0.1,1.4,0.4C166.6,81.6,166.5,82.2,166,82.5"/>
		<path class="st5" d="M131.5,90.3c-1,0.6-2,1.5-2.1,2.6c-0.9-0.4-1.7-0.4-2.8,0.2c-1,0.5-1.5,1.4-1.7,2.3c-0.4-0.5-1-0.7-1.5-0.4
			c-0.5,0.4-0.7,1-0.4,1.5l4.2,7.1c0.4,0.5,1,0.7,1.5,0.4c0.5-0.4,0.7-1,0.4-1.5l-3.1-5.4c0-0.7,0.4-1.5,1.2-2
			c1.2-0.7,1.8-0.1,2.3,0.9l2.7,4.7c0.4,0.5,1,0.7,1.5,0.4c0.5-0.4,0.7-1,0.4-1.5l-2.8-4.9c-0.1-0.1-0.2-0.4-0.2-0.5
			c0-0.7,0.4-1.5,1.2-2c1.2-0.7,1.8-0.1,2.3,0.9l2.7,4.7c0.4,0.5,1,0.7,1.5,0.4c0.5-0.4,0.7-1,0.4-1.5l-2.8-4.9
			C135,90.1,133.4,89.1,131.5,90.3"/>
	</g>
</g>
</svg>
