<?xml version="1.0" encoding="utf-8"?>
<!-- Generator: Adobe Illustrator 20.0.0, SVG Export Plug-In . SVG Version: 6.00 Build 0)  -->
<svg version="1.1" id="Layer_1" xmlns="http://www.w3.org/2000/svg" xmlns:xlink="http://www.w3.org/1999/xlink" x="0px" y="0px"
	 viewBox="0 0 300 87.2" style="enable-background:new 0 0 300 87.2;" xml:space="preserve">
<style type="text/css">
	.st0{fill:#231F20;}
	.st1{fill:#EF4D31;}
</style>
<g>
	<g>
		<g>
			<path class="st0" d="M291.6,70v7.6h-46.3V70l23-23L291.6,70z M307.2,36.5h-28.1l18.2-18.2l-6.5-6.4l-22.3,22.3L246,11.5l-6.4,6.5
				L258,36.4h-28.1v8.5h27.9l-21.5,21.2v20.5h64.5V66.1l-21.5-21.2h28C307.2,45,307.2,36.5,307.2,36.5z"/>
			<path class="st1" d="M277.6,9.1c0,5-4.1,9.1-9.1,9.1s-9.1-4.1-9.1-9.1s4.1-9.1,9.1-9.1C273.6-0.1,277.6,4.1,277.6,9.1"/>
			<path class="st0" d="M192.9,49.3c12,0,18.5,6.9,18.5,18.9c0,11.7-6.4,18.9-18.5,18.9c-12,0-18.5-7.2-18.5-18.9
				C174.4,56.1,180.7,49.3,192.9,49.3 M192.9,79.8c6,0,8.1-5.6,8.1-11.7c0-6.5-2-11.7-8.1-11.7c-6,0-8.5,5.3-8.5,11.7
				C184.4,74.2,186.9,79.8,192.9,79.8"/>
			<path class="st0" d="M156.6,49.3c3.6,0,7.2,0.9,10.9,1.6l-0.9,8.1c-3.2-1.6-6.4-2.5-9.7-2.5c-6.9,0-11.7,4.8-11.7,11.7
				c0,7.2,5.3,11.7,12.5,11.7c3.2,0,6.5-0.9,9.2-2l0.4,7.6c-2.8,0.9-6,1.6-10.9,1.6c-10.1,0-21.4-4.8-21.4-18.9
				C135.2,55.3,144.5,49.3,156.6,49.3"/>
			<polygon class="st0" points="101.4,49.6 127.2,49.6 127.2,56.5 110.6,56.5 110.6,64.1 126,64.1 126,71.4 110.6,71.4 110.6,79.5 
				127.6,79.5 127.6,86.7 101.4,86.7 			"/>
			<polygon class="st0" points="41.7,49.6 51.8,49.6 56.2,77.9 56.6,77.9 61.5,49.6 74,49.6 79.2,77.9 84.1,49.6 93.7,49.6 
				85.2,86.7 72.8,86.7 67.5,58.1 62.7,86.7 49.8,86.7 			"/>
			<path class="st0" d="M23.6,49.3c3.7,0,6.9,0.4,9.7,1.2l-0.9,7.6c-2.5-1.2-5.3-1.6-8.1-1.6c-2.5,0-6.9,0-6.9,3.2
				c0,6,17.7,2,17.7,15.3c0,9.7-8.1,12.2-16.6,12.2c-3.2,0-7.6-0.4-10.9-1.6l0.9-8.1c2.8,1.2,6,2.5,10.1,2.5c3.2,0,6-0.9,6-3.7
				c0-6.9-17.3-2.5-17.3-15.7C7.5,51.6,16.3,49.3,23.6,49.3"/>
		</g>
	</g>
</g>
</svg>
