<?xml version="1.0" encoding="utf-8"?>
<!-- Generator: Adobe Illustrator 20.0.0, SVG Export Plug-In . SVG Version: 6.00 Build 0)  -->
<svg version="1.1" id="Layer_1" xmlns="http://www.w3.org/2000/svg" xmlns:xlink="http://www.w3.org/1999/xlink" x="0px" y="0px"
	 viewBox="0 0 300 87.8" style="enable-background:new 0 0 300 87.8;" xml:space="preserve">
<style type="text/css">
	.st0{fill:#2C4595;}
	.st1{fill:#29985D;}
</style>
<g>
	<path class="st0" d="M27.1,41.7h-0.9c-2-1.2-3.7-2-5-2.3c-1.5-0.4-2.7-0.5-3.7-0.5c-0.1,0-0.4,0-0.6,0S16.4,39,16.2,39
		c-0.6,0.1-1.1,0.4-1.5,0.7c-0.5,0.4-0.6,1-0.6,2c0,1.2,0.4,2.2,1.2,2.8c0.9,0.6,1.7,1.2,2.7,1.7h0.1l0.1,0.1h0.1h0.1
		c1.2,0.6,2.3,1.2,3.3,1.8c1,0.6,1.8,1.2,2.6,1.8c2.1,1.7,3.3,3.4,3.8,5.2c0.5,1.7,0.7,3.2,0.7,4.5c0,0.4-0.1,1.1-0.2,2.2
		c-0.1,1.2-0.6,2.5-1.4,3.8c-0.9,1.6-2.2,2.9-4.3,4.3c-2,1.2-4.9,1.5-8.7,1.8l-0.9,0.1c-3.3,0.4-6-0.2-8-0.6S1.6,70.3,0,69.6V59.3
		h0.9c0.2,0.1,0.7,0.4,1.5,0.7C3.1,60.4,4,60.7,5,61.1c0.5,0.2,1.1,0.5,1.6,0.6c0.6,0.2,1.2,0.4,1.8,0.6c0.6,0.1,1.4,0.4,2,0.5
		s1.2,0.2,1.8,0.2c1,0,1.7-0.2,2.1-0.6c0.5-0.4,0.7-0.7,1-1.1c0.1-0.2,0.2-0.5,0.2-0.6c0-0.2,0-0.4,0-0.6c0-1-0.4-1.8-1.1-2.6
		c-0.7-0.7-1.6-1.4-2.5-1.8c-0.1-0.1-0.4-0.2-0.5-0.2c-0.1-0.1-0.2-0.2-0.5-0.2c-3.1-1.8-5.4-3.6-6.9-5S1.5,47.4,1.1,46
		c-0.2-0.7-0.5-1.4-0.5-2c-0.1-0.6-0.1-1.4-0.1-2c0-3.8,1.4-6.6,3.9-8.5c2.6-1.8,5.5-2.9,8.6-3.4c0.6-0.1,1.1-0.1,1.7-0.2
		c0.6,0,1.1,0,1.7,0h0.9c0.9,0,1.7,0,2.7,0.1s2,0.2,2.9,0.4c0.6,0.1,1.4,0.2,2,0.4c0.6,0.1,1.2,0.2,1.8,0.5v10.3h0.5V41.7z
		 M52.8,75.9c-1.2,3.7-2.9,6.4-4.9,8.2c-2.1,1.8-4.9,2.7-8.6,2.7c-2.6,0-4.9-0.2-7-0.9v-9.2c1.8,0.6,3.4,1,4.7,1
		c3.8,0,6.5-2.3,8.1-7L30.4,30.6h11.7l8.4,27l7.5-27h11.2L52.8,75.9L52.8,75.9z M84.8,35c3.9-3.1,7.6-4.8,11.3-5.2
		c7.7,0,11.7,4.5,11.7,13.6v28.3H97V46.1c0-5-1.6-7.5-4.7-7.5c-2.2,0-4.7,1.5-7.5,4.4v28.6H74v-41h10.8v4.3h-0.1V35z M121.5,73.8
		c0,2.8,3.2,6.8,9.7,6.8c3.7,0,11.8-1,11.8-5.9c0-1.1-0.7-1.7-2.1-2c-1-0.1-3.7-0.4-8.5-0.5c-4.7-0.1-7.9-0.4-9.3-0.5
		C122,72.2,121.5,72.9,121.5,73.8L121.5,73.8z M140.9,32.5c4.1,3.3,6.3,6.5,6.3,12.3c0,2.6-0.7,4.9-2.2,7s-3.3,3.7-5.8,4.9
		c-2.3,1.1-4.8,1.7-7.4,1.7c-0.6,0-1.5,0-2.7-0.1c-1.2-0.1-2.1-0.1-2.7-0.1c-0.5,0-1.1,0.2-1.7,0.6s-0.9,0.9-0.9,1.4
		c0,0.2,0,0.4,0.1,0.6c0.5,0.9,2,1.2,4.5,1.4c2.5,0.1,5.9,0.2,10.1,0.5c4.2,0.2,7.5,1.1,10,2.6c2.3,1.5,3.6,4.1,3.6,7.6
		c0,8.5-7.1,14.9-21.3,14.9c-6.9,0-18.1-4.1-18.1-12.4c0-2.5,1.5-4.5,4.4-6.3c-2.1-1.8-3.2-3.7-3.2-5.7c0-2.8,1.7-5.4,5.3-7.7
		c-3.3-3.7-5-7.3-5-10.8c0-3.1,0.7-5.7,2.2-7.9s3.6-3.9,6-5.2c2.6-1.2,5.3-1.7,8.2-1.7C134.1,29.8,137.9,30,140.9,32.5L140.9,32.5z
		 M130.7,51.3c2,0,3.4-0.7,4.4-2.1s1.5-3.1,1.5-5.3c0-4.8-2-7.1-5.8-7.1c-2,0-3.4,0.7-4.4,2.1s-1.5,3.1-1.5,5
		C124.8,48.8,126.8,51.3,130.7,51.3L130.7,51.3z M174.1,37.9c-4.2,0-6.5,2.9-7,8.7h13.6c-0.1-2.7-0.7-4.8-1.6-6.4
		C178.1,38.8,176.4,37.9,174.1,37.9L174.1,37.9z M166.7,53.6c0,2.7,0.6,5.2,1.8,7.4c1.2,2.1,3.2,3.4,5.8,3.6c3.2,0.1,6.6-0.9,9.1-5
		l7.3,3.8c-2.9,5.8-11.2,9.2-17,9.2c-3.9,0-7.4-0.9-10.1-2.7s-4.8-4.3-6.1-7.5c-1.4-3.2-2-6.8-2-10.8c0-3.8,0.6-7.4,2-10.7
		s3.3-6,6-8c2.7-2.1,6-3.1,9.8-3.1c3.7,0,6.8,0.6,9.2,1.8c2.3,1.2,4.3,2.9,5.5,5s2.2,4.7,2.7,7.4c0.5,2.8,0.7,5.9,0.7,9.5h-24.8v0.1
		H166.7z M208.7,35c3.9-3.1,7.6-4.8,11.3-5.2c7.7,0,11.7,4.5,11.7,13.6v28.3H221V46.1c0-5-1.6-7.5-4.7-7.5c-2.2,0-4.7,1.5-7.5,4.4
		v28.6H198v-41h10.8v4.3h-0.1V35z M252.4,30.6h8.5v9.1h-8.5v17.8c0,1.8,0.2,3.4,0.7,4.5s1.6,1.7,3.2,1.8c1.5,0,2.9-0.2,4.7-0.9v8.5
		c-2.5,0.6-4.5,1-6,1c-3.3,0-6-0.6-8-1.8s-3.3-2.9-4.2-5.3c-0.7-2.3-1.2-5-1.2-8.5V39.5h-5v-9.1h5v-6.5l10.8-4.1V30.6L252.4,30.6z
		 M275.3,60.4c0,1.1,0.2,2,0.9,2.6s1.5,1,2.5,1.1c3.4,0,6.5-1.6,9.1-4.9v-5.4c-3.3,0.5-6.3,1.1-8.7,2
		C276.6,56.6,275.3,58.2,275.3,60.4L275.3,60.4z M300,71.6h-10.4c-0.1-0.2-0.2-0.6-0.4-1c-0.1-0.4-0.2-0.9-0.5-1.5
		c-0.2-0.6-0.4-1.1-0.4-1.4c-2.2,1.6-4.1,2.7-5.7,3.6c-1.6,0.7-3.4,1.1-5.4,1.1c-2.3,0-4.5-0.5-6.5-1.5c-2.1-1-3.7-2.3-5-4.1
		c-1.2-1.7-2-3.8-2-6.1c0-2.8,0.7-5.3,2.3-7.3c1.5-2,3.4-3.4,5.9-4.7c2.3-1.1,4.8-2,7.3-2.6s5.3-1.1,8.6-1.6c0-2.3-0.4-4.1-1-5.2
		c-0.6-1.1-2.1-1.7-4.2-1.7c-1.8,0-3.3,0.4-4.4,1.1c-1.1,0.7-1.8,2-2.2,3.8l-10.4-1.6c1-2.9,2.2-5.3,3.7-6.9
		c1.6-1.7,3.4-2.8,5.5-3.6c2.2-0.6,4.9-1,8-1c2.6,0,5.2,0.4,7.5,1.2c2.3,0.7,4.3,2.1,5.8,3.8c1.6,2,2.3,5.3,2.3,10v17.5
		C298.6,65.7,299.1,68.9,300,71.6L300,71.6z"/>
	<path class="st1" d="M161,25.4c5.7-6.8,7.1-17.8,10.2-25.4c-11.2,1.7-30.8,7.4-30.7,21.8c0,2.9,0.1,7,0.6,9.2
		C147.5,31.8,156.6,30.8,161,25.4L161,25.4z"/>
</g>
</svg>
