<?xml version="1.0" encoding="utf-8"?>
<!-- Generator: Adobe Illustrator 20.0.0, SVG Export Plug-In . SVG Version: 6.00 Build 0)  -->
<svg version="1.1" id="Layer_1" xmlns="http://www.w3.org/2000/svg" xmlns:xlink="http://www.w3.org/1999/xlink" x="0px" y="0px"
	 viewBox="0 0 299.9 207.1" style="enable-background:new 0 0 299.9 207.1;" xml:space="preserve">
<style type="text/css">
	.st0{fill:#034EA1;}
</style>
<g>
	<g>
		<path class="st0" d="M231.4,35c-22-9.4-50.5-15-81.5-15s-59.5,5.7-81.5,15H231.4z"/>
		<path class="st0" d="M245.7,59.9c-26-11-59.3-17.5-95.8-17.5S80,48.8,54.1,59.9H245.7z"/>
		<path class="st0" d="M202.7,12.6C187.4,4.6,169.3,0,149.9,0c-19.3,0-37.4,4.6-52.8,12.6H202.7z"/>
		<g>
			<path class="st0" d="M138.1,77.3c-31.9-1.2-60.9-7.4-84.1-17.2c-2.6,7.4-4.1,15.3-4.1,23.5c0,45.8,44.4,83.1,99.3,83.3
				L138.1,77.3z"/>
			<path class="st0" d="M245.8,60c-23.1,9.8-52.2,16-84.1,17.2l-11.3,89.5c54.9-0.2,99.5-37.4,99.5-83.3
				C249.8,75.4,248.5,67.5,245.8,60z"/>
		</g>
	</g>
	<path class="st0" d="M150.8,184.8"/>
	<g>
		<path class="st0" d="M16,199.9c0,2.6,0,4.6,2,6.4v0.1H5.8v-0.1c2.2-1.4,1.8-3.9,1.8-6.3v-18c-0.7-0.1-1.5-0.1-2.2-0.1
			c-2.1,0-3.3,0.5-5,1.6L0,183.7l1.7-6.9l0.9,0.1h20.8l-1.5,6.8c-0.6-1.5-2.1-2-3.7-2c-0.9,0-1.5,0-2.3,0.2v17.8H16V199.9z"/>
		<path class="st0" d="M26.8,199.1l-0.9,2.5c-0.2,0.7-0.6,1.8-0.6,2.6c0,1,0.6,1.5,1.4,2.1v0.1h-7.5v-0.1c1.4-1.2,1.8-2.3,2.5-4.2
			l5-14.5c0.2-0.7,0.9-2.1,0.9-3c0-1-0.6-1.6-1.4-2.1v-0.1h8.9l6.9,18.7c0.9,2.3,1.1,3.2,3.1,5v0.1l0,0h-11v-0.1
			c0.9-0.5,1.5-1.1,1.5-2.2c0-0.6-0.1-0.9-0.2-1.4l-1.2-3.6h-7.3L26.8,199.1L26.8,199.1z M30.2,188.5L30.2,188.5l-2.5,7.1h4.9
			L30.2,188.5z"/>
		<path class="st0" d="M52.4,201.2c0,1.8-0.2,3.9,1.5,5v0.1h-9.8v-0.1c1.7-1.1,1.5-3.2,1.5-5v-13.5c0-1.8,0.2-3.9-1.5-5v-0.1h9.8
			v0.1c-1.8,1.1-1.5,3.2-1.5,5V201.2z"/>
		<path class="st0" d="M63.2,201.1c0,1.8-0.2,3.9,1.5,5v0.1h-9.8v-0.1c1.7-1.1,1.5-3.2,1.5-5v-13.5c0-1.8,0.2-3.9-1.5-5v-0.1h9.8
			v0.1c-1.8,1.1-1.5,3.2-1.5,5v4.2h6.5v-4.2c0-1.8,0.2-3.9-1.5-5v-0.1H78v0.1c-1.8,1.1-1.5,3.2-1.5,5v13.5c0,1.8-0.2,3.9,1.5,5v0.1
			h-9.8v-0.1c1.7-1.1,1.5-3.2,1.5-5v-5.7h-6.5V201.1z"/>
		<path class="st0" d="M87.4,202.3c1.2,0.5,2.6,0.5,3.8,0.5c2.1,0,3.9-0.4,5.3-2h0.1l-1.5,5.5H79v-0.1c1.8-1.1,1.5-3.2,1.5-5v-13.6
			c0-1.8,0.2-3.9-1.5-5v-0.1h12.8c0.5,0,1.1,0,1.5-0.1h0.1v5.3h-0.1c-1-1.7-3.1-1.5-4.8-1.5h-1.1v5.9h3.4c0.5,0,1,0,1.4-0.1h0.1v5
			h-0.1c-0.5-1.5-2.2-1.4-3.6-1.4h-1.2L87.4,202.3L87.4,202.3z"/>
		<path class="st0" d="M105.6,201.2c0,1.8-0.2,3.9,1.5,5v0.1h-9.8v-0.1c1.7-1.1,1.5-3.2,1.5-5v-13.5c0-1.8,0.2-3.9-1.5-5v-0.1h9.8
			v0.1c-1.8,1.1-1.5,3.2-1.5,5V201.2z"/>
		<path class="st0" d="M121.8,201.1c0,2.1,0,3.7,1.6,5.2v0.1h-9.8v-0.1c1.7-1.1,1.5-3.2,1.5-5.2v-5.7l-5.4-10.2
			c-0.6-1.1-1.2-2.1-2.3-2.8v-0.1h8.5v0.1l4.2,8.6l2.1-4.2c0.4-0.6,0.9-1.7,0.9-2.5c0-1-0.4-1.5-1.1-2v-0.1h6.5v0.1l-6.5,13
			L121.8,201.1L121.8,201.1z"/>
		<path class="st0" d="M140.5,181.8c7.6,0,13.3,4.4,13.3,12.4s-6.3,12.6-13.7,12.6c-7.5,0-13.3-4.8-13.3-12.6
			C126.9,186.6,133.1,181.8,140.5,181.8z M135.6,200.1c1,1.7,2.8,3.1,4.9,3.1c2,0,3.7-1,4.8-2.6c1.1-1.5,1.4-3.3,1.4-5
			c0-4.2-1.6-10.1-6.6-10.1c-4.3,0-6.2,4.1-6.2,7.9C133.9,195.4,134.6,198.3,135.6,200.1z"/>
		<path class="st0" d="M184,183c-2.2-1.5-4.8-2.3-7.5-2.3c-6.2,0-7.9,4.9-7.9,10.3c0,6.2,3,11.2,9.7,11.2c3.4,0,6.6-1.4,9.7-3
			l-2.2,6.5c-3,0.9-5.9,1.1-8.9,1.1c-4.6,0-8.4-0.7-12.1-3.8c-3.4-3-5.3-7.1-5.3-11.7c0-4.2,1.7-8.5,4.9-11.2
			c3.4-3,8.1-3.9,12.6-3.9l6.8,0.6L184,183z"/>
		<path class="st0" d="M197,202.3c1.2,0.5,2.6,0.5,3.8,0.5c2.1,0,3.9-0.4,5.3-2h0.1l-1.5,5.5h-16.1v-0.1c1.7-1.1,1.5-3.2,1.5-5
			v-13.6c0-1.8,0.2-3.9-1.5-5v-0.1h12.8c0.5,0,1.1,0,1.5-0.1h0.1v5.3h-0.1c-1-1.7-3.1-1.5-4.8-1.5H197v5.9h3.4c0.5,0,1,0,1.4-0.1
			h0.1v5h-0.1c-0.5-1.5-2.2-1.4-3.6-1.4H197L197,202.3L197,202.3z"/>
		<path class="st0" d="M227,182.5L227,182.5l8.7-0.1v0.1c-0.9,0.9-1.5,1.1-1.2,2.5l1.7,15.8c0.2,2.1,0.4,4.1,2,5.5v0.1h-9.6v-0.1
			c0.6-0.6,1.2-1.6,1.1-2.6l-1.4-12.8h-0.1l-4.7,15.9c-1.2-0.2-2.5-1-3.4-1.7c-1.7-1.1-2.1-2.7-2.8-4.6l-3.6-9.7h-0.1l-1.2,12.6
			c-0.1,1.2,0.5,2.2,1.6,2.8v0.1h-7.1v-0.1c1.6-1.4,1.7-3.1,1.8-5l1.7-15.3c0.1-1.4-0.4-2.5-1.4-3.3v-0.1h8.4v0.1l5.4,13.9
			L227,182.5z"/>
		<path class="st0" d="M247.3,202.3c1.2,0.5,2.6,0.5,3.8,0.5c2.1,0,3.9-0.4,5.3-2h0.1l-1.5,5.5h-16.1v-0.1c1.7-1.1,1.5-3.2,1.5-5
			v-13.6c0-1.8,0.2-3.9-1.5-5v-0.1h12.8c0.5,0,1.1,0,1.5-0.1h0.1v5.3h-0.1c-1-1.7-3.1-1.5-4.8-1.5h-1.1v5.9h3.4c0.5,0,1,0,1.4-0.1
			h0.1v5h-0.1c-0.5-1.5-2.2-1.4-3.6-1.4h-1.2L247.3,202.3L247.3,202.3z"/>
		<path class="st0" d="M279.1,207.1c-1.2,0-3.3-0.9-4.4-1.5c-2.7-1.4-3.4-2.6-5.2-4.9l-7-9.4h-0.1v9.6c0,2.1,0,3.7,1.6,5.2v0.1h-7
			v-0.1c1.6-1.5,1.6-3.1,1.6-5.2v-12.6c0-2.8-0.1-3.8-2.1-6v-0.1h7.6v0.1l11.2,14.6v-9.4c0-2.1,0-3.7-1.6-5.2v-0.1h7v0.1
			c-1.6,1.5-1.6,3.1-1.6,5.2C279.1,187.5,279.1,207.1,279.1,207.1z"/>
		<path class="st0" d="M293.8,201.1c0,2.1,0,3.7,1.6,5.2v0.1h-9.8v-0.1c1.7-1.1,1.5-3.2,1.5-5v-14.7c-0.6-0.1-1.1-0.1-1.8-0.1
			c-1.7,0-2.7,0.4-4.1,1.4L281,188l1.5-5.7l0.7,0.1h16.7l-1.2,5.5c-0.5-1.2-1.7-1.6-3-1.6c-0.6,0-1.2,0-1.8,0.2V201h-0.1V201.1z"/>
	</g>
</g>
</svg>
