<?xml version="1.0" encoding="utf-8"?>
<!-- Generator: Adobe Illustrator 20.0.0, SVG Export Plug-In . SVG Version: 6.00 Build 0)  -->
<svg version="1.1" id="Layer_1" xmlns="http://www.w3.org/2000/svg" xmlns:xlink="http://www.w3.org/1999/xlink" x="0px" y="0px"
	 viewBox="0 0 300 262.4" style="enable-background:new 0 0 300 262.4;" xml:space="preserve">
<style type="text/css">
	.st0{fill:#0073BB;}
</style>
<g>
	<polygon class="st0" points="0,187.5 72.3,187.5 72.3,209.5 51.5,209.5 51.5,262.4 21.4,262.4 21.4,209.5 0,209.5 	"/>
	<polygon class="st0" points="108.8,217.8 93.7,262.4 64.7,262.4 93.1,187.5 124.4,187.5 153.6,262.4 124.3,262.4 	"/>
	<polygon class="st0" points="146.5,187.5 218.8,187.5 218.8,209.5 198.2,209.5 198.2,262.4 168.1,262.4 168.1,209.5 146.5,209.5 	
		"/>
	<polygon class="st0" points="255.4,217.8 240.2,262.4 211.3,262.4 239.6,187.5 271,187.5 300,262.4 270.8,262.4 	"/>
	<path class="st0" d="M255.9,50.3c-2.7-5.3-6.3-10.3-10.6-15.1c-9.8-10.7-23.8-19.5-40.3-25.7C188.4,3.4,169.4,0,150.1,0
		s-38.3,3.3-54.9,9.5c-16.5,6.1-30.5,15-40.3,25.7c-4.4,4.8-8,9.8-10.7,15.1c21.5-5.2,58.3-12,92.4-12.8c3.3-0.1,5.5,1,7,2.8
		c1.8,2.3,1.7,10.6,1.6,14.3l0,0l-1,95l0,0c2,0.1,3.8,0.1,5.8,0.1s3.9,0,5.8-0.1l0,0l-1-95l0,0c0-3.7-0.2-11.9,1.6-14.3
		c1.5-1.8,3.8-2.9,7-2.8C197.7,38.2,234.4,45.1,255.9,50.3L255.9,50.3L255.9,50.3L255.9,50.3z"/>
	<path class="st0" d="M260.6,62.7c-31.5-7.1-52.5-8.5-73.2-9.6c-18.1-1-18.3,5.4-16.5,17.8c0.1,0.7,0.2,1.7,0.5,2.8
		c6,35.9,13.6,66.7,14.9,72c44-10.1,75.8-38,75.8-70.8C262.1,70.8,261.5,66.6,260.6,62.7L260.6,62.7L260.6,62.7L260.6,62.7z"/>
	<path class="st0" d="M129.2,70.9c1.8-12.3,1.6-18.8-16.5-17.8c-20.8,1.1-41.8,2.5-73.2,9.6c-1,4.1-1.5,8.1-1.5,12.3
		c0,14.1,5.8,27.9,16.7,39.7c9.8,10.7,23.8,19.5,40.3,25.7c6,2.2,12.3,4.1,18.8,5.5c1.2-4.9,9-36.5,15.1-73
		C129.1,72,129.2,71.4,129.2,70.9L129.2,70.9L129.2,70.9L129.2,70.9z"/>
</g>
</svg>
