<?xml version="1.0" encoding="utf-8"?>
<!-- Generator: Adobe Illustrator 19.1.0, SVG Export Plug-In . SVG Version: 6.00 Build 0)  -->
<svg version="1.1" id="Layer_1" xmlns="http://www.w3.org/2000/svg" xmlns:xlink="http://www.w3.org/1999/xlink" x="0px" y="0px"
	 viewBox="0 0 300 89.2" style="enable-background:new 0 0 300 89.2;" xml:space="preserve">
<style type="text/css">
	.st0{fill:#231F20;}
</style>
<path class="st0" d="M30.4,34.7v23.5v0c0,0,0,0,0,0c0,1.2-1,2.1-2.1,2.1c-0.7,0-1.3-0.3-1.7-0.8L3.9,36.3v21.9c0,1.2-1,2.1-2.1,2.1
	c-1.2,0-2.1-1-2.1-2.1c0,0,0-26.7,0-27.1c0-1.6,2.1-2.9,3.6-1.4c1.3,1.3,22.8,23.4,22.8,23.4V35.5c-2.5-2.2-5.6-3.4-9-3.4
	c-1.2,0-2.1-1-2.1-2.1c0-1.2,1-2.1,2.1-2.1c4.8,0,9.2,1.8,12.6,5.3C30.2,33.5,30.4,34.1,30.4,34.7z M99.1,60.2
	c0.8-0.3,1.4-1.1,1.4-2V31.1c0-1.2-1-2.1-2.1-2.1c-1.2,0-2.1,1-2.1,2.1v21.6l-18.5-23c-0.8-0.9-2.1-0.9-3-0.2
	c-0.9,0.8-0.9,2.1-0.2,3l22.2,27.1c0.4,0.5,1,0.7,1.6,0.7C98.6,60.3,98.9,60.3,99.1,60.2z M192.5,33.1c0.4,0.4,0.6,0.9,0.6,1.5v23.6
	c0,1.2-1,2.1-2.1,2.1c-1.2,0-2.1-1-2.1-2.1v-9.3H171v9.3c0,1.2-1,2.1-2.1,2.1c-1.2,0-2.1-1-2.1-2.1V34.6c0-0.6,0.2-1.1,0.6-1.5
	c3.4-3.4,7.8-5.2,12.6-5.2C184.7,27.9,189.1,29.7,192.5,33.1z M188.9,44.6v-9.1c-2.5-2.2-5.6-3.4-9-3.4c-3.3,0-6.5,1.2-9,3.4v9.1
	H188.9z M261,33.1c0.4,0.4,0.6,0.9,0.6,1.5v20c0,0.6-0.2,1.1-0.6,1.5c-3.4,3.4-7.8,5.2-12.6,5.2c-4.8,0-9.2-1.9-12.6-5.2
	c-0.4-0.4-0.6-0.9-0.6-1.5V34.6c0-0.6,0.2-1.1,0.6-1.5c3.4-3.4,7.8-5.2,12.6-5.2C253.2,27.9,257.6,29.7,261,33.1z M257.4,35.5
	c-2.5-2.2-5.6-3.4-9-3.4c-3.3,0-6.5,1.2-9,3.4v18.2c2.5,2.2,5.6,3.4,9,3.4c3.3,0,6.5-1.2,9-3.4V35.5z M201.6,33.1
	c-0.8,0.8-0.8,2.2,0,3c0.8,0.8,2.2,0.8,3,0c2.1-2.1,4.7-3.4,7.5-3.8v25.9c0,1.2,1,2.1,2.1,2.1c1.2,0,2.1-1,2.1-2.1V32.3
	c2.7,0.4,5.4,1.7,7.5,3.8c0.4,0.4,1,0.6,1.5,0.6c0.5,0,1.1-0.2,1.5-0.6c0.8-0.8,0.8-2.2,0-3C219.8,26.1,208.5,26.1,201.6,33.1z
	 M152.2,36.1c0.8,0.8,2.2,0.8,3,0c0.8-0.8,0.8-2.2,0-3c-6.9-6.9-18.2-6.9-25.2,0c-0.4,0.4-0.6,0.9-0.6,1.5v20.1
	c0,0.6,0.2,1.1,0.6,1.5c3.5,3.5,8,5.2,12.6,5.2c4.6,0,9.1-1.7,12.6-5.2c0.4-0.4,0.6-1,0.6-1.5v-9.9c0-1.2-1-2.1-2.1-2.1h-11.1
	c-1.2,0-2.1,1-2.1,2.1c0,1.2,1,2.1,2.1,2.1h9v6.9c-5.1,4.5-12.8,4.5-17.9,0V35.5C139,30.8,147.2,31,152.2,36.1z M115,28.9
	c-1.2,0-2.1,0.9-2.1,2.1v27.1c0,1.2,0.9,2.1,2.1,2.1s2.1-1,2.1-2.1V31.1C117.1,29.9,116.1,28.9,115,28.9z M67.8,33.1
	c0.4,0.4,0.6,0.9,0.6,1.5v23.6c0,1.2-1,2.1-2.1,2.1c-1.2,0-2.1-1-2.1-2.1v-9.3H46.2v9.3c0,1.2-1,2.1-2.1,2.1c-1.2,0-2.1-1-2.1-2.1
	V34.6c0-0.6,0.2-1.1,0.6-1.5c3.4-3.4,7.8-5.2,12.6-5.2C59.9,27.9,64.4,29.7,67.8,33.1z M64.1,44.6v-9.1c-2.5-2.2-5.6-3.4-9-3.4
	c-3.3,0-6.5,1.2-9,3.4v9.1H64.1z M299.4,59.7c0.8-0.8,0.8-2.2,0-3l-10.5-10.5L299,36.1c0.8-0.8,0.8-2.2,0-3
	c-3.3-3.3-7.8-5.2-12.6-5.2c0,0,0,0,0,0s0,0,0,0c0,0,0,0,0,0c-4.8,0-9.2,1.9-12.6,5.2c-0.4,0.4-0.6,1-0.6,1.6v23.5
	c0,1.2,1,2.1,2.1,2.1c1.2,0,2.1-1,2.1-2.1V35.5c2.5-2.2,5.6-3.4,9-3.4c2.9,0,5.7,0.9,7.9,2.6l-10,10c-0.8,0.8-0.8,2.2,0,3l12,12
	c0.4,0.4,1,0.6,1.5,0.6C298.4,60.3,299,60.1,299.4,59.7z M174.8,8.4c0.3,0.3,0.3,0.7,0,1c-1.1,1.1-2.6,1.7-4.2,1.7
	c-1.6,0-3.1-0.6-4.2-1.7c-0.1-0.1-0.2-0.3-0.2-0.5V5.7c0,0,0-0.1,0-0.2c0-0.1,0-0.1,0-0.2V2.2c0-0.2,0.1-0.4,0.2-0.5
	c1.1-1.1,2.6-1.7,4.2-1.7c1.6,0,3.1,0.6,4.2,1.7c0.3,0.3,0.3,0.7,0,1c-0.3,0.3-0.7,0.3-1,0c-0.9-0.9-2-1.3-3.2-1.3
	c-1.1,0-2.2,0.4-3,1.1v2.3h5.3c0.4,0,0.7,0.3,0.7,0.7c0,0.4-0.3,0.7-0.7,0.7h-5.3v2.3c0.8,0.7,1.9,1.1,3,1.1c1.2,0,2.3-0.5,3.2-1.3
	C174,8.1,174.5,8.1,174.8,8.4z M153.3,0.4c-0.4,0-0.7,0.3-0.7,0.7v3.8h-6V1.1c0-0.4-0.3-0.7-0.7-0.7s-0.7,0.3-0.7,0.7v9
	c0,0.4,0.3,0.7,0.7,0.7s0.7-0.3,0.7-0.7V6.3h6v3.8c0,0.4,0.3,0.7,0.7,0.7c0.4,0,0.7-0.3,0.7-0.7v-9C154,0.7,153.7,0.4,153.3,0.4z
	 M124.9,1.7c-0.3,0.3-0.3,0.7,0,1c0.3,0.3,0.7,0.3,1,0c0.7-0.7,1.6-1.1,2.5-1.3v8.6c0,0.4,0.3,0.7,0.7,0.7c0.4,0,0.7-0.3,0.7-0.7
	V1.5c0.9,0.1,1.8,0.6,2.5,1.3c0.1,0.1,0.3,0.2,0.5,0.2s0.4-0.1,0.5-0.2c0.3-0.3,0.3-0.7,0-1C130.9-0.6,127.2-0.6,124.9,1.7z
	 M173.8,78.1c-1.6,0-3.1,0.6-4.2,1.7c-0.1,0.1-0.2,0.3-0.2,0.5v7.8c0,0.4,0.3,0.7,0.7,0.7s0.7-0.3,0.7-0.7v-3.1h6v3.1
	c0,0.4,0.3,0.7,0.7,0.7c0.4,0,0.7-0.3,0.7-0.7v-7.8c0-0.2-0.1-0.4-0.2-0.5C176.9,78.7,175.4,78.1,173.8,78.1z M170.9,83.7v-3
	c0.8-0.7,1.9-1.1,3-1.1c1.1,0,2.2,0.4,3,1.1v3H170.9z M77.8,89.2c-1.6,0-3.1-0.6-4.2-1.7c-0.1-0.1-0.2-0.3-0.2-0.5v-6.7
	c0-0.2,0.1-0.4,0.2-0.5c1.1-1.1,2.6-1.7,4.2-1.7c1.6,0,3.1,0.6,4.2,1.7c0.3,0.3,0.3,0.7,0,1c-0.3,0.3-0.7,0.3-1,0
	c-0.8-0.9-2-1.3-3.2-1.3c-1.1,0-2.2,0.4-3,1.1v6c0.8,0.7,1.9,1.1,3,1.1c1.2,0,2.3-0.5,3.2-1.3c0.3-0.3,0.7-0.3,1,0
	c0.3,0.3,0.3,0.7,0,1C80.8,88.6,79.3,89.2,77.8,89.2z M202.1,88.6C202.1,88.6,202.1,88.6,202.1,88.6c0,0-0.1,0.1-0.1,0.1
	c0,0,0,0,0,0c0,0,0,0,0,0c0,0-0.1,0-0.1,0.1c0,0,0,0,0,0c0,0-0.1,0-0.1,0c0,0,0,0,0,0c0,0-0.1,0-0.1,0c0,0,0,0,0,0c0,0-0.1,0-0.1,0
	c0,0,0,0,0,0l0,0l0,0c0,0-0.1,0-0.1,0c0,0,0,0,0,0c0,0,0,0-0.1,0c0,0,0,0,0,0c0,0,0,0-0.1,0c0,0,0,0,0,0c0,0,0,0,0,0c0,0,0,0,0,0
	c0,0,0,0,0,0c0,0,0,0,0,0c0,0,0,0,0,0c0,0,0,0,0,0c0,0,0,0,0,0c0,0,0,0,0,0c0,0,0,0,0-0.1c0,0,0,0,0,0l-6.1-7.5v7
	c0,0.4-0.3,0.7-0.7,0.7c-0.4,0-0.7-0.3-0.7-0.7v-9c0,0,0,0,0-0.1c0,0,0,0,0,0c0,0,0-0.1,0-0.1c0,0,0,0,0,0c0,0,0-0.1,0-0.1
	c0,0,0,0,0,0c0,0,0-0.1,0.1-0.1c0,0,0,0,0,0c0,0,0.1-0.1,0.1-0.1c0,0,0,0,0,0c0,0,0,0,0,0c0,0,0.1-0.1,0.1-0.1c0,0,0,0,0,0
	c0,0,0.1,0,0.1,0c0,0,0,0,0,0c0,0,0.1,0,0.1,0c0,0,0,0,0,0c0,0,0,0,0.1,0c0.1,0,0.1,0,0.2,0c0,0,0,0,0,0c0,0,0.1,0,0.1,0
	c0,0,0,0,0,0c0,0,0.1,0,0.1,0.1c0,0,0,0,0,0c0,0,0.1,0.1,0.1,0.1l0,0l6.1,7.5v-7c0-0.4,0.3-0.7,0.7-0.7c0.4,0,0.7,0.3,0.7,0.7v9
	c0,0,0,0,0,0.1c0,0,0,0,0,0c0,0,0,0.1,0,0.1c0,0,0,0,0,0c0,0,0,0.1,0,0.1c0,0,0,0,0,0C202.2,88.6,202.1,88.6,202.1,88.6z
	 M122.1,88.9c-0.4,0-0.7-0.3-0.7-0.7v-9c0-0.3,0.2-0.6,0.5-0.7c0.3-0.1,0.6,0,0.8,0.2l3.1,3.8l3.2-3.8c0.2-0.2,0.5-0.3,0.8-0.2
	c0.3,0.1,0.5,0.4,0.5,0.7v9c0,0.4-0.3,0.7-0.7,0.7c-0.4,0-0.7-0.3-0.7-0.7v-7l-2.5,3c-0.1,0.2-0.3,0.3-0.5,0.3c0,0,0,0,0,0
	c-0.2,0-0.4-0.1-0.5-0.3l-2.4-3v7C122.8,88.6,122.5,88.9,122.1,88.9z M101.8,89.2c-1.6,0-3.1-0.6-4.2-1.7c-0.1-0.1-0.2-0.3-0.2-0.5
	v-6.7c0-0.2,0.1-0.4,0.2-0.5c1.1-1.1,2.6-1.7,4.2-1.7c1.6,0,3.1,0.6,4.2,1.7c0.1,0.1,0.2,0.3,0.2,0.5V87c0,0.2-0.1,0.4-0.2,0.5
	C104.8,88.6,103.4,89.2,101.8,89.2z M98.8,86.7c0.8,0.7,1.9,1.1,3,1.1c1.1,0,2.2-0.4,3-1.1v-6c-0.8-0.7-1.9-1.1-3-1.1
	c-1.1,0-2.2,0.4-3,1.1V86.7z M146.1,88.9c-0.4,0-0.7-0.3-0.7-0.7v-4.4c0,0,0-0.1,0-0.2s0-0.1,0-0.2v-3.2c0-0.2,0.1-0.4,0.2-0.5
	c1.1-1.1,2.6-1.7,4.2-1.7c1.6,0,3.1,0.6,4.2,1.7c0.1,0.1,0.2,0.3,0.2,0.5v3.3c0,0.4-0.3,0.7-0.7,0.7h-6.7v3.8
	C146.8,88.6,146.5,88.9,146.1,88.9z M146.8,83h6v-2.3c-0.8-0.7-1.9-1.1-3-1.1c-1.1,0-2.2,0.4-3,1.1V83z M226.1,79.6l-3.5,4.3v4.3
	c0,0.4-0.3,0.7-0.7,0.7c-0.4,0-0.7-0.3-0.7-0.7v-4.3l-3.5-4.3c-0.2-0.3-0.2-0.7,0.1-1c0.3-0.2,0.8-0.2,1,0.1l3.1,3.8l3.1-3.8
	c0.1-0.1,0.2-0.2,0.3-0.2c0.4-0.1,0.8,0,0.9,0.4C226.3,79.2,226.3,79.4,226.1,79.6z"/>
</svg>
