<?xml version="1.0" encoding="utf-8"?>
<!-- Generator: Adobe Illustrator 20.0.0, SVG Export Plug-In . SVG Version: 6.00 Build 0)  -->
<svg version="1.1" id="Layer_1" xmlns="http://www.w3.org/2000/svg" xmlns:xlink="http://www.w3.org/1999/xlink" x="0px" y="0px"
	 viewBox="0 0 140 176.5" style="enable-background:new 0 0 140 176.5;" xml:space="preserve">
<style type="text/css">
	.st0{clip-path:url(#SVGID_2_);}
	.st1{clip-path:url(#SVGID_4_);fill:#F8971D;}
	.st2{clip-path:url(#SVGID_4_);fill:#034EA2;}
	.st3{clip-path:url(#SVGID_4_);fill:#ED1A3B;}
	.st4{clip-path:url(#SVGID_4_);fill:#4495D1;}
</style>
<g>
	<g>
		<defs>
			<rect id="SVGID_1_" x="-80.1" y="-123.6" width="300" height="424.3"/>
		</defs>
		<clipPath id="SVGID_2_">
			<use xlink:href="#SVGID_1_"  style="overflow:visible;"/>
		</clipPath>
		<g class="st0">
			<defs>
				<rect id="SVGID_3_" x="-80.1" y="-123.6" width="300" height="424.3"/>
			</defs>
			<clipPath id="SVGID_4_">
				<use xlink:href="#SVGID_3_"  style="overflow:visible;"/>
			</clipPath>
			<path class="st1" d="M121.5,68.3c-0.1-0.3-0.2-0.5-0.3-0.8c-8.7,9.9-30,16.3-49.2,14.9c-11.3-0.8-32.3-6.7-42.8-13.2
				c11.2,10.7,24.2,18.8,39,23.2c17.6,5.2,36.3,4.9,46.9-0.6C122.8,86.7,124.6,77.4,121.5,68.3"/>
			<path class="st2" d="M97.3,5.9c34.6,20.5,14,84.8-13.5,105.4C58.1,130.5,30.9,121.7,25,104c5.2,7.7,15.4,10.5,24.5,7.4
				c25.3-10.1,38.3-56,40-71.9c1.1-13.7-0.7-22.9-5.4-28.7C78.6,5,70.3,2.2,58,6.1C66.4-0.9,84.4-1.7,97.3,5.9"/>
			<path class="st3" d="M116.7,91c0.1-0.1,0.3-0.2,0.4-0.3c0,0,0.1,0,0.1,0c0.7-0.5,1.4-1,2.1-1.6c0.3-0.3,0.6-0.6,0.9-0.9
				c13.5-13.7,16.3-51.7-16.9-69.7C91.4,12.1,64,3.1,36.6,17c-9.1,4.6-18.4,14.1-23.4,27c3.7-6.1,10.1-10.3,22.8-12.1
				c12.6-1.6,30,0.4,47.1,6.4c11,4.1,19.9,9,26.8,14.7c5.7,4.9,9.4,9.6,11.3,14.6c0.1,0.3,0.2,0.5,0.3,0.8c3.1,9,1.3,18.3-6.4,23.6
				c0,0,0,0,0,0c0.4-0.2,0.7-0.4,1.1-0.6c0.1,0,0.1-0.1,0.2-0.1C116.4,91.1,116.5,91.1,116.7,91"/>
			<path class="st1" d="M17.4,65.9c0.6,1,2.1,2.7,3,3.8C27.1,54,63.6,43.9,74.3,44c-24.1-7.8-47.8-4.1-57.3,4.2
				C13.5,52,12.4,57.8,17.4,65.9"/>
			<path class="st4" d="M88.5,101.3c-19.4-1.1-47.7-8.6-67.7-31.3c-0.1-0.1-0.2-0.3-0.4-0.4c-0.9-1.1-2.4-2.8-3-3.8
				c-5-8.1-3.9-13.8-0.5-17.7l0,0c-0.6,0.6-1.4,1.3-2.3,2.4C9.6,57.2,9,68,12.5,79.4c7.6,24.8,41,39.6,68.1,35.6
				c17.3-2.6,28.1-12.4,32.6-16.3C103.4,101.4,96.1,101.8,88.5,101.3"/>
			<path class="st3" d="M41.6,154.9c-9.2,0-14.4,3.9-14.4,10.8c0,6.8,5.3,10.8,14.4,10.8c9.2,0,14.4-3.9,14.4-10.8
				C56.1,158.8,50.8,154.9,41.6,154.9 M41.6,171.5c-5,0-7.6-2-7.6-5.8c0-3.8,2.5-5.8,7.6-5.8c5,0,7.6,2,7.6,5.8
				C49.2,169.5,46.7,171.5,41.6,171.5"/>
			<path class="st3" d="M58,155.4v4.6h8.7c0,0.4,0,14.3,0,14.3c0,1.4,2.1,1.9,3.8,1.9c1.8,0,3.8-0.5,3.8-1.9V160H83v-4.6H58"/>
			<path class="st3" d="M129.3,171.2c-2.1,0-3.6-0.3-4.4-1c-1-0.9-1.2-2.2-1.2-3.2l0-10.1c0-1.3-2-1.8-3.7-1.8
				c-1.7,0-3.7,0.5-3.7,1.8v9.8c0,3.7,1.2,6.3,3.6,7.8c2.9,1.7,8.3,1.6,13.4,1.6l6.4,0l0-0.9v-3.9H129.3"/>
			<path class="st3" d="M10.5,169.7c0,3.6,3.1,6.1,8.2,6.5v-22h11.7v-5.1H0v5.1h10.5V169.7"/>
			<path class="st3" d="M113.4,176l-0.2-0.8c-1.7-8.5-11.3-18.1-13.3-19.5c-0.6-0.5-1.3-0.6-2.2-0.6c-0.9,0-1.6,0.1-2.2,0.6
				c-2,1.4-11.6,11.1-13.3,19.5L82,176h6.8l0.1-0.6c0.3-1.2,0.7-2.5,1.3-3.8h14.9c0.6,1.3,1,2.6,1.3,3.8l0.1,0.6H113.4 M92.6,167.3
				c1.4-2.2,3.2-4.3,5.1-6.2c1.9,1.9,3.6,4,5.1,6.2H92.6z"/>
		</g>
	</g>
</g>
</svg>
