<?xml version="1.0" encoding="utf-8"?>
<!-- Generator: Adobe Illustrator 22.0.0, SVG Export Plug-In . SVG Version: 6.00 Build 0)  -->
<svg version="1.1" id="Layer_1" xmlns="http://www.w3.org/2000/svg" xmlns:xlink="http://www.w3.org/1999/xlink" x="0px" y="0px"
	 viewBox="0 0 300 32" style="enable-background:new 0 0 300 32;" xml:space="preserve">
<style type="text/css">
	.st0{fill:#006CB7;}
</style>
<g>
	<g>
		<g>
			<g>
				<polygon class="st0" points="3.9,1.1 1.2,11 9.7,11 4.5,31 17.5,31 22.7,11 31.1,11 33.8,1.1 3.9,1.1 				"/>
				<path class="st0" d="M53,0.3c-7.6,0-13.9,0.8-17.5,6.5c-3,4.8-4.7,11.1-4.7,15.4c0,9.3,7,9.6,16.3,9.6c6,0,13.9-0.4,17.1-5.6
					c3.3-5,5.1-12,5.1-16.3C69.3,0.6,60.6,0.3,53,0.3L53,0.3z M53.5,21c-1.3,2.3-2.5,2.8-5.6,2.8c-1.7,0-3.8-0.7-3.8-3.8
					c0-1.5,1-4.8,2.1-7c1.5-2.8,3.2-2.9,5.3-2.9c2.9,0,4.1,1.3,4.1,3.5C55.6,17,54,20.2,53.5,21L53.5,21z"/>
				<polygon class="st0" points="93.2,1.1 85.6,14.2 85.4,14.2 83.8,1.1 69.8,1.1 76,24.1 71,31 86.3,31 108,1.1 93.2,1.1 				"/>
				<path class="st0" d="M124.3,0.3c-7.6,0-13.9,0.8-17.5,6.5c-3,4.8-4.7,11.1-4.7,15.4c0,9.3,7,9.6,16.3,9.6c6,0,13.9-0.4,17.1-5.6
					c3.3-5,5.1-12,5.1-16.3C140.6,0.6,131.9,0.3,124.3,0.3L124.3,0.3z M124.8,21c-1.3,2.3-2.5,2.8-5.6,2.8c-1.7,0-3.8-0.7-3.8-3.8
					c0-1.5,1-4.8,2.1-7c1.5-2.8,3.2-2.9,5.3-2.9c2.9,0,4.1,1.3,4.1,3.5C126.9,17,125.3,20.2,124.8,21L124.8,21z"/>
				<polygon class="st0" points="151.2,1.1 148.6,11 157,11 151.8,31 164.8,31 170,11 178.4,11 181.1,1.1 151.2,1.1 				"/>
				<polygon class="st0" points="183.1,1.1 175.2,31 187.8,31 195.9,1.1 183.1,1.1 				"/>
				<path class="st0" d="M229.7,7.7c0-4.2-1.2-6.6-6.9-6.6h-24.7L190,31h12.8l2.6-10.4l6.2,10.4h14.9l-8.6-12.3h2.3
					C225.5,18.7,229.7,15.3,229.7,7.7L229.7,7.7z M212.6,15.6h-5.7l1.6-6.2h5.6c1.7,0,2.8,0.7,2.8,2.1
					C216.8,13.5,215.6,15.6,212.6,15.6L212.6,15.6z"/>
				<polygon class="st0" points="263.8,10.5 266.3,1.1 235.4,1.1 227.7,30.9 258.5,30.9 260.6,23 242.7,23 243.5,20.3 261.3,20.3 
					263,13.8 245.1,13.8 246,10.5 263.8,10.5 				"/>
				<path class="st0" d="M286.2,9.7c4.1,0,8.1,0.4,12.2,0.9l2.6-9.2c-6.1-0.9-12.9-1.1-17-1.1c-3.1,0-7.2,0.1-10,0.9
					c-5,1.4-8.4,6.6-8.4,13c0,4.7,4.2,6,8.1,6c7.5,0,8.3,0.3,8.3,1.7c0,1.9-2.9,1.9-4.3,1.9c-4.8,0-9.5-0.4-14.3-0.9l-1.9,7.5
					c5.6,1,11.3,1.4,18,1.4c8.2,0,12.4-0.8,15-5c0.9-1.4,2-4.7,2-7c0-6.3-4.2-6.5-9-6.5c-6.6,0-7.4-0.3-7.4-1.5
					C280,10.4,281.2,9.7,286.2,9.7L286.2,9.7z"/>
			</g>
		</g>
	</g>
</g>
</svg>
