<?xml version="1.0" encoding="utf-8"?>
<!-- Generator: Adobe Illustrator 21.1.0, SVG Export Plug-In . SVG Version: 6.00 Build 0)  -->
<svg version="1.1" id="Layer_1" xmlns="http://www.w3.org/2000/svg" xmlns:xlink="http://www.w3.org/1999/xlink" x="0px" y="0px"
	 viewBox="0 0 2199 2433" style="enable-background:new 0 0 2199 2433;" xml:space="preserve">
<style type="text/css">
	.st0{fill-rule:evenodd;clip-rule:evenodd;fill:#006BB6;}
</style>
<g>
	<path class="st0" d="M1875.2,633.6c11.5,7.5,21.2,11.7,27.2,11.1c17.4,0,24.3-83,24.3-147.3c0-6,0.1-11.8,0.1-17.4v-1.3
		c0-27.6-1.5-48.1-17.8-53.7c-8.3,16.8-20.2,30.1-33.8,40.4V633.6L1875.2,633.6z M1875.2,430.4V357c2-5.2,3.2-10.4,3.2-15.6
		c0-7.4-1-12-3.2-16.1v-5c24.8,4.5,34.6,22.5,34.6,44.3C1909.7,387.3,1896.3,411.1,1875.2,430.4z M1845,609.8
		c10.5,9.6,20.9,17.7,30.2,23.8V465.4c-9.5,7.3-19.8,13-30.2,17.5V609.8L1845,609.8z M1875.2,320.5v5c-1-1.9-2.2-3.6-3.7-5.5
		C1872.7,320.1,1873.9,320.3,1875.2,320.5L1875.2,320.5z M1875.2,357v73.4c-8.9,8-19,15.2-30.2,21.2v-59.3
		C1859.4,382,1870.1,369.6,1875.2,357L1875.2,357z M1845,354.2v-27.4c3.2,3.5,4.5,8.4,4.5,13.2
		C1849.5,344.9,1847.9,349.7,1845,354.2z M1840.6,605.7c1.4,1.4,3,2.7,4.4,4.1V482.9c-1.4,0.6-3,1.2-4.4,1.8V605.7L1840.6,605.7z
		 M1845,326.8v27.4c-1.2,2-2.7,4-4.4,5.8v-36.4C1842.4,324.4,1843.8,325.5,1845,326.8L1845,326.8z M1845,392.3v59.3
		c-1.4,0.8-2.9,1.5-4.4,2.3v-58.5C1842.1,394.4,1843.6,393.4,1845,392.3L1845,392.3z M1771.3,497.4c13.4,1.3,41.3-1.2,69.3-12.7v121
		C1808.4,575.4,1776,532.8,1771.3,497.4L1771.3,497.4z M1840.6,323.5c-2.8-1.5-6.3-2.3-10.7-2.3c-22,0-50.8,20.8-81,20.8
		c-9.4,0-21.2,0-32.9-3.3c11.7,8.9,9.6,28.1,15.7,40c7.1,15,20.8,15,29.9,15c21.5,0,61.3-13.9,79-33.7V323.5L1840.6,323.5z
		 M1840.6,395.4c-21.5,14.2-49.9,23.5-79.5,23.5c-22.2,0-28.6,15.7-28.6,23.5c0,19,17.9,26.9,44.1,26.9c22.5,0,44.5-5.8,64-15.4
		V395.4z"/>
	<path class="st0" d="M263.7,918.6c22.8,0,18.2-139.2,54.9-139.2c8.9,0,11.4,8.9,11.4,19.4c0,31.4-15.4,77.5-15.4,102.8
		c0,12.9,3.2,16.9,9.4,16.9c15.9,0,44.3-153.1,71.9-153.1c8.4,0,12.4,8.6,12.4,17.2c0,32.2-40.8,124.3-40.8,150.4
		c0,4.2,1.5,7.6,4.8,7.6c16.7,0,50.4-72.4,60.8-108.4c6.3-18.9,14.2-28.8,21.5-28.8c6.8,0,12.6,7.6,12.6,22.8
		c0,35.9-33.4,121-63,177.9c-22.8,44.4-58,107.9-58,143.3c0,18,3.3,36.7,29.4,59.5c-42.8-2.5-60.5-6.6-76.5-40
		c-71.6,142.7,131.9,128.2,62.3,255.1c-12.7-22.8-112.9-46.1-112.9-178.6c0-114.7,100.2-181.8,100.2-229.3c0-9.1-3.3-17.3-12.2-24.8
		c-22-18.7-22.5-33.9-40-33.9c-12.7,0-28.1,29.6-12.2,55.4c5.6,8.9,9.9,14.2,9.9,22c0,18.9-29.1,69-49.8,69
		c-20.8,0-37-51.3-37-134.6c0-73.4,16.7-147.5,37.5-147.5c6,0,8.1,4,8.1,9.4c0,8.6-2.7,25.8-2.7,55.2
		C250.3,915.8,257.7,918.6,263.7,918.6z"/>
	<path class="st0" d="M456.1,1222.3c12.9-0.5,24,9.6,25.3,23c1.5,13.9-8.9,25.8-22.8,27.8c-1,0.3-1.8,0.3-2.5,0v59.5
		c5,1.2,10.9,1.5,17.2,1c24.8-2,42.3-22.8,39.5-47.6c0-6.8-1.7-10.8-3.8-15.4l4.6-0.5c21.2-2.5,37.9-20.4,39.7-41v-6.3v-0.3
		c-2.8-24.3-24.8-41.5-47.6-39.5c-8.9,1.8-16.5,4.3-21.5,9.1c-4.3-13.9-14.2-26.1-28.1-31.1V1222.3L456.1,1222.3z M430.6,1249.7
		c1.2,13.4,12.4,23,25.6,23.5v59.5c-15.5-3.8-25.6-15.5-29.7-31.4c-5.3,3.5-13.4,6.3-22.2,6.8c-24,2.7-45.6-15-47.8-37.4l-0.3-0.5
		v-6.8c1.8-22.5,18.5-38.7,39.7-41.5l4.5-0.8c-2-4.5-3.2-10.1-3.2-13.4c-2.8-24.6,15.2-47.3,38.7-48.9c7.3-0.7,14.2,0,20.3,2.3v61.3
		c-1,0-1.8,0-2.8,0.2C439.4,1223.9,429.8,1236.5,430.6,1249.7z"/>
	<path class="st0" d="M434.6,1114.8c28.1,0,51.6-20.8,51.6-67.1v-68.3c0-26.1,2-55.7,19.5-76.5c-2.3,8.9-2.3,18.2-2.3,26.9
		c0,57.5,32.2,97.2,32.2,152.6c0,20.7-5.8,32.4-22,32.4c-15.5,0-14.2-14.2-17.5-14.2c-2.7,0-6.8,8.6-6.8,17.9
		c0,14.2,10.2,36.2,38.5,36.2c24,0,43.5-22,43.5-46.8c0-60.3-47.1-127.4-47.1-191.4c0-28.4,7.6-47.1,13.5-61.8
		c0,133.1,113.1,230.3,113.1,285.8c0,13-9.1,22.8-23.3,22.8c-15.5,0-22.8-12-22.8-21.5c0-4.3-0.7-5.8-2.7-5.8
		c-3.8,0-16,13.4-16,30.9c0,22,18,48.8,51.6,48.8c38,0,58.8-32.4,58.8-61c0-70.3-137.2-176.7-137.2-290.6c0-19.2,3.2-50.8,17.2-74.7
		c-88.1,57-115.7,132.1-115.7,198.4c0,57.7-2,86.3-31.6,86.3c-15.2,0-19.3-13.9-24.8-13.9c-3.8,0-5.8,12.2-5.8,15.4
		C398.4,1100.6,416.6,1114.8,434.6,1114.8z"/>
	<path class="st0" d="M1595.1,445.8c29.6,0,51.6-13.2,51.6-21.5c0-2.5-4-4.5-12.9-4.5c-8.4,0-24.3-0.5-53.9-5V346
		c5,7.3,8.1,16.2,20.5,16.2c16.7,0,38.2-14.2,50.8-14.2c20,0,48.9,63,48.9,92.7c0,33.9-51.6,54.6-112.7,54.6c-2.5,0-5,0-7.6-0.2V445
		C1584.7,445.5,1589.8,445.8,1595.1,445.8L1595.1,445.8z M1579.9,414.6V346c-3.8-5.5-8.4-10.7-18.5-10.7c-5,0-11.1,1.3-17.2,4.6
		c-49.1,24.3-86.5,15.4-95.2,20.7c-2,1.5-4,2.8-4,6.8c0,48.8,50.6,123.3,134.9,127.6V445c-40.8-4.8-66.6-27.9-66.6-43.6
		c0-2,1.5-3.3,3.8-3.3c8.4,0,29.6,10.9,58,15.7C1576.6,414.1,1578.4,414.4,1579.9,414.6z"/>
	<path class="st0" d="M448.5,1367.1c-22,5.3-57.5,40-57.5,95.2c0,65.5,70.4,166.5,186,166.5c98,0,122-67.6,122-113.2
		c0-100.9-62.3-172.1-143.6-172.1c-44,0-83.5,32.4-83.5,80c0,43.8,33.7,110.1,113.2,110.1c37.4,0,59.5-26.6,59.5-57.5
		c0-30.1-27.4-71.6-67.6-71.6c-11.9,0-20.7,8.1-20.7,20.7c0,16.2,22,32.2,49.6,32.2c6.8,0,12.2-1.3,14.7-2.8c1.2,2,2,5.5,2,8.1
		c0,15.4-14.7,24.8-37.4,24.8c-33.9,0-67.1-25.3-67.1-65.5c0-24,20.7-41.8,51.1-41.8c59.5,0,95,53.1,95,106.1
		c0,47.3-26.1,74.9-79.8,74.9C477.4,1561.2,424.9,1464.8,448.5,1367.1z"/>
	<path class="st0" d="M1188.1,1652.3c14.7,0,26.6-11.9,26.6-26.9c0-14.7-11.9-26.8-26.6-26.8v-45.1c16.2,1.7,33.9,5.5,53.9,11.6
		c1.5-8.9,2.7-19.4,16.2-19.4c19.9,0,14.9,22.2,21.2,34.6c3.5,6.8,20.2,10.9,20.2,24.3c0,12.9-10.6,17.2-17.4,17.2
		c-2.8,0-6.1-0.5-7.8-1.3c-13.7,4.8-14.2,101.3-70.4,101.3c-5.5,0-10.9-0.5-15.9-1.8V1652.3L1188.1,1652.3z M1188.1,1799.4v-42
		c8.6,1.5,17.2,2,24.6,2h0.5c32.4,0,30.4-2.8,40.5-2.8c9.9,0,10.7,6.1,10.7,10.4C1264.2,1780.1,1236.9,1796.6,1188.1,1799.4
		L1188.1,1799.4z M1161.2,1625.5c0-14.7,11.9-26.8,26.9-26.8v-45.1c-7.1-0.8-14-1-20.5-1c-15.2,0-28.6,2-40,5.8
		c-7.8-13.2-40.7-39.5-69.8-48.6c-11.1,60.2-65.5,107.8-145.8,114.1c-4.8,39.7-35.4,49.6-59.5,49.9c-17.4,0-44.8-6.3-46.3-12.7
		c-10.2-57.2-52.9-89.1-71.6-96.7c0.5,6,1.2,12.7,1.2,18.7c0,48.4-32.6,78.5-94.1,78.5c-10.2,0-22.8-0.5-32.4-2.5
		c70.3,78.2,120.5,49.3,153.4,64.3c42.8,19.2,77.7,78.7,214.9,78.7c50.3,0,101.2-19.2,134.6-40.8c6,20,26.9,38.2,61,38.2
		c5.1,0,10.2,0,15-0.3v-42c-35.4-5.8-78-25.6-99.9-77c-4.8-10.9-12.7-10.9-15.4-10.9c-18.7,0-47.6,66.3-165.6,66.3
		c-49.3,0-72.1-18-72.1-22.8c0-0.5,0-1.3,2.7-1.3c4.6,0,22.5,2,45.4,2c74.4,0,134.6-33.9,170.9-73.4c12.6-14.2,18.7-16.5,29.3-16.5
		c9.6,0,19.4,8.4,24.3,20.7c14.4,37.5,45.3,68.1,80.5,75.5v-67.8C1173.1,1652.3,1161.2,1640.4,1161.2,1625.5z"/>
	<path class="st0" d="M1711.2,1270.2c40,14.4,73.9,50.5,73.9,112.8c0,48.1-36.9,102.3-73.9,141.8v-70.3
		c8.9-15.2,13.7-29.7,13.7-40.5c0-6.8-3.2-13.2-12.1-13.2c-0.3,0-1,0-1.6,0.5v-42.5c1.6,0.2,3.1,0.2,4.3,0.2
		c19.2,0,34.9-5.3,34.9-21.5c0-15.9-17.9-34.6-39.2-42.5V1270.2L1711.2,1270.2z M1659.7,1571.3c13.8-9.9,32.6-26.3,51.5-46.6v-70.3
		c-11,18.8-28.4,38.8-51.5,54.8V1571.3L1659.7,1571.3z M1659.7,1471.3c24.6-29.5,43.5-65.3,51.5-70.1v-42.5
		c-5.8-0.8-11.4-3-15.1-5.1c-8.6-4-24-16.9-24-36.9c0-17.9,10.1-25.3,19.2-25.3c6.8,0,13.7,1.2,19.9,3.5v-24.8
		c-13.1-4.5-27.1-6.8-40.8-6.8c-3.7,0-7.3,0.1-10.7,0.4V1471.3z M1659.7,1263.7v207.6c-18.1,21.8-39.3,40.2-61.3,40.2
		c-37.7,0-75.7-34.1-75.7-50.1c0-26.9,108.4-76.5,108.4-113.9c0-13.9-6.3-14.7-11.9-14.7c-14.2,0-91.7,103.8-142,103.8
		c-12,0-22-22.8-22-40.2c0-9.4,6-16.2,27.3-20.5C1593.4,1350.6,1574.1,1269.9,1659.7,1263.7L1659.7,1263.7z M1659.7,1509.2
		c-10.7,7.5-22.7,14.1-35.8,19.4c-13.7,5-15.7,11.1-15.7,15.9c0,14.7,16.7,36.7,32.4,36.7c3.4,0,10.2-3.5,19.1-9.9V1509.2z"/>
	<path class="st0" d="M440.6,516.1c0,14.7,12,26.9,26.6,26.9c15,0,26.9-12.2,26.9-26.9c0-14.6-11.9-26.8-26.9-26.8
		C452.6,489.3,440.6,501.5,440.6,516.1L440.6,516.1z M307.4,750.2v-8.4c4.5-1,9.2-2.1,14-3.2C316.7,742.8,312,746.6,307.4,750.2
		L307.4,750.2z M307.4,677.9v-1.9c0.6-0.1,1.3-0.2,1.9-0.4C308.7,676.4,308,677.2,307.4,677.9L307.4,677.9z M307.4,640v-31
		c1.2,0.1,2.3,0.2,3.5,0.2c9.1,0,18.7-4,22.8-7.8v31.9C324,636.8,315.4,639,307.4,640L307.4,640z M307.4,577.4v-96
		c9-2.6,17.9-4.2,26.2-5v26.9c-1.2,2-2,4.8-2,8.9c0,4,0.5,8.4,2,12.9v70.6c-0.5-0.5-1-0.7-1.5-1.2
		C323.6,590.5,314.9,584.9,307.4,577.4L307.4,577.4z M307.4,427V321c1.9-0.2,4-0.4,6-0.4c7.6,0,14.2,1.3,20.2,3.8v112.2
		C324.4,434.4,315.5,431.2,307.4,427L307.4,427z M413.1,692.1v-65.6c6-16.9,15.2-32.1,24.3-42.8c33.1,10.2,74.2,41.5,74.2,86.5
		c0,28.9-15.5,56.7-48.1,56.7C439.6,727,421.9,712.8,413.1,692.1L413.1,692.1z M413.1,556.1v-37.7c4.3,2.8,7.6,5.3,7.6,12.4
		C420.7,534.4,418.4,544,413.1,556.1L413.1,556.1z M413.1,474.3v-36.9c5-5,11.9-8.4,19.5-8.4c14.7,0,26.8,11.9,26.8,26.9
		c0,14.7-12.1,26.8-26.8,26.8C424.9,482.7,418.1,479.4,413.1,474.3L413.1,474.3z M413.1,437.4c-4.5,4.8-7.3,11.4-7.3,18.5
		c0,7.1,2.8,13.7,7.3,18.4V437.4L413.1,437.4z M413.1,518.4c-3.3-2.3-7.3-4.8-11.4-10.4c-9.4-13.9-4.5-19.5-10.7-27.4
		c-3.7-3-11.9-3.2-22.8-4.3v43.8c1,2.5,2.2,5,4,7.6c4,6.3,17.2,13.9,17.2,18.7c0,9.1-5.3,21.3-15.9,21.3c-1.8,0-3.8-0.3-5.3-0.8
		v48.9c22.5-17,37.2-41.3,44.8-59.8V518.4L413.1,518.4z M413.1,626.5c-3.5,10.9-6,22.5-6,34.2c0,11.4,2.2,22,6,31.4V626.5
		L413.1,626.5z M368.3,734.5V645c4.8-2.5,9.6-4.5,13.2-5.6c-2.3,8.1-4.3,16.8-4.3,30.9c0,20,6.3,40,25.1,58.2
		c-5,4-13.9,6.6-25.8,6.6C373.6,735,370.8,734.8,368.3,734.5L368.3,734.5z M368.3,438.7v-71.9c3.5,11.9,5.3,24.3,5.3,34.7
		C373.6,415.4,371.3,428.3,368.3,438.7L368.3,438.7z M368.3,366.8c-5.8-18.2-16.7-34.9-34.7-42.3v112.2c11.2,2.5,22.8,4,33.9,4
		c0.3-0.8,0.5-1.5,0.8-2V366.8L368.3,366.8z M368.3,476.4l-2-0.2c-4.1-0.8-9.4-0.8-14.7-0.8c-5.6,0-11.7,0.3-18,1v26.9
		c2.8-4.5,8.4-5,15.2-5c4.8,0,6.8,0.7,9.9,2.7c4.8,2.6,5.8,10.9,9.6,19.3V476.4L368.3,476.4z M368.3,567
		c-16.5-3.8-29.9-24.3-34.7-42v70.6c1,0.8,2,1.3,2,2.3c0,1.3-0.7,2.3-2,3.5v31.9c6.1-2.3,12.9-5,20-8.6c5-2.6,10.2-5.6,14.7-8.9V567
		L368.3,567z M368.3,645c-15.7,8.6-34.2,25.3-34.2,50.6c0,21.2,14.5,35.7,34.2,39V645z M307.4,321v106
		c-10.3-5.4-19.4-12.5-26.2-21.2v-71.6C287.9,327.1,296.8,322.3,307.4,321L307.4,321z M307.4,481.3v96
		c-10.3-10.4-18.5-24.8-20.9-43.8c-0.5-4.8-2-6.6-4.5-6.6c-0.2,0-0.5,0-0.8,0v-34.7C289.8,487.4,298.7,483.9,307.4,481.3
		L307.4,481.3z M307.4,609v31c-3.5,0.4-6.9,0.6-10.2,0.6c-5.5,0-10.9-0.5-16-1.3v-44.8C288.9,602.3,298.2,607.9,307.4,609L307.4,609
		z M307.4,675.9v1.9c-8.5,10.2-17.4,17.9-26.2,22.8v-23.3c1.3,0.2,2.8,0.2,4.1,0.2C292.4,677.6,300.5,677,307.4,675.9L307.4,675.9z
		 M307.4,741.8v8.4c-9.1,7.1-17.9,13.2-26.2,18.1v-21.5C289.3,745.5,297.9,743.8,307.4,741.8L307.4,741.8z M274.9,771.8
		c2-1.1,4.2-2.3,6.3-3.5v-21.5c-2.1,0.3-4.2,0.6-6.3,0.8V771.8L274.9,771.8z M274.9,703.7c2.1-0.9,4.2-1.9,6.3-3v-23.3
		c-2.1-0.1-4.2-0.1-6.3-0.3V703.7L274.9,703.7z M274.9,638.1c2,0.4,4.1,0.9,6.3,1.2v-44.8c-2.2-2.4-4.4-5-6.3-7.7V638.1L274.9,638.1
		z M274.9,530.9c2.1-2.2,4.2-3.7,6.3-3.9v-34.7c-2.2,1.3-4.2,2.6-6.3,4V530.9L274.9,530.9z M274.9,465.3v-17.8
		c2,1.1,4.1,2.2,6.3,3.1v12.2C279.3,463.6,277.1,464.5,274.9,465.3L274.9,465.3z M274.9,395.3c1.7,3.7,3.9,7.2,6.3,10.5v-71.6
		c-2.4,2.5-4.5,5.3-6.3,8.3V395.3L274.9,395.3z M281.2,462.7c7.8-3.8,12.7-7.3,12.7-7.3c-4.3-1.3-8.6-3.1-12.7-4.8V462.7z
		 M274.9,342.4v52.8c-4-8.4-6.3-17.9-6.3-29C268.6,357.6,270.8,349.4,274.9,342.4L274.9,342.4z M274.9,447.5
		c-26.6-14.2-41.3-39.3-41.3-70.8c0-3.7,0-7.1,0.7-11.1c-24.8,10.6-35.4,31.9-35.4,52.8c0,30.2,22.8,51.4,51.4,51.4
		c9.1,0,17.6-2,24.6-4.5V447.5L274.9,447.5z M274.9,496.3v34.6c-5.5,5.8-10.4,16.8-10.4,25.9c0,10.4,4,21,10.4,30v51.3
		c-14.8-3.4-26.9-8.9-38-8.9c-2.5,0-6,1.5-11.1,1.5c-6.1,0-13-6.8-13-12.9c0-2.5,0.8-5.3,2-7.3c9.4-15.5,0-75.7,59-113.7
		C274.2,496.7,274.5,496.5,274.9,496.3L274.9,496.3z M274.9,677.1v26.6c-6.7,2.7-13.1,4.1-19.3,4.1c-22,0-38.7-17.5-38.7-48.9
		c0-3.3,0-6.8,0.7-10.1C231.5,667.7,253.3,675.4,274.9,677.1L274.9,677.1z M274.9,747.5v24.3c-14.4,7.6-27.1,11.7-38,11.7
		c-27.3,0-42.8-24-42.8-75.2c20,30.9,38.7,40.2,63.1,40.2C262.9,748.5,268.7,748.2,274.9,747.5z"/>
	<path class="st0" d="M1474.3,677.6c0,15.5,12.9,28.2,28.4,28.2c15.2,0,28.1-12.7,28.1-28.2c0-15.4-12.9-28.1-28.1-28.1
		C1487.2,649.5,1474.3,662.2,1474.3,677.6L1474.3,677.6z M1389.8,846.9v-56.2c8.4-11.2,21.5-18.2,36.4-18.2
		c25.3,0,46.1,20.7,46.1,46.3s-20.7,45.8-46.1,45.8C1411.3,864.6,1398.2,857.6,1389.8,846.9L1389.8,846.9z M1389.8,707.3v-33.9
		c2.2,5,3.5,10.9,3.5,16.9C1393.3,696.3,1392,702.1,1389.8,707.3L1389.8,707.3z M1389.8,638.4v-34.1c6.6-15,21.7-25.8,39-25.8
		c23.5,0,43.1,19.5,43.1,42.8c0,23.5-19.5,43.1-43.1,43.1C1411.6,664.2,1396.4,653.5,1389.8,638.4L1389.8,638.4z M1476.4,761.9
		c0,17.5,14.2,31.4,31.6,31.4c17.5,0,31.4-13.9,31.4-31.4c0-17.2-13.9-31.4-31.4-31.4C1490.5,730.5,1476.4,744.7,1476.4,761.9
		L1476.4,761.9z M1405,724.5c0,14.7,11.9,26.8,26.6,26.8c14.9,0,26.8-12.1,26.8-26.8s-11.9-26.9-26.8-26.9
		C1416.9,697.6,1405,709.8,1405,724.5L1405,724.5z M1436.4,538.9c0,13.9,11.4,25.6,25.3,25.6s25.6-11.7,25.6-25.6
		c0-14-11.7-25.6-25.6-25.6S1436.4,525,1436.4,538.9L1436.4,538.9z M1485.2,844.9c0-13.2,11.9-24.8,25.6-24.8
		c14.7,0,26.1,11.6,26.1,24.8c0,15.2-11.4,26.1-26.1,26.1C1497.1,871,1485.2,860.1,1485.2,844.9L1485.2,844.9z M1389.8,604.2
		c-2.3,5.3-3.8,10.9-3.8,16.9c0,6.1,1.5,12,3.8,17.2V604.2L1389.8,604.2z M1389.8,673.3c-6.3-14.2-20.5-23.8-37.2-23.8
		c-22.8,0-40.8,18-40.8,40.8c0,22.8,18,40.8,40.8,40.8c16.7,0,30.9-9.6,37.2-23.8V673.3L1389.8,673.3z M1389.8,790.8
		c-6.1,7.6-9.6,17.4-9.6,28.1s3.5,20.5,9.6,28.1V790.8L1389.8,790.8z M1317.2,778.1c0,14.4,11.9,26.9,26.6,26.9
		c14.9,0,26.9-12.5,26.9-26.9c0-14.7-12-26.9-26.9-26.9C1329,751.2,1317.2,763.4,1317.2,778.1L1317.2,778.1z M1315.2,603.2
		c0,13.9,11.4,25.6,25.6,25.6c13.9,0,25.3-11.7,25.3-25.6c0-14-11.4-25.6-25.3-25.6C1326.5,577.7,1315.2,589.2,1315.2,603.2
		L1315.2,603.2z M1227.5,733c0,20.8,17.2,38.2,38,38.2c20.7,0,38.2-17.4,38.2-38.2c0-20.7-17.4-37.9-38.2-37.9
		C1244.7,695.1,1227.5,712.3,1227.5,733L1227.5,733z M1250.4,638.6c0,14.9,11.9,26.9,26.6,26.9c14.9,0,26.8-12,26.8-26.9
		c0-14.7-11.9-26.6-26.8-26.6C1262.2,612.1,1250.4,624,1250.4,638.6z"/>
	<path class="st0" d="M1502.7,1614.9c3.2,0,7.3,2,7.3,13.9c0,13-5.5,30.1-23.5,44.4v46.5c57.2-28.5,93.1-73.6,93.1-113
		c0-36.2-21.2-51.1-36.9-51.1c-10.2,8.1-28.8,21.9-56.2,31.8v35.4C1495.8,1618.6,1501,1614.9,1502.7,1614.9L1502.7,1614.9z
		 M1486.5,1561.3V1488c17.5,5.1,28.3,13.9,28.3,25.6v15.5c0,7.3-1.5,14.7-6.8,19.4C1501.8,1553.8,1494.5,1558,1486.5,1561.3z
		 M1486.5,1673.2c-2.3,1.8-4.7,3.5-7.3,5.2c-6.1,4.3-13.2,8.1-21,11.4v42c9.9-3.6,19.4-7.6,28.4-12.1V1673.2L1486.5,1673.2z
		 M1486.5,1587.5c-8.6,3.1-18.1,5.8-28.4,7.9v36.7c12-2.5,21.4-6,28.4-9.2V1587.5L1486.5,1587.5z M1486.5,1488v73.4
		c-8.7,3.6-18.3,6.1-28.4,7.7v-85.8C1468.7,1483.9,1478.3,1485.6,1486.5,1488L1486.5,1488z M1458.1,1689.8v42
		c-29.1,10.6-62,16.9-97.5,16.9c-39,0-59.7-26.8-59.7-53.6c0-37.9,20.7-73.2,36.9-91.9c7.3-8.4,14.7-15.2,21.5-15.2
		c5,0,21.2,11.2,57.5,11.2c14.9,0,28.9-1.3,41.3-3.8v36.7c-9.9,2-21.5,3.5-35.2,3.5h-8.9c0.8,6,1.5,9.9,1.5,15.4
		c0,16-4,32.9-9.4,48.9C1427.3,1699.4,1444.2,1695.6,1458.1,1689.8L1458.1,1689.8z M1458.1,1483.2c-4.3-0.2-8.6-0.2-13.2-0.2
		c-48.8,0-75,22-75,31.4v30.9c0,12.4,29.4,25.3,65.6,25.3c7.8,0,15.2-0.5,22.5-1.5V1483.2z"/>
	<path class="st0" d="M1566.2,992.7c0,16.7,5.3,36.2,22,36.2c14.2,0,26.4-21.2,26.4-44.8c0-26.9-4.8-47.6-4.8-58.5
		c0-4.6,2-6.6,4.8-6.6c10.1,0.8,19.2,28.1,30.1,28.1c11.9,0,29.9-22.2,37.4-22.2c2,0,2.8,2.8,2.8,3.5c0,10.2-15.7,32.2-15.7,40.8
		c0,7.3,39,8.9,39,15.7c0,9.9-40.8,9.9-60.5,18.5c-18.7,8.1-29.9,18.2-29.9,31.4c0,13.7,13.2,16.4,31.9,16.4
		c45.1,0,76.5-24.3,86.6-24.3c2,0,3.2,1.5,3.2,3.5c0,6.3-22.8,28.6-22.8,38.7c0,11.2,41.5,24.8,40.8,31.4c-0.5,2-3,2.5-7.8,2.5
		c-7.3,0-18.7-2-27.6-2c-5.3,0-9.9,0.7-12,3.5c-4.8,5.3,1.6,40.8-8.1,40.8c-8.9,0-31.7-79-83-79c-7.3,0-12.9,6.1-12.9,16
		c0,26.8,26.3,57.5,51.1,72.4c11.1,7.3,30.1,14.7,30.1,18.7c0,8.1-42.8,0.8-42.8,14c0,12.4,5,30.4,5,41c0,3.3-0.5,7.3-4.3,7.3
		c-8.1,0-27.6-36.7-37.2-36.7c-7.8,0-25.3,22-32.7,22c-2,0-3.3-2-3.3-4c0-15.2,24.8-50.1,24.8-84.3c0-15.9-2-50.8-21.5-50.8
		c-16.2,0-34.1,25.3-42,50.8c-4.8,14.7-1.6,71.6-12.5,71.6c-9.9,0-7.1-38.2-20.7-38.2c-1.9,0-4.2,0.7-6.8,1.8v-62.5
		c29.2-11,58.8-31.8,58.8-58.5c0-36.9-34.1-54.1-58.8-69.4v-28.1c6.9-0.5,12.4-2.3,12.4-8.1c0-6.3-1.2-18.5-1.2-27.6
		c0-6.8,0.5-12.1,3.2-12.1c9.9,0,24,32.9,30.7,32.9c10.9,0,25.6-26.9,35.7-26.9c3.2,0,4.8,2,4.8,8.1
		C1579.1,940.6,1566.2,968.5,1566.2,992.7L1566.2,992.7z M1493.6,1060.8c11.7-4.5,19.7-9.5,19.7-14.3c0-5.7-8.2-15.8-19.7-26.6
		V1060.8z M1493.6,1167.9c-6,2.6-13.4,7.4-19.7,11.2V1153c2.5-4.8,4.5-8.6,4.5-10.4c0-2-1.7-3.5-4.5-5v-26.1c6.3-1.4,13-3.5,19.7-6
		V1167.9L1493.6,1167.9z M1493.6,977.5c-1.2-0.8-2.4-1.5-3.5-2.2c-5.5-3.6-11.4-6.8-16.2-9.6v-15.4c4.3-0.5,9.1-0.5,12.2-0.5
		c2.5,0,5.1-0.1,7.6-0.3V977.5L1493.6,977.5z M1493.6,1019.9v40.9c-5.8,2.3-12.6,4.5-19.7,6.4v-64.1
		C1480.8,1008.6,1487.7,1014.3,1493.6,1019.9L1493.6,1019.9z M1468.5,1181.9c1.7-0.8,3.5-1.8,5.3-2.8V1153c-1.7,2.7-3.5,5.8-5.3,8.9
		V1181.9L1468.5,1181.9z M1468.5,1135.5c2,0.6,3.8,1.3,5.3,2v-26.1c-1.8,0.4-3.5,0.7-5.3,1.1V1135.5L1468.5,1135.5z M1468.5,1068.5
		c1.8-0.4,3.5-0.9,5.3-1.3v-64.1c-1.8-1.4-3.5-2.7-5.3-4.1V1068.5L1468.5,1068.5z M1468.5,962c1.5,1.2,3.4,2.4,5.3,3.7v-15.4
		c-1.9,0.1-3.7,0.4-5.3,0.9V962z M1468.5,951.1V962c-3.2-2.4-5.3-4.7-5.3-6.7S1465.4,951.9,1468.5,951.1L1468.5,951.1z M1468.5,999
		v69.5c-4.8,1.2-9.6,2.3-14.4,3.2v-83.1C1458.7,991.8,1463.6,995.3,1468.5,999L1468.5,999z M1468.5,1112.5v23
		c-4.2-1.4-9.4-2.5-14.4-3.7v-16.8c4.3-0.8,9-1.6,13.7-2.3C1468,1112.7,1468.3,1112.6,1468.5,1112.5L1468.5,1112.5z M1468.5,1161.9
		v19.9c-2.7,1.4-5.1,2.2-6.8,2.2c-1.2,0-2.5-0.8-2.5-1.8C1459.2,1178.4,1463.8,1169.9,1468.5,1161.9L1468.5,1161.9z M1454.1,920.4
		v-15c2.4,0.2,5,0.4,7.6,0.4C1460.4,911.5,1457.8,916.3,1454.1,920.4z M1454.1,905.3v15c-23.7,26.1-89.6,23.3-89.6,63.8
		c0,23.5,23.5,28.6,39,28.6c14.1,0,18.7-2,18.7-13.9c0-6.8-1.3-14-1.3-18.8c0-2.7,2-5.5,5.3-5.5c4.7,0,15.5,5.8,27.9,14.1v83.1
		c-16.1,3.3-31.2,5.3-39.2,5.3c-6.8,0-8.1-4.5-8.1-7.3c0-4.5,11.4-18.5,11.4-26.9c0-6-10.1-10.1-36.6-10.1c-13,0-22,1.5-22,11.6
		c0,18,29.4,40,29.4,56.7c0,13.7-8.1,21.5-29.4,21.5c-18.2,0-45.6-14-45.6-37.5c0-18.7,19.2-37.4,19.2-48.8c0-3.5-2.5-8.6-10.6-8.6
		c-24.8,0-31.4,65.6-119.2,72.9c13.9-12.7,26.3-26.6,26.3-55.7c0-14.1-3.5-25.3-3.5-40.8c0-19.9,9.4-30.1,22.8-30.1
		c24.8,0,36.6,34.7,52.8,34.7c8.6,0,18-7.8,18-20c0-50.9-97.7-43.6-97.7-115.2c0-19.2,6.8-43.3,24.8-76.7
		c7.3,56.7,83.8,28.1,83.8,97c0,9.9-2.8,24.8-2.8,37.2c0,14.7,1.3,27.6,13,27.6c11.1,0,13.9-8.1,13.9-18.8c0-10.9-2.8-24-2.8-31.6
		c0-23.3,16.7-28.9,26.9-28.9C1402.5,879.3,1421,902.2,1454.1,905.3L1454.1,905.3z M1454.1,1115.1c-10.9,2.2-19.8,4.8-19.8,8.3
		c0,3.9,9.6,6.1,19.8,8.5V1115.1z"/>
	<path class="st0" d="M1390.8,1248.4c10.4-0.3,16.7-9.4,16.7-20c0-10.6-7.6-24.8-16.7-30.6v-35.4c37.2,23.3,57,60.5,57,96.2
		c0,33.6-20.8,64.4-57,65.4V1248.4L1390.8,1248.4z M1266.6,1516v-42c5.8-0.2,11.1-0.7,16.2-1.6v42
		C1277.4,1515.1,1272,1515.6,1266.6,1516L1266.6,1516z M1266.6,1412.4v-46.8c5,1.2,10.4,2.4,16.2,3.2v37.7
		C1278,1408.5,1272.6,1410.5,1266.6,1412.4L1266.6,1412.4z M1266.6,1333.4v-75.3c5.8,1.2,11.2,2.9,16.2,5v75.6
		C1276.5,1338.5,1271,1336.5,1266.6,1333.4L1266.6,1333.4z M1266.6,1220.3v-42c6.2,0.7,11.7,1.9,16.2,3.2v39.2
		c-1.5,0.2-3.1,0.2-4.6,0.2C1274.5,1221,1270.7,1220.8,1266.6,1220.3L1266.6,1220.3z M1266.6,1177.1v-48.9c5.7,0.3,11.1,1,16.2,2
		v34.7C1274.8,1167,1268.3,1170.1,1266.6,1177.1L1266.6,1177.1z M1390.8,1454.4v-90.9c16.9-4.1,31.9-9.9,40.8-18
		C1431.3,1381,1417.9,1421.5,1390.8,1454.4L1390.8,1454.4z M1471.8,1213.7c4.5,7.3,6.6,14.7,6.6,21.3c0,18.7-12.7,36.1-12.7,55.9
		c0,22,16.7,40,42.3,40c27.6,0,46.4-22,46.4-48C1554.3,1247.4,1521.9,1217,1471.8,1213.7L1471.8,1213.7z M1374.1,1231.7
		c0-5,3.2-13.2,4-20c1.3-8.6-0.8-16.7,4.5-16.7c2.8,0,5.6,1,8.1,2.8v-35.4c-14.5-8.9-31.7-16-51.4-19.8
		c9.1,11.7,12.4,22.8,12.4,34.5c0,28.6-22,58-22,86.3c0,37.4,24.8,60.7,59,60.7c0.7,0,1.5,0,2,0v-75.6c-0.3,0-0.5,0.2-0.8,0.2
		C1380.7,1248.6,1374.1,1241.4,1374.1,1231.7L1374.1,1231.7z M1390.8,1363.5c-24.8,5.8-53.4,8.1-71.6,8.1c-13.7,0-25.8-1-36.4-2.8
		v37.7c9.6-4,16.4-7.3,21.5-7.3c5.6,0,8.1,5.8,8.1,9.4c0,7.3-8.1,16-8.1,20.8c0,10.6,22.8,2,22.8,14.9c0,12.4-16.7,23.8-44.3,28.1
		v42c47.6-6.8,83.5-30.4,108.1-60V1363.5L1390.8,1363.5z M1282.8,1338.7c0.2,0,0.5,0,0.7,0c18.7,0,31.7-14.7,31.7-31.9
		c0-17.5-12.5-34.6-32.4-43.7V1338.7L1282.8,1338.7z M1282.8,1220.8c11.1-1,21.5-6.1,21.5-19c0-7.1-4.5-15.2-21.5-20.2V1220.8
		L1282.8,1220.8z M1282.8,1164.9c13.4-3.3,30.3-3.3,30.3-14.2c0-9.1-12.6-16.7-30.3-20.5V1164.9z M1266.6,1128.2v48.9
		c-0.1,0.4-0.2,0.8-0.3,1.2l0.3,0.1v42c-6.3-0.6-12.9-1.3-19.8-1.3c-14.9,0-29.6,3.5-41.5,17.5c8.6,1.2,21.5,7.3,21.5,20.7
		c0,38.7-107.9,6.8-107.9,106.3c0,53.1,54.6,110.6,137.7,110.6c3.4,0,6.7-0.1,9.9-0.2v42c-4.5,0.3-9.1,0.4-13.7,0.4
		c-125.3,0-192.3-100.5-192.3-192.9c0-102.5,83.7-195.6,198.1-195.6C1261.4,1128,1264,1128,1266.6,1128.2L1266.6,1128.2z
		 M1266.6,1258.1c-5.1-1-10.5-1.6-16.2-1.6c6.3,6.8,8.4,13.7,8.4,20c0,10.3-4.6,20.7-4.6,32.3c0,9.9,4.7,19.1,12.5,24.6V1258.1
		L1266.6,1258.1z M1266.6,1365.6c-50-12.6-66.8-40.8-76.8-40.8c-12.6,0-12.6,20.7-12.6,28.3c0,7.1-0.8,9.9-4.8,9.9
		c-4.8,0-9.9-2.8-14-2.8c-4,0-6.8,3.3-6.8,9.4c0,28.4,35.6,49.1,71.6,49.1c17.6,0,31.8-2.8,43.3-6.3V1365.6z"/>
	<path class="st0" d="M833,413.9c44.4,0,64.3,37.9,64.3,80.8c0,18.7-5.3,46.3-14.1,46.3c-8.6,0-7.1-15.2-8.6-29.6
		c-1.3-18-4.8-22-10.9-22c-11.2,0-18.7,26.8-18.7,51.6c0,15.4,2.7,32.6,14.9,32.6c6.6,0,12.7-3,16.7-7.1
		C874,597.1,851,624,818.9,624c-2.1,0-4.1,0-5.8-0.2v-57c11.6-21,21.5-62.6,21.5-91.4c0-8.9-1.6-17.9-5.6-17.9
		c-4.8,0-10.4,7.3-15.9,18.4v-58.7C819.6,414.9,826.2,413.9,833,413.9L833,413.9z M669.1,565.2V474c6.6-24.2,11.5-49,13.5-63.9v84.6
		c-0.7,4.2-1,8.4-1,10.9c0,2.2,0.3,4.5,1,6.6v45.6C678.2,560.4,673.7,562.9,669.1,565.2L669.1,565.2z M669.1,394.4v-36.1
		c4.8,0.2,9.3,0.9,13.5,1.7v33.4c-1-2.2-2.7-3.7-5.5-3.7C674.5,389.6,671.8,391.3,669.1,394.4L669.1,394.4z M813,623.7v-57
		c-4.6,7.8-9.4,12.9-14.2,12.9c-4,0-7.3-6.1-7.3-20c0-24,10.4-61.3,21.5-83.8v-58.7c-17,5.3-32.7,17.4-46.6,33.1v33.4
		c3.5-3.5,6.6-5,9.6-5c2.6,0,5.3,2.8,5.3,13.9c0,20.5-8.1,41-14.9,45.9v61C778.1,612.6,793.2,622.2,813,623.7L813,623.7z
		 M766.4,599.4c-21-23.8-31.2-59.8-35.4-84.5c-9.1,9.9-18.2,18.9-27.6,27.1v-28.6c5.3-4.3,12-11.2,20.5-20.8
		c1.3-8.4,1.3-16.4,1.3-26.8c0-13.2-5.3-27.9-13.5-27.9c-3,0-5.8,1.3-8.4,3.3v-73.4c28.4,16.5,43.3,51.6,43.3,89.6
		c0,7.1-0.8,15.2-2.1,22.8c6.6-10.9,14-21,21.8-29.9v33.4c-4.3,4.3-9.1,11.2-15.2,21.3c1.2,23.8,5.3,34.6,12.2,34.6c1,0,2-0.5,3-1.2
		V599.4L766.4,599.4z M703.4,541.9v-28.6c-5.8,4.8-10.1,6.8-13.9,6.8c-2.8,0-5.5-3.3-6.8-8.1v45.6
		C689.8,553.1,696.6,547.8,703.4,541.9L703.4,541.9z M682.6,359.9v33.4c0.5,1.5,1,3.6,1,5.6c0,2.5-0.5,6.3-1,11.1v84.6
		c2.3-17,9.4-43.8,20.7-53.4v-73.4C697.1,364.2,690.3,361.7,682.6,359.9z M669.1,358.3v36.1c-4.5,5.2-9.1,14.1-13.5,25v-60.7
		c3.3-0.3,6.6-0.5,9.9-0.5C666.6,358.2,667.9,358.2,669.1,358.3L669.1,358.3z M669.1,474v91.2c-4.4,2.2-8.9,4.1-13.5,5.8v-55.7
		C660.5,503.4,665.1,488.8,669.1,474L669.1,474z M655.6,571v-55.7c-6.8,16.2-13.9,27.6-20.7,27.6c-6.1,0-7.3-5.3-7.3-10.2
		c0-17.4,13.2-76.7,28.1-113.4v-60.7c-38.7,3.5-72.9,28.1-87.8,72.4c4.8-4.5,18.7-13.2,30.4-13.2c13.2,0,17.2,11.2,17.2,29.2
		c0,12.4-2.5,26.3-7.3,39.5c-8.1,22.2-22.8,28.9-30.9,28.9c-32.6,0-17.9-54.7-34.6-54.7c-14,0-18.3,29.4-18.3,40.8
		c0,38.2,24.8,78.2,79.8,78.2C623.7,579.7,640.7,576.6,655.6,571z"/>
	<path class="st0" d="M707.7,593.9c-28.6,0-30.1,34.9-30.1,105.3c-21.2-46.3-57-95.9-98.5-95.9c-27.8,0-38.7,18.7-38.7,51.6
		c0,6.6,0.5,16.7,2.1,22.8c3.2-11.4,13.9-16.2,27.3-16.2c28.9,0,63.8,22,86.6,52.4c-26.4-4.8-51.7-9.6-73.2-9.6
		c-13.5,0-25.6,1.6-35.5,6.1c-19.2,8.9-45.5,37.4-45.5,81c0,6.8,0.7,14.2,2,22c23.5-51.9,85.8-75.5,125.8-75.5
		c8.1,0,14.2,0.8,18.7,1.3c-20.7,18.7-25.3,51.3-26.9,73.7c-0.5,10.9-4.5,11.4-11.9,11.4c0,22.2,17.5,54.6,17.5,71.6
		c0,5.8-3.5,11.1-6.8,12.4c0,29.6,29.6,51.1,29.6,69.8c0,4.8-1.5,8.6-3.5,10.7c2,12.2,34.4,32.9,38.4,41.8
		c6.6,13.9,11.2,15.2,14.7,15.2c11.2,0,29.4-13.4,29.4-25.6c0-4-3.3-8.6-6-10.7c-13-9.4-19.3-29.4-24.8-43c-4.5,0-10.9-2.3-12.7-9.1
		c-2.5-8.9-4-40.2-9.4-55.7c-8.9-2.1-12.6-5.3-12.6-23.5c0-8.6,5.3-42.6,5.3-54.4c-4.2,0-9.4-2.8-9.4-10.9
		c0-21.5,21.5-38.2,27.4-65.8c38.2,28.3,47.6,57.2,47.6,82.7c0,13.2-2,25.8-4.8,37.7c28.1-13.9,70.3-34.4,70.3-77
		c0-24.6-11.1-51.8-87-62.8c23.5-8.6,53.1-13.4,78-13.4c42.8,0,67.6,13.4,72.6,43.6c8.9-13.2,15.7-28.9,15.7-42.8
		c0-32.9-27.6-54.4-62.6-54.4c-40.8,0-76.9,21.5-115.6,47.6c17.4-35.9,29.4-57.5,50.6-57.5c3.5,0,6.8,0.7,10.4,1.2
		C753.8,622.7,723.9,593.9,707.7,593.9z"/>
	<path class="st0" d="M1836.1,1076.3c33.4,0,60.2,43.6,60.2,94.7c0,54.2-25.3,113.2-70.8,153.1c-0.8-90.3-111.4-61.4-111.4-127
		c0-28.1,20.2-46.8,44.3-46.8c21.5,0,38.2,6,50.4,18c-12.2-11.4-18.2-27.6-18.2-42.8C1790.5,1099.8,1806.7,1076.3,1836.1,1076.3z"/>
	<path class="st0" d="M1366.6,343.7c7.2,4.5,11.5,8.4,14,8.4c6.6,0,13.4-6.6,18.7-6.6c7.3,0,7.3,11.2,7.3,19.2
		c0,26.2-11.3,70.9-40.1,88.6V343.7L1366.6,343.7z M1366.6,552.7c33-12.8,59.6-42,59.6-93.2c0-10.2-4.5-32.4-12.7-43.1
		c0,42-21.2,66.5-46.9,77.5V552.7z M1339.4,391.6c-2.5-3.5-7.3-6.6-12.9-8.6v-53.1c18.7,1.9,31.5,8.4,40.1,13.8v109.7
		c-0.7,0.4-1.4,0.9-2.2,1.2c-5-11.7-15.9-24-33.4-32.4c-2-0.7-3.5-2-4.5-3.5v-14.2C1329,399.2,1333.9,394.1,1339.4,391.6
		L1339.4,391.6z M1366.6,493.9v58.8c-12.8,4.9-26.6,7.4-40.1,7.8v-59.8c1.7,0.2,3.5,0.2,5.3,0.2
		C1343.4,500.9,1355.5,498.7,1366.6,493.9L1366.6,493.9z M1325.5,560.4h1v-59.8c-0.4,0-0.7-0.1-1-0.1V560.4L1325.5,560.4z
		 M1325.5,417c0.3,0.6,0.6,1.2,1,1.7v-14.2c-0.4,0.9-0.7,1.7-1,2.5V417L1325.5,417z M1325.5,382.6c0.3,0.1,0.6,0.2,1,0.4v-53.1
		c-0.4-0.1-0.7-0.1-1-0.1V382.6z M1325.5,329.7v52.9c-7.4-2.8-16-4.5-21.3-4.5c-29.1,0-49.6,20.8-53.4,39.7
		c-2.6-6.8-4.6-14.9-4.6-22.8c0-29.6,20-65.8,68.9-65.8C1318.8,329.3,1322.3,329.3,1325.5,329.7L1325.5,329.7z M1325.5,407
		c-0.6,1.8-1,3.6-1,5.3c0,1.6,0.4,3.2,1,4.6V407L1325.5,407z M1325.5,500.6v59.8h-2.5c-31.9,0-47.9-10.7-51.9-10.7
		c-12.9,0-12.4,25.3-20.7,24.6c-15.7-2.5-29.7-36.7-29.7-72.9c0-21.3,5.3-44.1,17.2-60.8c17.5,16.7,33.2,23.8,51.7,23.8
		c7.6,0,16.2-1.7,20.7-1.7c6.3,0,10.1,2.5,10.1,7.1c0,7.6-6.6,19.5-14.6,26.4C1312.1,498.5,1318.5,500,1325.5,500.6z"/>
	<path class="st0" d="M857,372.6v-79.5c16.7,13.5,30.7,26.1,35,32.2c2.5,4,4,9.4,4,14.7c0,20.2-10.2,43.5-23.5,43.5
		C869.5,383.5,863.9,379.4,857,372.6L857,372.6z M839.6,353.2c6.3,7.6,12.3,14.3,17.4,19.4v-79.5c-5.5-4.5-11.4-9.1-17.4-13.6V353.2
		L839.6,353.2z M839.6,225.4v-83.5c6,6,11.9,12,17.4,17.9v69.6C851.6,228.4,845.7,226.9,839.6,225.4L839.6,225.4z M839.6,102.5V72.7
		c5.3-1.4,11.3-2.4,17.4-3.1v43.3C851,109.8,844.9,106.2,839.6,102.5L839.6,102.5z M839.6,36.6V3.8c6-0.4,11.8-0.5,17.4-0.5v26.6
		C851.6,32.1,845.7,34.3,839.6,36.6L839.6,36.6z M857,229.3c5.6,1,10.9,1.5,15.5,1.5c11.9,0,19.5-6.8,19.5-15.4
		c0-15.2-15.5-34.9-35-55.7V229.3L857,229.3z M857,112.9c9.9,4.8,20,8.1,26.9,8.1c11.4,0,14.9-15.2,14.9-31.4
		c0-20.3-8.9-20.8-26.3-20.8c-5,0-10.2,0.3-15.5,0.8V112.9L857,112.9z M857,29.9c14.5-5.8,25.1-11.9,25.1-18
		c0-8.6-16.4-8.6-24.3-8.6H857V29.9z M839.6,3.8v32.8c-25,9.3-52.5,19.2-57,31c-0.5,1.2-0.5,1.7-0.5,3c0,15.7,29.2,42.9,57.5,71.2
		v83.5c-38.1-10.2-86.2-30.7-105.8-30.7c-7.1,0-9.1,2.2-9.1,8.6c0,25.6,49.3,106.1,49.3,141.5c0,9.1-3.2,16.7-12.6,16.7
		c-30.4,0-97.2-80.2-120.5-80.2c-18.3,0-14.3,48.8-24.9,63.5V205c23.9,10.4,71.4,65.4,82.4,65.4c2.8,0,3.5-2.8,3.5-4.5
		c0-18.3-38.2-79.3-38.2-111.2c0-10.9,3.7-18.2,14.6-18.2c23.5,0,72.9,27.4,95.7,27.4c7.3,0,12.2-2.5,12.2-9.9
		c0-27.4-81.7-83.3-81.7-106.1C704.4,28.1,779.2,7.4,839.6,3.8L839.6,3.8z M839.6,72.7c-10.2,2.5-17.5,6.1-17.5,10.3
		c0,5,7.5,12.4,17.5,19.4V72.7L839.6,72.7z M839.6,279.5c-26.1-19.7-53.6-37.7-63.6-37.7c-2,0-3.2,2-3.2,3.7
		c0,15.8,37.2,72.1,66.8,107.6V279.5L839.6,279.5z M616,171.9c4.8,6,9.5,10.2,14,10.2c4,0,7.6-3.3,7.6-7.8
		c0-14.5-20.2-43.1-20.2-61.8c0-11.4,8.1-16.9,18.7-16.9c15.5,0,36.2,9.6,47.6,9.6c3.8,0,8.1-1.2,8.1-6c0-16-59.8-33.4-59.8-54.2
		c0-20.7,32.7-20.7,32.7-30.1c0-4.3-20-8.4-47.4-8.4c-0.4,0-0.9,0-1.4,0V171.9z M616,6.3v165.5c-12.2-15-25.8-41.3-42.7-41.3
		c-24.8,0-21.7,54.4-33.1,70.1V42.3c1.8,0.3,4,0.5,6.3,0.5C579.5,42.8,574.2,7.1,616,6.3L616,6.3z M616,205v139.8
		c-1.9,2.5-4.2,4.1-7.2,4.1c-16.2,0-30.4-39-47.6-39c-7.6,0-14,25.3-21,53.9V241.2c3-8.6,6.6-14.4,11.2-14.4
		c16.4,0,24.8,48.9,42,48.9c7.3,0,7.8-9.4,7.8-24.8v-22.8c0-14.7,0.8-24.8,8.1-24.8C611.1,203.3,613.4,203.9,616,205L616,205z
		 M464.2,320c21.3,0,8.4,123.8,40.8,123.8c15.5,0,25.8-42.8,35.2-80V241.2c-9.1,24.6-13.9,72.6-26.6,72.6
		c-19.5,0-2.5-95.6-21.5-95.6c-9.1,0-18.6,12.1-27.9,25.8V320L464.2,320z M464.2,150.9c11.4-9.8,24.6-21.8,37.2-21.8
		c35.4,0,12.2,75.7,31.4,75.7c3,0,5.3-1.5,7.3-4V42.3C512.6,37.9,517.4,5,476.1,5c-4,0-8,0.1-11.9,0.4v82.5c5.3,1.2,9.1,4,9.1,9.6
		c0,5.5-3.9,12.5-9.1,19.8V150.9z M464.2,5.4v82.5c-2.7-0.6-5.7-0.8-8.9-0.8c-16.7,0-40.2,6.3-54.9,6.3c-6.6,0-12.1-2-12.1-6.3
		c0-14.5,67.5-20.8,67.5-44.4c0-22-31.4-18.7-31.4-26.8C424.4,10.8,442.4,6.6,464.2,5.4L464.2,5.4z M464.2,117.3v33.6
		c-7.8,6.7-14.8,12.4-20.2,12.4c-3.3,0-6.6-1.5-6.6-5.6C437.4,148.9,453.5,132.3,464.2,117.3L464.2,117.3z M464.2,244
		c-11.8,17.6-22.8,37.7-31.1,37.7c-5.3,0-6.6-5.3-6.6-10.2c0-19.2,11.4-50.6,11.4-69.6c0-9.4-2.8-14.7-10.9-14.7
		c-20.7,0-66.3,33.6-83.5,33.6c-2.7,0-6-1.2-6-4c0-16.2,72.9-67.1,72.9-89.9c0-22-100.2-7.3-100.2-32.9c0-21.5,71.4-43.6,71.4-65.6
		c0-19.4-84.8-28.1-117.7-28.1h-2.7v39.2c17.1,4.3,31.5,8.9,31.5,15c0,5.8-14.3,15.3-31.5,26.1v61.6c34.2,0.5,69.8,0.6,69.8,11.5
		c0,12.9-37.7,50.8-69.8,86.9v68.7c41.5-18.2,99-57.2,118.1-57.2c8.4,0,9.1,10.7,9.1,20c0,17.4-6.1,44.3-6.1,63.5
		c0,15.7,4,26.4,17.7,26.4c24.6,0,47.4-42.3,64.3-42.3V244L464.2,244z M261.1,203.4v-34.1c9.2,0.1,19.4,2.2,19.4,7.3
		C280.4,182.2,272.2,192.7,261.1,203.4z M261.1,0.5v39.2c-6.3-1.6-12.9-3.2-19.4-4.8V1C247.5,0.6,254,0.5,261.1,0.5L261.1,0.5z
		 M261.1,80.9v61.6c-6.6-0.1-13.1-0.2-19.4-0.4V92.9C248.2,88.8,254.8,84.7,261.1,80.9L261.1,80.9z M261.1,169.3v34.1
		c-5.9,5.7-12.7,11.4-19.4,16.3v-48.6c6.3-1.3,12.9-1.8,18.7-1.8C260.6,169.3,260.9,169.3,261.1,169.3L261.1,169.3z M261.1,240.8
		v68.7c-7,3-13.5,5.5-19.4,7.1v-53.1C247.6,256.2,254.2,248.5,261.1,240.8L261.1,240.8z M241.7,1C216.4,2.8,203,7.6,203,16.7
		c0,7.8,18.5,13.2,38.7,18.2V1L241.7,1z M241.7,92.9c-21.7,14-42.3,28.2-42.3,39c0,7.6,18.7,9.6,42.3,10.1V92.9L241.7,92.9z
		 M241.7,171.1c-10.4,1.7-20.2,5.3-25.6,10.1c-7.3,6.1-13.2,24.8-13.2,38.5c0,7.1,2,15.2,8.6,15.2c6.8,0,18.4-6.3,30.1-15.2V171.1
		L241.7,171.1z M241.7,263.5c-14.9,18.2-25.6,34.4-25.6,44.6c0,7.1,5.5,10.6,12.7,10.6c3.7,0,8.1-0.7,12.9-2V263.5z"/>
	<path class="st0" d="M1864.9,59.5c9.4,0,16.7-7.6,16.7-16.7c0-9.4-7.3-16.7-16.7-16.9V2c22.8,0,28.2,9.9,61.8,9.9
		c-18.2,10.9-24.8,30.2-24.8,39.5c0,28.1,17.9,47.6,17.9,105.3c0,48.4-20.7,82.5-54.9,105.3v-57.2c10.7-12.4,15.5-26.3,15.5-39.5
		c0-14.2-5.8-27.1-15.5-35.2V59.5L1864.9,59.5z M1848.2,42.8c0-9.4,7.3-16.9,16.7-16.9V2c-27.3,0-46.8,18.7-46.8,46.6
		c0,9.6,3.3,24,3.3,43.6c0,23.5-4.6,45.6-25.3,45.6c-19.4,0-26.8-12.7-26.8-27.4c0-26.9,13.9-44.8,13.9-62.5
		c0-31.2-38.7-40.8-80.3-40.8c-49.6,0-103,13.6-103,19.9c0,11.7,71.4,4.8,121.8,69.1c-32.7,0.8-96.7,15.7-96.7,24
		c0,10.9,113.9,22.8,113.9,70.3c0,31.2-24.8,34.2-34.7,34.2c-37.4,0-57.5-38.7-67.6-38.7c-2.7,0-5.5,2-5.5,5.3c0,6,5.5,22,5.5,38.7
		c0,43-47.6,47.6-47.6,56.4c0,3.2,1.3,4.5,6.8,5.3c34.7,5.3,70.4,8.1,103.5,8.1c65.8,0,125.1-11.2,165.5-37.9v-57.2
		c-17.9,20.5-52.3,37-109.6,37c-8.4,0-16.4,0-25.1-0.8c78.5-12.9,122-58.5,122-117.9c4.8,1.5,9.1,3.7,12.6,7.1V59.5
		C1855.5,59.5,1848.2,51.9,1848.2,42.8z"/>
	<path class="st0" d="M1805.9,986.2c10.9-33.7,24-57.2,46.4-93.2c-22.3-11.7-80.5-35.7-80.5-75c0-46.3,57.7-82.2,69.8-82.2
		c5,0,6.6,4.8,6.6,13.4c0,24-11.4,62.8-11.4,83.8c0,18.7,11.9,36.4,22.8,36.4c11.4,0,42.8-39.7,42.8-79.2
		c0-71.1-62.3-92.7-81.5-92.7c-18.2,0-51.1,29.4-128.1,29.4c-4.5,0-9.1,0-13.4-0.3v-75.4c9.1-4.8,17.7-8.6,25.6-8.6
		c4,0,13.9,2,13.9,8.1c0,8.6-22.8,24-22.8,36.6c0,3.6,2,7.6,6,7.6c11.9,0,28.1-31.7,50.9-31.7c8.6,0,21.5,3.3,28.1,3.3
		c5.3,0,7.3-3.3,7.3-5.3c0-13.9-35.4-15.4-38.7-54.9c-0.8-6-2.8-16.4-10.2-16.4c-11.9,0-2.7,36.7-15.9,36.7
		c-23.5,0-35.2-35.4-44.3-51.9v-43.6c66.5,8.6,100.2,60.6,145.2,125.6c30.2,18.7,102,48.9,102,133.6c0,75-80,116.4-99.2,196.7
		c30.9-3,48.9-58.2,80.5-58.2c16,0,23,13,23,33.2c0,29.1-16.5,73.4-48.6,101c0.8-2.8,0.8-6.1,0.8-10.2c0-18.7-7.6-45.3-28.9-45.3
		c-33.4,0-44.3,35.9-63.1,66.3c-19.4-68.3-45.5-130.4-92.4-167.8c-6-4.8-12.7-8.6-19.4-11.9v-30.7c31.6,24.8,79.7,61.1,110.6,151.1
		c0.5-3.3,1.2-11.9,1.2-18c0-72.1-69.6-143.2-111.8-191.8v-39.5c50.1,11.7,64.5,38,95.1,122.8C1781.9,909,1805.9,960.6,1805.9,986.2
		L1805.9,986.2z M1663.9,888.1c5.3,1.8,10.4,3.8,15.5,6.2v-30.7c-5.8-4.6-11-8.8-15.5-12.7V888.1L1663.9,888.1z M1663.9,786.2
		c4.5,5.8,9.7,12,15.5,18.7v-39.5c-4.9-1.1-10-2-15.5-2.8V786.2L1663.9,786.2z M1663.9,725c5,0.8,10.2,1.4,15.5,1.7v-75.4
		c-5.2,2.7-10.4,5.8-15.5,8.8V725L1663.9,725z M1663.9,609c2.1-2.7,2.8-6.8,2.8-12c0-8.6-1.3-13.4-1.3-20.7c0-7.8,3-9.9,5.8-9.9
		s5.3,3.3,8.1,8.4v-43.6c-5-0.6-10.1-1-15.5-1.2V609z M1663.9,530.1V609c-1.6,1.9-3.9,3-7.3,3c-17.9,0-33.9-42.3-49.6-42.3
		c-3.3,0-6.6,2-6.6,5.3c0,8.1,13.4,22.8,13.4,30.1c0,15.9-43.6,7.3-43.6,20.7c0,6.1,6.1,8.1,14,8.1c14.2,0,36.4-6.1,47.6-6.1
		c6.8,0,16.7,1.3,16.7,9.9c0,9.6-23.8,21.5-23.8,30.4c0,4.1,3.8,6.1,7.1,6.1c8.4,0,19.9-7,32.1-14.3V725
		c-119.6-17.7-148.1-145-148.1-202.8c0-2.5,0.8-3.3,1.3-3.3c3.5,0,17.7,17.2,63.3,17.2c23.3,0,44.6-6,79-6
		C1660.9,530.1,1662.4,530.1,1663.9,530.1L1663.9,530.1z M1663.9,762.6v23.6c-7.8-10.1-13.3-18.7-15.4-25.6
		C1654,761.3,1659.1,761.9,1663.9,762.6L1663.9,762.6z M1663.9,850.9c-2.4-2.2-4.6-4.3-6.6-6.5c-39.5-44.3-16.7-87-81-111.4
		c4,5.6,5,12.2,5,19.5c0,21.5-11.9,48.3-11.9,67.1c0,54.1,49.8,53.3,94.4,68.5V850.9z"/>
	<path class="st0" d="M1473,312.6c69.1-12,128.1-66.5,128.1-154.9c0-84.5-52.1-138.7-128.1-151.1v33.8
		c44.8,13.8,70.4,55.4,70.4,116.8c0,71.1-36.6,102.7-70.4,114.6V312.6L1473,312.6z M1473,208.7V178c10.4,9.7,20.3,19.9,20.3,26.8
		c0,2.5-1.3,5.3-6.1,5.3C1483.4,210.1,1478.5,209.6,1473,208.7L1473,208.7z M1473,139.5v-28.1c16.3,0.9,30.9,2.3,30.9,8.4
		C1503.9,126.7,1487.7,133.4,1473,139.5z M1452.8,314.9c6.8-0.4,13.6-1.2,20.2-2.3v-40.9c-7,2.4-13.8,4-20.2,5V314.9L1452.8,314.9z
		 M1473,6.6c-6.6-1.1-13.3-1.9-20.2-2.3v31.9c7.1,0.8,13.9,2.2,20.2,4.2V6.6L1473,6.6z M1473,111.4v28.1c-8.3,3.4-16.1,6.6-20.2,9.4
		v-38.4C1459.2,110.8,1466.3,111.1,1473,111.4L1473,111.4z M1473,178v30.7c-6.3-0.9-13.3-2.2-20.2-3.5v-47.1
		C1457.1,163.4,1465.2,170.6,1473,178L1473,178z M1377.8,298.8v-37.5c2.2,1.4,4.6,2.9,7.2,4.2v36.7
		C1382.5,301.1,1380.1,300,1377.8,298.8L1377.8,298.8z M1377.8,233.1v-32c1.9,0.5,3.4,0.9,4.4,0.9c1.3,0,2-0.8,2-1.8
		c0-2.9-3.1-8.5-6.4-14.2v-19.3c2.2-0.5,4.6-0.9,7.2-1.2v70.1C1382.5,234.6,1380,233.8,1377.8,233.1L1377.8,233.1z M1377.8,145.1
		v-18c2.6-3.7,5.3-7.4,7.2-10.4v31.4C1382.4,147,1380,146.1,1377.8,145.1L1377.8,145.1z M1377.8,111.6V77.3c2.2,0.7,4.8,0.9,7.2,0.9
		v31.7h-0.3C1383,109.9,1380.5,110.6,1377.8,111.6L1377.8,111.6z M1377.8,53.3V15.9c2.3-0.9,4.7-1.7,7.2-2.5v34.5
		C1382.2,49.5,1379.8,51.4,1377.8,53.3L1377.8,53.3z M1385,302.3v-36.7c13.7,6.8,32.4,12.2,54.6,12.2c4.1,0,8.4-0.3,13.2-1v38.2
		c-3,0.2-6,0.2-9.1,0.2C1420.4,315.1,1400.9,309.3,1385,302.3L1385,302.3z M1452.8,4.3v31.9c-4.8-0.5-9.9-0.8-15.2-0.8
		c-22.8,0-40.8,5.1-52.6,12.5V13.4c15.2-5,33.1-9.6,53.4-9.6C1443.2,3.8,1448,4,1452.8,4.3L1452.8,4.3z M1452.8,110.4
		c-12.7-1-22.8-2.5-22.8-7.3c0-9.6,14.4-25.6,14.4-32.9c0-3.3-2.8-4.5-7.6-4.5c-6.1,0-38,12.6-51.7,12.6h-0.2v31.7
		c1.2,0,2.3,0.5,2.3,2c0,1-0.8,2.8-2.3,4.8v31.4c10.7,3.7,23,7.3,23,10.4c0,4-12.4,5.3-23,7.1v70.1c15.9,6.6,35.9,19.2,43.8,19.2
		c2.8,0,4.8-1.2,4.8-5.3c0-12-11.4-32.2-11.4-42.3c0-2.5,2-4.5,6-4.5c7.3,0,16,1.3,24.6,2.5v-47.1c-2-2.2-3-4.2-3-5.5s1-2.5,3-3.8
		V110.4z M1377.8,15.9v37.4c-4.7,4.5-7.2,9.4-7.2,14.3c0,5.8,3.2,8.5,7.2,9.7v34.3c-7.6,2.8-17.9,8.1-24.5,8.1
		c-2.7,0-5.5-4.5-8.1-10.4V25.8C1353.2,25.2,1364.2,20.7,1377.8,15.9L1377.8,15.9z M1377.8,127.1v18c-4.2-1.9-7.2-3.7-7.2-5.3
		C1370.6,137.3,1374,132.3,1377.8,127.1L1377.8,127.1z M1377.8,166.8V186c-3.7-6.4-7.8-12.9-7.8-15.4
		C1370,168.9,1373.3,167.7,1377.8,166.8L1377.8,166.8z M1377.8,201.2v32c-2.4-0.6-4.5-1-6.5-1c-5.3,0-9.1,4-9.1,10.2
		c0,5.2,5.5,12.4,15.6,19v37.5c-14.4-7.2-25.3-14.8-32.5-17.9v-85.8c1.5-1.5,3.3-2.5,4.5-2.5
		C1354.8,192.7,1369.5,198.9,1377.8,201.2L1377.8,201.2z M1289.6,260.5c10.6,0,12.6,26.1,14.6,41.5c1.6,7.8,2.8,8.4,6.1,8.4
		c8.4,0,20.7-30.6,29.6-30.6c1.3,0,3.3,0.5,5.3,1.2v-85.8c-7.1,7.1-16,25.1-20.7,25.1c-2,0-3.6-2.8-3.6-6.1l-1.2-26.8
		c0-2.8-1-5.3-4.5-5.3c-8.1,0-23.3-0.8-28.2-0.8c-3.5,0-4.8-0.7-4.8-2c0-5,26.8-23.8,26.8-28.6c0-7.6-26.1-21.5-26.1-29.6
		c0-1.3,1.3-2.1,3.3-2.1c7.6,0,20,2.8,30.4,2.8c8.4,0,9.9-37.4,16.4-37.4c3,0,7.3,14.4,12.2,25.1V25.8c-0.8,0-1.3,0-2,0
		c-10.7,0.7-26.6-25.8-34.9-25.8c-3.3,0-6.6,6.3-6.6,18c0,7.3,0,30.6-7.8,30.6c-16.4,0-78.7-46.1-78.7-29.4
		c0,15.5,41.5,62.3,41.5,74.2c0,12.5-40.8,23.5-40.8,31.7c0,14.7,43.5,17.4,43.5,36.2c0,18.7-45.6,33.4-45.6,47.5
		c0,11.4,45.6,3.3,45.6,17.3c0,14.1-33.4,61.2-33.4,74.4c0,3.5,0.8,3.5,3.5,3.5C1242,304,1280.2,260.5,1289.6,260.5z"/>
	<path class="st0" d="M986.4,1435.9c0,6-2,12.7-7.3,19.5c-7.6-13.5-28.4-20-37.4-20c-69.1,0-42.8,99.5-116.7,99.5
		c-30.6,0-33.4-3.8-44.8-3.8c-4.8,0-7.3,1.7-7.3,6c0,17.5,24.6,60.3,93.6,60.3c69.1,0,135.4-42.3,135.4-94.4c0-8.9-2-18-6-27.6
		c2.5-4,9.4-6.6,15.4-6.6c10.7,0,16.7,12.2,26.6,12.2c10.9,0,18.9-8.1,18.9-18.7c0-8.9-4.8-15-12.9-18.8c5.5-4,9.6-10.9,9.6-18.2
		c0-11.4-8.1-22.2-21.5-22.2c-6.1,0-10.2,2-15,6.8c-1.2-11.9-7.8-23.5-20.7-23.5c-9.9,0-17.2,7.6-17.2,18.7
		C979.1,1415.9,986.4,1424.5,986.4,1435.9z"/>
	<path class="st0" d="M806.2,1461.5c-5.6,0-12.2-1.8-18.5-4.5v36.7c6.8,1.7,14,2.5,20.5,2.5c24.3,0,43.6-7.8,43.6-29.9
		c0-21.5-25.3-65.6-64.1-76.2v26.3c15.5,6.8,31.9,21.5,31.9,34.2C819.6,1455.4,816.3,1461.5,806.2,1461.5L806.2,1461.5z
		 M787.7,1456.9v36.7c-22.5-5.3-45.1-18.5-58-32.9c-12.7-13.5-19.5-40-24.6-72.9c-5.3-34.2-32.1-63-85.8-76.2
		c-43-10.9-48.8-19-48.8-30.3c0-18.7,26.3-31.6,49.6-31.6c32.6,0,57,9.6,79,42.9c19.9,30.2,23.5,80.5,33.9,89.6
		c5.5,4.8,14.4,6,20.2,6c6.6,0,12.9-0.5,17.5-0.5c5.8,0,11.6,0.8,16.9,2.3v26.3c-5.3-2.2-10.7-3.7-14.9-3.7c-7.3,0-17,5.3-17,15.2
		C755.8,1436.4,771.5,1450.1,787.7,1456.9z"/>
	<path class="st0" d="M960.6,1164.1c1.5,0.8,3.3,1.5,5.1,2c59.5,22,67.5,55.7,67.5,91.2c0,42.7-21.2,93.1-72.6,118.4v-37.7
		c18.7-14.6,36.5-41,36.5-64.7c0-9.1-5.3-13.1-11.4-13.1c-5,0-10.6,9.6-25.1,16.9V1164.1L960.6,1164.1z M871.1,1391.9
		c3.7,0.3,7.4,0.4,11.2,0.4c31.4,0,57.5-6.3,78.2-16.7v-37.7c-8.9,6.8-17.9,11.2-25.8,11.2c-9.1,0-10.7-4.8-10.7-12.9
		c0-5.8,1.8-17.5,1.8-26.1c0-23.3,8.9-22.8,32.4-32.1c0.7-0.2,1.5-0.7,2.2-1v-112.9c-26.6-11.6-39.5-29.4-45.3-62.3
		c-14.4,20.8-22,40-22,51.7c0,45.5,62.3,46.3,62.3,76.2c0,18.2-31.4,35.6-74.2,35.6c-3.5,0-6.9,0-10.2-0.1V1391.9L871.1,1391.9z
		 M871.1,1230.6v-25.2c10.5,11.2,25.2,18.9,42.8,21.2c-11.9,2.2-22.8,4.2-33.9,4.2C877.1,1230.9,874.1,1230.8,871.1,1230.6
		L871.1,1230.6z M871.1,1107.6V994.2c14.3,12,31,23.9,31,47.4C902.1,1061.8,885,1083.8,871.1,1107.6L871.1,1107.6z M871.1,923.8
		V811.4c16.9,16.8,27.6,36.3,27.6,53.2C898.8,890.1,884.2,908.1,871.1,923.8z M871.1,811.4v112.4c-10.8,13-20.7,24.6-20.7,37.5
		c0,14.5,9.6,23.7,20.7,32.8v113.5c-9.7,16.5-17.9,33.8-17.9,51.9c0,17.7,6.5,33.8,17.9,45.9v25.2c-14.7-1-29.1-4.4-42.9-10.1v-167
		c10.4,0,14.7-5.3,14.7-13.2c0-6-5.8-11.9-14.7-18.2V858.3c10.9-10.4,18.2-22.5,18.2-36.6c0-8.9-3.5-24.3-9.4-35.4
		C849.9,793.2,861.5,801.9,871.1,811.4L871.1,811.4z M871.1,1265.3v126.6c-15.1-1.2-29.5-4.7-42.9-10.2v-121.7
		C841.2,1263.2,855.3,1264.8,871.1,1265.3L871.1,1265.3z M785.4,1355.2c12.5,10.9,26.9,20,42.8,26.6v-121.7
		c-15.6-3.9-29.6-10.2-42.8-20.2V1355.2L785.4,1355.2z M785.4,1194.6c12.5,10.9,27.1,19.7,42.8,26v-167h-0.5
		c-10.4,0-26.1-8.1-42.3-20.6V1194.6L785.4,1194.6z M785.4,995.2c15.1,10.2,31.4,18.9,42.8,26.9V858.3c-11.9,12.1-27.9,22.7-42.8,33
		V995.2z M785.4,891.4v103.8c-21.5-14.4-40.8-31.9-40.8-55.4C744.6,921.2,763.8,906.5,785.4,891.4L785.4,891.4z M785.4,1032.9v161.6
		c-25.6-22.1-42.8-52.4-42.8-85.4c0-32.9,14-61.5,35.5-82.2C780.6,1029,783,1031,785.4,1032.9L785.4,1032.9z M785.4,1239.8v115.3
		c-32.7-28.6-52.4-69.1-52.4-106c0-18.3,4.8-38.2,16.4-38.2c9.9,0,13.2,8.1,21.3,15.9C775.5,1231.8,780.4,1236,785.4,1239.8z"/>
	<g>
		<path class="st0" d="M1777.2,2379.2c60.3-14.8,100.2-98.6,115.1-158.2c2.5-11.1,12.7-35.1,32.9-35.1c22.8,0,12.7,142.5,44.3,142.5
			c18.8,0,44.4-178.2,162.5-178.2c40.5,0,67.1,22.8,67.1,51.9c0,20.2-15.2,37.7-36.7,37.7c-45.3,0-34.1-33.9-52.9-33.9
			c-50.3,0-87,97-125,181.8c-15,34.1-24,40.5-36.4,40.5c-31.7,0-39-87-51.9-125.3c-21.9,46.8-59.8,101.3-118.9,119.2V2379.2
			L1777.2,2379.2z M1777.2,2327c24.6-13.8,46.9-35.2,46.9-73.2c0-24.8-18.1-57.7-46.9-70.4V2327z M1730.2,2427.9v-51.4
			c9.1,3.3,20.2,5,28.1,5c6.6,0,12.8-0.8,18.9-2.3v42.8c-12.7,3.9-26.6,6-41.3,6C1734,2428.1,1732.2,2427.9,1730.2,2427.9
			L1730.2,2427.9z M1777.2,2183.3V2327c-16.6,9.3-34.3,15-46.9,19.9V2315c17.7-9.6,29.1-23.3,33.4-36c6.3-18.9-1.2-50.3-27.8-50.3
			c-1.8,0-3.8,0-5.6,0.2v-47.8c7.3-2,14.7-3,22-3C1761.3,2178.1,1769.6,2179.9,1777.2,2183.3L1777.2,2183.3z M829.1,2422.4v-76.9
			c14,20.7,36.6,27,53.5,27c19.3,0,51.4-6.3,77.3-47.1c-14.7-32.4-25.1-98.2-26.6-122c-7.3-122,39.2-236.9,90.6-240.7v75.7
			c-24,4.3-35.1,82-30.1,163.8c3.3,53.9,11.4,62.5,18.9,62c3.1-0.3,6.8-5,11.2-13.2v162.3c-20-14.2-32.9-34.4-45.3-34.4
			c-22.8,0-47.9,49.3-123.6,49.3C845.1,2428.1,836.6,2426,829.1,2422.4L829.1,2422.4z M829.1,2065.5c14-11.4,22.5-32,20.9-51.5
			c-0.9-14-8.9-24.9-20.9-30.4V2065.5L829.1,2065.5z M1210.8,2177.8c8.4-3.8,17-6,25.1-6c39.5,0,61.8,51.8,61.8,85.8
			c0,40.2-33.9,73.4-84.3,105c8.9,8.6,25.1,14.9,39.2,14.9c71.6,0,109.7-87,137.4-166.8c5.1-14.9,14-36.4,31.7-36.4
			c30.1,0,42.8,199.4,93.4,199.4c21.5,0,39-44.3,39-78c0-25.3-8.9-27.8-8.9-64.5c0-40.5,21.5-74.4,50.6-74.4c17.5,0,24,17.5,24,39
			c0,80.7-58.2,231-144,231c-64.5,0-59.5-111.1-82-111.1c-25.1,0-60,110.6-183,112.2v-96c24.3-14.2,31.7-39.2,31.7-60.5
			s-11.4-39.2-25.3-39.2c-1.8,0-4,0.5-6.3,1V2177.8L1210.8,2177.8z M1730.2,2181.1c-48.3,13.4-90.1,69.8-90.1,144.5
			c0,74.2,44,100.2,90.1,102.3v-51.4c-9.6-3.8-17.2-9.4-17.2-17.7c0-4.5,7.1-7.8,17.2-11.9V2315c-8.9,4.8-19,8.6-30.9,10.6
			c-7.3-17.9-11.1-90.6,30.9-96.7V2181.1L1730.2,2181.1z M1023.8,1962.6v75.7c0.5,0,1-0.2,1.5-0.2c19-1.3,27.6,14.9,29.9,50.1
			c3.5,61-15.9,133.3-31.4,162.7v162.3c11.2,7.6,24,13.6,40.5,13.6c29.1,0,54.4-8.9,84.5-29.1c17.7,20.2,39.2,30.4,59.5,30.4
			c0.8,0,1.5-0.2,2.5-0.2v-96c-4.5,2.5-9.6,4.8-15.2,6.6c-5-6.3-16.4-21.5-16.4-53.2c0-33.9,18.7-48.3,31.6-52.1v-55.4
			c-41.5,19.5-80.7,83.5-80.7,157c0,16.2,2.5,27.9,5,36.4c-3.8,5-19,11.4-31.6,11.4c-34.1,0-70.1-36.1-74.4-57.7
			c25.3-54.7,76.1-118.2,66.8-270.6c-3.5-58.2-33.9-94-71.6-91.7C1024.1,1962.6,1024.1,1962.6,1023.8,1962.6z M829.1,1983.7v81.9
			c-6,5-13.1,8.2-20.9,9v-94.7c1,0,1.8,0,2.5,0C817.4,1979.9,823.7,1981.2,829.1,1983.7L829.1,1983.7z M829.1,2345.5v76.9
			c-8.1-4-15-9.6-20.9-16v-216.7c17.4,15.5,23.3,63.1,7.8,106.1C816,2317.8,821.2,2333.9,829.1,2345.5L829.1,2345.5z M808.2,2406.4
			v-216.7c-3.5-3.2-7.8-5-12.7-5c-37.7,0-50.3,66.8-51.6,113.2c-12.7,27.8-26.6,50.6-45.6,50.6c-56.4,0-61.8-176.7-103.2-176.7
			c-34.2,0-92.7,112.4-110.4,112.4c-10.2,0-19-31.7-25.3-63.1c-1.7-8.9-3.5-19.2-9.4-19.7c-11.1-1-25.3,8.6-30.1,22
			c-5.3,13.4-14.9,55.4-25.1,93.9c-6,22.3-21,68.8-22.8,86.3c-1.3,12.7,4,22.2,16.4,23.5c31.7,3,147.1-139.2,183.7-139.2
			c46.9,0,58,140.3,111.2,140.3c31.4,0,60.5-81,79.5-81C776.8,2347.1,786.2,2382.6,808.2,2406.4L808.2,2406.4z M808.2,1979.9
			c-22.8,1.8-44.1,26.4-41.5,56.7c0,19.3,13.7,38.2,38,38.2c1.2,0,2.5-0.2,3.5-0.2V1979.9L808.2,1979.9z M0,2210
			c1.2-40,6.6-82.8,22.8-137.7c11.2-39.2,21.5-53.1,56.7-60.5c27.8-5.3,25.3,23.5,18.9,58c-13.9,75.5-20.2,112.1-15.2,198.2
			c5.1,90.9,46.9,126,92.2,126c68.3,1.3,98.5-55.4,111.1-137.7c9.9-65.6,2.5-96.9-3.7-117.2c-3.8-11.4-14-36.6-17.8-55.7
			c-5-48.1,17.8-70.3,36.7-77c22.5-6.3,31.7,5.3,40.2,31.7c11.4,40.5,12.7,93.1,8.9,169.1c-5,101.7-54.9,224-178.7,225.8h-6.8
			C54.1,2430.4,5,2358.8,0,2248.9V2210z"/>
	</g>
</g>
</svg>
