<?xml version="1.0" encoding="utf-8"?>
<!-- Generator: Adobe Illustrator 19.1.0, SVG Export Plug-In . SVG Version: 6.00 Build 0)  -->
<svg version="1.1" id="Layer_1" xmlns="http://www.w3.org/2000/svg" xmlns:xlink="http://www.w3.org/1999/xlink" x="0px" y="0px"
	 viewBox="-431.1 228.1 300 114.7" style="enable-background:new -431.1 228.1 300 114.7;" xml:space="preserve">
<style type="text/css">
	.st0{fill:#107C79;}
	.st1{fill:#F4B824;}
	.st2{fill:#77787C;}
</style>
<g>
	<path class="st0" d="M-348,255.9c9.7,8.2,19.2,15.3,29.3,15.3c18.6,0,27.3-11.7,27.3-11.7l-62.8,83.3L-431.1,240
		c0,0,12.6-11.9,33.5-11.9C-377.9,228.1-362.6,243.4-348,255.9"/>
	<path class="st1" d="M-275.7,238.8c0,0-7.1-5.9-16.7-5.9c-19.1,0-31.1,19.1-55.5,23c9.7,8.2,19.2,15.3,29.3,15.3
		c18.6,0,27.3-11.7,27.3-11.7"/>
	<path class="st2" d="M-237.7,286.4h-7.6l-10,26.9c-0.6,1.6-0.9,2.6-0.9,2.6h-0.1c0,0-7.9-19.7-11.9-29.5h-8.1l14.2,34.7
		c0.9,2,3.4,5.4,8.5,5.4"/>
	<polyline class="st2" points="-164.3,325.8 -164.3,319.6 -181.8,319.6 -181.8,286.4 -189.1,286.4 -189.1,325.8 	"/>
	<path class="st2" d="M-132.1,325.8v-6.3h-16.6v-11.2h14v-6h-14v-9.7h9.6c7.5,0,8-6.3,8-6.3h-24.7v39.5"/>
	<path class="st2" d="M-211.8,309.5h-10.3l5.2-13.3V296 M-197.4,325.8l-15.8-39.5h-6.9l-16.4,39.5h7.8l3.9-10.1h15.3l3.9,10.1
		H-197.4z"/>
</g>
</svg>
