<?xml version="1.0" encoding="utf-8"?>
<!-- Generator: Adobe Illustrator 19.1.0, SVG Export Plug-In . SVG Version: 6.00 Build 0)  -->
<svg version="1.1" id="Layer_1" xmlns="http://www.w3.org/2000/svg" xmlns:xlink="http://www.w3.org/1999/xlink" x="0px" y="0px"
	 viewBox="-384.9 232 300 61" style="enable-background:new -384.9 232 300 61;" xml:space="preserve">
<style type="text/css">
	.st0{fill:#48535B;}
</style>
<g>
	<g>
		<path class="st0" d="M-362.8,232.5h6l-10.7,30.6h-6.8l-10.7-30.6h6.4l5.8,17.5c0.7,2.1,1.2,3.8,2,6.2c0.9-2.6,1.2-3.8,2.1-6.4
			L-362.8,232.5z"/>
		<path class="st0" d="M-340.2,263.7c-9.4,0-13.9-5.9-13.9-15.5c0-10.1,6.8-16.2,15-16.2s13.9,4.9,13.9,15.4
			C-325.1,257.6-331.9,263.7-340.2,263.7z M-339.7,237.3c-4.2,0-8.1,3.3-8.1,10.3c0,6.5,2.6,10.7,8,10.7c4.1,0,8.2-3.1,8.2-10.5
			C-331.5,241.1-334.4,237.3-339.7,237.3z"/>
		<path class="st0" d="M-318.1,263.2v-30.6h5.9v25.5h10v5.2L-318.1,263.2L-318.1,263.2z"/>
		<path class="st0" d="M-280.2,263.2l-10-14.8v14.8h-5.9v-30.6h5.9v13.9l10-13.9h7.1l-11.2,14.8l11.7,15.9H-280.2z"/>
		<path class="st0" d="M-262,263.7c-2.2,0-4.3-0.2-6.3-0.7l0.4-5.5c1.7,0.6,4.2,1.1,6.4,1.1c3,0,5.4-1.2,5.4-4.1
			c0-5.9-12.9-3.3-12.9-13.3c0-5.4,4.3-9.2,11.7-9.2c1.7,0,3.7,0.2,5.5,0.5l-0.4,5.2c-1.7-0.5-3.7-0.9-5.5-0.9
			c-3.4,0-5.3,1.6-5.3,3.7c0,5.5,13,3.6,13,13C-249.8,259.4-254.4,263.7-262,263.7z"/>
		<path class="st0" d="M-210.3,232.5h5.9l-7.9,30.6h-7.3l-4.4-16.7c-0.6-2.2-0.7-3.1-1.2-5.3c-0.5,2.1-0.7,3.2-1.4,5.2l-4.3,16.9
			h-6.8l-7.9-30.6h6.3l4.1,16.6c0.5,2,0.7,3.3,1.2,5.5c0.5-2.1,0.9-3.3,1.4-5.4l4.6-16.7h6.3l4.7,16.7c0.6,2.1,0.9,3.1,1.4,5.3
			c0.5-2.2,0.7-3,1.2-5.2L-210.3,232.5z"/>
		<path class="st0" d="M-181.2,263.2l-2.1-6.3H-195l-2.1,6.3h-5.9l10.7-30.6h6.6l11,30.6H-181.2z M-193.5,252.3h8.6l-2.6-7.4
			c-0.7-2.1-1.2-3.4-1.7-5.3c-0.5,1.7-1,3.4-1.7,5.5L-193.5,252.3z"/>
		<path class="st0" d="M-146.2,238.9c-2.5-1-5.3-1.6-8.1-1.6c-6,0-10.5,3.8-10.5,10.7c0,6.5,3.6,10.3,9.7,10.3
			c1.5,0,2.7-0.1,3.9-0.5v-10.7h5.9v14.6c-3.1,1.2-6.8,2-10.5,2c-9.7,0-15.5-5.8-15.5-15.1c0-9.6,6.5-16.5,17.2-16.5
			c3.1,0,6,0.5,8.7,1.4L-146.2,238.9z"/>
		<path class="st0" d="M-135.6,263.2v-30.6h16.7v4.9h-10.8v7.5h10.2v4.8h-10.2v8.4h10.8v5H-135.6z"/>
		<path class="st0" d="M-92.2,263.2l-8.7-15.3c-1.4-2.5-2.8-5-3.8-7.1c0.1,3.1,0.1,6.8,0.1,11.7v10.7h-5.8v-30.6h7.3l8.4,14.4
			c1.6,2.8,3,5.4,4.2,7.8c-0.1-3.9-0.1-8.2-0.1-12.9v-9.2h5.8v30.6L-92.2,263.2L-92.2,263.2z"/>
	</g>
	<g>
		<path d="M-306.3,292.6l-0.6-1.8h-3.6l-0.6,1.8h-1l2.8-7.9h1.2l2.8,7.9H-306.3z M-310.3,290.1h3l-0.9-2.5c-0.2-0.5-0.4-1.1-0.6-1.7
			c-0.2,0.6-0.5,1.2-0.6,1.7L-310.3,290.1z"/>
		<path d="M-297.5,292.6l-3.1-3.9v3.9h-1.1v-7.9h1.1v3.7l3.1-3.7h1.4l-3.3,3.8l3.4,4.1H-297.5z"/>
		<path d="M-290.1,285.8v7h-1.1v-7h-2.2v-0.9h5.7v0.9H-290.1z"/>
		<path d="M-283.8,292.8v-7.9h0.5h0.5v7.9H-283.8z"/>
		<path d="M-277.2,292.6v-7.9h4.1v0.9h-3v2.5h2.8v0.9h-2.8v2.7h3v0.9h-4.1V292.6z"/>
		<path d="M-262.9,292.6l-3.1-4.9c-0.5-0.7-0.7-1.2-1.1-1.7c0,0.9,0,2.2,0,4.2v2.6h-1.1v-7.9h1.2l3,4.7c0.4,0.6,0.9,1.4,1.1,2
			c0-1,0-2.8,0-4.3V285h1v7.9h-1V292.6z"/>
		<path d="M-251.2,286.1c-0.6-0.2-1.4-0.4-2.1-0.4c-1.6,0-3,1.1-3,3.2c0,2,1.1,3.1,3,3.1c0.5,0,1-0.1,1.4-0.2v-3h1.1v3.7
			c-0.7,0.2-1.7,0.5-2.6,0.5c-2.3,0-3.9-1.5-3.9-3.9s1.6-4.2,4.3-4.2c0.7,0,1.5,0.1,2.2,0.4L-251.2,286.1z"/>
		<path d="M-245.7,292.6v-7.9h4.1v0.9h-3v2.5h2.8v0.9h-2.8v2.7h3v0.9h-4.1V292.6z"/>
		<path d="M-235.2,292.8c-0.6,0-1.1-0.1-1.6-0.2v-1c0.5,0.1,1.1,0.2,1.6,0.2c1,0,1.7-0.4,1.7-1.4c0-1.7-3.6-1.1-3.6-3.6
			c0-1.4,1-2.2,2.8-2.2c0.5,0,1,0,1.5,0.1v1c-0.5-0.1-1-0.2-1.5-0.2c-1.1,0-1.6,0.5-1.6,1.2c0,1.7,3.6,1.1,3.6,3.6
			C-232.2,291.8-233.4,292.8-235.2,292.8z"/>
		<path d="M-227.3,292.6v-7.9h4.1v0.9h-3v2.5h2.8v0.9h-2.8v2.7h3v0.9h-4.1V292.6z"/>
		<path d="M-218.2,292.6v-7.9h1.1v6.9h2.8v0.9h-3.9V292.6z"/>
		<path d="M-210.1,292.6v-7.9h1.1v6.9h2.8v0.9h-3.9V292.6z"/>
		<path d="M-200.7,292.8c-0.6,0-1.1-0.1-1.6-0.2v-1c0.5,0.1,1.1,0.2,1.6,0.2c1,0,1.7-0.4,1.7-1.4c0-1.7-3.6-1.1-3.6-3.6
			c0-1.4,1-2.2,2.8-2.2c0.5,0,1,0,1.5,0.1v1c-0.5-0.1-1-0.2-1.5-0.2c-1.1,0-1.6,0.5-1.6,1.2c0,1.7,3.6,1.1,3.6,3.6
			C-197.8,291.8-198.9,292.8-200.7,292.8z"/>
		<path d="M-190.2,292.8c-2.6,0-3.6-1.6-3.6-3.8c0-2.3,1.2-4.2,3.8-4.2c0.6,0,1.2,0.1,1.7,0.2l-0.1,1c-0.6-0.2-1.2-0.2-1.7-0.2
			c-1.8,0-2.6,1.4-2.6,3.1c0,2,0.9,3.1,2.7,3.1c0.6,0,1.4-0.1,1.7-0.4l0.1,1C-188.7,292.6-189.4,292.8-190.2,292.8z"/>
		<path d="M-178.7,292.6v-3.6h-4.1v3.6h-1.1v-7.9h1.1v3.3h4.1v-3.3h1.1v7.9H-178.7z"/>
		<path d="M-168.3,292.6l-0.6-1.8h-3.6l-0.6,1.8h-1l2.8-7.9h1.2l2.8,7.9H-168.3z M-172.2,290.1h3l-0.9-2.5c-0.2-0.5-0.4-1.1-0.6-1.7
			c-0.2,0.6-0.5,1.2-0.6,1.7L-172.2,290.1z"/>
		<path d="M-162.6,285.8v2.6h2.8v0.9h-2.8v3.6h-1.1v-7.9h4.1v0.9L-162.6,285.8L-162.6,285.8z"/>
		<path d="M-153.4,285.8v7h-1.1v-7h-2.2v-0.9h5.7v0.9H-153.4z"/>
	</g>
</g>
</svg>
