<?xml version="1.0" encoding="utf-8"?>
<!-- Generator: Adobe Illustrator 19.1.0, SVG Export Plug-In . SVG Version: 6.00 Build 0)  -->
<svg version="1.1" id="Layer_1" xmlns="http://www.w3.org/2000/svg" xmlns:xlink="http://www.w3.org/1999/xlink" x="0px" y="0px"
	 viewBox="-385 251.8 300 72.4" style="enable-background:new -385 251.8 300 72.4;" xml:space="preserve">
<style type="text/css">
	.st0{fill:#007DC2;}
	.st1{fill:#FCBA30;}
</style>
<g>
	<g>
		<g>
			<g>
				<g>
					<path class="st0" d="M-207,293.5c0-7.1-3.1-13.4-13.4-13.4c-5.3,0-9.5,1.5-11.8,2.8l1.7,5.8c2.1-1.4,5.4-2.5,8.6-2.5
						c5.3,0,6.1,2.9,6.1,4.9v0.5c-11.4,0-18.7,3.9-18.7,12c0,4.9,3.7,9.6,10.1,9.6c3.9,0,7.3-1.6,9.2-4.1h0.2c0,0,1.4,5.4,8.5,3.3
						c-0.4-2.2-0.5-4.7-0.5-7.6 M-215.5,301c0,0.6,0,1.2-0.2,1.7c-0.6,2.2-2.9,4.1-5.8,4.1c-2.3,0-4.3-1.4-4.3-4.2
						c0-4.3,4.8-5.5,10.2-5.5v3.9H-215.5z"/>
					<path class="st0" d="M-385,270.3c0,0,7.5,30.6,8.6,35.5c1.4,5.8,3.9,7.9,11.1,6.5l4.7-18.9c1.2-4.7,2-8.1,2.7-12.9h0.1
						c0.5,4.8,1.4,8.1,2.2,12.9c0,0,1.8,8.6,2.8,13.1c1,4.5,3.7,7.4,10.8,5.8l11.1-42h-9l-3.8,18.2c-1,5.3-2,9.5-2.7,14.3h-0.1
						c-0.6-4.8-1.5-8.7-2.5-13.9l-3.9-18.6h-9.3l-4.2,18.1c-1.2,5.5-2.3,10-3.1,14.6h-0.1c-0.7-4.4-1.7-10-2.7-15.2
						c0,0-2.5-12.9-3.4-17.3"/>
					<path class="st0" d="M-305.2,293.5c0-7.1-3.1-13.4-13.4-13.4c-5.3,0-9.5,1.5-11.8,2.8l1.7,5.8c2.1-1.4,5.4-2.5,8.6-2.5
						c5.3,0,6.1,2.9,6.1,4.9v0.5c-11.4,0-18.7,3.9-18.7,12c0,4.9,3.7,9.6,10.1,9.6c3.9,0,7.3-1.6,9.2-4.1h0.2c0,0,1.4,5.4,8.5,3.3
						c-0.4-2.2-0.5-4.7-0.5-7.6 M-313.7,301c0,0.6,0,1.2-0.2,1.7c-0.6,2.2-2.9,4.1-5.8,4.1c-2.3,0-4.3-1.4-4.3-4.2
						c0-4.3,4.8-5.5,10.2-5.5v3.9H-313.7z"/>
					<polyline class="st0" points="-290.9,303.4 -290.9,270.3 -299.4,270.3 -299.4,312.3 -290.9,312.3 					"/>
					<path class="st0" d="M-179.2,270.3v31c0,4.3,0.9,7.3,2.6,9.1c1.5,1.6,3.9,2.6,7,2.6c2.6,0,5-0.5,6.1-0.9l-0.1-6.6
						c-0.9,0.2-1.8,0.4-3.2,0.4c-2.9,0-3.9-1.8-3.9-5.7v-11.9h7.4v-8h-7.4v-10"/>
					<path class="st0" d="M-201.2,280.8v31.6h8.8v-16.2c0-0.9,0-1.6,0.2-2.3c0.6-3.4,3.2-5.5,7-5.5c1,0,1.7,0.1,2.6,0.2v-8.2
						c-0.6-0.1-1.1-0.2-2-0.2c-3.3,0-7,2.1-8.6,6.6h-0.2v-5.9"/>
					<path class="st0" d="M-284.9,280.8v31.6h8.6v-18.6c0-0.9,0.1-1.8,0.4-2.6c0.7-1.8,2.5-4.1,5.2-4.1c3.4,0,5,2.9,5,7.1v17.9h8.6
						v-18.8c0-0.9,0.1-1.8,0.4-2.6c0.7-2.1,2.6-3.8,5.2-3.8c3.6,0,5.2,2.8,5.2,7.9v17.3h8.6v-18.6c0-9.8-5-13.6-10.6-13.6
						c-2.5,0-4.4,0.6-6.3,1.7c-1.5,0.9-2.8,2.2-4.1,3.9h-0.1c-1.4-3.4-4.5-5.7-8.7-5.7c-5.3,0-7.7,2.7-9.2,5h-0.1v-4.3"/>
					<path class="st1" d="M-117.3,276.1c1.7,0,3.1-0.9,3.3-2l1.7-18.9c0-1.8-2.2-3.4-4.9-3.4s-4.9,1.6-4.9,3.4l1.7,18.9
						C-120.4,275.2-118.9,276.1-117.3,276.1"/>
					<path class="st1" d="M-127.5,282c0.9-1.5,0.7-3.1-0.1-3.8l-15.6-10.9c-1.6-1-4.1,0.2-5.4,2.6c-1.4,2.3-1.1,5,0.5,6l17.2,8
						C-129.8,284.3-128.3,283.5-127.5,282"/>
					<path class="st1" d="M-107,282c0.9,1.5,2.3,2.2,3.4,1.8l17.2-8c1.6-1,1.8-3.6,0.5-6c-1.4-2.3-3.8-3.6-5.4-2.6l-15.6,10.9
						C-107.8,278.9-107.8,280.6-107,282"/>
					<path class="st1" d="M-117.3,299.8c1.7,0,3.1,0.9,3.3,2l1.7,18.9c0,1.8-2.2,3.4-4.9,3.4s-4.9-1.6-4.9-3.4l1.7-18.9
						C-120.4,300.7-118.9,299.8-117.3,299.8"/>
					<path class="st1" d="M-107,293.9c0.9-1.5,2.3-2.2,3.4-1.8l17.2,8c1.6,1,1.8,3.6,0.5,6c-1.4,2.3-3.8,3.6-5.4,2.6l-15.6-10.9
						C-107.8,297-107.8,295.4-107,293.9"/>
					<path class="st1" d="M-127.5,293.9c0.9,1.5,0.7,3.1-0.1,3.8l-15.6,10.9c-1.6,1-4.1-0.2-5.4-2.6c-1.4-2.3-1.1-5,0.5-6l17.2-8
						C-129.8,291.7-128.3,292.4-127.5,293.9"/>
				</g>
			</g>
		</g>
	</g>
</g>
</svg>
