<?xml version="1.0" encoding="utf-8"?>
<!-- Generator: Adobe Illustrator 25.0.1, SVG Export Plug-In . SVG Version: 6.00 Build 0)  -->
<svg version="1.1" id="Layer_1" xmlns="http://www.w3.org/2000/svg" xmlns:xlink="http://www.w3.org/1999/xlink" x="0px" y="0px"
	 viewBox="0 0 713.9 175.2" style="enable-background:new 0 0 713.9 175.2;" xml:space="preserve">
<style type="text/css">
	.st0{fill:#242056;}
	.st1{fill:#D7D7D6;}
	.st2{fill:#04A34B;}
	.st3{fill:#0AA44A;}
</style>
<g>
	<path class="st0" d="M550.1,109.6c0.4,3.1,1.2,5.6,2.5,7.6c1.3,1.9,2.9,3.5,4.9,4.7c2,1.2,4.2,2,6.8,2.4c2.6,0.4,5.4,0.6,8.3,0.6
		c6.8,0,11.6-1,14.6-3c3-2,4.4-5,4.4-8.9c0-3.1-0.9-5.7-2.8-7.8s-5.6-3.7-11.2-4.6c-7.3-1.3-13.8-2.6-19.3-3.7s-10.2-2.8-14-4.9
		c-3.8-2.1-6.6-4.7-8.5-8s-2.8-7.7-2.8-13.2c0-4.3,1-8.1,2.8-11.6c1.9-3.5,4.5-6.5,7.9-8.9c3.4-2.4,7.4-4.3,12.1-5.6
		c4.7-1.3,9.8-1.9,15.4-1.9c7.1,0,13,0.7,17.8,2.1s8.6,3.4,11.5,5.9c3,2.5,5.2,5.3,6.8,8.5s2.7,6.6,3.5,10.1l-18.3,2.5
		c-1.4-4.6-3.6-8.1-6.5-10.3c-2.9-2.2-7.7-3.4-14.4-3.4c-3.9,0-7.1,0.4-9.5,1.1c-2.5,0.7-4.5,1.6-5.9,2.7c-1.5,1.1-2.5,2.2-3,3.6
		s-0.8,2.6-0.8,3.9c0,2,0.2,3.7,0.7,5c0.5,1.3,1.3,2.4,2.6,3.2c1.2,0.8,2.9,1.5,5.1,2.1c2.1,0.6,4.8,1.2,8,1.8l11.5,1.9
		c6.2,1.1,11.3,2.4,15.4,4.1c4.1,1.7,7.3,3.7,9.8,6.1c2.4,2.4,4.1,5.2,5.1,8.4s1.4,6.8,1.4,10.7c0,8.4-3.2,15.2-9.7,20.4
		c-6.5,5.1-16.2,7.7-29.2,7.7c-5.3,0-10.5-0.5-15.4-1.5c-4.9-1-9.3-2.7-13.2-5.1s-7.1-5.5-9.5-9.5c-2.4-4-3.8-9-4.2-15L550.1,109.6
		L550.1,109.6z"/>
	<g>
		<g>
			<path class="st1" d="M159.8,113.4c2.1-6,3.5-12.2,4-18.7c-3.9,2.1-11.6,3.3-13.4,3.8c-2.2,14.5-7.6,23.1-18.1,33.6
				c-13,13-26.5,18.6-44.9,18.6c-18.4,0-32.3-5.6-45.3-18.6c-10.5-10.5-15.9-19.4-18.1-33.9c-1.8-0.5-9.2-1.3-13-3.4
				c0.1,1.5,0.3,2.9,0.5,4.3l-0.1,0.3c0.7,4.8,1.8,9.4,3.4,13.8l-7.6,6.6c0,0-1.2,1.1-0.1,3.2l5.9,11.2c1.1,2.1,2.7,1.7,2.7,1.7
				l9.7-2.5c3.6,4.9,7.7,9.3,12.3,13.2l-3.1,9.3c0,0-0.4,1.6,1.6,2.8l10.8,6.6c2,1.2,3.2,0.1,3.2,0.1l6.9-6.9
				c5.9,2.5,12.1,4.3,18.6,5.3l2.3,9.7c0,0,0.5,1.5,2.8,1.5h12.6c2.3,0,2.8-1.5,2.8-1.5l2.3-9.7c6.6-1,13-2.8,19-5.3l6.8,6.9
				c0,0,1.2,1.1,3.2-0.1l10.8-6.6c2-1.2,1.6-2.8,1.6-2.8l-3-9.2c4.7-3.9,8.9-8.4,12.5-13.3l9.5,2.5c0,0,1.6,0.3,2.7-1.7l5.9-11.2
				c1.1-2-0.1-3.2-0.1-3.2L159.8,113.4z"/>
			<path class="st1" d="M24.5,75.5c-0.8-0.1-1.7-0.1-2.5-0.1c-0.2,0-0.6,0-1.2,0c0.6-3.3,1.5-6.5,2.6-9.6c0.4,0.3,0.7,0.4,0.9,0.5
				c0.8,0.5,1.6,0.9,2.3,1.2C25.7,70.1,25,72.8,24.5,75.5z"/>
			<g>
				<path class="st2" d="M152.5,75.4c0,0-0.1,0-0.1,0c-0.1,0-0.1,0-0.1,0L152.5,75.4z"/>
				<path class="st2" d="M149.9,66.4c0,0,0.1,0,0.1-0.1c0,0,0.1,0,0.1-0.1L149.9,66.4z"/>
				<path class="st1" d="M150.1,66.3c-0.8,0.5-1.5,0.9-2.3,1.2c0.9,2.6,1.6,5.2,2.1,8c0.8-0.1,1.7-0.1,2.5-0.1c0.2,0,0.6,0,1.2,0
					c-0.6-3.3-1.5-6.5-2.6-9.6C150.5,66.1,150.2,66.3,150.1,66.3z"/>
			</g>
			<path class="st1" d="M42,42.7c-1.2,1.2-2.3,2.5-3.5,3.8c-0.7-0.5-1.4-1-2.2-1.4c-0.2-0.1-0.4-0.3-0.9-0.5
				c2.3-2.8,4.9-5.4,7.6-7.8c0.1,0.3,0.3,0.5,0.4,0.6c0.5,0.9,1,1.7,1.6,2.5C43.9,40.9,42.9,41.8,42,42.7z"/>
			<path class="st1" d="M64.1,24.4c3.6-1.3,7.4-2.3,11.1-3c0,0.3,0,0.6,0,0.7c0,1,0,2,0.1,2.9c-3.2,0.6-6.5,1.5-9.6,2.6
				c-0.4-0.8-0.8-1.7-1.3-2.5C64.4,25,64.3,24.8,64.1,24.4z"/>
			<path class="st1" d="M110.1,25.1c-0.5,0.8-1,1.7-1.3,2.5c-3-1.1-6.1-1.9-9.3-2.5c0.1-1,0.2-1.9,0.1-3c0-0.1,0-0.4,0-0.7
				c3.7,0.7,7.3,1.7,10.9,3C110.4,24.7,110.2,25,110.1,25.1z"/>
			<path class="st1" d="M132.7,42.7c-0.9-0.9-1.9-1.8-3-2.8c0.6-0.8,1.1-1.6,1.6-2.5c0.1-0.1,0.2-0.3,0.4-0.6
				c1.3,1.1,2.5,2.2,3.6,3.3c1.4,1.4,2.7,2.9,4,4.4c-0.5,0.2-0.7,0.4-0.9,0.5c-0.8,0.4-1.6,0.9-2.2,1.4
				C135,45.2,133.9,43.9,132.7,42.7z"/>
			<path class="st0" d="M87.3,151.4c32.1,0,58.8-23.4,64-54.1c-8.4-1.1-9-8.6-9-10.8h-0.1c-0.5,30-25,54.1-55,54.1
				c-29.7,0-53.9-23.6-55-53.1c0-0.4,0-0.7,0-1.1h-0.1c0,2.1-0.5,9.6-8.8,10.8c2.2,13.2,8.4,25.4,18.1,35.1
				C53.7,144.6,70,151.4,87.3,151.4z"/>
			<path class="st3" d="M33.7,87.5c0,0,0.6-9.4-8.3-10.8c-1-0.2-2.2-0.2-3.5-0.2c0,0-0.7-0.1-2.5,0.3c-3,0.8-8.9,3.2-19.4,11.1
				c4.4,3.1,8,5.4,10.9,6.9c3.9,2.1,6.6,3.1,8.3,3.6c2.1,0.5,2.9,0.3,2.9,0.3c1.1,0,2.1,0,3.1-0.2c8-1.2,8.5-8.5,8.5-10.5
				C33.7,87.7,33.7,87.5,33.7,87.5z"/>
			<path class="st3" d="M98.4,20.1c-0.6-2.8-2.7-8.8-11-20.1c-8.2,11.2-10.4,17.3-10.9,20.1c-0.3,1.4-0.2,2-0.2,2
				c-0.1,1.5,0.1,2.8,0.3,3.9c1.8,8.5,10.8,7.8,10.8,7.8s9,0.7,10.8-7.7c0.2-1.1,0.4-2.4,0.3-3.9C98.6,22,98.7,21.4,98.4,20.1z"/>
			<path class="st3" d="M155.3,76.9c-1.9-0.5-2.7-0.4-2.7-0.4c-1.2-0.1-2.3,0-3.2,0.1c-9.2,1.3-8.6,10.8-8.6,10.8s0,0.2,0,0.6
				c0,2.1,0.6,9.4,8.7,10.5c0.9,0.1,1.8,0.2,2.8,0.1c0,0,0.9,0.2,3.1-0.4c1.8-0.5,4.5-1.5,8.4-3.6c2.9-1.6,6.4-3.8,10.7-6.8
				C164.2,80.2,158.3,77.7,155.3,76.9z"/>
			<path class="st3" d="M141.1,45.1c-1.6,0.5-2.1,0.9-2.1,0.9c-1.2,0.6-2.2,1.3-3,2c-6.9,5.7-1.6,13.5-1.6,13.5s3.9,8.5,12.4,5.5
				c1-0.4,2.1-0.9,3.2-1.6c0,0,0.7-0.2,1.9-1.4c2.2-2,6.3-7.1,11.8-19.2C150.4,43.3,144,44.2,141.1,45.1z"/>
			<path class="st3" d="M131.8,12.2c-12.5,5.5-17.5,9.6-19.5,11.7c-1,1.1-1.2,1.7-1.2,1.7c-0.8,1.2-1.3,2.3-1.7,3.4
				c-2.9,8.3,5.4,12.3,5.4,12.3s7.5,5.2,13.3-1.3c0.8-0.9,1.5-1.9,2.2-3.2c0,0,0.4-0.4,0.9-1.8C132.1,32.3,133.2,25.9,131.8,12.2z"
				/>
			<path class="st3" d="M65.2,29c-0.4-1.1-0.9-2.2-1.7-3.4c0,0-0.2-0.6-1.2-1.7c-1.9-2.2-6.9-6.2-19.5-11.8
				C41.4,26,42.6,32.3,43.5,35c0.5,1.3,0.8,1.8,0.8,1.8c0.7,1.3,1.4,2.4,2.2,3.2c5.8,6.5,13.3,1.3,13.3,1.3S68.1,37.3,65.2,29z"/>
			<path class="st3" d="M38.7,48c-0.8-0.7-1.8-1.3-3-2c0,0-0.5-0.4-2.1-0.9c-2.8-0.9-9.2-1.8-22.6-0.3C16.6,57,20.6,62,22.9,64
				c1.2,1.1,1.9,1.3,1.9,1.3c1.1,0.7,2.2,1.2,3.2,1.6c8.5,3,12.4-5.5,12.4-5.5S45.6,53.7,38.7,48z"/>
		</g>
	</g>
	<g>
		<path class="st0" d="M88.8,67c13.1,0,23.7-5.3,23.7-11.9s-10.6-11.9-23.7-11.9S65,48.6,65,55.1S75.6,67,88.8,67z"/>
		<path class="st0" d="M78.8,72.3C77.1,72,56.6,66.5,60,55.1l0,0c-6.7,6.6-11,15.7-11.8,25.6l0,0c10.6,12.7,38,18.7,38,18.7
			s0-14.3-0.1-19.1C86.1,77.6,85,73.6,78.8,72.3z"/>
		<path class="st0" d="M48.2,87.2c1.6,20.1,17.8,36.1,38,37.3c0,0,0-8.1,0-11.5c0-5.3,0.1-8-6.2-9.6C58.5,97.8,48.2,87.2,48.2,87.2z
			"/>
		<path class="st0" d="M98.9,72.3c1.7-0.3,22.2-5.8,18.8-17.3l0,0c6.6,6.6,11,15.7,11.8,25.6l0,0c-10.6,12.7-38,18.7-38,18.7
			s0-14.3,0.1-19.1C91.6,77.6,92.7,73.6,98.9,72.3z"/>
		<path class="st0" d="M129.5,87.2c-1.6,20.1-17.8,36.1-38,37.3c0,0,0-8.1,0-11.5c0-5.3-0.1-8,6.2-9.6
			C119.2,97.8,129.5,87.2,129.5,87.2z"/>
	</g>
	<path class="st0" d="M211,45.4l15.6,67.5l19.5-66.8h18.5l18.8,66.8l15.6-67.5h21.1l-27,92.4h-20.1l-18.7-67.2l-18.8,67.2h-19.9
		L189,45.4H211z"/>
	<path class="st0" d="M351.4,11v46.6c3.7-4.9,7.9-8.6,12.7-11.1s10.4-3.8,16.8-3.8c6.6,0,12.4,1.2,17.2,3.5
		c4.9,2.4,8.9,5.7,12.1,9.9c3.2,4.3,5.6,9.4,7.2,15.4s2.4,12.6,2.4,19.8c0,7.6-1,14.4-2.8,20.5c-1.9,6.1-4.6,11.3-8.2,15.6
		c-3.5,4.3-7.8,7.6-12.8,9.9s-10.5,3.5-16.7,3.5c-5.6,0-10.7-1-15.5-3.2c-4.7-2.1-9.1-5.6-13-10.5v10.9h-19.5V11H351.4z M351.2,94.8
		c0.1,5.9,0.9,10.8,2.2,14.6c1.4,3.8,3.1,6.8,5.3,9.1c2.2,2.3,4.7,3.8,7.5,4.6s5.8,1.2,8.9,1.2c3.3,0,6.4-0.6,9.2-1.8
		s5.3-3.1,7.5-5.6s3.8-5.9,5-10.1c1.2-4.2,1.8-9.3,1.8-15.3c0-5.8-0.6-10.8-1.9-14.9c-1.2-4.1-2.9-7.4-4.9-10
		c-2-2.6-4.4-4.4-7.2-5.6c-2.8-1.2-5.7-1.8-8.6-1.8c-4.4,0-8.1,0.7-11.3,2.1c-3.1,1.4-5.7,3.4-7.7,6.1c-2,2.6-3.5,5.7-4.4,9.4
		c-1,3.6-1.4,7.6-1.4,12v4.4L351.2,94.8L351.2,94.8z"/>
	<path class="st0" d="M519.3,105.5c-1.2,11-5.1,19.6-11.8,25.9c-6.7,6.2-16.3,9.3-28.7,9.3c-7.5,0-14-1.1-19.5-3.5
		s-10.1-5.6-13.8-9.9c-3.7-4.3-6.4-9.4-8.2-15.4c-1.8-6-2.7-12.6-2.7-20c0-7.3,1-14.1,3-20.2c2-6.1,5-11.3,8.8-15.6
		c3.9-4.3,8.6-7.7,14.1-10c5.6-2.4,11.9-3.6,19-3.6c6.5,0,12,0.9,16.5,2.6c4.5,1.7,8.2,4,11.2,6.9c3,2.9,5.3,6.2,6.9,10
		s2.8,7.8,3.5,11.9l-20.1,3c-1-5.2-2.8-9.5-5.4-13c-2.7-3.4-7.1-5.1-13.4-5.1c-4.5,0-8.2,0.9-11.2,2.8c-3,1.9-5.3,4.4-7.1,7.4
		c-1.8,3-3,6.5-3.8,10.4c-0.8,3.9-1.2,7.9-1.2,11.9c0,4.6,0.4,8.9,1.2,13c0.8,4,2.1,7.5,3.9,10.4c1.8,2.9,4.2,5.2,7.1,6.9
		c3,1.7,6.6,2.6,10.8,2.6c6.2,0,10.8-1.6,14-4.9c3.2-3.3,5.2-7.9,6-13.9L519.3,105.5L519.3,105.5z"/>
	<path class="st0" d="M694.2,125.2c-3.8,5.2-8.1,9-12.9,11.6c-4.8,2.6-10.4,3.9-16.8,3.9c-6.6,0-12.4-1.2-17.2-3.6
		c-4.9-2.4-8.9-5.7-12.1-10c-3.2-4.3-5.6-9.5-7.2-15.5c-1.6-6-2.4-12.6-2.4-19.8c0-6.8,0.8-13.1,2.5-18.9s4.1-11,7.3-15.3
		c3.2-4.3,7.1-7.8,11.8-10.4c4.7-2.6,10.1-4,16.3-4.3c1.2-0.1,2.4-0.2,3.5-0.1c1.2,0.1,2.4,0.2,3.7,0.3c4.2,0.5,8.1,1.6,12,3.5
		c3.8,1.8,7.5,4.9,11.1,9.1V11h20.1v126.9h-19.7L694.2,125.2L694.2,125.2z M694,89.8c0-5.8-0.6-10.7-1.9-14.7c-1.2-4-3-7.1-5.2-9.4
		c-2.2-2.3-4.7-4-7.6-5c-2.9-1-6-1.5-9.2-1.5c-7.5,0-13.2,2.7-17.3,8c-4.1,5.4-6.1,13.5-6.1,24.4c0,5.9,0.6,11,1.7,15.1
		c1.1,4.2,2.7,7.5,4.8,10.2c2.1,2.6,4.5,4.5,7.2,5.7c2.7,1.2,5.7,1.8,8.9,1.8c7.3,0,13.3-2.4,17.9-7.2c4.6-4.8,6.8-12.3,6.8-22.5
		L694,89.8L694,89.8z"/>
</g>
</svg>
