<?xml version="1.0" encoding="utf-8"?>
<!-- Generator: Adobe Illustrator 21.0.2, SVG Export Plug-In . SVG Version: 6.00 Build 0)  -->
<svg version="1.1" id="Layer_1" xmlns="http://www.w3.org/2000/svg" xmlns:xlink="http://www.w3.org/1999/xlink" x="0px" y="0px"
	 viewBox="0 0 300 125" style="enable-background:new 0 0 300 125;" xml:space="preserve">
<style type="text/css">
	.st0{fill:#EEB111;}
	.st1{fill:#FFFFFF;}
</style>
<g>
	<path d="M48.6,0h1.7c10.5,0.4,21.1,1.2,31.2,4.3c3.2,1.2,6.9,2.4,8.9,5.4c1.4,2.5-1.2,4.9-3.3,5.9c-5.5,2.9-11.8,4-17.9,4.9
		c-3.2,0.3-6.7,1.4-9.8-0.2C49.2,21,38.6,21,28.7,17.9c-1.5-0.3-2.5-1.4-3.4-2.5c3.4-0.1,6.5,1.3,9.8,1.8c7.8,1.1,15.7,1.5,23.5,0.4
		c3.8-0.4,7.3-2.1,11.1-2.1c0,0.6-0.2,1.8-0.2,2.4c4.1-1.2,8.8-1.8,11.8-5.1c1.3-1.5,0.2-3.5-1.2-4.4c-3.9-2.8-8.7-3.7-13.3-4.6
		c-11.3-1.9-22.8-2-34.1-0.8c-6.5,0.8-13.1,1.8-19,4.7c-1.9,1-4.3,2.4-4.5,4.8c0.2,2.6,2.8,4,4.9,5.1c8.4,3.9,17.8,4.8,26.9,5.6
		c1.4-0.1,2.4,0.7,3.1,1.9c-3.8,0.6-7.7-0.1-11.6-0.3c-8.5-1-17.2-2.2-25.1-5.5C4.4,18,1.1,16.3,0,13v-1.2c1.8-4.1,6.4-5.7,10.3-7.1
		C22.7,0.8,35.8,0.1,48.6,0L48.6,0z"/>
	<path class="st0" d="M226.1,0h2c3.8,0.3,6.6,3.7,6.4,7.5c-0.2,8.2-4.9,15.4-8.7,22.4c0.1,2.2,0,4.4-1.3,6.3
		c-4.7,7.5-10.4,14.1-16.3,20.7c-2.7,2.9-5.4,5.7-8.1,8.5c-3.9,3.8-7.7,7.6-11.5,11.4c-3.3,3.1-6.6,6.2-10,9.1
		c-12.6,11-26,21.3-40.5,29.7c-7.5,4.2-15.4,8.3-24,9.5h-2.9c-2-0.5-4.4-1.3-5.3-3.4c-1.5-3.5-0.5-7.4,0.6-10.8
		c3.3-9.1,8.8-17.3,14.3-25.2c0.8,0,2.4,0,3.2,0c-5.5,7.9-11,15.9-14.2,25c-0.8,2.8-1.9,6.1-0.1,8.8c1.9,2.2,5.2,1.8,7.7,1.3
		c6.9-1.6,13.2-5.2,19.3-8.8c14.2-8.8,27.3-19.3,39.6-30.5c2.7-2.5,5.4-5.1,8.2-7.6c5.3-5.1,10.4-10.3,15.2-15.8
		c2.1-2.5,4.2-5,6.4-7.4c6.1-7,11-15,17.2-22c2.5-4.1,4.4-8.7,5.8-13.3c0.7-3,1.6-6.2,0.4-9.2c-1.2-2.6-4.6-2.7-7.1-2.3
		c-6.3,1-12,4.1-17.6,7.1c-12,6.8-23.1,15.3-33.7,24.1c0-0.8,0.1-2.3,0.1-3.1c11.2-9.2,22.8-18,35.5-25C212.9,3.7,219.3,0.6,226.1,0
		L226.1,0z"/>
	<path d="M25.4,8.6C31.3,6,37.8,5.4,44.2,5.3c5.6,0,11.2,0.4,16.6,1.9c2,0.6,4.3,1.3,5.5,3.1c0.6,1.9-1.9,2.9-3.2,3.4
		c-7.4,2.2-15.4,2.6-22.9,0.9c-1.3-0.5-4-0.8-3.3-2.8c2.6-1.7,5.9-1.7,8.9-1.5c1.9,0.3,4.6,0.5,4.9,3c1.7-0.4,3.6-0.6,5-1.9
		c0.1-2.4-3.1-2.6-4.8-3.2c-8.2-1.3-16.7-0.5-24.5,2.3c-1.2,0.4-2.4,0.5-3.6,0.4C23.5,10,24.2,9,25.4,8.6L25.4,8.6z"/>
	<path d="M82.4,28.3c2.9-0.2,5.7-0.5,8.6-0.7c0,6.3,0.1,12.5-0.1,18.8c5.4-1.9,11.7-3.4,17.2-1.2c4.4,2.1,5.6,7.5,5.7,12
		c0.2,8.8,0,17.7,0.1,26.5c-2.9,0-5.7,0-8.6,0c0-7.9,0-15.7,0-23.6c-0.1-2.7-0.5-6-3.1-7.3c-3.5-1.6-7.6-0.6-11.2,0.3
		c0,10.2,0,20.4,0,30.6c-2.9,0-5.7,0-8.6,0C82.4,65.2,82.4,46.8,82.4,28.3L82.4,28.3z"/>
	<path d="M160.8,28.3c2.9-0.2,5.8-0.5,8.6-0.7c0,18.7,0,37.4,0,56.1c-2.9,0-5.7,0-8.6,0C160.8,65.2,160.8,46.8,160.8,28.3
		L160.8,28.3z"/>
	<path d="M10.1,28.2c2.9,0,5.7,0,8.6,0c3.6,13.4,7.1,26.9,10.6,40.3C32.9,55,36.4,41.6,40,28.2c2.8,0,5.7,0,8.5,0
		c3.6,13.4,7.2,26.9,10.8,40.3c3.5-13.4,7.1-26.9,10.6-40.3c2.9,0,5.7,0,8.6,0c-5,18.5-9.9,37-14.9,55.5c-2.9,0-5.8,0-8.7,0
		c-3.5-13.4-7-26.9-10.5-40.3c-3.6,13.4-7.1,26.9-10.7,40.3c-2.9,0-5.8,0-8.7,0C20,65.2,15,46.7,10.1,28.2L10.1,28.2z"/>
	<path d="M291.6,28.3c2.8-0.2,5.6-0.5,8.4-0.7v56c-2.8,0-5.6,0-8.4,0C291.6,65.2,291.6,46.8,291.6,28.3L291.6,28.3z"/>
	<path d="M122.8,29.5c2.6-1.1,6.8-0.9,7.7,2.3c0.5,2.5,0.7,5.7-1.5,7.4c-2.7,1.7-7.5,1.1-8.1-2.5C120.5,34.3,120.3,30.9,122.8,29.5
		L122.8,29.5z"/>
	<path d="M144.4,48c3.6-2.8,8.2-4.3,12.8-3.9c0,2.9,0,5.7,0,8.6c-3.8-0.7-7.8-0.6-11.3,1.1c0,9.9,0,19.9,0,29.8c-2.9,0-5.7,0-8.6,0
		c0-13,0-26,0-39.1c1.9,0,3.9,0,5.8,0C143.5,45.7,144,46.9,144.4,48L144.4,48z"/>
	<path d="M183.7,47.6c4.7-2.3,10.1-4.5,15.4-3c3.2,0.8,5.4,3.3,7.2,5.9c-2.1,2.5-4.3,5-6.4,7.4c-0.9-1.8-1.8-3.9-3.9-4.7
		c-3.5-1.4-7.5-0.6-11,0.2c0,6.8,0,13.5-0.3,20.3c-2.7,2.5-5.5,5-8.2,7.6c0-12.2,0-24.5,0-36.7c2.2,0,4.3,0,6.5,0
		C183.2,45.6,183.4,46.6,183.7,47.6L183.7,47.6z"/>
	<path d="M224.6,44.8c5.4-1.2,11.5-1.1,16.2,2c4.2,2.9,5.9,8.2,6.4,13.1c0.4,6,0.4,12.4-2.6,17.8c-2.2,4-6.7,6.3-11.2,6.7
		c-4.9,0.5-10.3,0-14.2-3.2c-3.7-3.1-5.2-8-5.6-12.6c-0.4-5.6-0.3-11.6,2.3-16.8C217.5,48.2,220.9,45.7,224.6,44.8L224.6,44.8z"/>
	<path d="M262.9,44.8c5.3-1.3,11.5-1.2,16.2,1.9c4.6,3.1,6.2,8.8,6.5,14c0.3,5.8,0.2,12-2.8,17.1c-2.2,3.6-6.2,5.8-10.3,6.3
		c-5.2,0.7-11,0.2-15.1-3.2c-3.9-3.3-5.3-8.5-5.6-13.4c-0.3-5.4-0.1-11,2.4-15.9C256,48.3,259.2,45.8,262.9,44.8L262.9,44.8z"/>
	<path d="M121.4,44.6c2.9,0,5.7,0,8.6,0c0,13,0,26,0,39.1c-2.9,0-5.7,0-8.6,0C121.4,70.7,121.4,57.6,121.4,44.6L121.4,44.6z"/>
	<path class="st1" d="M227.8,51.3c3.2-0.9,7.2-0.3,9,2.8c2,3.8,1.9,8.3,1.8,12.5c-0.2,3.3-0.7,7.1-3.4,9.4c-3.5,2.6-9.5,2-11.5-2.2
		c-2-4.2-1.8-9.1-1.5-13.7C222.5,56.6,224,52.3,227.8,51.3L227.8,51.3z"/>
	<path class="st1" d="M266.2,51.3c3-0.9,6.7-0.5,8.7,2.2c1.8,2.6,2,5.9,2.2,9c0.1,3.8,0.1,7.8-1.7,11.3c-2.4,5-11,5.1-13.3,0
		c-2-4.3-1.8-9.2-1.4-13.7C261,56.5,262.5,52.4,266.2,51.3L266.2,51.3z"/>
	<path class="st1" d="M185,53.5c3.6-0.9,7.5-1.6,11-0.2c2.1,0.7,2.9,2.9,3.9,4.7c-4.8,5.5-9.9,10.8-15.2,15.8
		C184.9,67,185,60.3,185,53.5L185,53.5z"/>
	<path d="M200.1,65.3c2.7-2.8,5.4-5.6,8.1-8.5c1.1,7.9,1.2,17.2-4.7,23.4c-4.8,5-12.3,4.3-18.5,3.2c0,6,0,11.9,0,17.9
		c-2.9,0.3-5.7,0.6-8.6,1c0-4.9,0-9.7,0-14.6c0.7-0.6,1.4-1.3,2.1-1.9c3.4-3,6.7-6,10-9.1c2.7-0.2,5.8,0.2,8-1.8
		C199.3,72.5,199.6,68.6,200.1,65.3L200.1,65.3z"/>
	<path class="st1" d="M188.6,76.7c3.8-3.8,7.7-7.6,11.5-11.4c-0.5,3.3-0.8,7.2-3.5,9.6C194.4,76.9,191.3,76.5,188.6,76.7L188.6,76.7
		z"/>
	<path d="M221.1,92.3c1.8,0.1,3.6-0.1,5.3,0.5c1.9,1.1,1.5,4.1-0.3,5.1c0.8,1.2,1.5,2.5,2.2,3.8c-0.6,0-1.7,0-2.3,0
		c-0.7-1.5-1.1-3.3-2.8-3.8c0,1.3-0.1,2.5-0.1,3.8c-0.5,0-1.5,0-2,0C221.1,98.6,221.1,95.4,221.1,92.3L221.1,92.3z"/>
	<path d="M202.4,93.3c1.5-1.3,3.5-1,5.3-1.1c0.1,0.4,0.2,1.3,0.3,1.8c-1.3,0-2.6-0.1-3.8,0.2c-1.5,1-1.4,3.3-0.8,4.8
		c0.9,1.7,3.1,0.9,4.6,1c0,0.4,0,1.3,0,1.7c-2.2,0.1-5.1,0.6-6.4-1.6C200.6,98,200.7,95,202.4,93.3L202.4,93.3z"/>
	<path d="M211.9,92.7c3.3-1.9,7.5,1,6.6,4.8c0.5,4.2-5.7,5.9-7.8,2.5C209.7,97.8,209.6,94.3,211.9,92.7L211.9,92.7z"/>
	<path d="M230.4,92.3c1.6,0.1,3.4,0,5,0.4c1.8,0.6,1.9,3.2,1.1,4.6c-0.9,1.3-2.7,1-4.1,1.4c0,1,0,2,0,3.1c-0.5,0-1.5,0-2,0
		C230.4,98.6,230.4,95.4,230.4,92.3L230.4,92.3z"/>
	<path d="M240.3,92.9c2.2-1.4,6-0.8,6.6,2.1c0.4,2,0.5,4.4-1.1,5.9c-2.1,1.7-6.1,1.2-6.9-1.7C238.5,97.1,238.4,94.3,240.3,92.9
		L240.3,92.9z"/>
	<path d="M249.7,92.3c1.7,0.1,3.4,0,5.1,0.4c2.1,0.9,1.8,4.2-0.1,5.2c0.8,1.2,1.5,2.5,2.2,3.8c-0.6,0-1.7,0-2.3,0
		c-0.6-1.5-1.1-3.3-2.8-3.8c0,1.3-0.1,2.5-0.1,3.8c-0.5,0-1.5,0-2,0C249.7,98.6,249.7,95.4,249.7,92.3L249.7,92.3z"/>
	<path d="M258.2,101.9c1.1-3.3,2.3-6.5,3.4-9.8c0.5,0.1,1.4,0.3,1.8,0.4c1.4,3,2.4,6.3,3.6,9.4c-1.7,0.2-2.8-0.6-3.2-2.3
		c-0.9,0-1.7,0-2.6,0C261,101.3,259.8,102,258.2,101.9L258.2,101.9z"/>
	<path d="M267.7,92.3c2.4,0,4.8,0,7.2,0c0,0.4,0,1.3,0,1.7c-0.6,0-1.9-0.1-2.6-0.1c0,2.6,0,5.2,0,7.8c-0.5,0-1.5,0-2,0
		c0-2.6,0-5.2,0-7.8c-0.6,0-1.9,0.1-2.6,0.1L267.7,92.3L267.7,92.3z"/>
	<path d="M277.1,92.3c0.5,0,1.5,0,2,0c0,3.1,0,6.3,0,9.4c-0.5,0-1.5,0-2,0C277.1,98.6,277.1,95.5,277.1,92.3L277.1,92.3z"/>
	<path d="M283.5,92.6c1.9-0.8,4.7-0.6,5.8,1.4c0.8,1.7,0.8,3.8,0.2,5.6c-1.2,3.2-6.9,3-7.7-0.4C281.1,97,281.1,93.9,283.5,92.6
		L283.5,92.6z"/>
	<path d="M292.5,91.9c2.9,1,4,4,5.7,6.3c0-2,0-3.9,0-5.9c0.5,0,1.4,0,1.8,0v10.1c-2.5-1.7-4-4.3-5.6-6.7c0,2,0,4,0,6
		c-0.5,0-1.5,0-2,0C292.5,98.4,292.4,95.2,292.5,91.9L292.5,91.9z"/>
	<path class="st1" d="M223.1,93.8c1.3,0.3,3.2,0.7,2.3,2.4c-0.6,0.2-1.7,0.7-2.2,1C223.1,96,223.1,94.9,223.1,93.8L223.1,93.8z"/>
	<path class="st1" d="M232.4,93.9c0.8,0.1,1.6,0.3,2.4,0.4c0.5,1.9-0.7,2.8-2.4,3C232.4,96.4,232.4,94.7,232.4,93.9L232.4,93.9z"/>
	<path class="st1" d="M251.7,93.8c0.8,0.4,2.5,0,2.4,1.3c0.7,1.5-1.5,1.4-2.3,1.9C251.7,96.3,251.7,94.6,251.7,93.8L251.7,93.8z"/>
	<path class="st1" d="M212.9,94.4c3.5-2.7,4.9,4.4,2.1,5.8C211.8,100.9,211.5,96.2,212.9,94.4L212.9,94.4z"/>
	<path class="st1" d="M241.3,94.6c0.8-1.4,3.1-1.2,3.5,0.5c0.6,1.9,0.5,5.6-2.4,5.2C240.3,99.4,240.6,96.4,241.3,94.6L241.3,94.6z"
		/>
	<path class="st1" d="M284.4,94.3c3.5-2.3,4.5,4,2.3,5.8C283.3,101.3,282.7,96.1,284.4,94.3L284.4,94.3z"/>
	<path class="st1" d="M261.4,98.3c0.4-1.3,0.8-2.5,1.1-3.7c0.4,1.2,0.7,2.5,1.1,3.7C263.1,98.3,261.9,98.3,261.4,98.3L261.4,98.3z"
		/>
</g>
</svg>
