<?xml version="1.0" encoding="utf-8"?>
<!-- Generator: Adobe Illustrator 19.1.0, SVG Export Plug-In . SVG Version: 6.00 Build 0)  -->
<svg version="1.1" id="Layer_1" xmlns="http://www.w3.org/2000/svg" xmlns:xlink="http://www.w3.org/1999/xlink" x="0px" y="0px"
	 viewBox="-377.8 138.1 285.8 285.8" style="enable-background:new -377.8 138.1 285.8 285.8;" xml:space="preserve">
<style type="text/css">
	.st0{fill:#FFFFFF;}
	.st1{fill:#0A2066;}
</style>
<path class="st0" d="M-105.4,131h-259c-11.3,0-20.5,9.2-20.5,20.5v259c0,11.3,9.2,20.5,20.5,20.5h259c11.3,0,20.5-9.2,20.5-20.5
	v-259C-85.1,140.2-94.1,131-105.4,131z M-92.1,410.5c0,7.4-6,13.4-13.4,13.4h-259c-7.4,0-13.4-6-13.4-13.4v-259
	c0-7.4,6-13.4,13.4-13.4h259c7.4,0,13.4,6,13.4,13.4V410.5L-92.1,410.5z"/>
<path class="st1" d="M-92.1,410.5c0,7.4-6,13.4-13.4,13.4h-259c-7.4,0-13.4-6-13.4-13.4v-259c0-7.4,6-13.4,13.4-13.4h259
	c7.4,0,13.4,6,13.4,13.4V410.5L-92.1,410.5z"/>
<path class="st0" d="M-200.5,377.2c6.4-2.5,9.8-7.1,9.8-14.5c0-0.4,0-0.8,0-1.3c-0.6-9.6-8.2-14.5-17.4-14.5h-24.9v49.3h11.7v-17.7
	h8.4l9.1,17.7h13.2L-200.5,377.2z M-209.9,370.2h-11.4v-14.5h11.4c4.5,0,7.2,2.1,7.2,7.2C-202.8,367.7-205.3,370.2-209.9,370.2z"/>
<path class="st0" d="M-295.5,347h-13.4l-8.2,21.6l-9.2-16c-1.8-3.1-6-5.6-9.6-5.6h-6.7l20.2,35.5l-5.3,13.8h7c3.5,0,7.4-2.6,8.6-6
	L-295.5,347z"/>
<path class="st0" d="M-260.2,374.8H-277l7-18.5c0.7-2,2-2,2.6,0L-260.2,374.8z M-257,383.2L-257,383.2l5,13.2h12.5l-16.4-43.3
	c-1.3-3.3-5.2-6-8.6-6h-14.4l-18.7,49.3h6.3c3.5,0,7.2-2.6,8.5-6l2.8-7.2H-257"/>
<path class="st0" d="M-159.2,356.3c0.7-2,2-2,2.6,0l7,18.5h-16.7L-159.2,356.3z M-169.4,383.2h23l2.8,7.2c1.3,3.3,5,6,8.5,6h6.3
	l-18.7-49.3h-14.4c-3.5,0-7.4,2.6-8.6,6l-16.4,43.3h12.5L-169.4,383.2L-169.4,383.2"/>
<path class="st0" d="M-305.8,207.6c0-29.4,19.4-47.9,19.4-47.9c0.4-0.4,2.1-0.3,3.3-0.3c5.6,0,15.7,0,21.7,0
	c-11,9.6-17.8,33.6-17.8,48.4c0,14.6,6.8,38.7,17.8,48.4c-5.9,0-16.2,0-21.7,0c-1.3,0-2.8,0-3.3-0.3
	C-286.3,255.7-305.8,237-305.8,207.6z M-193.1,255.7c0.6,0.4,2.1,0.3,3.3,0.3c5.4,0,15.7,0,21.7,0c-11-9.6-17.8-33.7-17.8-48.4
	c0-14.6,6.8-38.7,17.8-48.4c-6,0-16.3,0-21.7,0c-1.4,0-2.9,0-3.3,0.3c0,0-19.4,18.5-19.4,47.9C-212.4,237-193.1,255.7-193.1,255.7z
	 M-239.8,255.7c0.6,0.4,2.1,0.3,3.3,0.3c5.4,0,15.6,0,21.6,0c-11-9.6-17.8-33.7-17.8-48.4c0-14.6,6.8-38.7,17.8-48.4
	c-6,0-16.2,0-21.6,0c-1.4,0-2.8,0-3.3,0.3c0,0-19.4,19-19.4,47.9C-259.1,236.8-239.8,255.7-239.8,255.7z M-133.6,294.2
	c-3.3-6.8-9.1-18.3-10.2-22.2c0,0-3.5-8.8,5.9-10.3c3.9-0.6,6.5-3.5,6.8-7.2v-4.3c0-0.7-0.6-1.1-1.1-1.1h-15.5
	c-0.3,0-10.9,1.1-11,14.1c-0.3,22,0.1,24.9-5.7,25.9c-0.6,0-1-0.6-1-1l0,0c0-0.3,0-0.4,0-0.7c0-11.7-9.5-21.2-21.2-21.2
	c-6,0-11.3,2.5-15.2,6.4l0,0c-0.1,0.3-0.6,0.6-1,0.6c-0.4,0-0.8-0.3-1-0.6l0,0c-3.9-3.9-9.2-6.4-15.2-6.4c-6,0-11.3,2.5-15.2,6.4
	l0,0c-0.1,0.3-0.6,0.6-1,0.6c-0.4,0-0.8-0.3-1-0.6l0,0c-3.9-3.9-9.2-6.4-15.2-6.4c-6,0-11.3,2.5-15.2,6.4l0,0
	c-0.1,0.3-0.6,0.6-1,0.6c-0.4,0-0.8-0.3-1-0.6l0,0c-3.9-3.9-9.2-6.4-15.2-6.4c-11.7,0-21.2,9.5-21.2,21.2c0,0.3,0,0.4,0,0.7l0,0
	c0,0.6-0.6,1.1-1.1,1.1c-6-1-5.6-3.9-5.9-25.9c-0.1-12.8-10.7-14.1-11-14.1h-15.5c-0.6,0-1.1,0.6-1.1,1.1v4.3
	c0.1,3.8,2.8,6.7,6.8,7.2c9.3,1.4,5.9,10.3,5.9,10.3c-1.1,3.9-6.8,15.5-10.2,22.2c-2.1,4.3-6.4,15.2,0.3,25.6
	c3.9,6,8.5,11.7,25.1,11.4h152.3c16.6,0.3,21-5.4,25.1-11.4l0,0C-127.2,309.4-131.4,298.5-133.6,294.2z M-283.2,274.5
	c-7,0-12.7,5.7-12.7,12.7c0,7,5.7,12.7,12.7,12.7c7,0,12.7-5.7,12.7-12.7S-276.3,274.5-283.2,274.5z M-186.5,274.5
	c-7,0-12.7,5.7-12.7,12.7c0,7,5.7,12.7,12.7,12.7c7,0,12.7-5.7,12.7-12.7C-173.7,280.2-179.4,274.5-186.5,274.5z M-251,274.5
	c-7,0-12.7,5.7-12.7,12.7c0,7,5.7,12.7,12.7,12.7c7,0,12.7-5.7,12.7-12.7S-243.9,274.5-251,274.5z M-218.7,274.5
	c-7,0-12.7,5.7-12.7,12.7c0,7,5.7,12.7,12.7,12.7s12.7-5.7,12.7-12.7C-206,280.2-211.7,274.5-218.7,274.5z"/>
</svg>
