<?xml version="1.0" encoding="utf-8"?>
<!-- Generator: Adobe Illustrator 21.1.0, SVG Export Plug-In . SVG Version: 6.00 Build 0)  -->
<svg version="1.1" id="レイヤー_1" xmlns="http://www.w3.org/2000/svg" xmlns:xlink="http://www.w3.org/1999/xlink" x="0px"
	 y="0px" viewBox="0 0 300 261.7" style="enable-background:new 0 0 300 261.7;" xml:space="preserve">
<style type="text/css">
	.st0{fill:#FFEC00;}
</style>
<path class="st0" d="M48.9,99.3c42.3,22.6,77.2,57.5,99.3,102.6c22-45,56.9-80,99.3-102.6L148.2,0L48.9,99.3z"/>
<polygon points="23,259.5 16.8,259.5 16.8,242.6 0,218.3 7.8,218.3 19.9,236.5 32,218.3 39.7,218.3 23,242.4 "/>
<path d="M54.2,217.3c-3,0-19.8,1.4-19.8,22.1c0,19.5,16.8,21.3,20,21.3c3.4,0,19.9-2,19.9-21.8C74.3,220,59.4,217.3,54.2,217.3z
	 M54.6,255.3c-6,0-14-3.5-14-16.3c0-11.7,7.6-16.3,13.6-16.3c5.5,0,13.8,3.6,13.8,16.9C68.1,252.5,58.8,255.3,54.6,255.3z"/>
<polygon points="83.4,259.5 77.2,259.5 77.2,218.5 83.7,218.5 83.7,238 102.9,218.5 111.3,218.5 94.4,235.7 112.5,259.4 
	104.6,259.5 89.6,239.5 83.4,245.5 "/>
<path d="M127.2,217.3c-5.8,0.2-20.4,3.2-20.4,21.4c0,20,15.7,22.1,20.6,22c5.4,0,19.6-3.9,19.6-21.9
	C147,217.3,126.9,217.3,127.2,217.3z M127.1,255.3c-5.9,0-13.9-3.2-13.9-16.3c0-12.5,8.1-16.3,13.8-16.3c7.1,0,13.5,5.4,13.5,16.1
	C140.5,252.5,131.9,255.3,127.1,255.3z"/>
<path d="M169.7,238.1l17.5,0l0,21.3l-4.9,0l-0.7-3.9c-3.8,3.8-7.6,5.1-13.7,5.1c-8.8,0-18.5-7.2-18.5-21.8c0-9.9,6.6-21.5,19.5-21.4
	c6.9,0,16.1,2.5,17.7,13.3l-6.4,0c-0.8-2.7-3.1-8-11.2-8c-6.6,0-13.2,4.1-13.2,16.6c0,11.8,7.3,16.2,12.9,16.2
	c5.5,0,10.6-1.9,12.7-11.8h-11.8L169.7,238.1z"/>
<path d="M209.2,218.5l-8.3,0L188,259.5h6.6l3.4-11.2l15.8,0l4.4,11.2l6.8-0.1L209.2,218.5z M199.6,243l5.5-18.4l1.2,3.3l5.5,15.1
	H199.6z"/>
<path d="M217.6,218.4h6.9c5.5,22.6,6.3,26.6,7.5,30.9l-0.1-0.1c0.9-4.1,3.2-9.4,8.6-30.8h6.3c6.2,22.8,7,26.3,8.5,31.1l0.1-0.3
	c0.9-3.8,2-8,7.5-30.8l6.9-0.1l-11.2,41l-6.2,0c-5.3-17.9-5.9-20.5-8.6-30.1l0,0c-2.2,7.6-2.8,10.1-8.4,30.1l-6.5-0.1L217.6,218.4z"
	/>
<path d="M285.7,218.5h-8l-14.4,41h6.4l3.8-11.2l16.1,0l3.8,11.2l6.7,0L285.7,218.5z M275.4,243l6-17.6l6.3,17.6L275.4,243z"/>
</svg>
